<svg width="426" height="431" viewBox="0 0 426 431" fill="none" xmlns="http://www.w3.org/2000/svg">
<style>
  .arc {
    stroke-dasharray: 100;
    stroke-dashoffset: 95;
    animation: gn-draw 7.6s ease-in-out infinite;
  }
  @keyframes gn-draw {
    0%, 100% { stroke-dashoffset: 95; }
    35%, 65% { stroke-dashoffset: 0; }
  }
  @media (prefers-reduced-motion: reduce) {
    .arc {
      animation: none;
      stroke-dashoffset: 0;
    }
  }
</style>
<g clip-path="url(#clip0_466_58443)" transform="translate(0 431) scale(1 -1)">
<path class="arc" pathLength="100" d="M216.122 52.7587C246.021 52.7587 273.967 61.1275 297.757 75.6577C297.782 75.6577 297.801 75.6451 297.827 75.6451C279.162 45.0444 250.374 21.3378 216.128 9.18481C181.883 21.3378 153.094 45.0507 134.43 75.6451C134.455 75.6451 134.474 75.6577 134.499 75.6577C158.29 61.1275 186.236 52.7587 216.135 52.7587H216.122Z" stroke="#6D6CD5" stroke-width="0.87" stroke-miterlimit="10"/>
<path class="arc" pathLength="100" d="M297.698 75.3826C274.001 60.9139 246.163 52.5774 216.379 52.5774C186.595 52.5774 158.763 60.9139 135.059 75.3826C163.7 81.6409 191.082 91.9346 216.379 106.333C241.676 91.9346 269.058 81.6409 297.698 75.3826Z" stroke="#6D6CD5" stroke-width="0.87" stroke-miterlimit="10"/>
<path class="arc" pathLength="100" d="M134.993 75.3826C134.948 75.4076 134.909 75.4336 134.866 75.4586C113.468 88.5569 95.4294 106.633 82.3689 128.081C82.344 128.126 82.3179 128.163 82.293 128.208C88.5662 157.053 98.8839 184.63 113.316 210.107C114.903 207.3 116.541 204.525 118.23 201.776C128.478 185.062 140.586 169.342 154.542 154.843C156.809 152.425 159.151 150.076 161.564 147.804C176.028 133.815 191.711 121.685 208.384 111.406C211.127 109.712 213.902 108.071 216.696 106.479C191.279 92.0128 163.768 81.6701 134.993 75.3826Z" stroke="#6D6CD5" stroke-width="0.87" stroke-miterlimit="10"/>
<path class="arc" pathLength="100" d="M164.091 0.00625313C131.656 0.00625313 101.522 9.86744 76.498 26.7561C59.6387 38.1399 45.1329 52.6816 33.7758 69.5806C16.9279 94.6526 7.08984 124.865 7.08984 157.377C7.08984 175.803 10.2592 193.479 16.0653 209.91C28.1789 175.613 51.8151 146.779 82.3103 128.08L82.405 128.022C95.4655 106.589 113.431 88.5808 134.813 75.4898L134.871 75.394C153.519 44.8193 182.29 21.1324 216.5 8.99096C200.107 3.17659 182.467 0 164.091 0V0.00625313Z" stroke="#6D6CD5" stroke-width="0.87" stroke-miterlimit="10"/>
<path class="arc" pathLength="100" d="M82.2999 128.91C67.8535 152.665 59.543 180.57 59.543 210.424C59.543 240.28 67.8598 268.184 82.2999 291.939C88.543 263.231 98.8128 235.783 113.177 210.424C98.8128 185.067 88.543 157.619 82.2999 128.91Z" stroke="#6D6CD5" stroke-width="0.87" stroke-miterlimit="10"/>
<path class="arc" pathLength="100" d="M59.7233 209.86C59.7233 179.889 68.0713 151.877 82.5676 128.03C82.5676 128.005 82.5551 127.986 82.5551 127.96C52.0276 146.669 28.3769 175.526 16.2539 209.86C28.3769 244.187 52.0339 273.045 82.5551 291.754C82.5551 291.728 82.5676 291.71 82.5676 291.685C68.0713 267.837 59.7233 239.825 59.7233 209.854V209.86Z" stroke="#6D6CD5" stroke-width="0.87" stroke-miterlimit="10"/>
<path class="arc" pathLength="100" d="M314.772 201.562C304.535 184.869 292.446 169.169 278.507 154.688C276.25 152.285 273.924 149.948 271.528 147.691C257.081 133.719 241.418 121.602 224.766 111.34C222.021 109.65 219.258 108.01 216.468 106.422C213.672 108.01 210.909 109.656 208.17 111.34C191.524 121.595 175.867 133.713 161.427 147.679C159.018 149.948 156.679 152.292 154.416 154.706C140.484 169.181 128.401 184.876 118.164 201.562C116.478 204.306 114.843 207.084 113.258 209.879C114.843 212.681 116.484 215.451 118.164 218.197C128.395 234.876 140.47 250.565 154.397 265.032C156.673 267.46 159.018 269.817 161.446 272.099C175.886 286.059 191.537 298.163 208.177 308.419C210.915 310.108 213.686 311.748 216.474 313.337C219.27 311.748 222.034 310.108 224.772 308.419C241.418 298.163 257.069 286.046 271.509 272.086C273.924 269.817 276.263 267.466 278.526 265.051C292.459 250.577 304.541 234.883 314.772 218.197C316.458 215.451 318.093 212.675 319.678 209.879C318.093 207.077 316.458 204.306 314.772 201.562Z" stroke="#6D6CD5" stroke-width="0.87" stroke-miterlimit="10"/>
<path class="arc" pathLength="100" d="M208.39 308.695C191.723 298.422 176.047 286.292 161.583 272.315C159.155 270.032 156.801 267.671 154.523 265.238C140.573 250.746 128.472 235.026 118.23 218.325C116.541 215.576 114.903 212.794 113.316 209.994C98.8839 235.471 88.5662 263.048 82.293 291.893C82.3179 291.937 82.344 291.975 82.3689 292.02C95.4512 313.49 113.447 331.528 134.866 344.642C134.909 344.667 134.948 344.692 134.993 344.718C163.768 338.43 191.279 328.088 216.696 313.622C213.896 312.03 211.127 310.388 208.384 308.695H208.39Z" stroke="#6D6CD5" stroke-width="0.87" stroke-miterlimit="10"/>
<path class="arc" pathLength="100" d="M134.864 344.504L134.807 344.408C113.445 331.332 95.4374 313.287 82.3988 291.875L82.3041 291.818C51.8088 273.125 28.1789 244.291 16.059 209.994C10.2592 226.425 7.08984 244.108 7.08984 262.527C7.08984 295.039 16.9279 325.245 33.7758 350.329C45.1215 367.218 59.6501 381.782 76.498 393.154C101.516 410.043 131.656 419.904 164.091 419.904C182.473 419.904 200.107 416.727 216.5 410.907C182.283 398.765 153.519 375.072 134.871 344.504H134.864Z" stroke="#6D6CD5" stroke-width="0.87" stroke-miterlimit="10"/>
<path class="arc" pathLength="100" d="M135.059 344.516C158.757 358.991 186.595 367.327 216.379 367.327C246.163 367.327 274.001 358.991 297.698 344.516C269.058 338.258 241.676 327.964 216.379 313.565C191.082 327.964 163.7 338.258 135.059 344.516Z" stroke="#6D6CD5" stroke-width="0.87" stroke-miterlimit="10"/>
<path class="arc" pathLength="100" d="M216.451 367.188C186.551 367.188 158.612 358.813 134.816 344.288C134.797 344.288 134.771 344.301 134.746 344.301C153.41 374.901 182.206 398.603 216.445 410.754C250.689 398.603 279.479 374.895 298.149 344.301C298.13 344.301 298.105 344.288 298.079 344.288C274.289 358.819 246.344 367.188 216.445 367.188H216.451Z" stroke="#6D6CD5" stroke-width="0.87" stroke-miterlimit="10"/>
<path class="arc" pathLength="100" d="M319.323 209.994C317.736 212.8 316.098 215.576 314.408 218.325C304.161 235.038 292.053 250.759 278.103 265.257C275.837 267.682 273.487 270.03 271.074 272.303C256.611 286.285 240.928 298.422 224.261 308.695C221.518 310.388 218.743 312.03 215.949 313.622C241.366 328.088 268.878 338.43 297.653 344.718C297.698 344.692 297.735 344.667 297.78 344.642C319.199 331.526 337.197 313.489 350.283 292.02C350.308 291.975 350.333 291.937 350.359 291.893C344.086 263.048 333.768 235.465 319.336 209.994H319.323Z" stroke="#6D6CD5" stroke-width="0.87" stroke-miterlimit="10"/>
<path class="arc" pathLength="100" d="M350.151 291.939C364.591 268.184 372.908 240.28 372.908 210.424C372.908 180.57 364.591 152.665 350.151 128.91C343.907 157.619 333.638 185.067 319.273 210.424C333.638 235.783 343.907 263.231 350.151 291.939Z" stroke="#6D6CD5" stroke-width="0.87" stroke-miterlimit="10"/>
<path class="arc" pathLength="100" d="M350.284 127.834C337.262 106.463 319.35 88.5079 298.028 75.4586C297.983 75.4326 297.946 75.4076 297.902 75.3826C269.261 81.6409 241.879 91.9346 216.582 106.333C219.369 107.918 222.124 109.558 224.854 111.237C241.455 121.467 257.071 133.547 271.473 147.477C273.862 149.732 276.188 152.057 278.431 154.451C292.328 168.889 304.379 184.541 314.585 201.182C316.266 203.919 317.896 206.687 319.476 209.475C333.841 184.117 344.11 156.669 350.354 127.96C350.328 127.916 350.303 127.878 350.278 127.834H350.284Z" stroke="#6D6CD5" stroke-width="0.87" stroke-miterlimit="10"/>
<path class="arc" pathLength="100" d="M398.679 69.5744C387.322 52.6743 372.816 38.1337 355.957 26.7498C330.939 9.85493 300.799 0 268.364 0C249.981 0 232.348 3.17659 215.949 8.99096C250.165 21.1324 278.93 44.8256 297.578 75.394L297.635 75.4898C319.019 88.5818 336.985 106.59 350.05 128.022L350.145 128.08C380.646 146.772 404.276 175.606 416.39 209.91C422.196 193.479 425.365 175.796 425.365 157.377C425.365 124.865 415.527 94.6588 398.679 69.5744Z" stroke="#6D6CD5" stroke-width="0.87" stroke-miterlimit="10"/>
<path class="arc" pathLength="100" d="M372.77 209.854C372.77 239.825 364.421 267.837 349.926 291.685C349.926 291.71 349.938 291.728 349.938 291.754C380.466 273.045 404.117 244.187 416.239 209.86C404.117 175.534 380.46 146.676 349.938 127.96C349.938 127.986 349.926 128.005 349.926 128.03C364.421 151.877 372.77 179.889 372.77 209.86V209.854Z" stroke="#6D6CD5" stroke-width="0.87" stroke-miterlimit="10"/>
<path class="arc" pathLength="100" d="M417.028 209.36C404.915 243.658 381.278 272.491 350.783 291.184L350.688 291.241C337.628 312.677 319.66 330.685 298.273 343.775L298.217 343.87C279.568 374.445 250.797 398.131 216.582 410.273C232.973 416.094 250.614 419.27 268.996 419.27C301.43 419.27 331.565 409.409 356.59 392.521C373.438 381.148 387.965 366.584 399.312 349.697C416.16 324.618 425.997 294.406 425.997 261.893C425.997 243.468 422.828 225.791 417.022 209.36H417.028Z" stroke="#6D6CD5" stroke-width="0.87" stroke-miterlimit="10"/>
<path d="M215.907 0.576416C220.791 0.576416 224.751 4.54298 224.751 9.43501C224.751 14.327 220.791 18.2936 215.907 18.2936C211.023 18.2936 207.062 14.327 207.062 9.43501C207.062 4.54298 211.023 0.576416 215.907 0.576416Z" fill="#FF8617"/>
<path d="M134.826 59.46C143.779 59.46 151.035 66.7344 151.035 75.7077C151.035 84.6809 143.779 91.9554 134.826 91.9554C125.875 91.9554 118.617 84.6809 118.617 75.7077C118.617 66.7344 125.875 59.46 134.826 59.46Z" fill="#959FF9"/>
<path d="M82.7211 124.076C86.7437 124.076 90.0046 127.342 90.0046 131.371C90.0046 135.4 86.7437 138.666 82.7211 138.666C78.6985 138.666 75.4375 135.4 75.4375 131.371C75.4375 127.342 78.6985 124.076 82.7211 124.076Z" fill="#64B9B5"/>
<path d="M16.209 193.902C25.1616 193.902 32.4181 201.177 32.4181 210.15C32.4181 219.123 25.1616 226.398 16.209 226.398C7.25755 226.398 0 219.123 0 210.15C0 201.177 7.25755 193.902 16.209 193.902Z" fill="#B9E188"/>
<path d="M82.7221 269.461C93.353 269.461 101.971 278.093 101.971 288.741C101.971 299.389 93.353 308.022 82.7221 308.022C72.0912 308.022 63.4727 299.389 63.4727 288.741C63.4727 278.093 72.0912 269.461 82.7221 269.461Z" fill="#DCAAEC"/>
<path d="M135.645 336.161C140.165 336.161 143.829 339.834 143.829 344.364C143.829 348.895 140.165 352.568 135.645 352.568C131.125 352.568 127.461 348.895 127.461 344.364C127.461 339.834 131.125 336.161 135.645 336.161Z" fill="#48156E"/>
<path d="M216.946 390.355C228.152 390.355 237.236 399.453 237.236 410.677C237.236 421.902 228.152 431 216.946 431C205.74 431 196.656 421.902 196.656 410.677C196.656 399.453 205.74 390.355 216.946 390.355Z" fill="#790444"/>
<path d="M296.544 336.682C301.428 336.682 305.388 340.649 305.388 345.541C305.388 350.433 301.428 354.399 296.544 354.399C291.659 354.399 287.699 350.433 287.699 345.541C287.699 340.649 291.659 336.682 296.544 336.682Z" fill="#35A6C0"/>
<path d="M350.652 280.404C356.686 280.404 361.577 285.303 361.577 291.347C361.577 297.39 356.686 302.29 350.652 302.29C344.618 302.29 339.727 297.39 339.727 291.347C339.727 285.303 344.618 280.404 350.652 280.404Z" fill="#4EC97E"/>
<path d="M216.947 304.895C222.119 304.895 226.311 309.094 226.311 314.275C226.311 319.456 222.119 323.655 216.947 323.655C211.774 323.655 207.582 319.456 207.582 314.275C207.582 309.094 211.774 304.895 216.947 304.895Z" fill="#006B49"/>
<path d="M113.417 204.845C116.29 204.845 118.62 207.179 118.62 210.056C118.62 212.934 116.29 215.267 113.417 215.267C110.545 215.267 108.215 212.934 108.215 210.056C108.215 207.179 110.545 204.845 113.417 204.845Z" fill="#FF7B95"/>
<path d="M215.907 98.021C220.791 98.021 224.751 101.988 224.751 106.88C224.751 111.772 220.791 115.738 215.907 115.738C211.023 115.738 207.062 111.772 207.062 106.88C207.062 101.988 211.023 98.021 215.907 98.021Z" fill="#D3295B"/>
<path d="M295.505 64.1499C302.113 64.1499 307.471 69.5161 307.471 76.1351C307.471 82.754 302.113 88.1202 295.505 88.1202C288.897 88.1202 283.539 82.754 283.539 76.1351C283.539 69.5161 288.897 64.1499 295.505 64.1499Z" fill="#003E56"/>
<path d="M350.652 108.443C363.007 108.443 373.023 118.475 373.023 130.85C373.023 143.225 363.007 153.257 350.652 153.257C338.297 153.257 328.281 143.225 328.281 130.85C328.281 118.475 338.297 108.443 350.652 108.443Z" fill="#09967E"/>
<path d="M416.723 201.198C421.607 201.198 425.568 205.164 425.568 210.056C425.568 214.948 421.607 218.915 416.723 218.915C411.839 218.915 407.879 214.948 407.879 210.056C407.879 205.164 411.839 201.198 416.723 201.198Z" fill="#6D6CD5"/>
<path d="M319.438 199.113C325.759 199.113 330.883 204.246 330.883 210.577C330.883 216.909 325.759 222.041 319.438 222.041C313.117 222.041 307.992 216.909 307.992 210.577C307.992 204.246 313.117 199.113 319.438 199.113Z" fill="#FF4B51"/>
</g>
<defs>
<clipPath id="clip0_466_58443">
<rect width="426" height="431" fill="white"/>
</clipPath>
</defs>
</svg>
