<svg width="660" height="564" viewBox="0 0 660 564" fill="none" xmlns="http://www.w3.org/2000/svg">
<path d="M227.117 155.729C236.64 155.729 244.36 148.009 244.36 138.486C244.36 128.963 236.64 121.243 227.117 121.243C217.594 121.243 209.874 128.963 209.874 138.486C209.874 148.009 217.594 155.729 227.117 155.729Z" fill="#6D6CDC"/>
<path d="M190.922 235.503C200.445 235.503 208.165 227.783 208.165 218.26C208.165 208.737 200.445 201.017 190.922 201.017C181.399 201.017 173.679 208.737 173.679 218.26C173.679 227.783 181.399 235.503 190.922 235.503Z" fill="#E60059"/>
<path d="M190.539 180.088C198.325 180.088 204.637 173.775 204.637 165.989C204.637 158.203 198.325 151.89 190.539 151.89C182.752 151.89 176.44 158.203 176.44 165.989C176.44 173.775 182.752 180.088 190.539 180.088Z" fill="#FF7194"/>
<path d="M205.039 204.173C212.825 204.173 219.137 197.861 219.137 190.075C219.137 182.288 212.825 175.976 205.039 175.976C197.252 175.976 190.94 182.288 190.94 190.075C190.94 197.861 197.252 204.173 205.039 204.173Z" fill="#FF7194"/>
<path d="M222.449 231.743C230.236 231.743 236.548 225.431 236.548 217.645C236.548 209.858 230.236 203.546 222.449 203.546C214.663 203.546 208.351 209.858 208.351 217.645C208.351 225.431 214.663 231.743 222.449 231.743Z" fill="#FF7194"/>
<path d="M452.243 255.319C460.03 255.319 466.342 249.007 466.342 241.221C466.342 233.434 460.03 227.122 452.243 227.122C444.457 227.122 438.145 233.434 438.145 241.221C438.145 249.007 444.457 255.319 452.243 255.319Z" fill="#FF7194"/>
<path d="M476.073 205.309C483.86 205.309 490.172 198.997 490.172 191.21C490.172 183.424 483.86 177.112 476.073 177.112C468.287 177.112 461.975 183.424 461.975 191.21C461.975 198.997 468.287 205.309 476.073 205.309Z" fill="#FF7194"/>
<path d="M236.34 256.129C244.126 256.129 250.439 249.817 250.439 242.03C250.439 234.244 244.126 227.932 236.34 227.932C228.554 227.932 222.241 234.244 222.241 242.03C222.241 249.817 228.554 256.129 236.34 256.129Z" fill="#FF7194"/>
<path d="M208.373 258.585C216.159 258.585 222.471 252.273 222.471 244.487C222.471 236.7 216.159 230.388 208.373 230.388C200.586 230.388 194.274 236.7 194.274 244.487C194.274 252.273 200.586 258.585 208.373 258.585Z" fill="#FF7194"/>
<path d="M176.939 204.451C184.726 204.451 191.038 198.139 191.038 190.352C191.038 182.566 184.726 176.254 176.939 176.254C169.153 176.254 162.841 182.566 162.841 190.352C162.841 198.139 169.153 204.451 176.939 204.451Z" fill="#FF7194"/>
<path d="M285.34 276.417C293.126 276.417 299.438 270.105 299.438 262.319C299.438 254.532 293.126 248.22 285.34 248.22C277.553 248.22 271.241 254.532 271.241 262.319C271.241 270.105 277.553 276.417 285.34 276.417Z" fill="#FF7194"/>
<path d="M313.489 276.417C321.276 276.417 327.588 270.105 327.588 262.319C327.588 254.532 321.276 248.22 313.489 248.22C305.703 248.22 299.391 254.532 299.391 262.319C299.391 270.105 305.703 276.417 313.489 276.417Z" fill="#FF7194"/>
<path d="M376.211 276.417C383.998 276.417 390.31 270.105 390.31 262.319C390.31 254.532 383.998 248.22 376.211 248.22C368.425 248.22 362.113 254.532 362.113 262.319C362.113 270.105 368.425 276.417 376.211 276.417Z" fill="#FF7194"/>
<path d="M344.924 279.587C354.461 279.587 362.192 271.856 362.192 262.319C362.192 252.782 354.461 245.051 344.924 245.051C335.387 245.051 327.656 252.782 327.656 262.319C327.656 271.856 335.387 279.587 344.924 279.587Z" fill="#E60059"/>
<path d="M450.525 227.042C460.048 227.042 467.768 219.322 467.768 209.799C467.768 200.276 460.048 192.556 450.525 192.556C441.002 192.556 433.282 200.276 433.282 209.799C433.282 219.322 441.002 227.042 450.525 227.042Z" fill="#E60059"/>
<path d="M246.505 196.9C256.028 196.9 263.748 189.18 263.748 179.657C263.748 170.134 256.028 162.415 246.505 162.415C236.982 162.415 229.262 170.134 229.262 179.657C229.262 189.18 236.982 196.9 246.505 196.9Z" fill="#6D6CDC"/>
<path d="M282 224.172C291.522 224.172 299.242 216.804 299.242 207.716C299.242 198.628 291.522 191.26 282 191.26C272.477 191.26 264.757 198.628 264.757 207.716C264.757 216.804 272.477 224.172 282 224.172Z" fill="#6D6CDC"/>
<path d="M408.317 201.946C417.84 201.946 425.56 194.226 425.56 184.703C425.56 175.18 417.84 167.46 408.317 167.46C398.794 167.46 391.074 175.18 391.074 184.703C391.074 194.226 398.794 201.946 408.317 201.946Z" fill="#6D6CDC"/>
<path d="M299.594 173.252C310.51 173.252 319.359 164.403 319.359 153.487C319.359 142.571 310.51 133.722 299.594 133.722C288.678 133.722 279.829 142.571 279.829 153.487C279.829 164.403 288.678 173.252 299.594 173.252Z" fill="#893BA1"/>
<path d="M358.829 173.252C369.745 173.252 378.594 164.403 378.594 153.487C378.594 142.571 369.745 133.722 358.829 133.722C347.912 133.722 339.063 142.571 339.063 153.487C339.063 164.403 347.912 173.252 358.829 173.252Z" fill="#893BA1"/>
<path d="M277.583 131.019C288.499 131.019 297.348 122.17 297.348 111.254C297.348 100.338 288.499 91.4883 277.583 91.4883C266.667 91.4883 257.817 100.338 257.817 111.254C257.817 122.17 266.667 131.019 277.583 131.019Z" fill="#893BA1"/>
<path d="M382.84 131.019C393.756 131.019 402.605 122.17 402.605 111.254C402.605 100.338 393.756 91.4883 382.84 91.4883C371.924 91.4883 363.075 100.338 363.075 111.254C363.075 122.17 371.924 131.019 382.84 131.019Z" fill="#893BA1"/>
<path d="M113.573 265.08C123.096 265.08 130.816 257.36 130.816 247.837C130.816 238.314 123.096 230.594 113.573 230.594C104.05 230.594 96.3298 238.314 96.3298 247.837C96.3298 257.36 104.05 265.08 113.573 265.08Z" fill="#00997D"/>
<path d="M565.353 364.724C576.323 364.724 585.217 355.831 585.217 344.86C585.217 333.89 576.323 324.997 565.353 324.997C554.382 324.997 545.489 333.89 545.489 344.86C545.489 355.831 554.382 364.724 565.353 364.724Z" fill="#00A9C3"/>
<path d="M591.024 294.397C600.561 294.397 608.293 286.665 608.293 277.128C608.293 267.591 600.561 259.86 591.024 259.86C581.487 259.86 573.756 267.591 573.756 277.128C573.756 286.665 581.487 294.397 591.024 294.397Z" fill="#00A9C3"/>
<path d="M419.354 336.1C429.343 336.1 437.44 328.003 437.44 318.014C437.44 308.025 429.343 299.928 419.354 299.928C409.365 299.928 401.268 308.025 401.268 318.014C401.268 328.003 409.365 336.1 419.354 336.1Z" fill="#FF7D00"/>
<path d="M502.026 267.513C511.549 267.513 519.269 259.793 519.269 250.27C519.269 240.747 511.549 233.027 502.026 233.027C492.503 233.027 484.783 240.747 484.783 250.27C484.783 259.793 492.503 267.513 502.026 267.513Z" fill="#FF7D00"/>
<path d="M270.388 340.78C279.457 340.78 286.809 333.428 286.809 324.359C286.809 315.29 279.457 307.938 270.388 307.938C261.319 307.938 253.968 315.29 253.968 324.359C253.968 333.428 261.319 340.78 270.388 340.78Z" fill="#FF7D00"/>
<path d="M240.138 341.488C247.804 341.488 254.019 335.273 254.019 327.607C254.019 319.941 247.804 313.726 240.138 313.726C232.472 313.726 226.257 319.941 226.257 327.607C226.257 335.273 232.472 341.488 240.138 341.488Z" fill="#FFAE42"/>
<path d="M157.514 265.743C167.037 265.743 174.757 258.023 174.757 248.5C174.757 238.977 167.037 231.257 157.514 231.257C147.991 231.257 140.271 238.977 140.271 248.5C140.271 258.023 147.991 265.743 157.514 265.743Z" fill="#FF7D00"/>
<path d="M182.261 281.215C189.927 281.215 196.142 275.001 196.142 267.334C196.142 259.668 189.927 253.453 182.261 253.453C174.594 253.453 168.379 259.668 168.379 267.334C168.379 275.001 174.594 281.215 182.261 281.215Z" fill="#FFAE42"/>
<path d="M153.589 231.547C159.639 231.547 164.544 226.642 164.544 220.592C164.544 214.542 159.639 209.637 153.589 209.637C147.538 209.637 142.634 214.542 142.634 220.592C142.634 226.642 147.538 231.547 153.589 231.547Z" fill="#FFAE42"/>
<path d="M230.357 397.437C239.88 397.437 247.6 389.717 247.6 380.194C247.6 370.671 239.88 362.951 230.357 362.951C220.834 362.951 213.115 370.671 213.115 380.194C213.115 389.717 220.834 397.437 230.357 397.437Z" fill="#00997D"/>
<path d="M220.445 364.704C226.932 364.704 232.19 359.445 232.19 352.959C232.19 346.472 226.932 341.213 220.445 341.213C213.958 341.213 208.699 346.472 208.699 352.959C208.699 359.445 213.958 364.704 220.445 364.704Z" fill="#00CC76"/>
<path d="M255.634 406.117C262.121 406.117 267.379 400.859 267.379 394.372C267.379 387.885 262.121 382.626 255.634 382.626C249.147 382.626 243.888 387.885 243.888 394.372C243.888 400.859 249.147 406.117 255.634 406.117Z" fill="#00CC76"/>
<path d="M255.714 378.024C262.201 378.024 267.46 372.765 267.46 366.278C267.46 359.791 262.201 354.533 255.714 354.533C249.227 354.533 243.969 359.791 243.969 366.278C243.969 372.765 249.227 378.024 255.714 378.024Z" fill="#00CC76"/>
<path d="M482.249 447.871C492.839 447.871 501.424 439.285 501.424 428.695C501.424 418.105 492.839 409.52 482.249 409.52C471.658 409.52 463.073 418.105 463.073 428.695C463.073 439.285 471.658 447.871 482.249 447.871Z" fill="#00A9C3"/>
<path d="M449.93 444.836C457.268 444.836 463.215 438.888 463.215 431.551C463.215 424.213 457.268 418.266 449.93 418.266C442.593 418.266 436.646 424.213 436.646 431.551C436.646 438.888 442.593 444.836 449.93 444.836Z" fill="#54E2C7"/>
<path d="M503.782 417.72C511.119 417.72 517.067 411.772 517.067 404.435C517.067 397.098 511.119 391.15 503.782 391.15C496.445 391.15 490.497 397.098 490.497 404.435C490.497 411.772 496.445 417.72 503.782 417.72Z" fill="#54E2C7"/>
<path d="M73.6904 318.981C84.2806 318.981 92.8657 310.396 92.8657 299.806C92.8657 289.216 84.2806 280.631 73.6904 280.631C63.1002 280.631 54.5151 289.216 54.5151 299.806C54.5151 310.396 63.1002 318.981 73.6904 318.981Z" fill="#00A9C3"/>
<path d="M74.3345 280.369C81.6716 280.369 87.6195 274.421 87.6195 267.084C87.6195 259.747 81.6716 253.799 74.3345 253.799C66.9974 253.799 61.0496 259.747 61.0496 267.084C61.0496 274.421 66.9974 280.369 74.3345 280.369Z" fill="#54E2C7"/>
<path d="M222.124 453.073C232.545 453.073 240.993 444.625 240.993 434.204C240.993 423.782 232.545 415.334 222.124 415.334C211.703 415.334 203.255 423.782 203.255 434.204C203.255 444.625 211.703 453.073 222.124 453.073Z" fill="#00A9C3"/>
<path d="M190.726 453.507C198.063 453.507 204.011 447.559 204.011 440.222C204.011 432.885 198.063 426.937 190.726 426.937C183.389 426.937 177.441 432.885 177.441 440.222C177.441 447.559 183.389 453.507 190.726 453.507Z" fill="#54E2C7"/>
<path d="M202.017 422.466C209.354 422.466 215.302 416.519 215.302 409.181C215.302 401.844 209.354 395.896 202.017 395.896C194.68 395.896 188.732 401.844 188.732 409.181C188.732 416.519 194.68 422.466 202.017 422.466Z" fill="#54E2C7"/>
<path d="M230.46 478.365C237.797 478.365 243.745 472.417 243.745 465.08C243.745 457.743 237.797 451.795 230.46 451.795C223.123 451.795 217.175 457.743 217.175 465.08C217.175 472.417 223.123 478.365 230.46 478.365Z" fill="#54E2C7"/>
<path d="M527.653 312.62C538.586 312.62 547.449 303.757 547.449 292.823C547.449 281.89 538.586 273.027 527.653 273.027C516.719 273.027 507.856 281.89 507.856 292.823C507.856 303.757 516.719 312.62 527.653 312.62Z" fill="#00997D"/>
<path d="M519.077 334.983C525.564 334.983 530.822 329.725 530.822 323.238C530.822 316.751 525.564 311.492 519.077 311.492C512.59 311.492 507.331 316.751 507.331 323.238C507.331 329.725 512.59 334.983 519.077 334.983Z" fill="#00CC76"/>
<path d="M548 270.309C558.122 270.309 566.327 262.104 566.327 251.982C566.327 241.861 558.122 233.656 548 233.656C537.879 233.656 529.674 241.861 529.674 251.982C529.674 262.104 537.879 270.309 548 270.309Z" fill="#00997D"/>
<path d="M550.855 233.773C557.921 233.773 563.649 228.045 563.649 220.98C563.649 213.914 557.921 208.186 550.855 208.186C543.79 208.186 538.062 213.914 538.062 220.98C538.062 228.045 543.79 233.773 550.855 233.773Z" fill="#00CC76"/>
<path d="M451.867 389.017C461.39 389.017 469.11 381.297 469.11 371.774C469.11 362.251 461.39 354.531 451.867 354.531C442.344 354.531 434.624 362.251 434.624 371.774C434.624 381.297 442.344 389.017 451.867 389.017Z" fill="#00997D"/>
<path d="M423.008 380.891C429.495 380.891 434.753 375.632 434.753 369.145C434.753 362.658 429.495 357.399 423.008 357.399C416.521 357.399 411.262 362.658 411.262 369.145C411.262 375.632 416.521 380.891 423.008 380.891Z" fill="#00CC76"/>
<path d="M470.852 361.133C478.18 361.133 484.121 355.192 484.121 347.864C484.121 340.535 478.18 334.595 470.852 334.595C463.523 334.595 457.583 340.535 457.583 347.864C457.583 355.192 463.523 361.133 470.852 361.133Z" fill="#00CC76"/>
<path d="M159.018 344.793C168.541 344.793 176.261 337.073 176.261 327.55C176.261 318.027 168.541 310.307 159.018 310.307C149.495 310.307 141.775 318.027 141.775 327.55C141.775 337.073 149.495 344.793 159.018 344.793Z" fill="#00997D"/>
<path d="M132.29 328.236C138.777 328.236 144.036 322.977 144.036 316.491C144.036 310.004 138.777 304.745 132.29 304.745C125.803 304.745 120.545 310.004 120.545 316.491C120.545 322.977 125.803 328.236 132.29 328.236Z" fill="#00CC76"/>
<path d="M187.817 342.87C194.304 342.87 199.563 337.611 199.563 331.124C199.563 324.637 194.304 319.378 187.817 319.378C181.33 319.378 176.071 324.637 176.071 331.124C176.071 337.611 181.33 342.87 187.817 342.87Z" fill="#00CC76"/>
<path d="M169.606 366.302C176.093 366.302 181.351 361.043 181.351 354.556C181.351 348.069 176.093 342.811 169.606 342.811C163.119 342.811 157.86 348.069 157.86 354.556C157.86 361.043 163.119 366.302 169.606 366.302Z" fill="#00CC76"/>
<path d="M151.593 311.236C158.08 311.236 163.338 305.977 163.338 299.49C163.338 293.003 158.08 287.745 151.593 287.745C145.106 287.745 139.847 293.003 139.847 299.49C139.847 305.977 145.106 311.236 151.593 311.236Z" fill="#00CC76"/>
<path d="M198.325 316.359C207.848 316.359 215.568 308.639 215.568 299.116C215.568 289.593 207.848 281.873 198.325 281.873C188.802 281.873 181.083 289.593 181.083 299.116C181.083 308.639 188.802 316.359 198.325 316.359Z" fill="#FF7D00"/>
<path d="M227.127 314.302C233.614 314.302 238.873 309.043 238.873 302.556C238.873 296.069 233.614 290.811 227.127 290.811C220.641 290.811 215.382 296.069 215.382 302.556C215.382 309.043 220.641 314.302 227.127 314.302Z" fill="#FFAE42"/>
<path d="M479.091 279.71C485.578 279.71 490.837 274.451 490.837 267.964C490.837 261.477 485.578 256.219 479.091 256.219C472.604 256.219 467.346 261.477 467.346 267.964C467.346 274.451 472.604 279.71 479.091 279.71Z" fill="#FFAE42"/>
<path d="M511.71 234.74C518.196 234.74 523.455 229.482 523.455 222.995C523.455 216.508 518.196 211.249 511.71 211.249C505.223 211.249 499.964 216.508 499.964 222.995C499.964 229.482 505.223 234.74 511.71 234.74Z" fill="#FFAE42"/>
<path d="M132.26 388.654C141.783 388.654 149.503 380.934 149.503 371.411C149.503 361.888 141.783 354.168 132.26 354.168C122.737 354.168 115.017 361.888 115.017 371.411C115.017 380.934 122.737 388.654 132.26 388.654Z" fill="#00A9C3"/>
<path d="M103.364 374.523C110.701 374.523 116.649 368.575 116.649 361.238C116.649 353.901 110.701 347.953 103.364 347.953C96.0272 347.953 90.0793 353.901 90.0793 361.238C90.0793 368.575 96.0272 374.523 103.364 374.523Z" fill="#54E2C7"/>
<path d="M159.236 398.98C166.573 398.98 172.521 393.032 172.521 385.695C172.521 378.358 166.573 372.41 159.236 372.41C151.899 372.41 145.951 378.358 145.951 385.695C145.951 393.032 151.899 398.98 159.236 398.98Z" fill="#54E2C7"/>
<path d="M108.235 403.649C115.572 403.649 121.52 397.701 121.52 390.364C121.52 383.027 115.572 377.079 108.235 377.079C100.898 377.079 94.9504 383.027 94.9504 390.364C94.9504 397.701 100.898 403.649 108.235 403.649Z" fill="#54E2C7"/>
<path d="M134.075 417.728C141.412 417.728 147.359 411.78 147.359 404.443C147.359 397.106 141.412 391.158 134.075 391.158C126.737 391.158 120.79 397.106 120.79 404.443C120.79 411.78 126.737 417.728 134.075 417.728Z" fill="#54E2C7"/>
<path d="M330.877 470.269C341.116 470.269 349.417 461.968 349.417 451.729C349.417 441.49 341.116 433.189 330.877 433.189C320.638 433.189 312.338 441.49 312.338 451.729C312.338 461.968 320.638 470.269 330.877 470.269Z" fill="#00A9C3"/>
<path d="M298.91 465.014C306.247 465.014 312.195 459.066 312.195 451.729C312.195 444.392 306.247 438.444 298.91 438.444C291.573 438.444 285.625 444.392 285.625 451.729C285.625 459.066 291.573 465.014 298.91 465.014Z" fill="#54E2C7"/>
<path d="M362.786 465.014C370.123 465.014 376.071 459.066 376.071 451.729C376.071 444.392 370.123 438.444 362.786 438.444C355.449 438.444 349.501 444.392 349.501 451.729C349.501 459.066 355.449 465.014 362.786 465.014Z" fill="#54E2C7"/>
<path d="M123.623 473.82C133.146 473.82 140.866 466.1 140.866 456.577C140.866 447.054 133.146 439.334 123.623 439.334C114.1 439.334 106.38 447.054 106.38 456.577C106.38 466.1 114.1 473.82 123.623 473.82Z" fill="#E5A7F1"/>
<path d="M202.36 515.852C211.883 515.852 219.603 508.132 219.603 498.609C219.603 489.086 211.883 481.366 202.36 481.366C192.837 481.366 185.117 489.086 185.117 498.609C185.117 508.132 192.837 515.852 202.36 515.852Z" fill="#E5A7F1"/>
<path d="M434.97 524.633C444.493 524.633 452.213 517.138 452.213 507.894C452.213 498.649 444.493 491.155 434.97 491.155C425.447 491.155 417.728 498.649 417.728 507.894C417.728 517.138 425.447 524.633 434.97 524.633Z" fill="#E5A7F1"/>
<path d="M575.13 442.31C585.369 442.31 593.67 434.252 593.67 424.313C593.67 414.373 585.369 406.315 575.13 406.315C564.891 406.315 556.59 414.373 556.59 424.313C556.59 434.252 564.891 442.31 575.13 442.31Z" fill="#E5A7F1"/>
<path d="M524.95 484.157C535.189 484.157 543.49 476.099 543.49 466.159C543.49 456.22 535.189 448.162 524.95 448.162C514.711 448.162 506.411 456.22 506.411 466.159C506.411 476.099 514.711 484.157 524.95 484.157Z" fill="#E5A7F1"/>
<path d="M330.854 192.09C372.813 192.09 406.828 158.075 406.828 116.115C406.828 74.156 372.813 40.1411 330.854 40.1411C288.894 40.1411 254.88 74.156 254.88 116.115C254.88 158.075 288.894 192.09 330.854 192.09Z" stroke="#4F1072" stroke-width="1.5" stroke-miterlimit="10"/>
<path d="M455.214 138.791C455.214 193.731 399.535 238.268 330.854 238.268C262.173 238.268 206.494 193.731 206.494 138.791C206.494 83.8511 262.173 39.9768 330.854 39.9768C399.535 39.9768 455.214 83.8511 455.214 138.791Z" stroke="#6D6CDC" stroke-width="1.5" stroke-miterlimit="10"/>
<path d="M570.222 230.174C570.222 335.922 463.053 421.648 330.853 421.648C198.653 421.648 91.4851 335.923 91.4851 230.174C91.4851 124.425 198.654 39.9758 330.854 39.9758C463.054 39.9758 570.223 124.426 570.223 230.174H570.222Z" stroke="#00997D" stroke-width="1.5" stroke-miterlimit="10"/>
<path d="M618.887 268.843C618.887 396.089 489.93 499.244 330.854 499.244C171.778 499.244 42.8213 396.089 42.8213 268.843C42.8213 141.596 171.778 39.9758 330.854 39.9758C489.93 39.9758 618.887 141.595 618.887 268.842V268.843Z" stroke="#00A9C3" stroke-width="1.5" stroke-miterlimit="10"/>
<path d="M648.539 292.067C648.539 432.227 508.63 545.848 330.854 545.848C153.078 545.848 13.1675 432.227 13.1675 292.067C13.1675 151.907 153.077 39.9758 330.854 39.9758C508.631 39.9758 648.539 151.906 648.539 292.066V292.067Z" stroke="#6D6CDC" stroke-width="1.5" stroke-miterlimit="10"/>
<path d="M501.966 175.94C501.966 251.534 425.356 312.816 330.854 312.816C236.352 312.816 159.742 251.534 159.742 175.94C159.742 100.346 236.351 39.9758 330.854 39.9758C425.357 39.9758 501.966 100.345 501.966 175.939V175.94Z" stroke="#E60059" stroke-width="1.5" stroke-miterlimit="10"/>
<path d="M533.126 200.698C533.126 290.058 442.566 362.499 330.854 362.499C219.142 362.499 128.581 290.058 128.581 200.698C128.581 111.339 219.142 39.9758 330.854 39.9758C442.566 39.9758 533.126 111.339 533.126 200.698Z" stroke="#FF7D00" stroke-width="1.5" stroke-miterlimit="10"/>
<path d="M330.854 115.018C346.944 115.018 359.987 101.975 359.987 85.8851C359.987 69.7956 346.944 56.7524 330.854 56.7524C314.765 56.7524 301.721 69.7956 301.721 85.8851C301.721 101.975 314.765 115.018 330.854 115.018Z" fill="#4F1072"/>
</svg>
