<svg width="436" height="439" viewBox="0 0 436 439" fill="none" xmlns="http://www.w3.org/2000/svg">
<g opacity="0.3" clip-path="url(#clip0_0_3)">
<path d="M357.426 302.884L357.524 302.825C357.524 302.798 357.511 302.779 357.511 302.752C357.485 302.798 357.459 302.837 357.432 302.884H357.426ZM357.427 132.831C357.453 132.877 357.479 132.916 357.506 132.963C357.506 132.937 357.518 132.916 357.518 132.89L357.42 132.831H357.427ZM78.1838 302.819L78.2833 302.878C78.2569 302.831 78.2296 302.792 78.2033 302.745C78.2033 302.773 78.1906 302.792 78.1906 302.819H78.1838ZM78.1974 132.963C78.2237 132.916 78.2501 132.877 78.2764 132.831L78.1769 132.89C78.1769 132.916 78.1906 132.937 78.1906 132.963H78.1974ZM320.166 209.221C309.51 191.89 296.93 175.588 282.423 160.552C280.074 158.059 277.652 155.631 275.159 153.289C260.124 138.781 243.822 126.2 226.491 115.546C223.634 113.791 220.758 112.088 217.855 110.439C214.946 112.088 212.07 113.797 209.219 115.546C191.895 126.194 175.6 138.775 160.571 153.276C158.064 155.631 155.63 158.066 153.274 160.573C138.773 175.602 126.199 191.897 115.545 209.221C113.79 212.072 112.088 214.955 110.439 217.858C112.088 220.766 113.797 223.643 115.545 226.493C126.192 243.812 138.761 260.1 153.255 275.122C155.623 277.642 158.064 280.09 160.591 282.459C175.62 296.952 191.908 309.521 209.226 320.168C212.076 321.924 214.959 323.626 217.862 325.275C220.771 323.626 223.648 321.924 226.497 320.168C243.822 309.521 260.111 296.94 275.139 282.445C277.652 280.09 280.087 277.649 282.442 275.142C296.943 260.114 309.517 243.817 320.166 226.493C321.921 223.643 323.622 220.761 325.272 217.858C323.622 214.948 321.921 212.072 320.166 209.221ZM217.854 54.4415C248.947 54.4415 278.007 63.1237 302.748 78.1984C302.774 78.1984 302.794 78.1847 302.82 78.1847C283.411 46.4388 253.473 21.8441 217.861 9.23581C182.249 21.8441 152.31 46.4457 132.901 78.1847C132.928 78.1847 132.947 78.1984 132.974 78.1984C157.713 63.1237 186.774 54.4415 217.867 54.4415H217.854Z" stroke="#838FFF" stroke-width="0.596533" stroke-miterlimit="10"/>
<path d="M302.721 78.1839C277.982 63.1092 248.921 54.427 217.828 54.427C186.735 54.427 157.681 63.1092 132.935 78.1839C162.834 84.7024 191.419 95.4234 217.828 110.419C244.237 95.4234 272.823 84.7024 302.721 78.1839ZM381.237 217.843C381.237 248.937 372.555 277.998 357.48 302.738C357.48 302.764 357.494 302.784 357.494 302.81C389.24 283.401 413.834 253.463 426.441 217.85C413.834 182.238 389.233 152.299 357.494 132.883C357.494 132.91 357.48 132.929 357.48 132.955C372.555 157.696 381.237 186.756 381.237 217.85V217.843Z" stroke="#838FFF" stroke-width="0.596533" stroke-miterlimit="10"/>
<path d="M357.479 302.725C372.554 277.985 381.235 248.923 381.235 217.831C381.235 186.737 372.554 157.675 357.479 132.936C350.96 162.835 340.24 191.421 325.244 217.831C340.24 244.24 350.96 272.826 357.479 302.725Z" stroke="#838FFF" stroke-width="0.596533" stroke-miterlimit="10"/>
<path d="M408.226 72.2404C396.405 54.6934 381.307 39.5952 363.76 27.7749C337.72 10.2386 306.351 0 272.592 0C253.46 0 235.107 3.2983 218.04 9.34225C253.652 21.9496 283.59 46.5511 302.999 78.2902L303.058 78.3898C325.314 91.9843 344.014 110.682 357.611 132.937L357.71 132.995C389.457 152.405 414.051 182.344 426.658 217.963C432.702 200.902 436 182.542 436 163.416C436 129.658 425.76 98.2938 408.226 72.2472V72.2404Z" stroke="#838FFF" stroke-width="0.596533" stroke-miterlimit="10"/>
<path d="M302.881 78.2779L302.821 78.1792C302.802 78.1792 302.775 78.1919 302.749 78.1919C302.795 78.2183 302.835 78.2447 302.881 78.271V78.2779ZM357.426 132.825C343.832 110.568 325.131 91.8694 302.873 78.2788C302.827 78.2525 302.787 78.2261 302.741 78.1997C272.842 84.7172 244.256 95.4382 217.847 110.434C220.756 112.083 223.633 113.792 226.483 115.54C243.814 126.195 260.116 138.776 275.151 153.283C277.645 155.633 280.073 158.053 282.415 160.547C296.922 175.583 309.503 191.885 320.158 209.216C321.913 212.066 323.614 214.949 325.264 217.852C340.259 191.442 350.98 162.856 357.498 132.958C357.471 132.911 357.445 132.872 357.419 132.825H357.426ZM54.4404 217.851C54.4404 186.758 63.122 157.697 78.1974 132.957C78.1974 132.93 78.1838 132.911 78.1838 132.884C46.4378 152.293 21.8437 182.232 9.23551 217.851C21.8437 253.464 46.4446 283.402 78.1838 302.811C78.1838 302.785 78.1974 302.765 78.1974 302.739C63.122 277.999 54.4404 248.938 54.4404 217.844V217.851Z" stroke="#838FFF" stroke-width="0.596533" stroke-miterlimit="10"/>
<path d="M78.184 132.936C63.1095 157.675 54.427 186.737 54.427 217.831C54.427 248.923 63.1095 277.985 78.184 302.725C84.7018 272.826 95.4233 244.24 110.419 217.831C95.4233 191.421 84.7018 162.835 78.184 132.936ZM217.841 381.239C186.749 381.239 157.695 372.557 132.949 357.482C132.928 357.482 132.902 357.495 132.875 357.495C152.284 389.242 182.229 413.836 217.835 426.444C253.447 413.836 283.385 389.235 302.801 357.495C302.781 357.495 302.755 357.482 302.729 357.482C277.989 372.557 248.928 381.239 217.835 381.239H217.841Z" stroke="#838FFF" stroke-width="0.596533" stroke-miterlimit="10"/>
<path d="M132.935 357.483C157.674 372.558 186.735 381.24 217.828 381.24C248.921 381.24 277.982 372.558 302.721 357.483C272.823 350.965 244.237 340.244 217.828 325.248C191.419 340.244 162.834 350.965 132.935 357.483Z" stroke="#838FFF" stroke-width="0.596533" stroke-miterlimit="10"/>
<path d="M132.994 357.707L132.935 357.608C110.702 344.031 91.959 325.294 78.3889 303.061L78.2894 303.002C46.5434 283.593 21.9493 253.654 9.34204 218.042C3.2984 235.103 0 253.463 0 272.589C0 306.347 10.2386 337.711 27.7744 363.757C39.5837 381.293 54.704 396.414 72.2399 408.223C98.2797 425.759 129.649 435.998 163.408 435.998C182.54 435.998 200.893 432.699 217.954 426.656C182.342 414.048 152.403 389.447 132.994 357.707Z" stroke="#838FFF" stroke-width="0.596533" stroke-miterlimit="10"/>
<path d="M132.935 357.576L132.994 357.676C133.021 357.676 133.04 357.662 133.067 357.662C133.021 357.636 132.981 357.61 132.935 357.583V357.576Z" stroke="#838FFF" stroke-width="0.596533" stroke-miterlimit="10"/>
<path d="M209.317 320.282C192 309.634 175.711 297.059 160.682 282.571C158.16 280.204 155.713 277.757 153.346 275.235C138.852 260.213 126.278 243.917 115.636 226.606C113.881 223.756 112.18 220.873 110.53 217.97C95.5345 244.379 84.8139 272.965 78.2952 302.865C78.3225 302.91 78.3489 302.95 78.3752 302.996C91.9678 325.253 110.666 343.95 132.921 357.543C132.967 357.57 133.007 357.596 133.053 357.622C162.952 351.105 191.537 340.384 217.947 325.388C215.037 323.738 212.161 322.036 209.311 320.282H209.317ZM163.408 0.00683484C129.649 0.00683484 98.2856 10.2454 72.2399 27.7817C54.6933 39.6021 39.5944 54.7002 27.7744 72.2472C10.2386 98.287 0 129.658 0 163.416C0 182.548 3.2984 200.902 9.34204 217.963C21.9493 182.351 46.5502 152.412 78.2894 132.995L78.3889 132.937C91.9814 110.681 110.679 91.9823 132.935 78.3898L132.994 78.2902C152.403 46.5443 182.348 21.9496 217.954 9.34225C200.893 3.2983 182.533 0 163.408 0V0.00683484Z" stroke="#838FFF" stroke-width="0.596533" stroke-miterlimit="10"/>
<path d="M133.067 78.192C133.067 78.192 133.021 78.1792 132.994 78.1792L132.935 78.2782C132.981 78.2517 133.021 78.2253 133.067 78.1988V78.192Z" stroke="#838FFF" stroke-width="0.596533" stroke-miterlimit="10"/>
<path d="M132.935 78.1792C132.889 78.2056 132.849 78.232 132.803 78.2583C110.57 91.8353 91.8271 110.572 78.2569 132.805C78.2296 132.851 78.2033 132.89 78.1769 132.937C84.6957 162.836 95.4162 191.422 110.412 217.832C112.061 214.922 113.763 212.045 115.518 209.195C126.166 191.871 138.747 175.576 153.248 160.547C155.603 158.039 158.037 155.605 160.544 153.25C175.573 138.749 191.868 126.174 209.193 115.52C212.042 113.765 214.925 112.062 217.829 110.413C191.419 95.4177 162.834 84.6967 132.935 78.1792ZM426.447 217.839C413.84 253.452 389.238 283.391 357.499 302.8L357.4 302.859C343.807 325.116 325.106 343.814 302.847 357.406L302.788 357.505C283.379 389.251 253.434 413.846 217.822 426.454C234.882 432.497 253.243 435.796 272.375 435.796C306.132 435.796 337.496 425.556 363.542 408.021C381.077 396.211 396.198 381.091 408.008 363.554C425.543 337.515 435.782 306.145 435.782 272.386C435.782 253.254 432.483 234.9 426.44 217.839H426.447Z" stroke="#838FFF" stroke-width="0.596533" stroke-miterlimit="10"/>
<path d="M302.815 357.662C302.815 357.662 302.861 357.676 302.887 357.676L302.947 357.576C302.901 357.603 302.861 357.629 302.815 357.656V357.662Z" stroke="#838FFF" stroke-width="0.596533" stroke-miterlimit="10"/>
<path d="M325.45 218.042C323.8 220.951 322.098 223.827 320.343 226.677C309.695 244.002 297.114 260.298 282.62 275.327C280.265 277.84 277.824 280.274 275.317 282.629C260.288 297.124 243.994 309.705 226.675 320.354C223.826 322.108 220.942 323.81 218.04 325.459C244.448 340.455 273.034 351.176 302.933 357.694C302.979 357.668 303.019 357.641 303.065 357.615C325.321 344.02 344.02 325.322 357.618 303.068C357.644 303.022 357.671 302.982 357.697 302.936C351.179 273.037 340.459 244.451 325.462 218.042H325.45Z" stroke="#838FFF" stroke-width="0.596533" stroke-miterlimit="10"/>
<path d="M9.21587 209.796C4.67753 209.796 0.988906 213.484 0.988906 218.023C0.988906 222.561 4.67753 226.249 9.21587 226.249C13.7552 226.249 17.4428 222.561 17.4428 218.023C17.4428 213.484 13.7552 209.796 9.21587 209.796Z" fill="#FFBABB"/>
<path d="M78.3692 136.287C80.1105 136.287 81.529 134.868 81.529 133.128C81.529 131.386 80.1105 129.967 78.3692 129.967C76.6268 129.967 75.2083 131.386 75.2083 133.128C75.2083 134.868 76.6268 136.287 78.3692 136.287ZM78.3809 299.789C76.6365 299.792 75.2239 301.205 75.221 302.95C75.221 304.692 76.6395 306.11 78.3809 306.11C80.1232 306.11 81.5417 304.692 81.5417 302.95C81.5417 301.208 80.1232 299.789 78.3809 299.789Z" fill="#838FFF"/>
<path d="M217.894 14.2247C220.546 14.2247 222.697 12.0669 222.697 9.4218C222.697 6.77574 220.54 4.61886 217.894 4.61886C215.248 4.61886 213.091 6.77574 213.091 9.4218C213.091 12.0669 215.248 14.2247 217.894 14.2247Z" fill="#E4A6F0"/>
<path d="M302.676 81.5302C304.417 81.5302 305.835 80.1115 305.835 78.3706C305.835 76.6287 304.417 75.21 302.676 75.21C300.934 75.21 299.516 76.6287 299.516 78.3706C299.516 80.1115 300.934 81.5302 302.676 81.5302Z" fill="#838FFF"/>
<path d="M217.769 121.84C223.984 121.84 229.044 116.78 229.044 110.565C229.044 104.351 223.984 99.2902 217.769 99.2902C211.554 99.2902 206.495 104.351 206.495 110.565C206.495 116.78 211.554 121.84 217.769 121.84Z" fill="#00A8C2"/>
<path d="M210.452 325.163C210.452 329.3 213.817 332.664 217.953 332.664C222.09 332.664 225.454 329.3 225.454 325.163C225.454 321.027 222.09 317.662 217.953 317.662C213.817 317.662 210.452 321.027 210.452 325.163Z" fill="#929EFF"/>
<path d="M132.961 85.8182C137.164 85.8182 140.575 82.4007 140.575 78.2051C140.575 74.0085 137.157 70.5911 132.961 70.5911C128.766 70.5911 125.348 74.0085 125.348 78.2051C125.348 82.4007 128.766 85.8182 132.961 85.8182Z" fill="#FF7D00"/>
<path d="M357.3 299.85C355.631 299.85 354.272 301.208 354.272 302.878C354.272 304.547 355.631 305.906 357.3 305.906C358.97 305.906 360.329 304.547 360.329 302.878C360.329 301.208 358.97 299.85 357.3 299.85Z" fill="#F5B987"/>
<path d="M357.611 125.35C353.408 125.35 349.985 128.767 349.985 132.977C349.985 137.186 353.403 140.603 357.611 140.603C361.821 140.603 365.237 137.186 365.237 132.977C365.237 128.767 361.821 125.35 357.611 125.35Z" fill="#FFBABB"/>
<path d="M325.5 193.393C311.992 193.393 301 204.385 301 217.893C301 231.401 311.992 242.393 325.5 242.393C339.008 242.393 350 231.401 350 217.893C350 204.385 339.008 193.393 325.5 193.393Z" fill="#3DBBB5"/>
<path d="M426.566 211.775C423.26 211.775 420.576 214.46 420.576 217.765C420.576 221.071 423.26 223.756 426.566 223.756C429.872 223.756 432.558 221.071 432.558 217.765C432.558 214.46 429.872 211.775 426.566 211.775Z" fill="#ADE17C"/>
<path d="M135.073 344.382C127.889 344.382 122.05 350.226 122.05 357.405C122.05 364.582 127.895 370.427 135.073 370.427C142.251 370.427 148.096 364.582 148.096 357.405C148.096 350.226 142.251 344.382 135.073 344.382Z" fill="#FF3148"/>
<path d="M132.869 218.009C132.869 205.658 122.821 195.611 110.472 195.611C98.121 195.611 88.0736 205.658 88.0736 218.009C88.0736 230.359 98.121 240.407 110.472 240.407C122.821 240.407 132.869 230.359 132.869 218.009Z" fill="#7F409D"/>
<path d="M300.802 351.308C297.365 351.308 294.568 354.105 294.568 357.542C294.568 360.98 297.365 363.778 300.802 363.778C304.24 363.778 307.037 360.98 307.037 357.542C307.037 354.105 304.24 351.308 300.802 351.308Z" fill="#54E1C6"/>
<path d="M217.849 414.313C211.04 414.313 205.505 419.848 205.505 426.656C205.505 433.465 211.04 439 217.849 439C224.657 439 230.192 433.465 230.192 426.656C230.192 419.848 224.657 414.313 217.849 414.313Z" fill="#FFAD42"/>
</g>
<defs>
<clipPath id="clip0_0_3">
<rect width="436" height="439" fill="white"/>
</clipPath>
</defs>
</svg>
