<svg display="block" role="presentation" viewBox="0 0 447 450" xmlns="http://www.w3.org/2000/svg" id="1072987111"><g d="M 392.73 374.16 C 395.63 369.45 398.44 364.7 401.16 359.9 C 398.44 355.1 395.62 350.35 392.73 345.64 C 375.14 317.03 354.37 290.12 330.42 265.3 C 326.55 261.18 322.55 257.18 318.43 253.31 C 293.61 229.36 266.7 208.59 238.09 191 C 233.38 188.1 228.63 185.29 223.83 182.57 C 219.03 185.29 214.28 188.11 209.57 191 C 180.97 208.58 154.07 229.35 129.26 253.28 C 125.12 257.17 121.1 261.19 117.21 265.33 C 93.27 290.14 72.51 317.04 54.93 345.64 C 52.04 350.35 49.22 355.1 46.5 359.9 C 49.22 364.7 52.04 369.45 54.93 374.16 M 223.83 90.14 C 275.16 90.14 323.13 104.48 363.98 129.36 C 364.02 129.36 364.06 129.34 364.1 129.33 C 332.06 76.93 282.63 36.32 223.84 15.5 C 165.05 36.32 115.62 76.92 83.58 129.33 C 83.62 129.33 83.66 129.35 83.7 129.36 C 124.54 104.48 172.52 90.14 223.84 90.14 Z M 363.79 129.26 C 322.95 104.38 274.97 90.04 223.64 90.04 C 172.32 90.04 124.34 104.38 83.5 129.26 C 132.86 140.02 180.05 157.72 223.65 182.47 C 267.25 157.72 314.44 140.02 363.79 129.26 Z M 447.24 35.32 C 407.87 12.84 362.28 0 313.7 0 C 282.12 0 251.81 5.45 223.65 15.42 C 282.44 36.24 331.87 76.84 363.91 129.25 C 363.94 129.3 363.98 129.36 364.01 129.41 M 364.22 129.16 C 364.19 129.11 364.15 129.05 364.12 129 C 364.08 129 364.04 129.02 364 129.03 C 364.07 129.07 364.15 129.12 364.22 129.17 Z M 447.07 208.57 C 425.356 176.56 397.041 149.569 364.03 129.41 C 363.96 129.37 363.89 129.32 363.81 129.27 C 314.45 140.03 267.26 157.73 223.67 182.48 C 228.47 185.2 233.22 188.02 237.93 190.91 C 266.54 208.5 293.45 229.27 318.27 253.22 C 322.39 257.09 326.39 261.09 330.26 265.21 C 354.21 290.03 374.98 316.94 392.57 345.55 C 395.47 350.26 398.28 355.01 401 359.81 C 420.87 324.8 436.2 287.48 447.04 248.58 M 77.1 407.18 C 69.187 396.469 61.733 385.425 54.76 374.08 C 51.87 369.37 49.05 364.62 46.33 359.82 C 37.615 375.181 29.75 391.008 22.77 407.23 M 83.3 129.41 C 83.33 129.36 83.37 129.3 83.4 129.25 C 115.44 76.85 164.87 36.24 223.66 15.42 C 195.5 5.45 165.19 0 133.61 0 C 85 0 39.39 12.86 0 35.37 M 83.5 129.03 L 83.38 129 C 83.35 129.05 83.31 129.11 83.28 129.16 C 83.35 129.12 83.43 129.07 83.5 129.02 Z M 0.02 247.47 C 10.87 286.69 26.28 324.31 46.31 359.58 C 49.03 354.78 51.85 350.03 54.74 345.32 C 72.32 316.72 93.09 289.82 117.02 265.01 C 120.91 260.87 124.93 256.85 129.07 252.96 C 153.512 229.36 180.439 208.478 209.38 190.68 C 214.09 187.78 218.84 184.97 223.64 182.25 C 180.04 157.5 132.85 139.79 83.49 129.04 C 83.42 129.08 83.34 129.13 83.27 129.18 C 50.14 149.4 21.7 176.59 0 208.7 M 424.5 406.88 C 417.526 390.699 409.678 374.909 400.99 359.58 C 398.27 364.38 395.45 369.13 392.56 373.84 C 385.59 385.176 378.14 396.209 370.23 406.91 M 191.5 182 C 191.5 164.327 205.827 150 223.5 150 C 241.173 150 255.5 164.327 255.5 182 C 255.5 199.673 241.173 214 223.5 214 C 205.827 214 191.5 199.673 191.5 182 Z M 23.5 361 C 23.5 348.021 34.021 337.5 47 337.5 C 59.979 337.5 70.5 348.021 70.5 361 C 70.5 373.979 59.979 384.5 47 384.5 C 34.021 384.5 23.5 373.979 23.5 361 Z M 71.5 129 C 71.5 122.096 77.096 116.5 84 116.5 C 90.904 116.5 96.5 122.096 96.5 129 C 96.5 135.904 90.904 141.5 84 141.5 C 77.096 141.5 71.5 135.904 71.5 129 Z M 215.5 16.14 C 215.5 11.644 219.144 8 223.64 8 C 228.136 8 231.78 11.644 231.78 16.14 C 231.78 20.636 228.136 24.28 223.64 24.28 C 219.144 24.28 215.5 20.636 215.5 16.14 Z M 393 360.64 C 393 356.144 396.644 352.5 401.14 352.5 C 405.636 352.5 409.28 356.144 409.28 360.64 C 409.28 365.136 405.636 368.78 401.14 368.78 C 396.644 368.78 393 365.136 393 360.64 Z M 358 129.48 C 358 126.453 360.453 124 363.48 124 C 366.507 124 368.96 126.453 368.96 129.48 C 368.96 132.507 366.507 134.96 363.48 134.96 C 360.453 134.96 358 132.507 358 129.48 Z" fill="transparent" height="407.2300073242188px" id="kuwMvh02M" transform="translate(0 43)" width="447.23999389648435px"><path d="M 346.23 358.66 C 349.13 353.95 351.94 349.2 354.66 344.4 C 351.94 339.6 349.12 334.85 346.23 330.14 C 328.64 301.53 307.87 274.62 283.92 249.8 C 280.05 245.68 276.05 241.68 271.93 237.81 C 247.11 213.86 220.2 193.09 191.59 175.5 C 186.88 172.6 182.13 169.79 177.33 167.07 C 172.53 169.79 167.78 172.61 163.07 175.5 C 134.47 193.08 107.57 213.85 82.76 237.78 C 78.62 241.67 74.6 245.69 70.71 249.83 C 46.77 274.64 26.01 301.54 8.43 330.14 C 5.54 334.85 2.72 339.6 0 344.4 C 2.72 349.2 5.54 353.95 8.43 358.66 M 177.33 74.64 C 228.66 74.64 276.63 88.98 317.48 113.86 C 317.52 113.86 317.56 113.84 317.6 113.83 C 285.56 61.43 236.13 20.82 177.34 0 C 118.55 20.82 69.12 61.42 37.08 113.83 C 37.12 113.83 37.16 113.85 37.2 113.86 C 78.04 88.98 126.02 74.64 177.34 74.64 Z" fill="transparent" height="358.6600073242188px" id="ftvbH72aA" stroke-dasharray="" stroke-linecap="butt" stroke-linejoin="miter" stroke-miterlimit="10" stroke-width="0.597" stroke="#838FFF" transform="translate(46.5 15.5)" width="354.66px"></path><path d="M 280.29 129.26 C 239.45 104.38 191.47 90.04 140.14 90.04 C 88.82 90.04 40.84 104.38 0 129.26 C 49.36 140.02 96.55 157.72 140.15 182.47 C 183.75 157.72 230.94 140.02 280.29 129.26 Z M 363.74 35.32 C 324.37 12.84 278.78 0 230.2 0 C 198.62 0 168.31 5.45 140.15 15.42 C 198.94 36.24 248.37 76.84 280.41 129.25 C 280.44 129.3 280.48 129.36 280.51 129.41" fill="transparent" height="182.47000091552735px" id="ZjUkLRoaa" stroke-dasharray="" stroke-linecap="butt" stroke-linejoin="miter" stroke-miterlimit="10" stroke-width="0.597" stroke="#838FFF" transform="translate(83.5 0)" width="363.73999389648435px"></path><path d="M 0.22 0.16 C 0.19 0.11 0.15 0.05 0.12 0 C 0.08 0 0.04 0.02 0 0.03 C 0.07 0.07 0.15 0.12 0.22 0.17 Z" fill="transparent" height="1px" id="LNw3xwPHo" stroke-dasharray="" stroke-linecap="butt" stroke-linejoin="miter" stroke-miterlimit="10" stroke-width="0.597" stroke="#838FFF" transform="translate(364 129)" width="1px"></path><path d="M 447.07 208.57 C 425.356 176.56 397.041 149.569 364.03 129.41 C 363.96 129.37 363.89 129.32 363.81 129.27 C 314.45 140.03 267.26 157.73 223.67 182.48 C 228.47 185.2 233.22 188.02 237.93 190.91 C 266.54 208.5 293.45 229.27 318.27 253.22 C 322.39 257.09 326.39 261.09 330.26 265.21 C 354.21 290.03 374.98 316.94 392.57 345.55 C 395.47 350.26 398.28 355.01 401 359.81 C 420.87 324.8 436.2 287.48 447.04 248.58 M 77.1 407.18 C 69.187 396.469 61.733 385.425 54.76 374.08 C 51.87 369.37 49.05 364.62 46.33 359.82 C 37.615 375.181 29.75 391.008 22.77 407.23 M 83.3 129.41 C 83.33 129.36 83.37 129.3 83.4 129.25 C 115.44 76.85 164.87 36.24 223.66 15.42 C 195.5 5.45 165.19 0 133.61 0 C 85 0 39.39 12.86 0 35.37" fill="transparent" height="407.2300073242188px" id="ZrEtB0kEO" stroke-dasharray="" stroke-linecap="butt" stroke-linejoin="miter" stroke-miterlimit="10" stroke-width="0.597" stroke="#838FFF" width="447.06999816894535px"></path><path d="M 83.5 0.03 L 83.38 0 C 83.35 0.05 83.31 0.11 83.28 0.16 C 83.35 0.12 83.43 0.07 83.5 0.02 Z M 0.02 118.47 C 10.87 157.69 26.28 195.31 46.31 230.58 C 49.03 225.78 51.85 221.03 54.74 216.32 C 72.32 187.72 93.09 160.82 117.02 136.01 C 120.91 131.87 124.93 127.85 129.07 123.96 C 153.512 100.36 180.439 79.478 209.38 61.68 C 214.09 58.78 218.84 55.97 223.64 53.25 C 180.04 28.5 132.85 10.79 83.49 0.04 C 83.42 0.08 83.34 0.13 83.27 0.18 C 50.14 20.4 21.7 47.59 0 79.7 M 424.5 277.88 C 417.526 261.699 409.678 245.909 400.99 230.58 C 398.27 235.38 395.45 240.13 392.56 244.84 C 385.59 256.176 378.14 267.209 370.23 277.91" fill="transparent" height="277.9100018310547px" id="D5vLaD9y8" stroke-dasharray="" stroke-linecap="butt" stroke-linejoin="miter" stroke-miterlimit="10" stroke-width="0.597" stroke="#838FFF" transform="translate(0 129)" width="424.5000109863281px"></path><path d="M 0 32 C 0 14.327 14.327 0 32 0 C 49.673 0 64 14.327 64 32 C 64 49.673 49.673 64 32 64 C 14.327 64 0 49.673 0 32 Z" fill="var(--token-2267f202-d828-48e7-b617-0f3782b0d145, rgb(78, 201, 126))" height="64px" id="RmYnn0taY" transform="translate(191.5 150)" width="64px"></path><path d="M 0 23.5 C 0 10.521 10.521 0 23.5 0 C 36.479 0 47 10.521 47 23.5 C 47 36.479 36.479 47 23.5 47 C 10.521 47 0 36.479 0 23.5 Z" fill="var(--token-cf842dea-6dd8-4cd8-b2e3-fee5061d0a2d, rgb(109, 108, 213))" height="47px" id="pK7dPJsmG" transform="translate(23.5 337.5)" width="47px"></path><path d="M 0 12.5 C 0 5.596 5.596 0 12.5 0 C 19.404 0 25 5.596 25 12.5 C 25 19.404 19.404 25 12.5 25 C 5.596 25 0 19.404 0 12.5 Z" fill="rgb(255, 125, 0)" height="25px" id="OzlH0E1up" transform="translate(71.5 116.5)" width="25px"></path><path d="M 0 8.14 C 0 3.644 3.644 0 8.14 0 C 12.636 0 16.28 3.644 16.28 8.14 C 16.28 12.636 12.636 16.28 8.14 16.28 C 3.644 16.28 0 12.636 0 8.14 Z" fill="var(--token-cf842dea-6dd8-4cd8-b2e3-fee5061d0a2d, rgb(109, 108, 213))" height="16.279999999999994px" id="UsGqDMQOC" transform="translate(215.5 8)" width="16.279999999999973px"></path><path d="M 0 8.14 C 0 3.644 3.644 0 8.14 0 C 12.636 0 16.28 3.644 16.28 8.14 C 16.28 12.636 12.636 16.28 8.14 16.28 C 3.644 16.28 0 12.636 0 8.14 Z" fill="rgb(23, 204, 186)" height="16.279999999999973px" id="CMKXmIpwE" transform="translate(393 352.5)" width="16.279999999999745px"></path><path d="M 0 5.48 C 0 2.453 2.453 0 5.48 0 C 8.507 0 10.96 2.453 10.96 5.48 C 10.96 8.507 8.507 10.96 5.48 10.96 C 2.453 10.96 0 8.507 0 5.48 Z" fill="rgb(23, 204, 186)" height="10.95999999999998px" id="Ga6aoPmES" transform="translate(358 124)" width="10.960000000000036px"></path></g></svg>