<svg xmlns="http://www.w3.org/2000/svg" fill="none" viewBox="0 0 1100 1100"><path fill="url(#a)" d="M1100 0H0v1100h1100V0Z"/><path fill="#6500D9" fill-rule="evenodd" d="M1100 267.897a86.887 86.887 0 0 0-40.92-10.236 86.92 86.92 0 0 0-61.43 25.44 86.877 86.877 0 0 0-25.44 61.43 85.773 85.773 0 0 0 12.46 44.46 86.747 86.747 0 0 0 19.08 22.39l-27.12 61.49H869.42c-.644-1.102-1.274-2.205-1.902-3.304-1.525-2.671-3.039-5.321-4.718-7.886a378.279 378.279 0 0 0-176.2-149.76 378.418 378.418 0 0 0-230.44-19.27 378.378 378.378 0 0 0-198.62 118.42l-3.63 4.25H198.1l-27.43-34.53a86.535 86.535 0 0 0 15.77-50.76 86.715 86.715 0 0 0-98.17-85.79A86.726 86.726 0 0 0 16 352.751a86.704 86.704 0 0 0 116.99 57.52l34.37 43.36a23.817 23.817 0 0 0 18.6 8.99h32.64a376.85 376.85 0 0 0-51.55 253.51H88.22l-35.63-44.62c1.73-2.52 3.31-5.04 4.89-7.72 12.49-22.32 14.5-49 5.51-72.94A86.89 86.89 0 0 0 0 536.471v49.921a39.548 39.548 0 0 1 9.61 7.139 39.546 39.546 0 0 1 11.44 27.99 39.706 39.706 0 0 1-11.86 28A39.713 39.713 0 0 1 0 656.27v49.865a85.758 85.758 0 0 0 15.23-4.974l43.2 53.29a23.653 23.653 0 0 0 18.44 8.83h100.27a373.995 373.995 0 0 0 46.03 102.64h-49.03c-5.14.04-10.12 1.75-14.19 4.89l-70.79 53.76A86.845 86.845 0 0 0 0 915.416v63.373a39.647 39.647 0 0 1 8.84-13.498 39.58 39.58 0 0 1 27.98-11.59 39.58 39.58 0 0 1 27.98 11.59 39.586 39.586 0 0 1 11.59 27.99 39.562 39.562 0 0 1-11.59 27.979 39.58 39.58 0 0 1-27.98 11.59A39.562 39.562 0 0 1 0 1007.77v64.86a87.015 87.015 0 0 0 18.51 6.27 86.872 86.872 0 0 0 105.33-84.959c.02-9.89-1.69-19.71-5.04-29.01l-.94-2.68 64.33-49.03h76.94l1.1 1.42a378.43 378.43 0 0 0 181.04 111.579 378.418 378.418 0 0 0 212.63-3.7 378.416 378.416 0 0 0 177.05-117.809h78.83l38.62 43.99c-1.73 2.84-3.47 5.84-5.04 8.83a87.304 87.304 0 0 0 .62 78.819 87.341 87.341 0 0 0 138.91 22.23 87.205 87.205 0 0 0 17.11-23.71v-77.05a87.278 87.278 0 0 0-37.16-38.479 87.348 87.348 0 0 0-78.8-1.85l-45.72-52.03a24.152 24.152 0 0 0-17.81-8.04h-55.5a375.733 375.733 0 0 0 54.71-191.24v-10.09h81.83l44.3 66.85a88.745 88.745 0 0 0-20.81 56.28 86.88 86.88 0 0 0 25.35 61.49 86.833 86.833 0 0 0 49.61 24.714v-48.652a39.582 39.582 0 0 1-16.11-9.782 39.51 39.51 0 0 1-11.57-28.02c.02-10.51 4.2-20.57 11.64-27.99a39.645 39.645 0 0 1 16.04-9.704v-47.941c-5 .704-9.93 1.84-14.75 3.395l-51.55-77.25a23.68 23.68 0 0 0-19.39-10.72h-98.22a370.857 370.857 0 0 0-23.65-88.6h99.64c4.59-.02 9.08-1.37 12.91-3.88 3.83-2.52 6.85-6.1 8.69-10.31l33.42-75.52c3.97.56 7.97.87 11.98.95 14.4 0 28.44-3.58 40.92-10.242V267.897ZM350.37 469.981a270.021 270.021 0 0 1 190.96-79.1l-.01-.01c71.61.04 140.28 28.51 190.92 79.15a270.222 270.222 0 0 1 79.15 190.92c0 71.62-28.45 140.32-79.1 190.96a270.039 270.039 0 0 1-190.96 79.1c-71.62 0-140.32-28.45-190.96-79.1a270.039 270.039 0 0 1-79.1-190.96c0-71.62 28.45-140.32 79.1-190.96Zm33.43 348.49a222.805 222.805 0 0 0 157.53 65.25 223.123 223.123 0 0 0 157.43-65.34 223.081 223.081 0 0 0 65.34-157.43 222.76 222.76 0 0 0-137.52-205.82 222.663 222.663 0 0 0-128.71-12.68 222.77 222.77 0 0 0-114.07 60.96 222.82 222.82 0 0 0-65.24 157.53c0 59.09 23.46 115.75 65.24 157.53Zm132.56-191.51a35.308 35.308 0 0 1-10.34-24.97v-.02c-.66-9.8 2.78-19.43 9.49-26.6a35.448 35.448 0 0 1 25.9-11.24c9.83 0 19.2 4.07 25.91 11.24a35.483 35.483 0 0 1 9.49 26.6 23.505 23.505 0 0 0 6.88 16.77 23.522 23.522 0 0 0 16.77 6.88c6.26-.04 12.25-2.54 16.67-6.97a23.797 23.797 0 0 0 6.97-16.67 82.488 82.488 0 0 0-16.49-49.22 82.425 82.425 0 0 0-42.63-29.61v-9.78c0-8.45-4.5-16.25-11.82-20.48a23.673 23.673 0 0 0-23.65 0 23.664 23.664 0 0 0-11.82 20.48v9.78a82.127 82.127 0 0 0-50.69 114.8 82.128 82.128 0 0 0 53.69 43.63c6.72 1.89 13.67 2.9 20.65 3 9.43-.04 18.48 3.67 25.17 10.32a35.529 35.529 0 0 1 10.46 25.11c.01 9.42-3.72 18.47-10.39 25.13a35.482 35.482 0 0 1-25.14 10.39 35.477 35.477 0 0 1-35.42-35.63c0-6.27-2.5-12.29-6.93-16.72a23.62 23.62 0 0 0-16.72-6.93c-6.27 0-12.28 2.5-16.72 6.93a23.653 23.653 0 0 0-6.92 16.72 82.422 82.422 0 0 0 16.43 49.18 82.374 82.374 0 0 0 42.53 29.65v10.72c0 8.45 4.5 16.26 11.82 20.48a23.673 23.673 0 0 0 23.65 0 23.652 23.652 0 0 0 11.82-20.48v-10.72a82.127 82.127 0 0 0 50.69-114.8 82.128 82.128 0 0 0-53.69-43.63 80.581 80.581 0 0 0-20.65-3c-9.36 0-18.34-3.72-24.97-10.34Zm570.71-310.41a39.58 39.58 0 0 0-55.97 0 39.58 39.58 0 0 0-11.59 27.98 39.58 39.58 0 0 0 11.59 27.98 39.562 39.562 0 0 0 27.98 11.59c10.5 0 20.57-4.17 27.99-11.59a39.58 39.58 0 0 0 11.59-27.98 39.58 39.58 0 0 0-11.59-27.98ZM72.05 357.841a39.551 39.551 0 0 0 27.83 11.75h-.01c10.57.04 20.71-4.12 28.2-11.58a39.766 39.766 0 0 0 11.69-28.15 39.547 39.547 0 0 0-11.64-27.88 39.594 39.594 0 0 0-27.93-11.54 39.57 39.57 0 0 0-27.92 11.54 39.607 39.607 0 0 0-11.64 27.88 39.546 39.546 0 0 0 11.42 27.98Zm977.01 609.35a39.562 39.562 0 0 0-27.9-11.59 39.728 39.728 0 0 0-27.96 11.58 39.749 39.749 0 0 0-11.69 27.99 39.585 39.585 0 0 0 11.59 27.989 39.58 39.58 0 0 0 27.98 11.59 39.58 39.58 0 0 0 27.98-11.59 39.62 39.62 0 0 0 11.59-27.989 39.58 39.58 0 0 0-11.59-27.98Zm-741.84-72.14a331.077 331.077 0 0 0 234.11 96.97c87.8 0 172.02-34.88 234.11-96.97a331.094 331.094 0 0 0 96.97-234.11c0-87.8-34.88-172.02-96.97-234.11a331.094 331.094 0 0 0-234.11-96.97c-87.8 0-172.02 34.88-234.11 96.97a331.094 331.094 0 0 0-96.97 234.11c0 87.8 34.88 172.02 96.97 234.11Z" clip-rule="evenodd" opacity=".11"/><path fill="#fff" d="M641.9 275H459.1a14.14 14.14 0 0 0-9.972 4.115 14.054 14.054 0 0 0-4.128 9.941v119.888c0 3.72 1.486 7.308 4.128 9.941A14.14 14.14 0 0 0 459.1 423h182.8a14.14 14.14 0 0 0 9.972-4.115 14.054 14.054 0 0 0 4.128-9.941V289.056c0-3.72-1.486-7.308-4.128-9.941A14.14 14.14 0 0 0 641.9 275Zm7.298 133.911c0 1.942-.76 3.786-2.146 5.135-1.387 1.35-3.236 2.14-5.152 2.14H459.1c-1.949 0-3.798-.757-5.152-2.14-1.353-1.382-2.146-3.226-2.146-5.135V289.023c0-1.942.76-3.785 2.146-5.135 1.387-1.35 3.236-2.14 5.152-2.14h182.8c1.949 0 3.798.757 5.152 2.14 1.353 1.35 2.146 3.226 2.146 5.135v119.888ZM550.5 310.255c-10.302 0-20.208 4.082-27.473 11.357A38.663 38.663 0 0 0 511.635 349a38.604 38.604 0 0 0 11.392 27.388 38.903 38.903 0 0 0 27.473 11.357c10.302 0 20.208-4.082 27.473-11.357A38.661 38.661 0 0 0 589.365 349a38.663 38.663 0 0 0-11.392-27.388 38.903 38.903 0 0 0-27.473-11.357Zm0 70.708a32.17 32.17 0 0 1-22.685-9.348A31.911 31.911 0 0 1 518.437 349c0-8.493 3.368-16.591 9.378-22.615a32.244 32.244 0 0 1 16.411-8.756 32.416 32.416 0 0 1 18.525 1.81 32.049 32.049 0 0 1 14.396 11.785 31.801 31.801 0 0 1 5.416 17.743c0 8.46-3.401 16.591-9.411 22.582s-14.166 9.349-22.652 9.382v.032Zm-5.085-40.423c0 1.35.528 2.633 1.486 3.588a5.076 5.076 0 0 0 3.599 1.481c.991 0 2.014.165 2.972.428 3.368.856 6.208 3.128 7.727 6.255a11.882 11.882 0 0 1 .198 9.941 11.952 11.952 0 0 1-7.496 6.551v1.547a3.36 3.36 0 0 1-1.717 2.93 3.478 3.478 0 0 1-3.401 0 3.36 3.36 0 0 1-1.717-2.93v-1.547a11.767 11.767 0 0 1-6.109-4.247 12.058 12.058 0 0 1-2.377-7.044c0-.889.363-1.778.99-2.403a3.458 3.458 0 0 1 2.411-.988c.891 0 1.783.362 2.41.988.628.625.991 1.514.991 2.403a5.124 5.124 0 0 0 5.085 5.135 5.157 5.157 0 0 0 3.632-1.481 5.067 5.067 0 0 0 1.486-3.621c0-1.35-.528-2.634-1.519-3.588a5.153 5.153 0 0 0-3.632-1.482c-.991 0-2.014-.164-2.972-.427-3.368-.856-6.208-3.128-7.727-6.255a11.882 11.882 0 0 1-.198-9.941 11.952 11.952 0 0 1 7.496-6.551v-1.415a3.36 3.36 0 0 1 1.717-2.93 3.473 3.473 0 0 1 3.401 0 3.36 3.36 0 0 1 1.717 2.93v1.415a11.984 11.984 0 0 1 6.142 4.247c1.519 2.04 2.377 4.509 2.377 7.077 0 .889-.363 1.745-.99 2.403a3.404 3.404 0 0 1-2.411.987 3.46 3.46 0 0 1-2.41-.987 3.434 3.434 0 0 1-.991-2.403 5.062 5.062 0 0 0-1.354-3.819 5.127 5.127 0 0 0-3.731-1.613c-1.42 0-2.774.593-3.731 1.613a5.062 5.062 0 0 0-1.354 3.819v-.066Zm87.207 12.97c-1.288 0-2.609.197-3.831.625l-7.429-11.093c-.628-.955-1.651-1.514-2.807-1.547h-14.133c-.594-4.378-1.75-8.625-3.401-12.707h14.331c.66 0 1.321-.197 1.849-.559a3.42 3.42 0 0 0 1.255-1.482l4.821-10.83c.561.066 1.156.132 1.717.132a12.57 12.57 0 0 0 8.849-3.654 12.433 12.433 0 0 0 3.666-8.822c0-3.325-1.321-6.485-3.666-8.822a12.512 12.512 0 0 0-8.849-3.654 12.516 12.516 0 0 0-8.85 3.654 12.436 12.436 0 0 0-3.665 8.822c0 2.238.628 4.444 1.783 6.386a12.844 12.844 0 0 0 2.741 3.226l-3.896 8.822h-15.421c-.33-.526-.627-1.086-.958-1.613-6.009-9.612-14.859-17.15-25.359-21.495a54.74 54.74 0 0 0-33.153-2.766 54.532 54.532 0 0 0-28.595 16.986l-.529.626h-8.023l-3.963-4.938a12.27 12.27 0 0 0 2.279-7.275c0-3.588-1.552-6.979-4.26-9.349-2.708-2.37-6.307-3.423-9.873-2.962-3.566.461-6.736 2.469-8.751 5.431-1.981 2.996-2.608 6.682-1.651 10.139.925 3.456 3.335 6.353 6.538 7.933a12.503 12.503 0 0 0 10.303.329l4.953 6.222a3.43 3.43 0 0 0 2.674 1.284h4.689a53.899 53.899 0 0 0-7.429 36.374h-11.359l-5.118-6.386c.264-.362.462-.724.693-1.119a12.51 12.51 0 0 0 .793-10.468 12.554 12.554 0 0 0-7.496-7.374c-3.467-1.218-7.298-.888-10.468.955a12.607 12.607 0 0 0-6.042 8.592 12.512 12.512 0 0 0 2.707 10.138 12.376 12.376 0 0 0 9.51 4.477c1.684 0 3.368-.329 4.92-1.02l6.208 7.637a3.44 3.44 0 0 0 2.642 1.251h14.43a53.747 53.747 0 0 0 6.637 14.714h-7.067c-.726 0-1.453.263-2.047.691l-10.203 7.703a12.578 12.578 0 0 0-10.6-2.107 12.5 12.5 0 0 0-8.288 6.88 12.321 12.321 0 0 0 .198 10.765c1.684 3.39 4.821 5.793 8.52 6.616 3.698.79 7.561-.099 10.5-2.469a12.462 12.462 0 0 0 4.656-9.711c0-1.415-.231-2.831-.727-4.147l-.132-.395 9.246-7.045h11.062l.165.198a54.418 54.418 0 0 0 26.053 15.998c10.038 2.732 20.671 2.568 30.61-.527a54.624 54.624 0 0 0 25.492-16.887h11.359l5.547 6.32c-.264.395-.495.823-.726 1.251a12.451 12.451 0 0 0 .099 11.324c1.816 3.555 5.25 5.991 9.179 6.65a12.57 12.57 0 0 0 10.798-3.457 12.585 12.585 0 0 0 3.632-10.731 12.441 12.441 0 0 0-6.505-9.25 12.595 12.595 0 0 0-11.326-.263l-6.571-7.473a3.483 3.483 0 0 0-2.575-1.152h-7.991a53.652 53.652 0 0 0 7.859-27.454v-1.448h11.788l6.373 9.579a12.694 12.694 0 0 0-3.005 8.065 12.493 12.493 0 0 0 12.515 12.476 12.57 12.57 0 0 0 8.849-3.654 12.436 12.436 0 0 0 3.665-8.822 12.493 12.493 0 0 0-12.514-12.476l.099.132Zm-7.595-55.599c1.519 0 2.972.593 4.028 1.679a5.699 5.699 0 0 1 1.684 4.016 5.563 5.563 0 0 1-1.684 4.016 5.735 5.735 0 0 1-4.028 1.679 5.602 5.602 0 0 1-4.029-1.679 5.703 5.703 0 0 1-1.684-4.016c0-1.514.595-2.963 1.684-4.016a5.74 5.74 0 0 1 4.029-1.679Zm-138.058 9.283c-1.519 0-2.939-.625-3.996-1.679a5.671 5.671 0 0 1-1.651-4.016c0-1.514.595-2.93 1.684-4.016a5.708 5.708 0 0 1 4.029-1.646c1.519 0 2.939.593 4.028 1.646a5.7 5.7 0 0 1 1.684 4.016 5.694 5.694 0 0 1-1.684 4.049 5.565 5.565 0 0 1-4.061 1.646h-.033ZM469.864 349c-1.519 0-2.939-.625-3.995-1.712-1.057-1.086-1.651-2.535-1.618-4.016 0-1.514.627-2.929 1.684-3.983a5.764 5.764 0 0 1 4.028-1.646c1.519 0 2.939.626 3.996 1.679a5.673 5.673 0 0 1 1.651 4.016 5.599 5.599 0 0 1-1.717 4.016 5.84 5.84 0 0 1-4.062 1.646h.033Zm8.024 53.36a5.594 5.594 0 0 1-4.028-1.679 5.697 5.697 0 0 1-1.684-4.016c0-1.514.594-2.962 1.684-4.016a5.734 5.734 0 0 1 4.028-1.678c1.519 0 2.972.592 4.029 1.678a5.704 5.704 0 0 1 1.684 4.016 5.566 5.566 0 0 1-1.684 4.016 5.735 5.735 0 0 1-4.029 1.679Zm141.658-11.093c1.518 0 2.971.592 4.028 1.679a5.697 5.697 0 0 1 1.684 4.016 5.565 5.565 0 0 1-1.684 4.016 5.739 5.739 0 0 1-4.028 1.679 5.602 5.602 0 0 1-4.029-1.679 5.7 5.7 0 0 1-1.684-4.016c0-1.515.627-2.963 1.684-4.016a5.704 5.704 0 0 1 4.029-1.646v-.033Zm-69.046 5.234c-12.647 0-24.765-5.004-33.681-13.925-8.948-8.92-13.967-21.001-13.967-33.576a47.361 47.361 0 0 1 13.967-33.576 47.718 47.718 0 0 1 33.681-13.925c12.614 0 24.765 5.004 33.681 13.925 8.948 8.92 13.967 21.001 13.967 33.576a47.361 47.361 0 0 1-13.967 33.576 47.718 47.718 0 0 1-33.681 13.925Zm82.122-24.886a5.602 5.602 0 0 1-4.029-1.679c-1.056-1.053-1.684-2.502-1.651-4.016 0-1.514.594-2.963 1.684-4.016a5.708 5.708 0 0 1 4.029-1.646 5.6 5.6 0 0 1 4.028 1.679 5.667 5.667 0 0 1 1.651 4.016c0 1.514-.627 2.93-1.684 3.983a5.706 5.706 0 0 1-4.028 1.646v.033ZM216.117 601h-28.396v-84.32h28.396c7.275 0 13.268.785 17.98 2.356 4.712 1.488 8.349 4.009 10.912 7.564 2.645 3.472 4.464 7.605 5.456 12.4.992 4.712 1.488 10.871 1.488 18.476 0 7.605-.455 13.929-1.364 18.972-.909 4.96-2.645 9.424-5.208 13.392-2.48 3.885-6.117 6.737-10.912 8.556-4.795 1.736-10.912 2.604-18.352 2.604Zm17.98-33.48c.165-2.645.248-6.283.248-10.912 0-4.712-.165-8.473-.496-11.284-.331-2.811-1.116-5.373-2.356-7.688-1.24-2.315-3.1-3.885-5.58-4.712-2.397-.909-5.663-1.364-9.796-1.364h-11.284v54.56h11.284c6.2 0 10.705-1.571 13.516-4.712 2.397-2.563 3.885-7.192 4.464-13.888Zm31.21 33.48v-62h16.616v62h-16.616Zm0-69.936V514.2h16.616v16.864h-16.616Zm88.141 77.624c0 7.109-2.728 12.359-8.184 15.748-5.456 3.389-12.855 5.084-22.196 5.084-9.259 0-16.409-1.24-21.452-3.72-4.96-2.48-7.44-6.985-7.44-13.516 0-5.208 2.976-10.127 8.928-14.756-3.059-2.067-4.588-5.208-4.588-9.424 0-1.653 1.24-4.381 3.72-8.184l1.116-1.736c-5.621-4.051-8.432-10.003-8.432-17.856 0-7.936 2.356-13.681 7.068-17.236 4.795-3.555 11.119-5.332 18.972-5.332 3.555 0 7.068.413 10.54 1.24l1.984.372 19.964-.62v13.268l-9.3-.744c1.819 2.811 2.728 5.621 2.728 8.432 0 8.267-2.108 13.971-6.324 17.112-4.216 3.141-10.829 4.712-19.84 4.712-1.901 0-3.596-.165-5.084-.496-.827 2.149-1.24 3.927-1.24 5.332 0 1.323.703 2.232 2.108 2.728 1.405.496 4.712.785 9.92.868 10.416.083 17.525 1.488 21.328 4.216 3.803 2.645 5.704 7.481 5.704 14.508Zm-42.904 1.86c0 3.555 4.34 5.332 13.02 5.332 8.763 0 13.144-2.067 13.144-6.2 0-2.232-.744-3.679-2.232-4.34-1.488-.579-4.629-.909-9.424-.992l-11.16-.868c-2.232 2.232-3.348 4.588-3.348 7.068Zm.992-50.716c0 6.035 3.141 9.052 9.424 9.052 6.365 0 9.548-3.017 9.548-9.052 0-6.117-3.183-9.176-9.548-9.176-6.283 0-9.424 3.059-9.424 9.176ZM363.514 601v-62h16.616v62h-16.616Zm0-69.936V514.2h16.616v16.864h-16.616Zm66.317 22.072h-15.252v25.42c0 2.48.041 4.257.124 5.332.165.992.62 1.86 1.364 2.604.827.744 2.067 1.116 3.72 1.116l9.424-.248.744 13.268c-5.539 1.24-9.755 1.86-12.648 1.86-7.44 0-12.524-1.653-15.252-4.96-2.728-3.389-4.092-9.589-4.092-18.6v-25.792h-7.316V539h7.316v-17.236h16.616V539h15.252v14.136Zm58.312 5.208v25.792c.165 1.984.496 3.389.992 4.216.496.744 1.529 1.281 3.1 1.612l-.496 12.524c-4.216 0-7.605-.289-10.168-.868-2.48-.579-5.001-1.736-7.564-3.472-5.952 2.893-12.028 4.34-18.228 4.34-12.813 0-19.22-6.779-19.22-20.336 0-6.613 1.777-11.284 5.332-14.012 3.555-2.811 9.011-4.464 16.368-4.96l13.268-.992v-3.844c0-2.563-.579-4.299-1.736-5.208-1.157-.992-3.017-1.488-5.58-1.488l-23.312.992-.496-11.532c8.845-2.397 17.236-3.596 25.172-3.596 8.019 0 13.764 1.653 17.236 4.96 3.555 3.307 5.332 8.597 5.332 15.872Zm-27.9 16.368c-4.629.413-6.944 2.893-6.944 7.44 0 4.547 2.025 6.82 6.076 6.82 3.141 0 6.572-.496 10.292-1.488l1.86-.496V573.72l-11.284.992ZM504.727 601v-86.8h16.616V601h-16.616Zm61.412 0v-84.32h29.14l14.88 61.504 14.88-61.504h29.14V601h-17.112v-65.224h-1.86l-16.492 61.504h-17.112l-16.492-61.504h-1.86V601h-17.112Zm107.575-54.932c4.381-5.704 11.697-8.556 21.948-8.556 10.25 0 17.566 2.852 21.948 8.556 4.381 5.621 6.572 13.557 6.572 23.808 0 21.741-9.507 32.612-28.52 32.612-19.014 0-28.52-10.871-28.52-32.612 0-10.251 2.19-18.187 6.572-23.808Zm12.772 37.82c1.736 2.976 4.794 4.464 9.176 4.464 4.381 0 7.398-1.488 9.052-4.464 1.736-2.976 2.604-7.647 2.604-14.012s-.868-10.995-2.604-13.888c-1.654-2.893-4.671-4.34-9.052-4.34-4.382 0-7.44 1.447-9.176 4.34-1.654 2.893-2.48 7.523-2.48 13.888s.826 11.036 2.48 14.012ZM752.978 601h-16.616v-62h16.492v3.472c5.621-3.307 10.788-4.96 15.5-4.96 8.266 0 13.97 2.439 17.112 7.316 3.141 4.877 4.712 12.4 4.712 22.568V601h-16.616v-33.108c0-5.291-.62-9.176-1.86-11.656-1.24-2.563-3.72-3.844-7.44-3.844-3.39 0-6.655.579-9.796 1.736l-1.488.496V601Zm65.563-23.932c.083 3.803 1.075 6.572 2.976 8.308 1.984 1.653 4.795 2.48 8.432 2.48 7.688 0 14.549-.248 20.584-.744l3.472-.372.248 12.276c-9.507 2.315-18.104 3.472-25.792 3.472-9.341 0-16.12-2.48-20.336-7.44-4.216-4.96-6.324-13.02-6.324-24.18 0-22.237 9.135-33.356 27.404-33.356 18.021 0 27.032 9.341 27.032 28.024l-1.24 11.532h-36.456Zm21.328-12.648c0-4.96-.785-8.391-2.356-10.292-1.571-1.984-4.34-2.976-8.308-2.976-3.885 0-6.655 1.033-8.308 3.1-1.571 1.984-2.397 5.373-2.48 10.168h21.452Zm21.57-25.42h16.368l11.284 47.864h2.852L903.227 539h16.368l-21.824 88.04h-16.244l6.82-26.04h-11.656l-15.252-62ZM259.711 672.68h33.108c8.763 0 15.335 1.777 19.716 5.332 4.381 3.472 6.572 9.135 6.572 16.988 0 4.712-.703 8.473-2.108 11.284-1.405 2.728-3.803 5.167-7.192 7.316 3.72 1.571 6.448 3.844 8.184 6.82 1.819 2.976 2.728 7.109 2.728 12.4 0 8.184-2.397 14.26-7.192 18.228-4.795 3.968-11.532 5.952-20.212 5.952h-33.604v-84.32Zm32.736 49.104h-15.624v20.584h15.624c3.72 0 6.448-.744 8.184-2.232 1.819-1.488 2.728-4.216 2.728-8.184 0-6.779-3.637-10.168-10.912-10.168Zm-.496-34.472h-15.128V707.4h15.252c6.448 0 9.672-3.348 9.672-10.044 0-6.696-3.265-10.044-9.796-10.044ZM334.53 757v-86.8h16.616V757H334.53Zm36.026-54.932c4.381-5.704 11.697-8.556 21.948-8.556 10.25 0 17.566 2.852 21.948 8.556 4.381 5.621 6.572 13.557 6.572 23.808 0 21.741-9.507 32.612-28.52 32.612-19.014 0-28.52-10.871-28.52-32.612 0-10.251 2.19-18.187 6.572-23.808Zm12.772 37.82c1.736 2.976 4.794 4.464 9.176 4.464 4.381 0 7.398-1.488 9.052-4.464 1.736-2.976 2.604-7.647 2.604-14.012s-.868-10.995-2.604-13.888c-1.654-2.893-4.671-4.34-9.052-4.34-4.382 0-7.44 1.447-9.176 4.34-1.654 2.893-2.48 7.523-2.48 13.888s.826 11.036 2.48 14.012Zm106.048 24.8c0 7.109-2.728 12.359-8.184 15.748-5.456 3.389-12.855 5.084-22.196 5.084-9.259 0-16.41-1.24-21.452-3.72-4.96-2.48-7.44-6.985-7.44-13.516 0-5.208 2.976-10.127 8.928-14.756-3.059-2.067-4.588-5.208-4.588-9.424 0-1.653 1.24-4.381 3.72-8.184l1.116-1.736c-5.622-4.051-8.432-10.003-8.432-17.856 0-7.936 2.356-13.681 7.068-17.236 4.794-3.555 11.118-5.332 18.972-5.332 3.554 0 7.068.413 10.54 1.24l1.984.372 19.964-.62v13.268l-9.3-.744c1.818 2.811 2.728 5.621 2.728 8.432 0 8.267-2.108 13.971-6.324 17.112-4.216 3.141-10.83 4.712-19.84 4.712-1.902 0-3.596-.165-5.084-.496-.827 2.149-1.24 3.927-1.24 5.332 0 1.323.702 2.232 2.108 2.728 1.405.496 4.712.785 9.92.868 10.416.083 17.525 1.488 21.328 4.216 3.802 2.645 5.704 7.481 5.704 14.508Zm-42.904 1.86c0 3.555 4.34 5.332 13.02 5.332 8.762 0 13.144-2.067 13.144-6.2 0-2.232-.744-3.679-2.232-4.34-1.488-.579-4.63-.909-9.424-.992l-11.16-.868c-2.232 2.232-3.348 4.588-3.348 7.068Zm.992-50.716c0 6.035 3.141 9.052 9.424 9.052 6.365 0 9.548-3.017 9.548-9.052 0-6.117-3.183-9.176-9.548-9.176-6.283 0-9.424 3.059-9.424 9.176Zm106.628-29.76c-9.011 0-13.516 2.976-13.516 8.928 0 2.645 1.116 4.671 3.348 6.076 2.232 1.405 7.44 3.431 15.624 6.076 8.267 2.645 14.053 5.663 17.36 9.052 3.307 3.307 4.96 8.432 4.96 15.376 0 8.845-2.687 15.541-8.06 20.088-5.373 4.547-12.4 6.82-21.08 6.82-6.448 0-14.343-.992-23.684-2.976l-4.464-.868 1.736-13.268c11.077 1.488 19.551 2.232 25.42 2.232 8.763 0 13.144-3.637 13.144-10.912 0-2.645-1.033-4.712-3.1-6.2-1.984-1.488-5.993-3.1-12.028-4.836-9.589-2.728-16.368-5.952-20.336-9.672-3.885-3.803-5.828-9.052-5.828-15.748 0-8.432 2.563-14.715 7.688-18.848 5.125-4.133 12.152-6.2 21.08-6.2 6.117 0 13.888.827 23.312 2.48l4.464.868-1.364 13.516c-11.656-1.323-19.881-1.984-24.676-1.984Zm53.685 46.996c.083 3.803 1.075 6.572 2.976 8.308 1.984 1.653 4.795 2.48 8.432 2.48 7.688 0 14.55-.248 20.584-.744l3.472-.372.248 12.276c-9.506 2.315-18.104 3.472-25.792 3.472-9.341 0-16.12-2.48-20.336-7.44-4.216-4.96-6.324-13.02-6.324-24.18 0-22.237 9.135-33.356 27.404-33.356 18.022 0 27.032 9.341 27.032 28.024l-1.24 11.532h-36.456Zm21.328-12.648c0-4.96-.785-8.391-2.356-10.292-1.57-1.984-4.34-2.976-8.308-2.976-3.885 0-6.654 1.033-8.308 3.1-1.57 1.984-2.397 5.373-2.48 10.168h21.452ZM657.348 757v-62h16.492v6.572c6.944-4.133 13.557-6.82 19.84-8.06v16.74c-6.696 1.405-12.441 2.852-17.236 4.34l-2.48.868V757h-16.616Zm46.137 0v-62h16.616v62h-16.616Zm0-69.936V670.2h16.616v16.864h-16.616Zm45.609 46.004c.082 3.803 1.074 6.572 2.976 8.308 1.984 1.653 4.794 2.48 8.432 2.48 7.688 0 14.549-.248 20.584-.744l3.472-.372.248 12.276c-9.507 2.315-18.104 3.472-25.792 3.472-9.342 0-16.12-2.48-20.336-7.44-4.216-4.96-6.324-13.02-6.324-24.18 0-22.237 9.134-33.356 27.404-33.356 18.021 0 27.032 9.341 27.032 28.024l-1.24 11.532h-36.456Zm21.328-12.648c0-4.96-.786-8.391-2.356-10.292-1.571-1.984-4.34-2.976-8.308-2.976-3.886 0-6.655 1.033-8.308 3.1-1.571 1.984-2.398 5.373-2.48 10.168h21.452Zm72.759-9.92c-10.251-1.323-17.443-1.984-21.576-1.984-4.051 0-6.696.372-7.936 1.116-1.158.744-1.736 1.943-1.736 3.596 0 1.571.785 2.687 2.356 3.348 1.653.579 5.786 1.488 12.4 2.728 6.696 1.157 11.449 3.1 14.26 5.828 2.81 2.728 4.216 7.151 4.216 13.268 0 13.392-8.308 20.088-24.924 20.088-5.456 0-12.07-.744-19.84-2.232l-3.968-.744.496-13.888c10.25 1.323 17.36 1.984 21.328 1.984 4.05 0 6.778-.372 8.184-1.116 1.488-.827 2.232-2.025 2.232-3.596 0-1.571-.786-2.728-2.356-3.472-1.488-.744-5.456-1.653-11.904-2.728-6.366-1.075-11.119-2.893-14.26-5.456-3.142-2.563-4.712-7.109-4.712-13.64 0-6.613 2.232-11.573 6.696-14.88 4.464-3.389 10.209-5.084 17.236-5.084 4.877 0 11.532.785 19.964 2.356l4.092.744-.248 13.764Z"/><defs><linearGradient id="a" x1="-.01" x2="1099.99" y1="550" y2="550" gradientUnits="userSpaceOnUse"><stop stop-color="#6500CF"/><stop offset="1" stop-color="#AB71FF"/></linearGradient></defs></svg>
