<svg xmlns="http://www.w3.org/2000/svg" fill="none" viewBox="0 0 1100 600"><path fill="url(#a)" d="M0 600h1100V0H0v600Z"/><path fill="#fff" d="M458.834 312.12v-56.08h6.18v56.08h-6.18ZM483.874 312.12h-6.02v-40.56h6.02v2.85c4.44-2.38 8.54-3.64 12.51-3.64 5.39 0 9.04 1.43 10.94 4.44 1.9 2.85 2.85 8.08 2.85 15.53v21.39h-6.02V290.9c0-5.55-.63-9.51-1.59-11.56-1.11-2.06-3.49-3.17-7.13-3.17-1.74 0-3.49.32-5.53.79-1.9.48-3.33.95-4.44 1.43l-1.59.79v32.95-.01ZM542.004 276.95h-12.82v19.33c0 4.59.32 7.76.95 9.19.63 1.43 2.22 2.22 4.76 2.22l7.12-.48.48 5.07c-3.63.63-6.32.95-8.23.95-4.28 0-7.13-.95-8.72-3.01-1.59-2.06-2.38-6.02-2.38-11.72v-21.55h-5.71v-5.23h5.71v-12.36h6.02v12.36h12.82v5.23ZM577.024 307.05l2.38-.32.16 4.75c-6.18.79-11.41 1.27-15.84 1.27-5.87 0-9.99-1.74-12.37-5.07-2.38-3.33-3.65-8.55-3.65-15.68 0-14.26 5.71-21.23 16.96-21.23 5.37 0 9.49 1.59 12.19 4.59 2.69 3.01 4.12 7.92 4.12 14.42l-.32 4.59h-26.78c0 4.44.79 7.76 2.38 9.98 1.59 2.22 4.44 3.17 8.4 3.17s8.23-.16 12.35-.47h.02Zm-2.22-17.59c0-4.91-.79-8.4-2.38-10.46-1.59-2.06-4.12-3.01-7.75-3.01s-6.34 1.11-8.09 3.17c-1.74 2.22-2.7 5.55-2.85 10.3h21.07ZM590.323 312.12v-40.56h6.021v5.55c4.76-3.17 9.669-5.39 14.899-6.34v6.18c-2.22.48-4.6 1.11-7.13 2.06-2.54.95-4.279 1.74-5.709 2.38l-2.06 1.11v29.63h-6.021v-.01ZM618.833 312.12v-58.14h6.02v58.14h-6.02ZM664.623 307.05l2.38-.32.161 4.75c-6.17.79-11.401 1.27-15.841 1.27-5.87 0-9.99-1.74-12.37-5.07-2.36-3.33-3.63-8.55-3.63-15.68 0-14.26 5.69-21.23 16.95-21.23 5.39 0 9.511 1.59 12.191 4.59 2.7 3.01 4.119 7.92 4.119 14.42l-.32 4.59h-26.78c0 4.44.79 7.76 2.38 9.98 1.59 2.22 4.44 3.17 8.4 3.17s8.241-.16 12.351-.47h.009Zm-2.199-17.59c0-4.91-.791-8.4-2.381-10.46-1.59-2.06-4.12-3.01-7.77-3.01-3.65 0-6.339 1.11-8.089 3.17-1.74 2.22-2.701 5.55-2.851 10.3h21.091ZM708.994 253.98v58.14h-6.02v-2.69c-4.12 2.38-8.24 3.48-12.37 3.48-2.2 0-4.1-.32-5.69-.79-1.59-.47-3.17-1.58-4.6-2.85-2.85-2.85-4.44-8.24-4.44-16.16s1.27-13.47 3.96-16.95c2.69-3.48 6.98-5.23 12.98-5.23 3.17 0 6.5.32 9.99 1.11v-18.06H708.994Zm-20.91 52.91c.93.32 2.2.63 3.79.63 1.59 0 3.33-.32 5.23-.79 1.9-.48 3.49-.95 4.44-1.43l1.59-.79V277.1c-3.49-.63-6.66-.95-9.67-.95-4.12 0-6.96 1.27-8.54 3.96-1.59 2.69-2.38 6.66-2.38 12.2 0 6.34.95 10.46 2.85 12.67.79.79 1.59 1.59 2.7 1.9l-.01.01ZM736.404 331.13c-6.5 0-10.94-.95-13.63-2.69-2.54-1.74-3.81-4.91-3.81-9.66 0-2.22.48-3.96 1.43-5.39.95-1.43 2.7-2.85 4.91-4.59-1.59-.95-2.22-2.85-2.22-5.55 0-.95.63-2.69 2.06-5.07l.79-1.27c-4.28-1.9-6.34-6.02-6.34-12.2 0-9.19 5.07-13.78 15.22-13.78 2.52 0 5.06.32 7.12.79l1.27.32 12.05-.32v5.23l-7.77-.16c1.74 1.74 2.7 4.44 2.7 8.08 0 5.07-1.27 8.56-3.8 10.62-2.54 2.06-6.5 3.01-11.87 3.01-1.43 0-2.85-.16-3.96-.32-.95 2.38-1.43 3.96-1.43 4.59 0 1.74.48 2.69 1.59 3.17.95.48 4.12.63 9.34.63s8.88.79 11.26 2.38c2.38 1.58 3.33 4.75 3.33 9.51-.16 8.4-6.18 12.67-18.21 12.67h-.03Zm-11.42-12.67c0 2.85.79 4.91 2.38 6.02 1.59 1.11 4.6 1.59 8.88 1.59 4.28 0 7.43-.63 9.18-1.74 1.74-1.11 2.85-3.17 2.85-6.02 0-2.85-.63-4.59-2.06-5.39-1.43-.79-3.96-1.27-7.93-1.27l-8.7-.48c-1.74 1.27-3.01 2.38-3.65 3.33-.63 1.27-.95 2.38-.95 3.96Zm.63-33.75c0 3.17.79 5.39 2.22 6.81 1.43 1.43 3.8 2.06 7.13 2.06s5.69-.63 6.96-2.06c1.43-1.43 2.06-3.64 2.06-6.81 0-3.17-.63-5.54-2.06-6.81-1.43-1.43-3.8-2.06-6.96-2.06-3.33 0-5.71.63-7.13 2.06-1.59 1.27-2.22 3.64-2.22 6.81ZM789.934 307.05l2.38-.32.16 4.75c-6.17.79-11.4 1.27-15.84 1.27-5.87 0-9.99-1.74-12.37-5.07-2.36-3.33-3.63-8.55-3.63-15.68 0-14.26 5.69-21.23 16.95-21.23 5.39 0 9.49 1.59 12.19 4.59 2.7 3.01 4.12 7.92 4.12 14.42l-.32 4.59h-26.78c0 4.44.79 7.76 2.38 9.98 1.59 2.22 4.44 3.17 8.4 3.17s8.24-.16 12.35-.47h.01Zm-2.22-17.59c0-4.91-.77-8.4-2.36-10.46-1.59-2.06-4.12-3.01-7.77-3.01-3.65 0-6.34 1.11-8.09 3.17-1.74 2.22-2.69 5.55-2.85 10.3h21.07ZM803.253 312.12v-40.56h6.02v5.55c4.74-3.17 9.65-5.39 14.88-6.34v6.18c-2.22.48-4.6 1.11-7.13 2.06-2.54.95-4.28 1.74-5.69 2.38l-2.06 1.11v29.63h-6.02v-.01Z"/><path fill="#815281" d="M325.594 360.76c-10.92-5.39-19.96-13.78-25.67-24.24-9.65-6.81-17.1-16.64-20.91-28.04a59.213 59.213 0 0 0-2.69 17.59c0 14.1 5.23 26.77 13.79 36.6 2.99 3.33 6.32 6.49 9.97 9.03 9.2 6.5 20.43 10.3 32.64 10.3 6.5 0 12.67-1.11 18.53-3.17-10.29-3.49-19.17-9.82-25.67-18.06l.01-.01Z"/><path fill="#8075B2" d="M376.454 360.44c.106 0 .106 0 0 0-7.77 3.8-16.31 5.86-25.51 6.02-9.18 0-17.74-2.06-25.51-5.7h-.16c6.66 8.24 15.38 14.57 25.67 18.06 10.3-3.64 19.01-10.14 25.51-18.38Z"/><path fill="#A2BDDB" d="M325.594 360.76c7.77 3.64 16.33 5.7 25.51 5.7 9.18 0 17.74-2.22 25.51-6.02-9.04-2.06-17.58-5.23-25.51-9.51-7.93 4.28-16.47 7.6-25.51 9.82v.01Z"/><path fill="#56B6B4" d="M422.554 307.68c1.9 5.55 2.85 11.41 2.85 17.59 0 14.1-4.911 26.93-13.461 36.75-2.85 3.49-6.179 6.5-9.829 9.19-9.2 6.65-20.43 10.61-32.48 10.61-6.48 0-12.67-1.11-18.53-3.01 10.15-3.64 18.85-9.98 25.35-18.38 10.78-5.39 19.64-13.94 25.35-24.4 9.67-7.13 16.95-16.95 20.75-28.36v.01Z"/><path fill="#2E9B85" d="M401.804 279.64c4.6 8.24 7.13 17.74 7.29 27.88 0 10.3-2.54 19.96-7.13 28.36a57.276 57.276 0 0 0 20.59-28.36c-3.8-11.25-11.24-21.07-20.75-27.88Z"/><path fill="#80D3BD" d="M401.954 335.88c4.6-8.4 7.13-18.06 7.13-28.36s-2.7-19.64-7.29-27.88c-1.74 9.98-4.91 19.49-9.35 28.2 4.44 8.71 7.77 18.06 9.51 28.04Z"/><path fill="#97E0CF" d="M392.444 307.84c-1.41 2.85-2.99 5.7-4.74 8.4-7.29 11.56-16.96 21.55-28.36 29.31-2.7 1.9-5.55 3.64-8.4 5.23 7.93 4.28 16.47 7.45 25.51 9.51 10.78-5.39 19.64-13.94 25.35-24.4-1.59-9.98-4.91-19.33-9.35-28.04l-.01-.01Z"/><path fill="#FF7A7F" d="M299.294 280.28c5.87-10.93 14.9-19.64 25.82-25.03 6.5-8.24 15.22-14.57 25.19-18.06-5.87-2.06-12.03-3.01-18.53-3.01-12.37 0-23.6 4.12-32.8 10.93-3.33 2.38-6.48 5.23-9.18 8.4-8.72 9.98-13.95 22.97-13.79 37.23 0 6.18 1.11 12.04 2.85 17.59 3.8-11.41 11.1-21.23 20.43-28.04l.01-.01Z"/><path fill="#E7666D" d="M299.774 336.52c-4.6-8.4-7.28-18.06-7.28-28.36s2.52-19.64 6.96-28.04c-9.49 6.97-16.63 16.79-20.43 28.2 3.8 11.56 11.26 21.39 20.75 28.2Z"/><path fill="#FFA5B1" d="M299.454 280.12c-4.6 8.4-6.96 17.9-6.96 28.04s2.68 19.96 7.43 28.2a104.59 104.59 0 0 1 9.2-28.2c-4.6-8.56-7.93-18.06-9.67-28.04Z"/><path fill="#FFD0D0" d="M342.544 345.71c-11.4-7.6-21.23-17.59-28.66-29.15-1.74-2.69-3.33-5.54-4.91-8.4a95.084 95.084 0 0 0-9.2 28.2c5.87 10.46 14.9 19.01 25.67 24.24h.16c9.04-2.22 17.58-5.55 25.35-9.82-2.85-1.43-5.71-3.17-8.4-5.07h-.01Z"/><path fill="#68C080" d="M350.314 237.18a55.614 55.614 0 0 1 18.53-3.17c12.37 0 23.76 3.8 33.12 10.62 3.33 2.38 6.34 5.23 9.2 8.24 8.7 9.82 14.09 22.81 14.25 37.07 0 6.18-.95 12.04-2.7 17.59-3.8-11.41-11.08-21.07-20.75-27.88-5.87-10.77-15.04-19.33-26.14-24.56-6.66-8.24-15.36-14.42-25.51-17.9v-.01Z"/><path fill="#FF9752" d="M325.124 255.25c7.61-3.8 16.17-5.86 25.19-5.86s17.58 1.9 25.35 5.55c-6.5-8.08-15.36-14.42-25.35-17.74a57.93 57.93 0 0 0-25.19 18.06v-.01Z"/><path fill="#FFB884" d="M350.464 264.91c7.77-4.44 16.33-7.76 25.19-9.82-7.61-3.64-16.31-5.7-25.35-5.55-9.02 0-17.58 2.22-25.19 5.86 9.04 2.06 17.58 5.23 25.35 9.51Z"/><path fill="#C4E2A0" d="M350.464 264.91c3.01 1.59 5.87 3.33 8.72 5.23 11.24 7.76 20.91 17.59 28.36 29.15 1.74 2.69 3.33 5.54 4.9 8.55 4.44-8.71 7.61-18.22 9.35-28.2-5.87-10.77-15.04-19.33-26.14-24.56-8.86 2.06-17.26 5.55-25.19 9.82v.01Z"/><path fill="#EEC9A7" d="M309.124 308.32c1.43-2.85 3.01-5.7 4.76-8.56 7.28-11.56 16.79-21.7 28.04-29.47 2.68-1.9 5.69-3.64 8.54-5.39-7.91-4.28-16.31-7.6-25.35-9.66-10.92 5.39-19.96 14.1-25.67 24.87 1.74 9.98 5.07 19.49 9.67 28.2l.01.01Z"/><path fill="#fff" d="M359.184 270.14c-2.85-1.9-5.71-3.64-8.72-5.23-3.01 1.58-5.87 3.48-8.54 5.39-11.26 7.76-20.77 17.9-28.04 29.47a75.058 75.058 0 0 0-4.76 8.56c1.43 2.85 3.17 5.7 4.91 8.4a100.213 100.213 0 0 0 28.68 29.15c2.68 1.9 5.53 3.48 8.38 5.07 2.85-1.59 5.71-3.33 8.4-5.23a104.199 104.199 0 0 0 28.36-29.31c1.74-2.69 3.33-5.55 4.74-8.4-1.41-2.85-3.15-5.7-4.9-8.55-7.61-11.57-17.28-21.55-28.52-29.31l.01-.01ZM459.054 368.55v-28.22h17.49v4h-12.93v9.51h10.75v4h-10.75v10.71h-4.56ZM485.574 362.58c.93 1.62 2.73 2.43 5.36 2.43 2.63 0 4.42-.8 5.32-2.39.93-1.59 1.41-4.26 1.41-7.99 0-3.73-.49-6.49-1.44-8.2-.93-1.7-2.7-2.55-5.28-2.55s-4.35.85-5.3 2.55c-.97 1.7-1.44 4.42-1.44 8.16s.46 6.37 1.39 7.99h-.02Zm14.25 2.97c-1.67 2.31-4.63 3.46-8.9 3.46-4.27 0-7.22-1.15-8.93-3.46-1.71-2.33-2.55-5.99-2.55-10.96 0-4.97.85-8.66 2.55-11.08 1.73-2.42 4.7-3.63 8.93-3.63 4.23 0 7.2 1.21 8.9 3.63 1.71 2.39 2.55 6.08 2.55 11.08s-.85 8.65-2.55 10.96ZM512.094 359.53c0 3.65 1.92 5.48 5.76 5.48s5.76-1.83 5.76-5.48v-19.2h4.62v19.11c0 3.32-.88 5.75-2.64 7.29-1.73 1.51-4.32 2.27-7.77 2.27-3.45 0-6.02-.76-7.75-2.27-1.73-1.54-2.59-3.97-2.59-7.29v-19.11h4.62v19.2h-.01ZM534.494 368.55v-28.22h8l8.56 24.18h.63v-24.18h4.56v28.22h-7.82l-8.77-24.22h-.58v24.22h-4.58ZM572.514 368.55h-9.76v-28.22h9.76c4.33 0 7.29 1.1 8.9 3.3 1.59 2.2 2.38 5.64 2.38 10.34 0 2.39-.16 4.42-.49 6.1-.3 1.65-.85 3.14-1.64 4.49-1.57 2.66-4.62 4-9.14 4l-.01-.01Zm6.54-14.58c0-3.41-.42-5.86-1.27-7.37-.85-1.51-2.61-2.27-5.27-2.27h-5.2v20.18h5.2c2.71 0 4.53-1 5.43-3.01.44-1.01.74-2.1.86-3.25.18-1.15.25-2.58.25-4.28ZM586.214 368.55l6.96-28.22h9.11l7.01 28.22h-4.62l-1.53-6.05h-10.83l-1.52 6.05h-4.58Zm10.5-24.39-3.49 14.29h9.02l-3.47-14.29h-2.06ZM608.904 344.41v-4.08h20.59v4.08h-7.94v24.14h-4.62v-24.14h-8.03ZM633.304 368.55v-28.22h4.56v28.22h-4.56ZM649.264 362.58c.93 1.62 2.71 2.43 5.36 2.43 2.65 0 4.4-.8 5.32-2.39.93-1.59 1.39-4.26 1.39-7.99 0-3.73-.48-6.49-1.44-8.2-.93-1.7-2.68-2.55-5.27-2.55-2.59 0-4.35.85-5.32 2.55-.95 1.7-1.43 4.42-1.43 8.16s.46 6.37 1.39 7.99Zm14.25 2.97c-1.67 2.31-4.63 3.46-8.9 3.46-4.27 0-7.24-1.15-8.93-3.46-1.71-2.33-2.55-5.99-2.55-10.96 0-4.97.85-8.66 2.55-11.08 1.73-2.42 4.7-3.63 8.93-3.63 4.23 0 7.19 1.21 8.9 3.63 1.71 2.39 2.55 6.08 2.55 11.08s-.85 8.65-2.55 10.96ZM671.384 368.55v-28.22h8l8.56 24.18h.62v-24.18h4.58v28.22h-7.82l-8.77-24.22h-.58v24.22h-4.59Z"/><defs><linearGradient id="a" x1="1100" x2="0" y1="300" y2="300" gradientUnits="userSpaceOnUse"><stop stop-color="#6500D8"/><stop offset="1" stop-color="#B471FF"/></linearGradient></defs></svg>
