<svg xmlns="http://www.w3.org/2000/svg" fill="none" viewBox="0 0 600 600"><path fill="url(#a)" d="M600 0H0v600h600V0Z"/><path fill="url(#b)" d="m553.83 410.05-513.37-.47c-6.89 0-12.47-5.6-12.46-12.48l.16-173.2c0-6.89 5.6-12.47 12.48-12.46l513.37.47c6.89 0 12.47 5.6 12.46 12.48l-.16 173.2c0 6.89-5.6 12.47-12.48 12.46Z"/><path fill="url(#c)" d="m59.619 219.842-12.76-.029a6.11 6.11 0 0 0-6.124 6.096l-.029 12.76a6.11 6.11 0 0 0 6.096 6.124l12.76.029a6.11 6.11 0 0 0 6.124-6.097l.03-12.76a6.11 6.11 0 0 0-6.097-6.123Z"/><path fill="url(#d)" d="M44.28 228.96c-.48 0-.87-.39-.86-.87v-4.76c.01-.48.4-.87.88-.86h4.55c.48.01.87.4.86.88-.01.48-.39.87-.87.86h-3.68v3.88c0 .48-.39.87-.87.86l-.01.01Z"/><path fill="url(#e)" d="M62.89 236.02c.48 0 .87.39.86.87v4.76a.87.87 0 0 1-.88.86h-4.55a.87.87 0 0 1-.86-.88c.01-.48.39-.87.87-.86h3.68v-3.88c0-.48.39-.87.87-.86l.01-.01Z"/><path fill="url(#f)" d="m235.878 220.241-12.76-.028a6.109 6.109 0 0 0-6.124 6.096l-.029 12.76a6.108 6.108 0 0 0 6.096 6.123l12.76.029a6.11 6.11 0 0 0 6.124-6.096l.029-12.76a6.111 6.111 0 0 0-6.096-6.124Z"/><path fill="url(#g)" d="M220.54 229.35c-.48 0-.87-.39-.86-.87v-4.76c.01-.48.4-.87.88-.86h4.55c.48.01.87.4.86.88-.01.48-.39.87-.87.86h-3.68v3.88c0 .48-.39.87-.87.86l-.01.01Z"/><path fill="url(#h)" d="M239.15 236.42c.48 0 .87.39.86.87v4.76a.87.87 0 0 1-.88.86h-4.55a.87.87 0 0 1-.86-.88c.01-.48.39-.87.87-.86h3.68v-3.88c0-.48.39-.87.87-.86l.01-.01Z"/><path fill="url(#i)" d="m264.577 220.297-12.759-.029a6.109 6.109 0 0 0-6.124 6.096l-.029 12.76a6.11 6.11 0 0 0 6.096 6.124l12.76.029a6.111 6.111 0 0 0 6.124-6.097l.029-12.76a6.11 6.11 0 0 0-6.097-6.123Z"/><path fill="url(#j)" d="M249.24 229.42c-.48 0-.87-.39-.86-.87v-4.76c.01-.48.4-.87.88-.86h4.55c.48.01.87.4.86.88-.01.48-.39.87-.87.86h-3.68v3.88c0 .48-.39.87-.87.86l-.01.01Z"/><path fill="url(#k)" d="M267.84 236.49c.48 0 .87.39.86.87v4.76a.87.87 0 0 1-.88.86h-4.55a.87.87 0 0 1-.86-.88c.01-.48.39-.87.87-.86h3.68v-3.88c0-.48.39-.87.87-.86l.01-.01Z"/><path fill="url(#l)" d="m293.067 220.371-12.76-.029a6.111 6.111 0 0 0-6.124 6.096l-.029 12.76a6.11 6.11 0 0 0 6.097 6.124l12.76.029a6.108 6.108 0 0 0 6.123-6.096l.029-12.76a6.11 6.11 0 0 0-6.096-6.124Z"/><path fill="url(#m)" d="M277.73 229.48c-.48 0-.87-.39-.86-.87v-4.76c.01-.48.4-.87.88-.86h4.55c.48.01.87.4.86.88-.01.48-.39.87-.87.86h-3.68v3.88c0 .48-.39.87-.87.86l-.01.01Z"/><path fill="url(#n)" d="M296.34 236.55c.48 0 .87.39.86.87v4.76a.87.87 0 0 1-.88.86h-4.55a.87.87 0 0 1-.86-.88c.01-.48.39-.87.87-.86h3.68v-3.88c0-.48.39-.87.87-.86l.01-.01Z"/><path fill="url(#o)" d="m321.287 220.435-12.76-.029a6.111 6.111 0 0 0-6.124 6.096l-.029 12.76a6.11 6.11 0 0 0 6.096 6.124l12.76.029a6.11 6.11 0 0 0 6.124-6.096l.029-12.76a6.11 6.11 0 0 0-6.096-6.124Z"/><path fill="url(#p)" d="M305.95 229.55c-.48 0-.87-.39-.86-.87v-4.76c.01-.48.4-.87.88-.86h4.55c.48.01.87.4.86.88-.01.48-.39.87-.87.86h-3.68v3.88c0 .48-.39.87-.87.86l-.01.01Z"/><path fill="url(#q)" d="M324.56 236.61c.48 0 .87.39.86.87v4.76a.87.87 0 0 1-.88.86h-4.55a.87.87 0 0 1-.86-.88c0-.48.39-.87.87-.86h3.68v-3.88c0-.48.39-.87.87-.86l.01-.01Z"/><path fill="url(#r)" d="m106.709 219.948-12.76-.029a6.11 6.11 0 0 0-6.124 6.097l-.03 12.76a6.11 6.11 0 0 0 6.097 6.123l12.76.029a6.11 6.11 0 0 0 6.124-6.096l.029-12.76a6.111 6.111 0 0 0-6.096-6.124Z"/><path fill="url(#s)" d="M91.37 229.06c-.48 0-.87-.39-.86-.87v-4.76c.01-.48.4-.87.88-.86h4.55c.48.01.87.4.86.88-.01.48-.39.87-.87.86h-3.68v3.88c0 .48-.39.87-.87.86l-.01.01Z"/><path fill="url(#t)" d="M109.98 236.13c.48 0 .87.39.86.87v4.76a.87.87 0 0 1-.88.86h-4.55a.87.87 0 0 1-.86-.88c.01-.48.39-.87.87-.86h3.68V237c0-.48.39-.87.87-.86l.01-.01Z"/><path fill="url(#u)" d="m135.408 220.014-12.76-.029a6.11 6.11 0 0 0-6.124 6.096l-.028 12.76a6.11 6.11 0 0 0 6.096 6.124l12.76.028a6.108 6.108 0 0 0 6.123-6.096l.029-12.76a6.108 6.108 0 0 0-6.096-6.123Z"/><path fill="url(#v)" d="M120.07 229.13c-.48 0-.87-.39-.86-.87v-4.76c.01-.48.4-.87.88-.86h4.55c.48.01.87.4.86.88-.01.48-.39.87-.87.86h-3.68v3.88c0 .48-.39.87-.87.86l-.01.01Z"/><path fill="url(#w)" d="M138.68 236.19c.48 0 .87.39.86.87v4.76a.87.87 0 0 1-.88.86h-4.55a.87.87 0 0 1-.86-.88c0-.48.39-.87.87-.86h3.68v-3.88c0-.48.39-.87.87-.86l.01-.01Z"/><path fill="url(#x)" d="m58.843 253.6-13.9-.032a6.11 6.11 0 0 0-6.124 6.096l-.032 13.9a6.11 6.11 0 0 0 6.096 6.124l13.9.032a6.11 6.11 0 0 0 6.124-6.096l.032-13.9a6.11 6.11 0 0 0-6.096-6.124Z"/><path fill="url(#y)" d="M42.53 263.13c-.5 0-.91-.41-.9-.91v-4.98c.01-.5.42-.91.92-.9h4.76c.5.01.91.42.9.92-.01.5-.41.91-.91.9h-3.85v4.06c0 .5-.41.91-.91.9l-.01.01Z"/><path fill="url(#z)" d="M61.99 270.52c.5 0 .91.41.9.91v4.98c-.01.5-.42.91-.92.9h-4.76a.913.913 0 0 1-.9-.92c.01-.5.41-.91.91-.9h3.85v-4.06c0-.5.41-.91.91-.9l.01-.01Z"/><path fill="url(#A)" d="m88.852 253.668-13.9-.032a6.11 6.11 0 0 0-6.124 6.096l-.031 13.9a6.11 6.11 0 0 0 6.096 6.124l13.9.032a6.11 6.11 0 0 0 6.124-6.096l.031-13.9a6.11 6.11 0 0 0-6.096-6.124Z"/><path fill="url(#B)" d="M72.54 263.2c-.5 0-.91-.41-.9-.91v-4.98c.01-.5.42-.91.92-.9h4.76c.5.01.91.42.9.92-.01.5-.41.91-.91.9h-3.85v4.06c0 .5-.41.91-.91.9l-.01.01Z"/><path fill="url(#C)" d="M92 270.59c.5 0 .91.41.9.91v4.98c-.01.5-.42.91-.92.9h-4.76a.913.913 0 0 1-.9-.92c0-.5.41-.91.91-.9h3.85v-4.06c0-.5.41-.91.91-.9l.01-.01Z"/><path fill="url(#D)" d="m119.222 253.737-13.9-.032a6.11 6.11 0 0 0-6.124 6.096l-.031 13.9a6.11 6.11 0 0 0 6.096 6.124l13.9.032a6.111 6.111 0 0 0 6.124-6.096l.031-13.9a6.109 6.109 0 0 0-6.096-6.124Z"/><path fill="url(#E)" d="M102.91 263.27c-.5 0-.91-.41-.9-.91v-4.98c.01-.5.42-.91.92-.9h4.76c.5.01.91.42.9.92-.01.5-.41.91-.91.9h-3.85v4.06c0 .5-.41.91-.91.9l-.01.01Z"/><path fill="url(#F)" d="M122.37 270.66c.5 0 .91.41.9.91v4.98c-.01.5-.42.91-.92.9h-4.76a.913.913 0 0 1-.9-.92c.01-.5.41-.91.91-.9h3.85v-4.06c0-.5.41-.91.91-.9l.01-.01Z"/><path fill="url(#G)" d="m149.222 253.805-13.9-.032a6.11 6.11 0 0 0-6.124 6.096l-.031 13.9a6.109 6.109 0 0 0 6.096 6.124l13.9.032a6.11 6.11 0 0 0 6.123-6.096l.032-13.9a6.11 6.11 0 0 0-6.096-6.124Z"/><path fill="url(#H)" d="M132.91 263.34c-.5 0-.91-.41-.9-.91v-4.98c.01-.5.42-.91.92-.9h4.76c.5.01.91.42.9.92 0 .5-.41.91-.91.9h-3.85v4.06c0 .5-.41.91-.91.9l-.01.01Z"/><path fill="url(#I)" d="M152.38 270.73c.5 0 .91.41.9.91v4.98c-.01.5-.42.91-.92.9h-4.76a.913.913 0 0 1-.9-.92c.01-.5.41-.91.91-.9h3.85v-4.06c0-.5.41-.91.91-.9l.01-.01Z"/><path fill="url(#J)" d="m179.081 253.873-13.899-.032a6.11 6.11 0 0 0-6.124 6.096l-.032 13.9a6.11 6.11 0 0 0 6.096 6.124l13.9.031a6.11 6.11 0 0 0 6.124-6.096l.032-13.9a6.11 6.11 0 0 0-6.097-6.123Z"/><path fill="url(#K)" d="M162.77 263.4c-.5 0-.91-.41-.9-.91v-4.98c.01-.5.42-.91.92-.9h4.76c.5.01.91.42.9.92-.01.5-.41.91-.91.9h-3.85v4.06c0 .5-.41.91-.91.9l-.01.01Z"/><path fill="url(#L)" d="M182.23 270.79c.5 0 .91.41.9.91v4.98c-.01.5-.42.91-.92.9h-4.76a.913.913 0 0 1-.9-.92c0-.5.41-.91.91-.9h3.85v-4.06c0-.5.41-.91.91-.9l.01-.01Z"/><path fill="url(#M)" d="m209.091 253.941-13.9-.032a6.11 6.11 0 0 0-6.124 6.096l-.031 13.9a6.11 6.11 0 0 0 6.096 6.124l13.9.032a6.111 6.111 0 0 0 6.124-6.097l.031-13.9a6.108 6.108 0 0 0-6.096-6.123Z"/><path fill="url(#N)" d="M192.78 263.47c-.5 0-.91-.41-.9-.91v-4.98c.01-.5.42-.91.92-.9h4.76c.5.01.91.42.9.92-.01.5-.41.91-.91.9h-3.85v4.06c0 .5-.41.91-.91.9l-.01.01Z"/><path fill="url(#O)" d="M212.24 270.86c.5 0 .91.41.9.91v4.98c-.01.5-.42.91-.92.9h-4.76a.913.913 0 0 1-.9-.92c.01-.5.41-.91.91-.9h3.85v-4.06c0-.5.41-.91.91-.9l.01-.01Z"/><path fill="url(#P)" d="m239.461 254.01-13.9-.032a6.11 6.11 0 0 0-6.124 6.096l-.031 13.9a6.11 6.11 0 0 0 6.096 6.124l13.9.031a6.11 6.11 0 0 0 6.124-6.096l.031-13.9a6.108 6.108 0 0 0-6.096-6.123Z"/><path fill="url(#Q)" d="M223.15 263.54c-.5 0-.91-.41-.9-.91v-4.98c.01-.5.42-.91.92-.9h4.76c.5.01.91.42.9.92-.01.5-.41.91-.91.9h-3.85v4.06c0 .5-.41.91-.91.9l-.01.01Z"/><path fill="url(#R)" d="M242.61 270.93c.5 0 .91.41.9.91v4.98c-.01.5-.42.91-.92.9h-4.76a.913.913 0 0 1-.9-.92c.01-.5.41-.91.91-.9h3.85v-4.06c0-.5.41-.91.91-.9l.01-.01Z"/><path fill="url(#S)" d="m269.461 254.068-13.9-.032a6.11 6.11 0 0 0-6.124 6.096l-.031 13.9a6.11 6.11 0 0 0 6.096 6.124l13.9.032a6.11 6.11 0 0 0 6.123-6.097l.032-13.9a6.11 6.11 0 0 0-6.096-6.123Z"/><path fill="url(#T)" d="M253.16 263.61c-.5 0-.91-.41-.9-.91v-4.98c.01-.5.42-.91.92-.9h4.76c.5.01.91.42.9.92-.01.5-.41.91-.91.9h-3.85v4.06c0 .5-.41.91-.91.9l-.01.01Z"/><path fill="url(#U)" d="M272.62 271c.5 0 .91.41.9.91v4.98c-.01.5-.42.91-.92.9h-4.76a.913.913 0 0 1-.9-.92c0-.5.41-.91.91-.9h3.85v-4.06c0-.5.41-.91.91-.9l.01-.01Z"/><path fill="url(#V)" d="m299.321 254.145-13.9-.031a6.11 6.11 0 0 0-6.124 6.096l-.032 13.9a6.111 6.111 0 0 0 6.096 6.124l13.9.031a6.109 6.109 0 0 0 6.124-6.096l.032-13.9a6.11 6.11 0 0 0-6.096-6.124Z"/><path fill="url(#W)" d="M283.01 263.67c-.5 0-.91-.41-.9-.91v-4.98c.01-.5.42-.91.92-.9h4.76c.5.01.91.42.9.92 0 .5-.41.91-.91.9h-3.85v4.06c0 .5-.41.91-.91.9l-.01.01Z"/><path fill="url(#X)" d="M302.47 271.06c.5 0 .91.41.9.91v4.98c-.01.5-.42.91-.92.9h-4.76a.913.913 0 0 1-.9-.92c.01-.5.41-.91.91-.9h3.85v-4.06c0-.5.41-.91.91-.9l.01-.01Z"/><path fill="url(#Y)" d="m329.331 254.213-13.9-.031a6.11 6.11 0 0 0-6.124 6.096l-.032 13.9a6.11 6.11 0 0 0 6.096 6.124l13.9.031a6.11 6.11 0 0 0 6.124-6.096l.032-13.9a6.111 6.111 0 0 0-6.096-6.124Z"/><path fill="url(#Z)" d="M313.02 263.74c-.5 0-.91-.41-.9-.91v-4.98c.01-.5.42-.91.92-.9h4.76c.5.01.91.42.9.92-.01.5-.41.91-.91.9h-3.85v4.06c0 .5-.41.91-.91.9l-.01.01Z"/><path fill="url(#aa)" d="M332.48 271.13c.5 0 .91.41.9.91v4.98c-.01.5-.42.91-.92.9h-4.76a.913.913 0 0 1-.9-.92c.01-.5.41-.91.91-.9h3.85v-4.06c0-.5.41-.91.91-.9l.01-.01Z"/><path fill="url(#ab)" d="m359.7 254.282-13.9-.031a6.11 6.11 0 0 0-6.124 6.096l-.031 13.9a6.11 6.11 0 0 0 6.096 6.124l13.9.031a6.11 6.11 0 0 0 6.124-6.096l.031-13.9a6.11 6.11 0 0 0-6.096-6.124Z"/><path fill="url(#ac)" d="M343.39 263.81c-.5 0-.91-.41-.9-.91v-4.98c.01-.5.42-.91.92-.9h4.76c.5.01.91.42.9.92-.01.5-.41.91-.91.9h-3.85v4.06c0 .5-.41.91-.91.9l-.01.01Z"/><path fill="url(#ad)" d="M362.85 271.2c.5 0 .91.41.9.91v4.98c-.01.5-.42.91-.92.9h-4.76a.913.913 0 0 1-.9-.92c0-.5.41-.91.91-.9h3.85v-4.06c0-.5.41-.91.91-.9l.01-.01Z"/><path fill="url(#ae)" d="m389.7 254.34-13.9-.031a6.11 6.11 0 0 0-6.124 6.096l-.031 13.9a6.11 6.11 0 0 0 6.096 6.124l13.9.031a6.108 6.108 0 0 0 6.123-6.096l.032-13.9a6.11 6.11 0 0 0-6.096-6.124Z"/><path fill="url(#af)" d="M373.4 263.88c-.5 0-.91-.41-.9-.91v-4.98c.01-.5.42-.91.92-.9h4.76c.5.01.91.42.9.92-.01.5-.41.91-.91.9h-3.85v4.06c0 .5-.41.91-.91.9l-.01.01Z"/><path fill="url(#ag)" d="M392.86 271.27c.5 0 .91.41.9.91v4.98c-.01.5-.42.91-.92.9h-4.76a.913.913 0 0 1-.9-.92c0-.5.41-.91.91-.9h3.85v-4.06c0-.5.41-.91.91-.9l.01-.01Z"/><path fill="url(#ah)" d="m103.467 282.571-13.9-.032a6.11 6.11 0 0 0-6.124 6.097l-.032 13.899a6.11 6.11 0 0 0 6.096 6.124l13.9.032a6.11 6.11 0 0 0 6.124-6.096l.032-13.9a6.11 6.11 0 0 0-6.096-6.124Z"/><path fill="url(#ai)" d="M87.15 292.1c-.5 0-.91-.41-.9-.91v-4.98c.01-.5.42-.91.92-.9h4.76c.5.01.91.42.9.92 0 .5-.41.91-.91.9h-3.85v4.06c0 .5-.41.91-.91.9l-.01.01Z"/><path fill="url(#aj)" d="M106.61 299.49c.5 0 .91.41.9.91v4.98c-.01.5-.42.91-.92.9h-4.76a.913.913 0 0 1-.9-.92c.01-.5.41-.91.91-.9h3.85v-4.06c0-.5.41-.91.91-.9l.01-.01Z"/><path fill="url(#ak)" d="m133.836 282.64-13.9-.032a6.11 6.11 0 0 0-6.123 6.096l-.032 13.9a6.11 6.11 0 0 0 6.096 6.124l13.9.032a6.11 6.11 0 0 0 6.124-6.096l.031-13.9a6.109 6.109 0 0 0-6.096-6.124Z"/><path fill="url(#al)" d="M117.52 292.17c-.5 0-.91-.41-.9-.91v-4.98c.01-.5.42-.91.92-.9h4.76c.5.01.91.42.9.92 0 .5-.41.91-.91.9h-3.85v4.06c0 .5-.41.91-.91.9l-.01.01Z"/><path fill="url(#am)" d="M136.98 299.56c.5 0 .91.41.9.91v4.98c-.01.5-.42.91-.92.9h-4.76a.913.913 0 0 1-.9-.92c.01-.5.41-.91.91-.9h3.85v-4.06c0-.5.41-.91.91-.9l.01-.01Z"/><path fill="url(#an)" d="m163.836 282.698-13.9-.032a6.111 6.111 0 0 0-6.124 6.096l-.031 13.9a6.109 6.109 0 0 0 6.096 6.124l13.9.032a6.111 6.111 0 0 0 6.124-6.096l.031-13.9a6.11 6.11 0 0 0-6.096-6.124Z"/><path fill="url(#ao)" d="M147.53 292.24c-.5 0-.91-.41-.9-.91v-4.98c.01-.5.42-.91.92-.9h4.76c.5.01.91.42.9.92-.01.5-.41.91-.91.9h-3.85v4.06c0 .5-.41.91-.91.9l-.01.01Z"/><path fill="url(#ap)" d="M166.99 299.63c.5 0 .91.41.9.91v4.98c-.01.5-.42.91-.92.9h-4.76a.913.913 0 0 1-.9-.92c0-.5.41-.91.91-.9h3.85v-4.06c0-.5.41-.91.91-.9l.01-.01Z"/><path fill="url(#aq)" d="m193.696 282.776-13.9-.032a6.11 6.11 0 0 0-6.124 6.096l-.031 13.9a6.11 6.11 0 0 0 6.096 6.124l13.9.032a6.111 6.111 0 0 0 6.124-6.097l.031-13.9a6.11 6.11 0 0 0-6.096-6.123Z"/><path fill="url(#ar)" d="M177.39 292.3c-.5 0-.91-.41-.9-.91v-4.98c.01-.5.42-.91.92-.9h4.76c.5.01.91.42.9.92-.01.5-.41.91-.91.9h-3.85v4.06c0 .5-.41.91-.91.9l-.01.01Z"/><path fill="url(#as)" d="M196.85 299.69c.5 0 .91.41.9.91v4.98c-.01.5-.42.91-.92.9h-4.76a.913.913 0 0 1-.9-.92c.01-.5.41-.91.91-.9h3.85v-4.06c0-.5.41-.91.91-.9l.01-.01Z"/><path fill="url(#at)" d="m223.706 282.844-13.9-.032a6.11 6.11 0 0 0-6.124 6.096l-.032 13.9a6.11 6.11 0 0 0 6.097 6.124l13.899.032a6.11 6.11 0 0 0 6.124-6.096l.032-13.9a6.11 6.11 0 0 0-6.096-6.124Z"/><path fill="url(#au)" d="M207.39 292.37c-.5 0-.91-.41-.9-.91v-4.98c.01-.5.42-.91.92-.9h4.76c.5.01.91.42.9.92-.01.5-.41.91-.91.9h-3.85v4.06c0 .5-.41.91-.91.9l-.01.01Z"/><path fill="url(#av)" d="M226.85 299.76c.5 0 .91.41.9.91v4.98c-.01.5-.42.91-.92.9h-4.76a.913.913 0 0 1-.9-.92c0-.5.41-.91.91-.9h3.85v-4.06c0-.5.41-.91.91-.9l.01-.01Z"/><path fill="url(#aw)" d="m254.075 282.913-13.9-.032a6.11 6.11 0 0 0-6.123 6.096l-.032 13.9a6.11 6.11 0 0 0 6.096 6.124l13.9.032a6.11 6.11 0 0 0 6.124-6.097l.031-13.9a6.108 6.108 0 0 0-6.096-6.123Z"/><path fill="url(#ax)" d="M237.76 292.44c-.5 0-.91-.41-.9-.91v-4.98c.01-.5.42-.91.92-.9h4.76c.5.01.91.42.9.92-.01.5-.41.91-.91.9h-3.85v4.06c0 .5-.41.91-.91.9l-.01.01Z"/><path fill="url(#ay)" d="M257.22 299.83c.5 0 .91.41.9.91v4.98c-.01.5-.42.91-.92.9h-4.76a.913.913 0 0 1-.9-.92c.01-.5.41-.91.91-.9h3.85v-4.06c0-.5.41-.91.91-.9l.01-.01Z"/><path fill="url(#az)" d="m284.075 282.971-13.9-.032a6.11 6.11 0 0 0-6.124 6.096l-.031 13.9a6.11 6.11 0 0 0 6.096 6.124l13.9.032a6.111 6.111 0 0 0 6.124-6.097l.031-13.899a6.109 6.109 0 0 0-6.096-6.124Z"/><path fill="url(#aA)" d="M267.77 292.51c-.5 0-.91-.41-.9-.91v-4.98c.01-.5.42-.91.92-.9h4.76c.5.01.91.42.9.92-.01.5-.41.91-.91.9h-3.85v4.06c0 .5-.41.91-.91.9l-.01.01Z"/><path fill="url(#aB)" d="M287.23 299.9c.5 0 .91.41.9.91v4.98c-.01.5-.42.91-.92.9h-4.76a.913.913 0 0 1-.9-.92c0-.5.41-.91.91-.9h3.85v-4.06c0-.5.41-.91.91-.9l.01-.01Z"/><path fill="url(#aC)" d="m313.935 283.038-13.9-.031a6.11 6.11 0 0 0-6.124 6.096l-.031 13.9a6.11 6.11 0 0 0 6.096 6.124l13.9.031a6.11 6.11 0 0 0 6.124-6.096l.031-13.9a6.11 6.11 0 0 0-6.096-6.124Z"/><path fill="url(#aD)" d="M297.63 292.57c-.5 0-.91-.41-.9-.91v-4.98c.01-.5.42-.91.92-.9h4.76c.5.01.91.42.9.92-.01.5-.41.91-.91.9h-3.85v4.06c0 .5-.41.91-.91.9l-.01.01Z"/><path fill="url(#aE)" d="M317.09 299.96c.5 0 .91.41.9.91v4.98c-.01.5-.42.91-.92.9h-4.76a.913.913 0 0 1-.9-.92c.01-.5.41-.91.91-.9h3.85v-4.06c0-.5.41-.91.91-.9l.01-.01Z"/><path fill="url(#aF)" d="m343.945 283.117-13.9-.032a6.11 6.11 0 0 0-6.124 6.096l-.032 13.9a6.11 6.11 0 0 0 6.097 6.124l13.9.031a6.108 6.108 0 0 0 6.123-6.096l.032-13.9a6.11 6.11 0 0 0-6.096-6.123Z"/><path fill="url(#aG)" d="M327.63 292.64c-.5 0-.91-.41-.9-.91v-4.98c.01-.5.42-.91.92-.9h4.76c.5.01.91.42.9.92-.01.5-.41.91-.91.9h-3.85v4.06c0 .5-.41.91-.91.9l-.01.01Z"/><path fill="url(#aH)" d="M347.09 300.03c.5 0 .91.41.9.91v4.98c-.01.5-.42.91-.92.9h-4.76a.913.913 0 0 1-.9-.92c.01-.5.41-.91.91-.9h3.85v-4.06c0-.5.41-.91.91-.9l.01-.01Z"/><path fill="url(#aI)" d="m404.314 283.244-13.9-.032a6.11 6.11 0 0 0-6.123 6.096l-.032 13.9a6.11 6.11 0 0 0 6.096 6.124l13.9.031a6.11 6.11 0 0 0 6.124-6.096l.032-13.9a6.11 6.11 0 0 0-6.097-6.123Z"/><path fill="url(#aJ)" d="M388.01 292.78c-.5 0-.91-.41-.9-.91v-4.98c.01-.5.42-.91.92-.9h4.76c.5.01.91.42.9.92-.01.5-.41.91-.91.9h-3.85v4.06c0 .5-.41.91-.91.9l-.01.01Z"/><path fill="url(#aK)" d="M407.47 300.17c.5 0 .91.41.9.91v4.98c-.01.5-.42.91-.92.9h-4.76a.913.913 0 0 1-.9-.92c.01-.5.41-.91.91-.9h3.85v-4.06c0-.5.41-.91.91-.9l.01-.01Z"/><path fill="url(#aL)" d="m373.985 283.185-13.9-.032a6.11 6.11 0 0 0-6.124 6.096l-.032 13.9a6.11 6.11 0 0 0 6.096 6.124l13.9.032a6.11 6.11 0 0 0 6.124-6.096l.032-13.9a6.11 6.11 0 0 0-6.096-6.124Z"/><path fill="url(#aM)" d="M357.67 292.71c-.5 0-.91-.41-.9-.91v-4.98c.01-.5.42-.91.92-.9h4.76c.5.01.91.42.9.92-.01.5-.41.91-.91.9h-3.85v4.06c0 .5-.41.91-.91.9l-.01.01Z"/><path fill="url(#aN)" d="M377.13 300.1c.5 0 .91.41.9.91v4.98c-.01.5-.42.91-.92.9h-4.76a.913.913 0 0 1-.9-.92c.01-.5.41-.91.91-.9h3.85v-4.06c0-.5.41-.91.91-.9l.01-.01Z"/><path fill="url(#aO)" d="m163.898 220.078-12.76-.029a6.111 6.111 0 0 0-6.124 6.096l-.028 12.76a6.11 6.11 0 0 0 6.096 6.124l12.76.029a6.11 6.11 0 0 0 6.123-6.096l.029-12.76a6.11 6.11 0 0 0-6.096-6.124Z"/><path fill="url(#aP)" d="M148.56 229.19c-.48 0-.87-.39-.86-.87v-4.76c.01-.48.4-.87.88-.86h4.55c.48.01.87.4.86.88-.01.48-.39.87-.87.86h-3.68v3.88c0 .48-.39.87-.87.86l-.01.01Z"/><path fill="url(#aQ)" d="M167.17 236.26c.48 0 .87.39.86.87v4.76a.87.87 0 0 1-.88.86h-4.55a.87.87 0 0 1-.86-.88c.01-.48.39-.87.87-.86h3.68v-3.88c0-.48.39-.87.87-.86l.01-.01Z"/><path fill="url(#aR)" d="m117.091 311.462-13.9-.032a6.11 6.11 0 0 0-6.124 6.096l-.031 13.9a6.11 6.11 0 0 0 6.096 6.124l13.9.032a6.111 6.111 0 0 0 6.124-6.096l.031-13.9a6.11 6.11 0 0 0-6.096-6.124Z"/><path fill="url(#aS)" d="M100.79 321c-.5 0-.91-.41-.9-.91v-4.98c.01-.5.42-.91.92-.9h4.76c.5.01.91.42.9.92-.01.5-.41.91-.91.9h-3.85v4.06c0 .5-.41.91-.91.9l-.01.01Z"/><path fill="url(#aT)" d="M120.25 328.39c.5 0 .91.41.9.91v4.98c-.01.5-.42.91-.92.9h-4.76a.913.913 0 0 1-.9-.92c.01-.5.41-.91.91-.9h3.85v-4.06c0-.5.41-.91.91-.9l.01-.01Z"/><path fill="url(#aU)" d="m147.461 311.531-13.9-.032a6.11 6.11 0 0 0-6.124 6.096l-.031 13.9a6.11 6.11 0 0 0 6.096 6.124l13.9.032a6.11 6.11 0 0 0 6.123-6.097l.032-13.899a6.11 6.11 0 0 0-6.096-6.124Z"/><path fill="url(#aV)" d="M131.16 321.07c-.5 0-.91-.41-.9-.91v-4.98c.01-.5.42-.91.92-.9h4.76c.5.01.91.42.9.92-.01.5-.41.91-.91.9h-3.85v4.06c0 .5-.41.91-.91.9l-.01.01Z"/><path fill="url(#aW)" d="M150.62 328.46c.5 0 .91.41.9.91v4.98c-.01.5-.42.91-.92.9h-4.76a.913.913 0 0 1-.9-.92c.01-.5.41-.91.91-.9h3.85v-4.06c0-.5.41-.91.91-.9l.01-.01Z"/><path fill="url(#aX)" d="m177.471 311.599-13.9-.032a6.11 6.11 0 0 0-6.124 6.096l-.032 13.9a6.11 6.11 0 0 0 6.096 6.124l13.9.032a6.11 6.11 0 0 0 6.124-6.096l.032-13.9a6.11 6.11 0 0 0-6.096-6.124Z"/><path fill="url(#aY)" d="M161.16 321.13c-.5 0-.91-.41-.9-.91v-4.98c.01-.5.42-.91.92-.9h4.76c.5.01.91.42.9.92-.01.5-.41.91-.91.9h-3.85v4.06c0 .5-.41.91-.91.9l-.01.01Z"/><path fill="url(#aZ)" d="M180.62 328.52c.5 0 .91.41.9.91v4.98c-.01.5-.42.91-.92.9h-4.76a.913.913 0 0 1-.9-.92c.01-.5.41-.91.91-.9h3.85v-4.06c0-.5.41-.91.91-.9l.01-.01Z"/><path fill="url(#ba)" d="m207.33 311.666-13.9-.031a6.11 6.11 0 0 0-6.124 6.096l-.031 13.9a6.11 6.11 0 0 0 6.096 6.124l13.9.031a6.11 6.11 0 0 0 6.124-6.096l.031-13.9a6.11 6.11 0 0 0-6.096-6.124Z"/><path fill="url(#bb)" d="M191.02 321.2c-.5 0-.91-.41-.9-.91v-4.98c.01-.5.42-.91.92-.9h4.76c.5.01.91.42.9.92-.01.5-.41.91-.91.9h-3.85v4.06c0 .5-.41.91-.91.9l-.01.01Z"/><path fill="url(#bc)" d="M210.48 328.59c.5 0 .91.41.9.91v4.98c-.01.5-.42.91-.92.9h-4.76a.913.913 0 0 1-.9-.92c0-.5.41-.91.91-.9h3.85v-4.06c0-.5.41-.91.91-.9l.01-.01Z"/><path fill="url(#bd)" d="m237.33 311.745-13.9-.032a6.11 6.11 0 0 0-6.124 6.096l-.031 13.9a6.11 6.11 0 0 0 6.096 6.124l13.9.031a6.11 6.11 0 0 0 6.124-6.096l.031-13.9a6.11 6.11 0 0 0-6.096-6.123Z"/><path fill="url(#be)" d="M221.03 321.27c-.5 0-.91-.41-.9-.91v-4.98c.01-.5.42-.91.92-.9h4.76c.5.01.91.42.9.92-.01.5-.41.91-.91.9h-3.85v4.06c0 .5-.41.91-.91.9l-.01.01Z"/><path fill="url(#bf)" d="M240.49 328.66c.5 0 .91.41.9.91v4.98c-.01.5-.42.91-.92.9h-4.76a.913.913 0 0 1-.9-.92c.01-.5.41-.91.91-.9h3.85v-4.06c0-.5.41-.91.91-.9l.01-.01Z"/><path fill="url(#bg)" d="m267.7 311.803-13.9-.031a6.11 6.11 0 0 0-6.124 6.096l-.031 13.9a6.11 6.11 0 0 0 6.096 6.124l13.9.031a6.108 6.108 0 0 0 6.123-6.096l.032-13.9a6.11 6.11 0 0 0-6.096-6.124Z"/><path fill="url(#bh)" d="M251.4 321.34c-.5 0-.91-.41-.9-.91v-4.98c.01-.5.42-.91.92-.9h4.76c.5.01.91.42.9.92-.01.5-.41.91-.91.9h-3.85v4.06c0 .5-.41.91-.91.9l-.01.01Z"/><path fill="url(#bi)" d="M270.86 328.73c.5 0 .91.41.9.91v4.98c-.01.5-.42.91-.92.9h-4.76a.913.913 0 0 1-.9-.92c.01-.5.41-.91.91-.9h3.85v-4.06c0-.5.41-.91.91-.9l.01-.01Z"/><path fill="url(#bj)" d="m297.71 311.872-13.9-.032a6.11 6.11 0 0 0-6.124 6.096l-.032 13.9a6.11 6.11 0 0 0 6.096 6.124l13.9.032a6.11 6.11 0 0 0 6.124-6.097l.032-13.9a6.11 6.11 0 0 0-6.096-6.123Z"/><path fill="url(#bk)" d="M281.4 321.4c-.5 0-.91-.41-.9-.91v-4.98c.01-.5.42-.91.92-.9h4.76c.5.01.91.42.9.92-.01.5-.41.91-.91.9h-3.85v4.06c0 .5-.41.91-.91.9l-.01.01Z"/><path fill="url(#bl)" d="M300.86 328.79c.5 0 .91.41.9.91v4.98c-.01.5-.42.91-.92.9h-4.76a.913.913 0 0 1-.9-.92c.01-.5.41-.91.91-.9h3.85v-4.06c0-.5.41-.91.91-.9l.01-.01Z"/><path fill="url(#bm)" d="m327.569 311.939-13.9-.031a6.11 6.11 0 0 0-6.124 6.096l-.031 13.9a6.11 6.11 0 0 0 6.096 6.124l13.9.031a6.11 6.11 0 0 0 6.124-6.096l.031-13.9a6.11 6.11 0 0 0-6.096-6.124Z"/><path fill="url(#bn)" d="M311.26 321.47c-.5 0-.91-.41-.9-.91v-4.98c.01-.5.42-.91.92-.9h4.76c.5.01.91.42.9.92-.01.5-.41.91-.91.9h-3.85v4.06c0 .5-.41.91-.91.9l-.01.01Z"/><path fill="url(#bo)" d="M330.72 328.86c.5 0 .91.41.9.91v4.98c-.01.5-.42.91-.92.9h-4.76a.913.913 0 0 1-.9-.92c.01-.5.41-.91.91-.9h3.85v-4.06c0-.5.41-.91.91-.9l.01-.01Z"/><path fill="url(#bp)" d="m357.569 312.017-13.9-.031a6.11 6.11 0 0 0-6.124 6.096l-.031 13.9a6.11 6.11 0 0 0 6.096 6.124l13.9.031a6.11 6.11 0 0 0 6.124-6.096l.031-13.9a6.11 6.11 0 0 0-6.096-6.124Z"/><path fill="url(#bq)" d="M341.27 321.54c-.5 0-.91-.41-.9-.91v-4.98c.01-.5.42-.91.92-.9h4.76c.5.01.91.42.9.92-.01.5-.41.91-.91.9h-3.85v4.06c0 .5-.41.91-.91.9l-.01.01Z"/><path fill="url(#br)" d="M360.73 328.93c.5 0 .91.41.9.91v4.98c-.01.5-.42.91-.92.9h-4.76a.913.913 0 0 1-.9-.92c.01-.5.41-.91.91-.9h3.85v-4.06c0-.5.41-.91.91-.9l.01-.01Z"/><path fill="url(#bs)" d="m387.609 312.076-13.9-.032a6.11 6.11 0 0 0-6.124 6.096l-.032 13.9a6.11 6.11 0 0 0 6.097 6.124l13.9.032a6.11 6.11 0 0 0 6.123-6.097l.032-13.9a6.11 6.11 0 0 0-6.096-6.123Z"/><path fill="url(#bt)" d="M371.31 321.61c-.5 0-.91-.41-.9-.91v-4.98c.01-.5.42-.91.92-.9h4.76c.5.01.91.42.9.92-.01.5-.41.91-.91.9h-3.85v4.06c0 .5-.41.91-.91.9l-.01.01Z"/><path fill="url(#bu)" d="M390.77 329c.5 0 .91.41.9.91v4.98c-.01.5-.42.91-.92.9h-4.76a.913.913 0 0 1-.9-.92c.01-.5.41-.91.91-.9h3.85v-4.06c0-.5.41-.91.91-.9l.01-.01Z"/><path fill="url(#bv)" d="m126.813 341.334-13.9-.032a6.111 6.111 0 0 0-6.124 6.096l-.031 13.9a6.11 6.11 0 0 0 6.096 6.124l13.9.032a6.111 6.111 0 0 0 6.124-6.096l.031-13.9a6.109 6.109 0 0 0-6.096-6.124Z"/><path fill="url(#bw)" d="M110.51 350.87c-.5 0-.91-.41-.9-.91v-4.98c.01-.5.42-.91.92-.9h4.76c.5.01.91.42.9.92-.01.5-.41.91-.91.9h-3.85v4.06c0 .5-.41.91-.91.9l-.01.01Z"/><path fill="url(#bx)" d="M129.97 358.26c.5 0 .91.41.9.91v4.98c-.01.5-.42.91-.92.9h-4.76a.913.913 0 0 1-.9-.92c.01-.5.41-.91.91-.9h3.85v-4.06c0-.5.41-.91.91-.9l.01-.01Z"/><path fill="url(#by)" d="m157.183 341.403-13.9-.032a6.11 6.11 0 0 0-6.124 6.096l-.031 13.9a6.11 6.11 0 0 0 6.096 6.124l13.9.032a6.111 6.111 0 0 0 6.124-6.097l.031-13.9a6.108 6.108 0 0 0-6.096-6.123Z"/><path fill="url(#bz)" d="M140.88 350.93c-.5 0-.91-.41-.9-.91v-4.98c.01-.5.42-.91.92-.9h4.76c.5.01.91.42.9.92 0 .5-.41.91-.91.9h-3.85v4.06c0 .5-.41.91-.91.9l-.01.01Z"/><path fill="url(#bA)" d="M160.34 358.32c.5 0 .91.41.9.91v4.98c-.01.5-.42.91-.92.9h-4.76a.913.913 0 0 1-.9-.92c.01-.5.41-.91.91-.9h3.85v-4.06c0-.5.41-.91.91-.9l.01-.01Z"/><path fill="url(#bB)" d="m187.193 341.471-13.9-.032a6.11 6.11 0 0 0-6.124 6.096l-.032 13.9a6.11 6.11 0 0 0 6.097 6.124l13.9.032a6.11 6.11 0 0 0 6.123-6.096l.032-13.9a6.11 6.11 0 0 0-6.096-6.124Z"/><path fill="url(#bC)" d="M170.88 351c-.5 0-.91-.41-.9-.91v-4.98c.01-.5.42-.91.92-.9h4.76c.5.01.91.42.9.92-.01.5-.41.91-.91.9h-3.85v4.06c0 .5-.41.91-.91.9l-.01.01Z"/><path fill="url(#bD)" d="M190.34 358.39c.5 0 .91.41.9.91v4.98c-.01.5-.42.91-.92.9h-4.76a.913.913 0 0 1-.9-.92c0-.5.41-.91.91-.9h3.85v-4.06c0-.5.41-.91.91-.9l.01-.01Z"/><path fill="url(#bE)" d="m217.052 341.538-13.9-.031a6.11 6.11 0 0 0-6.123 6.096l-.032 13.9a6.11 6.11 0 0 0 6.096 6.124l13.9.031a6.11 6.11 0 0 0 6.124-6.096l.032-13.9a6.111 6.111 0 0 0-6.097-6.124Z"/><path fill="url(#bF)" d="M200.74 351.07c-.5 0-.91-.41-.9-.91v-4.98c.01-.5.42-.91.92-.9h4.76c.5.01.91.42.9.92-.01.5-.41.91-.91.9h-3.85v4.06c0 .5-.41.91-.91.9l-.01.01Z"/><path fill="url(#bG)" d="M220.2 358.46c.5 0 .91.41.9.91v4.98c-.01.5-.42.91-.92.9h-4.76a.913.913 0 0 1-.9-.92c.01-.5.41-.91.91-.9h3.85v-4.06c0-.5.41-.91.91-.9l.01-.01Z"/><path fill="url(#bH)" d="m247.052 341.607-13.9-.032a6.11 6.11 0 0 0-6.124 6.096l-.031 13.9a6.11 6.11 0 0 0 6.096 6.124l13.9.032a6.111 6.111 0 0 0 6.124-6.097l.031-13.9a6.108 6.108 0 0 0-6.096-6.123Z"/><path fill="url(#bI)" d="M230.75 351.14c-.5 0-.91-.41-.9-.91v-4.98c.01-.5.42-.91.92-.9h4.76c.5.01.91.42.9.92-.01.5-.41.91-.91.9h-3.85v4.06c0 .5-.41.91-.91.9l-.01.01Z"/><path fill="url(#bJ)" d="M250.21 358.53c.5 0 .91.41.9.91v4.98c-.01.5-.42.91-.92.9h-4.76a.913.913 0 0 1-.9-.92c.01-.5.41-.91.91-.9h3.85v-4.06c0-.5.41-.91.91-.9l.01-.01Z"/><path fill="url(#bK)" d="m277.422 341.675-13.9-.031a6.11 6.11 0 0 0-6.124 6.096l-.031 13.9a6.11 6.11 0 0 0 6.096 6.124l13.9.031a6.11 6.11 0 0 0 6.124-6.096l.031-13.9a6.11 6.11 0 0 0-6.096-6.124Z"/><path fill="url(#bL)" d="M261.12 351.2c-.5 0-.91-.41-.9-.91v-4.98c.01-.5.42-.91.92-.9h4.76c.5.01.91.42.9.92-.01.5-.41.91-.91.9h-3.85v4.06c0 .5-.41.91-.91.9l-.01.01Z"/><path fill="url(#bM)" d="M280.58 358.59c.5 0 .91.41.9.91v4.98c-.01.5-.42.91-.92.9h-4.76a.913.913 0 0 1-.9-.92c.01-.5.41-.91.91-.9h3.85v-4.06c0-.5.41-.91.91-.9l.01-.01Z"/><path fill="url(#bN)" d="m307.432 341.744-13.9-.032a6.11 6.11 0 0 0-6.124 6.096l-.032 13.9a6.11 6.11 0 0 0 6.097 6.124l13.9.031a6.108 6.108 0 0 0 6.123-6.096l.032-13.9a6.11 6.11 0 0 0-6.096-6.123Z"/><path fill="url(#bO)" d="M291.12 351.27c-.5 0-.91-.41-.9-.91v-4.98c.01-.5.42-.91.92-.9h4.76c.5.01.91.42.9.92-.01.5-.41.91-.91.9h-3.85v4.06c0 .5-.41.91-.91.9l-.01.01Z"/><path fill="url(#bP)" d="M310.58 358.66c.5 0 .91.41.9.91v4.98c-.01.5-.42.91-.92.9h-4.76a.913.913 0 0 1-.9-.92c.01-.5.41-.91.91-.9h3.85v-4.06c0-.5.41-.91.91-.9l.01-.01Z"/><path fill="url(#bQ)" d="m337.292 341.811-13.9-.031a6.11 6.11 0 0 0-6.124 6.096l-.032 13.9a6.111 6.111 0 0 0 6.096 6.124l13.9.031a6.109 6.109 0 0 0 6.124-6.096l.032-13.9a6.111 6.111 0 0 0-6.096-6.124Z"/><path fill="url(#bR)" d="M320.98 351.34c-.5 0-.91-.41-.9-.91v-4.98c.01-.5.42-.91.92-.9h4.76c.5.01.91.42.9.92-.01.5-.41.91-.91.9h-3.85v4.06c0 .5-.41.91-.91.9l-.01.01Z"/><path fill="url(#bS)" d="M340.44 358.73c.5 0 .91.41.9.91v4.98c-.01.5-.42.91-.92.9h-4.76a.913.913 0 0 1-.9-.92c0-.5.41-.91.91-.9h3.85v-4.06c0-.5.41-.91.91-.9l.01-.01Z"/><path fill="url(#bT)" d="m367.291 341.869-13.9-.031a6.108 6.108 0 0 0-6.123 6.096l-.032 13.9a6.11 6.11 0 0 0 6.096 6.124l13.9.031a6.11 6.11 0 0 0 6.124-6.096l.032-13.9a6.111 6.111 0 0 0-6.097-6.124Z"/><path fill="url(#bU)" d="M350.99 351.41c-.5 0-.91-.41-.9-.91v-4.98c.01-.5.42-.91.92-.9h4.76c.5.01.91.42.9.92-.01.5-.41.91-.91.9h-3.85v4.06c0 .5-.41.91-.91.9l-.01.01Z"/><path fill="url(#bV)" d="M370.45 358.8c.5 0 .91.41.9.91v4.98c-.01.5-.42.91-.92.9h-4.76a.913.913 0 0 1-.9-.92c.01-.5.41-.91.91-.9h3.85v-4.06c0-.5.41-.91.91-.9l.01-.01Z"/><path fill="url(#bW)" d="m62.266 371.037-17.59-.04a6.11 6.11 0 0 0-6.124 6.096l-.04 17.59a6.11 6.11 0 0 0 6.096 6.124l17.59.04a6.11 6.11 0 0 0 6.124-6.096l.04-17.59a6.11 6.11 0 0 0-6.096-6.124Z"/><path fill="url(#bX)" d="M42.79 381.91c-.57 0-1.03-.47-1.03-1.04v-5.68c.01-.57.48-1.03 1.05-1.03h5.43c.57.01 1.03.48 1.03 1.05 0 .57-.47 1.03-1.04 1.03h-4.4l-.01 4.64c0 .57-.47 1.03-1.04 1.03h.01Z"/><path fill="url(#bY)" d="M65 390.34c.57 0 1.03.47 1.03 1.04v5.68c-.01.57-.48 1.03-1.05 1.03h-5.43c-.57-.01-1.03-.48-1.03-1.05 0-.57.47-1.03 1.04-1.03h4.4l.01-4.64c0-.57.47-1.03 1.04-1.03H65Z"/><path fill="url(#bZ)" d="m97.486 371.117-17.59-.04a6.11 6.11 0 0 0-6.124 6.096l-.04 17.59a6.11 6.11 0 0 0 6.096 6.124l17.59.04a6.11 6.11 0 0 0 6.124-6.096l.04-17.59a6.111 6.111 0 0 0-6.096-6.124Z"/><path fill="url(#ca)" d="M78.01 381.99c-.57 0-1.03-.47-1.03-1.04v-5.68c.01-.57.48-1.03 1.05-1.03h5.43c.57.01 1.03.48 1.03 1.05 0 .57-.47 1.03-1.04 1.03h-4.4l-.01 4.64c0 .57-.47 1.03-1.04 1.03h.01Z"/><path fill="url(#cb)" d="M100.22 390.42c.57 0 1.03.47 1.03 1.04v5.68c-.01.57-.48 1.03-1.05 1.03h-5.43c-.57-.01-1.03-.48-1.03-1.05 0-.57.47-1.03 1.04-1.03h4.4l.01-4.64c0-.57.47-1.03 1.04-1.03h-.01Z"/><path fill="url(#cc)" d="m132.475 371.197-17.59-.04a6.108 6.108 0 0 0-6.123 6.096l-.04 17.59a6.11 6.11 0 0 0 6.096 6.124l17.59.039a6.11 6.11 0 0 0 6.124-6.096l.039-17.59a6.108 6.108 0 0 0-6.096-6.123Z"/><path fill="url(#cd)" d="M113 382.07c-.57 0-1.03-.47-1.03-1.04v-5.68c.01-.57.48-1.03 1.05-1.03h5.43c.57.01 1.03.48 1.03 1.05 0 .57-.47 1.03-1.04 1.03h-4.4l-.01 4.64c0 .57-.47 1.03-1.04 1.03h.01Z"/><path fill="url(#ce)" d="M135.2 390.5c.57 0 1.03.47 1.03 1.04v5.68c-.01.57-.48 1.03-1.05 1.03h-5.43c-.57-.01-1.03-.48-1.03-1.05 0-.57.47-1.03 1.04-1.03h4.4l.01-4.64c0-.57.47-1.03 1.04-1.03h-.01Z"/><path fill="url(#cf)" d="m313.504 371.607-164.369-.373a6.11 6.11 0 0 0-6.124 6.096l-.04 17.59a6.11 6.11 0 0 0 6.096 6.124l164.37.373a6.11 6.11 0 0 0 6.124-6.096l.04-17.59a6.111 6.111 0 0 0-6.097-6.124Z"/><path fill="url(#cg)" d="M147.23 387.04c-.57 0-1.03-.47-1.03-1.04l.02-10.57c0-.57.47-1.03 1.04-1.03l10.32.02c.57 0 1.03.47 1.03 1.04 0 .57-.47 1.03-1.04 1.03l-9.29-.02-.02 9.54c0 .57-.47 1.03-1.04 1.03h.01Z"/><path fill="url(#ch)" d="M314.78 385.52c.57 0 1.03.47 1.03 1.04l-.02 10.57c0 .57-.47 1.03-1.04 1.03l-10.32-.02c-.57 0-1.03-.47-1.03-1.04 0-.57.47-1.03 1.04-1.03l9.29.02.02-9.54c0-.57.47-1.03 1.04-1.03h-.01Z"/><path fill="url(#ci)" d="m450.247 312.708-46.49-.106a6.11 6.11 0 0 0-6.123 6.096l-.03 13.18a6.11 6.11 0 0 0 6.096 6.124l46.49.106a6.111 6.111 0 0 0 6.124-6.097l.029-13.179a6.109 6.109 0 0 0-6.096-6.124Z"/><path fill="url(#cj)" d="M401.82 324.71c-.57 0-1.02-.4-1.02-.88l.02-7.65c0-.49.46-.88 1.03-.88l8.64.02c.57 0 1.02.4 1.02.88s-.46.88-1.03.88l-7.62-.02-.02 6.77c0 .49-.46.88-1.03.88h.01Z"/><path fill="url(#ck)" d="M452.09 326.39c.57 0 1.02.4 1.02.88l-.02 7.65c0 .49-.46.88-1.03.88l-8.11-.02c-.57 0-1.02-.4-1.02-.88s.46-.88 1.03-.88l7.09.02.02-6.77c0-.49.46-.88 1.03-.88h-.01Z"/><path fill="url(#cl)" d="m450.38 253.998-42.149-.096a6.11 6.11 0 0 0-6.124 6.097l-.035 15.13a6.11 6.11 0 0 0 6.097 6.123l42.149.096a6.11 6.11 0 0 0 6.124-6.096l.035-15.13a6.11 6.11 0 0 0-6.097-6.124Z"/><path fill="url(#cm)" d="M405.98 266.93c-.52 0-.95-.43-.95-.95l.02-8.23c0-.52.43-.95.95-.95l8 .02c.52 0 .95.43.95.95s-.43.95-.95.95l-7.05-.02-.02 7.28c0 .52-.43.95-.95.95Z"/><path fill="url(#cn)" d="M452.54 268.73c.52 0 .95.43.95.95l-.02 8.23c0 .52-.43.95-.95.95l-7.51-.02c-.52 0-.95-.43-.95-.95s.43-.95.95-.95h6.56l.02-7.27c0-.52.43-.95.95-.95v.01Z"/><path fill="url(#co)" d="m450.181 342.067-66.62-.151a6.11 6.11 0 0 0-6.124 6.096l-.034 15.13a6.109 6.109 0 0 0 6.096 6.124l66.62.151a6.11 6.11 0 0 0 6.124-6.096l.034-15.13a6.11 6.11 0 0 0-6.096-6.124Z"/><path fill="url(#cp)" d="M381.81 354.95c-.52 0-.95-.43-.95-.95l.02-8.23c0-.52.43-.95.95-.95l8 .02c.52 0 .95.43.95.95s-.43.95-.95.95l-7.05-.02-.02 7.28c0 .52-.43.95-.95.95Z"/><path fill="url(#cq)" d="M452.34 356.8c.52 0 .95.43.95.95l-.02 8.23c0 .52-.43.95-.95.95l-7.51-.02c-.52 0-.95-.43-.95-.95s.43-.95.95-.95h6.56l.02-7.27c0-.52.43-.95.95-.95v.01Z"/><path fill="url(#cr)" d="m450.315 282.868-29.43-.067a6.11 6.11 0 0 0-6.124 6.096l-.034 15.13a6.11 6.11 0 0 0 6.096 6.124l29.43.067a6.111 6.111 0 0 0 6.124-6.096l.034-15.13a6.11 6.11 0 0 0-6.096-6.124Z"/><path fill="url(#cs)" d="M418.69 293.87c-.53 0-.96-.43-.96-.95v-6.27a.99.99 0 0 1 .98-.95h6.12c.53.01.96.44.96.96s-.43.95-.96.95h-5.16l-.01 5.31c0 .52-.43.95-.96.95h-.01Z"/><path fill="url(#ct)" d="M452.92 299.55c.53 0 .96.43.96.95v6.27a.99.99 0 0 1-.98.95h-5.62a.973.973 0 0 1-.96-.96c0-.52.43-.95.96-.95h4.66l.01-5.32c0-.52.43-.95.96-.95l.01.01Z"/><path fill="url(#cu)" d="m86.711 311.393-42.15-.096a6.11 6.11 0 0 0-6.123 6.096l-.032 13.67a6.11 6.11 0 0 0 6.097 6.124l42.15.096a6.11 6.11 0 0 0 6.123-6.096l.031-13.67a6.11 6.11 0 0 0-6.096-6.124Z"/><path fill="url(#cv)" d="M42.32 323.64c-.52 0-.95-.4-.95-.9l.02-7.79c0-.5.43-.9.95-.9l8 .02c.52 0 .95.4.95.9s-.43.9-.95.9l-7.05-.02-.02 6.9c0 .5-.43.9-.95.9v-.01Z"/><path fill="url(#cw)" d="M88.88 325.35c.52 0 .95.4.95.9l-.02 7.79c0 .5-.43.9-.95.9l-7.51-.02c-.52 0-.95-.4-.95-.9s.43-.9.95-.9h6.56l.02-6.88c0-.5.43-.9.95-.9v.01Z"/><path fill="url(#cx)" d="m73.087 282.502-28.45-.065a6.11 6.11 0 0 0-6.124 6.097l-.031 13.65a6.11 6.11 0 0 0 6.096 6.123l28.45.065a6.11 6.11 0 0 0 6.124-6.096l.03-13.65a6.11 6.11 0 0 0-6.095-6.124Z"/><path fill="url(#cy)" d="M42.18 293.31c-.5 0-.9-.4-.9-.9v-6.32c.02-.5.42-.9.91-.9h6.59c.5.02.9.42.9.91 0 .49-.4.9-.9.9h-5.69l-.01 5.41c0 .5-.4.9-.9.9Z"/><path fill="url(#cz)" d="M75.94 297.43c.5 0 .9.4.9.9l-.02 6.81c0 .5-.4.9-.9.9h-6.13c-.5-.01-.9-.42-.9-.91 0-.49.4-.9.9-.9h5.23l.01-5.9c0-.5.4-.9.9-.9h.01Z"/><path fill="url(#cA)" d="m97.904 341.268-53.41-.121a6.11 6.11 0 0 0-6.124 6.096l-.031 13.67a6.11 6.11 0 0 0 6.096 6.124l53.41.121a6.11 6.11 0 0 0 6.124-6.096l.031-13.67a6.111 6.111 0 0 0-6.096-6.124Z"/><path fill="url(#cB)" d="M42.25 353.49c-.52 0-.95-.4-.95-.9l.02-7.79c0-.5.43-.9.95-.9l8 .02c.52 0 .95.4.95.9s-.43.9-.95.9l-7.05-.02-.02 6.9c0 .5-.43.9-.95.9v-.01Z"/><path fill="url(#cC)" d="M100.55 355.68c.52 0 .95.4.95.9l-.02 7.79c0 .5-.43.9-.95.9l-7.51-.02c-.52 0-.95-.4-.95-.9s.43-.9.95-.9h6.56l.02-6.88c0-.5.43-.9.95-.9v.01Z"/><path fill="url(#cD)" d="m348.004 371.675-17.59-.039a6.11 6.11 0 0 0-6.124 6.096l-.04 17.59a6.11 6.11 0 0 0 6.096 6.123l17.59.04a6.11 6.11 0 0 0 6.124-6.096l.04-17.59a6.11 6.11 0 0 0-6.096-6.124Z"/><path fill="url(#cE)" d="M328.53 382.55c-.57 0-1.03-.47-1.03-1.04v-5.68c.01-.57.48-1.03 1.05-1.03h5.43c.57.01 1.03.48 1.03 1.05 0 .57-.47 1.03-1.04 1.03h-4.4l-.01 4.64c0 .57-.47 1.03-1.04 1.03h.01Z"/><path fill="url(#cF)" d="M350.73 390.99c.57 0 1.03.47 1.03 1.04v5.68c-.01.57-.48 1.03-1.05 1.03h-5.43c-.57-.01-1.03-.48-1.03-1.05 0-.57.47-1.03 1.04-1.03h4.4l.01-4.64c0-.57.47-1.03 1.04-1.03h-.01Z"/><path fill="url(#cG)" d="m382.243 371.763-17.59-.04a6.11 6.11 0 0 0-6.123 6.096l-.04 17.59a6.109 6.109 0 0 0 6.096 6.124l17.59.04a6.11 6.11 0 0 0 6.124-6.096l.04-17.59a6.111 6.111 0 0 0-6.097-6.124Z"/><path fill="url(#cH)" d="M362.77 382.63c-.57 0-1.03-.47-1.03-1.04v-5.68c.01-.57.48-1.03 1.05-1.03h5.43c.57.01 1.03.48 1.03 1.05 0 .57-.47 1.03-1.04 1.03h-4.4l-.01 4.64c0 .57-.47 1.03-1.04 1.03h.01Z"/><path fill="url(#cI)" d="M384.98 391.06c.57 0 1.03.47 1.03 1.04v5.68c-.01.57-.48 1.03-1.05 1.03h-5.43c-.57-.01-1.03-.48-1.03-1.05 0-.57.47-1.03 1.04-1.03h4.4l.01-4.64c0-.57.47-1.03 1.04-1.03h-.01Z"/><path fill="url(#cJ)" d="m416.253 371.84-17.59-.04a6.111 6.111 0 0 0-6.124 6.097l-.04 17.59a6.11 6.11 0 0 0 6.097 6.123l17.59.04a6.108 6.108 0 0 0 6.123-6.096l.04-17.59a6.11 6.11 0 0 0-6.096-6.124Z"/><path fill="url(#cK)" d="M396.77 382.71c-.57 0-1.03-.47-1.03-1.04v-5.68c.01-.57.48-1.03 1.05-1.03h5.43c.57.01 1.03.48 1.03 1.05 0 .57-.47 1.03-1.04 1.03h-4.4l-.01 4.64c0 .57-.47 1.03-1.04 1.03h.01Z"/><path fill="url(#cL)" d="M418.98 391.14c.57 0 1.03.47 1.03 1.04v5.68c-.01.57-.48 1.03-1.05 1.03h-5.43c-.57-.01-1.03-.48-1.03-1.05 0-.57.47-1.03 1.04-1.03h4.4l.01-4.64c0-.57.47-1.03 1.04-1.03h-.01Z"/><path fill="url(#cM)" d="m450.493 371.908-17.59-.04a6.11 6.11 0 0 0-6.124 6.096l-.04 17.59a6.11 6.11 0 0 0 6.096 6.124l17.59.04a6.11 6.11 0 0 0 6.124-6.096l.04-17.59a6.11 6.11 0 0 0-6.096-6.124Z"/><path fill="url(#cN)" d="M431.02 382.78c-.57 0-1.03-.47-1.03-1.04v-5.68c.01-.57.48-1.03 1.05-1.03h5.43c.57.01 1.03.48 1.03 1.05 0 .57-.47 1.03-1.04 1.03h-4.4l-.01 4.64c0 .57-.47 1.03-1.04 1.03h.01Z"/><path fill="url(#cO)" d="M453.23 391.22c.57 0 1.03.47 1.03 1.04v5.68c-.01.57-.48 1.03-1.05 1.03h-5.43c-.57-.01-1.03-.48-1.03-1.05 0-.57.47-1.03 1.04-1.03h4.4l.01-4.64c0-.57.47-1.03 1.04-1.03h-.01Z"/><path fill="url(#cP)" d="m192.128 220.142-12.76-.029a6.111 6.111 0 0 0-6.124 6.096l-.029 12.76a6.11 6.11 0 0 0 6.096 6.124l12.76.029a6.11 6.11 0 0 0 6.124-6.096l.029-12.76a6.11 6.11 0 0 0-6.096-6.124Z"/><path fill="url(#cQ)" d="M176.79 229.26c-.48 0-.87-.39-.86-.87v-4.76c.01-.48.4-.87.88-.86h4.55c.48.01.87.4.86.88-.01.48-.39.87-.87.86h-3.68v3.88c0 .48-.39.87-.87.86l-.01.01Z"/><path fill="url(#cR)" d="M195.4 236.32c.48 0 .87.39.86.87v4.76a.87.87 0 0 1-.88.86h-4.55a.87.87 0 0 1-.86-.88c.01-.48.39-.87.87-.86h3.68v-3.88c0-.48.39-.87.87-.86l.01-.01Z"/><path fill="url(#cS)" d="m366.027 220.537-12.76-.029a6.11 6.11 0 0 0-6.124 6.096l-.029 12.76a6.11 6.11 0 0 0 6.096 6.124l12.76.029a6.111 6.111 0 0 0 6.124-6.096l.029-12.76a6.11 6.11 0 0 0-6.096-6.124Z"/><path fill="url(#cT)" d="M350.69 229.65c-.48 0-.87-.39-.86-.87v-4.76c.01-.48.4-.87.88-.86h4.55c.48.01.87.4.86.88-.01.48-.39.87-.87.86h-3.68v3.88c0 .48-.39.87-.87.86l-.01.01Z"/><path fill="url(#cU)" d="M369.3 236.71c.48 0 .87.39.86.87v4.76a.87.87 0 0 1-.88.86h-4.55a.87.87 0 0 1-.86-.88c.01-.48.39-.87.87-.86h3.68v-3.88c0-.48.39-.87.87-.86l.01-.01Z"/><path fill="url(#cV)" d="m394.716 220.602-12.76-.029a6.11 6.11 0 0 0-6.123 6.096l-.029 12.76a6.11 6.11 0 0 0 6.096 6.124l12.76.029a6.111 6.111 0 0 0 6.124-6.096l.028-12.76a6.11 6.11 0 0 0-6.096-6.124Z"/><path fill="url(#cW)" d="M379.38 229.71c-.48 0-.87-.39-.86-.87v-4.76c.01-.48.4-.87.88-.86h4.55c.48.01.87.4.86.88-.01.48-.39.87-.87.86h-3.68v3.88c0 .48-.39.87-.87.86l-.01.01Z"/><path fill="url(#cX)" d="M397.99 236.78c.48 0 .87.39.86.87v4.76a.87.87 0 0 1-.88.86h-4.55a.87.87 0 0 1-.86-.88c.01-.48.39-.87.87-.86h3.68v-3.88c0-.48.39-.87.87-.86l.01-.01Z"/><path fill="url(#cY)" d="m423.216 220.667-12.76-.029a6.11 6.11 0 0 0-6.124 6.096l-.029 12.76a6.111 6.111 0 0 0 6.096 6.124l12.76.028a6.109 6.109 0 0 0 6.124-6.096l.029-12.76a6.108 6.108 0 0 0-6.096-6.123Z"/><path fill="url(#cZ)" d="M407.88 229.78c-.48 0-.87-.39-.86-.87v-4.76c.01-.48.4-.87.88-.86h4.55c.48.01.87.4.86.88-.01.48-.39.87-.87.86h-3.68v3.88c0 .48-.39.87-.87.86l-.01.01Z"/><path fill="url(#da)" d="M426.49 236.84c.48 0 .87.39.86.87v4.76a.87.87 0 0 1-.88.86h-4.55a.87.87 0 0 1-.86-.88c0-.48.39-.87.87-.86h3.68v-3.88c0-.48.39-.87.87-.86l.01-.01Z"/><path fill="url(#db)" d="m451.436 220.721-12.76-.029a6.11 6.11 0 0 0-6.124 6.096l-.029 12.76a6.11 6.11 0 0 0 6.096 6.124l12.76.029a6.11 6.11 0 0 0 6.124-6.097l.029-12.76a6.11 6.11 0 0 0-6.096-6.123Z"/><path fill="url(#dc)" d="M436.1 229.84c-.48 0-.87-.39-.86-.87v-4.76c.01-.48.4-.87.88-.86h4.55c.48.01.87.4.86.88-.01.48-.39.87-.87.86h-3.68v3.88c0 .48-.39.87-.87.86l-.01.01Z"/><path fill="url(#dd)" d="M454.71 236.91c.48 0 .87.39.86.87v4.76a.87.87 0 0 1-.88.86h-4.55a.87.87 0 0 1-.86-.88c.01-.48.39-.87.87-.86h3.68v-3.88c0-.48.39-.87.87-.86l.01-.01Z"/><path fill="url(#de)" d="m485.686 220.808-12.76-.029a6.11 6.11 0 0 0-6.124 6.096l-.029 12.76a6.11 6.11 0 0 0 6.096 6.124l12.76.029a6.11 6.11 0 0 0 6.124-6.096l.029-12.76a6.111 6.111 0 0 0-6.096-6.124Z"/><path fill="url(#df)" d="M470.35 229.92c-.48 0-.87-.39-.86-.87v-4.76c.01-.48.4-.87.88-.86h4.55c.48.01.87.4.86.88-.01.48-.39.87-.87.86h-3.68v3.88c0 .48-.39.87-.87.86l-.01.01Z"/><path fill="url(#dg)" d="M488.96 236.98c.48 0 .87.39.86.87v4.76a.87.87 0 0 1-.88.86h-4.55a.87.87 0 0 1-.86-.88c.01-.48.39-.87.87-.86h3.68v-3.88c0-.48.39-.87.87-.86l.01-.01Z"/><path fill="url(#dh)" d="m514.066 220.863-12.76-.029a6.109 6.109 0 0 0-6.124 6.096l-.029 12.76a6.11 6.11 0 0 0 6.096 6.124l12.76.029a6.111 6.111 0 0 0 6.124-6.097l.029-12.759a6.11 6.11 0 0 0-6.096-6.124Z"/><path fill="url(#di)" d="M498.73 229.98c-.48 0-.87-.39-.86-.87v-4.76c.01-.48.4-.87.88-.86h4.55c.48.01.87.4.86.88-.01.48-.39.87-.87.86h-3.68v3.88c0 .48-.39.87-.87.86l-.01.01Z"/><path fill="url(#dj)" d="M517.34 237.05c.48 0 .87.39.86.87v4.76a.87.87 0 0 1-.88.86h-4.55a.87.87 0 0 1-.86-.88c.01-.48.39-.87.87-.86h3.68v-3.88c0-.48.39-.87.87-.86l.01-.01Z"/><path fill="url(#dk)" d="m542.925 220.938-12.76-.029a6.111 6.111 0 0 0-6.124 6.096l-.029 12.76a6.11 6.11 0 0 0 6.096 6.124l12.76.029a6.11 6.11 0 0 0 6.124-6.096l.029-12.76a6.11 6.11 0 0 0-6.096-6.124Z"/><path fill="url(#dl)" d="M527.6 230.05c-.48 0-.87-.39-.86-.87v-4.76c.01-.48.4-.87.88-.86h4.55c.48.01.87.4.86.88-.01.48-.39.87-.87.86h-3.68v3.88c0 .48-.39.87-.87.86l-.01.01Z"/><path fill="url(#dm)" d="M546.2 237.11c.48 0 .87.39.86.87v4.76a.87.87 0 0 1-.88.86h-4.55a.87.87 0 0 1-.86-.88c.01-.48.39-.87.87-.86h3.68v-3.88c0-.48.39-.87.87-.86l.01-.01Z"/><path fill="url(#dn)" d="m485.6 254.078-12.76-.029a6.11 6.11 0 0 0-6.124 6.096l-.029 12.76a6.11 6.11 0 0 0 6.097 6.124l12.759.029a6.11 6.11 0 0 0 6.124-6.096l.029-12.76a6.11 6.11 0 0 0-6.096-6.124Z"/><path fill="url(#do)" d="M470.28 263.19c-.48 0-.87-.39-.86-.87v-4.76c.01-.48.4-.87.88-.86h4.55c.48.01.87.4.86.88-.01.48-.39.87-.87.86h-3.68v3.88c0 .48-.39.87-.87.86l-.01.01Z"/><path fill="url(#dp)" d="M488.88 270.25c.48 0 .87.39.86.87v4.76a.87.87 0 0 1-.88.86h-4.55a.87.87 0 0 1-.86-.88c.01-.48.39-.87.87-.86H488v-3.88c0-.48.39-.87.87-.86l.01-.01Z"/><path fill="url(#dq)" d="m513.98 254.142-12.76-.029a6.11 6.11 0 0 0-6.124 6.097l-.029 12.76a6.11 6.11 0 0 0 6.096 6.123l12.76.029a6.11 6.11 0 0 0 6.124-6.096l.029-12.76a6.11 6.11 0 0 0-6.096-6.124Z"/><path fill="url(#dr)" d="M498.65 263.25c-.48 0-.87-.39-.86-.87v-4.76c.01-.48.4-.87.88-.86h4.55c.48.01.87.4.86.88-.01.48-.39.87-.87.86h-3.68v3.88c0 .48-.39.87-.87.86l-.01.01Z"/><path fill="url(#ds)" d="M517.26 270.32c.48 0 .87.39.86.87v4.76a.87.87 0 0 1-.88.86h-4.55a.87.87 0 0 1-.86-.88c.01-.48.39-.87.87-.86h3.68v-3.88c0-.48.39-.87.87-.86l.01-.01Z"/><path fill="url(#dt)" d="m542.85 254.208-12.76-.029a6.11 6.11 0 0 0-6.124 6.096l-.029 12.76a6.11 6.11 0 0 0 6.096 6.124l12.76.029a6.11 6.11 0 0 0 6.124-6.096l.029-12.76a6.11 6.11 0 0 0-6.096-6.124Z"/><path fill="url(#du)" d="M527.52 263.32c-.48 0-.87-.39-.86-.87v-4.76c.01-.48.4-.87.88-.86h4.55c.48.01.87.4.86.88-.01.48-.39.87-.87.86h-3.68v3.88c0 .48-.39.87-.87.86l-.01.01Z"/><path fill="url(#dv)" d="M546.13 270.38c.48 0 .87.39.86.87v4.76a.87.87 0 0 1-.88.86h-4.55a.87.87 0 0 1-.86-.88c.01-.48.39-.87.87-.86h3.68v-3.88c0-.48.39-.87.87-.86l.01-.01Z"/><path fill="url(#dw)" d="m542.784 283.078-12.76-.029a6.11 6.11 0 0 0-6.124 6.096l-.029 12.76a6.111 6.111 0 0 0 6.097 6.124l12.76.029a6.11 6.11 0 0 0 6.123-6.096l.029-12.76a6.109 6.109 0 0 0-6.096-6.124Z"/><path fill="url(#dx)" d="M527.46 292.18c-.48 0-.87-.39-.86-.87v-4.76c.01-.48.4-.87.88-.86h4.55c.48.01.87.4.86.88-.01.48-.39.87-.87.86h-3.68v3.88c0 .48-.39.87-.87.86l-.01.01Z"/><path fill="url(#dy)" d="M546.06 299.25c.48 0 .87.39.86.87v4.76a.87.87 0 0 1-.88.86h-4.55a.87.87 0 0 1-.86-.88c.01-.48.39-.87.87-.86h3.68v-3.88c0-.48.39-.87.87-.86l.01-.01Z"/><path fill="url(#dz)" d="m513.924 283.002-40.649-.092a6.11 6.11 0 0 0-6.124 6.096l-.029 12.76a6.11 6.11 0 0 0 6.096 6.124l40.65.092a6.11 6.11 0 0 0 6.124-6.096l.029-12.76a6.111 6.111 0 0 0-6.097-6.124Z"/><path fill="url(#dA)" d="M470.7 292.06c-.48 0-.87-.39-.86-.87v-4.76c.01-.48.4-.87.88-.86h4.55c.48.01.87.4.86.88-.01.48-.39.87-.87.86h-3.68v3.88c0 .48-.39.87-.87.86l-.01.01Z"/><path fill="url(#dB)" d="M516.71 299.18c.48 0 .87.39.86.87v4.76a.87.87 0 0 1-.88.86h-4.55a.87.87 0 0 1-.86-.88c.01-.48.39-.87.87-.86h3.68v-3.88c0-.48.39-.87.87-.86l.01-.01Z"/><path fill="#E1BBB0" d="M522.84 457.19s-7.93-17.31-13.31-20.52c-5.38-3.21-12.56-7.5-16.87-10.47-4.31-2.98-15.44-8.8-15.44-8.8s-4.43-3.45-10.9-10.97c-3.1-3.6-6.62-6.12-10.9-8.18-2.54-1.22-4.67-2.79-7.28-3.91-1.81-.78-5.67-1.87-6.23-4.1-.36-1.43-1.21-6.81 4.88-8.85 6.09-2.05 21.65 9.27 21.65 9.27l11.61 9.77s-20.86-26.24-25.65-33.15c-4.79-6.9-18.06-29.38-18.12-29.47-1.19-2.01-2.8-3.73-3.78-5.87-1.65-3.58-1.05-10.02 3.97-10.5 1.05-.1 2.16.19 3.27.73.42.2.84.44 1.26.7 2.92 1.84 5.74 4.98 7.45 6.79 0 0 9.71 12.28 12.47 17.18 2.2 3.89 6.03 7.46 8.87 10.91 4.77 5.81 9.34 11.78 13.71 17.9-1.25-2.87-3.35-5.27-4.99-7.94-1.64-2.67-2.84-5.88-2-8.9.62-2.24 2.38-4.12 4.57-4.89 3.54-1.25 7.24.8 9.87 3.11 0 0 3.96 5.61 7.92 13.24l.96-.24s-7.79-10.73-5.3-16.95c1.73-4.32 7.95-5.02 11.62-2.87 3.4 1.99 5.06 6.55 5.96 10.12 0 0 .84 3.34 1.92 3.58 1.08.24-1.3-5.15-1.74-6.88-.43-1.72-2.71-4.7 1.82-8.9 11.1-10.28 23.4 19.8 26.07 26.81 5 13.1 8.37 27.37 18.66 37.6 6.11 6.08 12.83 16.58 13.07 17.53.24.95.49 5.97-10.12 14.24s-28.16 15.24-28.16 15.24-7.28 3.36-10.76-2.36h-.03Z"/><path fill="#D29F93" d="M514.71 442.42s16.85 13.07 41.79 1.18c0 0 14.58-7.48 14.61-14.99 0 0 1.7 1.83.41 4.39-1.29 2.56-3.05 7.51-17.56 16.54-14.51 9.04-19.3 9.89-19.3 9.89s-6.04 3.06-10.78-.9l-9.17-16.11Z"/><path fill="#C38B80" d="M480.04 400.42s-15.68-9.76-18.43-10.59c-2.75-.83-8.61-3.92-14.94-2.83-6.33 1.09-4.77 3.24-4.77 3.24s-1.26-6.15 3.18-8.1c4.44-1.95 7.3-.46 12.99 1.82 5.69 2.29 21.97 16.46 21.97 16.46ZM440.18 323.09s-4.89 2.76-3.56 8.01c1.33 5.25 4.03 14.04 4.03 14.04l-7.53-12.04s-2.23-3.6-.81-8.53 9.55-2.92 7.88-1.48h-.01ZM487.12 354.47s-5.4.3-6.23 5.08c-.82 4.78 2.3 11.11 2.3 11.11s3.12 4.29 1.68 4.66c-1.44.37-5.4-6.11-5.4-6.11s-3.95-4.53-3.24-8.88c.71-4.35 3.09-5.49 4.82-6.42 1.73-.93 5.61-.8 6.07.56ZM502.93 350.23s-4.81.27-5.55 4.53c-.73 4.26 2.05 9.89 2.05 9.89s2.78 3.83 1.5 4.15c-1.28.32-4.81-5.44-4.81-5.44s-3.51-4.04-2.89-7.91c.63-3.87 2.75-4.89 4.29-5.72 1.54-.83 5-.72 5.4.5h.01ZM520.72 348.76s-4.13-.67-5.55 2.8c-1.42 3.47-.12 8.77-.12 8.77s1.64 3.76.49 3.8c-1.14.03-3.06-5.52-3.06-5.52s-2.22-4.08-.96-7.25c1.26-3.16 3.25-3.63 4.71-4.04 1.46-.41 4.37.33 4.49 1.44Z"/><defs><linearGradient id="a" x1="0" x2="600" y1="300" y2="300" gradientUnits="userSpaceOnUse"><stop stop-color="#5BC6B9"/><stop offset="1" stop-color="#BDECE6"/></linearGradient><linearGradient id="b" x1="28" x2="566.47" y1="310.74" y2="310.74" gradientUnits="userSpaceOnUse"><stop stop-color="#077"/><stop offset="1" stop-color="#69BBC2"/></linearGradient><linearGradient id="c" x1="40.719" x2="65.729" y1="232.319" y2="232.319" gradientUnits="userSpaceOnUse"><stop stop-color="#FF7201"/><stop offset="1" stop-color="#FFC30A"/></linearGradient><linearGradient id="d" x1="43.42" x2="49.71" y1="225.71" y2="225.71" gradientUnits="userSpaceOnUse"><stop stop-color="#FF7201"/><stop offset="1" stop-color="#FFC30A"/></linearGradient><linearGradient id="e" x1="57.46" x2="63.76" y1="239.27" y2="239.27" gradientUnits="userSpaceOnUse"><stop stop-color="#FF7201"/><stop offset="1" stop-color="#FFC30A"/></linearGradient><linearGradient id="f" x1="216.978" x2="241.978" y1="232.709" y2="232.709" gradientUnits="userSpaceOnUse"><stop stop-color="#FF7201"/><stop offset="1" stop-color="#FFC30A"/></linearGradient><linearGradient id="g" x1="219.68" x2="225.97" y1="226.11" y2="226.11" gradientUnits="userSpaceOnUse"><stop stop-color="#FF7201"/><stop offset="1" stop-color="#FFC30A"/></linearGradient><linearGradient id="h" x1="233.72" x2="240.02" y1="239.67" y2="239.67" gradientUnits="userSpaceOnUse"><stop stop-color="#FF7201"/><stop offset="1" stop-color="#FFC30A"/></linearGradient><linearGradient id="i" x1="245.668" x2="270.678" y1="232.769" y2="232.769" gradientUnits="userSpaceOnUse"><stop stop-color="#FF7201"/><stop offset="1" stop-color="#FFC30A"/></linearGradient><linearGradient id="j" x1="248.37" x2="254.66" y1="226.17" y2="226.17" gradientUnits="userSpaceOnUse"><stop stop-color="#FF7201"/><stop offset="1" stop-color="#FFC30A"/></linearGradient><linearGradient id="k" x1="262.42" x2="268.71" y1="239.73" y2="239.73" gradientUnits="userSpaceOnUse"><stop stop-color="#FF7201"/><stop offset="1" stop-color="#FFC30A"/></linearGradient><linearGradient id="l" x1="274.158" x2="299.158" y1="232.839" y2="232.839" gradientUnits="userSpaceOnUse"><stop stop-color="#FF7201"/><stop offset="1" stop-color="#FFC30A"/></linearGradient><linearGradient id="m" x1="276.87" x2="283.16" y1="226.24" y2="226.24" gradientUnits="userSpaceOnUse"><stop stop-color="#FF7201"/><stop offset="1" stop-color="#FFC30A"/></linearGradient><linearGradient id="n" x1="290.91" x2="297.21" y1="239.8" y2="239.8" gradientUnits="userSpaceOnUse"><stop stop-color="#FF7201"/><stop offset="1" stop-color="#FFC30A"/></linearGradient><linearGradient id="o" x1="302.378" x2="327.388" y1="232.899" y2="232.899" gradientUnits="userSpaceOnUse"><stop stop-color="#FF7201"/><stop offset="1" stop-color="#FFC30A"/></linearGradient><linearGradient id="p" x1="305.09" x2="311.38" y1="226.3" y2="226.3" gradientUnits="userSpaceOnUse"><stop stop-color="#FF7201"/><stop offset="1" stop-color="#FFC30A"/></linearGradient><linearGradient id="q" x1="319.13" x2="325.43" y1="239.86" y2="239.86" gradientUnits="userSpaceOnUse"><stop stop-color="#FF7201"/><stop offset="1" stop-color="#FFC30A"/></linearGradient><linearGradient id="r" x1="87.809" x2="112.819" y1="232.419" y2="232.419" gradientUnits="userSpaceOnUse"><stop stop-color="#86CFBE"/><stop offset="1" stop-color="#56A5A3"/></linearGradient><linearGradient id="s" x1="90.51" x2="96.8" y1="225.82" y2="225.82" gradientUnits="userSpaceOnUse"><stop stop-color="#86CFBE"/><stop offset="1" stop-color="#56A5A3"/></linearGradient><linearGradient id="t" x1="104.56" x2="110.85" y1="239.38" y2="239.38" gradientUnits="userSpaceOnUse"><stop stop-color="#86CFBE"/><stop offset="1" stop-color="#56A5A3"/></linearGradient><linearGradient id="u" x1="116.499" x2="141.509" y1="232.489" y2="232.489" gradientUnits="userSpaceOnUse"><stop stop-color="#86CFBE"/><stop offset="1" stop-color="#56A5A3"/></linearGradient><linearGradient id="v" x1="119.2" x2="125.5" y1="225.88" y2="225.88" gradientUnits="userSpaceOnUse"><stop stop-color="#86CFBE"/><stop offset="1" stop-color="#56A5A3"/></linearGradient><linearGradient id="w" x1="133.25" x2="139.54" y1="239.44" y2="239.44" gradientUnits="userSpaceOnUse"><stop stop-color="#86CFBE"/><stop offset="1" stop-color="#56A5A3"/></linearGradient><linearGradient id="x" x1="38.789" x2="64.949" y1="266.639" y2="266.639" gradientUnits="userSpaceOnUse"><stop stop-color="#5BC6B9"/><stop offset="1" stop-color="#BDECE6"/></linearGradient><linearGradient id="y" x1="41.63" x2="48.21" y1="259.74" y2="259.74" gradientUnits="userSpaceOnUse"><stop stop-color="#5BC6B9"/><stop offset="1" stop-color="#BDECE6"/></linearGradient><linearGradient id="z" x1="56.32" x2="62.9" y1="273.92" y2="273.92" gradientUnits="userSpaceOnUse"><stop stop-color="#5BC6B9"/><stop offset="1" stop-color="#BDECE6"/></linearGradient><linearGradient id="A" x1="68.799" x2="94.949" y1="266.709" y2="266.709" gradientUnits="userSpaceOnUse"><stop stop-color="#5BC6B9"/><stop offset="1" stop-color="#BDECE6"/></linearGradient><linearGradient id="B" x1="71.63" x2="78.22" y1="259.81" y2="259.81" gradientUnits="userSpaceOnUse"><stop stop-color="#5BC6B9"/><stop offset="1" stop-color="#BDECE6"/></linearGradient><linearGradient id="C" x1="86.32" x2="92.9" y1="273.98" y2="273.98" gradientUnits="userSpaceOnUse"><stop stop-color="#5BC6B9"/><stop offset="1" stop-color="#BDECE6"/></linearGradient><linearGradient id="D" x1="99.169" x2="125.319" y1="266.779" y2="266.779" gradientUnits="userSpaceOnUse"><stop stop-color="#5BC6B9"/><stop offset="1" stop-color="#BDECE6"/></linearGradient><linearGradient id="E" x1="102" x2="108.59" y1="259.87" y2="259.87" gradientUnits="userSpaceOnUse"><stop stop-color="#5BC6B9"/><stop offset="1" stop-color="#BDECE6"/></linearGradient><linearGradient id="F" x1="116.69" x2="123.27" y1="274.05" y2="274.05" gradientUnits="userSpaceOnUse"><stop stop-color="#5BC6B9"/><stop offset="1" stop-color="#BDECE6"/></linearGradient><linearGradient id="G" x1="129.179" x2="155.329" y1="266.849" y2="266.849" gradientUnits="userSpaceOnUse"><stop stop-color="#5BC6B9"/><stop offset="1" stop-color="#BDECE6"/></linearGradient><linearGradient id="H" x1="132.01" x2="138.59" y1="259.94" y2="259.94" gradientUnits="userSpaceOnUse"><stop stop-color="#5BC6B9"/><stop offset="1" stop-color="#BDECE6"/></linearGradient><linearGradient id="I" x1="146.7" x2="153.28" y1="274.12" y2="274.12" gradientUnits="userSpaceOnUse"><stop stop-color="#5BC6B9"/><stop offset="1" stop-color="#BDECE6"/></linearGradient><linearGradient id="J" x1="159.029" x2="185.189" y1="266.909" y2="266.909" gradientUnits="userSpaceOnUse"><stop stop-color="#5BC6B9"/><stop offset="1" stop-color="#BDECE6"/></linearGradient><linearGradient id="K" x1="161.87" x2="168.45" y1="260.01" y2="260.01" gradientUnits="userSpaceOnUse"><stop stop-color="#5BC6B9"/><stop offset="1" stop-color="#BDECE6"/></linearGradient><linearGradient id="L" x1="176.56" x2="183.14" y1="274.19" y2="274.19" gradientUnits="userSpaceOnUse"><stop stop-color="#5BC6B9"/><stop offset="1" stop-color="#BDECE6"/></linearGradient><linearGradient id="M" x1="189.038" x2="215.188" y1="266.979" y2="266.979" gradientUnits="userSpaceOnUse"><stop stop-color="#5BC6B9"/><stop offset="1" stop-color="#BDECE6"/></linearGradient><linearGradient id="N" x1="191.88" x2="198.46" y1="260.08" y2="260.08" gradientUnits="userSpaceOnUse"><stop stop-color="#5BC6B9"/><stop offset="1" stop-color="#BDECE6"/></linearGradient><linearGradient id="O" x1="206.56" x2="213.14" y1="274.25" y2="274.25" gradientUnits="userSpaceOnUse"><stop stop-color="#5BC6B9"/><stop offset="1" stop-color="#BDECE6"/></linearGradient><linearGradient id="P" x1="219.408" x2="245.558" y1="267.049" y2="267.049" gradientUnits="userSpaceOnUse"><stop stop-color="#5BC6B9"/><stop offset="1" stop-color="#BDECE6"/></linearGradient><linearGradient id="Q" x1="222.25" x2="228.83" y1="260.14" y2="260.14" gradientUnits="userSpaceOnUse"><stop stop-color="#5BC6B9"/><stop offset="1" stop-color="#BDECE6"/></linearGradient><linearGradient id="R" x1="236.93" x2="243.51" y1="274.32" y2="274.32" gradientUnits="userSpaceOnUse"><stop stop-color="#5BC6B9"/><stop offset="1" stop-color="#BDECE6"/></linearGradient><linearGradient id="S" x1="249.418" x2="275.568" y1="267.109" y2="267.109" gradientUnits="userSpaceOnUse"><stop stop-color="#5BC6B9"/><stop offset="1" stop-color="#BDECE6"/></linearGradient><linearGradient id="T" x1="252.25" x2="258.83" y1="260.21" y2="260.21" gradientUnits="userSpaceOnUse"><stop stop-color="#5BC6B9"/><stop offset="1" stop-color="#BDECE6"/></linearGradient><linearGradient id="U" x1="266.94" x2="273.52" y1="274.39" y2="274.39" gradientUnits="userSpaceOnUse"><stop stop-color="#5BC6B9"/><stop offset="1" stop-color="#BDECE6"/></linearGradient><linearGradient id="V" x1="279.268" x2="305.428" y1="267.179" y2="267.179" gradientUnits="userSpaceOnUse"><stop stop-color="#5BC6B9"/><stop offset="1" stop-color="#BDECE6"/></linearGradient><linearGradient id="W" x1="282.11" x2="288.69" y1="260.28" y2="260.28" gradientUnits="userSpaceOnUse"><stop stop-color="#5BC6B9"/><stop offset="1" stop-color="#BDECE6"/></linearGradient><linearGradient id="X" x1="296.8" x2="303.38" y1="274.46" y2="274.46" gradientUnits="userSpaceOnUse"><stop stop-color="#5BC6B9"/><stop offset="1" stop-color="#BDECE6"/></linearGradient><linearGradient id="Y" x1="309.278" x2="335.428" y1="267.249" y2="267.249" gradientUnits="userSpaceOnUse"><stop stop-color="#5BC6B9"/><stop offset="1" stop-color="#BDECE6"/></linearGradient><linearGradient id="Z" x1="312.12" x2="318.7" y1="260.35" y2="260.35" gradientUnits="userSpaceOnUse"><stop stop-color="#5BC6B9"/><stop offset="1" stop-color="#BDECE6"/></linearGradient><linearGradient id="aa" x1="326.8" x2="333.38" y1="274.53" y2="274.53" gradientUnits="userSpaceOnUse"><stop stop-color="#5BC6B9"/><stop offset="1" stop-color="#BDECE6"/></linearGradient><linearGradient id="ab" x1="339.648" x2="365.798" y1="267.319" y2="267.319" gradientUnits="userSpaceOnUse"><stop stop-color="#5BC6B9"/><stop offset="1" stop-color="#BDECE6"/></linearGradient><linearGradient id="ac" x1="342.49" x2="349.07" y1="260.42" y2="260.42" gradientUnits="userSpaceOnUse"><stop stop-color="#5BC6B9"/><stop offset="1" stop-color="#BDECE6"/></linearGradient><linearGradient id="ad" x1="357.17" x2="363.75" y1="274.59" y2="274.59" gradientUnits="userSpaceOnUse"><stop stop-color="#5BC6B9"/><stop offset="1" stop-color="#BDECE6"/></linearGradient><linearGradient id="ae" x1="369.658" x2="395.808" y1="267.379" y2="267.379" gradientUnits="userSpaceOnUse"><stop stop-color="#5BC6B9"/><stop offset="1" stop-color="#BDECE6"/></linearGradient><linearGradient id="af" x1="372.49" x2="379.07" y1="260.48" y2="260.48" gradientUnits="userSpaceOnUse"><stop stop-color="#5BC6B9"/><stop offset="1" stop-color="#BDECE6"/></linearGradient><linearGradient id="ag" x1="387.18" x2="393.76" y1="274.66" y2="274.66" gradientUnits="userSpaceOnUse"><stop stop-color="#5BC6B9"/><stop offset="1" stop-color="#BDECE6"/></linearGradient><linearGradient id="ah" x1="83.409" x2="109.559" y1="295.609" y2="295.609" gradientUnits="userSpaceOnUse"><stop stop-color="#5BC6B9"/><stop offset="1" stop-color="#BDECE6"/></linearGradient><linearGradient id="ai" x1="86.25" x2="92.83" y1="288.71" y2="288.71" gradientUnits="userSpaceOnUse"><stop stop-color="#5BC6B9"/><stop offset="1" stop-color="#BDECE6"/></linearGradient><linearGradient id="aj" x1="100.94" x2="107.52" y1="302.88" y2="302.88" gradientUnits="userSpaceOnUse"><stop stop-color="#5BC6B9"/><stop offset="1" stop-color="#BDECE6"/></linearGradient><linearGradient id="ak" x1="113.779" x2="139.929" y1="295.679" y2="295.679" gradientUnits="userSpaceOnUse"><stop stop-color="#5BC6B9"/><stop offset="1" stop-color="#BDECE6"/></linearGradient><linearGradient id="al" x1="116.62" x2="123.2" y1="288.77" y2="288.77" gradientUnits="userSpaceOnUse"><stop stop-color="#5BC6B9"/><stop offset="1" stop-color="#BDECE6"/></linearGradient><linearGradient id="am" x1="131.31" x2="137.89" y1="302.95" y2="302.95" gradientUnits="userSpaceOnUse"><stop stop-color="#5BC6B9"/><stop offset="1" stop-color="#BDECE6"/></linearGradient><linearGradient id="an" x1="143.789" x2="169.939" y1="295.739" y2="295.739" gradientUnits="userSpaceOnUse"><stop stop-color="#5BC6B9"/><stop offset="1" stop-color="#BDECE6"/></linearGradient><linearGradient id="ao" x1="146.62" x2="153.21" y1="288.84" y2="288.84" gradientUnits="userSpaceOnUse"><stop stop-color="#5BC6B9"/><stop offset="1" stop-color="#BDECE6"/></linearGradient><linearGradient id="ap" x1="161.31" x2="167.89" y1="303.02" y2="303.02" gradientUnits="userSpaceOnUse"><stop stop-color="#5BC6B9"/><stop offset="1" stop-color="#BDECE6"/></linearGradient><linearGradient id="aq" x1="173.649" x2="199.799" y1="295.819" y2="295.819" gradientUnits="userSpaceOnUse"><stop stop-color="#5BC6B9"/><stop offset="1" stop-color="#BDECE6"/></linearGradient><linearGradient id="ar" x1="176.48" x2="183.06" y1="288.91" y2="288.91" gradientUnits="userSpaceOnUse"><stop stop-color="#5BC6B9"/><stop offset="1" stop-color="#BDECE6"/></linearGradient><linearGradient id="as" x1="191.17" x2="197.75" y1="303.09" y2="303.09" gradientUnits="userSpaceOnUse"><stop stop-color="#5BC6B9"/><stop offset="1" stop-color="#BDECE6"/></linearGradient><linearGradient id="at" x1="203.649" x2="229.809" y1="295.879" y2="295.879" gradientUnits="userSpaceOnUse"><stop stop-color="#5BC6B9"/><stop offset="1" stop-color="#BDECE6"/></linearGradient><linearGradient id="au" x1="206.49" x2="213.07" y1="288.98" y2="288.98" gradientUnits="userSpaceOnUse"><stop stop-color="#5BC6B9"/><stop offset="1" stop-color="#BDECE6"/></linearGradient><linearGradient id="av" x1="221.18" x2="227.76" y1="303.15" y2="303.15" gradientUnits="userSpaceOnUse"><stop stop-color="#5BC6B9"/><stop offset="1" stop-color="#BDECE6"/></linearGradient><linearGradient id="aw" x1="234.018" x2="260.178" y1="295.949" y2="295.949" gradientUnits="userSpaceOnUse"><stop stop-color="#5BC6B9"/><stop offset="1" stop-color="#BDECE6"/></linearGradient><linearGradient id="ax" x1="236.86" x2="243.44" y1="289.04" y2="289.04" gradientUnits="userSpaceOnUse"><stop stop-color="#5BC6B9"/><stop offset="1" stop-color="#BDECE6"/></linearGradient><linearGradient id="ay" x1="251.55" x2="258.13" y1="303.22" y2="303.22" gradientUnits="userSpaceOnUse"><stop stop-color="#5BC6B9"/><stop offset="1" stop-color="#BDECE6"/></linearGradient><linearGradient id="az" x1="264.028" x2="290.178" y1="296.009" y2="296.009" gradientUnits="userSpaceOnUse"><stop stop-color="#5BC6B9"/><stop offset="1" stop-color="#BDECE6"/></linearGradient><linearGradient id="aA" x1="266.86" x2="273.45" y1="289.11" y2="289.11" gradientUnits="userSpaceOnUse"><stop stop-color="#5BC6B9"/><stop offset="1" stop-color="#BDECE6"/></linearGradient><linearGradient id="aB" x1="281.55" x2="288.13" y1="303.29" y2="303.29" gradientUnits="userSpaceOnUse"><stop stop-color="#5BC6B9"/><stop offset="1" stop-color="#BDECE6"/></linearGradient><linearGradient id="aC" x1="293.888" x2="320.038" y1="296.079" y2="296.079" gradientUnits="userSpaceOnUse"><stop stop-color="#5BC6B9"/><stop offset="1" stop-color="#BDECE6"/></linearGradient><linearGradient id="aD" x1="296.72" x2="303.3" y1="289.18" y2="289.18" gradientUnits="userSpaceOnUse"><stop stop-color="#5BC6B9"/><stop offset="1" stop-color="#BDECE6"/></linearGradient><linearGradient id="aE" x1="311.41" x2="317.99" y1="303.36" y2="303.36" gradientUnits="userSpaceOnUse"><stop stop-color="#5BC6B9"/><stop offset="1" stop-color="#BDECE6"/></linearGradient><linearGradient id="aF" x1="323.888" x2="350.048" y1="296.149" y2="296.149" gradientUnits="userSpaceOnUse"><stop stop-color="#5BC6B9"/><stop offset="1" stop-color="#BDECE6"/></linearGradient><linearGradient id="aG" x1="326.73" x2="333.31" y1="289.25" y2="289.25" gradientUnits="userSpaceOnUse"><stop stop-color="#5BC6B9"/><stop offset="1" stop-color="#BDECE6"/></linearGradient><linearGradient id="aH" x1="341.42" x2="348" y1="303.43" y2="303.43" gradientUnits="userSpaceOnUse"><stop stop-color="#5BC6B9"/><stop offset="1" stop-color="#BDECE6"/></linearGradient><linearGradient id="aI" x1="384.268" x2="410.418" y1="296.279" y2="296.279" gradientUnits="userSpaceOnUse"><stop stop-color="#5BC6B9"/><stop offset="1" stop-color="#BDECE6"/></linearGradient><linearGradient id="aJ" x1="387.1" x2="393.69" y1="289.38" y2="289.38" gradientUnits="userSpaceOnUse"><stop stop-color="#5BC6B9"/><stop offset="1" stop-color="#BDECE6"/></linearGradient><linearGradient id="aK" x1="401.79" x2="408.37" y1="303.56" y2="303.56" gradientUnits="userSpaceOnUse"><stop stop-color="#5BC6B9"/><stop offset="1" stop-color="#BDECE6"/></linearGradient><linearGradient id="aL" x1="353.928" x2="380.088" y1="296.219" y2="296.219" gradientUnits="userSpaceOnUse"><stop stop-color="#5BC6B9"/><stop offset="1" stop-color="#BDECE6"/></linearGradient><linearGradient id="aM" x1="356.77" x2="363.35" y1="289.31" y2="289.31" gradientUnits="userSpaceOnUse"><stop stop-color="#5BC6B9"/><stop offset="1" stop-color="#BDECE6"/></linearGradient><linearGradient id="aN" x1="371.46" x2="378.04" y1="303.49" y2="303.49" gradientUnits="userSpaceOnUse"><stop stop-color="#5BC6B9"/><stop offset="1" stop-color="#BDECE6"/></linearGradient><linearGradient id="aO" x1="144.999" x2="170.009" y1="232.549" y2="232.549" gradientUnits="userSpaceOnUse"><stop stop-color="#86CFBE"/><stop offset="1" stop-color="#56A5A3"/></linearGradient><linearGradient id="aP" x1="147.7" x2="153.99" y1="225.95" y2="225.95" gradientUnits="userSpaceOnUse"><stop stop-color="#86CFBE"/><stop offset="1" stop-color="#56A5A3"/></linearGradient><linearGradient id="aQ" x1="161.74" x2="168.04" y1="239.5" y2="239.5" gradientUnits="userSpaceOnUse"><stop stop-color="#86CFBE"/><stop offset="1" stop-color="#56A5A3"/></linearGradient><linearGradient id="aR" x1="97.049" x2="123.199" y1="324.508" y2="324.508" gradientUnits="userSpaceOnUse"><stop stop-color="#5BC6B9"/><stop offset="1" stop-color="#BDECE6"/></linearGradient><linearGradient id="aS" x1="99.88" x2="106.46" y1="317.6" y2="317.6" gradientUnits="userSpaceOnUse"><stop stop-color="#5BC6B9"/><stop offset="1" stop-color="#BDECE6"/></linearGradient><linearGradient id="aT" x1="114.57" x2="121.15" y1="331.78" y2="331.78" gradientUnits="userSpaceOnUse"><stop stop-color="#5BC6B9"/><stop offset="1" stop-color="#BDECE6"/></linearGradient><linearGradient id="aU" x1="127.419" x2="153.569" y1="324.568" y2="324.568" gradientUnits="userSpaceOnUse"><stop stop-color="#5BC6B9"/><stop offset="1" stop-color="#BDECE6"/></linearGradient><linearGradient id="aV" x1="130.25" x2="136.83" y1="317.67" y2="317.67" gradientUnits="userSpaceOnUse"><stop stop-color="#5BC6B9"/><stop offset="1" stop-color="#BDECE6"/></linearGradient><linearGradient id="aW" x1="144.94" x2="151.52" y1="331.85" y2="331.85" gradientUnits="userSpaceOnUse"><stop stop-color="#5BC6B9"/><stop offset="1" stop-color="#BDECE6"/></linearGradient><linearGradient id="aX" x1="157.419" x2="183.579" y1="324.638" y2="324.638" gradientUnits="userSpaceOnUse"><stop stop-color="#5BC6B9"/><stop offset="1" stop-color="#BDECE6"/></linearGradient><linearGradient id="aY" x1="160.26" x2="166.84" y1="317.74" y2="317.74" gradientUnits="userSpaceOnUse"><stop stop-color="#5BC6B9"/><stop offset="1" stop-color="#BDECE6"/></linearGradient><linearGradient id="aZ" x1="174.95" x2="181.53" y1="331.92" y2="331.92" gradientUnits="userSpaceOnUse"><stop stop-color="#5BC6B9"/><stop offset="1" stop-color="#BDECE6"/></linearGradient><linearGradient id="ba" x1="187.278" x2="213.428" y1="324.708" y2="324.708" gradientUnits="userSpaceOnUse"><stop stop-color="#5BC6B9"/><stop offset="1" stop-color="#BDECE6"/></linearGradient><linearGradient id="bb" x1="190.12" x2="196.7" y1="317.81" y2="317.81" gradientUnits="userSpaceOnUse"><stop stop-color="#5BC6B9"/><stop offset="1" stop-color="#BDECE6"/></linearGradient><linearGradient id="bc" x1="204.8" x2="211.39" y1="331.99" y2="331.99" gradientUnits="userSpaceOnUse"><stop stop-color="#5BC6B9"/><stop offset="1" stop-color="#BDECE6"/></linearGradient><linearGradient id="bd" x1="217.288" x2="243.438" y1="324.778" y2="324.778" gradientUnits="userSpaceOnUse"><stop stop-color="#5BC6B9"/><stop offset="1" stop-color="#BDECE6"/></linearGradient><linearGradient id="be" x1="220.12" x2="226.7" y1="317.87" y2="317.87" gradientUnits="userSpaceOnUse"><stop stop-color="#5BC6B9"/><stop offset="1" stop-color="#BDECE6"/></linearGradient><linearGradient id="bf" x1="234.81" x2="241.39" y1="332.05" y2="332.05" gradientUnits="userSpaceOnUse"><stop stop-color="#5BC6B9"/><stop offset="1" stop-color="#BDECE6"/></linearGradient><linearGradient id="bg" x1="247.658" x2="273.808" y1="324.838" y2="324.838" gradientUnits="userSpaceOnUse"><stop stop-color="#5BC6B9"/><stop offset="1" stop-color="#BDECE6"/></linearGradient><linearGradient id="bh" x1="250.49" x2="257.07" y1="317.94" y2="317.94" gradientUnits="userSpaceOnUse"><stop stop-color="#5BC6B9"/><stop offset="1" stop-color="#BDECE6"/></linearGradient><linearGradient id="bi" x1="265.18" x2="271.76" y1="332.12" y2="332.12" gradientUnits="userSpaceOnUse"><stop stop-color="#5BC6B9"/><stop offset="1" stop-color="#BDECE6"/></linearGradient><linearGradient id="bj" x1="277.658" x2="303.818" y1="324.908" y2="324.908" gradientUnits="userSpaceOnUse"><stop stop-color="#5BC6B9"/><stop offset="1" stop-color="#BDECE6"/></linearGradient><linearGradient id="bk" x1="280.5" x2="287.08" y1="318.01" y2="318.01" gradientUnits="userSpaceOnUse"><stop stop-color="#5BC6B9"/><stop offset="1" stop-color="#BDECE6"/></linearGradient><linearGradient id="bl" x1="295.19" x2="301.77" y1="332.19" y2="332.19" gradientUnits="userSpaceOnUse"><stop stop-color="#5BC6B9"/><stop offset="1" stop-color="#BDECE6"/></linearGradient><linearGradient id="bm" x1="307.518" x2="333.668" y1="324.978" y2="324.978" gradientUnits="userSpaceOnUse"><stop stop-color="#5BC6B9"/><stop offset="1" stop-color="#BDECE6"/></linearGradient><linearGradient id="bn" x1="310.36" x2="316.94" y1="318.08" y2="318.08" gradientUnits="userSpaceOnUse"><stop stop-color="#5BC6B9"/><stop offset="1" stop-color="#BDECE6"/></linearGradient><linearGradient id="bo" x1="325.05" x2="331.63" y1="332.26" y2="332.26" gradientUnits="userSpaceOnUse"><stop stop-color="#5BC6B9"/><stop offset="1" stop-color="#BDECE6"/></linearGradient><linearGradient id="bp" x1="337.528" x2="363.678" y1="325.048" y2="325.048" gradientUnits="userSpaceOnUse"><stop stop-color="#5BC6B9"/><stop offset="1" stop-color="#BDECE6"/></linearGradient><linearGradient id="bq" x1="340.36" x2="346.94" y1="318.14" y2="318.14" gradientUnits="userSpaceOnUse"><stop stop-color="#5BC6B9"/><stop offset="1" stop-color="#BDECE6"/></linearGradient><linearGradient id="br" x1="355.05" x2="361.63" y1="332.32" y2="332.32" gradientUnits="userSpaceOnUse"><stop stop-color="#5BC6B9"/><stop offset="1" stop-color="#BDECE6"/></linearGradient><linearGradient id="bs" x1="367.567" x2="393.718" y1="325.108" y2="325.108" gradientUnits="userSpaceOnUse"><stop stop-color="#5BC6B9"/><stop offset="1" stop-color="#BDECE6"/></linearGradient><linearGradient id="bt" x1="370.4" x2="376.99" y1="318.21" y2="318.21" gradientUnits="userSpaceOnUse"><stop stop-color="#5BC6B9"/><stop offset="1" stop-color="#BDECE6"/></linearGradient><linearGradient id="bu" x1="385.09" x2="391.67" y1="332.39" y2="332.39" gradientUnits="userSpaceOnUse"><stop stop-color="#5BC6B9"/><stop offset="1" stop-color="#BDECE6"/></linearGradient><linearGradient id="bv" x1="106.769" x2="132.919" y1="354.378" y2="354.378" gradientUnits="userSpaceOnUse"><stop stop-color="#5BC6B9"/><stop offset="1" stop-color="#BDECE6"/></linearGradient><linearGradient id="bw" x1="109.6" x2="116.18" y1="347.47" y2="347.47" gradientUnits="userSpaceOnUse"><stop stop-color="#5BC6B9"/><stop offset="1" stop-color="#BDECE6"/></linearGradient><linearGradient id="bx" x1="124.29" x2="130.87" y1="361.65" y2="361.65" gradientUnits="userSpaceOnUse"><stop stop-color="#5BC6B9"/><stop offset="1" stop-color="#BDECE6"/></linearGradient><linearGradient id="by" x1="137.139" x2="163.289" y1="354.438" y2="354.438" gradientUnits="userSpaceOnUse"><stop stop-color="#5BC6B9"/><stop offset="1" stop-color="#BDECE6"/></linearGradient><linearGradient id="bz" x1="139.97" x2="146.55" y1="347.54" y2="347.54" gradientUnits="userSpaceOnUse"><stop stop-color="#5BC6B9"/><stop offset="1" stop-color="#BDECE6"/></linearGradient><linearGradient id="bA" x1="154.66" x2="161.24" y1="361.72" y2="361.72" gradientUnits="userSpaceOnUse"><stop stop-color="#5BC6B9"/><stop offset="1" stop-color="#BDECE6"/></linearGradient><linearGradient id="bB" x1="167.139" x2="193.289" y1="354.508" y2="354.508" gradientUnits="userSpaceOnUse"><stop stop-color="#5BC6B9"/><stop offset="1" stop-color="#BDECE6"/></linearGradient><linearGradient id="bC" x1="169.98" x2="176.56" y1="347.61" y2="347.61" gradientUnits="userSpaceOnUse"><stop stop-color="#5BC6B9"/><stop offset="1" stop-color="#BDECE6"/></linearGradient><linearGradient id="bD" x1="184.66" x2="191.25" y1="361.79" y2="361.79" gradientUnits="userSpaceOnUse"><stop stop-color="#5BC6B9"/><stop offset="1" stop-color="#BDECE6"/></linearGradient><linearGradient id="bE" x1="196.998" x2="223.148" y1="354.578" y2="354.578" gradientUnits="userSpaceOnUse"><stop stop-color="#5BC6B9"/><stop offset="1" stop-color="#BDECE6"/></linearGradient><linearGradient id="bF" x1="199.84" x2="206.42" y1="347.67" y2="347.67" gradientUnits="userSpaceOnUse"><stop stop-color="#5BC6B9"/><stop offset="1" stop-color="#BDECE6"/></linearGradient><linearGradient id="bG" x1="214.52" x2="221.1" y1="361.85" y2="361.85" gradientUnits="userSpaceOnUse"><stop stop-color="#5BC6B9"/><stop offset="1" stop-color="#BDECE6"/></linearGradient><linearGradient id="bH" x1="227.008" x2="253.158" y1="354.648" y2="354.648" gradientUnits="userSpaceOnUse"><stop stop-color="#5BC6B9"/><stop offset="1" stop-color="#BDECE6"/></linearGradient><linearGradient id="bI" x1="229.84" x2="236.42" y1="347.74" y2="347.74" gradientUnits="userSpaceOnUse"><stop stop-color="#5BC6B9"/><stop offset="1" stop-color="#BDECE6"/></linearGradient><linearGradient id="bJ" x1="244.53" x2="251.11" y1="361.92" y2="361.92" gradientUnits="userSpaceOnUse"><stop stop-color="#5BC6B9"/><stop offset="1" stop-color="#BDECE6"/></linearGradient><linearGradient id="bK" x1="257.378" x2="283.528" y1="354.708" y2="354.708" gradientUnits="userSpaceOnUse"><stop stop-color="#5BC6B9"/><stop offset="1" stop-color="#BDECE6"/></linearGradient><linearGradient id="bL" x1="260.21" x2="266.79" y1="347.81" y2="347.81" gradientUnits="userSpaceOnUse"><stop stop-color="#5BC6B9"/><stop offset="1" stop-color="#BDECE6"/></linearGradient><linearGradient id="bM" x1="274.9" x2="281.48" y1="361.99" y2="361.99" gradientUnits="userSpaceOnUse"><stop stop-color="#5BC6B9"/><stop offset="1" stop-color="#BDECE6"/></linearGradient><linearGradient id="bN" x1="287.378" x2="313.528" y1="354.778" y2="354.778" gradientUnits="userSpaceOnUse"><stop stop-color="#5BC6B9"/><stop offset="1" stop-color="#BDECE6"/></linearGradient><linearGradient id="bO" x1="290.22" x2="296.8" y1="347.88" y2="347.88" gradientUnits="userSpaceOnUse"><stop stop-color="#5BC6B9"/><stop offset="1" stop-color="#BDECE6"/></linearGradient><linearGradient id="bP" x1="304.9" x2="311.49" y1="362.06" y2="362.06" gradientUnits="userSpaceOnUse"><stop stop-color="#5BC6B9"/><stop offset="1" stop-color="#BDECE6"/></linearGradient><linearGradient id="bQ" x1="317.238" x2="343.388" y1="354.848" y2="354.848" gradientUnits="userSpaceOnUse"><stop stop-color="#5BC6B9"/><stop offset="1" stop-color="#BDECE6"/></linearGradient><linearGradient id="bR" x1="320.08" x2="326.66" y1="347.95" y2="347.95" gradientUnits="userSpaceOnUse"><stop stop-color="#5BC6B9"/><stop offset="1" stop-color="#BDECE6"/></linearGradient><linearGradient id="bS" x1="334.76" x2="341.34" y1="362.12" y2="362.12" gradientUnits="userSpaceOnUse"><stop stop-color="#5BC6B9"/><stop offset="1" stop-color="#BDECE6"/></linearGradient><linearGradient id="bT" x1="347.248" x2="373.398" y1="354.908" y2="354.908" gradientUnits="userSpaceOnUse"><stop stop-color="#5BC6B9"/><stop offset="1" stop-color="#BDECE6"/></linearGradient><linearGradient id="bU" x1="350.08" x2="356.66" y1="348.01" y2="348.01" gradientUnits="userSpaceOnUse"><stop stop-color="#5BC6B9"/><stop offset="1" stop-color="#BDECE6"/></linearGradient><linearGradient id="bV" x1="364.77" x2="371.35" y1="362.19" y2="362.19" gradientUnits="userSpaceOnUse"><stop stop-color="#5BC6B9"/><stop offset="1" stop-color="#BDECE6"/></linearGradient><linearGradient id="bW" x1="38.519" x2="68.369" y1="385.918" y2="385.918" gradientUnits="userSpaceOnUse"><stop stop-color="#86CFBE"/><stop offset="1" stop-color="#56A5A3"/></linearGradient><linearGradient id="bX" x1="41.76" x2="49.27" y1="378.04" y2="378.04" gradientUnits="userSpaceOnUse"><stop stop-color="#86CFBE"/><stop offset="1" stop-color="#56A5A3"/></linearGradient><linearGradient id="bY" x1="58.52" x2="66.03" y1="394.22" y2="394.22" gradientUnits="userSpaceOnUse"><stop stop-color="#86CFBE"/><stop offset="1" stop-color="#56A5A3"/></linearGradient><linearGradient id="bZ" x1="73.739" x2="103.589" y1="385.998" y2="385.998" gradientUnits="userSpaceOnUse"><stop stop-color="#86CFBE"/><stop offset="1" stop-color="#56A5A3"/></linearGradient><linearGradient id="ca" x1="76.98" x2="84.49" y1="378.12" y2="378.12" gradientUnits="userSpaceOnUse"><stop stop-color="#86CFBE"/><stop offset="1" stop-color="#56A5A3"/></linearGradient><linearGradient id="cb" x1="93.74" x2="101.25" y1="394.3" y2="394.3" gradientUnits="userSpaceOnUse"><stop stop-color="#86CFBE"/><stop offset="1" stop-color="#56A5A3"/></linearGradient><linearGradient id="cc" x1="108.729" x2="138.569" y1="386.068" y2="386.068" gradientUnits="userSpaceOnUse"><stop stop-color="#86CFBE"/><stop offset="1" stop-color="#56A5A3"/></linearGradient><linearGradient id="cd" x1="111.96" x2="119.47" y1="378.2" y2="378.2" gradientUnits="userSpaceOnUse"><stop stop-color="#86CFBE"/><stop offset="1" stop-color="#56A5A3"/></linearGradient><linearGradient id="ce" x1="128.73" x2="136.24" y1="394.38" y2="394.38" gradientUnits="userSpaceOnUse"><stop stop-color="#86CFBE"/><stop offset="1" stop-color="#56A5A3"/></linearGradient><linearGradient id="cf" x1="142.978" x2="319.608" y1="386.318" y2="386.318" gradientUnits="userSpaceOnUse"><stop stop-color="#FF7201"/><stop offset="1" stop-color="#FFC30A"/></linearGradient><linearGradient id="cg" x1="146.2" x2="158.62" y1="380.72" y2="380.72" gradientUnits="userSpaceOnUse"><stop stop-color="#FF7201"/><stop offset="1" stop-color="#FFC30A"/></linearGradient><linearGradient id="ch" x1="303.4" x2="315.81" y1="391.84" y2="391.84" gradientUnits="userSpaceOnUse"><stop stop-color="#FF7201"/><stop offset="1" stop-color="#FFC30A"/></linearGradient><linearGradient id="ci" x1="397.607" x2="456.357" y1="325.348" y2="325.348" gradientUnits="userSpaceOnUse"><stop stop-color="#FF7201"/><stop offset="1" stop-color="#FFC30A"/></linearGradient><linearGradient id="cj" x1="400.8" x2="411.51" y1="320" y2="320" gradientUnits="userSpaceOnUse"><stop stop-color="#E39F88"/><stop offset="1" stop-color="#FF417D"/></linearGradient><linearGradient id="ck" x1="442.94" x2="453.12" y1="331.1" y2="331.1" gradientUnits="userSpaceOnUse"><stop stop-color="#E39F88"/><stop offset="1" stop-color="#FF417D"/></linearGradient><linearGradient id="cl" x1="402.077" x2="456.487" y1="267.609" y2="267.609" gradientUnits="userSpaceOnUse"><stop stop-color="#5BC6B9"/><stop offset="1" stop-color="#BDECE6"/></linearGradient><linearGradient id="cm" x1="405.04" x2="414.95" y1="261.87" y2="261.87" gradientUnits="userSpaceOnUse"><stop stop-color="#5BC6B9"/><stop offset="1" stop-color="#BDECE6"/></linearGradient><linearGradient id="cn" x1="444.05" x2="453.48" y1="273.79" y2="273.79" gradientUnits="userSpaceOnUse"><stop stop-color="#5BC6B9"/><stop offset="1" stop-color="#BDECE6"/></linearGradient><linearGradient id="co" x1="377.407" x2="456.277" y1="355.648" y2="355.648" gradientUnits="userSpaceOnUse"><stop stop-color="#5BC6B9"/><stop offset="1" stop-color="#BDECE6"/></linearGradient><linearGradient id="cp" x1="380.86" x2="390.78" y1="349.88" y2="349.88" gradientUnits="userSpaceOnUse"><stop stop-color="#5BC6B9"/><stop offset="1" stop-color="#BDECE6"/></linearGradient><linearGradient id="cq" x1="443.86" x2="453.29" y1="361.86" y2="361.86" gradientUnits="userSpaceOnUse"><stop stop-color="#5BC6B9"/><stop offset="1" stop-color="#BDECE6"/></linearGradient><linearGradient id="cr" x1="414.727" x2="456.407" y1="296.499" y2="296.499" gradientUnits="userSpaceOnUse"><stop stop-color="#5BC6B9"/><stop offset="1" stop-color="#BDECE6"/></linearGradient><linearGradient id="cs" x1="417.73" x2="425.78" y1="289.78" y2="289.78" gradientUnits="userSpaceOnUse"><stop stop-color="#5BC6B9"/><stop offset="1" stop-color="#BDECE6"/></linearGradient><linearGradient id="ct" x1="446.32" x2="453.87" y1="303.64" y2="303.64" gradientUnits="userSpaceOnUse"><stop stop-color="#5BC6B9"/><stop offset="1" stop-color="#BDECE6"/></linearGradient><linearGradient id="cu" x1="38.409" x2="92.819" y1="324.288" y2="324.288" gradientUnits="userSpaceOnUse"><stop stop-color="#FF7201"/><stop offset="1" stop-color="#FFC30A"/></linearGradient><linearGradient id="cv" x1="41.38" x2="51.29" y1="318.85" y2="318.85" gradientUnits="userSpaceOnUse"><stop stop-color="#FF7201"/><stop offset="1" stop-color="#FFC30A"/></linearGradient><linearGradient id="cw" x1="80.4" x2="89.82" y1="330.14" y2="330.14" gradientUnits="userSpaceOnUse"><stop stop-color="#FF7201"/><stop offset="1" stop-color="#FFC30A"/></linearGradient><linearGradient id="cx" x1="38.479" x2="79.179" y1="295.409" y2="295.409" gradientUnits="userSpaceOnUse"><stop stop-color="#FF7201"/><stop offset="1" stop-color="#FFC30A"/></linearGradient><linearGradient id="cy" x1="41.28" x2="49.69" y1="289.25" y2="289.25" gradientUnits="userSpaceOnUse"><stop stop-color="#FF7201"/><stop offset="1" stop-color="#FFC30A"/></linearGradient><linearGradient id="cz" x1="68.9" x2="76.84" y1="301.73" y2="301.73" gradientUnits="userSpaceOnUse"><stop stop-color="#FF7201"/><stop offset="1" stop-color="#FFC30A"/></linearGradient><linearGradient id="cA" x1="38.349" x2="103.999" y1="354.158" y2="354.158" gradientUnits="userSpaceOnUse"><stop stop-color="#FF7201"/><stop offset="1" stop-color="#FFC30A"/></linearGradient><linearGradient id="cB" x1="41.31" x2="51.23" y1="348.69" y2="348.69" gradientUnits="userSpaceOnUse"><stop stop-color="#FF7201"/><stop offset="1" stop-color="#FFC30A"/></linearGradient><linearGradient id="cC" x1="92.07" x2="101.5" y1="360.48" y2="360.48" gradientUnits="userSpaceOnUse"><stop stop-color="#FF7201"/><stop offset="1" stop-color="#FFC30A"/></linearGradient><linearGradient id="cD" x1="324.258" x2="354.098" y1="386.558" y2="386.558" gradientUnits="userSpaceOnUse"><stop stop-color="#86CFBE"/><stop offset="1" stop-color="#56A5A3"/></linearGradient><linearGradient id="cE" x1="327.49" x2="335" y1="378.68" y2="378.68" gradientUnits="userSpaceOnUse"><stop stop-color="#86CFBE"/><stop offset="1" stop-color="#56A5A3"/></linearGradient><linearGradient id="cF" x1="344.26" x2="351.77" y1="394.86" y2="394.86" gradientUnits="userSpaceOnUse"><stop stop-color="#86CFBE"/><stop offset="1" stop-color="#56A5A3"/></linearGradient><linearGradient id="cG" x1="358.497" x2="388.347" y1="386.638" y2="386.638" gradientUnits="userSpaceOnUse"><stop stop-color="#86CFBE"/><stop offset="1" stop-color="#56A5A3"/></linearGradient><linearGradient id="cH" x1="361.74" x2="369.25" y1="378.76" y2="378.76" gradientUnits="userSpaceOnUse"><stop stop-color="#86CFBE"/><stop offset="1" stop-color="#56A5A3"/></linearGradient><linearGradient id="cI" x1="378.5" x2="386.01" y1="394.94" y2="394.94" gradientUnits="userSpaceOnUse"><stop stop-color="#86CFBE"/><stop offset="1" stop-color="#56A5A3"/></linearGradient><linearGradient id="cJ" x1="392.507" x2="422.347" y1="386.708" y2="386.708" gradientUnits="userSpaceOnUse"><stop stop-color="#86CFBE"/><stop offset="1" stop-color="#56A5A3"/></linearGradient><linearGradient id="cK" x1="395.74" x2="403.25" y1="378.83" y2="378.83" gradientUnits="userSpaceOnUse"><stop stop-color="#86CFBE"/><stop offset="1" stop-color="#56A5A3"/></linearGradient><linearGradient id="cL" x1="412.5" x2="420.01" y1="395.01" y2="395.01" gradientUnits="userSpaceOnUse"><stop stop-color="#86CFBE"/><stop offset="1" stop-color="#56A5A3"/></linearGradient><linearGradient id="cM" x1="426.747" x2="456.597" y1="386.788" y2="386.788" gradientUnits="userSpaceOnUse"><stop stop-color="#86CFBE"/><stop offset="1" stop-color="#56A5A3"/></linearGradient><linearGradient id="cN" x1="429.99" x2="437.5" y1="378.91" y2="378.91" gradientUnits="userSpaceOnUse"><stop stop-color="#86CFBE"/><stop offset="1" stop-color="#56A5A3"/></linearGradient><linearGradient id="cO" x1="446.75" x2="454.26" y1="395.09" y2="395.09" gradientUnits="userSpaceOnUse"><stop stop-color="#86CFBE"/><stop offset="1" stop-color="#56A5A3"/></linearGradient><linearGradient id="cP" x1="173.219" x2="198.229" y1="232.609" y2="232.609" gradientUnits="userSpaceOnUse"><stop stop-color="#86CFBE"/><stop offset="1" stop-color="#56A5A3"/></linearGradient><linearGradient id="cQ" x1="175.92" x2="182.21" y1="226.01" y2="226.01" gradientUnits="userSpaceOnUse"><stop stop-color="#86CFBE"/><stop offset="1" stop-color="#56A5A3"/></linearGradient><linearGradient id="cR" x1="189.97" x2="196.26" y1="239.57" y2="239.57" gradientUnits="userSpaceOnUse"><stop stop-color="#86CFBE"/><stop offset="1" stop-color="#56A5A3"/></linearGradient><linearGradient id="cS" x1="347.108" x2="372.118" y1="232.999" y2="232.999" gradientUnits="userSpaceOnUse"><stop stop-color="#86CFBE"/><stop offset="1" stop-color="#56A5A3"/></linearGradient><linearGradient id="cT" x1="349.82" x2="356.12" y1="226.4" y2="226.4" gradientUnits="userSpaceOnUse"><stop stop-color="#86CFBE"/><stop offset="1" stop-color="#56A5A3"/></linearGradient><linearGradient id="cU" x1="363.87" x2="370.16" y1="239.96" y2="239.96" gradientUnits="userSpaceOnUse"><stop stop-color="#86CFBE"/><stop offset="1" stop-color="#56A5A3"/></linearGradient><linearGradient id="cV" x1="375.807" x2="400.807" y1="233.069" y2="233.069" gradientUnits="userSpaceOnUse"><stop stop-color="#86CFBE"/><stop offset="1" stop-color="#56A5A3"/></linearGradient><linearGradient id="cW" x1="378.52" x2="384.81" y1="226.47" y2="226.47" gradientUnits="userSpaceOnUse"><stop stop-color="#86CFBE"/><stop offset="1" stop-color="#56A5A3"/></linearGradient><linearGradient id="cX" x1="392.56" x2="398.86" y1="240.02" y2="240.02" gradientUnits="userSpaceOnUse"><stop stop-color="#86CFBE"/><stop offset="1" stop-color="#56A5A3"/></linearGradient><linearGradient id="cY" x1="404.297" x2="429.307" y1="233.129" y2="233.129" gradientUnits="userSpaceOnUse"><stop stop-color="#86CFBE"/><stop offset="1" stop-color="#56A5A3"/></linearGradient><linearGradient id="cZ" x1="407.01" x2="413.31" y1="226.53" y2="226.53" gradientUnits="userSpaceOnUse"><stop stop-color="#86CFBE"/><stop offset="1" stop-color="#56A5A3"/></linearGradient><linearGradient id="da" x1="421.06" x2="427.35" y1="240.09" y2="240.09" gradientUnits="userSpaceOnUse"><stop stop-color="#86CFBE"/><stop offset="1" stop-color="#56A5A3"/></linearGradient><linearGradient id="db" x1="432.527" x2="457.527" y1="233.189" y2="233.189" gradientUnits="userSpaceOnUse"><stop stop-color="#86CFBE"/><stop offset="1" stop-color="#56A5A3"/></linearGradient><linearGradient id="dc" x1="435.24" x2="441.53" y1="226.59" y2="226.59" gradientUnits="userSpaceOnUse"><stop stop-color="#86CFBE"/><stop offset="1" stop-color="#56A5A3"/></linearGradient><linearGradient id="dd" x1="449.28" x2="455.57" y1="240.15" y2="240.15" gradientUnits="userSpaceOnUse"><stop stop-color="#86CFBE"/><stop offset="1" stop-color="#56A5A3"/></linearGradient><linearGradient id="de" x1="466.777" x2="491.777" y1="233.269" y2="233.269" gradientUnits="userSpaceOnUse"><stop stop-color="#5BC6B9"/><stop offset="1" stop-color="#BDECE6"/></linearGradient><linearGradient id="df" x1="469.49" x2="475.78" y1="226.67" y2="226.67" gradientUnits="userSpaceOnUse"><stop stop-color="#5BC6B9"/><stop offset="1" stop-color="#BDECE6"/></linearGradient><linearGradient id="dg" x1="483.53" x2="489.82" y1="240.23" y2="240.23" gradientUnits="userSpaceOnUse"><stop stop-color="#5BC6B9"/><stop offset="1" stop-color="#BDECE6"/></linearGradient><linearGradient id="dh" x1="495.147" x2="520.157" y1="233.329" y2="233.329" gradientUnits="userSpaceOnUse"><stop stop-color="#5BC6B9"/><stop offset="1" stop-color="#BDECE6"/></linearGradient><linearGradient id="di" x1="497.86" x2="504.16" y1="226.73" y2="226.73" gradientUnits="userSpaceOnUse"><stop stop-color="#5BC6B9"/><stop offset="1" stop-color="#BDECE6"/></linearGradient><linearGradient id="dj" x1="511.91" x2="518.2" y1="240.29" y2="240.29" gradientUnits="userSpaceOnUse"><stop stop-color="#5BC6B9"/><stop offset="1" stop-color="#BDECE6"/></linearGradient><linearGradient id="dk" x1="524.017" x2="549.027" y1="233.399" y2="233.399" gradientUnits="userSpaceOnUse"><stop stop-color="#5BC6B9"/><stop offset="1" stop-color="#BDECE6"/></linearGradient><linearGradient id="dl" x1="526.73" x2="533.02" y1="226.8" y2="226.8" gradientUnits="userSpaceOnUse"><stop stop-color="#5BC6B9"/><stop offset="1" stop-color="#BDECE6"/></linearGradient><linearGradient id="dm" x1="540.78" x2="547.07" y1="240.36" y2="240.36" gradientUnits="userSpaceOnUse"><stop stop-color="#5BC6B9"/><stop offset="1" stop-color="#BDECE6"/></linearGradient><linearGradient id="dn" x1="466.697" x2="491.707" y1="266.539" y2="266.539" gradientUnits="userSpaceOnUse"><stop stop-color="#5BC6B9"/><stop offset="1" stop-color="#BDECE6"/></linearGradient><linearGradient id="do" x1="469.41" x2="475.7" y1="259.94" y2="259.94" gradientUnits="userSpaceOnUse"><stop stop-color="#5BC6B9"/><stop offset="1" stop-color="#BDECE6"/></linearGradient><linearGradient id="dp" x1="483.46" x2="489.75" y1="273.5" y2="273.5" gradientUnits="userSpaceOnUse"><stop stop-color="#5BC6B9"/><stop offset="1" stop-color="#BDECE6"/></linearGradient><linearGradient id="dq" x1="495.077" x2="520.077" y1="266.599" y2="266.599" gradientUnits="userSpaceOnUse"><stop stop-color="#5BC6B9"/><stop offset="1" stop-color="#BDECE6"/></linearGradient><linearGradient id="dr" x1="497.79" x2="504.08" y1="260" y2="260" gradientUnits="userSpaceOnUse"><stop stop-color="#5BC6B9"/><stop offset="1" stop-color="#BDECE6"/></linearGradient><linearGradient id="ds" x1="511.83" x2="518.13" y1="273.56" y2="273.56" gradientUnits="userSpaceOnUse"><stop stop-color="#5BC6B9"/><stop offset="1" stop-color="#BDECE6"/></linearGradient><linearGradient id="dt" x1="523.947" x2="548.947" y1="266.669" y2="266.669" gradientUnits="userSpaceOnUse"><stop stop-color="#5BC6B9"/><stop offset="1" stop-color="#BDECE6"/></linearGradient><linearGradient id="du" x1="526.66" x2="532.95" y1="260.07" y2="260.07" gradientUnits="userSpaceOnUse"><stop stop-color="#5BC6B9"/><stop offset="1" stop-color="#BDECE6"/></linearGradient><linearGradient id="dv" x1="540.7" x2="546.99" y1="273.63" y2="273.63" gradientUnits="userSpaceOnUse"><stop stop-color="#5BC6B9"/><stop offset="1" stop-color="#BDECE6"/></linearGradient><linearGradient id="dw" x1="523.877" x2="548.887" y1="295.539" y2="295.539" gradientUnits="userSpaceOnUse"><stop stop-color="#5BC6B9"/><stop offset="1" stop-color="#BDECE6"/></linearGradient><linearGradient id="dx" x1="526.59" x2="532.88" y1="288.94" y2="288.94" gradientUnits="userSpaceOnUse"><stop stop-color="#5BC6B9"/><stop offset="1" stop-color="#BDECE6"/></linearGradient><linearGradient id="dy" x1="540.64" x2="546.93" y1="302.5" y2="302.5" gradientUnits="userSpaceOnUse"><stop stop-color="#5BC6B9"/><stop offset="1" stop-color="#BDECE6"/></linearGradient><linearGradient id="dz" x1="467.117" x2="520.017" y1="295.439" y2="295.439" gradientUnits="userSpaceOnUse"><stop stop-color="#5BC6B9"/><stop offset="1" stop-color="#BDECE6"/></linearGradient><linearGradient id="dA" x1="469.84" x2="476.13" y1="288.81" y2="288.81" gradientUnits="userSpaceOnUse"><stop stop-color="#5BC6B9"/><stop offset="1" stop-color="#BDECE6"/></linearGradient><linearGradient id="dB" x1="511.28" x2="517.57" y1="302.43" y2="302.43" gradientUnits="userSpaceOnUse"><stop stop-color="#5BC6B9"/><stop offset="1" stop-color="#BDECE6"/></linearGradient></defs></svg>
