<svg xmlns="http://www.w3.org/2000/svg" fill="none" viewBox="0 0 1100 600"><path fill="#000" d="M0 0h1100v600H0z"/><path fill="#fff" d="M330.869 276.772c3.288 16.076 5.481 34.777 0 51.489-5.409 16.491-17.708 29.012-29.675 40.048-14.418 8.061-31.342 15.8-49.076 15.8-17.504 0-33.672-7.61-47.952-15.477-12.198-11.093-24.81-23.659-30.292-40.371-5.407-16.49-3.132-35.081 0-50.974 6.873-14.915 15.948-31.534 30.292-41.862 14.16-10.189 31.793-12.953 48.017-14.906 16.444 1.87 34.658 5.546 49.011 15.883 14.16 10.189 22.792 25.685 29.675 40.37Z"/><path fill="#B4EEE0" d="M252.395 380.977c-17.496 0-33.94-4.487-48.229-12.345.552 11.092 22.248 24.239 48.597 24.239 26.348 0 46.819-16.16 48.431-24.562-14.418 8.062-31.065 12.668-48.799 12.668Z"/><path fill="#D3D6E2" d="M204.167 368.632c-12.198-11.092-21.761-25.362-27.242-42.074-5.408-16.491-6.191-33.369-3.05-49.261-9.572 2.275-14.648 34.539-8.245 53.286 6.403 18.729 29.02 42.14 38.537 38.049Z"/><path fill="#FFC9DD" d="M205.843 238.613c14.159-10.189 30.116-16.141 46.34-18.094-7.887-6.9-39.827-1.796-53.692 8.698-13.865 10.492-30.208 38.25-24.617 48.08 6.882-14.934 17.615-28.357 31.969-38.684Z"/><path fill="#FFEBB2" d="M252.183 220.519a99.38 99.38 0 0 1 46.994 18.177c14.16 10.189 24.801 23.391 31.683 38.076 5.951-9.996-7.324-36.399-24.93-47.906-17.605-11.507-49.26-14.51-53.747-8.347Z"/><path fill="#C6E4A2" d="M330.869 276.762c3.289 16.077 2.561 33.194-2.921 49.906a97.973 97.973 0 0 1-26.753 41.631c13.597 1.3 32.484-16.61 38.278-38.306 5.796-21.687-.119-52.07-8.604-53.231Z"/><path fill="#A4BFDD" d="M165.629 330.574c-5.803 7.259 1.539 37.8 26.128 55.092 24.588 17.292 55.617 13.524 61.006 7.195-18.13-3.455-34.999-11.875-48.597-24.229-16.131-8.89-29.508-22.102-38.537-38.058Z"/><path fill="#99E2D1" d="M339.473 329.993c-8.918 16.021-22.203 29.315-38.279 38.307-13.515 12.455-30.328 20.986-48.431 24.561 6.495 7.831 41.826 3.869 60.951-7.591 19.126-11.461 29.471-45.327 25.759-55.277Z"/><path fill="#FFA7B3" d="M173.875 277.287c3.547-17.955 12.096-34.64 24.617-48.081-12.871-4.707-37.247 16.63-44.811 41.642-7.564 25.013-1.484 53.636 11.949 59.717a98.151 98.151 0 0 1 8.245-53.278Z"/><path fill="#FCA" d="M252.183 220.519c18.333-2.201 36.988.691 53.747 8.338 5.5-10.319-29.416-29.361-53.812-29.361-24.395 0-53.212 16.684-53.627 29.711a100.6 100.6 0 0 1 53.692-8.688Z"/><path fill="#E9D59E" d="M339.473 329.993c11.618-2.238 20.259-30.825 11.553-59.781-8.715-28.956-35.672-44.331-45.087-41.356 12.621 13.359 21.272 29.988 24.939 47.906a98.192 98.192 0 0 1 8.595 53.231Z"/><path fill="#A499D7" d="M191.757 385.667a99.058 99.058 0 0 1-7.895-9.48c-10.217-13.94-16.215-29.647-18.223-45.613-8.043-14.215-12.63-30.614-12.63-48.081 0-3.934.239-7.821.69-11.636-9.322 2.571-20.571 39.57-10.364 66.977 10.199 27.417 39.771 49.371 48.422 47.833Z"/><path fill="#56B8B6" d="M313.714 385.27a99.194 99.194 0 0 1-11.544 4.514c-16.536 5.325-33.46 6.118-49.407 3.077-16.14 3.188-33.295 2.441-50.052-2.957a101.21 101.21 0 0 1-10.954-4.247c4.376 13.33 26.588 30.457 61.089 30.457 34.502.009 54.484-16.785 60.868-30.844Z"/><path fill="#68C280" d="M351.016 270.212c.507 4.016.764 8.116.764 12.271 0 17.228-4.467 33.424-12.317 47.51-1.925 16.196-7.941 32.134-18.305 46.258a100.141 100.141 0 0 1-7.463 9.009c15.975 1.032 39.513-16.436 48.118-48.155 8.605-31.719-2.128-62.996-10.797-66.893Z"/><path fill="#FF7A7F" d="M153.689 270.848a98.483 98.483 0 0 1 6.661-10.374c10.216-13.938 23.437-24.431 38.141-31.267 11.167-11.976 25.483-21.364 42.25-26.763a102.304 102.304 0 0 1 11.377-2.947c-13.487-6.68-46.441-2.718-67.491 10.935-21.043 13.653-34.806 47.537-30.937 60.417l-.001-.001Z"/><path fill="#FFBA86" d="M252.118 199.505c4.063.775 8.076 1.8 12.014 3.068 16.537 5.325 30.696 14.537 41.797 26.284a98.665 98.665 0 0 1 38.74 31.544 101.557 101.557 0 0 1 6.347 9.811c6.081-11.488-12.372-46.035-31.35-60.223-18.978-14.187-53.406-16.813-67.548-10.484Z"/><path fill="#835283" d="M153.69 270.848c2.819-23.76 14.169-44.922 30.945-60.417-20.968 11.7-37.726 30.918-45.741 55.368-8.098 24.681-5.822 50.237 4.431 72.025-4.523-22.276-1.308-46.045 10.365-66.976Z"/><path fill="#8075B4" d="M191.757 385.666a98.68 98.68 0 0 1-48.423-47.833c4.755 23.364 18.012 45.097 39.008 60.215 21.179 15.247 46.413 21.005 70.504 18.075-22.792-2.616-44.607-12.999-61.089-30.457Z"/><path fill="#2E9D87" d="M313.714 385.27c-16.37 17.578-38.113 28.089-60.868 30.853 23.889 2.755 48.855-3.04 69.851-18.149 21.179-15.256 34.501-37.247 39.135-60.859-9.563 20.664-26.265 38.021-48.118 48.155Z"/><path fill="#549558" d="M351.017 270.212c11.811 20.867 15.183 44.599 10.806 66.903 10.015-21.669 12.18-46.976 4.155-71.426-8.088-24.682-25.077-44.027-46.312-55.691 16.887 15.385 28.375 36.492 31.351 60.214Z"/><path fill="#FF9952" d="M252.118 199.505c23.677-4.68 47.501-.525 67.548 10.493C301.968 193.858 278.338 184 252.395 184c-26.183 0-50.007 10.042-67.76 26.44 19.982-11.157 43.788-15.467 67.483-10.935Z"/><path fill="#fff" d="M414.666 302.746v-84.79h9.341v84.79h-9.341Zm37.844 0h-9.102v-61.078h9.102v4.311c6.706-3.593 12.933-5.508 18.922-5.508 8.143 0 13.652 2.156 16.526 6.707 2.875 4.311 4.311 12.215 4.311 23.472v32.335h-9.101V270.65c0-8.383-.958-14.371-2.395-17.485-1.676-3.114-5.27-4.79-10.779-4.79-2.634 0-5.269.479-8.383 1.198-2.873.718-5.029 1.437-6.706 2.155l-2.395 1.198v49.82Zm87.904-53.173h-19.402v29.221c0 6.946.479 11.737 1.438 13.892.957 2.156 3.353 3.353 7.185 3.353l10.779-.719.718 7.665c-5.509.958-9.581 1.438-12.455 1.438-6.467 0-10.778-1.438-13.174-4.552-2.395-3.113-3.592-9.101-3.592-17.724v-32.574h-8.623v-7.904h8.623v-18.683h9.101v18.683h19.402v7.904Zm52.933 45.508 3.593-.479.239 7.186c-9.34 1.197-17.245 1.916-23.951 1.916-8.863 0-15.09-2.635-18.683-7.665-3.592-5.03-5.509-12.934-5.509-23.712 0-21.557 8.622-32.096 25.629-32.096 8.143 0 14.371 2.396 18.443 6.947 4.071 4.55 6.227 11.975 6.227 21.795l-.479 6.947h-40.479c0 6.706 1.198 11.736 3.593 15.089 2.395 3.354 6.707 4.791 12.695 4.791 6.227 0 12.455-.24 18.682-.719Zm-3.353-26.587c0-7.425-1.198-12.694-3.593-15.808-2.395-3.113-6.228-4.551-11.736-4.551-5.509 0-9.581 1.677-12.216 4.791-2.635 3.353-4.072 8.383-4.311 15.568h31.856Zm23.472 34.252v-61.078h9.102v8.383c7.185-4.789 14.611-8.143 22.515-9.58v9.341c-3.353.718-6.946 1.677-10.779 3.114-3.832 1.437-6.467 2.635-8.622 3.593l-3.114 1.676v45.03h-9.102v-.479Zm43.114 0v-87.904h9.102v87.904h-9.102Zm69.221-7.665 3.592-.479.24 7.186c-9.342 1.197-17.246 1.916-23.952 1.916-8.862 0-15.089-2.635-18.682-7.665-3.593-5.03-5.51-12.934-5.51-23.712 0-21.557 8.623-32.096 25.629-32.096 8.144 0 14.371 2.396 18.443 6.947 4.072 4.55 6.228 11.975 6.228 21.795l-.479 6.947h-40.479c0 6.706 1.197 11.736 3.593 15.089 2.395 3.354 6.706 4.791 12.694 4.791 6.228 0 12.455-.24 18.683-.719Zm-3.354-26.587c0-7.425-1.197-12.694-3.592-15.808-2.396-3.113-6.228-4.551-11.737-4.551s-9.581 1.677-12.215 4.791c-2.635 3.353-4.072 8.383-4.311 15.568h31.855Zm70.419-53.652v87.904h-9.102v-4.072c-6.228 3.593-12.455 5.269-18.683 5.269-3.353 0-6.227-.479-8.622-1.197-2.395-.719-4.79-2.395-6.946-4.311-4.311-4.312-6.707-12.455-6.707-24.431 0-11.977 1.916-20.359 5.988-25.629 4.072-5.269 10.539-7.904 19.641-7.904 4.79 0 9.82.479 15.089 1.676v-27.305h9.342Zm-31.617 80c1.438.479 3.354.958 5.749.958 2.395 0 5.03-.48 7.904-1.197 2.874-.719 5.269-1.438 6.706-2.156l2.396-1.198v-41.437c-5.269-.958-10.06-1.437-14.611-1.437-6.228 0-10.539 1.916-12.934 5.988-2.395 4.071-3.593 10.06-3.593 18.443 0 9.581 1.438 15.808 4.311 19.162 1.199 1.436 2.396 2.395 4.072 2.874Zm73.054 36.646c-9.821 0-16.527-1.438-20.599-4.072-3.832-2.635-5.748-7.425-5.748-14.61 0-3.354.718-5.988 2.155-8.144 1.438-2.156 4.072-4.311 7.425-6.946-2.395-1.437-3.353-4.312-3.353-8.384 0-1.436.958-4.071 3.114-7.664l1.197-1.916c-6.466-2.875-9.58-9.102-9.58-18.443 0-13.892 7.664-20.838 22.994-20.838 3.832 0 7.664.479 10.778 1.197l1.916.479 18.203-.479v7.904l-11.736-.239c2.634 2.634 4.072 6.706 4.072 12.216 0 7.664-1.916 12.933-5.749 16.047-3.832 3.114-9.82 4.551-17.964 4.551-2.155 0-4.311-.239-5.988-.479-1.436 3.593-2.155 5.988-2.155 6.946 0 2.635.719 4.072 2.395 4.79 1.437.719 6.227.959 14.131.959s13.414 1.197 17.007 3.592c3.592 2.396 5.029 7.186 5.029 14.371-.24 12.695-9.341 19.162-27.544 19.162Zm-17.246-19.162c0 4.312 1.198 7.425 3.593 9.102 2.395 1.677 6.946 2.395 13.413 2.395 6.467 0 11.257-.958 13.892-2.634 2.635-1.677 4.312-4.791 4.312-9.102 0-4.312-.959-6.946-3.114-8.144-2.156-1.197-5.988-1.916-11.977-1.916l-13.172-.719c-2.635 1.917-4.552 3.594-5.51 5.031-.958 1.916-1.437 3.592-1.437 5.987Zm.959-51.017c0 4.79 1.197 8.144 3.352 10.299 2.156 2.156 5.749 3.114 10.779 3.114 5.029 0 8.623-.958 10.539-3.114 2.156-2.155 3.113-5.509 3.113-10.299 0-4.791-.957-8.383-3.113-10.299-2.156-2.156-5.749-3.114-10.539-3.114-5.03 0-8.623.958-10.779 3.114-2.395 1.916-3.352 5.508-3.352 10.299Zm97.246 33.772 3.593-.479.239 7.186c-9.345 1.197-17.247 1.916-23.953 1.916-8.863 0-15.09-2.635-18.683-7.665-3.592-5.03-5.509-12.934-5.509-23.712 0-21.557 8.623-32.096 25.629-32.096 8.143 0 14.374 2.396 18.445 6.947 4.071 4.55 6.222 11.975 6.222 21.795l-.478 6.947H880.29c0 6.706 1.198 11.736 3.593 15.089 2.395 3.354 6.707 4.791 12.695 4.791 6.227 0 12.454-.24 18.684-.719Zm-3.354-26.587c0-7.425-1.196-12.694-3.594-15.808-2.398-3.113-6.227-4.551-11.736-4.551s-9.581 1.677-12.216 4.791c-2.634 3.353-4.072 8.383-4.311 15.568h31.857Zm23.471 34.252v-61.078h9.106v8.383c7.179-4.789 14.604-8.143 22.515-9.58v9.341c-3.354.718-6.947 1.677-10.78 3.114-3.832 1.437-6.469 2.635-8.628 3.593l-3.107 1.676v45.03h-9.106v-.479Zm-250.864 42.066v7.15h-17.111v33.285h-8.263v-33.285h-17.053v-7.15h42.427Zm-48.062 0v40.435h-8.263v-40.435h8.263Zm-17.902 0v40.435h-8.145v-26.956h-.117l-14.006 26.956h-7.325l-14.005-26.956h-.118v26.956h-8.145v-40.435h10.021l15.88 30.824h.118l15.88-30.824h9.962Zm-61.031 0v40.435h-8.146v-26.956h-.117l-14.006 26.956h-7.325l-14.005-26.956h-.117v26.956h-8.146v-40.435h10.021l15.881 30.824h.117l15.881-30.824h9.962Zm-60.779 0v20.335c0 12.833-6.388 20.803-20.686 20.803-14.299 0-20.217-7.208-20.217-20.803v-20.335h8.262v20.335c0 8.966 3.985 13.361 12.482 13.361 8.087 0 12.072-4.512 12.072-13.361v-20.335h8.087Zm-48.673 3.399-2.812 6.388c-1.876-1.055-6.154-3.575-12.482-3.575-5.919 0-8.908 1.348-8.908 3.985 0 3.223 2.52 4.102 11.545 6.212 8.966 2.051 14.064 5.684 14.064 12.364 0 7.618-6.329 12.365-17.698 12.365-9.317 0-14.298-2.813-17.111-4.629l2.871-6.798c1.876 1.289 6.74 4.395 13.947 4.395 6.329 0 9.552-1.289 9.552-4.571 0-2.871-2.344-4.395-11.251-6.563-8.849-2.227-14.123-5.216-14.123-12.13 0-7.091 6.622-11.545 16.936-11.545 8.79 0 13.185 2.696 15.47 4.102Z"/></svg>
