<svg xmlns="http://www.w3.org/2000/svg" fill="none" viewBox="0 0 350 350"><path fill="#000" d="M0 0h350v350H0z"/><path fill="#fff" d="M106.975 167.734c1.019 4.979 1.698 10.771 0 15.947-1.675 5.108-5.484 8.986-9.19 12.404-4.466 2.497-9.708 4.893-15.201 4.893-5.421 0-10.43-2.356-14.852-4.793-3.778-3.436-7.684-7.328-9.382-12.504-1.675-5.107-.97-10.865 0-15.788 2.129-4.619 4.94-9.767 9.382-12.965 4.386-3.156 9.847-4.012 14.872-4.617 5.093.579 10.735 1.718 15.18 4.919 4.386 3.156 7.059 7.955 9.191 12.504Z"/><path fill="#B4EEE0" d="M82.67 200.008a30.911 30.911 0 0 1-14.938-3.823c.171 3.435 6.891 7.507 15.052 7.507 8.16 0 14.5-5.005 15-7.607a30.878 30.878 0 0 1-15.114 3.923Z"/><path fill="#D3D6E2" d="M67.732 196.185a30.334 30.334 0 0 1-8.437-13.032 30.084 30.084 0 0 1-.945-15.257c-2.965.705-4.537 10.698-2.554 16.504 1.983 5.801 8.989 13.052 11.936 11.785Z"/><path fill="#FFC9DD" d="M68.251 155.915a30.815 30.815 0 0 1 14.353-5.604c-2.442-2.137-12.335-.557-16.63 2.694-4.294 3.249-9.356 11.847-7.624 14.891a30.406 30.406 0 0 1 9.901-11.981Z"/><path fill="#FFEBB2" d="M82.604 150.311a30.777 30.777 0 0 1 14.555 5.63c4.386 3.156 7.682 7.244 9.813 11.793 1.843-3.096-2.268-11.274-7.721-14.838s-15.257-4.494-16.647-2.585Z"/><path fill="#C6E4A2" d="M106.975 167.731a30.087 30.087 0 0 1-.905 15.457 30.343 30.343 0 0 1-8.286 12.894c4.212.402 10.061-5.145 11.856-11.864 1.795-6.717-.037-16.128-2.665-16.487Z"/><path fill="#A4BFDD" d="M55.796 184.397c-1.797 2.249.477 11.708 8.093 17.064 7.615 5.356 17.225 4.188 18.895 2.228a31.065 31.065 0 0 1-15.052-7.504 30.811 30.811 0 0 1-11.936-11.788Z"/><path fill="#99E2D1" d="M109.64 184.218a30.763 30.763 0 0 1-11.856 11.864 31.035 31.035 0 0 1-15 7.607c2.011 2.426 12.954 1.199 18.878-2.351 5.923-3.55 9.128-14.039 7.978-17.12Z"/><path fill="#FFA7B3" d="M58.35 167.893a30.578 30.578 0 0 1 7.625-14.892c-3.986-1.457-11.536 5.151-13.88 12.898-2.342 7.747-.459 16.612 3.702 18.496a30.402 30.402 0 0 1 2.553-16.502Z"/><path fill="#FCA" d="M82.604 150.311a31.204 31.204 0 0 1 16.647 2.582c1.703-3.196-9.111-9.093-16.667-9.093-7.556 0-16.481 5.167-16.61 9.202a31.149 31.149 0 0 1 16.63-2.691Z"/><path fill="#E9D59E" d="M109.64 184.218c3.598-.694 6.274-9.548 3.578-18.516-2.699-8.968-11.048-13.731-13.965-12.809a30.555 30.555 0 0 1 7.725 14.838 30.42 30.42 0 0 1 2.662 16.487Z"/><path fill="#A499D7" d="M63.889 201.461a30.576 30.576 0 0 1-2.446-2.936 30.22 30.22 0 0 1-5.643-14.127 30.143 30.143 0 0 1-3.913-14.892c0-1.219.074-2.423.214-3.604-2.887.796-6.371 12.255-3.21 20.744 3.159 8.492 12.318 15.291 14.998 14.815Z"/><path fill="#56B8B6" d="M101.662 201.338a30.779 30.779 0 0 1-3.576 1.398 30.898 30.898 0 0 1-15.302.953c-5 .988-10.313.756-15.503-.915a31.433 31.433 0 0 1-3.392-1.316c1.355 4.129 8.235 9.433 18.92 9.433 10.686.003 16.875-5.198 18.853-9.553Z"/><path fill="#68C280" d="M113.215 165.702c.157 1.244.237 2.514.237 3.801a30.135 30.135 0 0 1-3.815 14.715 30.18 30.18 0 0 1-5.67 14.327 30.977 30.977 0 0 1-2.311 2.79c4.948.32 12.238-5.09 14.903-14.915 2.665-9.824-.659-19.511-3.344-20.718Z"/><path fill="#FF7A7F" d="M52.098 165.899a30.468 30.468 0 0 1 2.063-3.213 30.594 30.594 0 0 1 11.814-9.684 30.67 30.67 0 0 1 13.085-8.289 31.475 31.475 0 0 1 3.524-.913c-4.177-2.069-14.384-.842-20.904 3.387-6.517 4.228-10.78 14.723-9.581 18.712Z"/><path fill="#FFBA86" d="M82.584 143.802c1.259.24 2.501.558 3.721.95a30.699 30.699 0 0 1 12.946 8.141 30.564 30.564 0 0 1 11.998 9.77c.713.975 1.37 1.989 1.966 3.039 1.884-3.558-3.832-14.258-9.71-18.652-5.878-4.395-16.54-5.208-20.921-3.248Z"/><path fill="#835283" d="M52.098 165.899c.873-7.359 4.389-13.913 9.585-18.713-6.494 3.624-11.685 9.576-14.167 17.149-2.508 7.644-1.803 15.56 1.372 22.308a30.19 30.19 0 0 1 3.21-20.744Z"/><path fill="#8075B4" d="M63.889 201.461a30.56 30.56 0 0 1-14.998-14.815c1.473 7.236 5.579 13.967 12.082 18.65 6.56 4.722 14.375 6.506 21.836 5.598-7.059-.81-13.816-4.026-18.92-9.433Z"/><path fill="#2E9D87" d="M101.662 201.338c-5.07 5.444-11.805 8.7-18.852 9.556 7.399.853 15.131-.942 21.634-5.621 6.56-4.725 10.686-11.536 12.121-18.85a30.581 30.581 0 0 1-14.903 14.915Z"/><path fill="#549558" d="M113.215 165.702a30.18 30.18 0 0 1 3.347 20.721c3.102-6.711 3.773-14.549 1.287-22.122-2.505-7.644-7.767-13.636-14.344-17.249 5.231 4.765 8.789 11.303 9.71 18.65Z"/><path fill="#FF9952" d="M82.584 143.802a30.956 30.956 0 0 1 20.921 3.25A30.822 30.822 0 0 0 82.67 139c-8.11 0-15.488 3.11-20.987 8.189a30.94 30.94 0 0 1 20.901-3.387Z"/><path fill="#fff" d="M132.929 175.778v-26.261h2.893v26.261h-2.893Zm11.721 0h-2.819v-18.917h2.819v1.335c2.078-1.112 4.006-1.706 5.861-1.706 2.522 0 4.228.668 5.119 2.078.89 1.335 1.335 3.783 1.335 7.27v10.015h-2.819v-10.015c0-2.597-.297-4.451-.742-5.416-.519-.964-1.632-1.484-3.338-1.484-.816 0-1.632.149-2.597.371-.89.223-1.558.446-2.077.668l-.742.371v15.43Zm27.226-16.469h-6.009v9.051c0 2.151.148 3.635.445 4.303.297.667 1.039 1.038 2.226 1.038l3.338-.222.223 2.374c-1.707.296-2.968.445-3.858.445-2.003 0-3.338-.445-4.08-1.41-.742-.964-1.113-2.819-1.113-5.49v-10.089h-2.67v-2.448h2.67v-5.786h2.819v5.786h6.009v2.448Zm16.395 14.096 1.113-.149.074 2.226c-2.893.371-5.341.593-7.418.593-2.745 0-4.674-.816-5.787-2.374-1.113-1.558-1.706-4.006-1.706-7.344 0-6.677 2.67-9.941 7.938-9.941 2.522 0 4.451.742 5.712 2.152 1.261 1.409 1.929 3.709 1.929 6.75l-.149 2.152H177.44c0 2.077.371 3.635 1.113 4.673.742 1.039 2.077 1.484 3.932 1.484 1.928 0 3.857-.074 5.786-.222Zm-1.039-8.235c0-2.3-.371-3.932-1.112-4.896-.742-.965-1.929-1.41-3.635-1.41-1.707 0-2.968.52-3.784 1.484-.816 1.039-1.261 2.596-1.335 4.822h9.866Zm7.27 10.608v-18.917h2.819v2.597c2.226-1.484 4.526-2.522 6.974-2.968v2.894a23.27 23.27 0 0 0-3.339.964c-1.187.445-2.003.816-2.67 1.113l-.965.519v13.947h-2.819v-.149Zm13.354 0v-27.225h2.819v27.225h-2.819Zm21.439-2.373 1.113-.149.074 2.226c-2.893.371-5.341.593-7.418.593-2.745 0-4.674-.816-5.787-2.374-1.113-1.558-1.706-4.006-1.706-7.344 0-6.677 2.67-9.941 7.937-9.941 2.523 0 4.452.742 5.713 2.152 1.261 1.409 1.929 3.709 1.929 6.75l-.149 2.152h-12.537c0 2.077.371 3.635 1.113 4.673.742 1.039 2.077 1.484 3.931 1.484a75.62 75.62 0 0 0 5.787-.222Zm-1.039-8.235c0-2.3-.37-3.932-1.112-4.896-.742-.965-1.929-1.41-3.636-1.41-1.706 0-2.967.52-3.783 1.484-.816 1.039-1.261 2.596-1.335 4.822h9.866Zm21.811-16.617v27.225h-2.819v-1.261c-1.929 1.113-3.858 1.632-5.787 1.632a9.259 9.259 0 0 1-2.67-.371c-.742-.222-1.484-.741-2.152-1.335-1.335-1.335-2.077-3.857-2.077-7.567 0-3.709.594-6.305 1.855-7.938 1.261-1.632 3.264-2.448 6.083-2.448 1.484 0 3.041.149 4.673.52v-8.457h2.894Zm-9.793 24.777a5.518 5.518 0 0 0 1.781.297c.742 0 1.558-.148 2.448-.371.89-.222 1.632-.445 2.077-.668l.742-.37v-12.834c-1.632-.297-3.116-.446-4.525-.446-1.929 0-3.264.594-4.006 1.855-.742 1.261-1.113 3.116-1.113 5.712 0 2.968.445 4.897 1.335 5.935.371.445.742.742 1.261.89Zm22.627 11.35c-3.042 0-5.119-.445-6.38-1.261-1.187-.816-1.781-2.299-1.781-4.525 0-1.038.223-1.854.668-2.522.445-.668 1.261-1.335 2.3-2.151-.742-.446-1.039-1.336-1.039-2.597 0-.445.297-1.261.965-2.374l.371-.593c-2.003-.891-2.968-2.819-2.968-5.713 0-4.302 2.374-6.454 7.122-6.454 1.187 0 2.374.149 3.338.371l.594.149 5.638-.149v2.448l-3.635-.074c.816.816 1.261 2.077 1.261 3.784 0 2.373-.594 4.006-1.781 4.97-1.187.964-3.041 1.409-5.564 1.409-.667 0-1.335-.074-1.854-.148-.445 1.113-.668 1.855-.668 2.152 0 .816.223 1.261.742 1.483.445.223 1.929.297 4.377.297 2.448 0 4.154.371 5.267 1.113 1.113.742 1.558 2.225 1.558 4.451-.074 3.931-2.893 5.934-8.531 5.934Zm-5.342-5.934c0 1.335.371 2.299 1.113 2.819.742.519 2.151.742 4.154.742s3.487-.297 4.303-.816c.816-.52 1.336-1.484 1.336-2.819 0-1.336-.297-2.152-.965-2.523-.667-.371-1.855-.593-3.709-.593l-4.08-.223c-.816.594-1.41 1.113-1.706 1.558-.297.594-.446 1.113-.446 1.855Zm.297-15.802c0 1.484.371 2.523 1.039 3.19.667.668 1.78.965 3.338.965s2.671-.297 3.264-.965c.668-.667.964-1.706.964-3.19 0-1.483-.296-2.596-.964-3.189-.668-.668-1.78-.965-3.264-.965-1.558 0-2.671.297-3.338.965-.742.593-1.039 1.706-1.039 3.189Zm30.12 10.461 1.113-.149.074 2.226c-2.895.371-5.342.593-7.419.593-2.745 0-4.674-.816-5.787-2.374-1.112-1.558-1.706-4.006-1.706-7.344 0-6.677 2.671-9.941 7.938-9.941 2.522 0 4.452.742 5.713 2.152 1.261 1.409 1.927 3.709 1.927 6.75l-.148 2.152h-12.537c0 2.077.371 3.635 1.113 4.673.742 1.039 2.077 1.484 3.932 1.484a75.64 75.64 0 0 0 5.787-.222Zm-1.039-8.235c0-2.3-.37-3.932-1.113-4.896-.743-.965-1.929-1.41-3.635-1.41-1.706 0-2.968.52-3.784 1.484-.816 1.039-1.261 2.596-1.335 4.822h9.867Zm7.269 10.608v-18.917h2.821v2.597c2.223-1.484 4.523-2.522 6.973-2.968v2.894a23.186 23.186 0 0 0-3.338.964c-1.187.445-2.004.816-2.673 1.113l-.962.519v13.947h-2.821v-.149Zm-77.698 13.029v2.215h-5.3v10.309h-2.559v-10.309h-5.282v-2.215h13.141Zm-14.886 0v12.524h-2.559v-12.524h2.559Zm-5.545 0v12.524h-2.522v-8.349h-.037l-4.338 8.349h-2.268l-4.338-8.349h-.037v8.349h-2.522v-12.524h3.103l4.919 9.547h.036l4.919-9.547h3.085Zm-18.903 0v12.524h-2.522v-8.349h-.037l-4.338 8.349h-2.268l-4.338-8.349h-.037v8.349h-2.522v-12.524h3.103l4.919 9.547h.036l4.919-9.547h3.085Zm-18.824 0v6.298c0 3.975-1.979 6.444-6.407 6.444-4.429 0-6.262-2.233-6.262-6.444v-6.298h2.559v6.298c0 2.777 1.234 4.139 3.866 4.139 2.505 0 3.739-1.398 3.739-4.139v-6.298h2.505Zm-15.075 1.053-.871 1.978c-.581-.326-1.906-1.107-3.866-1.107-1.834 0-2.759.418-2.759 1.235 0 .998.78 1.27 3.575 1.923 2.777.636 4.356 1.761 4.356 3.83 0 2.36-1.96 3.83-5.481 3.83-2.886 0-4.429-.871-5.3-1.434l.89-2.106c.58.4 2.087 1.362 4.319 1.362 1.96 0 2.959-.4 2.959-1.416 0-.889-.726-1.361-3.485-2.033-2.741-.689-4.374-1.615-4.374-3.757 0-2.196 2.051-3.575 5.245-3.575 2.723 0 4.084.835 4.792 1.27Z"/></svg>
