<svg xmlns="http://www.w3.org/2000/svg" width="350" height="350" fill="none" viewBox="0 0 350 350"><mask id="a" width="350" height="353" x="0" y="-2" maskUnits="userSpaceOnUse" style="mask-type:luminance"><path fill="#fff" d="M350-1.08H0v352h350z"/></mask><g mask="url(#a)"><path fill="url(#b)" d="M349.88-1h-350v352h350z"/><g fill="#fff" opacity=".07"><path d="M347.47 234.9c12.2-13.09 24.55-26.05 36.85-39.05 7.76-8.2 15.53-16.41 23.18-24.72 3.58-3.88 7.13-7.79 10.76-11.62 3.19-3.37 7.38-6.78 7.72-11.74.2-2.88-2.14-5.29-3.84-7.34-2.49-3.01-5.84-5.56-8.75-8.2-12.25-11.11-24.28-22.35-36.33-33.68-1.5-1.41-3-2.82-4.5-4.22-3.33-3.11-6.65-6.22-9.98-9.32-39.01-35.77-77.49-72.11-116.43-107.96l-41.33-38.06c-1.08-.99-2.15-1.98-3.23-2.98l-.08-.08c-3.06-2.81-7.26-4.37-11.38-4.19s-7.7 1.92-10.36 4.82L-22.86 157.57l-16.55-15.17c-4.55-4.17-11.69-3.86-15.86.69l-11.3 12.33c-14.09 12.21-14.14 34.86-.07 53.24.42.54 1.17 1.22 1.66 1.68l203.47 186.55c.5.46.91.83 1.48 1.21.66.61 1.17 1.22 1.83 1.83l.83.76c7.86 7.21 18.28 11.12 28.68 10.91 9.76-.34 18.56-4.3 24.86-11.17 24.16-26.36 48.31-52.73 72.43-79.12 23.89-26.14 47.57-52.48 71.58-78.51 2.43-2.63 4.86-5.26 7.3-7.88zM171.78 387.91c-5.98 1.16-12.52-1.33-16.21-6.17-3.7-4.84-4.39-11.8-1.7-17.26 4.66-9.49 18.37-15.31 16.66-25.75-.72-4.4-4.2-7.76-7.49-10.78C106.6 276.23 50.17 224.49-6.26 172.76 59.6 100.87 125.47 28.99 191.33-42.9c68.64 63.22 137.28 126.43 205.92 189.65-.42.45-.84.91-1.25 1.36L188.67 375.87c-4.74 5.21-9.98 10.71-16.9 12.04z"/><path d="m186.77 45.17 66.03 60.54c4.55 4.17 11.69 3.86 15.86-.69s3.86-11.69-.69-15.86l-66.03-60.54c-4.55-4.17-11.69-3.86-15.86.69s-3.86 11.69.69 15.86M265.37 208.61 141.25 94.82c-4.55-4.17-11.69-3.86-15.86.69s-3.86 11.69.69 15.86L250.2 225.16c4.55 4.17 11.69 3.86 15.86-.69s3.86-11.69-.69-15.86M235.02 241.71 110.9 127.92c-4.55-4.17-11.69-3.86-15.86.69s-3.86 11.69.69 15.86l124.12 113.79c4.55 4.17 11.69 3.86 15.86-.69s3.86-11.69-.69-15.86M204.68 274.81 80.56 161.02c-4.55-4.17-11.69-3.86-15.86.69s-3.86 11.69.69 15.86l124.12 113.79c4.55 4.17 11.69 3.86 15.86-.69s3.86-11.69-.69-15.86M155.08 77.04l69.21 63.46c3.81 3.5 10.35 2.63 14.52-1.92s4.47-11.14.65-14.63l-69.21-63.46c-3.81-3.5-10.35-2.63-14.52 1.92s-4.47 11.14-.65 14.63M330.227 146.652l-40.706-37.432a4.82 4.82 0 0 0-6.811.286l-38.649 42.031a4.82 4.82 0 0 0 .285 6.81l40.706 37.432a4.82 4.82 0 0 0 6.811-.286l38.649-42.031a4.82 4.82 0 0 0-.285-6.81"/></g></g><path fill="#fff" d="M59.89 69.94h16.9c4.55 0 7.95.92 10.21 2.76 2.25 1.84 3.38 4.78 3.38 8.81 0 2.64-.42 4.72-1.27 6.24s-2.18 2.77-4 3.77c4.25 1.65 6.37 5.09 6.37 10.33 0 8.41-4.72 12.61-14.17 12.61H59.89V69.93zm16.51 6.24h-9.29v12.74h9.55c4.25 0 6.37-2.19 6.37-6.56q0-6.18-6.63-6.18m.39 18.85h-9.68v13.2h9.81c2.38 0 4.17-.5 5.36-1.5s1.79-2.71 1.79-5.13-.69-4.13-2.08-5.1c-1.39-.98-3.12-1.46-5.2-1.46zM122.88 91.98v14.82c.04.95.29 1.66.75 2.11s1.16.75 2.11.88l-.19 5.4c-3.73 0-6.61-.8-8.65-2.4-3.47 1.6-6.96 2.4-10.46 2.4-6.46 0-9.69-3.44-9.69-10.33 0-3.29.88-5.68 2.63-7.15s4.45-2.36 8.09-2.67l8.38-.71v-2.34c0-1.73-.38-2.95-1.14-3.64s-1.88-1.04-3.35-1.04c-2.77 0-6.24.17-10.4.52l-2.08.13-.26-5c4.72-1.13 9.07-1.69 13.03-1.69s6.83.86 8.58 2.57 2.63 4.43 2.63 8.16zm-14.56 8.06c-2.99.26-4.49 1.88-4.49 4.88s1.32 4.48 3.96 4.48c2.17 0 4.46-.35 6.89-1.04l1.17-.39v-8.65l-7.54.71zM138.87 114.47h-7.08v-32.5h7.02v2.02q4.74-2.73 8.97-2.73c4.33 0 7.29 1.22 8.87 3.67q2.37 3.675 2.37 12.12v17.42H152V97.24c0-3.51-.38-6-1.14-7.48-.76-1.47-2.31-2.21-4.65-2.21-2.21 0-4.33.43-6.37 1.3l-.98.39v25.22zM174.36 114.47h-7.08V68.45h7.08v26.58l4.03-.39 7.67-12.68h7.93l-9.36 15.21 9.88 17.29h-8l-7.93-13.72-4.23.46v13.26zM199.71 76.44v-7.48h7.08v7.48zm0 38.03v-32.5h7.08v32.5zM222.46 114.47h-7.08v-32.5h7.02v2.02q4.74-2.73 8.97-2.73c4.33 0 7.29 1.22 8.87 3.67q2.37 3.675 2.37 12.12v17.42h-7.02V97.24c0-3.51-.38-6-1.14-7.48-.76-1.47-2.31-2.21-4.65-2.21-2.21 0-4.33.43-6.37 1.3l-.98.39v25.22zM279.27 118.89c0 7.11-5.13 10.66-15.41 10.66-4.94 0-8.6-.67-10.99-2.01q-3.57-2.01-3.57-7.35c0-1.6.39-2.98 1.17-4.13s2.04-2.39 3.77-3.74c-1.43-.95-2.14-2.54-2.14-4.75 0-.87.58-2.27 1.75-4.23l.58-.98q-4.68-2.79-4.68-9.75 0-5.85 3.51-8.58c2.34-1.82 5.5-2.73 9.49-2.73 1.91 0 3.79.22 5.66.65l.97.19 10.08-.26v5.72l-5.4-.33c1.17 1.52 1.75 3.29 1.75 5.33 0 4.25-1.07 7.18-3.22 8.81-2.15 1.62-5.49 2.44-10.04 2.44-1.13 0-2.08-.09-2.86-.26-.61 1.47-.91 2.61-.91 3.41s.4 1.35 1.2 1.66c.8.3 2.74.48 5.82.52 5.16.04 8.69.74 10.6 2.08s2.86 3.88 2.86 7.6zm-23.01.65c0 1.52.61 2.6 1.82 3.25s3.29.97 6.24.97c5.24 0 7.87-1.49 7.87-4.48 0-1.69-.47-2.76-1.4-3.22-.93-.45-2.79-.7-5.56-.75l-6.37-.39c-.95.78-1.62 1.5-2.01 2.18-.39.67-.58 1.48-.58 2.44zm1.95-22.52c.95.93 2.49 1.4 4.62 1.4s3.65-.47 4.58-1.4 1.4-2.39 1.4-4.39-.48-3.46-1.43-4.39-2.49-1.4-4.62-1.4c-3.99 0-5.98 1.93-5.98 5.79 0 1.99.48 3.46 1.43 4.39M55.96 148.11h7.61l6.37 38.29h1.37l8.45-38.16h8.45l8.45 38.16h1.43l6.37-38.29h7.61l-8.78 44.53H91.65l-7.67-35.69-7.6 35.69h-11.7l-8.71-44.53zM117.91 154.61v-7.48h7.08v7.48zm0 38.03v-32.5h7.08v32.5zM151.06 166.18h-8.97v14.3c0 2.64.19 4.4.58 5.27s1.39 1.3 2.99 1.3l5.33-.19.33 5.66q-4.35.84-6.63.84c-3.68 0-6.21-.84-7.57-2.53-1.37-1.69-2.05-4.88-2.05-9.56v-15.08h-4.16v-6.04h4.16v-9.43h7.02v9.43h8.97v6.04zM163.93 192.63h-7.08v-46.02h7.08v15.21c3.21-1.6 6.17-2.4 8.91-2.4 4.33 0 7.29 1.22 8.87 3.67q2.37 3.675 2.37 12.12v17.42H177V175.4c0-3.51-.37-6-1.11-7.48-.74-1.47-2.3-2.21-4.68-2.21-2.08 0-4.16.35-6.24 1.04l-1.04.39v25.49M194.12 163.64c2.23-2.82 5.95-4.23 11.15-4.23s8.92 1.41 11.15 4.23 3.35 7.04 3.35 12.67-1.08 9.88-3.25 12.74q-3.255 4.29-11.25 4.29t-11.25-4.29c-2.17-2.86-3.25-7.11-3.25-12.74s1.12-9.86 3.35-12.67m5.3 21.12c1 1.73 2.95 2.6 5.85 2.6s4.85-.87 5.85-2.6q1.5-2.595 1.5-8.52c0-3.95-.53-6.74-1.59-8.39s-2.98-2.47-5.75-2.47-4.69.82-5.75 2.47-1.59 4.44-1.59 8.39.5 6.78 1.5 8.52zM246.48 160.13h7.02v32.5h-7.02v-2.02c-3.16 1.82-6.09 2.73-8.78 2.73-4.46 0-7.45-1.2-8.97-3.61-1.52-2.4-2.28-6.62-2.28-12.64v-16.97h7.08v17.03c0 3.9.33 6.52.98 7.87.65 1.34 2.17 2.01 4.55 2.01s4.49-.43 6.44-1.3l.97-.39v-25.22zM279.56 166.18h-8.97v14.3c0 2.64.19 4.4.58 5.27s1.39 1.3 2.99 1.3l5.33-.19.33 5.66q-4.35.84-6.63.84c-3.68 0-6.21-.84-7.57-2.53-1.37-1.69-2.05-4.88-2.05-9.56v-15.08h-4.16v-6.04h4.16v-9.43h7.02v9.43h8.97v6.04zM94.44 226.27h16.9c4.55 0 7.95.92 10.21 2.76 2.25 1.84 3.38 4.78 3.38 8.81 0 2.64-.42 4.72-1.27 6.24s-2.18 2.77-4 3.77c4.25 1.65 6.37 5.09 6.37 10.33 0 8.41-4.72 12.61-14.17 12.61H94.44v-44.53zm16.51 6.24h-9.29v12.74h9.55c4.25 0 6.37-2.19 6.37-6.56q0-6.18-6.63-6.18m.39 18.85h-9.68v13.2h9.81c2.38 0 4.17-.5 5.36-1.5s1.79-2.71 1.79-5.13-.69-4.13-2.08-5.1c-1.39-.98-3.12-1.46-5.2-1.46zM157.43 248.31v14.82c.04.95.29 1.66.75 2.11s1.16.75 2.11.88l-.19 5.4c-3.73 0-6.61-.8-8.65-2.4-3.47 1.6-6.96 2.4-10.46 2.4-6.46 0-9.69-3.44-9.69-10.33 0-3.29.88-5.68 2.63-7.15s4.45-2.36 8.09-2.67l8.38-.71v-2.34c0-1.73-.38-2.95-1.14-3.64s-1.88-1.04-3.35-1.04c-2.77 0-6.24.17-10.4.52l-2.08.13-.26-5c4.72-1.13 9.07-1.69 13.03-1.69s6.83.86 8.58 2.57 2.63 4.43 2.63 8.16zm-14.56 8.06c-2.99.26-4.49 1.88-4.49 4.88s1.32 4.48 3.96 4.48c2.17 0 4.46-.35 6.89-1.04l1.17-.39v-8.65l-7.54.71zM173.42 270.8h-7.08v-32.5h7.02v2.02q4.74-2.73 8.97-2.73c4.33 0 7.29 1.22 8.87 3.67q2.37 3.675 2.37 12.12v17.42h-7.02v-17.23c0-3.51-.38-6-1.14-7.48-.76-1.47-2.31-2.21-4.65-2.21-2.21 0-4.33.43-6.37 1.3l-.98.39v25.22zM208.91 270.8h-7.08v-46.02h7.08v26.58l4.03-.39 7.67-12.68h7.93l-9.36 15.21 9.88 17.29h-8l-7.93-13.72-4.23.46v13.26zM256.81 244.99c-5.11-.69-8.82-1.04-11.12-1.04s-3.89.27-4.78.81-1.33 1.4-1.33 2.57.49 1.99 1.46 2.47 3.27 1.03 6.89 1.66 6.19 1.61 7.7 2.96c1.52 1.34 2.27 3.73 2.27 7.15s-1.09 5.94-3.28 7.54-5.38 2.4-9.59 2.4c-2.64 0-5.98-.37-10.01-1.1l-2.02-.32.26-5.92c5.2.69 8.95 1.04 11.25 1.04s3.93-.28 4.91-.84c.97-.56 1.46-1.5 1.46-2.79s-.47-2.2-1.4-2.7-3.16-1.04-6.7-1.62c-3.53-.58-6.12-1.51-7.77-2.76-1.65-1.26-2.47-3.55-2.47-6.89s1.14-5.83 3.41-7.48c2.28-1.65 5.19-2.47 8.74-2.47 2.77 0 6.18.35 10.21 1.04l2.02.39-.13 5.92z"/><defs><linearGradient id="b" x1="-.12" x2="349.88" y1="175" y2="175" gradientUnits="userSpaceOnUse"><stop stop-color="#6500d5"/><stop offset="1" stop-color="#b171ff"/></linearGradient></defs></svg>