<svg xmlns="http://www.w3.org/2000/svg" id="Layer_2" data-name="Layer 2" viewBox="0 0 1100 600"><defs><linearGradient id="linear-gradient" x1="10164.16" x2="11283.41" y1="-3135.62" y2="-3135.62" gradientTransform="translate(-10173.79 3435.62)" gradientUnits="userSpaceOnUse"><stop offset="0" stop-color="#6500d5"/><stop offset="1" stop-color="#b171ff"/></linearGradient><clipPath id="clippath"><path d="M-.38-.58h1101v601H-.38z" style="fill:none;stroke-width:0"/></clipPath><style>.cls-4{stroke-width:0;fill:#fff}</style></defs><g style="clip-path:url(#clippath)"><path d="M1109.62-14.96H-9.62v629.92h1119.25V-14.96Z" style="stroke-width:0;fill:url(#linear-gradient)"/><g style="opacity:.07"><path d="M1182.22 385.06c39.15-42.01 78.76-83.57 118.23-125.28 24.91-26.32 49.82-52.64 74.37-79.3 11.48-12.46 22.89-24.98 34.54-37.28 10.25-10.82 23.68-21.74 24.77-37.66.64-9.23-6.88-16.97-12.31-23.54-8-9.67-18.74-17.84-28.09-26.32-39.29-35.66-77.9-71.71-116.55-108.06-4.81-4.52-9.62-9.04-14.45-13.55-10.67-9.97-21.35-19.94-32.02-29.91-125.16-114.75-248.6-231.35-373.52-346.36-44.2-40.7-88.4-81.39-132.6-122.09-3.46-3.18-6.91-6.36-10.37-9.55l-.27-.24c-9.82-9.01-23.3-14.03-36.52-13.45-13.23.57-24.71 6.17-33.23 15.46L-5.86 136.97l-53.09-48.68c-14.6-13.39-37.5-12.39-50.88 2.21l-36.26 39.55c-45.2 39.18-45.36 111.83-.24 170.79 1.35 1.73 3.74 3.92 5.33 5.38l652.76 598.47c1.59 1.46 2.92 2.68 4.76 3.87 2.12 1.95 3.74 3.92 5.86 5.86l2.65 2.43c25.22 23.12 58.65 35.69 92.01 35.01 31.3-1.1 59.56-13.8 79.76-35.83 77.52-84.55 154.98-169.16 232.36-253.84 76.64-83.87 152.6-168.35 229.63-251.86 7.79-8.44 15.6-16.87 23.43-25.27M618.57 875.95c-19.18 3.71-40.15-4.27-52.02-19.79s-14.07-37.84-5.47-55.38c14.94-30.46 58.92-49.12 53.46-82.6-2.31-14.13-13.48-24.91-24.03-34.58C409.47 517.63 228.43 351.66 47.39 185.7L681.3-506.17c220.21 202.81 440.42 405.62 660.63 608.42-1.35 1.46-2.68 2.92-4.01 4.37C1116.2 350.18 894.49 593.74 672.78 837.3c-15.22 16.71-32.02 34.35-54.21 38.64Z" class="cls-4"/><path d="M918.83 300.71 520.64-64.36c-14.6-13.39-37.5-12.39-50.88 2.21-13.39 14.6-12.39 37.5 2.21 50.88L870.16 353.8c14.6 13.39 37.5 12.39 50.88-2.21 13.39-14.6 12.39-37.5-2.21-50.88M821.47 406.89 423.28 41.82c-14.6-13.39-37.5-12.39-50.88 2.21-13.39 14.6-12.39 37.5 2.21 50.88L772.8 459.98c14.6 13.39 37.5 12.39 50.88-2.21 13.39-14.6 12.39-37.5-2.21-50.88M724.12 513.08 325.93 148.01c-14.6-13.39-37.5-12.39-50.88 2.21-13.39 14.6-12.39 37.5 2.21 50.88l398.19 365.07c14.6 13.39 37.5 12.39 50.88-2.21 13.39-14.6 12.39-37.5-2.21-50.88M565.02-121.4 787.07 82.18c12.24 11.22 33.2 8.45 46.59-6.15s14.33-35.73 2.09-46.94L613.7-174.49c-12.24-11.22-33.2-8.45-46.59 6.15s-14.33 35.73-2.09 46.94" class="cls-4"/><rect width="208.34" height="214.12" x="884.93" y="13.67" class="cls-4" rx="4.82" ry="4.82" transform="rotate(42.6 989.164 120.77)"/></g></g><path d="M228.96 194.94h16.9c4.55 0 7.95.92 10.21 2.76 2.25 1.84 3.38 4.78 3.38 8.81 0 2.64-.42 4.72-1.27 6.24s-2.18 2.77-4 3.77c4.25 1.65 6.37 5.09 6.37 10.33 0 8.41-4.72 12.61-14.17 12.61h-17.42v-44.53Zm16.51 6.24h-9.29v12.74h9.55c4.25 0 6.37-2.19 6.37-6.56q0-6.18-6.63-6.18m.39 18.85h-9.68v13.2h9.81c2.38 0 4.17-.5 5.36-1.5s1.79-2.71 1.79-5.13-.69-4.13-2.08-5.1c-1.39-.98-3.12-1.46-5.2-1.46ZM291.95 216.98v14.82c.04.95.29 1.66.75 2.11s1.16.75 2.11.88l-.19 5.4c-3.73 0-6.61-.8-8.65-2.4-3.47 1.6-6.96 2.4-10.46 2.4-6.46 0-9.69-3.44-9.69-10.33 0-3.29.88-5.68 2.63-7.15s4.45-2.36 8.09-2.67l8.38-.71v-2.34c0-1.73-.38-2.95-1.14-3.64s-1.88-1.04-3.35-1.04c-2.77 0-6.24.17-10.4.52l-2.08.13-.26-5c4.72-1.13 9.07-1.69 13.03-1.69s6.83.86 8.58 2.57 2.63 4.43 2.63 8.16Zm-14.56 8.06c-2.99.26-4.49 1.88-4.49 4.88s1.32 4.48 3.96 4.48c2.17 0 4.46-.35 6.89-1.04l1.17-.39v-8.65l-7.54.71ZM307.94 239.47h-7.08v-32.5h7.02v2.02q4.74-2.73 8.97-2.73c4.33 0 7.29 1.22 8.87 3.67q2.37 3.675 2.37 12.12v17.42h-7.02v-17.23c0-3.51-.38-6-1.14-7.48-.76-1.47-2.31-2.21-4.65-2.21-2.21 0-4.33.43-6.37 1.3l-.98.39v25.22ZM343.43 239.47h-7.08v-46.02h7.08v26.58l4.03-.39 7.67-12.68h7.93l-9.36 15.21 9.88 17.29h-8l-7.93-13.72-4.23.46v13.26ZM368.78 201.44v-7.48h7.08v7.48zm0 38.03v-32.5h7.08v32.5zM391.53 239.47h-7.08v-32.5h7.02v2.02q4.74-2.73 8.97-2.73c4.33 0 7.29 1.22 8.87 3.67q2.37 3.675 2.37 12.12v17.42h-7.02v-17.23c0-3.51-.38-6-1.14-7.48-.76-1.47-2.31-2.21-4.65-2.21-2.21 0-4.33.43-6.37 1.3l-.98.39v25.22ZM448.34 243.89c0 7.11-5.13 10.66-15.41 10.66-4.94 0-8.6-.67-10.99-2.01q-3.57-2.01-3.57-7.35c0-1.6.39-2.98 1.17-4.13s2.04-2.39 3.77-3.74c-1.43-.95-2.14-2.54-2.14-4.75 0-.87.58-2.27 1.75-4.23l.58-.98q-4.68-2.79-4.68-9.75 0-5.85 3.51-8.58c2.34-1.82 5.5-2.73 9.49-2.73 1.91 0 3.79.22 5.66.65l.97.19 10.08-.26v5.72l-5.4-.33c1.17 1.52 1.75 3.29 1.75 5.33 0 4.25-1.07 7.18-3.22 8.81-2.15 1.62-5.49 2.44-10.04 2.44-1.13 0-2.08-.09-2.86-.26-.61 1.47-.91 2.61-.91 3.41s.4 1.35 1.2 1.66c.8.3 2.74.48 5.82.52 5.16.04 8.69.74 10.6 2.08s2.86 3.88 2.86 7.6Zm-23.01.65c0 1.52.61 2.6 1.82 3.25s3.29.97 6.24.97c5.24 0 7.87-1.49 7.87-4.48 0-1.69-.47-2.76-1.4-3.22-.93-.45-2.79-.7-5.56-.75l-6.37-.39c-.95.78-1.62 1.5-2.01 2.18-.39.67-.58 1.48-.58 2.44Zm1.95-22.52c.95.93 2.49 1.4 4.62 1.4s3.65-.47 4.58-1.4 1.4-2.39 1.4-4.39-.48-3.46-1.43-4.39-2.49-1.4-4.62-1.4c-3.99 0-5.98 1.93-5.98 5.79 0 1.99.48 3.46 1.43 4.39M465.63 194.94h7.61l6.37 38.29h1.37l8.45-38.16h8.45l8.45 38.16h1.43l6.37-38.29h7.61l-8.78 44.53h-11.64l-7.67-35.69-7.6 35.69h-11.7l-8.71-44.53ZM527.57 201.44v-7.48h7.08v7.48zm0 38.03v-32.5h7.08v32.5zM560.73 213.01h-8.97v14.3c0 2.64.19 4.4.58 5.27s1.39 1.3 2.99 1.3l5.33-.19.33 5.66q-4.35.84-6.63.84c-3.68 0-6.21-.84-7.57-2.53-1.37-1.69-2.05-4.88-2.05-9.56v-15.08h-4.16v-6.04h4.16v-9.43h7.02v9.43h8.97v6.04ZM573.59 239.47h-7.08v-46.02h7.08v15.21c3.21-1.6 6.17-2.4 8.91-2.4 4.33 0 7.29 1.22 8.87 3.67q2.37 3.675 2.37 12.12v17.42h-7.08v-17.23c0-3.51-.37-6-1.11-7.48-.74-1.47-2.3-2.21-4.68-2.21-2.08 0-4.16.35-6.24 1.04l-1.04.39v25.48ZM603.79 210.48c2.23-2.82 5.95-4.23 11.15-4.23s8.92 1.41 11.15 4.23 3.35 7.04 3.35 12.67-1.08 9.88-3.25 12.74q-3.255 4.29-11.25 4.29c-7.995 0-9.08-1.43-11.25-4.29s-3.25-7.11-3.25-12.74 1.12-9.86 3.35-12.67m5.3 21.12c1 1.73 2.95 2.6 5.85 2.6s4.85-.87 5.85-2.6q1.5-2.595 1.5-8.52c0-5.925-.53-6.74-1.59-8.39s-2.98-2.47-5.75-2.47-4.69.82-5.75 2.47-1.59 4.44-1.59 8.39.5 6.78 1.5 8.52ZM656.15 206.96h7.02v32.5h-7.02v-2.02c-3.16 1.82-6.09 2.73-8.78 2.73-4.46 0-7.45-1.2-8.97-3.61-1.52-2.4-2.28-6.62-2.28-12.64v-16.97h7.08v17.03c0 3.9.33 6.52.98 7.87.65 1.34 2.17 2.01 4.55 2.01s4.49-.43 6.44-1.3l.97-.39v-25.22ZM689.23 213.01h-8.97v14.3c0 2.64.19 4.4.58 5.27s1.39 1.3 2.99 1.3l5.33-.19.33 5.66q-4.35.84-6.63.84c-3.68 0-6.21-.84-7.57-2.53-1.37-1.69-2.05-4.88-2.05-9.56v-15.08h-4.16v-6.04h4.16v-9.43h7.02v9.43h8.97v6.04ZM710.16 194.94h16.9c4.55 0 7.95.92 10.21 2.76 2.25 1.84 3.38 4.78 3.38 8.81 0 2.64-.42 4.72-1.27 6.24s-2.18 2.77-4 3.77c4.25 1.65 6.37 5.09 6.37 10.33 0 8.41-4.72 12.61-14.17 12.61h-17.42v-44.53Zm16.51 6.24h-9.29v12.74h9.55c4.25 0 6.37-2.19 6.37-6.56q0-6.18-6.63-6.18m.39 18.85h-9.68v13.2h9.81c2.38 0 4.17-.5 5.36-1.5s1.79-2.71 1.79-5.13-.69-4.13-2.08-5.1c-1.39-.98-3.12-1.46-5.2-1.46ZM773.15 216.98v14.82c.04.95.29 1.66.75 2.11s1.16.75 2.11.88l-.19 5.4c-3.73 0-6.61-.8-8.65-2.4-3.47 1.6-6.96 2.4-10.46 2.4-6.46 0-9.69-3.44-9.69-10.33 0-3.29.88-5.68 2.63-7.15s4.45-2.36 8.09-2.67l8.38-.71v-2.34c0-1.73-.38-2.95-1.14-3.64s-1.88-1.04-3.35-1.04c-2.77 0-6.24.17-10.4.52l-2.08.13-.26-5c4.72-1.13 9.07-1.69 13.03-1.69s6.83.86 8.58 2.57 2.63 4.43 2.63 8.16Zm-14.56 8.06c-2.99.26-4.49 1.88-4.49 4.88s1.32 4.48 3.96 4.48c2.17 0 4.46-.35 6.89-1.04l1.17-.39v-8.65l-7.54.71ZM789.13 239.47h-7.08v-32.5h7.02v2.02q4.74-2.73 8.97-2.73c4.33 0 7.29 1.22 8.87 3.67q2.37 3.675 2.37 12.12v17.42h-7.02v-17.23c0-3.51-.38-6-1.14-7.48-.76-1.47-2.31-2.21-4.65-2.21-2.21 0-4.33.43-6.37 1.3l-.98.39v25.22ZM824.62 239.47h-7.08v-46.02h7.08v26.58l4.03-.39 7.67-12.68h7.93l-9.36 15.21 9.88 17.29h-8l-7.93-13.72-4.23.46v13.26ZM872.53 213.66c-5.11-.69-8.82-1.04-11.12-1.04s-3.89.27-4.78.81-1.33 1.4-1.33 2.57.49 1.99 1.46 2.47 3.27 1.03 6.89 1.66 6.19 1.61 7.7 2.96c1.52 1.34 2.27 3.73 2.27 7.15s-1.09 5.94-3.28 7.54-5.38 2.4-9.59 2.4c-2.64 0-5.98-.37-10.01-1.1l-2.02-.32.26-5.92c5.2.69 8.95 1.04 11.25 1.04s3.93-.28 4.91-.84c.97-.56 1.46-1.5 1.46-2.79s-.47-2.2-1.4-2.7-3.16-1.04-6.7-1.62c-3.53-.58-6.12-1.51-7.77-2.76-1.65-1.26-2.47-3.55-2.47-6.89s1.14-5.83 3.41-7.48c2.28-1.65 5.19-2.47 8.74-2.47 2.77 0 6.18.35 10.21 1.04l2.02.39-.13 5.92ZM135.24 273.11h7.61l6.37 38.29h1.37l8.45-38.16h8.45l8.45 38.16h1.43l6.37-38.29h7.61l-8.78 44.53h-11.64l-7.67-35.69-7.6 35.69h-11.7l-8.71-44.53ZM204.27 317.63h-7.08v-46.02h7.08v15.21c3.21-1.6 6.17-2.4 8.91-2.4 4.33 0 7.29 1.22 8.87 3.67q2.37 3.675 2.37 12.12v17.42h-7.08V300.4c0-3.51-.37-6-1.11-7.48-.74-1.47-2.3-2.21-4.68-2.21-2.08 0-4.16.35-6.24 1.04l-1.04.39v25.48ZM256.72 295.14v14.82c.04.95.29 1.66.75 2.11s1.16.75 2.11.88l-.19 5.4c-3.73 0-6.61-.8-8.65-2.4-3.47 1.6-6.96 2.4-10.46 2.4-6.46 0-9.69-3.44-9.69-10.33 0-3.29.88-5.68 2.63-7.15s4.45-2.36 8.09-2.67l8.38-.71v-2.34c0-1.73-.38-2.95-1.14-3.64s-1.88-1.04-3.35-1.04c-2.77 0-6.24.17-10.4.52l-2.08.13-.26-5c4.72-1.13 9.07-1.69 13.03-1.69s6.83.86 8.58 2.57 2.63 4.43 2.63 8.16Zm-14.56 8.06c-2.99.26-4.49 1.88-4.49 4.88s1.32 4.48 3.96 4.48c2.17 0 4.46-.35 6.89-1.04l1.17-.39v-8.65l-7.54.71ZM283.11 291.18h-8.97v14.3c0 2.64.19 4.4.58 5.27s1.39 1.3 2.99 1.3l5.33-.19.33 5.66q-4.35.84-6.63.84c-3.68 0-6.21-.84-7.57-2.53-1.37-1.69-2.05-4.88-2.05-9.56v-15.08h-4.16v-6.04h4.16v-9.43h7.02v9.43h8.97v6.04ZM300.2 317.63l10.99-44.53h14.37l11.05 44.53h-7.28l-2.41-9.56h-17.1l-2.4 9.56zm16.58-38.48-5.52 22.56h14.23l-5.46-22.56zM350.13 291.18v26.46h-7.02v-26.46h-3.77v-6.04h3.77v-2.08c0-4.64.67-7.82 2.01-9.56 1.34-1.73 3.73-2.6 7.15-2.6l7.02.65-.07 5.79c-2.12-.09-3.89-.13-5.3-.13s-2.39.42-2.96 1.27c-.56.84-.84 2.4-.84 4.65v2.02h8.58v6.04h-8.58ZM364.1 317.63v-32.5h7.02v3.9c3.68-2.38 7.37-3.92 11.05-4.61v7.08c-3.73.74-6.91 1.69-9.55 2.86l-1.43.58v22.69h-7.08ZM387.57 279.61v-7.48h7.08v7.48zm0 38.03v-32.5h7.08v32.5zM415.39 284.42c2.3 0 5 .3 8.12.91l1.62.33-.26 5.59c-3.42-.35-5.96-.52-7.61-.52-3.29 0-5.5.74-6.63 2.21s-1.69 4.25-1.69 8.32.54 6.89 1.62 8.45 3.34 2.34 6.76 2.34l7.6-.52.2 5.65c-4.38.78-7.67 1.17-9.88 1.17-4.94 0-8.42-1.33-10.43-4-2.02-2.67-3.02-7.03-3.02-13.1s1.06-10.39 3.18-12.97 5.59-3.87 10.4-3.87ZM456.01 295.14v14.82c.04.95.29 1.66.75 2.11s1.16.75 2.11.88l-.19 5.4c-3.73 0-6.61-.8-8.65-2.4-3.47 1.6-6.96 2.4-10.46 2.4-6.46 0-9.69-3.44-9.69-10.33 0-3.29.88-5.68 2.63-7.15s4.45-2.36 8.09-2.67l8.38-.71v-2.34c0-1.73-.38-2.95-1.14-3.64s-1.88-1.04-3.35-1.04c-2.77 0-6.24.17-10.4.52l-2.08.13-.26-5c4.72-1.13 9.07-1.69 13.03-1.69s6.83.86 8.58 2.57 2.63 4.43 2.63 8.16Zm-14.56 8.06c-2.99.26-4.49 1.88-4.49 4.88s1.32 4.48 3.96 4.48c2.17 0 4.46-.35 6.89-1.04l1.17-.39v-8.65l-7.54.71ZM495.01 318.35q-9.75 0-13.23-5.4c-2.32-3.6-3.48-9.51-3.48-17.75s1.17-14.09 3.51-17.58 6.74-5.23 13.2-5.23c3.86 0 8.1.54 12.74 1.62l-.26 5.85c-3.9-.69-7.8-1.04-11.7-1.04s-6.54 1.16-7.93 3.48-2.08 6.67-2.08 13.07.67 10.75 2.01 13.06c1.34 2.32 3.96 3.48 7.87 3.48s7.84-.32 11.83-.98l.2 5.98c-4.46.95-8.69 1.43-12.68 1.43ZM538.63 295.14v14.82c.04.95.29 1.66.75 2.11s1.16.75 2.11.88l-.19 5.4c-3.73 0-6.61-.8-8.65-2.4-3.47 1.6-6.96 2.4-10.46 2.4-6.46 0-9.69-3.44-9.69-10.33 0-3.29.88-5.68 2.63-7.15s4.45-2.36 8.09-2.67l8.38-.71v-2.34c0-1.73-.38-2.95-1.14-3.64s-1.88-1.04-3.35-1.04c-2.77 0-6.24.17-10.4.52l-2.08.13-.26-5c4.72-1.13 9.07-1.69 13.03-1.69s6.83.86 8.58 2.57 2.63 4.43 2.63 8.16Zm-14.56 8.06c-2.99.26-4.49 1.88-4.49 4.88s1.32 4.48 3.96 4.48c2.17 0 4.46-.35 6.89-1.04l1.17-.39v-8.65l-7.54.71ZM554.61 317.63h-7.08v-32.5h7.02v2.02q4.74-2.73 8.97-2.73c4.33 0 7.29 1.22 8.87 3.67q2.37 3.675 2.37 12.12v17.42h-7.02V300.4c0-3.51-.38-6-1.14-7.48-.76-1.47-2.31-2.21-4.65-2.21-2.21 0-4.33.43-6.37 1.3l-.98.39v25.22ZM593.87 279.54v-6.44h32.5v6.44h-12.54v38.09h-7.28v-38.09zM649.51 311.78l1.82-.19.13 5.27c-4.94 1-9.32 1.49-13.13 1.49-4.81 0-8.27-1.32-10.37-3.96s-3.15-6.87-3.15-12.68c0-11.53 4.7-17.29 14.1-17.29s13.65 4.96 13.65 14.89l-.46 5.07h-20.15c.04 2.69.63 4.66 1.75 5.92 1.13 1.26 3.23 1.89 6.31 1.89s6.24-.13 9.49-.39Zm-3.9-12.87c0-3.21-.51-5.45-1.53-6.73s-2.74-1.92-5.17-1.92-4.19.67-5.3 2.01-1.68 3.55-1.72 6.63h13.71ZM683.44 295.14v14.82c.04.95.29 1.66.75 2.11s1.16.75 2.11.88l-.19 5.4c-3.73 0-6.61-.8-8.65-2.4-3.47 1.6-6.96 2.4-10.46 2.4-6.46 0-9.69-3.44-9.69-10.33 0-3.29.88-5.68 2.63-7.15s4.45-2.36 8.09-2.67l8.38-.71v-2.34c0-1.73-.38-2.95-1.14-3.64s-1.88-1.04-3.35-1.04c-2.77 0-6.24.17-10.4.52l-2.08.13-.26-5c4.72-1.13 9.07-1.69 13.03-1.69s6.83.86 8.58 2.57 2.63 4.43 2.63 8.16Zm-14.56 8.06c-2.99.26-4.49 1.88-4.49 4.88s1.32 4.48 3.96 4.48c2.17 0 4.46-.35 6.89-1.04l1.17-.39v-8.65l-7.54.71ZM704.5 284.42c2.3 0 5 .3 8.12.91l1.62.33-.26 5.59c-3.42-.35-5.96-.52-7.61-.52-3.29 0-5.5.74-6.63 2.21s-1.69 4.25-1.69 8.32.54 6.89 1.62 8.45 3.34 2.34 6.76 2.34l7.6-.52.2 5.65c-4.38.78-7.67 1.17-9.88 1.17-4.94 0-8.42-1.33-10.43-4-2.02-2.67-3.02-7.03-3.02-13.1s1.06-10.39 3.18-12.97 5.59-3.87 10.4-3.87ZM728.16 317.63h-7.08v-46.02h7.08v15.21c3.21-1.6 6.17-2.4 8.91-2.4 4.33 0 7.29 1.22 8.87 3.67q2.37 3.675 2.37 12.12v17.42h-7.08V300.4c0-3.51-.37-6-1.11-7.48-.74-1.47-2.3-2.21-4.68-2.21-2.08 0-4.16.35-6.24 1.04l-1.04.39v25.48ZM788.35 291.18h-8.97v14.3c0 2.64.19 4.4.58 5.27s1.39 1.3 2.99 1.3l5.33-.19.33 5.66q-4.35.84-6.63.84c-3.68 0-6.21-.84-7.57-2.53-1.37-1.69-2.05-4.88-2.05-9.56v-15.08h-4.16v-6.04h4.16v-9.43h7.02v9.43h8.97v6.04ZM801.22 317.63h-7.08v-46.02h7.08v15.21c3.21-1.6 6.17-2.4 8.91-2.4 4.33 0 7.29 1.22 8.87 3.67q2.37 3.675 2.37 12.12v17.42h-7.08V300.4c0-3.51-.37-6-1.11-7.48-.74-1.47-2.3-2.21-4.68-2.21-2.08 0-4.16.35-6.24 1.04l-1.04.39v25.48ZM852.77 311.78l1.82-.19.13 5.27c-4.94 1-9.32 1.49-13.13 1.49-4.81 0-8.27-1.32-10.37-3.96s-3.15-6.87-3.15-12.68c0-11.53 4.7-17.29 14.1-17.29s13.65 4.96 13.65 14.89l-.46 5.07h-20.15c.04 2.69.63 4.66 1.75 5.92 1.13 1.26 3.23 1.89 6.31 1.89s6.24-.13 9.49-.39Zm-3.9-12.87c0-3.21-.51-5.45-1.53-6.73s-2.74-1.92-5.17-1.92-4.19.67-5.3 2.01-1.68 3.55-1.72 6.63h13.71ZM884.68 303.4c0 5.76 3.03 8.65 9.1 8.65s9.1-2.88 9.1-8.65v-30.29h7.28v30.16c0 5.24-1.38 9.07-4.13 11.47-2.75 2.41-6.85 3.61-12.29 3.61s-9.52-1.2-12.25-3.61c-2.73-2.4-4.09-6.23-4.09-11.47v-30.16h7.28zM918.22 317.63v-9.36h7.61v9.36zM947.99 278.7q-8.25 0-8.25 5.79 0 2.985 1.95 4.26t8.61 3.12c4.44 1.23 7.57 2.71 9.39 4.42s2.73 4.41 2.73 8.09c0 4.68-1.33 8.18-4 10.5s-6.29 3.48-10.89 3.48c-3.68 0-7.76-.43-12.22-1.3l-2.34-.46.72-5.79c5.85.78 10.31 1.17 13.39 1.17 5.37 0 8.06-2.38 8.06-7.15 0-1.86-.61-3.24-1.82-4.13s-3.94-1.86-8.19-2.93c-4.25-1.06-7.41-2.52-9.49-4.39-2.08-1.86-3.12-4.81-3.12-8.84s1.31-7.07 3.93-9.13q3.93-3.09 10.89-3.09c3.34 0 7.28.39 11.83 1.17l2.27.39-.58 5.85c-6.07-.69-10.36-1.04-12.87-1.04ZM969.05 317.63v-9.36h7.61v9.36zM235.01 395.8 246 351.27h14.37l11.05 44.53h-7.28l-2.41-9.56h-17.1l-2.4 9.56zm16.58-38.48-5.52 22.56h14.23l-5.46-22.56zM292.08 362.58c4.46 0 7.68 1.25 9.65 3.74s2.96 6.9 2.96 13.23-1.17 10.74-3.51 13.23-6.46 3.74-12.35 3.74c-2.04 0-5.27-.19-9.69-.58l-2.21-.19v-45.96h7.02v14.75c2.99-1.3 5.7-1.95 8.12-1.95Zm-3.25 27.62c3.47 0 5.77-.81 6.92-2.44s1.72-4.39 1.72-8.29-.49-6.64-1.46-8.22c-.98-1.58-2.57-2.37-4.78-2.37-2.08 0-4.16.33-6.24.98l-1.04.33v19.76c2.38.17 4.01.26 4.88.26ZM313.56 366.81c2.23-2.82 5.95-4.23 11.15-4.23s8.92 1.41 11.15 4.23 3.35 7.04 3.35 12.67-1.08 9.88-3.25 12.74q-3.255 4.29-11.25 4.29c-7.995 0-9.08-1.43-11.25-4.29s-3.25-7.11-3.25-12.74 1.12-9.86 3.35-12.67m5.3 21.12c1 1.73 2.95 2.6 5.85 2.6s4.85-.87 5.85-2.6q1.5-2.595 1.5-8.52c0-5.925-.53-6.74-1.59-8.39s-2.98-2.47-5.75-2.47-4.69.82-5.75 2.47-1.59 4.44-1.59 8.39.5 6.78 1.5 8.52ZM365.92 363.3h7.02v32.5h-7.02v-2.02c-3.16 1.82-6.09 2.73-8.78 2.73-4.46 0-7.45-1.2-8.97-3.61-1.52-2.4-2.28-6.62-2.28-12.64v-16.97h7.08v17.03c0 3.9.33 6.52.98 7.87.65 1.34 2.17 2.01 4.55 2.01s4.49-.43 6.44-1.3l.97-.39v-25.22ZM399.01 369.34h-8.97v14.3c0 2.64.19 4.4.58 5.27s1.39 1.3 2.99 1.3l5.33-.19.33 5.66q-4.35.84-6.63.84c-3.68 0-6.21-.84-7.57-2.53-1.37-1.69-2.05-4.88-2.05-9.56v-15.08h-4.16v-6.04h4.16v-9.43h7.02v9.43h8.97v6.04ZM419.94 395.8v-44.53h27.63v6.31h-20.41v15.02h16.96v6.31h-16.96v16.9h-7.22ZM453.48 357.77v-7.48h7.08v7.48zm0 38.03v-32.5h7.08v32.5zM476.23 395.8h-7.08v-32.5h7.02v2.02q4.74-2.73 8.97-2.73c4.33 0 7.29 1.22 8.87 3.67q2.37 3.675 2.37 12.12v17.42h-7.02v-17.23c0-3.51-.38-6-1.14-7.48-.76-1.47-2.31-2.21-4.65-2.21-2.21 0-4.33.43-6.37 1.3l-.98.39v25.22ZM528.68 373.31v14.82c.04.95.29 1.66.75 2.11s1.16.75 2.11.88l-.19 5.4c-3.73 0-6.61-.8-8.65-2.4-3.47 1.6-6.96 2.4-10.46 2.4-6.46 0-9.69-3.44-9.69-10.33 0-3.29.88-5.68 2.63-7.15s4.45-2.36 8.09-2.67l8.38-.71v-2.34c0-1.73-.38-2.95-1.14-3.64s-1.88-1.04-3.35-1.04c-2.77 0-6.24.17-10.4.52l-2.08.13-.26-5c4.72-1.13 9.07-1.69 13.03-1.69s6.83.86 8.58 2.57 2.63 4.43 2.63 8.16Zm-14.56 8.06c-2.99.26-4.49 1.88-4.49 4.88s1.32 4.48 3.96 4.48c2.17 0 4.46-.35 6.89-1.04l1.17-.39v-8.65l-7.54.71ZM544.67 395.8h-7.08v-32.5h7.02v2.02q4.74-2.73 8.97-2.73c4.33 0 7.29 1.22 8.87 3.67q2.37 3.675 2.37 12.12v17.42h-7.02v-17.23c0-3.51-.38-6-1.14-7.48-.76-1.47-2.31-2.21-4.65-2.21-2.21 0-4.33.43-6.37 1.3l-.98.39v25.22ZM585.23 362.58c2.3 0 5 .3 8.12.91l1.62.33-.26 5.59c-3.42-.35-5.96-.52-7.61-.52-3.29 0-5.5.74-6.63 2.21s-1.69 4.25-1.69 8.32.54 6.89 1.62 8.45 3.34 2.34 6.76 2.34l7.6-.52.2 5.65c-4.38.78-7.67 1.17-9.88 1.17-4.94 0-8.42-1.33-10.43-4-2.02-2.67-3.02-7.03-3.02-13.1s1.06-10.39 3.18-12.97 5.59-3.87 10.4-3.87ZM601.8 357.77v-7.48h7.08v7.48zm0 38.03v-32.5h7.08v32.5zM641.52 373.31v14.82c.04.95.29 1.66.75 2.11s1.16.75 2.11.88l-.19 5.4c-3.73 0-6.61-.8-8.65-2.4-3.47 1.6-6.96 2.4-10.46 2.4-6.46 0-9.69-3.44-9.69-10.33 0-3.29.88-5.68 2.63-7.15s4.45-2.36 8.09-2.67l8.38-.71v-2.34c0-1.73-.38-2.95-1.14-3.64s-1.88-1.04-3.35-1.04c-2.77 0-6.24.17-10.4.52l-2.08.13-.26-5c4.72-1.13 9.07-1.69 13.03-1.69s6.83.86 8.58 2.57 2.63 4.43 2.63 8.16Zm-14.56 8.06c-2.99.26-4.49 1.88-4.49 4.88s1.32 4.48 3.96 4.48c2.17 0 4.46-.35 6.89-1.04l1.17-.39v-8.65l-7.54.71ZM650.81 395.8v-46.02h7.09v46.02zM678.18 395.8l10.99-44.53h14.37l11.05 44.53h-7.28l-2.41-9.56h-17.1l-2.4 9.56zm16.58-38.48-5.52 22.56h14.23l-5.46-22.56zM731.94 362.58c2.3 0 5 .3 8.12.91l1.62.33-.26 5.59c-3.42-.35-5.96-.52-7.61-.52-3.29 0-5.5.74-6.63 2.21s-1.69 4.25-1.69 8.32.54 6.89 1.62 8.45 3.34 2.34 6.76 2.34l7.6-.52.2 5.65c-4.38.78-7.67 1.17-9.88 1.17-4.94 0-8.42-1.33-10.43-4-2.02-2.67-3.02-7.03-3.02-13.1s1.06-10.39 3.18-12.97 5.59-3.87 10.4-3.87ZM760.34 362.58c2.3 0 5 .3 8.12.91l1.62.33-.26 5.59c-3.42-.35-5.96-.52-7.61-.52-3.29 0-5.5.74-6.63 2.21s-1.69 4.25-1.69 8.32.54 6.89 1.62 8.45 3.34 2.34 6.76 2.34l7.6-.52.2 5.65c-4.38.78-7.67 1.17-9.88 1.17-4.94 0-8.42-1.33-10.43-4-2.02-2.67-3.02-7.03-3.02-13.1s1.06-10.39 3.18-12.97 5.59-3.87 10.4-3.87ZM799.73 389.95l1.82-.19.13 5.27c-4.94 1-9.32 1.49-13.13 1.49-4.81 0-8.27-1.32-10.37-3.96s-3.15-6.87-3.15-12.68c0-11.53 4.7-17.29 14.1-17.29s13.65 4.96 13.65 14.89l-.46 5.07h-20.15c.04 2.69.63 4.66 1.75 5.92 1.13 1.26 3.23 1.89 6.31 1.89s6.24-.13 9.49-.39Zm-3.9-12.87c0-3.21-.51-5.45-1.53-6.73s-2.74-1.92-5.17-1.92-4.19.67-5.3 2.01-1.68 3.55-1.72 6.63h13.71ZM832.17 369.99c-5.11-.69-8.82-1.04-11.12-1.04s-3.89.27-4.78.81-1.33 1.4-1.33 2.57.49 1.99 1.46 2.47 3.27 1.03 6.89 1.66 6.19 1.61 7.7 2.96c1.52 1.34 2.27 3.73 2.27 7.15s-1.09 5.94-3.28 7.54-5.38 2.4-9.59 2.4c-2.64 0-5.98-.37-10.01-1.1l-2.02-.32.26-5.92c5.2.69 8.95 1.04 11.25 1.04s3.93-.28 4.91-.84c.97-.56 1.46-1.5 1.46-2.79s-.47-2.2-1.4-2.7-3.16-1.04-6.7-1.62c-3.53-.58-6.12-1.51-7.77-2.76-1.65-1.26-2.47-3.55-2.47-6.89s1.14-5.83 3.41-7.48c2.28-1.65 5.19-2.47 8.74-2.47 2.77 0 6.18.35 10.21 1.04l2.02.39-.13 5.92ZM862.65 369.99c-5.11-.69-8.82-1.04-11.12-1.04s-3.89.27-4.78.81-1.33 1.4-1.33 2.57.49 1.99 1.46 2.47 3.27 1.03 6.89 1.66 6.19 1.61 7.7 2.96c1.52 1.34 2.27 3.73 2.27 7.15s-1.09 5.94-3.28 7.54-5.38 2.4-9.59 2.4c-2.64 0-5.98-.37-10.01-1.1l-2.02-.32.26-5.92c5.2.69 8.95 1.04 11.25 1.04s3.93-.28 4.91-.84c.97-.56 1.46-1.5 1.46-2.79s-.47-2.2-1.4-2.7-3.16-1.04-6.7-1.62c-3.53-.58-6.12-1.51-7.77-2.76-1.65-1.26-2.47-3.55-2.47-6.89s1.14-5.83 3.41-7.48c2.28-1.65 5.19-2.47 8.74-2.47 2.77 0 6.18.35 10.21 1.04l2.02.39-.13 5.92Z" class="cls-4"/></svg>