<svg xmlns="http://www.w3.org/2000/svg" width="350" height="350" fill="none" viewBox="0 0 350 350"><g clip-path="url(#a)"><path fill="url(#b)" d="M350-1H0v352h350z"/><path fill="#fff" d="M56.2 235.93H41.06v-43.77H56.2c6.73 0 11.33 1.7 13.8 5.11s3.71 8.75 3.71 16.04c0 3.71-.25 6.85-.73 9.43-.49 2.58-1.35 4.91-2.59 7-2.43 4.13-7.16 6.2-14.19 6.2zm10.16-22.62c0-5.28-.66-9.09-1.98-11.44-1.32-2.34-4.05-3.51-8.18-3.51h-8.05v31.31h8.05c4.22 0 7.03-1.55 8.43-4.66.68-1.58 1.14-3.26 1.37-5.05s.35-4 .35-6.65zM103.93 230.18l1.79-.19.13 5.18c-4.86.98-9.16 1.47-12.91 1.47-4.73 0-8.13-1.3-10.19-3.9-2.07-2.6-3.1-6.75-3.1-12.46 0-11.33 4.62-17 13.87-17s13.42 4.88 13.42 14.63l-.45 4.98H86.68c.04 2.64.62 4.58 1.73 5.81 1.11 1.24 3.17 1.85 6.2 1.85s6.13-.13 9.33-.38zm-3.83-12.65c0-3.15-.5-5.36-1.5-6.61-1-1.26-2.69-1.89-5.08-1.89s-4.12.66-5.21 1.98-1.65 3.49-1.69 6.52zM135.82 210.57c-5.03-.68-8.67-1.02-10.93-1.02s-3.82.27-4.7.8c-.87.53-1.31 1.37-1.31 2.52q0 1.725 1.44 2.43c.96.47 3.22 1.01 6.77 1.63 3.56.62 6.08 1.59 7.57 2.91s2.24 3.66 2.24 7.03-1.08 5.84-3.23 7.41c-2.15 1.58-5.29 2.36-9.43 2.36-2.6 0-5.88-.36-9.84-1.09l-1.98-.32.26-5.81c5.11.68 8.8 1.02 11.05 1.02s3.87-.28 4.82-.83c.96-.55 1.44-1.47 1.44-2.75s-.46-2.16-1.37-2.65c-.92-.49-3.11-1.02-6.58-1.6s-6.02-1.48-7.64-2.72-2.43-3.49-2.43-6.77 1.12-5.73 3.35-7.35c2.24-1.62 5.1-2.43 8.59-2.43 2.73 0 6.07.34 10.03 1.02l1.98.38-.13 5.81zM143.61 198.55v-7.35h6.97v7.35zm0 37.38v-31.95h6.97v31.95zM186.94 240.28c0 6.99-5.05 10.48-15.14 10.48q-7.29 0-10.8-1.98c-2.34-1.32-3.51-3.73-3.51-7.22 0-1.58.38-2.93 1.15-4.06s2-2.35 3.71-3.67c-1.41-.94-2.11-2.49-2.11-4.66 0-.85.58-2.24 1.73-4.15l.58-.96c-3.07-1.83-4.6-5.03-4.6-9.58 0-3.83 1.15-6.65 3.45-8.43 2.3-1.79 5.41-2.68 9.33-2.68 1.87 0 3.73.21 5.56.64l.96.19 9.9-.26v5.62l-5.3-.32c1.15 1.49 1.73 3.24 1.73 5.24 0 4.18-1.05 7.06-3.16 8.66q-3.165 2.4-9.87 2.4c-1.11 0-2.04-.08-2.81-.26-.6 1.45-.89 2.57-.89 3.35s.39 1.33 1.18 1.63 2.69.47 5.72.51c5.07.04 8.54.72 10.42 2.04 1.87 1.32 2.81 3.81 2.81 7.48zm-22.62.64c0 1.49.6 2.56 1.79 3.19 1.19.64 3.24.96 6.13.96 5.15 0 7.73-1.47 7.73-4.41 0-1.66-.46-2.72-1.37-3.16-.92-.45-2.74-.69-5.46-.73l-6.26-.38c-.94.77-1.6 1.48-1.98 2.14s-.58 1.46-.58 2.4zm1.92-22.14c.94.92 2.45 1.37 4.54 1.37s3.59-.46 4.5-1.37c.92-.92 1.37-2.35 1.37-4.31s-.47-3.4-1.41-4.31c-.94-.92-2.45-1.37-4.54-1.37-3.92 0-5.88 1.9-5.88 5.69 0 1.96.47 3.4 1.41 4.31zM199.52 235.93h-6.97v-31.95h6.9v1.98c3.11-1.79 6.05-2.68 8.82-2.68 4.26 0 7.17 1.2 8.72 3.61s2.33 6.38 2.33 11.92v17.12h-6.9V219c0-3.45-.37-5.9-1.12-7.35s-2.27-2.17-4.57-2.17c-2.17 0-4.26.43-6.26 1.28l-.96.38v24.79zM227.45 198.55v-7.35h6.97v7.35zm0 37.38v-31.95h6.97v31.95zM249.81 235.93h-6.97v-31.95h6.9v1.98c3.11-1.79 6.05-2.68 8.82-2.68 4.26 0 7.17 1.2 8.72 3.61s2.33 6.38 2.33 11.92v17.12h-6.9V219c0-3.45-.37-5.9-1.12-7.35s-2.27-2.17-4.57-2.17c-2.17 0-4.26.43-6.26 1.28l-.96.38v24.79zM305.66 240.28c0 6.99-5.05 10.48-15.14 10.48q-7.29 0-10.8-1.98c-2.34-1.32-3.51-3.73-3.51-7.22 0-1.58.38-2.93 1.15-4.06s2-2.35 3.71-3.67c-1.41-.94-2.11-2.49-2.11-4.66 0-.85.58-2.24 1.73-4.15l.58-.96c-3.07-1.83-4.6-5.03-4.6-9.58 0-3.83 1.15-6.65 3.45-8.43 2.3-1.79 5.41-2.68 9.33-2.68 1.87 0 3.73.21 5.56.64l.96.19 9.9-.26v5.62l-5.3-.32c1.15 1.49 1.73 3.24 1.73 5.24 0 4.18-1.05 7.06-3.16 8.66q-3.165 2.4-9.87 2.4c-1.11 0-2.04-.08-2.81-.26-.6 1.45-.89 2.57-.89 3.35s.39 1.33 1.18 1.63 2.69.47 5.72.51c5.07.04 8.54.72 10.42 2.04 1.87 1.32 2.81 3.81 2.81 7.48zm-22.62.64c0 1.49.6 2.56 1.79 3.19 1.19.64 3.24.96 6.13.96 5.15 0 7.73-1.47 7.73-4.41 0-1.66-.46-2.72-1.37-3.16-.92-.45-2.74-.69-5.46-.73l-6.26-.38c-.94.77-1.6 1.48-1.98 2.14s-.58 1.46-.58 2.4zm1.92-22.14c.94.92 2.45 1.37 4.54 1.37s3.59-.46 4.5-1.37c.92-.92 1.37-2.35 1.37-4.31s-.47-3.4-1.41-4.31c-.94-.92-2.45-1.37-4.54-1.37-3.92 0-5.88 1.9-5.88 5.69 0 1.96.47 3.4 1.41 4.31zM164 276.23h-6.08v-17.57H164c2.7 0 4.55.68 5.54 2.05s1.49 3.51 1.49 6.44q0 2.235-.3 3.78c-.2 1.03-.54 1.97-1.04 2.81-.97 1.66-2.87 2.49-5.69 2.49m4.08-9.08c0-2.12-.27-3.65-.8-4.59s-1.62-1.41-3.28-1.41h-3.23v12.57H164c1.69 0 2.82-.62 3.39-1.87.27-.63.46-1.31.55-2.03s.14-1.61.14-2.67M174.03 261.23v-2.95h2.8v2.95zm0 15.01v-12.83h2.8v12.83zM191.42 277.98c0 2.8-2.03 4.21-6.08 4.21-1.95 0-3.39-.27-4.34-.8-.94-.53-1.41-1.5-1.41-2.9 0-.63.15-1.18.46-1.63s.8-.94 1.49-1.48c-.56-.38-.85-1-.85-1.87 0-.34.23-.9.69-1.67l.23-.38c-1.23-.74-1.85-2.02-1.85-3.85 0-1.54.46-2.67 1.39-3.39q1.38-1.08 3.75-1.08c.75 0 1.5.09 2.23.26l.38.08 3.98-.1v2.26l-2.13-.13q.69.9.69 2.1c0 1.68-.42 2.83-1.27 3.48q-1.275.96-3.96.96c-.44 0-.82-.03-1.13-.1q-.36.87-.36 1.35c0 .32.16.53.47.65.32.12 1.08.19 2.3.21 2.03.02 3.43.29 4.18.82s1.13 1.53 1.13 3zm-9.08.26c0 .6.24 1.03.72 1.28.48.26 1.3.38 2.46.38 2.07 0 3.1-.59 3.1-1.77 0-.67-.18-1.09-.55-1.27s-1.1-.28-2.19-.29l-2.51-.15c-.38.31-.64.59-.8.86-.15.26-.23.59-.23.96m.77-8.89c.38.37.98.55 1.82.55s1.44-.18 1.81-.55.55-.94.55-1.73-.19-1.36-.56-1.73c-.38-.37-.98-.55-1.82-.55-1.57 0-2.36.76-2.36 2.28 0 .79.19 1.36.56 1.73M193.68 261.23v-2.95h2.8v2.95zm0 15.01v-12.83h2.8v12.83zM206.76 265.79h-3.54v5.64c0 1.04.08 1.74.23 2.08s.55.51 1.18.51l2.1-.08.13 2.23c-1.15.22-2.02.33-2.62.33-1.45 0-2.45-.33-2.99-1s-.81-1.92-.81-3.77v-5.95h-1.64v-2.39h1.64v-3.72h2.77v3.72h3.54v2.39zM218.54 267.36v5.85c.02.38.12.65.3.83s.46.29.83.35l-.08 2.13c-1.47 0-2.61-.32-3.41-.95-1.37.63-2.74.95-4.13.95-2.55 0-3.82-1.36-3.82-4.08 0-1.3.35-2.24 1.04-2.82s1.76-.93 3.19-1.05l3.31-.28v-.92q0-1.02-.45-1.44c-.3-.27-.74-.41-1.32-.41-1.09 0-2.46.07-4.1.21l-.82.05-.1-1.98c1.86-.44 3.58-.67 5.14-.67s2.69.34 3.39 1.01c.69.68 1.04 1.75 1.04 3.22zm-5.75 3.18q-1.77.15-1.77 1.92t1.56 1.77c.86 0 1.76-.14 2.72-.41l.46-.15v-3.41l-2.98.28zM222.2 276.23v-18.16h2.8v18.16zM234.52 276.23v-17.57h4.95l3.92 13.72 3.92-13.72h4.98v17.57h-2.87v-14.42h-.38l-4.16 13.7h-2.98l-4.16-13.7h-.38v14.42h-2.85zM256.54 264.79c.88-1.11 2.35-1.67 4.4-1.67s3.52.56 4.4 1.67 1.32 2.78 1.32 5-.43 3.9-1.28 5.03c-.86 1.13-2.33 1.69-4.44 1.69s-3.58-.56-4.44-1.69-1.28-2.8-1.28-5.03.44-3.89 1.32-5m2.09 8.34c.39.68 1.16 1.03 2.31 1.03s1.91-.34 2.31-1.03c.39-.68.59-1.8.59-3.36s-.21-2.66-.63-3.31-1.18-.97-2.27-.97-1.85.33-2.27.97c-.42.65-.63 1.75-.63 3.31s.2 2.68.59 3.36M272.22 276.23h-2.8V263.4h2.77v.8q1.875-1.08 3.54-1.08c1.71 0 2.88.48 3.5 1.45s.94 2.56.94 4.78v6.87h-2.77v-6.8c0-1.39-.15-2.37-.45-2.95q-.45-.87-1.83-.87c-.87 0-1.71.17-2.51.51l-.38.15v9.95zM292.57 273.92l.72-.08.05 2.08c-1.95.39-3.68.59-5.18.59-1.9 0-3.26-.52-4.09-1.56s-1.24-2.71-1.24-5c0-4.55 1.86-6.82 5.57-6.82s5.39 1.96 5.39 5.87l-.18 2h-7.95c.02 1.06.25 1.84.69 2.33.44.5 1.27.74 2.49.74s2.46-.05 3.75-.15zm-1.54-5.08c0-1.27-.2-2.15-.6-2.65s-1.08-.76-2.04-.76-1.65.27-2.09.8-.66 1.4-.68 2.62h5.41zM295.08 263.41h2.74l2.72 10.44h.69l2.72-10.44h2.77l-4.87 18.34h-2.74l1.54-5.52h-2.21l-3.36-12.83zM186.86 287.95h6.67c1.8 0 3.14.36 4.03 1.09s1.33 1.89 1.33 3.48c0 1.04-.17 1.86-.5 2.46s-.86 1.09-1.58 1.49c1.68.65 2.51 2.01 2.51 4.08 0 3.32-1.86 4.98-5.59 4.98h-6.87v-17.58m6.52 2.46h-3.67v5.03h3.77c1.68 0 2.51-.86 2.51-2.59 0-1.62-.87-2.44-2.62-2.44zm.15 7.44h-3.82v5.21h3.87c.94 0 1.65-.2 2.12-.59s.71-1.07.71-2.03-.27-1.63-.82-2.01-1.23-.58-2.05-.58zM202.38 305.52v-18.16h2.8v18.16zM209.42 294.08c.88-1.11 2.35-1.67 4.4-1.67s3.52.56 4.4 1.67 1.32 2.78 1.32 5-.43 3.9-1.28 5.03c-.86 1.13-2.33 1.69-4.44 1.69s-3.58-.56-4.44-1.69-1.28-2.8-1.28-5.03.44-3.89 1.32-5m2.09 8.34c.39.68 1.16 1.03 2.31 1.03s1.92-.34 2.31-1.03c.39-.68.59-1.8.59-3.36s-.21-2.66-.63-3.31-1.18-.97-2.27-.97-1.85.33-2.27.97c-.42.65-.63 1.75-.63 3.31s.2 2.68.59 3.36M233.52 307.27c0 2.8-2.03 4.21-6.08 4.21-1.95 0-3.39-.27-4.34-.8-.94-.53-1.41-1.5-1.41-2.9 0-.63.15-1.18.46-1.63s.8-.94 1.49-1.48c-.56-.38-.85-1-.85-1.87 0-.34.23-.9.69-1.67l.23-.38c-1.23-.74-1.85-2.02-1.85-3.85 0-1.54.46-2.67 1.39-3.39s2.17-1.08 3.75-1.08c.75 0 1.5.09 2.23.26l.38.08 3.98-.1v2.26l-2.13-.13q.69.9.69 2.1c0 1.68-.42 2.83-1.27 3.48q-1.275.96-3.96.96c-.44 0-.82-.03-1.13-.1q-.36.87-.36 1.35c0 .32.16.53.47.65.32.12 1.08.19 2.3.21 2.03.02 3.43.29 4.18.82s1.13 1.53 1.13 3zm-9.08.26c0 .6.24 1.03.72 1.28.48.26 1.3.38 2.46.38 2.07 0 3.1-.59 3.1-1.77 0-.67-.18-1.09-.55-1.27s-1.1-.28-2.19-.29l-2.51-.15c-.38.31-.64.59-.8.86-.15.26-.23.59-.23.96m.77-8.89c.38.37.98.55 1.82.55s1.44-.18 1.81-.55.55-.94.55-1.73-.19-1.36-.56-1.73c-.38-.37-.98-.55-1.82-.55-1.57 0-2.36.76-2.36 2.28 0 .79.19 1.36.56 1.73M246.91 290.16c-2.17 0-3.26.76-3.26 2.28 0 .79.26 1.35.77 1.68s1.65.74 3.4 1.23 2.99 1.07 3.71 1.74c.72.68 1.08 1.74 1.08 3.19 0 1.85-.53 3.23-1.58 4.14-1.05.92-2.48 1.37-4.3 1.37-1.45 0-3.06-.17-4.82-.51l-.92-.18.28-2.28c2.31.31 4.07.46 5.28.46q3.18 0 3.18-2.82c0-.74-.24-1.28-.72-1.63s-1.56-.74-3.23-1.15c-1.68-.42-2.92-1-3.75-1.73-.82-.74-1.23-1.9-1.23-3.49s.52-2.79 1.55-3.6 2.47-1.22 4.3-1.22c1.32 0 2.87.15 4.67.46l.9.15-.23 2.31c-2.39-.27-4.09-.41-5.08-.41zM264.48 303.21l.72-.08.05 2.08c-1.95.39-3.68.59-5.18.59-1.9 0-3.26-.52-4.09-1.56s-1.24-2.71-1.24-5c0-4.55 1.86-6.82 5.57-6.82s5.39 1.96 5.39 5.87l-.18 2h-7.95c.02 1.06.25 1.84.69 2.33.44.5 1.27.74 2.49.74s2.46-.05 3.75-.15zm-1.54-5.08c0-1.27-.2-2.15-.6-2.65s-1.08-.76-2.04-.76-1.65.27-2.09.8-.66 1.4-.68 2.62h5.41zM268.38 305.52v-12.83h2.77v1.54c1.45-.94 2.91-1.55 4.36-1.82v2.8c-1.47.29-2.73.67-3.77 1.13l-.56.23v8.95zM277.64 290.51v-2.95h2.8v2.95zm0 15.01v-12.83h2.8v12.83zM292.95 303.21l.72-.08.05 2.08c-1.95.39-3.68.59-5.18.59-1.9 0-3.26-.52-4.09-1.56s-1.24-2.71-1.24-5c0-4.55 1.86-6.82 5.57-6.82s5.39 1.96 5.39 5.87l-.18 2h-7.95c.02 1.06.25 1.84.69 2.33.44.5 1.27.74 2.49.74s2.46-.05 3.75-.15zm-1.54-5.08c0-1.27-.2-2.15-.6-2.65s-1.08-.76-2.04-.76-1.65.27-2.09.8-.66 1.4-.68 2.62h5.41zM305.75 295.34c-2.02-.27-3.48-.41-4.39-.41s-1.54.11-1.89.32-.53.55-.53 1.01.19.79.58.97c.38.19 1.29.41 2.72.65 1.43.25 2.44.64 3.04 1.17q.9.795.9 2.82c0 1.35-.43 2.34-1.3 2.98-.86.63-2.13.95-3.78.95-1.04 0-2.36-.15-3.95-.44l-.8-.13.1-2.33c2.05.27 3.53.41 4.44.41s1.55-.11 1.94-.33c.38-.22.58-.59.58-1.1s-.18-.87-.55-1.06c-.37-.2-1.25-.41-2.64-.64s-2.42-.59-3.07-1.09-.97-1.4-.97-2.72.45-2.3 1.35-2.95 2.05-.97 3.45-.97c1.09 0 2.44.14 4.03.41l.8.15-.05 2.33zM151.64 246.34H40.88v2.93h110.76zM270.11 246.34h-77.74v2.93h77.74z"/><mask id="c" width="124" height="124" x="169" y="49" maskUnits="userSpaceOnUse" style="mask-type:luminance"><path fill="#fff" d="M230.85 172.34c33.954 0 61.48-27.526 61.48-61.48s-27.526-61.48-61.48-61.48-61.48 27.526-61.48 61.48 27.526 61.48 61.48 61.48"/></mask><g mask="url(#c)"><path fill="#6500d5" d="m278.88 162.1 20.92-64.62 21.85 42.77zM277.51 162.8l21.59-66.69.7 1.37-20.92 64.62z"/><path fill="#6601d5" d="m276.14 163.5 22.26-68.76.7 1.37-21.59 66.69z"/><path fill="#6602d6" d="m274.77 164.2 22.93-70.83.7 1.37-22.26 68.76z"/><path fill="#6703d6" d="M273.4 164.9 297 92l.7 1.37-22.93 70.83z"/><path fill="#6804d7" d="m272.03 165.6 24.27-74.97.7 1.37-23.6 72.9z"/><path fill="#6805d7" d="m270.66 166.3 24.94-77.04.7 1.37-24.27 74.97z"/><path fill="#6906d7" d="m269.29 167 25.61-79.11.7 1.37-24.94 77.04z"/><path fill="#6a07d8" d="m267.92 167.7 26.28-81.18.7 1.37L269.29 167z"/><path fill="#6a08d8" d="m266.55 168.4 26.95-83.25.7 1.37-26.28 81.18z"/><path fill="#6b09d8" d="m265.18 169.1 27.62-85.32.7 1.37-26.95 83.25z"/><path fill="#6c0ad9" d="m263.81 169.8 28.29-87.39.7 1.37-27.62 85.32z"/><path fill="#6c0bd9" d="m262.44 170.5 28.96-89.46.7 1.37-28.29 87.39z"/><path fill="#6d0cda" d="m261.07 171.2 29.63-91.53.7 1.37-28.96 89.46z"/><path fill="#6e0dda" d="M259.7 171.9 290 78.3l.7 1.37-29.63 91.53z"/><path fill="#6f0eda" d="m258.33 172.6 30.97-95.67.7 1.37-30.3 93.6z"/><path fill="#6f0fdb" d="m256.96 173.3 31.64-97.74.7 1.37-30.97 95.67z"/><path fill="#7010db" d="m255.59 174 32.31-99.81.7 1.37-31.64 97.74z"/><path fill="#7111db" d="m254.22 174.7 32.97-101.88.71 1.37L255.59 174z"/><path fill="#7112dc" d="m252.85 175.4 33.64-103.95.7 1.37-32.97 101.88z"/><path fill="#7213dc" d="m251.47 176.1 34.32-106.02.7 1.37-33.64 103.95z"/><path fill="#7314dd" d="m250.1 176.8 34.99-108.09.7 1.37-34.32 106.02z"/><path fill="#7315dd" d="m248.73 177.5 35.66-110.16.7 1.37L250.1 176.8z"/><path fill="#7416dd" d="m247.36 178.2 36.33-112.23.7 1.37-35.66 110.16z"/><path fill="#7517de" d="m245.99 178.9 37-114.31.7 1.38-36.33 112.23z"/><path fill="#7518de" d="m244.62 179.6 37.67-116.38.7 1.37-37 114.31z"/><path fill="#7619de" d="m243.46 180.19-.16-.05 38.24-118.13.16.06.59 1.15-37.67 116.38z"/><path fill="#771adf" d="M280.511 61.695 242.267 179.82l1.037.335 38.244-118.123z"/><path fill="#771bdf" d="m279.489 61.354-38.243 118.123 1.037.336L280.526 61.69z"/><path fill="#781ce0" d="m278.446 61.018-38.244 118.124 1.037.335 38.244-118.123z"/><path fill="#791de0" d="M277.414 60.687 239.171 178.81l1.037.336 38.243-118.124z"/><path fill="#791ee0" d="m276.371 60.351-38.244 118.124 1.037.335 38.244-118.123z"/><path fill="#7a1fe1" d="m275.349 60.01-38.244 118.123 1.037.336 38.244-118.124z"/><path fill="#7b20e1" d="m274.306 59.684-38.244 118.124 1.037.335L275.343 60.02z"/><path fill="#7b21e1" d="M273.274 59.343 235.03 177.466l1.037.336 38.244-118.124z"/><path fill="#7c22e2" d="m272.231 59.007-38.244 118.124 1.037.335 38.244-118.123z"/><path fill="#7d23e2" d="m271.199 58.676-38.244 118.123 1.037.336 38.244-118.124z"/><path fill="#7d24e3" d="m270.166 58.34-38.244 118.124 1.037.335 38.244-118.123z"/><path fill="#7e25e3" d="M269.134 57.999 230.89 176.122l1.037.336 38.244-118.124z"/><path fill="#7f26e3" d="m268.09 57.673-38.243 118.124 1.037.335 38.243-118.123z"/><path fill="#7f27e4" d="m267.059 57.332-38.244 118.123 1.037.336 38.244-118.124z"/><path fill="#8028e4" d="M266.025 56.996 227.782 175.12l1.037.335 38.243-118.123z"/><path fill="#8129e4" d="M264.994 56.655 226.75 174.778l1.037.336L266.031 56.99z"/><path fill="#822ae5" d="m263.95 56.33-38.243 118.123 1.037.335 38.243-118.123z"/><path fill="#822be5" d="M262.916 55.997 224.672 174.12l1.037.336 38.244-118.123z"/><path fill="#832ce6" d="m261.885 55.652-38.243 118.124 1.037.335 38.243-118.123z"/><path fill="#842de6" d="m260.851 55.33-38.244 118.123 1.037.336 38.244-118.123z"/><path fill="#842ee6" d="M259.81 54.985 221.567 173.11l1.037.335 38.243-118.123z"/><path fill="#852fe7" d="m258.776 54.653-38.244 118.123 1.037.336 38.244-118.123z"/><path fill="#8630e7" d="m257.745 54.318-38.244 118.124 1.037.335 38.244-118.123z"/><path fill="#8631e7" d="m256.711 53.986-38.244 118.123 1.037.336 38.244-118.123z"/><path fill="#8732e8" d="m255.67 53.641-38.244 118.124 1.037.335 38.244-118.123z"/><path fill="#8833e8" d="m254.636 53.319-38.244 118.123 1.037.336 38.244-118.123z"/><path fill="#8834e9" d="m253.605 52.974-38.244 118.124 1.037.335L254.642 53.31z"/><path fill="#8935e9" d="m252.571 52.642-38.244 118.123 1.037.336 38.244-118.123z"/><path fill="#8a36e9" d="M251.53 52.297 213.286 170.42l1.037.336 38.244-118.123z"/><path fill="#8a37ea" d="m250.496 51.975-38.244 118.123 1.037.336 38.244-118.123z"/><path fill="#8b39ea" d="m249.455 51.63-38.244 118.123 1.037.336 38.244-118.123z"/><path fill="#8c3aea" d="m248.431 51.298-38.244 118.123 1.037.336 38.244-118.123z"/><path fill="#8c3beb" d="m247.39 50.963-38.244 118.123 1.037.336 38.244-118.123z"/><path fill="#8d3ceb" d="m246.356 50.63-38.244 118.124 1.037.336 38.244-118.123z"/><path fill="#8e3dec" d="M245.315 50.286 207.071 168.41l1.037.336 38.244-118.123z"/><path fill="#8e3eec" d="m244.291 49.964-38.244 118.123 1.037.336L245.328 50.3z"/><path fill="#8f3fec" d="m243.247 49.629-38.244 118.123 1.037.336 38.244-118.124z"/><path fill="#9040ed" d="M242.216 49.287 203.972 167.41l1.037.336 38.244-118.123z"/><path fill="#9041ed" d="m241.172 48.962-38.244 118.123 1.037.336 38.244-118.124z"/><path fill="#9142ed" d="M240.141 48.617 201.897 166.74l1.037.336 38.244-118.123z"/><path fill="#9243ee" d="m239.107 48.285-38.244 118.123 1.037.336L240.144 48.62z"/><path fill="#9244ee" d="m238.066 47.95-38.244 118.123 1.037.336 38.244-118.123z"/><path fill="#9345ef" d="M237.032 47.618 198.788 165.74l1.037.336 38.244-118.124z"/><path fill="#9446ef" d="m236.001 47.273-38.244 118.123 1.037.336 38.244-118.123z"/><path fill="#9547ef" d="m234.967 46.94-38.244 118.124 1.037.336 38.244-118.124z"/><path fill="#9548f0" d="m233.926 46.606-38.244 118.123 1.037.336 38.244-118.123z"/><path fill="#9649f0" d="m232.892 46.274-38.244 118.123 1.037.336 38.244-118.124z"/><path fill="#974af0" d="m231.861 45.929-38.244 118.123 1.037.336 38.244-118.123z"/><path fill="#974bf1" d="M230.827 45.607 192.583 163.73l1.037.336 38.244-118.124z"/><path fill="#984cf1" d="m229.786 45.262-38.244 118.123 1.037.336 38.244-118.123z"/><path fill="#994df2" d="m228.752 44.93-38.244 118.123 1.037.336 38.244-118.124z"/><path fill="#994ef2" d="m227.721 44.595-38.244 118.123 1.037.336 38.244-118.123z"/><path fill="#9a4ff2" d="m226.687 44.263-38.244 118.123 1.037.335 38.244-118.123z"/><path fill="#9b50f3" d="M225.643 43.927 187.399 162.05l1.037.336L226.68 44.263z"/><path fill="#9b51f3" d="m224.612 43.596-38.244 118.123 1.037.335 38.244-118.123z"/><path fill="#9c52f3" d="m223.568 43.26-38.244 118.123 1.037.336 38.244-118.123z"/><path fill="#9d53f4" d="m222.547 42.919-38.244 118.123 1.037.335 38.244-118.123z"/><path fill="#9d54f4" d="m221.503 42.593-38.244 118.123 1.037.336L222.54 42.929z"/><path fill="#9e55f5" d="m220.472 42.252-38.244 118.123 1.037.335 38.244-118.123z"/><path fill="#9f56f5" d="M219.428 41.916 181.184 160.04l1.037.336 38.244-118.123z"/><path fill="#9f57f5" d="m218.407 41.574-38.244 118.124 1.037.335L219.444 41.91z"/><path fill="#a058f6" d="m180.15 159.7-.16-.05-.59-1.16 37.67-116.38 1.16-.59.16.05z"/><path fill="#a159f6" d="m178.7 157.12 37-114.31 1.37-.7-37.67 116.38z"/><path fill="#a15af6" d="m178 155.75 36.33-112.24 1.37-.7-37 114.31z"/><path fill="#a25bf7" d="m177.3 154.37 35.66-110.16 1.37-.7L178 155.75z"/><path fill="#a35cf7" d="m176.6 153 34.99-108.09 1.37-.7-35.66 110.16z"/><path fill="#a35df8" d="m175.9 151.63 34.32-106.02 1.37-.7L176.6 153z"/><path fill="#a45ef8" d="m175.2 150.26 33.65-103.95 1.37-.7-34.32 106.02z"/><path fill="#a55ff8" d="m174.5 148.89 32.98-101.88 1.37-.7-33.65 103.95z"/><path fill="#a560f9" d="m173.8 147.52 32.31-99.81 1.37-.7-32.98 101.88z"/><path fill="#a661f9" d="m173.1 146.15 31.64-97.74 1.37-.7-32.31 99.81z"/><path fill="#a762f9" d="m172.4 144.78 30.97-95.67 1.37-.7-31.64 97.74z"/><path fill="#a863fa" d="m171.7 143.41 30.3-93.6 1.37-.7-30.97 95.67z"/><path fill="#a864fa" d="m171 142.04 29.63-91.53 1.37-.7-30.3 93.6z"/><path fill="#a965fb" d="m170.3 140.67 28.96-89.46 1.37-.7L171 142.04z"/><path fill="#aa66fb" d="m169.6 139.3 28.28-87.39 1.38-.7-28.96 89.46z"/><path fill="#aa67fb" d="m168.9 137.93 27.61-85.32 1.37-.7-28.28 87.39z"/><path fill="#ab68fc" d="m168.2 136.56 26.94-83.25 1.37-.7-27.61 85.32z"/><path fill="#ac69fc" d="m167.5 135.19 26.27-81.18 1.37-.7-26.94 83.25z"/><path fill="#ac6afc" d="m166.8 133.82 25.6-79.11 1.37-.7-26.27 81.18z"/><path fill="#ad6bfd" d="m166.1 132.45 24.93-77.04 1.37-.7-25.6 79.11z"/><path fill="#ae6cfd" d="m165.4 131.08 24.26-74.97 1.37-.7-24.93 77.04z"/><path fill="#ae6dfe" d="m164.7 129.71 23.59-72.9 1.37-.7-24.26 74.97z"/><path fill="#af6efe" d="m164 128.34 22.92-70.83 1.37-.7-23.59 72.9z"/><path fill="#b06ffe" d="m163.3 126.97 22.25-68.76 1.37-.7L164 128.34z"/><path fill="#b070ff" d="m162.6 125.6 21.58-66.68 1.37-.71-22.25 68.76z"/><path fill="#b171ff" d="m161.9 124.23 20.91-64.61 1.37-.7-21.58 66.68zM182.81 59.62l-20.91 64.61-21.85-42.77z"/></g><path fill="#fff" d="M175.55 139.33c-1.53-3-2.83-6.14-3.88-9.41-5.09-15.84-3.71-32.72 3.9-47.52 7.6-14.8 20.51-25.75 36.35-30.84s32.72-3.71 47.52 3.9c30.55 15.69 42.64 53.32 26.95 83.87-7.6 14.8-20.51 25.75-36.35 30.84s-32.72 3.71-47.52-3.9c-11.75-6.03-21.07-15.41-26.96-26.94zm108.71-55.78c-5.52-10.79-14.33-20.02-25.92-25.97-14.23-7.31-30.46-8.64-45.69-3.75S185 69.26 177.69 83.49s-8.64 30.46-3.75 45.69c1.01 3.14 2.26 6.17 3.73 9.05 5.67 11.09 14.63 20.11 25.93 25.91 14.23 7.31 30.46 8.64 45.69 3.75s27.65-15.43 34.96-29.66c9.14-17.8 8.48-38.09 0-54.68z"/><path fill="#fff" d="M160.01 99.49c-.48-.94-.63-1.85-.47-2.75.8-4.41 8.83-6.51 24.57-6.44 14.37.07 33.12 2.07 52.79 5.64 19.67 3.56 37.93 8.27 51.41 13.25 4.45 1.64 8.26 3.27 11.33 4.85 6.89 3.54 9.97 6.74 9.42 9.8-.7 3.85-7.14 5.92-19.71 6.32l-1.36.04.49-1.27c.09-.22.15-.42.22-.63.04-.13.08-.26.13-.39l.2-.58.61-.02c12.58-.47 16.33-2.73 16.56-4 .28-1.54-3.39-5.69-18.9-11.42-13.33-4.92-31.42-9.58-50.92-13.12-19.51-3.54-38.08-5.52-52.29-5.59-16.54-.08-21.42 2.51-21.7 4.06-.21 1.17 1.76 3.54 7.94 6.72l.83.42-.06.61c-.04.38-.08.78-.11 1.18l-.12 1.31-1.18-.59c-5.29-2.63-8.5-5.08-9.69-7.42z"/><path fill="#fff" d="M182.18 172.25c-1.59-3.11.08-9.43 4.98-18.84l.43-.82.57.72c.26.32.52.64.77.93l.26.31-.18.36c-3.54 6.88-6.57 14.89-4.45 16.73 1.61 1.39 7.75-.54 19.77-10.55 10.93-9.11 23.98-22.53 36.74-37.78s23.7-30.5 30.79-42.93c3.3-5.79 5.68-10.87 6.87-14.71 1.5-4.82.77-6.37.21-6.86-.63-.54-2.87-1.3-10.19 3.4-.05.03-.21.14-.36.24-.13.09-.25.17-.3.2l-.35.23-.33-.25c-.17-.13-.32-.23-.48-.34q-.195-.135-.42-.3l-.7-.51.72-.48c7.05-4.65 11.6-5.94 13.91-3.94 3.29 2.85 1.08 11.09-6.57 24.49-7.16 12.55-18.17 27.91-31.02 43.26s-26 28.87-37.03 38.06c-3.63 3.03-6.94 5.5-9.84 7.36-6.4 4.1-10.62 5.13-12.91 3.15-.36-.31-.66-.7-.89-1.14z"/><path fill="#fff" d="m175.77 86.46-.55-1.11c-4.79-9.6-5.37-17.22-1.69-22.02 4.6-5.99 15.22-6.66 29.92-1.87 5.62 1.83 11.63 4.38 17.87 7.59 9.62 4.94 19.37 11.18 28.97 18.56 15.89 12.2 29.17 25.86 37.38 38.48 8.43 12.95 10.53 23.39 5.94 29.38-4.04 5.26-12.53 6.44-24.57 3.42l-1.14-.29 2.17-1.82.29.07c4.29 1.02 8.12 1.47 11.4 1.34 4.7-.19 8.07-1.58 10.02-4.11 1.95-2.54 2.41-6.15 1.38-10.74-1.04-4.64-3.54-10.02-7.42-15.99-8.07-12.41-21.16-25.87-36.85-37.91s-32.08-21.2-46.16-25.78c-6.77-2.21-12.61-3.23-17.36-3.03-4.7.19-8.07 1.58-10.02 4.11-1.95 2.54-2.41 6.15-1.38 10.74.55 2.47 1.54 5.19 2.92 8.08l.12.26-1.24 2.66z"/><path fill="#fff" d="M197.61 169.46c-2.4-4.7-3.58-11.6-3.41-20.34.11-5.63.77-11.82 1.96-18.4 1.84-10.14 4.83-20.76 8.88-31.56 6.71-17.87 15.49-33.77 24.72-44.75 9.48-11.28 18.42-16.1 25.17-13.57 5.4 2.03 8.77 8.48 9.74 18.65l.12 1.22-2.4-1.52-.03-.29c-.34-3.03-.91-5.71-1.7-7.98-1.48-4.23-3.67-6.91-6.51-7.98s-6.26-.49-10.15 1.72c-3.94 2.23-8.14 6-12.51 11.19-9.07 10.8-17.71 26.46-24.34 44.1s-10.43 35.12-10.71 49.22c-.13 6.78.56 12.38 2.05 16.66 1.48 4.22 3.67 6.91 6.51 7.98s6.26.49 10.15-1.72c1.02-.58 1.79-1.11 2.86-1.86l.21-.15 3.01.57-1.04.81c-5.98 4.69-11.36 6.18-15.98 4.44-2.74-1.03-4.96-3.22-6.61-6.43zM299.22 118.44c-.44-.86-.47-1.91 0-2.83a3.1 3.1 0 0 1 4.17-1.34 3.1 3.1 0 0 1 1.34 4.17 3.1 3.1 0 0 1-5.51 0m3.92-2.01c-.12-.24-.31-.44-.56-.57-.64-.33-1.43-.08-1.76.56s-.07 1.43.56 1.76c.64.33 1.43.08 1.76-.56.2-.39.18-.83 0-1.19M270.96 81.34c-.44-.86-.47-1.91 0-2.83a3.1 3.1 0 0 1 4.17-1.34 3.05 3.05 0 0 1 1.53 1.81c.25.79.18 1.63-.19 2.36a3.05 3.05 0 0 1-1.81 1.53c-.79.25-1.63.18-2.36-.19-.6-.31-1.06-.79-1.34-1.34m1.6-2.01c-.33.64-.08 1.43.56 1.76.31.16.66.19.99.08s.6-.34.76-.65.19-.66.08-.99-.34-.6-.65-.76c-.64-.33-1.43-.08-1.76.56z"/><path fill="#fff" d="m236.74 171.36 2.79-.52.22.21c4.13 3.84 7.32 6.31 9.75 7.55 4.19 2.14 7.81 2.6 10.75 1.34 2.94-1.25 5.12-4.17 6.48-8.68 1.37-4.55 1.85-10.46 1.4-17.57-.93-14.77-5.7-32.93-13.45-51.13-7.74-18.2-17.52-34.24-27.52-45.15-4.81-5.25-9.4-9.01-13.63-11.18-4.19-2.14-7.81-2.6-10.75-1.34-2.94 1.25-5.12 4.17-6.48 8.68-.73 2.43-1.21 5.28-1.43 8.47l-.02.28-2.39 1.7.06-1.24c.55-10.72 3.79-17.64 9.36-20.01 6.95-2.96 16.53 1.69 26.97 13.08 3.99 4.36 7.97 9.54 11.83 15.4 5.94 9.03 11.36 19.26 16.11 30.4 7.84 18.44 12.68 36.86 13.63 51.89.97 15.42-2.33 25.54-9.28 28.5-5.86 2.49-14.23-1.02-23.56-9.88l-.85-.81zM251.39 43.04c-.44-.86-.47-1.91 0-2.83a3.05 3.05 0 0 1 1.81-1.53c.79-.25 1.63-.18 2.36.19a3.05 3.05 0 0 1 1.53 1.81c.25.79.18 1.63-.19 2.36a3.1 3.1 0 0 1-5.51 0m3.92-2.01c-.12-.24-.32-.44-.56-.56-.31-.16-.66-.19-.99-.08s-.6.34-.76.65c-.33.64-.07 1.43.56 1.76.64.33 1.43.08 1.76-.56.16-.31.19-.66.08-1-.02-.07-.05-.13-.08-.2z"/><path fill="#fff" d="M226.09 59.12c-.44-.86-.47-1.91 0-2.83a3.05 3.05 0 0 1 1.81-1.53c.79-.25 1.63-.18 2.36.19a3.05 3.05 0 0 1 1.53 1.81c.25.79.18 1.63-.19 2.36a3.05 3.05 0 0 1-1.81 1.53c-.79.25-1.63.18-2.36-.19-.6-.31-1.06-.78-1.34-1.34m1.6-2.01c-.33.64-.08 1.43.56 1.76.31.16.66.19.99.08s.6-.34.76-.65.19-.66.08-.99-.34-.6-.65-.76-.66-.19-.99-.08-.6.34-.76.65zM206.03 176.64c-.44-.86-.47-1.91 0-2.83a3.05 3.05 0 0 1 1.81-1.53c.79-.25 1.63-.18 2.36.19a3.1 3.1 0 0 1 1.34 4.17 3.1 3.1 0 0 1-5.51 0m3.92-2.01c-.12-.23-.31-.44-.56-.57-.31-.16-.66-.19-.99-.08s-.6.34-.76.65c-.33.64-.08 1.43.56 1.76s1.43.08 1.76-.56c.2-.39.18-.83 0-1.19zM205.59 94.56a2.7 2.7 0 0 1-.19-.47c-.25-.79-.18-1.63.19-2.36a3.05 3.05 0 0 1 1.81-1.53c.79-.25 1.63-.18 2.36.19a3.1 3.1 0 0 1 1.34 4.17 3.1 3.1 0 0 1-5.51 0m3.92-2.01c-.12-.23-.31-.44-.56-.57-.31-.16-.66-.19-.99-.08s-.6.34-.76.65-.19.66-.08.99.34.6.65.76c.64.33 1.43.08 1.76-.56.2-.39.18-.83 0-1.19zM162.89 94.73a2.7 2.7 0 0 1-.19-.47c-.25-.79-.18-1.63.19-2.36a3.1 3.1 0 0 1 4.17-1.34 3.1 3.1 0 0 1 1.34 4.17 3.1 3.1 0 0 1-5.51 0m3.92-2.01c-.12-.24-.31-.44-.56-.57-.64-.33-1.43-.08-1.76.56-.16.31-.19.66-.08.99s.34.6.65.76c.64.33 1.43.08 1.76-.56.2-.39.18-.83 0-1.19zM233.56 132.15c-.44-.86-.47-1.91 0-2.83a3.05 3.05 0 0 1 1.81-1.53c.79-.25 1.63-.18 2.36.19a3.1 3.1 0 0 1 1.34 4.17 3.05 3.05 0 0 1-1.81 1.53c-.79.25-1.63.18-2.36-.19-.6-.31-1.06-.78-1.34-1.34m1.6-2.01c-.33.64-.08 1.43.56 1.76.31.16.66.19.99.08s.6-.34.76-.65c.33-.64.08-1.43-.56-1.76-.31-.16-.66-.19-.99-.08s-.6.34-.76.65M291.39 152.6c-.44-.86-.47-1.91 0-2.83a3.1 3.1 0 0 1 4.17-1.34 3.1 3.1 0 0 1 1.34 4.17 3.05 3.05 0 0 1-1.81 1.53c-.79.25-1.63.18-2.36-.19-.6-.31-1.06-.78-1.34-1.34m1.6-2.01c-.33.64-.08 1.43.56 1.76.31.16.66.19.99.08s.6-.34.76-.65c.33-.64.08-1.43-.56-1.76s-1.43-.08-1.76.56zM171.08 66.4c-.44-.86-.47-1.91 0-2.83a3.1 3.1 0 0 1 4.17-1.34 3.1 3.1 0 0 1 1.34 4.17 3.1 3.1 0 0 1-5.51 0m3.92-2.01c-.12-.24-.31-.44-.56-.57-.64-.33-1.43-.08-1.76.56s-.07 1.43.56 1.76c.64.33 1.43.08 1.76-.56.2-.39.18-.83 0-1.19M187 174.12a2.7 2.7 0 0 1-.19-.47c-.25-.79-.18-1.63.19-2.36a3.05 3.05 0 0 1 1.81-1.53c.79-.25 1.63-.18 2.36.19a3.1 3.1 0 0 1 1.34 4.17 3.1 3.1 0 0 1-5.51 0m3.92-2.01c-.12-.23-.31-.44-.56-.57-.31-.16-.66-.19-.99-.08s-.6.34-.76.65-.19.66-.08.99.34.6.65.76c.64.33 1.43.08 1.76-.56.2-.39.18-.83 0-1.19zM258.09 181.99a2.7 2.7 0 0 1-.19-.47c-.25-.79-.18-1.63.19-2.36a3.05 3.05 0 0 1 1.81-1.53c.79-.25 1.63-.18 2.36.19a3.1 3.1 0 0 1 1.34 4.17 3.1 3.1 0 0 1-5.51 0m3.92-2.01c-.12-.23-.31-.44-.56-.57-.31-.16-.66-.19-.99-.08s-.6.34-.76.65-.19.66-.08.99.34.6.65.76c.64.33 1.43.08 1.76-.56.2-.39.18-.83 0-1.19zM202.19 44.38a2.7 2.7 0 0 1-.19-.47c-.25-.79-.18-1.63.19-2.36a3.05 3.05 0 0 1 1.81-1.53c.79-.25 1.63-.18 2.36.19a3.1 3.1 0 0 1 1.34 4.17 3.1 3.1 0 0 1-5.51 0m3.92-2.01c-.12-.23-.31-.44-.56-.57-.31-.16-.66-.19-.99-.08s-.6.34-.76.65-.19.66-.08.99.34.6.65.76c.64.33 1.43.08 1.76-.56.2-.39.18-.83 0-1.19zM159.59 143.87c-.03-.06-.06-.11-.08-.17-.97-2.16.26-4.83 3.87-8.38l.04-.04c.67-.59 1.35-1.2 2-1.8.71-.65 1.44-1.32 2.19-1.97.44-.38.88-.78 1.33-1.18.98-.88 1.99-1.79 3.06-2.57l1.11-.81.68 3.06-.4.35c-.72.63-1.46 1.26-2.19 1.89-1.93 1.65-3.92 3.36-5.74 5.16-3.02 2.98-3.46 4.6-3.25 5.08.21.49 1.71 1.23 5.95.96 3.34-.21 7.73-.99 13.05-2.32 1.01-.25 2.07-.53 3.15-.82 14.01-3.8 31.93-10.46 50.47-18.76s35.44-17.24 47.6-25.17c5.86-3.82 10.28-7.18 13.13-9.99 3.02-2.98 3.46-4.6 3.25-5.08v-.02c-.25-.48-1.76-1.21-5.94-.94-2.34.15-5.21.58-8.55 1.28l-.63.13-1.56-2.68 1.21-.26c3.64-.78 6.78-1.26 9.34-1.42 5.05-.32 7.86.53 8.83 2.7.97 2.16-.26 4.83-3.87 8.38-2.99 2.95-7.56 6.44-13.59 10.37-12.29 8.01-29.33 17.03-48.01 25.39-18.67 8.36-36.75 15.08-50.91 18.92-6.94 1.88-12.59 2.97-16.78 3.24-4.92.31-7.71-.49-8.75-2.52z"/><path fill="#fff" d="M295.05 87.66c-.44-.86-.47-1.91 0-2.83a3.05 3.05 0 0 1 1.81-1.53c.79-.25 1.63-.18 2.36.19a3.1 3.1 0 0 1 1.34 4.17 3.1 3.1 0 0 1-5.51 0m3.92-2.01c-.12-.23-.31-.44-.56-.57-.31-.16-.66-.19-.99-.08s-.6.34-.76.65c-.33.64-.07 1.43.56 1.76.64.33 1.43.08 1.76-.56.2-.39.18-.83 0-1.19zM193.28 140.21c-.44-.86-.47-1.91 0-2.83a3.05 3.05 0 0 1 1.81-1.53c.79-.25 1.63-.18 2.36.19a3.1 3.1 0 0 1 1.34 4.17 3.1 3.1 0 0 1-5.51 0m3.92-2.01c-.12-.23-.31-.44-.56-.57-.31-.16-.66-.19-.99-.08s-.6.34-.76.65c-.33.64-.07 1.43.56 1.76.64.33 1.43.08 1.76-.56.2-.39.18-.83 0-1.19zM266.93 106.71a2.7 2.7 0 0 1-.19-.47c-.25-.79-.18-1.63.19-2.36a3.1 3.1 0 0 1 4.17-1.34 3.1 3.1 0 0 1 1.34 4.17 3.1 3.1 0 0 1-5.51 0m3.92-2.01c-.12-.24-.31-.44-.56-.57-.64-.33-1.43-.08-1.76.56-.16.31-.19.66-.08.99s.34.6.65.76c.64.33 1.43.08 1.76-.56.2-.39.18-.83 0-1.19z"/></g><defs><linearGradient id="b" x1="0" x2="350" y1="175" y2="175" gradientUnits="userSpaceOnUse"><stop stop-color="#6500d5"/><stop offset="1" stop-color="#b171ff"/></linearGradient><clipPath id="a"><path fill="#fff" d="M0 0h350v350H0z"/></clipPath></defs></svg>