<svg xmlns="http://www.w3.org/2000/svg" id="Layer_2" data-name="Layer 2" viewBox="0 0 1100 600"><defs><linearGradient id="linear-gradient" x1="10164.16" x2="11283.41" y1="-3135.62" y2="-3135.62" gradientTransform="translate(-10173.79 3435.62)" gradientUnits="userSpaceOnUse"><stop offset="0" stop-color="#6500d5"/><stop offset="1" stop-color="#b171ff"/></linearGradient><clipPath id="clippath"><circle cx="842.03" cy="299.06" r="113.55" style="fill:none;stroke-width:0"/></clipPath><style>.cls-112,.cls-20,.cls-58{stroke-width:0}.cls-112{fill:#fff}.cls-20{fill:#6500d5}.cls-58{fill:#b171ff}</style></defs><path d="M1109.62-14.96H-9.62v629.92h1119.25V-14.96Z" style="stroke-width:0;fill:url(#linear-gradient)"/><path d="M144.18 251.22h-31.43v-90.84h31.43c13.97 0 23.52 3.54 28.64 10.61 5.13 7.07 7.69 18.17 7.69 33.29 0 7.69-.51 14.21-1.52 19.56q-1.53 8.025-5.37 14.52c-5.04 8.58-14.85 12.86-29.44 12.86m21.09-46.95c0-10.96-1.37-18.87-4.11-23.74-2.74-4.86-8.4-7.29-16.97-7.29h-16.71v64.98h16.71c8.75 0 14.59-3.23 17.5-9.68 1.41-3.27 2.36-6.76 2.85-10.48.49-3.71.73-8.31.73-13.79M243.24 239.28l3.71-.4.26 10.74c-10.08 2.03-19.01 3.05-26.79 3.05-9.81 0-16.86-2.7-21.15-8.09s-6.43-14.01-6.43-25.86c0-23.52 9.59-35.28 28.78-35.28s27.85 10.12 27.85 30.37l-.93 10.34h-41.11c.09 5.48 1.28 9.5 3.58 12.07s6.58 3.85 12.86 3.85 12.73-.27 19.36-.8Zm-7.96-26.26c0-6.54-1.04-11.12-3.12-13.73s-5.59-3.91-10.54-3.91-8.55 1.37-10.81 4.11c-2.25 2.74-3.43 7.25-3.51 13.53zM309.41 198.57c-10.43-1.41-17.99-2.12-22.68-2.12s-7.94.55-9.75 1.66-2.72 2.85-2.72 5.24.99 4.07 2.98 5.04 6.67 2.1 14.06 3.38c7.38 1.28 12.62 3.29 15.71 6.03s4.64 7.6 4.64 14.59-2.23 12.11-6.7 15.38-10.99 4.91-19.56 4.91c-5.39 0-12.2-.75-20.42-2.25l-4.11-.66.53-12.07c10.61 1.42 18.25 2.12 22.94 2.12s8.02-.57 10.01-1.72 2.98-3.05 2.98-5.7-.95-4.49-2.85-5.5c-1.9-1.02-6.45-2.12-13.66-3.32-7.21-1.19-12.49-3.07-15.85-5.64-3.36-2.56-5.04-7.25-5.04-14.06s2.32-11.89 6.96-15.25 10.59-5.04 17.84-5.04c5.66 0 12.6.71 20.82 2.12l4.11.8-.26 12.07ZM325.59 173.64v-15.25h14.45v15.25zm0 77.58v-66.31h14.45v66.31zM415.5 260.23c0 14.5-10.48 21.75-31.43 21.75q-15.12 0-22.41-4.11c-4.86-2.74-7.29-7.74-7.29-14.99 0-3.27.8-6.08 2.39-8.42s4.15-4.88 7.69-7.63c-2.92-1.94-4.38-5.17-4.38-9.68 0-1.77 1.19-4.64 3.58-8.62l1.19-1.99c-6.37-3.8-9.55-10.43-9.55-19.89 0-7.96 2.39-13.79 7.16-17.51 4.77-3.71 11.23-5.57 19.36-5.57 3.89 0 7.74.44 11.54 1.33l1.99.4 20.56-.53v11.67l-11.01-.66c2.39 3.1 3.58 6.72 3.58 10.87 0 8.67-2.19 14.65-6.56 17.97s-11.21 4.97-20.49 4.97c-2.3 0-4.24-.18-5.83-.53q-1.86 4.515-1.86 6.96c0 2.445.82 2.76 2.45 3.38s5.59.97 11.87 1.06c10.52.09 17.72 1.5 21.62 4.24 3.89 2.74 5.84 7.91 5.84 15.52Zm-46.95 1.33c0 3.09 1.24 5.3 3.71 6.63s6.72 1.99 12.73 1.99q16.05 0 16.05-9.15c0-3.45-.95-5.64-2.85-6.56-1.9-.93-5.68-1.44-11.34-1.52l-13-.8q-2.925 2.385-4.11 4.44c-.8 1.37-1.19 3.03-1.19 4.97m3.98-45.95q2.91 2.85 9.42 2.85c6.51 0 7.45-.95 9.35-2.85s2.85-4.88 2.85-8.95-.97-7.05-2.92-8.95-5.08-2.85-9.42-2.85c-8.13 0-12.2 3.94-12.2 11.8 0 4.07.97 7.05 2.92 8.95M441.62 251.22h-14.45v-66.31h14.32v4.11c6.45-3.71 12.55-5.57 18.3-5.57 8.84 0 14.87 2.5 18.1 7.49 3.23 5 4.84 13.24 4.84 24.73v35.54h-14.32v-35.14c0-7.16-.77-12.24-2.32-15.25-1.55-3-4.71-4.51-9.48-4.51-4.51 0-8.84.88-13 2.65l-1.99.8v51.45ZM499.57 173.64v-15.25h14.45v15.25zm0 77.58v-66.31h14.45v66.31zM545.99 251.22h-14.45v-66.31h14.32v4.11c6.45-3.71 12.55-5.57 18.3-5.57 8.84 0 14.87 2.5 18.1 7.49 3.23 5 4.84 13.24 4.84 24.73v35.54h-14.32v-35.14c0-7.16-.77-12.24-2.32-15.25-1.55-3-4.71-4.51-9.48-4.51-4.51 0-8.84.88-13 2.65l-1.99.8v51.45ZM661.89 260.23c0 14.5-10.48 21.75-31.43 21.75q-15.12 0-22.41-4.11c-4.86-2.74-7.29-7.74-7.29-14.99 0-3.27.8-6.08 2.39-8.42s4.15-4.88 7.69-7.63c-2.92-1.94-4.38-5.17-4.38-9.68 0-1.77 1.19-4.64 3.58-8.62l1.19-1.99c-6.37-3.8-9.55-10.43-9.55-19.89 0-7.96 2.39-13.79 7.16-17.51 4.77-3.71 11.23-5.57 19.36-5.57 3.89 0 7.74.44 11.54 1.33l1.99.4 20.56-.53v11.67l-11.01-.66c2.39 3.1 3.58 6.72 3.58 10.87 0 8.67-2.19 14.65-6.56 17.97s-11.21 4.97-20.49 4.97c-2.3 0-4.24-.18-5.83-.53q-1.86 4.515-1.86 6.96c0 2.445.82 2.76 2.45 3.38s5.59.97 11.87 1.06c10.52.09 17.72 1.5 21.62 4.24 3.89 2.74 5.84 7.91 5.84 15.52Zm-46.95 1.33c0 3.09 1.24 5.3 3.71 6.63s6.72 1.99 12.73 1.99q16.05 0 16.05-9.15c0-3.45-.95-5.64-2.85-6.56-1.9-.93-5.68-1.44-11.34-1.52l-13-.8q-2.925 2.385-4.11 4.44c-.8 1.37-1.19 3.03-1.19 4.97m3.98-45.95q2.91 2.85 9.42 2.85c6.51 0 7.45-.95 9.35-2.85s2.85-4.88 2.85-8.95-.97-7.05-2.92-8.95-5.08-2.85-9.42-2.85c-8.13 0-12.2 3.94-12.2 11.8 0 4.07.97 7.05 2.92 8.95M367.9 334.85h-12.62v-36.47h12.62c5.61 0 9.44 1.42 11.5 4.26s3.09 7.29 3.09 13.36c0 3.09-.2 5.71-.61 7.85-.41 2.15-1.13 4.09-2.16 5.83q-3.03 5.16-11.82 5.16Zm8.46-18.85c0-4.4-.55-7.58-1.65-9.53s-3.37-2.93-6.81-2.93h-6.71v26.09h6.71c3.51 0 5.86-1.3 7.03-3.89.57-1.31.95-2.72 1.14-4.21s.29-3.34.29-5.54ZM388.72 303.71v-6.12h5.8v6.12zm0 31.14v-26.62h5.8v26.62zM424.81 338.47c0 5.82-4.21 8.73-12.62 8.73q-6.075 0-9-1.65c-1.95-1.1-2.93-3.11-2.93-6.02 0-1.31.32-2.44.96-3.38q.96-1.41 3.09-3.06c-1.17-.78-1.76-2.08-1.76-3.89 0-.71.48-1.86 1.44-3.46l.48-.8c-2.56-1.53-3.83-4.19-3.83-7.99 0-3.19.96-5.54 2.88-7.03s4.51-2.24 7.77-2.24c1.56 0 3.1.18 4.63.53l.8.16 8.25-.21v4.68l-4.42-.27c.96 1.24 1.44 2.7 1.44 4.37 0 3.48-.88 5.88-2.64 7.21s-4.5 2-8.22 2q-1.38 0-2.34-.21-.75 1.815-.75 2.79c0 .975.33 1.11.99 1.36s2.24.39 4.76.43c4.22.04 7.12.6 8.68 1.7s2.34 3.18 2.34 6.23Zm-18.85.53c0 1.24.5 2.13 1.49 2.66s2.7.8 5.11.8c4.29 0 6.44-1.22 6.44-3.67q0-2.07-1.14-2.64c-.76-.37-2.28-.58-4.55-.61l-5.22-.32c-.78.64-1.33 1.23-1.65 1.78s-.48 1.22-.48 2m1.6-18.45q1.17 1.14 3.78 1.14c2.61 0 2.99-.38 3.75-1.14s1.14-1.96 1.14-3.59-.39-2.83-1.17-3.59q-1.17-1.14-3.78-1.14c-3.27 0-4.9 1.58-4.9 4.74 0 1.63.39 2.83 1.17 3.59ZM429.5 303.71v-6.12h5.8v6.12zm0 31.14v-26.62h5.8v26.62zM456.65 313.18h-7.35v11.71c0 2.17.16 3.6.48 4.31s1.14 1.06 2.45 1.06l4.37-.16.27 4.63q-3.57.69-5.43.69c-3.02 0-5.08-.69-6.2-2.08q-1.68-2.07-1.68-7.83v-12.35h-3.41v-4.95h3.41v-7.72h5.75v7.72h7.35v4.95ZM481.08 316.43v12.14c.04.78.24 1.36.61 1.73s.95.61 1.73.72l-.16 4.42c-3.05 0-5.41-.66-7.08-1.97-2.84 1.31-5.7 1.97-8.57 1.97-5.29 0-7.93-2.82-7.93-8.46 0-2.7.72-4.65 2.16-5.86s3.65-1.93 6.63-2.18l6.87-.59v-1.92c0-1.42-.31-2.41-.93-2.98s-1.54-.85-2.74-.85c-2.27 0-5.11.14-8.52.43l-1.7.11-.21-4.1c3.87-.92 7.43-1.38 10.67-1.38s5.59.7 7.03 2.1 2.16 3.63 2.16 6.68Zm-11.92 6.6c-2.45.21-3.67 1.54-3.67 3.99s1.08 3.67 3.25 3.67c1.77 0 3.66-.28 5.64-.85l.96-.32v-7.08zM488.69 334.85v-37.69h5.8v37.69zM514.25 334.85v-36.47h10.27l8.14 28.48 8.15-28.48h10.33v36.47h-5.96v-29.92h-.8l-8.62 28.43h-6.18l-8.62-28.43h-.8v29.92zM559.95 311.11c1.83-2.31 4.87-3.46 9.13-3.46s7.3 1.15 9.13 3.46 2.74 5.77 2.74 10.38-.89 8.09-2.66 10.43q-2.655 3.51-9.21 3.51c-6.555 0-7.44-1.17-9.21-3.51-1.78-2.34-2.66-5.82-2.66-10.43s.91-8.07 2.74-10.38m4.34 17.3c.82 1.42 2.41 2.13 4.79 2.13s3.97-.71 4.79-2.13 1.22-3.74 1.22-6.97-.43-5.52-1.3-6.87-2.44-2.02-4.71-2.02-3.84.67-4.71 2.02-1.3 3.64-1.3 6.87.41 5.55 1.22 6.97M592.5 334.85h-5.8v-26.62h5.75v1.65c2.59-1.49 5.04-2.24 7.35-2.24 3.55 0 5.97 1 7.27 3.01s1.94 5.32 1.94 9.93v14.27h-5.75v-14.11c0-2.87-.31-4.92-.93-6.12-.62-1.21-1.89-1.81-3.81-1.81-1.81 0-3.55.36-5.22 1.06l-.8.32zM634.72 330.06l1.49-.16.11 4.31c-4.05.82-7.63 1.22-10.75 1.22-3.94 0-6.77-1.08-8.49-3.25q-2.58-3.24-2.58-10.38 0-14.16 11.55-14.16c11.55 0 11.18 4.06 11.18 12.19l-.37 4.15h-16.5c.04 2.2.51 3.82 1.44 4.84.92 1.03 2.64 1.54 5.16 1.54s5.11-.11 7.77-.32Zm-3.19-10.54c0-2.63-.42-4.46-1.25-5.51s-2.25-1.57-4.23-1.57-3.43.55-4.34 1.65c-.9 1.1-1.38 2.91-1.41 5.43zM639.94 308.23h5.7l5.64 21.67h1.44l5.64-21.67h5.75L654 346.29h-5.7l3.19-11.45h-4.58l-6.97-26.62ZM415.34 359.16h13.84c3.73 0 6.51.75 8.36 2.26 1.84 1.51 2.77 3.91 2.77 7.21 0 2.17-.35 3.87-1.04 5.11q-1.035 1.86-3.27 3.09 5.22 2.025 5.22 8.46c0 6.89-3.87 10.33-11.61 10.33h-14.27v-36.47Zm13.52 5.11h-7.61v10.43h7.83c3.48 0 5.22-1.79 5.22-5.38 0-3.37-1.81-5.06-5.43-5.06Zm.32 15.44h-7.93v10.81h8.04c1.95 0 3.42-.41 4.39-1.22.98-.82 1.46-2.22 1.46-4.21s-.57-3.38-1.7-4.18-2.56-1.2-4.26-1.2M447.54 395.63v-37.69h5.8v37.69zM462.16 371.89c1.83-2.31 4.87-3.46 9.13-3.46s7.3 1.15 9.13 3.46 2.74 5.77 2.74 10.38-.89 8.09-2.66 10.43c-1.78 2.34-4.84 3.51-9.21 3.51s-7.44-1.17-9.21-3.51-2.66-5.82-2.66-10.43.91-8.07 2.74-10.38m4.34 17.3c.82 1.42 2.41 2.13 4.79 2.13s3.97-.71 4.79-2.13 1.22-3.74 1.22-6.97-.43-5.52-1.3-6.87-2.44-2.02-4.71-2.02-3.84.67-4.71 2.02-1.3 3.64-1.3 6.87.41 5.55 1.22 6.97M512.17 399.25c0 5.82-4.21 8.73-12.62 8.73q-6.075 0-9-1.65c-1.95-1.1-2.93-3.11-2.93-6.02 0-1.31.32-2.44.96-3.38q.96-1.41 3.09-3.06c-1.17-.78-1.76-2.08-1.76-3.89 0-.71.48-1.86 1.44-3.46l.48-.8c-2.56-1.53-3.83-4.19-3.83-7.99 0-3.19.96-5.54 2.88-7.03s4.51-2.24 7.77-2.24c1.56 0 3.11.18 4.63.53l.8.16 8.25-.21v4.68l-4.42-.27c.96 1.24 1.44 2.7 1.44 4.37 0 3.48-.88 5.88-2.63 7.21-1.76 1.33-4.5 2-8.23 2q-1.38 0-2.34-.21-.75 1.815-.75 2.79c0 .975.33 1.11.98 1.36.66.25 2.24.39 4.76.43 4.22.04 7.12.6 8.68 1.7s2.34 3.18 2.34 6.23Zm-18.85.53c0 1.24.5 2.13 1.49 2.66s2.7.8 5.11.8c4.29 0 6.44-1.22 6.44-3.67q0-2.07-1.14-2.64c-.76-.37-2.28-.58-4.55-.61l-5.22-.32c-.78.64-1.33 1.23-1.65 1.78s-.48 1.22-.48 2m1.6-18.45q1.17 1.14 3.78 1.14c2.61 0 2.99-.38 3.75-1.14s1.14-1.96 1.14-3.59-.39-2.83-1.17-3.59q-1.17-1.14-3.78-1.14c-3.27 0-4.9 1.58-4.9 4.74 0 1.63.39 2.83 1.17 3.59ZM539.96 363.74c-4.51 0-6.76 1.58-6.76 4.74 0 1.63.53 2.79 1.6 3.49s3.42 1.54 7.05 2.56c3.64 1.01 6.2 2.22 7.69 3.62s2.24 3.61 2.24 6.63c0 3.83-1.09 6.7-3.27 8.6s-5.16 2.85-8.92 2.85c-3.02 0-6.35-.36-10.01-1.06l-1.92-.37.59-4.74c4.79.64 8.45.96 10.97.96 4.4 0 6.6-1.95 6.6-5.86 0-1.53-.5-2.65-1.49-3.38s-3.23-1.53-6.71-2.4-6.07-2.07-7.77-3.59c-1.7-1.53-2.56-3.94-2.56-7.24s1.07-5.79 3.22-7.48 5.12-2.53 8.92-2.53q4.095 0 9.69.96l1.86.32-.48 4.79c-4.97-.57-8.48-.85-10.54-.85ZM576.43 390.84l1.49-.16.11 4.31c-4.05.82-7.63 1.22-10.75 1.22-3.94 0-6.77-1.08-8.49-3.25q-2.58-3.24-2.58-10.38 0-14.16 11.55-14.16c11.55 0 11.18 4.06 11.18 12.19l-.37 4.15h-16.5c.04 2.2.51 3.82 1.44 4.84.92 1.03 2.64 1.54 5.16 1.54s5.11-.11 7.77-.32Zm-3.19-10.54c0-2.63-.42-4.46-1.25-5.51s-2.24-1.57-4.23-1.57-3.43.55-4.34 1.65q-1.365 1.65-1.41 5.43zM584.52 395.63v-26.62h5.75v3.19c3.02-1.95 6.03-3.21 9.05-3.78v5.8q-4.575.9-7.83 2.34l-1.17.48v18.58h-5.8ZM603.74 364.49v-6.12h5.8v6.12zm0 31.14v-26.62h5.8v26.62zM635.52 390.84l1.49-.16.11 4.31c-4.05.82-7.63 1.22-10.75 1.22-3.94 0-6.77-1.08-8.49-3.25q-2.58-3.24-2.58-10.38 0-14.16 11.55-14.16c11.55 0 11.18 4.06 11.18 12.19l-.37 4.15h-16.5c.04 2.2.51 3.82 1.44 4.84.92 1.03 2.64 1.54 5.16 1.54s5.11-.11 7.77-.32Zm-3.19-10.54c0-2.63-.42-4.46-1.25-5.51s-2.24-1.57-4.23-1.57-3.43.55-4.34 1.65q-1.365 1.65-1.41 5.43zM662.08 374.5c-4.19-.57-7.22-.85-9.1-.85s-3.19.22-3.91.67c-.73.44-1.09 1.14-1.09 2.1s.4 1.63 1.2 2.02 2.68.84 5.64 1.36 5.07 1.32 6.31 2.42 1.86 3.05 1.86 5.86-.9 4.86-2.69 6.18c-1.79 1.31-4.41 1.97-7.85 1.97-2.16 0-4.9-.3-8.2-.9l-1.65-.27.21-4.84c4.26.57 7.33.85 9.21.85s3.22-.23 4.02-.69 1.2-1.22 1.2-2.29-.38-1.8-1.15-2.21c-.76-.41-2.59-.85-5.48-1.33s-5.01-1.23-6.36-2.26-2.02-2.91-2.02-5.64.93-4.77 2.8-6.12c1.86-1.35 4.25-2.02 7.16-2.02 2.27 0 5.06.28 8.36.85l1.65.32-.11 4.84ZM112.38 272.81h229.86v6.08H112.38zM426.78 272.81h161.35v6.08H426.78z" class="cls-112"/><g style="clip-path:url(#clippath)"><path d="m966.66 263.11-88.69-88.69h88.69z" class="cls-20"/><path d="m966.66 265.95-91.53-91.53h2.84l88.69 88.69z" class="cls-20"/><path d="m966.66 268.79-94.37-94.37h2.84l91.53 91.53z" style="stroke-width:0;fill:#6601d5"/><path d="m966.66 271.63-97.21-97.21h2.84l94.37 94.37z" style="stroke-width:0;fill:#6602d6"/><path d="M966.66 274.48 866.61 174.42h2.84l97.21 97.21z" style="stroke-width:0;fill:#6703d6"/><path d="m966.66 277.32-102.9-102.9h2.85l100.05 100.06z" style="stroke-width:0;fill:#6804d7"/><path d="M966.66 280.16 860.92 174.42h2.84l102.9 102.9z" style="stroke-width:0;fill:#6805d7"/><path d="M966.66 283 858.08 174.42h2.84l105.74 105.74z" style="stroke-width:0;fill:#6906d7"/><path d="M966.66 285.85 855.24 174.42h2.84L966.66 283z" style="stroke-width:0;fill:#6a07d8"/><path d="M966.66 288.69 852.4 174.42h2.84l111.42 111.43z" style="stroke-width:0;fill:#6a08d8"/><path d="M966.66 291.53 849.55 174.42h2.85l114.26 114.27z" style="stroke-width:0;fill:#6b09d8"/><path d="M966.66 294.37 846.71 174.42h2.84l117.11 117.11z" style="stroke-width:0;fill:#6c0ad9"/><path d="M966.66 297.21 843.87 174.42h2.84l119.95 119.95z" style="stroke-width:0;fill:#6c0bd9"/><path d="M966.66 300.06 841.03 174.42h2.84l122.79 122.79z" style="stroke-width:0;fill:#6d0cda"/><path d="M966.66 302.9 838.18 174.42h2.85l125.63 125.64z" style="stroke-width:0;fill:#6e0dda"/><path d="M966.66 305.74 835.34 174.42h2.84L966.66 302.9z" style="stroke-width:0;fill:#6f0eda"/><path d="M966.66 308.58 832.5 174.42h2.84l131.32 131.32z" style="stroke-width:0;fill:#6f0fdb"/><path d="m966.66 311.43-137-137.01h2.84l134.16 134.16z" style="stroke-width:0;fill:#7010db"/><path d="M966.66 314.27 826.82 174.42h2.84l137 137.01z" style="stroke-width:0;fill:#7111db"/><path d="M966.66 317.11 823.97 174.42h2.85l139.84 139.85z" style="stroke-width:0;fill:#7112dc"/><path d="M966.66 319.95 821.13 174.42h2.84l142.69 142.69z" style="stroke-width:0;fill:#7213dc"/><path d="M966.66 322.79 818.29 174.42h2.84l145.53 145.53z" style="stroke-width:0;fill:#7314dd"/><path d="M966.66 325.64 815.45 174.42h2.84l148.37 148.37z" style="stroke-width:0;fill:#7315dd"/><path d="M966.66 328.48 812.6 174.42h2.85l151.21 151.22z" style="stroke-width:0;fill:#7416dd"/><path d="m966.66 331.32-156.9-156.9h2.84l154.06 154.06z" style="stroke-width:0;fill:#7517de"/><path d="M966.66 334.16 806.92 174.42h2.84l156.9 156.9z" style="stroke-width:0;fill:#7518de"/><path d="m966.66 336.57-.22.22L804.3 174.64l.22-.22h2.4l159.74 159.74z" style="stroke-width:0;fill:#7619de"/><path d="M883.65 141.77h2.01v229.31h-2.01z" style="stroke-width:0;fill:#771adf" transform="rotate(-45 884.654 256.424)"/><path d="M882.23 143.19h2.01V372.5h-2.01z" style="stroke-width:0;fill:#771bdf" transform="rotate(-45 883.232 257.843)"/><path d="M880.81 144.61h2.01v229.31h-2.01z" style="stroke-width:0;fill:#781ce0" transform="rotate(-45 881.822 259.267)"/><path d="M879.39 146.03h2.01v229.31h-2.01z" style="stroke-width:0;fill:#791de0" transform="rotate(-45 880.4 260.686)"/><path d="M877.97 147.45h2.01v229.31h-2.01z" style="stroke-width:0;fill:#791ee0" transform="rotate(-45 878.978 262.106)"/><path d="M876.55 148.87h2.01v229.31h-2.01z" style="stroke-width:0;fill:#7a1fe1" transform="rotate(-45 877.555 263.525)"/><path d="M875.13 150.29h2.01V379.6h-2.01z" style="stroke-width:0;fill:#7b20e1" transform="rotate(-45 876.133 264.944)"/><path d="M873.71 151.72h2.01v229.31h-2.01z" style="stroke-width:0;fill:#7b21e1" transform="rotate(-45 874.706 266.375)"/><path d="M872.29 153.14h2.01v229.31h-2.01z" style="stroke-width:0;fill:#7c22e2" transform="rotate(-45 873.284 267.794)"/><path d="M870.87 154.56h2.01v229.31h-2.01z" style="stroke-width:0;fill:#7d23e2" transform="rotate(-45 871.874 269.218)"/><path d="M869.44 155.98h2.01v229.31h-2.01z" style="stroke-width:0;fill:#7d24e3" transform="rotate(-45 870.452 270.637)"/><path d="M868.02 157.4h2.01v229.31h-2.01z" style="stroke-width:0;fill:#7e25e3" transform="rotate(-45 869.03 272.056)"/><path d="M866.6 158.82h2.01v229.31h-2.01z" style="stroke-width:0;fill:#7f26e3" transform="rotate(-45 867.607 273.475)"/><path d="M865.18 160.24h2.01v229.31h-2.01z" style="stroke-width:0;fill:#7f27e4" transform="rotate(-45 866.185 274.894)"/><path d="M863.76 161.66h2.01v229.31h-2.01z" style="stroke-width:0;fill:#8028e4" transform="rotate(-45 864.763 276.314)"/><path d="M862.34 163.08h2.01v229.31h-2.01z" style="stroke-width:0;fill:#8129e4" transform="rotate(-45 863.34 277.733)"/><path d="M860.92 164.51h2.01v229.31h-2.01z" style="stroke-width:0;fill:#822ae5" transform="rotate(-45 861.925 279.169)"/><path d="M859.5 165.93h2.01v229.31h-2.01z" style="stroke-width:0;fill:#822be5" transform="rotate(-45 860.503 280.588)"/><path d="M858.08 167.35h2.01v229.31h-2.01z" style="stroke-width:0;fill:#832ce6" transform="rotate(-45 859.081 282.007)"/><path d="M856.65 168.77h2.01v229.31h-2.01z" style="stroke-width:0;fill:#842de6" transform="rotate(-45 857.659 283.426)"/><path d="M855.23 170.19h2.01V399.5h-2.01z" style="stroke-width:0;fill:#842ee6" transform="rotate(-45 856.237 284.845)"/><path d="M853.81 171.61h2.01v229.31h-2.01z" style="stroke-width:0;fill:#852fe7" transform="rotate(-45 854.815 286.264)"/><path d="M852.39 173.03h2.01v229.31h-2.01z" style="stroke-width:0;fill:#8630e7" transform="rotate(-45 853.392 287.683)"/><path d="M850.97 174.45h2.01v229.31h-2.01z" style="stroke-width:0;fill:#8631e7" transform="rotate(-45 851.97 289.102)"/><path d="M849.55 175.87h2.01v229.31h-2.01z" style="stroke-width:0;fill:#8732e8" transform="rotate(-45 850.56 290.527)"/><path d="M848.13 177.3h2.01v229.31h-2.01z" style="stroke-width:0;fill:#8833e8" transform="rotate(-45 849.133 291.958)"/><path d="M846.71 178.72h2.01v229.31h-2.01z" style="stroke-width:0;fill:#8834e9" transform="rotate(-45 847.71 293.377)"/><path d="M845.29 180.14h2.01v229.31h-2.01z" style="stroke-width:0;fill:#8935e9" transform="rotate(-45 846.288 294.796)"/><path d="M843.86 181.56h2.01v229.31h-2.01z" style="stroke-width:0;fill:#8a36e9" transform="rotate(-45 844.866 296.215)"/><path d="M842.44 182.98h2.01v229.31h-2.01z" style="stroke-width:0;fill:#8a37ea" transform="rotate(-45 843.444 297.634)"/><path d="M841.02 184.4h2.01v229.31h-2.01z" style="stroke-width:0;fill:#8b39ea" transform="rotate(-45 842.022 299.053)"/><path d="M839.6 185.82h2.01v229.31h-2.01z" style="stroke-width:0;fill:#8c3aea" transform="rotate(-45 840.612 300.477)"/><path d="M838.18 187.24h2.01v229.31h-2.01z" style="stroke-width:0;fill:#8c3beb" transform="rotate(-45 839.19 301.896)"/><path d="M836.76 188.66h2.01v229.31h-2.01z" style="stroke-width:0;fill:#8d3ceb" transform="rotate(-45 837.767 303.315)"/><path d="M835.34 190.09h2.01V419.4h-2.01z" style="stroke-width:0;fill:#8e3dec" transform="rotate(-45 836.34 304.747)"/><path d="M833.92 191.51h2.01v229.31h-2.01z" style="stroke-width:0;fill:#8e3eec" transform="rotate(-45 834.918 306.166)"/><path d="M832.5 192.93h2.01v229.31h-2.01z" style="stroke-width:0;fill:#8f3fec" transform="rotate(-45 833.496 307.585)"/><path d="M831.07 194.35h2.01v229.31h-2.01z" style="stroke-width:0;fill:#9040ed" transform="rotate(-45 832.074 309.004)"/><path d="M829.65 195.77h2.01v229.31h-2.01z" style="stroke-width:0;fill:#9041ed" transform="rotate(-45 830.663 310.428)"/><path d="M828.23 197.19h2.01V426.5h-2.01z" style="stroke-width:0;fill:#9142ed" transform="rotate(-45 829.241 311.847)"/><path d="M826.81 198.61h2.01v229.31h-2.01z" style="stroke-width:0;fill:#9243ee" transform="rotate(-45 827.82 313.266)"/><path d="M825.39 200.03h2.01v229.31h-2.01z" style="stroke-width:0;fill:#9244ee" transform="rotate(-45 826.397 314.685)"/><path d="M823.97 201.45h2.01v229.31h-2.01z" style="stroke-width:0;fill:#9345ef" transform="rotate(-45 824.975 316.104)"/><path d="M822.55 202.88h2.01v229.31h-2.01z" style="stroke-width:0;fill:#9446ef" transform="rotate(-45 823.552 317.523)"/><path d="M821.13 204.3h2.01v229.31h-2.01z" style="stroke-width:0;fill:#9547ef" transform="rotate(-45 822.125 318.955)"/><path d="M819.71 205.72h2.01v229.31h-2.01z" style="stroke-width:0;fill:#9548f0" transform="rotate(-45 820.703 320.374)"/><path d="M818.28 207.14h2.01v229.31h-2.01z" style="stroke-width:0;fill:#9649f0" transform="rotate(-45 819.293 321.798)"/><path d="M816.86 208.56h2.01v229.31h-2.01z" style="stroke-width:0;fill:#974af0" transform="rotate(-45 817.87 323.217)"/><path d="M815.44 209.98h2.01v229.31h-2.01z" style="stroke-width:0;fill:#974bf1" transform="rotate(-45 816.449 324.636)"/><path d="M814.02 211.4h2.01v229.31h-2.01z" style="stroke-width:0;fill:#984cf1" transform="rotate(-45 815.026 326.055)"/><path d="M812.6 212.82h2.01v229.31h-2.01z" style="stroke-width:0;fill:#994df2" transform="rotate(-45 813.604 327.474)"/><path d="M811.18 214.24h2.01v229.31h-2.01z" style="stroke-width:0;fill:#994ef2" transform="rotate(-45 812.182 328.893)"/><path d="M809.76 215.66h2.01v229.31h-2.01z" style="stroke-width:0;fill:#9a4ff2" transform="rotate(-45 810.76 330.312)"/><path d="M808.34 217.09h2.01V446.4h-2.01z" style="stroke-width:0;fill:#9b50f3" transform="rotate(-45 809.345 331.748)"/><path d="M806.92 218.51h2.01v229.31h-2.01z" style="stroke-width:0;fill:#9b51f3" transform="rotate(-45 807.923 333.168)"/><path d="M805.49 219.93h2.01v229.31h-2.01z" style="stroke-width:0;fill:#9c52f3" transform="rotate(-45 806.5 334.587)"/><path d="M804.07 221.35h2.01v229.31h-2.01z" style="stroke-width:0;fill:#9d53f4" transform="rotate(-45 805.078 336.006)"/><path d="M802.65 222.77h2.01v229.31h-2.01z" style="stroke-width:0;fill:#9d54f4" transform="rotate(-45 803.656 337.425)"/><path d="M801.23 224.19h2.01V453.5h-2.01z" style="stroke-width:0;fill:#9e55f5" transform="rotate(-45 802.234 338.844)"/><path d="M799.81 225.61h2.01v229.31h-2.01z" style="stroke-width:0;fill:#9f56f5" transform="rotate(-45 800.812 340.263)"/><path d="M798.39 227.03h2.01v229.31h-2.01z" style="stroke-width:0;fill:#9f57f5" transform="rotate(-45 799.401 341.687)"/><path d="m879.76 423.47-.22.22h-2.41L717.39 263.95v-2.4l.22-.22z" style="stroke-width:0;fill:#a058f6"/><path d="m874.29 423.69-156.9-156.9v-2.84l159.74 159.74z" style="stroke-width:0;fill:#a159f6"/><path d="M871.45 423.69 717.39 269.63v-2.84l156.9 156.9z" style="stroke-width:0;fill:#a15af6"/><path d="M868.61 423.69 717.39 272.48v-2.85l154.06 154.06z" style="stroke-width:0;fill:#a25bf7"/><path d="M865.76 423.69 717.39 275.32v-2.84l151.22 151.21z" style="stroke-width:0;fill:#a35cf7"/><path d="M862.92 423.69 717.39 278.16v-2.84l148.37 148.37z" style="stroke-width:0;fill:#a35df8"/><path d="M860.08 423.69 717.39 281v-2.84l145.53 145.53z" style="stroke-width:0;fill:#a45ef8"/><path d="M857.24 423.69 717.39 283.84V281l142.69 142.69z" style="stroke-width:0;fill:#a55ff8"/><path d="m854.4 423.69-137.01-137v-2.85l139.85 139.85z" style="stroke-width:0;fill:#a560f9"/><path d="M851.55 423.69 717.39 289.53v-2.84l137.01 137z" style="stroke-width:0;fill:#a661f9"/><path d="M848.71 423.69 717.39 292.37v-2.84l134.16 134.16z" style="stroke-width:0;fill:#a762f9"/><path d="M845.87 423.69 717.39 295.21v-2.84l131.32 131.32z" style="stroke-width:0;fill:#a863fa"/><path d="M843.03 423.69 717.39 298.06v-2.85l128.48 128.48z" style="stroke-width:0;fill:#a864fa"/><path d="M840.19 423.69 717.39 300.9v-2.84l125.64 125.63z" style="stroke-width:0;fill:#a965fb"/><path d="M837.34 423.69 717.39 303.74v-2.84l122.8 122.79z" style="stroke-width:0;fill:#aa66fb"/><path d="M834.5 423.69 717.39 306.58v-2.84l119.95 119.95z" style="stroke-width:0;fill:#aa67fb"/><path d="M831.66 423.69 717.39 309.42v-2.84L834.5 423.69z" style="stroke-width:0;fill:#ab68fc"/><path d="M828.82 423.69 717.39 312.27v-2.85l114.27 114.27z" style="stroke-width:0;fill:#ac69fc"/><path d="M825.97 423.69 717.39 315.11v-2.84l111.43 111.42z" style="stroke-width:0;fill:#ac6afc"/><path d="M823.13 423.69 717.39 317.95v-2.84l108.58 108.58z" style="stroke-width:0;fill:#ad6bfd"/><path d="m820.29 423.69-102.9-102.9v-2.84l105.74 105.74z" style="stroke-width:0;fill:#ae6cfd"/><path d="M817.45 423.69 717.39 323.64v-2.85l102.9 102.9z" style="stroke-width:0;fill:#ae6dfe"/><path d="m814.61 423.69-97.22-97.21v-2.84l100.06 100.05z" style="stroke-width:0;fill:#af6efe"/><path d="m811.76 423.69-94.37-94.37v-2.84l97.22 97.21z" style="stroke-width:0;fill:#b06ffe"/><path d="m808.92 423.69-91.53-91.53v-2.84l94.37 94.37z" style="stroke-width:0;fill:#b070ff"/><path d="M806.08 423.69 717.39 335v-2.84l91.53 91.53zM717.39 335l88.69 88.69h-88.69z" class="cls-58"/></g><path d="M842.4 413.93c-6.22 0-12.48-.5-18.74-1.52-30.33-4.94-56.92-21.4-74.87-46.34s-25.12-55.38-20.18-85.71 21.4-56.92 46.33-74.87c51.48-37.06 123.52-25.33 160.58 26.16 17.95 24.94 25.12 55.38 20.18 85.71s-21.4 56.92-46.34 74.87c-19.79 14.25-43.05 21.7-66.97 21.7Zm-.39-225.65c-22.39 0-44.97 6.76-64.48 20.8-23.98 17.26-39.8 42.83-44.55 72-4.75 29.16 2.14 58.43 19.4 82.41s42.83 39.8 72 44.55c6.02.98 12.04 1.46 18.02 1.46 23 0 45.36-7.17 64.39-20.87 23.98-17.26 39.8-42.83 44.55-72 4.75-29.16-2.14-58.43-19.4-82.41-21.59-29.99-55.53-45.95-89.93-45.95Z" style="fill:#fff"/><path d="M763.82 406.01c-1.94 0-3.58-.52-4.92-1.54-6.58-5.02-3.29-20 10.06-45.81 12.19-23.58 31.24-52.74 53.63-82.09s45.47-55.43 64.99-73.42c6.44-5.93 12.32-10.83 17.49-14.55 11.61-8.36 19.47-10.73 24.03-7.26 5.74 4.38 3.73 16.72-6.16 37.72l-1.07 2.27-1.67-1.87c-.29-.32-.56-.6-.84-.89-.17-.17-.35-.35-.54-.55l-.78-.82.48-1.03c9.8-21.09 9.22-29.15 7.34-30.59-2.3-1.76-12.2.79-34.66 21.49-19.3 17.79-42.16 43.62-64.36 72.73-22.21 29.11-41.08 57.99-53.13 81.3-14.03 27.13-13.87 37.35-11.56 39.1 1.74 1.33 7.31.08 17.72-7.42l1.4-1.02.95.61c.6.38 1.22.78 1.85 1.18l2.05 1.29-1.95 1.44c-8.77 6.49-15.49 9.7-20.34 9.7Z" class="cls-112"/><path d="M902.1 430.68c-6.46 0-15.45-8.06-26.79-24.03l-.99-1.39 1.67-.34c.75-.15 1.48-.31 2.18-.48l.72-.17.43.6c8.34 11.61 18.97 23.33 23.78 21.38 3.64-1.47 5.63-13.2-.75-41.38-5.8-25.63-16.9-58.37-31.26-92.17s-30.25-64.6-44.74-86.71c-6.75-10.3-13.11-18.48-18.41-23.66-6.67-6.52-9.83-6.62-11.11-6.1-1.42.57-4.55 3.64-2.98 19.62.01.1.05.46.09.8.03.29.07.56.08.65l.08.76-.69.34c-.35.18-.65.34-.96.5-.26.14-.54.29-.85.45l-1.42.73-.18-1.59c-1.73-15.5-.03-24.07 5.2-26.18 7.45-3.02 19.15 7.54 34.76 31.38 14.62 22.32 30.63 53.34 45.09 87.37s25.64 67.01 31.49 92.88c1.93 8.52 3.22 16.04 3.84 22.36 1.37 13.97-.48 21.78-5.67 23.88-.82.33-1.7.5-2.62.5Z" class="cls-112"/><path d="m755.64 369.14-2.29-.02c-19.82-.19-32.84-5.63-37.64-15.73-5.99-12.6 1.84-30.63 22.06-50.77 7.73-7.7 16.98-15.44 27.5-23.02 16.21-11.67 34.66-22.45 54.86-32.06 33.41-15.89 67.05-26.24 94.7-29.14 28.38-2.98 47.32 2.32 53.31 14.92 5.26 11.06.06 26.03-15.03 43.28l-1.42 1.63-1.18-5.1.36-.42c5.28-6.19 9.25-12.12 11.78-17.63 3.63-7.9 4.19-14.6 1.65-19.94-2.54-5.33-8.09-9.13-16.51-11.3-8.5-2.19-19.44-2.6-32.53-1.23-27.19 2.85-60.33 13.06-93.32 28.75s-61.82 34.96-81.19 54.25c-9.32 9.28-15.9 18.03-19.57 26.01-3.63 7.9-4.19 14.6-1.65 19.94 2.54 5.33 8.09 9.13 16.51 11.3 4.53 1.17 9.83 1.83 15.74 1.98h.52l3.33 4.29Z" class="cls-112"/><path d="M910.49 402.96c-9.74 0-22.09-3.86-36.33-11.49-9.17-4.91-18.79-11.2-28.61-18.69-15.13-11.54-30.08-25.38-44.44-41.13-23.76-26.06-42.52-53.85-52.83-78.26-10.59-25.07-11-43.82-1.16-52.79 7.88-7.18 21.32-7.3 38.86-.35l2.1.83-4.52 2.67-.5-.19c-5.26-1.99-10.16-3.3-14.56-3.91-8.19-1.12-14.44.23-18.59 4.01s-6.07 9.88-5.71 18.14c.36 8.35 3.02 18.43 7.89 29.97 10.13 23.99 28.63 51.36 52.07 77.08 23.45 25.72 49 46.66 71.95 58.96 11.04 5.92 20.84 9.49 29.12 10.63 8.19 1.12 14.44-.23 18.59-4.01s6.07-9.88 5.71-18.14c-.09-2.16-.32-3.89-.66-6.28l-.07-.46 3.47-4.46.47 2.39c2.68 13.77.62 23.87-6.12 30.02-4 3.65-9.46 5.46-16.13 5.46M911.95 192.97c-1.78 0-3.54-.83-4.65-2.38-1.84-2.56-1.26-6.15 1.3-7.99s6.15-1.26 7.99 1.3 1.26 6.15-1.3 7.99a5.7 5.7 0 0 1-3.34 1.08m-.01-8.13c-.49 0-.98.15-1.4.45a2.413 2.413 0 0 0-.55 3.36 2.415 2.415 0 0 0 3.36.55c1.08-.78 1.32-2.28.55-3.36-.47-.65-1.21-1-1.96-1M827.19 208.28c-1.78 0-3.54-.83-4.65-2.38-1.84-2.56-1.26-6.15 1.3-7.99a5.68 5.68 0 0 1 4.26-1c1.51.25 2.83 1.06 3.72 2.31a5.67 5.67 0 0 1 1 4.26 5.7 5.7 0 0 1-2.31 3.73 5.7 5.7 0 0 1-3.34 1.08Zm-1.96-4.31a2.413 2.413 0 0 0 3.36.55c.52-.38.87-.93.97-1.57.1-.63-.05-1.27-.42-1.79a2.414 2.414 0 0 0-3.36-.55 2.413 2.413 0 0 0-.55 3.36" class="cls-112"/><path d="m946.48 340.21 1.48-5.02.52-.19c9.78-3.57 16.53-6.75 20.61-9.7 7.05-5.09 10.83-10.66 11.24-16.55s-2.55-11.93-8.82-17.95c-6.33-6.08-15.65-11.83-27.72-17.06-25.08-10.89-58.95-18.29-95.4-20.85-36.44-2.56-71.02.04-97.37 7.32-12.68 3.5-22.71 7.88-29.83 13.02-7.05 5.09-10.83 10.66-11.24 16.55s2.55 11.93 8.82 17.95c3.37 3.24 7.66 6.43 12.73 9.47l.45.27.8 5.36-1.98-1.14c-17.17-9.91-25.82-21.05-25.04-32.21.98-13.92 16.67-25.77 44.17-33.36 10.52-2.9 22.38-5.1 35.26-6.52 19.85-2.19 41.22-2.51 63.54-.94 36.91 2.59 71.28 10.12 96.79 21.19 26.18 11.36 40.06 25.29 39.08 39.21-.82 11.74-13.63 22.55-36.05 30.44l-2.04.72ZM747.76 208.28c-1.78 0-3.54-.83-4.65-2.38a5.68 5.68 0 0 1-1-4.26 5.7 5.7 0 0 1 2.31-3.73 5.68 5.68 0 0 1 4.26-1c1.51.25 2.83 1.06 3.73 2.31 1.84 2.56 1.26 6.15-1.3 7.99a5.7 5.7 0 0 1-3.34 1.08Zm-.01-8.13c-.5 0-.99.16-1.4.45-.52.38-.87.93-.97 1.57-.1.63.05 1.27.42 1.79a2.415 2.415 0 0 0 3.36.55c1.08-.78 1.32-2.28.55-3.36a2.39 2.39 0 0 0-1.96-1" class="cls-112"/><path d="M752.95 263.41c-1.78 0-3.54-.83-4.65-2.38a5.68 5.68 0 0 1-1-4.26 5.7 5.7 0 0 1 2.31-3.73 5.68 5.68 0 0 1 4.26-1c1.51.25 2.83 1.06 3.72 2.31a5.67 5.67 0 0 1 1 4.26 5.7 5.7 0 0 1-2.31 3.73 5.7 5.7 0 0 1-3.34 1.08Zm-1.96-4.31a2.413 2.413 0 0 0 3.36.55c.52-.38.87-.93.97-1.57.1-.63-.05-1.27-.42-1.79a2.4 2.4 0 0 0-1.57-.97c-.63-.1-1.27.05-1.79.42-.52.38-.87.93-.97 1.57-.1.63.05 1.27.42 1.79M929.37 395.15c-1.78 0-3.54-.83-4.65-2.38a5.68 5.68 0 0 1-1-4.26 5.7 5.7 0 0 1 2.31-3.73 5.737 5.737 0 0 1 7.99 1.3c1.84 2.56 1.26 6.15-1.3 7.99a5.7 5.7 0 0 1-3.34 1.08Zm-.01-8.13c-.49 0-.98.15-1.4.45-.52.38-.87.93-.97 1.57-.1.63.05 1.27.42 1.79a2.413 2.413 0 0 0 3.36.55c1.08-.78 1.32-2.28.55-3.36-.47-.65-1.21-1-1.96-1M794.01 326.91c-.31 0-.62-.03-.93-.08a5.65 5.65 0 0 1-3.72-2.31 5.68 5.68 0 0 1-1-4.26 5.7 5.7 0 0 1 2.31-3.73 5.737 5.737 0 0 1 7.99 1.3c1.84 2.56 1.26 6.15-1.3 7.99-.98.71-2.14 1.08-3.33 1.08Zm-.02-8.13c-.49 0-.98.15-1.4.45-.52.38-.87.93-.97 1.57-.1.63.05 1.27.42 1.79.38.52.93.87 1.57.97.63.1 1.27-.05 1.79-.42 1.08-.78 1.32-2.28.55-3.36-.47-.65-1.21-1-1.96-1M758.41 397.27c-.31 0-.62-.03-.93-.08a5.65 5.65 0 0 1-3.72-2.31c-1.84-2.56-1.26-6.15 1.3-7.99s6.15-1.26 7.99 1.3 1.26 6.15-1.3 7.99c-.98.71-2.14 1.08-3.33 1.08Zm-.02-8.13c-.49 0-.98.15-1.4.45a2.413 2.413 0 0 0-.55 3.36 2.414 2.414 0 0 0 3.36.55c1.08-.78 1.32-2.28.55-3.36-.47-.65-1.21-1-1.96-1M879.32 312.48c-1.78 0-3.54-.83-4.65-2.38a5.68 5.68 0 0 1-1-4.26 5.7 5.7 0 0 1 2.31-3.73c2.56-1.84 6.15-1.26 7.99 1.3a5.68 5.68 0 0 1 1 4.26 5.7 5.7 0 0 1-2.31 3.73 5.7 5.7 0 0 1-3.34 1.08m-1.96-4.31a2.413 2.413 0 0 0 3.36.55c.52-.38.87-.93.97-1.57.1-.63-.05-1.27-.42-1.79a2.413 2.413 0 0 0-3.36-.55c-.52.38-.87.93-.97 1.57-.1.63.05 1.27.42 1.79M961.56 234.56c-1.78 0-3.54-.83-4.65-2.38-1.84-2.56-1.26-6.15 1.3-7.99s6.15-1.26 7.99 1.3a5.67 5.67 0 0 1 1 4.26 5.7 5.7 0 0 1-2.31 3.73 5.7 5.7 0 0 1-3.34 1.08Zm-1.96-4.31a2.413 2.413 0 0 0 3.36.55c.52-.38.87-.93.97-1.57.1-.63-.05-1.27-.42-1.79a2.413 2.413 0 0 0-3.36-.55 2.413 2.413 0 0 0-.55 3.36M718.7 360c-1.78 0-3.54-.83-4.65-2.38-1.84-2.56-1.26-6.15 1.3-7.99s6.15-1.26 7.99 1.3 1.26 6.15-1.3 7.99a5.7 5.7 0 0 1-3.34 1.08m-.01-8.13c-.49 0-.98.15-1.4.45a2.413 2.413 0 0 0-.55 3.36 2.415 2.415 0 0 0 3.36.55c1.08-.78 1.32-2.28.55-3.36-.47-.65-1.21-1-1.96-1M909.22 424.33c-.31 0-.62-.02-.93-.08a5.65 5.65 0 0 1-3.72-2.31 5.68 5.68 0 0 1-1-4.26 5.7 5.7 0 0 1 2.31-3.73c2.56-1.84 6.15-1.26 7.99 1.3s1.26 6.15-1.3 7.99c-.98.71-2.14 1.08-3.33 1.08Zm-.02-8.13c-.49 0-.98.15-1.4.45-.52.38-.87.93-.97 1.57-.1.63.05 1.27.42 1.79.38.52.93.87 1.57.97.63.1 1.27-.05 1.79-.42 1.08-.78 1.32-2.28.55-3.36-.47-.65-1.21-1-1.96-1M981.91 314.03c-.31 0-.62-.02-.93-.08a5.65 5.65 0 0 1-3.72-2.31 5.68 5.68 0 0 1-1-4.26 5.7 5.7 0 0 1 2.31-3.73 5.737 5.737 0 0 1 7.99 1.3c1.84 2.56 1.26 6.15-1.3 7.99-.98.71-2.14 1.08-3.33 1.08Zm-.02-8.13c-.49 0-.98.15-1.4.45-.52.38-.87.93-.97 1.57-.1.63.05 1.27.42 1.79.38.52.93.87 1.57.97.63.1 1.27-.05 1.79-.42 1.08-.78 1.32-2.28.55-3.36-.47-.65-1.21-1-1.96-1M708.62 290.32c-.31 0-.62-.03-.93-.08a5.65 5.65 0 0 1-3.72-2.31 5.68 5.68 0 0 1-1-4.26 5.7 5.7 0 0 1 2.31-3.73 5.737 5.737 0 0 1 7.99 1.3c1.84 2.56 1.26 6.15-1.3 7.99-.98.71-2.14 1.08-3.33 1.08Zm-.02-8.13c-.49 0-.98.15-1.4.45-.52.38-.87.93-.97 1.57-.1.63.05 1.27.42 1.79.38.52.93.87 1.57.97.63.1 1.27-.05 1.79-.42 1.08-.78 1.32-2.28.55-3.36-.47-.65-1.21-1-1.96-1M836.45 443.99h-.35c-4.37-.22-7.72-4.48-10.54-13.4l-.03-.1c-.4-1.6-.85-3.22-1.28-4.79-.47-1.71-.96-3.49-1.39-5.26-.26-1.05-.54-2.11-.82-3.17-.63-2.35-1.27-4.78-1.66-7.19l-.4-2.5 5.6 1.44.24.96c.43 1.72.85 3.45 1.27 5.18 1.1 4.56 2.24 9.27 3.66 13.78 2.36 7.48 4.65 9.56 5.63 9.61.99.06 3.46-1.78 6.58-8.98 2.46-5.68 4.86-13.56 7.15-23.41.43-1.87.87-3.85 1.3-5.88 5.53-26.23 9.63-61.31 11.56-98.77 1.92-37.46 1.42-72.78-1.4-99.44-1.36-12.85-3.18-22.94-5.41-29.99-2.36-7.48-4.65-9.56-5.63-9.61h-.04c-1 0-3.47 1.88-6.54 8.98-1.72 3.97-3.42 9.06-5.07 15.13l-.31 1.16-5.72.31.59-2.21c1.78-6.63 3.63-12.2 5.52-16.56 3.72-8.58 7.48-12.48 11.85-12.25 4.37.22 7.72 4.48 10.54 13.4 2.34 7.4 4.23 17.85 5.63 31.06 2.85 26.94 3.35 62.55 1.42 100.29s-6.08 73.11-11.67 99.62c-2.74 13-5.69 23.2-8.77 30.32-3.61 8.35-7.28 12.26-11.5 12.26Z" class="cls-112"/><path d="M857.82 173.96c-1.78 0-3.54-.83-4.65-2.38a5.68 5.68 0 0 1-1-4.26 5.7 5.7 0 0 1 2.31-3.73 5.737 5.737 0 0 1 7.99 1.3c1.84 2.56 1.26 6.15-1.3 7.99a5.7 5.7 0 0 1-3.34 1.08Zm-.01-8.13c-.49 0-.98.15-1.4.45-.52.38-.87.93-.97 1.57-.1.63.05 1.27.42 1.79a2.415 2.415 0 0 0 3.36.55c1.08-.78 1.32-2.28.55-3.36-.47-.65-1.21-1-1.96-1M858.74 385.51c-1.78 0-3.54-.83-4.65-2.38a5.68 5.68 0 0 1-1-4.26 5.7 5.7 0 0 1 2.31-3.73 5.737 5.737 0 0 1 7.99 1.3c1.84 2.56 1.26 6.15-1.3 7.99a5.7 5.7 0 0 1-3.34 1.08Zm-.01-8.13c-.49 0-.98.15-1.4.45-.52.38-.87.93-.97 1.57-.1.63.05 1.27.42 1.79a2.415 2.415 0 0 0 3.36.55c1.08-.78 1.32-2.28.55-3.36-.47-.65-1.21-1-1.96-1M865.52 236.22c-.31 0-.62-.02-.93-.08a5.65 5.65 0 0 1-3.72-2.31c-1.84-2.56-1.26-6.15 1.3-7.99s6.15-1.26 7.99 1.3 1.26 6.15-1.3 7.99c-.98.71-2.14 1.08-3.33 1.08Zm-.02-8.13c-.49 0-.98.15-1.4.45a2.413 2.413 0 0 0-.55 3.36c.38.52.93.87 1.57.97.63.1 1.27-.05 1.79-.42 1.08-.78 1.32-2.28.55-3.36-.47-.65-1.21-1-1.96-1" class="cls-112"/></svg>