<svg width="350" height="350" fill="none" xmlns="http://www.w3.org/2000/svg"><path d="M350 0H0v350h350V0Z" fill="url(#a)"/><path opacity=".11" fill-rule="evenodd" clip-rule="evenodd" d="M350 85.24a27.656 27.656 0 0 0-32.566 4.838 27.644 27.644 0 0 0-8.094 19.546 27.289 27.289 0 0 0 3.964 14.146 27.616 27.616 0 0 0 6.071 7.124l-8.629 19.565h-34.112c-.205-.351-.406-.701-.605-1.051-.486-.85-.967-1.693-1.502-2.509a120.406 120.406 0 0 0-129.385-53.783 120.392 120.392 0 0 0-63.197 37.679l-1.155 1.353H63.032l-8.728-10.987a27.534 27.534 0 0 0 5.018-16.151 27.59 27.59 0 0 0-31.236-27.297A27.59 27.59 0 0 0 5.091 112.24a27.588 27.588 0 0 0 37.224 18.302l10.936 13.796a7.581 7.581 0 0 0 5.918 2.861h10.386a119.905 119.905 0 0 0-16.403 80.662H28.07l-11.337-14.197a41.727 41.727 0 0 0 1.556-2.457 27.63 27.63 0 0 0 1.753-23.208A27.646 27.646 0 0 0 0 170.695v15.884a12.581 12.581 0 0 1 6.698 11.178A12.636 12.636 0 0 1 0 208.813v15.866a27.27 27.27 0 0 0 4.846-1.582l13.745 16.956a7.528 7.528 0 0 0 5.868 2.809h31.904a118.988 118.988 0 0 0 14.646 32.658h-15.6a7.484 7.484 0 0 0-4.516 1.556L28.37 294.182A27.629 27.629 0 0 0 0 291.269v20.164a12.593 12.593 0 0 1 20.618-4.295 12.596 12.596 0 0 1 0 17.809A12.592 12.592 0 0 1 0 320.655v20.636a27.638 27.638 0 0 0 39.404-25.037 27.077 27.077 0 0 0-1.604-9.23l-.299-.853L57.97 290.57h24.48l.35.452a120.415 120.415 0 0 0 57.604 35.503 120.407 120.407 0 0 0 67.655-1.177 120.406 120.406 0 0 0 56.334-37.485h25.082l12.289 13.996a51.64 51.64 0 0 0-1.604 2.81 27.795 27.795 0 0 0 20.507 39.789A27.794 27.794 0 0 0 350 329.278v-24.517a27.79 27.79 0 0 0-36.896-12.832l-14.548-16.555a7.684 7.684 0 0 0-5.666-2.558h-17.66a119.541 119.541 0 0 0 17.408-60.849v-3.211h26.037l14.096 21.271a28.235 28.235 0 0 0-6.622 17.907A27.643 27.643 0 0 0 350 275.363v-15.481a12.591 12.591 0 0 1-8.807-12.028 12.6 12.6 0 0 1 3.703-8.905 12.607 12.607 0 0 1 5.104-3.088v-15.254c-1.59.224-3.161.585-4.693 1.08l-16.402-24.579a7.532 7.532 0 0 0-6.17-3.411h-31.252a117.962 117.962 0 0 0-7.525-28.191h31.704a7.564 7.564 0 0 0 4.108-1.235 7.553 7.553 0 0 0 2.765-3.28l10.633-24.029c1.263.178 2.536.277 3.812.302 4.583 0 9.049-1.139 13.02-3.259V85.24ZM111.481 149.54a85.92 85.92 0 0 1 60.76-25.168l-.003-.003a85.982 85.982 0 0 1 85.932 85.931 85.92 85.92 0 0 1-25.169 60.76 85.923 85.923 0 0 1-121.52 0 85.92 85.92 0 0 1-25.168-60.76 85.924 85.924 0 0 1 25.168-60.76Zm10.637 110.884a70.895 70.895 0 0 0 50.123 20.761 70.984 70.984 0 0 0 70.882-70.881 70.882 70.882 0 0 0-84.71-69.523 70.883 70.883 0 0 0-36.295 19.396 70.9 70.9 0 0 0-20.758 50.123 70.882 70.882 0 0 0 20.758 50.124Zm42.178-60.935a11.238 11.238 0 0 1-3.29-7.945v-.007a11.276 11.276 0 0 1 3.02-8.463 11.283 11.283 0 0 1 16.485 0 11.292 11.292 0 0 1 3.02 8.463 7.476 7.476 0 0 0 7.524 7.525 7.572 7.572 0 0 0 7.522-7.522 26.248 26.248 0 0 0-5.246-15.66 26.223 26.223 0 0 0-13.565-9.422v-3.112a7.521 7.521 0 0 0-11.285-6.516 7.53 7.53 0 0 0-3.761 6.516v3.112a26.132 26.132 0 0 0 .954 50.41c2.138.601 4.35.922 6.571.954a11.29 11.29 0 0 1 11.336 11.273 11.286 11.286 0 0 1-19.291 7.974 11.292 11.292 0 0 1-3.284-8.009 7.528 7.528 0 0 0-7.525-7.525 7.537 7.537 0 0 0-5.32 2.205 7.528 7.528 0 0 0-2.201 5.32 26.223 26.223 0 0 0 5.227 15.649 26.214 26.214 0 0 0 13.533 9.434v3.411a7.518 7.518 0 0 0 3.761 6.516 7.529 7.529 0 0 0 7.524 0 7.526 7.526 0 0 0 3.761-6.516v-3.411a26.135 26.135 0 0 0 16.129-36.528 26.134 26.134 0 0 0-17.083-13.882 25.621 25.621 0 0 0-6.571-.954 11.248 11.248 0 0 1-7.945-3.29Zm181.59-98.767a12.593 12.593 0 0 0-21.496 8.903 12.592 12.592 0 1 0 21.496-8.903Zm-322.96 13.138a12.583 12.583 0 0 0 8.854 3.738h-.003a12.642 12.642 0 0 0 12.692-12.641 12.583 12.583 0 0 0-3.703-8.871 12.598 12.598 0 0 0-8.887-3.672 12.59 12.59 0 0 0-12.588 12.543 12.585 12.585 0 0 0 3.634 8.903Zm310.866 193.884a12.59 12.59 0 0 0-8.877-3.688 12.647 12.647 0 0 0-8.897 3.684 12.645 12.645 0 0 0-3.719 8.906 12.594 12.594 0 0 0 21.493 8.906 12.593 12.593 0 0 0 0-17.808Zm-236.04-22.954a105.342 105.342 0 0 0 148.979 0 105.348 105.348 0 0 0 0-148.979 105.348 105.348 0 0 0-148.98 0 105.348 105.348 0 0 0 0 148.979Z" fill="#6500D9"/><path d="M47.239 152.422c-2.264.007-4.431.874-6.032 2.409-1.6 1.536-2.502 3.617-2.51 5.789v.093c-5.584 2.08-9.676 6.168-10.965 10.935l-.171.631h3.056l.121-.343c1.143-3.612 4.239-6.631 8.523-8.369a8.24 8.24 0 0 0 2.733 3.529 8.749 8.749 0 0 0 4.24 1.666 8.863 8.863 0 0 0 4.526-.677 8.46 8.46 0 0 0 3.511-2.823 7.985 7.985 0 0 0 1.487-4.159 7.926 7.926 0 0 0-.966-4.298 8.35 8.35 0 0 0-3.141-3.2 8.815 8.815 0 0 0-4.413-1.183Zm0 13.548a5.757 5.757 0 0 1-3.607-1.287 5.338 5.338 0 0 1-1.896-3.213 5.194 5.194 0 0 1 .876-3.788 5.526 5.526 0 0 1 2.501-1.968 5.785 5.785 0 0 1 3.218-.303 5.646 5.646 0 0 1 2.851 1.464 5.283 5.283 0 0 1 1.524 2.737 5.148 5.148 0 0 1-.318 3.089 5.398 5.398 0 0 1-2.052 2.399 5.74 5.74 0 0 1-3.094.901l-.003-.031Z" fill="#fff"/><path d="M49.425 160.619c0 .415-.127.821-.367 1.166s-.58.615-.98.774c-.4.159-.839.201-1.263.121a2.214 2.214 0 0 1-1.12-.574 2.068 2.068 0 0 1-.599-1.073 2.022 2.022 0 0 1 .124-1.213c.165-.383.446-.711.805-.941.36-.231.782-.354 1.215-.354a2.234 2.234 0 0 1 1.542.614c.41.392.64.924.643 1.48ZM36.007 175.003c-.002.378-.16.74-.439 1.007a1.526 1.526 0 0 1-1.05.419H23.195c-.201.009-.402-.021-.59-.088a1.494 1.494 0 0 1-.507-.304 1.42 1.42 0 0 1-.341-.471 1.37 1.37 0 0 1 0-1.123 1.42 1.42 0 0 1 .34-.471 1.537 1.537 0 0 1 1.097-.391h11.324c.393 0 .77.149 1.05.416.279.266.437.628.439 1.006ZM47.239 181.182a8.805 8.805 0 0 0-4.84 1.44 8.272 8.272 0 0 0-3.138 3.817c-4.284-1.731-7.38-4.764-8.526-8.355l-.122-.343h-3.052l.17.634c1.29 4.774 5.382 8.849 10.966 10.936v.089a7.967 7.967 0 0 0 1.443 4.553 8.48 8.48 0 0 0 3.835 3.016 8.878 8.878 0 0 0 4.934.464 8.656 8.656 0 0 0 4.372-2.246 8.098 8.098 0 0 0 2.335-4.197 7.892 7.892 0 0 0-.487-4.735 8.277 8.277 0 0 0-3.146-3.678 8.793 8.793 0 0 0-4.744-1.381v-.014Zm0 13.547a5.696 5.696 0 0 1-3.936-1.566 5.249 5.249 0 0 1-1.635-3.777c0-.268.02-.536.061-.802v-.065a5.259 5.259 0 0 1 1.35-2.705 5.605 5.605 0 0 1 2.655-1.582 5.799 5.799 0 0 1 3.125.04 5.589 5.589 0 0 1 2.611 1.649 5.245 5.245 0 0 1 1.275 2.739 5.15 5.15 0 0 1-.463 2.966 5.416 5.416 0 0 1-2.055 2.261 5.737 5.737 0 0 1-3 .842h.012Z" fill="#fff"/><path d="M49.425 189.387c-.001.415-.13.82-.37 1.164-.24.345-.582.613-.982.771a2.257 2.257 0 0 1-2.38-.457 2.07 2.07 0 0 1-.597-1.073 2.021 2.021 0 0 1 .125-1.212c.166-.383.445-.71.805-.941a2.254 2.254 0 0 1 2.759.264c.41.394.64.927.64 1.484ZM92.256 169.898c-.17.253-.403.462-.68.606-.275.144-.584.22-.898.22h-.082c-.353 0-.698-.097-.994-.28a1.798 1.798 0 0 1-.681-.748 7.515 7.515 0 0 0-.936-1.457 7.952 7.952 0 0 0-1.935-1.713 9.233 9.233 0 0 0-2.5-1.083 12.59 12.59 0 0 0-6.195 0 14.234 14.234 0 0 0-5.83 2.988 12.64 12.64 0 0 0-2.2 2.444 12.08 12.08 0 0 0-1.464 2.981 11.012 11.012 0 0 0-.536 3.427 9.048 9.048 0 0 0 .715 3.681 8.156 8.156 0 0 0 1.974 2.79 8.845 8.845 0 0 0 2.95 1.765c1.151.42 2.374.633 3.606.627 1.052 0 2.1-.129 3.117-.384a14.032 14.032 0 0 0 2.935-1.097 14.067 14.067 0 0 0 2.614-1.734 12.94 12.94 0 0 0 1.803-1.833c.158-.19.358-.342.585-.448a1.756 1.756 0 0 1 1.618.084c.266.16.479.39.614.662a1.571 1.571 0 0 1-.196 1.713c-.375.453-.778.891-1.203 1.316a17.336 17.336 0 0 1-7.613 4.411 16.771 16.771 0 0 1-4.563.62 14.182 14.182 0 0 1-5.139-.908 12.337 12.337 0 0 1-4.03-2.502 11.574 11.574 0 0 1-2.64-3.769 11.626 11.626 0 0 1-.932-4.699 13.67 13.67 0 0 1 .65-4.185 15.406 15.406 0 0 1 1.786-3.769 16.657 16.657 0 0 1 2.75-3.198 18.178 18.178 0 0 1 3.53-2.491 17.926 17.926 0 0 1 4.096-1.618 17.587 17.587 0 0 1 4.489-.572c1.489-.011 2.97.196 4.395.613 1.31.383 2.546.971 3.656 1.741 1.062.74 1.975 1.66 2.693 2.714.306.453.577.928.81 1.419a1.685 1.685 0 0 1-.14 1.666ZM125.921 174.342l-2.389 12.982a1.762 1.762 0 0 1-.631 1.055 1.887 1.887 0 0 1-1.19.415h-.05c-.27 0-.538-.056-.783-.166a1.85 1.85 0 0 1-.636-.469 1.723 1.723 0 0 1-.406-1.452l2.3-12.433c.3-1.414.368-2.864.2-4.298a5.43 5.43 0 0 0-1.204-2.81 5.556 5.556 0 0 0-2.538-1.583 12.87 12.87 0 0 0-3.903-.528 11.553 11.553 0 0 0-3.749.627 11.856 11.856 0 0 0-3.357 1.796 11.253 11.253 0 0 0-2.599 2.837 10.424 10.424 0 0 0-1.457 3.77l-2.449 13.287a1.775 1.775 0 0 1-.772 1.12c-.4.262-.89.364-1.367.284a1.868 1.868 0 0 1-1.184-.715 1.725 1.725 0 0 1-.327-1.306l6.028-32.866c.042-.23.132-.449.263-.646a1.81 1.81 0 0 1 .501-.501 1.9 1.9 0 0 1 1.385-.292c.24.041.469.127.674.253.205.125.382.289.521.48a1.732 1.732 0 0 1 .305 1.33l-2.125 11.412a14.628 14.628 0 0 1 4.035-2.741 16.155 16.155 0 0 1 3.089-1.056c1.1-.252 2.228-.379 3.36-.377 4.121 0 7.123 1.028 8.927 3.085 1.803 2.056 2.303 5.25 1.528 9.506ZM142.738 154.639c-.018.36-.117.711-.293 1.028a2.832 2.832 0 0 1-.643.792 3.364 3.364 0 0 1-2.189.781 2.346 2.346 0 0 1-.921-.138 2.291 2.291 0 0 1-.785-.482 2.069 2.069 0 0 1-.477-.697 2 2 0 0 1-.155-.821c.001-.356.085-.707.246-1.028.163-.33.392-.624.675-.867.294-.248.629-.445.992-.583a3.24 3.24 0 0 1 1.19-.212c.315-.014.631.034.926.144a2.3 2.3 0 0 1 .788.49c.219.206.39.455.501.73.111.274.161.569.145.863ZM140.088 164.52l-4.178 22.801a1.745 1.745 0 0 1-.263.65 1.82 1.82 0 0 1-.501.504 1.927 1.927 0 0 1-2.068.045 1.83 1.83 0 0 1-.525-.481 1.723 1.723 0 0 1-.31-1.335l4.199-22.797c.072-.412.294-.787.627-1.056a1.882 1.882 0 0 1 1.19-.414 1.91 1.91 0 0 1 .783.165c.246.109.463.269.637.468a1.723 1.723 0 0 1 .409 1.45ZM192.089 174.242l-2.4 13.081c-.036.235-.12.461-.249.664a1.805 1.805 0 0 1-.498.518c-.2.139-.428.238-.669.291a1.928 1.928 0 0 1-1.418-.239 1.827 1.827 0 0 1-.525-.492 1.709 1.709 0 0 1-.283-1.355l2.278-12.434c.294-1.388.377-2.811.246-4.222a6.492 6.492 0 0 0-.96-2.848 4.495 4.495 0 0 0-1.95-1.624 7.269 7.269 0 0 0-2.903-.538 11.005 11.005 0 0 0-3.653.613 10.321 10.321 0 0 0-3.138 1.775 10.76 10.76 0 0 0-2.393 2.838 11.536 11.536 0 0 0-1.371 3.818l-.05.284h-.06l-2.371 12.941a1.747 1.747 0 0 1-.264.65 1.824 1.824 0 0 1-.502.504 1.948 1.948 0 0 1-1.391.296 1.912 1.912 0 0 1-.677-.253 1.833 1.833 0 0 1-.525-.482 1.738 1.738 0 0 1-.308-1.335l2.274-12.417c.294-1.388.377-2.811.246-4.222a6.441 6.441 0 0 0-.96-2.848 4.49 4.49 0 0 0-1.95-1.624 7.25 7.25 0 0 0-2.899-.538 10.988 10.988 0 0 0-3.656.613 10.42 10.42 0 0 0-3.139 1.765 10.408 10.408 0 0 0-2.392 2.844 12.31 12.31 0 0 0-1.4 3.849l-2.421 13.208a1.755 1.755 0 0 1-.632 1.056 1.908 1.908 0 0 1-1.974.245c-.244-.11-.46-.27-.634-.469a1.755 1.755 0 0 1-.369-.681 1.718 1.718 0 0 1-.037-.768l4.2-22.804a1.75 1.75 0 0 1 .631-1.051 1.9 1.9 0 0 1 1.19-.412h.064c.271-.001.54.056.786.166.247.11.464.271.638.471a1.707 1.707 0 0 1 .397 1.46l-.172.874a14.963 14.963 0 0 1 3.625-2.399 13.849 13.849 0 0 1 5.952-1.254c2.192 0 4.067.497 5.574 1.467a7.289 7.289 0 0 1 2.917 3.729 13.887 13.887 0 0 1 4.417-3.524 15.278 15.278 0 0 1 7.006-1.655 11.34 11.34 0 0 1 4.327.778 7.227 7.227 0 0 1 3.078 2.368 8.812 8.812 0 0 1 1.543 3.928 16.262 16.262 0 0 1-.196 5.394ZM226.961 168.967a11.431 11.431 0 0 0-2.674-3.813 11.982 11.982 0 0 0-4.022-2.493 14.263 14.263 0 0 0-5.148-.911 17.544 17.544 0 0 0-4.489.572c-1.429.37-2.801.913-4.084 1.617a18.68 18.68 0 0 0-3.518 2.492 17.218 17.218 0 0 0-2.76 3.194 14.932 14.932 0 0 0-1.785 3.77 14.003 14.003 0 0 0-.636 4.181c-.01 1.603.309 3.193.939 4.678a11.377 11.377 0 0 0 2.639 3.79 12.534 12.534 0 0 0 4.035 2.519c1.632.618 3.374.927 5.128.908 1.52.004 3.035-.187 4.503-.568a18.228 18.228 0 0 0 7.637-4.086 16.696 16.696 0 0 0 2.763-3.207 15.318 15.318 0 0 0 1.786-3.77c.423-1.357.638-2.765.636-4.181a11.73 11.73 0 0 0-.95-4.692Zm-12.079-3.924a10.033 10.033 0 0 1 3.741.685 8.916 8.916 0 0 1 2.921 1.878 8.58 8.58 0 0 1 1.903 2.828 9.09 9.09 0 0 1 .69 3.55 10.55 10.55 0 0 1-1.104 4.767 12.85 12.85 0 0 1-2.946 3.877 13.816 13.816 0 0 1-4.235 2.597c-1.573.62-3.258.939-4.96.939a10.171 10.171 0 0 1-3.735-.685 8.647 8.647 0 0 1-2.907-1.856 8.233 8.233 0 0 1-1.902-2.812 9.223 9.223 0 0 1-.686-3.578 10.715 10.715 0 0 1 .5-3.259 11.767 11.767 0 0 1 1.4-2.92 12.962 12.962 0 0 1 2.141-2.464 13.916 13.916 0 0 1 5.821-3.126 13.225 13.225 0 0 1 3.358-.421ZM261.353 174.52l-2.343 12.783a1.77 1.77 0 0 1-.264.655 1.832 1.832 0 0 1-.505.507 1.93 1.93 0 0 1-1.403.299 1.9 1.9 0 0 1-1.212-.74 1.775 1.775 0 0 1-.295-.643 1.765 1.765 0 0 1-.016-.702l2.245-12.225c.301-1.412.368-2.861.197-4.294a5.851 5.851 0 0 0-1.177-2.889 5.543 5.543 0 0 0-2.475-1.665 11.658 11.658 0 0 0-3.82-.562 11.133 11.133 0 0 0-3.833.685 11.932 11.932 0 0 0-3.409 1.947 12.191 12.191 0 0 0-2.643 3.033 10.994 10.994 0 0 0-1.484 3.913l-2.343 12.705a1.77 1.77 0 0 1-.635 1.051 1.898 1.898 0 0 1-1.972.248 1.838 1.838 0 0 1-.635-.469 1.723 1.723 0 0 1-.408-1.451l4.2-22.79a1.73 1.73 0 0 1 .256-.664 1.884 1.884 0 0 1 1.18-.805 1.924 1.924 0 0 1 1.423.248 1.802 1.802 0 0 1 .81 1.15c.048.234.048.475-.002.709l-.25 1.37c.44-.41.907-.795 1.397-1.151a16.42 16.42 0 0 1 2.673-1.577 15.326 15.326 0 0 1 3.027-1.052 14.161 14.161 0 0 1 3.283-.38c4.121 0 7.12 1.072 8.926 3.18 1.807 2.108 2.282 5.319 1.507 9.576ZM296.689 170.188a10.982 10.982 0 0 0-2.41-4.418 11.9 11.9 0 0 0-4.251-2.951 14.466 14.466 0 0 0-5.648-1.069c-2.05 0-4.082.37-5.99 1.09a18.284 18.284 0 0 0-5.133 2.933 17.98 17.98 0 0 0-3.849 4.384 15.125 15.125 0 0 0-2.093 5.398c-.361 1.8-.3 3.656.179 5.432a11.076 11.076 0 0 0 2.426 4.455 11.88 11.88 0 0 0 4.245 2.978 14.432 14.432 0 0 0 5.676 1.079 16.728 16.728 0 0 0 4.521-.613 18.11 18.11 0 0 0 4.056-1.713 17.898 17.898 0 0 0 3.439-2.547c.358-.343.693-.685 1.011-1.045a1.54 1.54 0 0 0 .254-1.714 1.669 1.669 0 0 0-.631-.702 1.758 1.758 0 0 0-.926-.261 1.741 1.741 0 0 0-.729.157 1.659 1.659 0 0 0-.584.446 13.438 13.438 0 0 1-1.704 1.686 14.11 14.11 0 0 1-2.525 1.656c-.904.461-1.864.817-2.857 1.059a12.763 12.763 0 0 1-3.067.37 10.591 10.591 0 0 1-3.827-.686 8.857 8.857 0 0 1-3.061-1.936 8.147 8.147 0 0 1-1.939-3.043 8.776 8.776 0 0 1-.457-3.712h24.467c.38-.003.749-.131 1.044-.364.292-.233.495-.556.57-.914.331-1.805.26-3.658-.207-5.435Zm-12.52-5.271a10.442 10.442 0 0 1 3.929.709 8.413 8.413 0 0 1 2.955 1.957 8.176 8.176 0 0 1 1.811 2.971 9.124 9.124 0 0 1 .508 3.129.28.28 0 0 1-.085.2.302.302 0 0 1-.208.085h-21.271a.298.298 0 0 1-.244-.12.267.267 0 0 1-.03-.25 12.664 12.664 0 0 1 1.6-2.958 14.01 14.01 0 0 1 2.976-3.019 14.15 14.15 0 0 1 3.782-1.991 13.105 13.105 0 0 1 4.277-.713ZM327.912 165.043l-20.431 31.746a1.72 1.72 0 0 1-.467.48 1.8 1.8 0 0 1-1.309.294 1.773 1.773 0 0 1-1.143-.68 1.661 1.661 0 0 1-.284-.599 1.676 1.676 0 0 1-.023-.658c.039-.218.12-.428.242-.616l4.476-6.919-6.427-23.305a1.802 1.802 0 0 1 .203-1.417 1.924 1.924 0 0 1 1.187-.865c.248-.062.504-.077.758-.044.253.033.497.114.718.238.222.124.414.288.569.483.154.196.268.419.333.656l5.43 19.929 13.133-20.518c.161-.247.384-.451.648-.593a1.852 1.852 0 0 1 1.768.02c.272.154.497.375.652.64.156.265.233.565.227.868a1.641 1.641 0 0 1-.26.86Z" fill="#fff"/><defs><linearGradient id="a" x1="-.003" y1="175" x2="349.997" y2="175" gradientUnits="userSpaceOnUse"><stop stop-color="#6500CF"/><stop offset="1" stop-color="#AB71FF"/></linearGradient></defs></svg>