<svg width="1100" height="600" fill="none" xmlns="http://www.w3.org/2000/svg"><path d="M1100 0H0v600h1100V0Z" fill="url(#a)"/><path opacity=".11" d="M611.362 110.772a185.95 185.95 0 0 0-131.524 54.495 186.063 186.063 0 0 0-54.48 131.559 186.063 186.063 0 0 0 54.48 131.558 185.963 185.963 0 0 0 263.049 0 186.063 186.063 0 0 0 54.48-131.558 186.187 186.187 0 0 0-54.515-131.532 186.095 186.095 0 0 0-131.497-54.529l.007.007Zm0 339.534a153.436 153.436 0 0 1-108.499-44.953 153.485 153.485 0 0 1-44.934-108.527c0-40.71 16.165-79.738 44.934-108.528a153.419 153.419 0 0 1 78.566-41.998 153.335 153.335 0 0 1 88.65 8.736 153.416 153.416 0 0 1 68.861 56.527 153.494 153.494 0 0 1 25.856 85.269 153.71 153.71 0 0 1-45.003 108.459 153.658 153.658 0 0 1-108.431 45.015Zm-24.32-194.093a24.333 24.333 0 0 0 7.122 17.203 24.344 24.344 0 0 0 17.198 7.123c4.808.069 9.595.765 14.223 2.067a56.57 56.57 0 0 1 36.979 30.058 56.595 56.595 0 0 1 .903 47.654 56.575 56.575 0 0 1-35.816 31.436v7.385a16.296 16.296 0 0 1-8.141 14.11 16.283 16.283 0 0 1-24.43-14.11v-7.385a56.736 56.736 0 0 1-29.293-20.427 56.8 56.8 0 0 1-11.316-33.882c0-4.32 1.715-8.467 4.766-11.519a16.31 16.31 0 0 1 11.516-4.774 16.3 16.3 0 0 1 16.289 16.293 24.449 24.449 0 0 0 7.108 17.341 24.435 24.435 0 0 0 41.759-17.265 24.474 24.474 0 0 0-7.204-17.299 24.428 24.428 0 0 0-17.336-7.11 55.504 55.504 0 0 1-14.223-2.067 56.57 56.57 0 0 1-36.979-30.058 56.594 56.594 0 0 1-.902-47.654 56.57 56.57 0 0 1 35.815-31.436v-6.737a16.303 16.303 0 0 1 8.141-14.11 16.302 16.302 0 0 1 16.289 0 16.289 16.289 0 0 1 8.141 14.11v6.737a56.772 56.772 0 0 1 29.362 20.4 56.837 56.837 0 0 1 11.357 33.909 16.397 16.397 0 0 1-4.8 11.485 16.355 16.355 0 0 1-11.482 4.801 16.2 16.2 0 0 1-11.55-4.739 16.199 16.199 0 0 1-4.739-11.554 24.448 24.448 0 0 0-6.536-18.326 24.43 24.43 0 0 0-35.684 0 24.425 24.425 0 0 0-6.537 18.326v.014Zm417.298 62.342a60.331 60.331 0 0 0-18.351 2.928l-35.505-53.221a16.309 16.309 0 0 0-13.355-7.385H869.48a255.583 255.583 0 0 0-16.289-61.04h68.627a16.347 16.347 0 0 0 8.892-2.673 16.322 16.322 0 0 0 5.985-7.103l23.018-52.028c2.735.386 5.49.6 8.252.655a59.839 59.839 0 0 0 42.305-17.527 59.867 59.867 0 0 0 17.53-42.321 59.867 59.867 0 0 0-17.53-42.321 59.798 59.798 0 0 0-42.305-17.527 59.86 59.86 0 0 0-42.311 17.527 59.863 59.863 0 0 0-17.521 42.321 59.1 59.1 0 0 0 8.581 30.63 59.766 59.766 0 0 0 13.142 15.425l-18.679 42.363h-73.842c-1.522-2.604-2.927-5.215-4.559-7.709A260.563 260.563 0 0 0 711.418 56.374a260.575 260.575 0 0 0-295.517 68.308l-2.5 2.928h-38.44l-18.892-23.789a59.638 59.638 0 0 0 10.862-34.97 59.748 59.748 0 0 0-20.422-44.87 59.712 59.712 0 0 0-89.008 11.87 59.763 59.763 0 0 0-7.962 48.652 59.73 59.73 0 0 0 31.311 38.07 59.697 59.697 0 0 0 49.267 1.557l23.672 29.873a16.402 16.402 0 0 0 12.811 6.193h22.481a259.677 259.677 0 0 0-35.505 174.652h-54.295l-24.54-30.74a90.932 90.932 0 0 0 3.368-5.319 59.84 59.84 0 0 0 3.795-50.251 59.851 59.851 0 0 0-35.919-35.335 59.8 59.8 0 0 0-50.168 4.636 59.865 59.865 0 0 0-28.845 41.316 59.868 59.868 0 0 0 12.934 48.707 59.835 59.835 0 0 0 45.541 21.557 59.2 59.2 0 0 0 23.562-4.885l29.754 36.714a16.29 16.29 0 0 0 12.701 6.083h69.061a257.702 257.702 0 0 0 31.703 70.712h-33.769a16.2 16.2 0 0 0-9.774 3.369l-48.756 37.037a59.805 59.805 0 0 0-50.658-10.162 59.85 59.85 0 0 0-38.798 84.774 59.811 59.811 0 0 0 40.795 31.711 59.806 59.806 0 0 0 50.279-11.897 59.859 59.859 0 0 0 22.268-46.634 58.651 58.651 0 0 0-3.472-19.986l-.647-1.847 44.307-33.778h52.993l.758.978a260.631 260.631 0 0 0 124.692 76.871 260.562 260.562 0 0 0 146.449-2.549 260.621 260.621 0 0 0 121.944-81.163h54.295l26.599 30.306a111.595 111.595 0 0 0-3.471 6.084 60.161 60.161 0 0 0 .427 54.301 60.147 60.147 0 0 0 95.675 15.315 60.163 60.163 0 0 0 17.336-51.456 60.166 60.166 0 0 0-31.146-44.471 60.147 60.147 0 0 0-54.274-1.274l-31.489-35.846a16.636 16.636 0 0 0-12.267-5.539h-38.226a258.907 258.907 0 0 0 37.682-131.751v-6.952h56.361l30.511 46.055a61.153 61.153 0 0 0-14.333 38.774 59.863 59.863 0 0 0 17.46 42.362 59.794 59.794 0 0 0 42.301 17.589 59.84 59.84 0 0 0 42.34-17.485 59.832 59.832 0 0 0 17.56-42.322 59.771 59.771 0 0 0-17.51-42.342 59.82 59.82 0 0 0-42.32-17.54h.02l-.03-.02ZM967.965 51.579c7.231 0 14.16 2.873 19.278 7.985a27.273 27.273 0 0 1 7.982 19.276 27.273 27.273 0 0 1-7.982 19.276 27.264 27.264 0 0 1-19.278 7.985 27.248 27.248 0 0 1-19.272-7.985 27.273 27.273 0 0 1-7.982-19.276 27.26 27.26 0 0 1 27.254-27.261ZM307.312 96.105a27.252 27.252 0 0 1-27.034-27.371 27.291 27.291 0 0 1 8.018-19.208 27.249 27.249 0 0 1 19.23-7.95c7.204 0 14.126 2.859 19.236 7.95a27.25 27.25 0 0 1 8.018 19.207 27.4 27.4 0 0 1-8.052 19.394 27.36 27.36 0 0 1-19.423 7.978h.007ZM225.44 296.826a27.261 27.261 0 0 1-26.93-27.516 27.302 27.302 0 0 1 8.134-19.18 27.289 27.289 0 0 1 19.299-7.834 27.25 27.25 0 0 1 19.195 8.089 27.25 27.25 0 0 1 7.88 19.283 27.364 27.364 0 0 1-27.585 27.151l.007.007Zm38.439 256.221a27.243 27.243 0 0 1-19.271-7.985 27.27 27.27 0 0 1 0-38.559 27.255 27.255 0 0 1 19.271-7.985 27.26 27.26 0 0 1 27.254 27.268 27.26 27.26 0 0 1-27.254 27.261Zm677.913-53.22a27.243 27.243 0 0 1 19.271 7.985 27.267 27.267 0 0 1 7.983 19.276 27.255 27.255 0 0 1-27.254 27.268 27.255 27.255 0 0 1-27.254-27.268 27.36 27.36 0 0 1 27.364-27.261h-.11Zm-330.43 25.091a228 228 0 0 1-161.244-66.806 228.13 228.13 0 0 1-66.788-161.286 228.131 228.131 0 0 1 66.788-161.287 228.014 228.014 0 0 1 161.244-66.806 228.01 228.01 0 0 1 161.244 66.806 228.132 228.132 0 0 1 66.789 161.287 228.132 228.132 0 0 1-66.789 161.286 228.01 228.01 0 0 1-161.244 66.806Zm392.978-119.475a27.253 27.253 0 0 1-19.288-7.999 27.222 27.222 0 0 1-7.968-19.304 27.291 27.291 0 0 1 8.017-19.283 27.263 27.263 0 0 1 19.309-7.943 27.255 27.255 0 0 1 27.18 27.371 27.369 27.369 0 0 1-8.05 19.18c-5.1 5.077-12 7.95-19.2 7.978Z" fill="#6500D9"/><path d="M654.681 270.078c-2.897.009-5.672 1.117-7.721 3.083-2.049 1.965-3.204 4.628-3.213 7.408v.119c-7.15 2.662-12.389 7.894-14.039 13.995l-.219.807h3.913l.155-.438c1.463-4.623 5.426-8.487 10.912-10.711a10.541 10.541 0 0 0 3.499 4.516 11.181 11.181 0 0 0 5.427 2.132 11.345 11.345 0 0 0 5.795-.866 10.83 10.83 0 0 0 4.495-3.613 10.21 10.21 0 0 0 1.903-5.323 10.147 10.147 0 0 0-1.237-5.5 10.685 10.685 0 0 0-4.021-4.096 11.276 11.276 0 0 0-5.649-1.513Zm0 17.338a7.367 7.367 0 0 1-4.617-1.647 6.83 6.83 0 0 1-2.427-4.112 6.644 6.644 0 0 1 1.122-4.849 7.078 7.078 0 0 1 3.201-2.518 7.409 7.409 0 0 1 4.12-.387 7.225 7.225 0 0 1 3.65 1.873 6.759 6.759 0 0 1 1.95 3.504 6.58 6.58 0 0 1-.406 3.952 6.908 6.908 0 0 1-2.627 3.07 7.342 7.342 0 0 1-3.961 1.153l-.005-.039Z" fill="#fff"/><path d="M657.48 280.568a2.604 2.604 0 0 1-.469 1.492 2.78 2.78 0 0 1-1.255.991 2.916 2.916 0 0 1-1.617.154 2.836 2.836 0 0 1-1.433-.733 2.653 2.653 0 0 1-.767-1.375 2.59 2.59 0 0 1 .158-1.551c.212-.491.57-.91 1.031-1.205a2.874 2.874 0 0 1 1.554-.453 2.862 2.862 0 0 1 1.976.786c.524.502.819 1.183.822 1.894ZM640.301 298.977a1.795 1.795 0 0 1-.561 1.289 1.957 1.957 0 0 1-1.345.536h-14.496a2.003 2.003 0 0 1-.756-.113 1.9 1.9 0 0 1-.648-.389 1.823 1.823 0 0 1-.437-.602 1.77 1.77 0 0 1-.154-.719c0-.247.053-.492.154-.719.102-.227.25-.432.437-.603a1.963 1.963 0 0 1 1.404-.5h14.496c.504 0 .987.191 1.344.532.358.341.56.804.562 1.288ZM654.681 306.885c-2.211 0-4.371.642-6.194 1.844a10.58 10.58 0 0 0-4.018 4.884c-5.486-2.215-9.449-6.097-10.916-10.693l-.156-.439h-3.908l.219.812c1.65 6.109 6.889 11.325 14.039 13.996v.114a10.183 10.183 0 0 0 1.847 5.826 10.85 10.85 0 0 0 4.909 3.86c1.998.793 4.196 1 6.317.594a11.084 11.084 0 0 0 5.596-2.874 10.355 10.355 0 0 0 2.99-5.371 10.107 10.107 0 0 0-.623-6.061 10.6 10.6 0 0 0-4.028-4.707 11.261 11.261 0 0 0-6.074-1.767v-.018Zm0 17.338a7.293 7.293 0 0 1-5.038-2.005 6.715 6.715 0 0 1-2.093-4.833c0-.343.026-.686.078-1.026v-.084a6.73 6.73 0 0 1 1.728-3.462 7.182 7.182 0 0 1 3.4-2.025 7.428 7.428 0 0 1 4.001.052 7.151 7.151 0 0 1 3.342 2.11 6.715 6.715 0 0 1 1.632 3.505 6.597 6.597 0 0 1-.593 3.797 6.943 6.943 0 0 1-2.63 2.893 7.347 7.347 0 0 1-3.841 1.078h.014Z" fill="#fff"/><path d="M657.48 317.386a2.61 2.61 0 0 1-.474 1.49 2.771 2.771 0 0 1-1.256.986 2.895 2.895 0 0 1-1.616.151 2.832 2.832 0 0 1-1.431-.735 2.656 2.656 0 0 1-.765-1.375 2.586 2.586 0 0 1 .16-1.55c.212-.49.571-.909 1.031-1.204.46-.295 1-.452 1.554-.452a2.863 2.863 0 0 1 1.978.789c.524.504.819 1.187.819 1.9ZM712.314 292.443a2.364 2.364 0 0 1-.869.776 2.473 2.473 0 0 1-1.152.281h-.105c-.45 0-.892-.124-1.272-.357a2.294 2.294 0 0 1-.871-.959 9.697 9.697 0 0 0-1.198-1.864 10.235 10.235 0 0 0-2.478-2.193 11.855 11.855 0 0 0-3.2-1.386 16.132 16.132 0 0 0-7.931 0 18.233 18.233 0 0 0-7.465 3.825 16.19 16.19 0 0 0-2.816 3.127 15.465 15.465 0 0 0-1.874 3.816 14.072 14.072 0 0 0-.686 4.386 11.596 11.596 0 0 0 .914 4.711 10.45 10.45 0 0 0 2.528 3.57 11.318 11.318 0 0 0 3.776 2.259c1.475.538 3.04.81 4.617.803 1.347 0 2.688-.165 3.991-.492a17.937 17.937 0 0 0 3.758-1.403 18.05 18.05 0 0 0 3.346-2.22 16.61 16.61 0 0 0 2.308-2.346c.202-.242.458-.438.749-.572.291-.135.611-.204.934-.204.402-.002.796.105 1.137.31.341.205.614.499.787.847a2.02 2.02 0 0 1-.251 2.194c-.48.578-.997 1.14-1.541 1.684-2.677 2.668-6.038 4.615-9.746 5.645a21.487 21.487 0 0 1-5.842.793 18.17 18.17 0 0 1-6.578-1.162 15.802 15.802 0 0 1-5.161-3.202 14.803 14.803 0 0 1-3.378-4.824 14.872 14.872 0 0 1-1.194-6.014c-.003-1.815.278-3.62.833-5.355a19.725 19.725 0 0 1 2.285-4.825 21.35 21.35 0 0 1 3.52-4.092 23.319 23.319 0 0 1 4.521-3.189c1.65-.9 3.412-1.595 5.243-2.07a22.53 22.53 0 0 1 5.747-.732 19.523 19.523 0 0 1 5.627.785 16.137 16.137 0 0 1 4.681 2.228 13.518 13.518 0 0 1 3.447 3.474c.392.58.739 1.187 1.037 1.816a2.147 2.147 0 0 1-.178 2.131ZM755.413 298.131l-3.058 16.615a2.25 2.25 0 0 1-.807 1.349 2.426 2.426 0 0 1-1.524.532h-.064c-.347 0-.689-.073-1.003-.213a2.366 2.366 0 0 1-.814-.6 2.229 2.229 0 0 1-.474-.874 2.183 2.183 0 0 1-.045-.984l2.944-15.913c.384-1.809.471-3.665.256-5.5a6.944 6.944 0 0 0-1.541-3.596 7.138 7.138 0 0 0-3.25-2.027 16.501 16.501 0 0 0-4.996-.675c-1.637.002-3.26.273-4.8.802a15.187 15.187 0 0 0-4.298 2.299 14.375 14.375 0 0 0-3.327 3.631 13.31 13.31 0 0 0-1.865 4.825l-3.136 17.005a2.273 2.273 0 0 1-.988 1.433 2.453 2.453 0 0 1-1.751.363 2.39 2.39 0 0 1-1.516-.915 2.203 2.203 0 0 1-.417-1.67l7.716-42.063c.055-.294.169-.575.337-.827s.386-.47.641-.641a2.465 2.465 0 0 1 2.636-.051c.263.161.49.37.668.615.178.246.304.522.371.814.067.292.074.594.019.888l-2.72 14.606a18.732 18.732 0 0 1 5.166-3.509 20.703 20.703 0 0 1 3.954-1.351 19.079 19.079 0 0 1 4.301-.482c5.276 0 9.12 1.316 11.429 3.947 2.308 2.632 2.948 6.72 1.956 12.167ZM776.942 272.915a3.02 3.02 0 0 1-.374 1.315 3.635 3.635 0 0 1-.823 1.014 4.315 4.315 0 0 1-2.803 1 3.029 3.029 0 0 1-1.179-.177 2.943 2.943 0 0 1-1.006-.617 2.666 2.666 0 0 1-.61-.893 2.582 2.582 0 0 1-.199-1.05c.002-.456.11-.905.316-1.316.208-.421.502-.799.864-1.11a4.395 4.395 0 0 1 1.271-.745 4.153 4.153 0 0 1 1.522-.272c.404-.018.808.044 1.186.184.378.14.721.353 1.008.627.281.264.5.583.642.935.143.351.206.728.185 1.105ZM773.549 285.561l-5.348 29.18a2.243 2.243 0 0 1-.336.832 2.31 2.31 0 0 1-.643.645 2.466 2.466 0 0 1-2.647.058 2.33 2.33 0 0 1-.672-.616 2.197 2.197 0 0 1-.397-1.708l5.376-29.176a2.232 2.232 0 0 1 .803-1.351 2.409 2.409 0 0 1 1.524-.531c.346 0 .688.072 1.002.212.314.14.593.344.816.598.223.254.385.552.475.873.091.321.107.656.047.984ZM840.123 298.003l-3.072 16.741c-.046.301-.154.59-.318.85a2.314 2.314 0 0 1-.638.663 2.457 2.457 0 0 1-2.671.067 2.317 2.317 0 0 1-.673-.631 2.223 2.223 0 0 1-.364-.831 2.176 2.176 0 0 1 .002-.902l2.916-15.913c.376-1.777.483-3.597.316-5.404a8.324 8.324 0 0 0-1.23-3.645 5.754 5.754 0 0 0-2.496-2.079 9.341 9.341 0 0 0-3.716-.688 14.097 14.097 0 0 0-4.677.785 13.185 13.185 0 0 0-4.018 2.272 13.769 13.769 0 0 0-3.063 3.631 14.724 14.724 0 0 0-1.755 4.887l-.064.364h-.078l-3.035 16.561a2.245 2.245 0 0 1-.337.832 2.363 2.363 0 0 1-1.495 1.004 2.481 2.481 0 0 1-.929.02 2.426 2.426 0 0 1-.867-.324 2.332 2.332 0 0 1-.672-.617 2.203 2.203 0 0 1-.395-1.709l2.912-15.89c.376-1.777.482-3.597.315-5.404a8.25 8.25 0 0 0-1.229-3.645 5.751 5.751 0 0 0-2.497-2.079 9.314 9.314 0 0 0-3.711-.688 14.09 14.09 0 0 0-4.681.785 13.334 13.334 0 0 0-4.018 2.258 13.333 13.333 0 0 0-3.063 3.641 15.762 15.762 0 0 0-1.792 4.926l-3.099 16.903a2.251 2.251 0 0 1-.81 1.351 2.417 2.417 0 0 1-1.527.531 2.452 2.452 0 0 1-.999-.216 2.371 2.371 0 0 1-.812-.6 2.202 2.202 0 0 1-.52-1.855l5.376-29.185a2.248 2.248 0 0 1 .809-1.345c.427-.342.966-.53 1.522-.528h.083a2.44 2.44 0 0 1 1.007.213c.315.141.594.347.816.603.223.257.384.557.472.88.088.323.1.66.036.988l-.22 1.119a19.153 19.153 0 0 1 4.64-3.07 17.726 17.726 0 0 1 7.621-1.606c2.807 0 5.207.636 7.136 1.878 1.758 1.153 3.071 2.83 3.734 4.772a17.74 17.74 0 0 1 5.655-4.509 19.782 19.782 0 0 1 4.174-1.549 19.542 19.542 0 0 1 4.795-.57 14.515 14.515 0 0 1 5.54.996 9.259 9.259 0 0 1 3.941 3.031 11.273 11.273 0 0 1 1.975 5.026c.302 2.3.217 4.63-.252 6.904ZM884.768 291.252a14.6 14.6 0 0 0-3.423-4.879 15.345 15.345 0 0 0-5.149-3.192 18.272 18.272 0 0 0-6.591-1.166 22.512 22.512 0 0 0-5.746.732 22.638 22.638 0 0 0-5.23 2.071 23.816 23.816 0 0 0-4.503 3.188 22.022 22.022 0 0 0-3.534 4.088 19.113 19.113 0 0 0-2.285 4.825 17.878 17.878 0 0 0-.814 5.351 15.048 15.048 0 0 0 1.202 5.987 14.555 14.555 0 0 0 3.379 4.851 16.063 16.063 0 0 0 5.165 3.224 18.051 18.051 0 0 0 6.565 1.162 22.8 22.8 0 0 0 5.765-.728 23.332 23.332 0 0 0 9.777-5.229 21.36 21.36 0 0 0 3.538-4.105 19.607 19.607 0 0 0 2.287-4.825c.54-1.736.816-3.538.813-5.35.013-2.06-.4-4.101-1.216-6.005Zm-15.464-5.022c1.64-.015 3.269.283 4.79.877 1.4.553 2.671 1.371 3.74 2.404a10.975 10.975 0 0 1 2.435 3.618c.598 1.446.897 2.989.884 4.544a13.491 13.491 0 0 1-1.414 6.101 16.43 16.43 0 0 1-3.772 4.961 17.695 17.695 0 0 1-5.421 3.324 17.368 17.368 0 0 1-6.35 1.202 13.028 13.028 0 0 1-4.782-.877 11.075 11.075 0 0 1-3.722-2.375 10.54 10.54 0 0 1-2.435-3.599 11.795 11.795 0 0 1-.877-4.579 13.657 13.657 0 0 1 .64-4.171 15.05 15.05 0 0 1 1.791-3.737 16.581 16.581 0 0 1 2.742-3.154 17.844 17.844 0 0 1 7.452-4 16.908 16.908 0 0 1 4.299-.539ZM928.798 298.358l-2.999 16.36a2.257 2.257 0 0 1-.338.838c-.169.256-.39.476-.647.65a2.479 2.479 0 0 1-2.67.057 2.29 2.29 0 0 1-1.055-1.444 2.25 2.25 0 0 1-.021-.899l2.875-15.645c.385-1.808.47-3.663.252-5.496a7.505 7.505 0 0 0-1.507-3.697 7.1 7.1 0 0 0-3.169-2.132 14.948 14.948 0 0 0-4.891-.719c-1.679.003-3.34.3-4.907.877a15.315 15.315 0 0 0-4.364 2.491 15.656 15.656 0 0 0-3.384 3.882 14.085 14.085 0 0 0-1.9 5.009l-2.999 16.259a2.27 2.27 0 0 1-.813 1.346 2.436 2.436 0 0 1-2.524.316 2.338 2.338 0 0 1-.814-.6 2.253 2.253 0 0 1-.475-.873 2.192 2.192 0 0 1-.047-.983l5.377-29.167c.05-.302.159-.591.328-.851a2.395 2.395 0 0 1 1.51-1.029 2.473 2.473 0 0 1 1.822.316 2.31 2.31 0 0 1 1.037 1.473c.062.299.062.607-.003.906l-.319 1.755a19.198 19.198 0 0 1 1.788-1.474 20.995 20.995 0 0 1 3.423-2.017 19.498 19.498 0 0 1 3.875-1.347 18.107 18.107 0 0 1 4.202-.487c5.276 0 9.115 1.373 11.428 4.07 2.314 2.698 2.922 6.808 1.929 12.255ZM974.037 292.814a14.046 14.046 0 0 0-3.086-5.653 15.224 15.224 0 0 0-5.442-3.777 18.52 18.52 0 0 0-7.23-1.368c-2.625 0-5.227.473-7.67 1.394a23.394 23.394 0 0 0-6.57 3.755 22.94 22.94 0 0 0-4.928 5.61 19.343 19.343 0 0 0-2.68 6.908 15.17 15.17 0 0 0 .229 6.952 14.175 14.175 0 0 0 3.106 5.702 15.227 15.227 0 0 0 5.434 3.811 18.479 18.479 0 0 0 7.267 1.382c1.96.003 3.909-.262 5.788-.786a23.148 23.148 0 0 0 5.193-2.192 22.977 22.977 0 0 0 4.403-3.259c.457-.439.886-.878 1.294-1.338a1.97 1.97 0 0 0 .325-2.193 2.136 2.136 0 0 0-.808-.899 2.24 2.24 0 0 0-1.185-.334 2.215 2.215 0 0 0-.933.201 2.114 2.114 0 0 0-.749.571 17.17 17.17 0 0 1-2.181 2.158 18.087 18.087 0 0 1-3.233 2.119 16.713 16.713 0 0 1-3.657 1.355 16.27 16.27 0 0 1-3.927.474 13.58 13.58 0 0 1-4.899-.878 11.322 11.322 0 0 1-3.919-2.478 10.42 10.42 0 0 1-2.482-3.894 11.226 11.226 0 0 1-.585-4.751h31.323a2.187 2.187 0 0 0 1.336-.466c.375-.298.634-.711.731-1.17.423-2.31.332-4.681-.265-6.956Zm-16.029-6.746a13.403 13.403 0 0 1 5.029.908 10.78 10.78 0 0 1 3.785 2.505 10.485 10.485 0 0 1 2.318 3.802 11.69 11.69 0 0 1 .65 4.005.356.356 0 0 1-.109.256.392.392 0 0 1-.266.108h-27.232a.37.37 0 0 1-.174-.04.336.336 0 0 1-.177-.434 16.192 16.192 0 0 1 2.048-3.785 17.917 17.917 0 0 1 3.81-3.864 18.174 18.174 0 0 1 4.842-2.549 16.827 16.827 0 0 1 5.476-.912ZM1014.01 286.23l-26.157 40.629a2.211 2.211 0 0 1-.597.615 2.323 2.323 0 0 1-2.498.08 2.186 2.186 0 0 1-.642-.575 2.135 2.135 0 0 1-.364-.767 2.128 2.128 0 0 1-.028-.841c.049-.28.153-.548.309-.789l5.731-8.855-8.229-29.826a2.303 2.303 0 0 1 .26-1.813c.166-.272.385-.509.645-.699.259-.19.558-.329.875-.409a2.58 2.58 0 0 1 1.89.248c.283.159.53.369.728.619.197.251.343.536.426.84l6.952 25.505 16.809-26.26c.21-.316.5-.577.83-.758a2.377 2.377 0 0 1 2.27.025c.35.197.63.48.83.819.2.339.3.723.29 1.112 0 .389-.12.768-.33 1.1ZM235.01 302.051V256.97h5.017v45.081h-5.017ZM255.08 302.051h-4.888V269.48h4.821v2.282c3.519-1.955 6.887-2.931 10.103-2.931 4.344 0 7.264 1.173 8.764 3.517 1.499 2.345 2.247 6.515 2.247 12.507v17.2h-4.821v-17.066c0-4.517-.445-7.613-1.334-9.285-.894-1.672-2.794-2.506-5.703-2.506-1.393 0-2.857.209-4.399.618-1.543.413-2.728.814-3.55 1.208l-1.24.586v26.449-.008ZM301.872 273.713H291.51v15.572c0 3.733.272 6.188.815 7.36.543 1.173 1.834 1.759 3.876 1.759l5.801-.389.327 4.04c-2.912.476-5.128.716-6.647.716-3.388 0-5.734-.826-7.036-2.475-1.303-1.648-1.956-4.799-1.956-9.446v-17.133h-4.628v-4.233h4.628v-9.969h4.82v9.969h10.362v4.233-.004ZM330.023 298.011l1.889-.197.129 3.843c-4.95.697-9.189 1.043-12.707 1.043-4.691 0-8.017-1.357-9.972-4.072-1.956-2.714-2.932-6.94-2.932-12.672 0-11.42 4.537-17.133 13.62-17.133 4.388 0 7.666 1.228 9.839 3.679 2.172 2.455 3.258 6.31 3.258 11.562l-.259 3.714H311.38c0 3.604.654 6.275 1.956 8.014 1.303 1.739 3.574 2.604 6.809 2.604 3.235 0 6.525-.13 9.874-.389l.004.004Zm-1.76-14.136c0-3.993-.641-6.818-1.92-8.466-1.283-1.648-3.369-2.475-6.257-2.475-2.889 0-5.061.87-6.517 2.605-1.457 1.739-2.204 4.516-2.248 8.34h16.942v-.004ZM340.774 302.051V269.48h4.821v4.43c3.778-2.604 7.757-4.32 11.924-5.146v4.949c-1.826.35-3.727.889-5.702 1.629-1.98.74-3.487 1.393-4.53 1.955l-1.629.846v23.908h-4.888.004ZM363.714 302.051v-46.773h4.888v46.773h-4.888ZM400.529 298.011l1.889-.197.13 3.843c-4.951.697-9.189 1.043-12.707 1.043-4.691 0-8.017-1.357-9.973-4.072-1.955-2.714-2.931-6.94-2.931-12.672 0-11.42 4.537-17.133 13.62-17.133 4.388 0 7.666 1.228 9.839 3.679 2.172 2.455 3.258 6.31 3.258 11.562l-.26 3.714h-21.507c0 3.604.654 6.275 1.956 8.014 1.303 1.739 3.574 2.604 6.808 2.604 3.235 0 6.525-.13 9.874-.389l.004.004Zm-1.759-14.136c0-3.993-.641-6.818-1.92-8.466-1.283-1.648-3.369-2.475-6.258-2.475-2.888 0-5.061.87-6.517 2.605-1.456 1.739-2.203 4.516-2.247 8.34h16.942v-.004ZM436.306 255.278v46.773h-4.82v-2.215c-3.346 1.912-6.647 2.868-9.906 2.868-1.739 0-3.258-.216-4.561-.649-1.303-.433-2.519-1.216-3.648-2.345-2.346-2.345-3.518-6.676-3.518-12.998 0-6.322 1.054-10.878 3.16-13.679 2.105-2.801 5.592-4.202 10.46-4.202 2.519 0 5.191.283 8.016.846v-14.399h4.821-.004Zm-16.942 42.603c.784.307 1.791.456 3.031.456 1.239 0 2.629-.204 4.171-.618 1.543-.413 2.747-.814 3.617-1.203l1.303-.587v-22.082c-2.783-.523-5.364-.783-7.757-.783-3.302 0-5.604 1.055-6.907 3.159-1.302 2.109-1.956 5.374-1.956 9.804 0 5.04.76 8.427 2.283 10.162.696.826 1.432 1.389 2.215 1.696v-.004ZM458.333 317.359c-5.215 0-8.851-.708-10.917-2.117-2.066-1.412-3.097-3.985-3.097-7.719 0-1.782.389-3.226 1.173-4.331.783-1.109 2.105-2.357 3.974-3.745-1.216-.823-1.826-2.321-1.826-4.493 0-.74.543-2.109 1.63-4.103l.586-1.043c-3.432-1.566-5.148-4.843-5.148-9.835 0-7.428 4.062-11.142 12.188-11.142 2.086 0 4.019.217 5.801.653l.976.197 9.646-.26v4.171l-6.19-.13c1.432 1.432 2.152 3.603 2.152 6.515 0 4.083-1.011 6.936-3.03 8.564-2.019 1.629-5.203 2.443-9.547 2.443-1.173 0-2.24-.086-3.192-.259-.783 1.912-1.173 3.151-1.173 3.714 0 1.345.413 2.183 1.24 2.506.826.326 3.325.487 7.493.487s7.166.65 8.992 1.956c1.826 1.306 2.739 3.843 2.739 7.62 0 6.904-4.82 10.359-14.466 10.359l-.004-.008Zm-9.189-10.229c0 2.302.641 3.899 1.92 4.788 1.283.889 3.648 1.334 7.104 1.334 3.455 0 5.93-.476 7.43-1.432 1.499-.956 2.247-2.554 2.247-4.788 0-2.235-.543-3.679-1.629-4.332-1.087-.649-3.216-.975-6.388-.975l-7.04-.327c-1.433 1.043-2.401 1.955-2.901 2.734-.499.783-.747 1.778-.747 2.998h.004Zm.456-27.165c0 2.561.575 4.386 1.728 5.472 1.149 1.086 3.05 1.629 5.702 1.629 2.653 0 4.538-.543 5.671-1.629 1.13-1.086 1.696-2.919 1.696-5.504 0-2.584-.566-4.418-1.696-5.503-1.129-1.086-3.018-1.629-5.671-1.629-2.652 0-4.553.555-5.702 1.66-1.153 1.109-1.728 2.943-1.728 5.504ZM501.406 298.011l1.889-.197.13 3.843c-4.951.697-9.189 1.043-12.707 1.043-4.691 0-8.017-1.357-9.973-4.072-1.956-2.714-2.932-6.94-2.932-12.672 0-11.42 4.538-17.133 13.621-17.133 4.388 0 7.666 1.228 9.839 3.679 2.172 2.455 3.258 6.31 3.258 11.562l-.26 3.714h-21.507c0 3.604.653 6.275 1.956 8.014 1.303 1.739 3.573 2.604 6.808 2.604s6.525-.13 9.874-.389l.004.004Zm-1.759-14.136c0-3.993-.641-6.818-1.92-8.466-1.283-1.648-3.369-2.475-6.258-2.475-2.888 0-5.061.87-6.517 2.605-1.456 1.739-2.204 4.516-2.247 8.34h16.942v-.004ZM512.158 302.051V269.48h4.821v4.43c3.778-2.604 7.756-4.32 11.924-5.146v4.949c-1.826.35-3.727.889-5.702 1.629-1.98.74-3.487 1.393-4.53 1.955l-1.629.846v23.908h-4.888.004ZM247.713 322.941h-10.637v5.559h9.701v3.234h-9.701v6.385h-3.77v-18.435h14.407v3.261-.004ZM260.354 338.438c-6.577 0-10.61-3.686-10.61-9.54 0-5.854 4.061-9.541 10.637-9.541 6.576 0 10.638 3.687 10.638 9.541 0 5.854-4.089 9.54-10.665 9.54Zm.027-15.764c-4.116 0-6.788 2.38-6.788 6.2 0 3.82 2.672 6.173 6.816 6.173s6.733-2.38 6.733-6.173c0-3.792-2.644-6.2-6.761-6.2ZM293.337 328.952c0 5.85-2.913 9.486-9.434 9.486-6.521 0-9.22-3.285-9.22-9.486v-9.272h3.77v9.272c0 4.088 1.818 6.094 5.694 6.094 3.877 0 5.506-2.057 5.506-6.094v-9.272h3.687v9.272h-.003ZM316.319 338.115h-3.793l-10.772-12.719h-.055v12.719h-3.77V319.68h3.794l10.771 12.719h.055V319.68h3.77v18.435ZM329.121 338.115h-8.099V319.68h8.099c8.072 0 11.759 3.017 11.759 9.084 0 6.066-3.636 9.351-11.759 9.351Zm-.212-15.178h-4.117v11.862h4.117c5.773 0 8.099-2.192 8.099-6.012 0-3.82-2.22-5.85-8.099-5.85ZM362.584 338.115h-4.116l-2.137-4.996h-8.339l-2.086 4.996h-4.034l8.312-18.435h4.116l8.284 18.435Zm-10.397-14.91h-.055l-3.019 7.215h6.147l-3.073-7.215ZM380.597 322.941h-7.804v15.178h-3.771v-15.178h-7.776v-3.261h19.351v3.261ZM387.464 338.115h-3.77V319.68h3.77v18.435ZM402.084 338.438c-6.576 0-10.61-3.686-10.61-9.54 0-5.854 4.061-9.541 10.638-9.541 6.576 0 10.637 3.687 10.637 9.541 0 5.854-4.089 9.54-10.665 9.54Zm.028-15.764c-4.117 0-6.789 2.38-6.789 6.2 0 3.82 2.672 6.173 6.816 6.173s6.734-2.38 6.734-6.173c0-3.792-2.645-6.2-6.761-6.2ZM434.905 338.115h-3.793l-10.772-12.719h-.055v12.719h-3.77V319.68h3.794l10.771 12.719h.055V319.68h3.77v18.435ZM133.149 359.855c-9.717 0-19.028-2.962-26.946-8.576a47.05 47.05 0 0 1-8.284-7.507 46.914 46.914 0 0 1-11.484-30.501 46.917 46.917 0 0 1 2.267-14.702l1.472-4.551 1.519 4.536c2.924 8.726 8.685 16.468 16.226 21.803l.307.228.165.291c4.597 8.214 11.491 14.71 19.945 18.789l.319.154.263.326a43.537 43.537 0 0 0 19.874 14.037l4.246 1.464-4.23 1.506a46.508 46.508 0 0 1-15.4 2.699h-.259v.004Zm-42.648-55.778a44.132 44.132 0 0 0-.913 9.175 43.76 43.76 0 0 0 10.708 28.455 43.81 43.81 0 0 0 7.729 7.003c7.446 5.279 16.218 8.045 25.368 7.998a43.503 43.503 0 0 0 10.126-1.247 46.73 46.73 0 0 1-16.872-13.121c-8.787-4.315-15.973-11.09-20.83-19.623-6.607-4.745-11.932-11.248-15.316-18.644v.004Z" fill="#fff"/><path d="m148.289 357.341-.524-.181c-8.378-2.884-15.745-8.088-21.306-15.052l-.035-.043-4.321-5.37 6.284 2.99c6.234 2.994 12.897 4.477 19.831 4.445 6.938-.039 13.593-1.605 19.772-4.662l.055-.027 6.407-3.195-4.475 5.587-1.181-.889 1.161.908a46.706 46.706 0 0 1-21.149 15.296l-.519.185v.008Zm-14.742-12.239a43.442 43.442 0 0 0 14.722 8.899 43.43 43.43 0 0 0 14.628-9.06c-4.707 1.53-9.614 2.313-14.663 2.341a48.077 48.077 0 0 1-14.687-2.18Z" fill="#fff"/><path d="M147.958 347.286c-7.316 0-14.349-1.598-20.909-4.749l-4.003-1.924 4.321-1.026a79.285 79.285 0 0 0 20.055-7.77l.752-.417.756.409a79.144 79.144 0 0 0 20.106 7.542l4.325.979-3.975 1.967c-6.615 3.269-13.731 4.945-21.153 4.989h-.275Zm-15.388-5.835c4.994 1.814 10.24 2.711 15.647 2.687 5.419-.031 10.657-.991 15.64-2.864a82.49 82.49 0 0 1-15.663-6.29 82.14 82.14 0 0 1-15.624 6.467Z" fill="#fff"/><path d="M162.932 359.69c-5.187 0-10.287-.85-15.163-2.53l-4.247-1.463 4.231-1.507a43.559 43.559 0 0 0 19.724-14.265l.26-.323.311-.153c8.406-4.17 15.234-10.744 19.74-19.006l.177-.327.311-.216c7.454-5.398 13.133-13.203 15.962-21.96l1.472-4.552 1.519 4.536a46.78 46.78 0 0 1 2.424 14.674 46.892 46.892 0 0 1-19.35 38.22c-7.926 5.752-17.3 8.821-27.111 8.876h-.264l.004-.004Zm-9.894-4.281a43.938 43.938 0 0 0 10.138 1.134c9.15-.052 17.89-2.912 25.277-8.274a43.746 43.746 0 0 0 18.048-35.659 44.067 44.067 0 0 0-1.011-9.162c-3.302 7.423-8.548 13.981-15.112 18.809-4.758 8.584-11.874 15.433-20.614 19.847-4.522 5.709-10.236 10.241-16.73 13.302l.004.003Z" fill="#fff"/><path d="m184.758 326.179 3.019-5.72a45.68 45.68 0 0 0 5.545-22.051c-.04-7.573-1.976-15.06-5.593-21.65l-.059-.11-3.337-6.672 5.71 4.725c7.977 5.708 14.081 13.95 17.19 23.223l.166.492-.158.491c-3.03 9.379-9.103 17.735-17.107 23.538l-.059.044-5.309 3.694-.008-.004Zm8.65-44.546a48.925 48.925 0 0 1 3.062 16.755 49.003 49.003 0 0 1-2.975 17.058c4.765-4.764 8.433-10.626 10.582-17.015-2.2-6.31-5.895-12.097-10.669-16.794v-.004Z" fill="#fff"/><path d="m188.426 325.849-.799-4.383a79.806 79.806 0 0 0-7.509-22.126l-.366-.716.362-.716a79.64 79.64 0 0 0 7.419-22.235l.775-4.399 2.153 3.915c3.888 7.062 5.966 15.087 6.009 23.199.043 8.223-1.999 16.366-5.911 23.546l-2.133 3.915Zm-5.147-27.232a82.663 82.663 0 0 1 6.481 17.723 45.755 45.755 0 0 0 3.562-17.932 45.727 45.727 0 0 0-3.633-17.609 82.8 82.8 0 0 1-6.41 17.818Z" fill="#fff"/><path d="m168.886 342.545-.547-.122a82.407 82.407 0 0 1-20.905-7.841l-2.534-1.369 2.519-1.393a80.724 80.724 0 0 0 6.587-4.075 79.98 79.98 0 0 0 22.322-23.18 81.263 81.263 0 0 0 3.786-6.653l1.397-2.75 1.409 2.746a82.787 82.787 0 0 1 7.808 22.999l.098.543-.263.488c-4.825 8.848-12.121 15.874-21.11 20.335l-.559.28-.008-.008Zm-17.422-9.426a79.433 79.433 0 0 0 17.025 6.109c8.048-4.099 14.612-10.413 19.035-18.309a79.718 79.718 0 0 0-6.064-18.833 87.98 87.98 0 0 1-2.471 4.162 83.018 83.018 0 0 1-23.196 24.085 83.037 83.037 0 0 1-4.329 2.786ZM90.23 304.089l-1.52-4.536a46.798 46.798 0 0 1-2.424-14.674 46.838 46.838 0 0 1 11.483-31.009 47.052 47.052 0 0 1 7.604-7.015c7.981-5.881 17.445-9.017 27.374-9.072a46.617 46.617 0 0 1 15.427 2.53l4.247 1.463-4.231 1.507c-7.69 2.742-14.447 7.597-19.547 14.041l-.213.271-.358.181c-8.445 4.143-15.56 10.996-20.031 19.305l-.193.35-.299.24c-7.407 5.406-13.034 13.176-15.844 21.874l-1.472 4.552-.004-.008Zm42.773-63.162h-.24c-9.256.051-18.083 2.974-25.525 8.458a43.913 43.913 0 0 0-7.092 6.546 43.711 43.711 0 0 0-10.708 28.928 44.05 44.05 0 0 0 1.012 9.163c3.274-7.361 8.465-13.876 14.954-18.691 4.738-8.675 12.176-15.843 20.992-20.246a46.757 46.757 0 0 1 16.505-13.025 43.396 43.396 0 0 0-9.898-1.137v.004Z" fill="#fff"/><path d="m112.197 327.458-6.112-4.544c-8.072-5.713-14.242-14.01-17.375-23.361l-.165-.492.157-.492c3.01-9.324 9.044-17.652 16.986-23.447l5.584-4.076-3.266 6.09c-3.566 6.645-5.427 14.175-5.388 21.768.043 7.695 2.035 15.288 5.769 21.964l3.81 6.59Zm-20.33-28.413c2.219 6.362 5.946 12.18 10.767 16.897a48.919 48.919 0 0 1-3.16-17.019 48.936 48.936 0 0 1 2.876-16.787c-4.722 4.753-8.35 10.575-10.484 16.913v-.004Z" fill="#fff"/><path d="m107.813 326.289-2.177-3.891a48.755 48.755 0 0 1-6.167-23.479c-.043-8.116 1.948-16.165 5.762-23.27l.031-.059 2.122-3.788.822 4.276a79.65 79.65 0 0 0 7.639 22.141l.37.712-.358.72a79.592 79.592 0 0 0-7.293 22.256l-.751 4.394v-.012Zm-1.724-45.112a45.698 45.698 0 0 0 .287 35.615 82.773 82.773 0 0 1 6.313-17.845 82.636 82.636 0 0 1-6.596-17.774l-.004.004Z" fill="#fff"/><path d="m127.553 342.777-.559-.267a48.477 48.477 0 0 1-21.35-20.1l-.271-.523.086-.519a82.877 82.877 0 0 1 7.58-23.133l1.381-2.758 1.425 2.738a81.177 81.177 0 0 0 3.841 6.598 79.96 79.96 0 0 0 22.601 22.987 81.697 81.697 0 0 0 6.643 4.013l2.534 1.365-2.518 1.392a82.477 82.477 0 0 1-20.854 8.081l-.539.13v-.004Zm-18.894-21.429c4.525 7.864 11.16 14.104 19.252 18.109a79.293 79.293 0 0 0 16.989-6.303 79.886 79.886 0 0 1-4.368-2.746 83.027 83.027 0 0 1-23.487-23.888 81.314 81.314 0 0 1-2.503-4.119 79.628 79.628 0 0 0-5.883 18.947ZM205.761 303.455l-1.519-4.536c-2.904-8.663-8.614-16.37-16.076-21.696l-.315-.248-.153-.279c-4.565-8.29-11.767-15.088-20.283-19.148l-.323-.153-.244-.288a43.54 43.54 0 0 0-19.697-13.824l-4.246-1.464 4.23-1.506a46.508 46.508 0 0 1 15.4-2.699c9.956-.059 19.476 2.994 27.532 8.816a46.857 46.857 0 0 1 19.437 37.772 46.931 46.931 0 0 1-2.267 14.702l-1.472 4.551h-.004Zm-15.482-28.585c6.541 4.745 11.803 11.201 15.16 18.526.621-3.006.928-6.074.913-9.175a43.74 43.74 0 0 0-18.131-35.237c-7.513-5.43-16.391-8.25-25.671-8.219-3.435.02-6.824.437-10.125 1.247a46.789 46.789 0 0 1 16.646 12.845c8.879 4.312 16.384 11.397 21.212 20.013h-.004Z" fill="#fff"/><path d="m121.866 260.81 4.306-5.441c5.466-6.909 12.711-12.113 20.96-15.052l.519-.185.524.181c8.276 2.848 15.58 7.974 21.121 14.82l4.364 5.393-6.265-2.982c-6.171-2.939-12.79-4.406-19.669-4.371-6.883.04-13.487 1.582-19.622 4.588l-6.234 3.053-.004-.004Zm25.801-17.338a43.418 43.418 0 0 0-14.353 8.808 48.157 48.157 0 0 1 14.388-2.254 47.9 47.9 0 0 1 14.412 2.097 43.46 43.46 0 0 0-14.447-8.651Z" fill="#fff"/><path d="m147.792 265.881-.759-.414a79.347 79.347 0 0 0-19.988-7.577h-.016l-4.644-1.007 4.341-1.955c6.58-3.214 13.632-4.863 20.98-4.902 7.355-.028 14.439 1.534 21.042 4.678l4.148 1.975-4.458.991a79.313 79.313 0 0 0-19.886 7.79l-.756.421h-.004Zm-15.576-9.895a82.44 82.44 0 0 1 15.557 6.307 82.483 82.483 0 0 1 15.486-6.476c-4.963-1.786-10.17-2.659-15.534-2.644-5.367.032-10.566.976-15.505 2.817l-.004-.004Z" fill="#fff"/><path d="m181.523 302.082-1.409-2.746a80.437 80.437 0 0 0-3.864-6.707 79.958 79.958 0 0 0-22.397-23.003 79.853 79.853 0 0 0-6.824-4.162l-2.514-1.366 2.499-1.392a82.294 82.294 0 0 1 20.676-8.101l.063-.015.528-.114.488.232c9.09 4.331 16.78 11.586 21.66 20.426l.307.472-.106.61a82.918 82.918 0 0 1-7.71 23.113l-1.397 2.75v.003Zm-30.479-37.96a84.152 84.152 0 0 1 4.58 2.903 83.043 83.043 0 0 1 23.274 23.904 83.074 83.074 0 0 1 2.543 4.225 79.733 79.733 0 0 0 5.989-18.934c-4.482-7.912-11.381-14.423-19.515-18.428a79.167 79.167 0 0 0-16.871 6.33Z" fill="#fff"/><path d="m114.475 302.401-1.424-2.738a82.917 82.917 0 0 1-7.942-23.015l-.102-.546.256-.524c4.781-8.883 12.392-16.212 21.428-20.642l.492-.24.598.13a82.466 82.466 0 0 1 20.752 7.868l2.514 1.365-2.499 1.393a79.434 79.434 0 0 0-6.776 4.237 79.924 79.924 0 0 0-22.149 23.251 80.894 80.894 0 0 0-3.766 6.7l-1.382 2.757v.004Zm-6.17-25.812a79.986 79.986 0 0 0 6.182 18.888 82.468 82.468 0 0 1 2.468-4.201 83.098 83.098 0 0 1 23.014-24.16 83.518 83.518 0 0 1 4.546-2.954 79.208 79.208 0 0 0-16.939-6.146c-8.063 4.08-14.879 10.646-19.275 18.573h.004Z" fill="#fff"/><path d="m148.194 334.988-.756-.41a83.046 83.046 0 0 1-6.902-4.17 83.027 83.027 0 0 1-23.487-23.888 82.815 82.815 0 0 1-3.991-6.857l-.37-.712.359-.72a84.704 84.704 0 0 1 3.911-6.963 83.114 83.114 0 0 1 23.015-24.16 83.053 83.053 0 0 1 7.044-4.402l.756-.421.759.413a83.893 83.893 0 0 1 7.092 4.328 83.04 83.04 0 0 1 23.274 23.903 83.348 83.348 0 0 1 4.014 6.972l.366.716-.362.716a83.185 83.185 0 0 1-3.931 6.912 83.03 83.03 0 0 1-23.196 24.085 83.552 83.552 0 0 1-6.847 4.237l-.752.417.004.004Zm-31.972-36.065a79.793 79.793 0 0 0 3.468 5.886 79.96 79.96 0 0 0 22.601 22.987 81.01 81.01 0 0 0 5.883 3.6 79.827 79.827 0 0 0 5.832-3.655 79.98 79.98 0 0 0 22.322-23.18 79.674 79.674 0 0 0 3.416-5.937 80.07 80.07 0 0 0-3.491-5.991 79.942 79.942 0 0 0-22.396-23.003 79.787 79.787 0 0 0-6.065-3.745 81.087 81.087 0 0 0-6.021 3.808 79.933 79.933 0 0 0-22.148 23.251 80.765 80.765 0 0 0-3.401 5.979Z" fill="#fff"/><defs><linearGradient id="a" x1="-.01" y1="300" x2="1099.99" y2="300" gradientUnits="userSpaceOnUse"><stop stop-color="#6500CF"/><stop offset="1" stop-color="#AB71FF"/></linearGradient></defs></svg>
