<svg xmlns="http://www.w3.org/2000/svg" xmlns:xlink="http://www.w3.org/1999/xlink" id="svg32" viewBox="0 0 1441 811"><defs id="defs2"><linearGradient id="linear-gradient" x1="10160.91" x2="11626.91" y1="-3028.7" y2="-3028.7" gradientTransform="translate(-10173.79 3435.62)" gradientUnits="userSpaceOnUse"><stop id="stop1" offset="0" stop-color="#6500d4"/><stop id="stop2" offset="1" stop-color="#b071ff"/></linearGradient><linearGradient xlink:href="#linear-gradient" id="linear-gradient-2" x1="363.78" x2="1060.59" y1="521.73" y2="521.73"/><linearGradient xlink:href="#linear-gradient" id="linear-gradient-3" x1="266.38" x2="1514.89" y1="144.08" y2="144.08"/><linearGradient xlink:href="#linear-gradient" id="linear-gradient-4" x1="34.51" x2="325.23" y1="830.51" y2="830.51"/><linearGradient xlink:href="#linear-gradient" id="linear-gradient-5" x1="33.85" x2="228.94" y1="655.55" y2="655.55"/><linearGradient xlink:href="#linear-gradient" id="linearGradient32" x1="10160.91" x2="11626.91" y1="-3028.7" y2="-3028.7" gradientTransform="translate(-10173.79 3435.62)" gradientUnits="userSpaceOnUse"/><style id="style1">.cls-6{stroke-width:0;fill:#fff}</style></defs><g id="Layer_2" data-name="Layer 2" transform="matrix(1.11976 0 0 1.02006 1.543 -19.38)"><path id="path2" d="M1453.12-11.08h-1466v836h1466z" style="stroke-width:0;fill:url(#linearGradient32)"/></g><g id="Layer_1" data-name="Layer 1" transform="matrix(1.11976 0 0 1.02006 1.543 -19.38)"><g id="g6" style="opacity:.46"><path id="path3" d="M826.03 506.74c27.98-20.3 52.93-40.02 79.57-57.1 14.15-9.07 30.69-16.96 47.07-19.52 60.32-9.41 113.75 40.6 107.4 101.35-6.06 58.01-15.45 115.68-23.98 173.42-2.46 16.64-16.15 24.66-32.64 19.61-23.23-7.12-46.27-14.9-69.14-23.09-15.73-5.63-19.97-15.02-16.84-33.77 4.17-24.93 8.4-49.84 13.14-77.94-7.92 5.45-13.23 8.88-18.3 12.62-158.74 117.27-317.46 234.57-476.19 351.85-3.91 2.89-7.72 6.01-11.94 8.35-16.08 8.91-35.32-.03-35.98-18.34-1.21-33.49-1.25-67.1.43-100.55.37-7.34 8.72-15.86 15.52-21.05 55.01-42 110.41-83.49 166.03-124.68 8.15-6.04 11.57-12.4 12.39-22.6 4.39-54.42 9.75-108.77 14.7-163.14.77-8.44 1.17-16.92 1.93-28.06-7.33 4.08-12.42 6.74-17.34 9.69-57.95 34.73-115.89 69.45-173.77 104.3-10.02 6.03-19.86 11.3-31.73 4.9-12.09-6.52-12.45-17.72-12.37-29.44.2-26.5.75-53.03-.19-79.5-.58-16.22 5.96-25.81 19.93-33.49 84.29-46.31 168.25-93.23 252.31-139.95 2.8-1.56 5.54-3.22 10.13-5.88-40.5-13.57-69.24-37.86-83.26-77.15-10.22-28.63-9.46-57.3 2.09-85.51 23.25-56.78 85.05-86.79 143.72-69.87 64.11 18.49 95.73 75.2 82.72 151.23 6.08-2.98 11.19-5.2 16.04-7.9 69.45-38.55 138.84-77.2 208.29-115.75 28.39-15.76 44.18-6.37 44.24 26.19.05 26.5-.5 53.02.21 79.51.4 14.86-5.58 23.97-18.47 31.04-61.6 33.76-122.77 68.29-184.34 102.11-10.18 5.59-15.75 11.45-16.83 24.27-3.69 43.57-9.3 86.97-14.56 133.87zm184.76-338.72c-6.27 3.33-11.44 5.96-16.51 8.78C807.73 280.39 621.19 384 434.64 487.61c-25.7 14.27-27.14 17.68-20.27 49.99 5.36-2.98 10.49-5.64 15.44-8.61 60.25-36.1 120.52-72.17 180.67-108.45 9.87-5.95 19.57-9.51 30.26-2.67 10.64 6.8 11.59 17.07 10.53 28.55-7.63 82.34-15.45 164.67-22.11 247.1-1.32 16.38-8.29 26.56-20.89 35.85-51.36 37.83-101.38 77.56-153.7 113.99-19.49 13.57-20.11 28.78-17.4 50.39 21.82-16.08 42.12-30.99 62.37-45.96C647.79 738.22 796.06 628.68 944.22 519c10.31-7.63 20.68-12.24 32.7-4.92 12.24 7.45 12.32 19.15 10.02 31.55-2.76 14.87-5.35 29.77-7.79 44.7-3.89 23.78-7.59 47.59-11.42 71.67 9.05 2.83 16.06 5.03 23.88 7.48 1.08-3.56 2.17-5.97 2.52-8.48 5.76-40.65 10.77-81.42 17.36-121.94 3.89-23.92-1.48-43.3-22.57-55.93-20.76-12.42-40.04-6.83-58.6 6.96-38.18 28.37-76.92 56-115.31 84.09-9.28 6.79-18.7 11.2-29.9 5.01-11.73-6.49-13.38-17.02-11.99-29.26 7.75-68.19 15.52-136.38 22.57-204.65 1.39-13.42 7.39-21.46 18.82-27.73 56.83-31.19 112.57-64.5 170.45-93.57 25.19-12.65 32.12-28.37 25.81-55.94zM604.3 197.46c-.17 39.93 31.63 72.32 71.32 72.63 39.43.31 72.13-32.17 72.3-71.82.17-39.69-31.97-72.35-71.5-72.65-39.58-.3-71.95 31.94-72.12 71.83z" style="stroke-width:0;fill:url(#linear-gradient-2)"/><path id="path4" d="M1119.73 667.86c7.88-14.93 14.86-28.15 22.35-42.35 28.75 15.03 56.43 29.5 85.4 44.65 0-5.38.57-9.45-.08-13.3-19.46-113.96-38.76-227.94-58.93-341.77-2.69-15.19.77-25.61 11.55-36.05 81.61-79 162.82-158.4 244.35-237.49 4.15-4.03 10.03-6.29 15.1-9.37-1.28-1.96-2.55-3.93-3.83-5.89-24.32-3.69-48.61-7.53-72.96-11.05-93.06-13.46-186.1-27.05-279.24-40-16.71-2.32-26.65-9.86-34.12-25.21-49.14-101.02-99.13-201.62-148.85-302.35-2.62-5.3-5.37-10.54-9.54-18.72-3.73 6.77-6.58 11.49-9.01 16.41-49.75 100.72-99.8 201.3-148.81 302.38-8.24 17-19.06 25.23-37.64 27.82C580.94-8.47 466.52 8.32 352.07 24.86c-1.98.29-3.91 1.02-9.28 2.46 53.28 51.95 104.78 102.18 157.23 153.32-12.12 11.37-23.02 21.6-34.99 32.84-27.16-26.41-55.01-53.47-82.82-80.57-34.86-33.97-69.57-68.11-104.63-101.87-8.49-8.17-13.7-17.03-9.97-28.74 3.76-11.82 13.27-15.45 24.95-17.12 126.77-18.17 253.48-36.81 380.26-54.94 11.83-1.69 18.52-6.48 23.97-17.63 55.48-113.55 111.72-226.72 167.56-340.09 5.78-11.73 11.99-22.11 27.03-21.75 14.18.33 20.09 10.35 25.58 21.51 55.82 113.38 112.05 226.55 167.42 340.15 5.82 11.94 13.16 16.24 25.48 18 125.19 17.79 250.29 36.14 375.45 54.12 12.33 1.77 23.93 4.12 28.3 17.62 4.59 14.18-3.98 23.25-13.27 32.27-90.37 87.83-180.44 175.98-271.1 263.51-9.83 9.49-12.04 18.32-9.77 31.28 22.06 126.11 43.78 252.29 64.69 378.6 1.34 8.12-2.26 20.68-8.17 25.38-5.9 4.69-19.32 5.6-26.46 2.09-43.1-21.17-85.35-44.08-129.8-67.42z" style="stroke-width:0;fill:url(#linear-gradient-3)"/><path id="path5" d="M61.19 938.49c-9.37-14-17.43-26.06-26.67-39.87 87.92-58.63 175.3-116.91 264.06-176.1 8.92 13.36 17.44 26.13 26.66 39.95-88.47 58.98-175.52 117.01-264.05 176.02" style="stroke-width:0;opacity:.6;fill:url(#linear-gradient-4)"/><path id="path6" d="M201.68 578.53c9.12 13.18 17.65 25.52 27.26 39.41-55.96 38.18-111.5 76.07-168.05 114.65-8.9-13.02-17.36-25.41-27.04-39.58l167.83-114.47z" style="stroke-width:0;opacity:.6;fill:url(#linear-gradient-5)"/></g><g id="g32"><path id="path7" d="M201.43 425.83v-54.8h8.88v54.8z" class="cls-6"/><path id="path8" d="M230.63 425.83h-8.72v-40h8.64v2.48q5.835-3.36 11.04-3.36c5.33 0 8.97 1.51 10.92 4.52s2.92 7.99 2.92 14.92v21.44h-8.64v-21.2c0-4.32-.47-7.39-1.4-9.2s-2.84-2.72-5.72-2.72c-2.72 0-5.33.53-7.84 1.6l-1.2.48z" class="cls-6"/><path id="path9" d="M287.11 393.27h-11.04v17.6q0 4.875.72 6.48c.48 1.07 1.71 1.6 3.68 1.6l6.56-.24.4 6.96c-3.57.69-6.29 1.04-8.16 1.04-4.53 0-7.64-1.04-9.32-3.12q-2.52-3.12-2.52-11.76v-18.56h-5.12v-7.44h5.12v-11.6h8.64v11.6h11.04z" class="cls-6"/><path id="path10" d="m322.7 418.63 2.24-.24.16 6.48c-6.08 1.23-11.47 1.84-16.16 1.84-5.92 0-10.17-1.63-12.76-4.88s-3.88-8.45-3.88-15.6c0-14.19 5.79-21.28 17.36-21.28s16.8 6.11 16.8 18.32l-.56 6.24h-24.8c.05 3.31.77 5.73 2.16 7.28s3.97 2.32 7.76 2.32 7.68-.16 11.68-.48m-4.8-15.84c0-3.95-.63-6.71-1.88-8.28s-3.37-2.36-6.36-2.36-5.16.83-6.52 2.48-2.07 4.37-2.12 8.16z" class="cls-6"/><path id="path11" d="M334.86 425.83v-40h8.64v4.8c4.53-2.93 9.07-4.83 13.6-5.68v8.72c-4.59.91-8.51 2.08-11.76 3.52l-1.76.72v27.92z" class="cls-6"/><path id="path12" d="M364.22 425.83v-56.64h8.72v56.64z" class="cls-6"/><path id="path13" d="m412.46 418.63 2.24-.24.16 6.48c-6.08 1.23-11.47 1.84-16.16 1.84-5.92 0-10.17-1.63-12.76-4.88s-3.88-8.45-3.88-15.6c0-14.19 5.79-21.28 17.36-21.28s16.8 6.11 16.8 18.32l-.56 6.24h-24.8c.05 3.31.77 5.73 2.16 7.28s3.97 2.32 7.76 2.32 7.68-.16 11.68-.48m-4.8-15.84c0-3.95-.63-6.71-1.88-8.28s-3.37-2.36-6.36-2.36-5.16.83-6.52 2.48-2.07 4.37-2.12 8.16z" class="cls-6"/><path id="path14" d="M457.26 369.19v56.64h-8.64v-2.08c-3.89 1.97-7.47 2.96-10.72 2.96-5.23 0-9.05-1.57-11.48-4.72s-3.64-8.43-3.64-15.84 1.35-12.8 4.04-16.16q4.035-5.04 12.6-5.04c1.92 0 4.96.35 9.12 1.04v-16.8zm-10.08 48.32 1.36-.56v-23.68c-3.2-.53-6.16-.8-8.88-.8-5.39 0-8.08 4.48-8.08 13.44 0 4.91.63 8.31 1.88 10.2s3.24 2.84 5.96 2.84 5.31-.48 7.76-1.44" class="cls-6"/><path id="path15" d="M502.78 431.27c0 8.75-6.32 13.12-18.96 13.12-6.08 0-10.59-.83-13.52-2.48s-4.4-4.67-4.4-9.04c0-1.97.48-3.67 1.44-5.08s2.51-2.95 4.64-4.6c-1.76-1.17-2.64-3.12-2.64-5.84 0-1.07.72-2.8 2.16-5.2l.72-1.2q-5.76-3.435-5.76-12 0-7.2 4.32-10.56c2.88-2.24 6.77-3.36 11.68-3.36 2.35 0 4.67.27 6.96.8l1.2.24 12.4-.32v7.04l-6.64-.4c1.44 1.87 2.16 4.05 2.16 6.56 0 5.23-1.32 8.84-3.96 10.84q-3.96 3-12.36 3c-1.39 0-2.56-.11-3.52-.32-.75 1.81-1.12 3.21-1.12 4.2s.49 1.67 1.48 2.04 3.37.59 7.16.64c6.35.05 10.69.91 13.04 2.56s3.52 4.77 3.52 9.36m-28.32.8c0 1.87.75 3.2 2.24 4q2.235 1.2 7.68 1.2c6.45 0 9.68-1.84 9.68-5.52 0-2.08-.57-3.4-1.72-3.96s-3.43-.87-6.84-.92l-7.84-.48c-1.17.96-2 1.85-2.48 2.68q-.72 1.245-.72 3m2.4-27.72c1.17 1.15 3.07 1.72 5.68 1.72s4.49-.57 5.64-1.72 1.72-2.95 1.72-5.4-.59-4.25-1.76-5.4-3.07-1.72-5.68-1.72c-4.91 0-7.36 2.37-7.36 7.12 0 2.45.59 4.25 1.76 5.4" class="cls-6"/><path id="path16" d="m538.3 418.63 2.24-.24.16 6.48c-6.08 1.23-11.47 1.84-16.16 1.84-5.92 0-10.17-1.63-12.76-4.88s-3.88-8.45-3.88-15.6c0-14.19 5.79-21.28 17.36-21.28s16.8 6.11 16.8 18.32l-.56 6.24h-24.8c.05 3.31.77 5.73 2.16 7.28s3.97 2.32 7.76 2.32 7.68-.16 11.68-.48m-4.8-15.84c0-3.95-.63-6.71-1.88-8.28s-3.37-2.36-6.36-2.36-5.16.83-6.52 2.48-2.07 4.37-2.12 8.16z" class="cls-6"/><path id="path17" d="M550.46 425.83v-40h8.64v4.8c4.53-2.93 9.07-4.83 13.6-5.68v8.72c-4.59.91-8.51 2.08-11.76 3.52l-1.76.72v27.92z" class="cls-6"/><path id="path18" d="M616.38 426.71c-8 0-13.43-2.21-16.28-6.64s-4.28-11.71-4.28-21.84 1.44-17.35 4.32-21.64 8.29-6.44 16.24-6.44c4.75 0 9.97.67 15.68 2l-.32 7.2c-4.8-.85-9.6-1.28-14.4-1.28s-8.05 1.43-9.76 4.28-2.56 8.21-2.56 16.08.83 13.23 2.48 16.08 4.88 4.28 9.68 4.28 9.65-.4 14.56-1.2l.24 7.36c-5.49 1.17-10.69 1.76-15.6 1.76" class="cls-6"/><path id="path19" d="M641.94 390.15c2.75-3.47 7.32-5.2 13.72-5.2s10.97 1.73 13.72 5.2 4.12 8.67 4.12 15.6-1.33 12.16-4 15.68-7.28 5.28-13.84 5.28-11.17-1.76-13.84-5.28-4-8.75-4-15.68 1.37-12.13 4.12-15.6m6.52 26c1.23 2.13 3.63 3.2 7.2 3.2s5.97-1.07 7.2-3.2 1.84-5.63 1.84-10.48-.65-8.29-1.96-10.32-3.67-3.04-7.08-3.04-5.77 1.01-7.08 3.04-1.96 5.47-1.96 10.32.61 8.35 1.84 10.48" class="cls-6"/><path id="path20" d="M690.86 425.83h-8.72v-40h8.64v2.48c3.79-2.24 7.25-3.36 10.4-3.36 4.64 0 8.03 1.31 10.16 3.92 4.85-2.61 9.68-3.92 14.48-3.92s8.19 1.48 10.16 4.44 2.96 7.96 2.96 15v21.44h-8.64v-21.2c0-4.32-.44-7.39-1.32-9.2s-2.71-2.72-5.48-2.72c-2.4 0-4.99.53-7.76 1.6l-1.36.56c.43 1.07.64 4.48.64 10.24v20.72h-8.64v-20.56c0-4.75-.43-8.03-1.28-9.84s-2.72-2.72-5.6-2.72c-2.67 0-5.15.53-7.44 1.6l-1.2.48z" class="cls-6"/><path id="path21" d="m777.66 418.63 2.24-.24.16 6.48c-6.08 1.23-11.47 1.84-16.16 1.84-5.92 0-10.17-1.63-12.76-4.88s-3.88-8.45-3.88-15.6c0-14.19 5.79-21.28 17.36-21.28s16.8 6.11 16.8 18.32l-.56 6.24h-24.8c.05 3.31.77 5.73 2.16 7.28s3.97 2.32 7.76 2.32 7.68-.16 11.68-.48m-4.8-15.84c0-3.95-.63-6.71-1.88-8.28s-3.37-2.36-6.36-2.36-5.16.83-6.52 2.48-2.07 4.37-2.12 8.16z" class="cls-6"/><path id="path22" d="M817.58 394.07c-6.29-.85-10.85-1.28-13.68-1.28s-4.79.33-5.88 1-1.64 1.72-1.64 3.16.6 2.45 1.8 3.04 4.03 1.27 8.48 2.04 7.61 1.99 9.48 3.64 2.8 4.59 2.8 8.8-1.35 7.31-4.04 9.28-6.63 2.96-11.8 2.96c-3.25 0-7.36-.45-12.32-1.36l-2.48-.4.32-7.28c6.4.85 11.01 1.28 13.84 1.28s4.84-.35 6.04-1.04 1.8-1.84 1.8-3.44-.57-2.71-1.72-3.32-3.89-1.28-8.24-2-7.53-1.85-9.56-3.4-3.04-4.37-3.04-8.48 1.4-7.17 4.2-9.2 6.39-3.04 10.76-3.04c3.41 0 7.6.43 12.56 1.28l2.48.48z" class="cls-6"/><path id="path23" d="M866.46 393.27h-11.04v17.6q0 4.875.72 6.48c.48 1.07 1.71 1.6 3.68 1.6l6.56-.24.4 6.96c-3.57.69-6.29 1.04-8.16 1.04-4.53 0-7.64-1.04-9.32-3.12q-2.52-3.12-2.52-11.76v-18.56h-5.12v-7.44h5.12v-11.6h8.64v11.6h11.04z" class="cls-6"/><path id="path24" d="M875.78 390.15c2.75-3.47 7.32-5.2 13.72-5.2s10.97 1.73 13.72 5.2 4.12 8.67 4.12 15.6-1.33 12.16-4 15.68-7.28 5.28-13.84 5.28-11.17-1.76-13.84-5.28-4-8.75-4-15.68 1.37-12.13 4.12-15.6m6.52 26c1.23 2.13 3.63 3.2 7.2 3.2s5.97-1.07 7.2-3.2 1.84-5.63 1.84-10.48-.65-8.29-1.96-10.32-3.67-3.04-7.08-3.04-5.77 1.01-7.08 3.04-1.96 5.47-1.96 10.32.61 8.35 1.84 10.48" class="cls-6"/><path id="path25" d="M953.01 426.71c-8 0-13.43-2.21-16.28-6.64s-4.28-11.71-4.28-21.84 1.44-17.35 4.32-21.64 8.29-6.44 16.24-6.44c4.75 0 9.97.67 15.68 2l-.32 7.2c-4.8-.85-9.6-1.28-14.4-1.28s-8.05 1.43-9.76 4.28-2.56 8.21-2.56 16.08.83 13.23 2.48 16.08 4.88 4.28 9.68 4.28 9.65-.4 14.56-1.2l.24 7.36c-5.49 1.17-10.69 1.76-15.6 1.76" class="cls-6"/><path id="path26" d="M978.57 390.15c2.75-3.47 7.32-5.2 13.72-5.2s10.97 1.73 13.72 5.2 4.12 8.67 4.12 15.6-1.33 12.16-4 15.68-7.28 5.28-13.84 5.28-11.17-1.76-13.84-5.28-4-8.75-4-15.68 1.37-12.13 4.12-15.6m6.52 26c1.23 2.13 3.63 3.2 7.2 3.2s5.97-1.07 7.2-3.2 1.84-5.63 1.84-10.48-.65-8.29-1.96-10.32-3.67-3.04-7.08-3.04-5.77 1.01-7.08 3.04-1.96 5.47-1.96 10.32.61 8.35 1.84 10.48" class="cls-6"/><path id="path27" d="M1019.25 425.83v-56.64h8.72v56.64z" class="cls-6"/><path id="path28" d="M1041.21 390.15c2.75-3.47 7.32-5.2 13.72-5.2s10.97 1.73 13.72 5.2 4.12 8.67 4.12 15.6-1.33 12.16-4 15.68-7.28 5.28-13.84 5.28-11.17-1.76-13.84-5.28-4-8.75-4-15.68 1.37-12.13 4.12-15.6m6.52 26c1.23 2.13 3.63 3.2 7.2 3.2s5.97-1.07 7.2-3.2 1.84-5.63 1.84-10.48-.65-8.29-1.96-10.32-3.67-3.04-7.08-3.04-5.77 1.01-7.08 3.04-1.96 5.47-1.96 10.32.61 8.35 1.84 10.48" class="cls-6"/><path id="path29" d="M1090.13 425.83h-8.72v-40h8.64v2.48c3.79-2.24 7.25-3.36 10.4-3.36 4.64 0 8.03 1.31 10.16 3.92 4.85-2.61 9.68-3.92 14.48-3.92s8.19 1.48 10.16 4.44 2.96 7.96 2.96 15v21.44h-8.64v-21.2c0-4.32-.44-7.39-1.32-9.2s-2.71-2.72-5.48-2.72c-2.4 0-4.99.53-7.76 1.6l-1.36.56c.43 1.07.64 4.48.64 10.24v20.72h-8.64v-20.56c0-4.75-.43-8.03-1.28-9.84s-2.72-2.72-5.6-2.72c-2.67 0-5.15.53-7.44 1.6l-1.2.48z" class="cls-6"/><path id="path30" d="M1167.09 384.95c5.49 0 9.45 1.53 11.88 4.6s3.64 8.49 3.64 16.28-1.44 13.21-4.32 16.28-7.95 4.6-15.2 4.6c-2.51 0-6.48-.24-11.92-.72l-2.72-.24v-56.56h8.64v18.16c3.68-1.6 7.01-2.4 10-2.4m-4 34q6.405 0 8.52-3c1.41-2 2.12-5.4 2.12-10.2s-.6-8.17-1.8-10.12-3.16-2.92-5.88-2.92q-3.84 0-7.68 1.2l-1.28.4v24.32c2.93.21 4.93.32 6 .32" class="cls-6"/><path id="path31" d="M1191.33 379.03v-9.2h8.72v9.2zm0 46.8v-40h8.72v40z" class="cls-6"/><path id="path32" d="M1240.21 398.15v18.24c.05 1.17.36 2.04.92 2.6s1.43.92 2.6 1.08l-.24 6.64c-4.59 0-8.13-.99-10.64-2.96-4.27 1.97-8.56 2.96-12.88 2.96-7.95 0-11.92-4.24-11.92-12.72 0-4.05 1.08-6.99 3.24-8.8s5.48-2.91 9.96-3.28l10.32-.88v-2.88c0-2.13-.47-3.63-1.4-4.48s-2.31-1.28-4.12-1.28c-3.41 0-7.68.21-12.8.64l-2.56.16-.32-6.16c5.81-1.39 11.16-2.08 16.04-2.08s8.4 1.05 10.56 3.16 3.24 5.45 3.24 10.04m-17.92 9.92q-5.52.48-5.52 6c0 3.68 1.63 5.52 4.88 5.52 2.67 0 5.49-.43 8.48-1.28l1.44-.48v-10.64z" class="cls-6"/></g></g></svg>