<svg xmlns="http://www.w3.org/2000/svg" xmlns:xlink="http://www.w3.org/1999/xlink" viewBox="0 0 350 352"><defs><linearGradient id="linear-gradient" x1="10161.91" x2="10536.91" y1="-3257.2" y2="-3257.2" gradientTransform="translate(-10173.79 3435.62)" gradientUnits="userSpaceOnUse"><stop offset="0" stop-color="#6500d4"/><stop offset="1" stop-color="#b071ff"/></linearGradient><linearGradient xlink:href="#linear-gradient" id="linear-gradient-2" x1="58.78" x2="295.67" y1="243.79" y2="243.79"/><linearGradient xlink:href="#linear-gradient" id="linear-gradient-3" x1="25.67" x2="450.12" y1="115.4" y2="115.4"/><linearGradient xlink:href="#linear-gradient" id="linear-gradient-4" x1="-53.16" x2="45.68" y1="348.77" y2="348.77"/><linearGradient xlink:href="#linear-gradient" id="linear-gradient-5" x1="-53.39" x2="12.94" y1="289.29" y2="289.29"/><style>.cls-6{stroke-width:0;fill:#fff}</style></defs><path id="Layer_2" d="M363.12-9.08h-375v375h375z" data-name="Layer 2" style="fill:url(#linear-gradient);stroke-width:0"/><g id="Layer_1" data-name="Layer 1"><g style="opacity:.46"><path d="M215.93 238.69c9.51-6.9 17.99-13.61 27.05-19.41 4.81-3.08 10.43-5.77 16-6.64 20.51-3.2 38.67 13.8 36.51 34.46-2.06 19.72-5.25 39.33-8.15 58.96-.84 5.66-5.49 8.38-11.1 6.67-7.9-2.42-15.73-5.07-23.51-7.85-5.35-1.91-6.79-5.11-5.72-11.48 1.42-8.47 2.86-16.94 4.47-26.5-2.69 1.85-4.5 3.02-6.22 4.29-53.97 39.87-107.93 79.75-161.89 119.62-1.33.98-2.62 2.04-4.06 2.84-5.47 3.03-12.01-.01-12.23-6.24-.41-11.39-.42-22.81.15-34.18.13-2.5 2.96-5.39 5.28-7.16 18.7-14.28 37.54-28.38 56.45-42.39 2.77-2.05 3.93-4.22 4.21-7.68 1.49-18.5 3.31-36.98 5-55.46.26-2.87.4-5.75.66-9.54-2.49 1.39-4.22 2.29-5.9 3.29-19.7 11.81-39.4 23.61-59.08 35.46-3.41 2.05-6.75 3.84-10.79 1.67-4.11-2.22-4.23-6.03-4.2-10.01.07-9.01.25-18.03-.07-27.03-.2-5.51 2.03-8.77 6.78-11.38 28.66-15.74 57.2-31.69 85.78-47.58.95-.53 1.88-1.09 3.44-2-13.77-4.61-23.54-12.87-28.31-26.23-3.47-9.73-3.22-19.48.71-29.07 7.9-19.3 28.91-29.51 48.86-23.75 21.79 6.29 32.54 25.56 28.12 51.41 2.07-1.01 3.8-1.77 5.45-2.69 23.61-13.11 47.2-26.25 70.81-39.35 9.65-5.36 15.02-2.17 15.04 8.91.02 9.01-.17 18.03.07 27.03.14 5.05-1.9 8.15-6.28 10.55-20.94 11.48-41.74 23.22-62.67 34.71-3.46 1.9-5.35 3.89-5.72 8.25-1.25 14.81-3.16 29.57-4.95 45.51Zm62.81-115.15c-2.13 1.13-3.89 2.03-5.61 2.98-63.42 35.22-126.84 70.44-190.26 105.67-8.74 4.85-9.23 6.01-6.89 16.99 1.82-1.01 3.57-1.92 5.25-2.93 20.48-12.27 40.97-24.54 61.42-36.87 3.36-2.02 6.65-3.23 10.29-.91 3.62 2.31 3.94 5.8 3.58 9.71-2.59 27.99-5.25 55.98-7.52 84.01-.45 5.57-2.82 9.03-7.1 12.19-17.46 12.86-34.47 26.37-52.25 38.75-6.63 4.61-6.84 9.79-5.91 17.13 7.42-5.47 14.32-10.54 21.2-15.63 50.4-37.25 100.81-74.49 151.18-111.78 3.5-2.59 7.03-4.16 11.12-1.67 4.16 2.53 4.19 6.51 3.41 10.73-.94 5.05-1.82 10.12-2.65 15.2-1.32 8.08-2.58 16.18-3.88 24.37 3.08.96 5.46 1.71 8.12 2.54.37-1.21.74-2.03.86-2.88 1.96-13.82 3.66-27.68 5.9-41.46 1.32-8.13-.5-14.72-7.67-19.01-7.06-4.22-13.61-2.32-19.92 2.37-12.98 9.64-26.15 19.04-39.2 28.59-3.15 2.31-6.36 3.81-10.16 1.7-3.99-2.21-4.55-5.79-4.08-9.95 2.64-23.18 5.27-46.37 7.67-69.58.47-4.56 2.51-7.3 6.4-9.43 19.32-10.61 38.27-21.93 57.95-31.81 8.56-4.3 10.92-9.64 8.78-19.02Zm-138.19 10.01c-.06 13.58 10.75 24.59 24.25 24.69 13.4.11 24.52-10.94 24.58-24.42.06-13.5-10.87-24.6-24.31-24.7-13.46-.1-24.46 10.86-24.52 24.42Z" style="stroke-width:0;fill:url(#linear-gradient-2)"/><path d="m315.78 293.47 7.6-14.4c9.78 5.11 19.18 10.03 29.03 15.18 0-1.83.2-3.21-.03-4.52-6.62-38.74-13.18-77.49-20.04-116.19-.92-5.16.26-8.71 3.93-12.26 27.75-26.86 55.35-53.85 83.07-80.74 1.41-1.37 3.41-2.14 5.13-3.19-.43-.67-.87-1.33-1.3-2-8.27-1.25-16.53-2.56-24.8-3.76-31.64-4.58-63.27-9.2-94.93-13.6-5.68-.79-9.06-3.35-11.6-8.57-16.7-34.34-33.7-68.54-50.61-102.79-.89-1.8-1.83-3.58-3.24-6.36-1.27 2.3-2.24 3.91-3.06 5.58-16.91 34.24-33.93 68.44-50.59 102.8-2.8 5.78-6.48 8.58-12.8 9.46C132.6 63.54 93.7 69.24 54.8 74.87c-.67.1-1.33.35-3.15.84 18.11 17.66 35.62 34.74 53.45 52.13-4.12 3.87-7.82 7.34-11.89 11.16-9.23-8.98-18.7-18.18-28.16-27.39C53.2 100.06 41.4 88.46 29.48 76.98c-2.88-2.78-4.66-5.79-3.39-9.77 1.28-4.02 4.51-5.25 8.48-5.82 43.1-6.18 86.18-12.51 129.28-18.68 4.02-.58 6.3-2.2 8.15-5.99 18.86-38.6 37.98-77.08 56.96-115.62 1.96-3.99 4.08-7.52 9.19-7.4 4.82.11 6.83 3.52 8.7 7.31 18.98 38.55 38.1 77.02 56.92 115.64 1.98 4.06 4.47 5.52 8.66 6.12 42.56 6.05 85.09 12.29 127.64 18.4 4.19.6 8.14 1.4 9.62 5.99 1.56 4.82-1.35 7.9-4.51 10.97-30.72 29.86-61.34 59.83-92.17 89.58-3.34 3.23-4.09 6.23-3.32 10.63 7.5 42.88 14.88 85.77 21.99 128.71.46 2.76-.77 7.03-2.78 8.63-2 1.59-6.57 1.9-9 .71-14.65-7.2-29.02-14.99-44.13-22.92Z" style="stroke-width:0;fill:url(#linear-gradient-3)"/><path d="M-44.09 385.48c-3.18-4.76-5.93-8.86-9.07-13.56 29.89-19.93 59.6-39.74 89.77-59.87 3.03 4.54 5.93 8.88 9.06 13.58C15.59 345.68-14 365.41-44.1 385.47Z" style="stroke-width:0;opacity:.6;fill:url(#linear-gradient-4)"/><path d="M3.67 263.1c3.1 4.48 6 8.68 9.27 13.4-19.03 12.98-37.91 25.86-57.13 38.98-3.02-4.43-5.9-8.64-9.19-13.46 19.01-12.97 37.86-25.82 57.06-38.92Z" style="stroke-width:0;fill:url(#linear-gradient-5);opacity:.6"/></g><path d="M65.09 135.67v-32.45h5.26v32.45zM82.38 135.67h-5.16v-23.68h5.12v1.47c2.3-1.33 4.48-1.99 6.54-1.99 3.16 0 5.31.89 6.47 2.68 1.15 1.78 1.73 4.73 1.73 8.83v12.69h-5.12v-12.55c0-2.56-.28-4.37-.83-5.45-.55-1.07-1.68-1.61-3.39-1.61-1.61 0-3.16.32-4.64.95l-.71.28v18.38ZM115.82 116.39h-6.54v10.42c0 1.93.14 3.21.43 3.84.28.63 1.01.95 2.18.95l3.88-.14.24 4.12c-2.12.41-3.73.62-4.83.62-2.68 0-4.52-.62-5.52-1.85-.99-1.23-1.49-3.55-1.49-6.96V116.4h-3.03v-4.41h3.03v-6.87h5.12v6.87h6.54v4.41ZM136.9 131.4l1.33-.14.09 3.84c-3.6.73-6.79 1.09-9.57 1.09-3.5 0-6.02-.96-7.56-2.89-1.53-1.93-2.3-5-2.3-9.24 0-8.4 3.43-12.6 10.28-12.6s9.95 3.62 9.95 10.85l-.33 3.69h-14.68c.03 1.96.46 3.4 1.28 4.31.82.92 2.35 1.37 4.59 1.37s4.55-.09 6.92-.28m-2.84-9.38c0-2.34-.37-3.97-1.11-4.9s-2-1.4-3.77-1.4-3.05.49-3.86 1.47-1.22 2.59-1.26 4.83zM144.09 135.67v-23.68h5.12v2.84c2.68-1.74 5.37-2.86 8.05-3.36v5.16c-2.72.54-5.04 1.23-6.96 2.08l-1.04.43v16.53h-5.16ZM161.48 135.67v-33.54h5.16v33.54zM190.04 131.4l1.33-.14.09 3.84c-3.6.73-6.79 1.09-9.57 1.09-3.5 0-6.02-.96-7.56-2.89-1.53-1.93-2.3-5-2.3-9.24 0-8.4 3.43-12.6 10.28-12.6s9.95 3.62 9.95 10.85l-.33 3.69h-14.68c.03 1.96.46 3.4 1.28 4.31.82.92 2.35 1.37 4.59 1.37s4.55-.09 6.92-.28m-2.84-9.38c0-2.34-.37-3.97-1.11-4.9s-2-1.4-3.77-1.4-3.05.49-3.86 1.47-1.22 2.59-1.26 4.83zM216.56 102.13v33.54h-5.12v-1.23c-2.31 1.17-4.42 1.75-6.35 1.75-3.09 0-5.36-.93-6.8-2.79s-2.16-4.99-2.16-9.38.8-7.58 2.39-9.57 4.08-2.98 7.46-2.98c1.14 0 2.94.21 5.4.62v-9.95h5.16Zm-5.97 28.61.81-.33v-14.02c-1.9-.32-3.65-.47-5.26-.47-3.19 0-4.78 2.65-4.78 7.96 0 2.91.37 4.92 1.11 6.04s1.92 1.68 3.53 1.68 3.14-.28 4.59-.85ZM243.52 138.89c0 5.18-3.74 7.77-11.23 7.77-3.6 0-6.27-.49-8-1.47-1.74-.98-2.61-2.76-2.61-5.35 0-1.17.28-2.17.85-3.01s1.48-1.74 2.75-2.72c-1.04-.69-1.56-1.85-1.56-3.46 0-.63.43-1.66 1.28-3.08l.43-.71c-2.27-1.36-3.41-3.73-3.41-7.11 0-2.84.85-4.93 2.56-6.25 1.71-1.33 4.01-1.99 6.92-1.99 1.39 0 2.76.16 4.12.47l.71.14 7.34-.19v4.17l-3.93-.24c.85 1.11 1.28 2.4 1.28 3.88 0 3.1-.78 5.23-2.34 6.42-1.56 1.18-4 1.78-7.32 1.78-.82 0-1.52-.06-2.08-.19q-.66 1.605-.66 2.49c0 .885.29.99.88 1.21.58.22 2 .35 4.24.38 3.76.03 6.33.54 7.72 1.52s2.08 2.83 2.08 5.54Zm-16.77.47c0 1.1.44 1.89 1.33 2.37.88.47 2.4.71 4.55.71q5.73 0 5.73-3.27 0-1.845-1.02-2.34t-4.05-.54l-4.64-.28c-.7.57-1.18 1.1-1.47 1.59-.28.49-.43 1.08-.43 1.78Zm1.42-16.41q1.035 1.02 3.36 1.02c2.325 0 2.66-.34 3.34-1.02s1.02-1.74 1.02-3.2-.35-2.52-1.04-3.2q-1.05-1.02-3.36-1.02c-2.91 0-4.36 1.41-4.36 4.22 0 1.45.35 2.52 1.04 3.2M264.55 131.4l1.33-.14.09 3.84c-3.6.73-6.79 1.09-9.57 1.09-3.5 0-6.02-.96-7.56-2.89-1.53-1.93-2.3-5-2.3-9.24 0-8.4 3.43-12.6 10.28-12.6s9.95 3.62 9.95 10.85l-.33 3.69h-14.68c.03 1.96.46 3.4 1.28 4.31.82.92 2.35 1.37 4.59 1.37s4.55-.09 6.92-.28m-2.84-9.38c0-2.34-.37-3.97-1.11-4.9s-2-1.4-3.77-1.4-3.05.49-3.86 1.47-1.22 2.59-1.26 4.83zM271.75 135.67v-23.68h5.12v2.84c2.68-1.74 5.37-2.86 8.05-3.36v5.16c-2.72.54-5.04 1.23-6.96 2.08l-1.04.43v16.53h-5.16ZM93.72 193.03c-4.74 0-7.95-1.31-9.64-3.93s-2.53-6.93-2.53-12.93.85-10.27 2.56-12.81 4.91-3.81 9.62-3.81c2.81 0 5.9.4 9.28 1.18l-.19 4.26c-2.84-.5-5.68-.76-8.53-.76s-4.77.85-5.78 2.53c-1.01 1.69-1.52 4.86-1.52 9.52s.49 7.83 1.47 9.52 2.89 2.53 5.73 2.53 5.71-.24 8.62-.71l.14 4.36c-3.25.69-6.33 1.04-9.24 1.04ZM108.85 171.38c1.63-2.05 4.33-3.08 8.12-3.08s6.5 1.03 8.12 3.08c1.63 2.05 2.44 5.13 2.44 9.24s-.79 7.2-2.37 9.28-4.31 3.13-8.19 3.13-6.62-1.04-8.19-3.13c-1.58-2.08-2.37-5.18-2.37-9.28s.81-7.18 2.44-9.24m3.86 15.39q1.095 1.89 4.26 1.89c3.165 0 3.54-.63 4.26-1.89.73-1.26 1.09-3.33 1.09-6.2s-.39-4.91-1.16-6.11-2.17-1.8-4.19-1.8-3.42.6-4.19 1.8-1.16 3.24-1.16 6.11.36 4.94 1.09 6.2M137.82 192.51h-5.16v-23.68h5.12v1.47c2.24-1.33 4.29-1.99 6.16-1.99 2.75 0 4.75.77 6.01 2.32 2.87-1.55 5.73-2.32 8.57-2.32s4.85.88 6.02 2.63 1.75 4.71 1.75 8.88v12.69h-5.12v-12.55c0-2.56-.26-4.37-.78-5.45-.52-1.07-1.6-1.61-3.24-1.61-1.42 0-2.95.32-4.59.95l-.81.33c.25.63.38 2.65.38 6.06v12.27h-5.12v-12.17c0-2.81-.25-4.75-.76-5.83s-1.61-1.61-3.32-1.61c-1.58 0-3.05.32-4.41.95l-.71.28v18.38ZM189.21 188.24l1.33-.14.09 3.84c-3.6.73-6.79 1.09-9.57 1.09-3.5 0-6.02-.96-7.56-2.89-1.53-1.93-2.3-5-2.3-9.24 0-8.4 3.43-12.6 10.28-12.6s9.95 3.62 9.95 10.85l-.33 3.69h-14.68c.03 1.96.46 3.4 1.28 4.31.82.92 2.35 1.37 4.59 1.37s4.55-.09 6.92-.28m-2.84-9.38c0-2.34-.37-3.97-1.11-4.9s-2-1.4-3.77-1.4-3.05.49-3.86 1.47-1.22 2.59-1.26 4.83zM212.85 173.7c-3.73-.5-6.43-.76-8.1-.76s-2.83.2-3.48.59c-.65.4-.97 1.02-.97 1.87s.35 1.45 1.07 1.8c.71.35 2.38.75 5.02 1.21q3.96.69 5.61 2.16c1.1.98 1.66 2.72 1.66 5.21s-.8 4.33-2.39 5.49c-1.6 1.17-3.92 1.75-6.99 1.75q-2.895 0-7.29-.81l-1.47-.24.19-4.31c3.79.51 6.52.76 8.19.76s2.87-.21 3.58-.62 1.07-1.09 1.07-2.04-.34-1.6-1.02-1.97c-.68-.36-2.31-.76-4.88-1.18s-4.46-1.1-5.66-2.01c-1.2-.92-1.8-2.59-1.8-5.02s.83-4.25 2.49-5.45 3.78-1.8 6.37-1.8c2.02 0 4.5.25 7.44.76l1.47.28-.09 4.31ZM241.79 173.23h-6.54v10.42c0 1.93.14 3.21.43 3.84.28.63 1.01.95 2.18.95l3.88-.14.24 4.12c-2.12.41-3.73.62-4.83.62-2.68 0-4.52-.62-5.52-1.85-.99-1.23-1.49-3.55-1.49-6.96v-10.99h-3.03v-4.41h3.03v-6.87h5.12v6.87h6.54v4.41ZM247.3 171.38c1.63-2.05 4.33-3.08 8.12-3.08s6.5 1.03 8.12 3.08c1.63 2.05 2.44 5.13 2.44 9.24s-.79 7.2-2.37 9.28-4.31 3.13-8.19 3.13-6.62-1.04-8.19-3.13c-1.58-2.08-2.37-5.18-2.37-9.28s.81-7.18 2.44-9.24m3.86 15.39q1.095 1.89 4.26 1.89c3.165 0 3.54-.63 4.26-1.89.73-1.26 1.09-3.33 1.09-6.2s-.39-4.91-1.16-6.11-2.17-1.8-4.19-1.8-3.42.6-4.19 1.8-1.16 3.24-1.16 6.11.36 4.94 1.09 6.2M94.14 249.87c-4.74 0-7.95-1.31-9.64-3.93s-2.53-6.93-2.53-12.93.85-10.27 2.56-12.81 4.91-3.81 9.62-3.81c2.81 0 5.9.4 9.28 1.18l-.19 4.26c-2.84-.5-5.68-.76-8.53-.76s-4.77.85-5.78 2.53c-1.01 1.69-1.52 4.86-1.52 9.52s.49 7.83 1.47 9.52 2.89 2.53 5.73 2.53 5.71-.24 8.62-.71l.14 4.36c-3.25.69-6.33 1.04-9.24 1.04ZM109.28 228.22c1.63-2.05 4.33-3.08 8.12-3.08s6.5 1.03 8.12 3.08c1.63 2.05 2.44 5.13 2.44 9.24s-.79 7.2-2.37 9.28-4.31 3.13-8.19 3.13-6.62-1.04-8.19-3.13c-1.58-2.08-2.37-5.18-2.37-9.28s.81-7.18 2.44-9.24m3.86 15.39q1.095 1.89 4.26 1.89c3.165 0 3.54-.63 4.26-1.89.73-1.26 1.09-3.33 1.09-6.2s-.39-4.91-1.16-6.11-2.17-1.8-4.19-1.8-3.42.6-4.19 1.8-1.16 3.24-1.16 6.11.36 4.94 1.09 6.2M133.36 249.35v-33.54h5.16v33.54zM146.37 228.22c1.63-2.05 4.33-3.08 8.12-3.08s6.5 1.03 8.12 3.08c1.63 2.05 2.44 5.13 2.44 9.24s-.79 7.2-2.37 9.28-4.31 3.13-8.19 3.13-6.62-1.04-8.19-3.13c-1.58-2.08-2.37-5.18-2.37-9.28s.81-7.18 2.44-9.24m3.86 15.39q1.095 1.89 4.26 1.89c3.165 0 3.54-.63 4.26-1.89.73-1.26 1.09-3.33 1.09-6.2s-.39-4.91-1.16-6.11-2.17-1.8-4.19-1.8-3.42.6-4.19 1.8-1.16 3.24-1.16 6.11.36 4.94 1.09 6.2M175.33 249.35h-5.16v-23.68h5.12v1.47c2.24-1.33 4.29-1.99 6.16-1.99 2.75 0 4.75.77 6.01 2.32 2.87-1.55 5.73-2.32 8.57-2.32s4.85.88 6.02 2.63 1.75 4.71 1.75 8.88v12.69h-5.12V236.8c0-2.56-.26-4.37-.78-5.45-.52-1.07-1.6-1.61-3.24-1.61-1.42 0-2.95.32-4.59.95l-.81.33c.25.63.38 2.65.38 6.06v12.27h-5.12v-12.17c0-2.81-.25-4.75-.76-5.83s-1.61-1.61-3.32-1.61c-1.58 0-3.05.32-4.41.95l-.71.28v18.38ZM220.9 225.14c3.25 0 5.6.91 7.03 2.72 1.44 1.82 2.16 5.03 2.16 9.64s-.85 7.82-2.56 9.64-4.71 2.72-9 2.72c-1.48 0-3.84-.14-7.06-.43l-1.61-.14V215.8h5.12v10.75c2.18-.95 4.15-1.42 5.92-1.42Zm-2.37 20.13c2.53 0 4.21-.59 5.04-1.78s1.26-3.2 1.26-6.04-.36-4.84-1.07-5.99-1.87-1.73-3.48-1.73c-1.52 0-3.03.24-4.55.71l-.76.24v14.4c1.74.13 2.92.19 3.55.19ZM235.25 221.64v-5.45h5.16v5.45zm0 27.71v-23.68h5.16v23.68zM264.19 232.96v10.8c.03.7.21 1.21.54 1.54s.84.54 1.54.64l-.14 3.93c-2.72 0-4.82-.58-6.3-1.75-2.53 1.17-5.07 1.75-7.63 1.75-4.71 0-7.06-2.51-7.06-7.53 0-2.4.64-4.14 1.92-5.21s3.25-1.72 5.9-1.94l6.11-.52v-1.71c0-1.26-.28-2.15-.83-2.65s-1.37-.76-2.44-.76c-2.02 0-4.55.13-7.58.38l-1.52.09-.19-3.65c3.44-.82 6.61-1.23 9.5-1.23s4.97.62 6.25 1.87q1.92 1.875 1.92 5.94Zm-10.61 5.87c-2.18.19-3.27 1.37-3.27 3.55s.96 3.27 2.89 3.27c1.58 0 3.25-.25 5.02-.76l.85-.28v-6.3l-5.5.52Z" class="cls-6"/></g></svg>