<svg xmlns="http://www.w3.org/2000/svg" xmlns:xlink="http://www.w3.org/1999/xlink" xml:space="preserve" id="Layer_1" x="0" y="0" viewBox="0 0 1616.8 881"><style>.st3{enable-background:new}.st4{fill:#fff}</style><linearGradient id="SVGID_1_" x1="-390.46" x2="1226.54" y1="7097.39" y2="7097.39" gradientTransform="matrix(1 0 0 -1 390.62 7537.89)" gradientUnits="userSpaceOnUse"><stop offset="0" style="stop-color:#c22801"/><stop offset="1" style="stop-color:#ea8b1d"/></linearGradient><path d="M1617.2 0H.2v881h1617z" style="fill:url(#SVGID_1_)"/><defs><path id="SVGID_00000175280969686023523530000012895343993212920728_" d="M.2 0h1617v881H.2z"/></defs><clipPath id="SVGID_00000053543550575109193880000015252399141542531209_"><use xlink:href="#SVGID_00000175280969686023523530000012895343993212920728_" style="overflow:visible"/></clipPath><g style="clip-path:url(#SVGID_00000053543550575109193880000015252399141542531209_)"><linearGradient id="SVGID_00000093143199829926393520000003764379476504646573_" x1="3589.502" x2="4590.269" y1="-2312.495" y2="-2312.495" gradientTransform="matrix(.9992 -.041 -.041 -.9992 -3951.822 -1641.053)" gradientUnits="userSpaceOnUse"><stop offset="0" style="stop-color:#c22801"/><stop offset="1" style="stop-color:#ea8b1d"/></linearGradient><path d="M261.5 1007.2c42.7-2.3 82.9-4.5 123.1-6.8 13.7-.8 23.6 3.3 24.4 17.9.9 16.8-10.2 21.7-25.2 22.4-58.9 3.1-117.9 6.4-176.8 9.6-35.4 1.9-70.7 3.7-106.1 5.9-14.8.9-26.8-2.4-27-19.1-.3-17 12.2-20.5 26.7-21.2 38.9-1.9 77.9-4.2 118-6.4-.8-28.1-1.5-54.4-2.2-81.9-28.6 0-57.5 1.3-86.3-.1C6.5 921.7-101.4 879.2-194.1 802c-15.8-13.2-16.3-22.7-1.8-38.1 17.1-18 34.7-35.6 52.8-54.1C-235.3 618-281.3 509.1-274.2 380-268 266.9-222 169.2-139.3 87.5 16.3-66.1 279.4-100 472.5 58.6 489.2 40.4 505.8 22 522.8 4c15.6-16.5 25.5-17.3 40.5-2.2C709 149.4 759.7 326 699.3 527.2 639.4 726.7 499.7 854 294.3 911c-34.9 9.7-35.2 8.7-34.2 44.5.4 16.2.9 32.5 1.4 51.7M-38.9 736.1c20.2 9 37.8 19 56.8 25 59.6 19 44.3 26.2 77.7-29.8 37.7-63.3 33.8-122.8-16.1-176.7-15.9-17.2-31.7-34.8-45.4-53.8C4.1 459 6 418.7 38.7 376.9c7.6-9.7 16-19.1 25.1-27.5 18.8-17.3 40.1-32.2 57-50.9 23.1-25.5 47.7-51.5 63.1-81.3 12.2-23.6 23.1-41.4 49.3-52 34.5-13.9 52.8-42.6 57.1-78.4 2.4-19.8 1.8-39.9 4-59.8 1.4-12.7-2.6-18-15.5-20.7-156.2-32.6-290.3 9.2-402.8 124-5.1 5.2-8.7 13.4-9.7 20.6-4.3 32.5-7.2 65.1-11 97.7-8.9 77.1-.2 147.7 68.3 197.7 4.6 3.4 7.7 15.4 5.1 20.4-28.2 53.2-16.2 99.4 18.7 142.9 29.9 37.2 37.5 78.5 13.7 126.5M335.8 27.8c-.4 12.7-.6 25.8-1.3 39-2.6 50.5-19.7 95.6-66.2 122.8-26.3 15.3-42.3 34.2-55 60.4-20.8 43-58.4 73.1-94.3 104.2-16.4 14.2-32.9 28.9-46.6 45.4-24.4 29.5-24.5 49.3-2.4 78.8 12.6 16.8 26.8 32.5 40.4 48.6 62 73.6 67.9 137.5 20.5 224-5.7 10.4-11.7 20.7-18.5 32.7 64.8 7.8 125.3.5 181.5-19.2-4.3-31.1-11.1-59.3-11.4-87.8-.4-37.3 20.5-68.5 43.1-97.6 21.8-28.2 29.8-56.9 20.1-91.9-13.2-47.7 8.3-90.3 56.4-107.9 30.9-11.3 65.1-15.8 98.1-18.3 25.2-1.9 50.8 4.2 80.1 7-6.3-35.1-12.4-68.8-18.7-103.5-9.6 3.9-14.8 6.2-20 8.2-82.7 31.5-164.2-12.4-174.3-96.9-3.7-31.1.6-63.9 5.1-95.5 5.8-40.6 7.5-40.5-32.9-53.3-.4-.1-1.1.2-3.7.8m-487.9 749.4c205.6 168.5 512.7 142.2 699-60.7 187.4-204.1 174.2-498.2-4.1-669.9-13.7 13.2-27.4 26.4-41 39.6C665 259.4 647 505.8 514.3 661.5c-68.9 80.8-155.2 134-259.5 155.6-136.4 28.2-259-1.2-367.6-81.4-13.9 14.6-26.6 28.1-39.3 41.5m489.2-32.7c2.3.4 3 .8 3.4.6 121-54.6 219.6-178.3 234-322 .4-4.2-5.6-11.9-10.1-13-44.1-11.1-89-13.6-133.8 0-41.2 12.5-54.7 36.7-43.3 76.6 9.1 32 4.7 62.1-12.9 90.8-8 13.1-16.5 26.1-25.8 38.4-31.4 41.4-32.8 84.1-11.5 128.6M-183 215.3c-99.2 166-45.3 398.4 111.4 495.6 7.8-18.7 8.7-36.9-.9-54.2-6.9-12.6-14.5-25-23.2-36.5-32.6-43.4-41.7-90.8-23.6-143.6 1.7-4.9-.1-13.6-3.7-17-54.7-51.8-70.5-116.8-64.3-189.6 1.5-17.2 2.7-34.4 4.3-54.7M417.2 69c-10.1 38-15.4 74.1-8.1 109.9 12 59.6 87.6 84.6 134.9 44.9-27.6-61.7-69.1-112.6-126.8-154.8" style="opacity:.7;fill:url(#SVGID_00000093143199829926393520000003764379476504646573_)"/></g><g class="st3"><path d="M926.3 298.8c-8 0-13.4-2.2-16.3-6.6s-4.3-11.7-4.3-21.9c0-10.1 1.4-17.4 4.3-21.7s8.3-6.5 16.3-6.5c4.8 0 10 .7 15.7 2l-.3 7.2c-4.8-.9-9.6-1.3-14.4-1.3s-8.1 1.4-9.8 4.3-2.6 8.2-2.6 16.1.8 13.2 2.5 16.1 4.9 4.3 9.7 4.3 9.7-.4 14.6-1.2l.2 7.4q-8.25 1.8-15.6 1.8" class="st4"/></g><g class="st3"><path d="M951.9 262.2c2.8-3.5 7.3-5.2 13.7-5.2s11 1.7 13.7 5.2c2.8 3.5 4.1 8.7 4.1 15.6s-1.3 12.2-4 15.7-7.3 5.3-13.9 5.3-11.2-1.8-13.9-5.3-4-8.8-4-15.7c.1-6.9 1.5-12.1 4.3-15.6m6.5 26c1.2 2.1 3.6 3.2 7.2 3.2s6-1.1 7.2-3.2q1.8-3.15 1.8-10.5c0-4.9-.7-8.3-2-10.3s-3.7-3-7.1-3-5.8 1-7.1 3-2 5.5-2 10.3c.1 4.9.8 8.4 2 10.5M1000.9 297.9h-8.7v-40.1h8.7v2.5c3.9-2.2 7.6-3.4 11.1-3.4 5.3 0 9 1.5 10.9 4.5s2.9 8 2.9 14.9v21.5h-8.7v-21.2c0-4.3-.5-7.4-1.4-9.2q-1.35-2.7-5.7-2.7c-2.7 0-5.3.5-7.9 1.6l-1.2.5zM1046.4 265.3v32.6h-8.7v-32.6h-4.6v-7.5h4.6v-2.6c0-5.7.8-9.6 2.5-11.8 1.7-2.1 4.6-3.2 8.8-3.2l8.7.8-.1 7.1c-2.6-.1-4.8-.2-6.5-.2s-3 .5-3.6 1.6c-.7 1-1 3-1 5.7v2.5h10.6v7.5h-10.7z" class="st4"/></g><g class="st3"><path d="M1063.6 297.9v-40.1h8.7v4.8c4.5-2.9 9.1-4.8 13.6-5.7v8.7c-4.6.9-8.5 2.1-11.8 3.5l-1.8.7v28h-8.7z" class="st4"/></g><g class="st3"><path d="M1094.4 262.2c2.8-3.5 7.3-5.2 13.7-5.2s11 1.7 13.7 5.2c2.8 3.5 4.1 8.7 4.1 15.6s-1.3 12.2-4 15.7-7.3 5.3-13.9 5.3-11.2-1.8-13.9-5.3-4-8.8-4-15.7c.2-6.9 1.5-12.1 4.3-15.6m6.5 26c1.2 2.1 3.6 3.2 7.2 3.2s6-1.1 7.2-3.2q1.8-3.15 1.8-10.5c0-4.9-.7-8.3-2-10.3s-3.7-3-7.1-3-5.8 1-7.1 3-2 5.5-2 10.3c.2 4.9.8 8.4 2 10.5M1143.4 297.9h-8.7v-40.1h8.7v2.5c3.9-2.2 7.6-3.4 11.1-3.4 5.3 0 9 1.5 10.9 4.5s2.9 8 2.9 14.9v21.5h-8.7v-21.2c0-4.3-.5-7.4-1.4-9.2q-1.35-2.7-5.7-2.7c-2.7 0-5.3.5-7.9 1.6l-1.2.5zM1199.9 265.3h-11.1v17.6c0 3.3.2 5.4.7 6.5s1.7 1.6 3.7 1.6l6.6-.2.4 7c-3.6.7-6.3 1-8.2 1-4.5 0-7.7-1-9.3-3.1s-2.5-6-2.5-11.8v-18.6h-5.1v-7.5h5.1v-11.6h8.7v11.6h11.1v7.5zM1207.1 251.1v-9.2h8.7v9.2zm0 46.8v-40.1h8.7v40.1zM1235.1 297.9h-8.7v-40.1h8.7v2.5c3.9-2.2 7.6-3.4 11.1-3.4 5.3 0 9 1.5 10.9 4.5s2.9 8 2.9 14.9v21.5h-8.7v-21.2c0-4.3-.5-7.4-1.4-9.2q-1.35-2.7-5.7-2.7c-2.7 0-5.3.5-7.9 1.6l-1.2.5zM1305.1 303.4c0 8.8-6.3 13.1-19 13.1-6.1 0-10.6-.8-13.5-2.5s-4.4-4.7-4.4-9.1c0-2 .5-3.7 1.4-5.1 1-1.4 2.5-3 4.6-4.6-1.8-1.2-2.6-3.1-2.6-5.8 0-1.1.7-2.8 2.2-5.2l.7-1.2c-3.8-2.3-5.8-6.3-5.8-12 0-4.8 1.4-8.3 4.3-10.6 2.9-2.2 6.8-3.4 11.7-3.4 2.4 0 4.7.3 7 .8l1.2.2 12.4-.3v7l-6.6-.4c1.4 1.9 2.2 4.1 2.2 6.6 0 5.2-1.3 8.9-4 10.9s-6.8 3-12.4 3c-1.4 0-2.6-.1-3.5-.3-.7 1.8-1.1 3.2-1.1 4.2s.5 1.7 1.5 2q1.5.6 7.2.6c6.4.1 10.7.9 13.1 2.6 2.3 1.8 3.4 4.9 3.4 9.5m-28.3.8c0 1.9.7 3.2 2.2 4s4.1 1.2 7.7 1.2c6.5 0 9.7-1.8 9.7-5.5 0-2.1-.6-3.4-1.7-4q-1.65-.9-6.9-.9l-7.9-.5c-1.2 1-2 1.9-2.5 2.7q-.6 1.2-.6 3m2.4-27.8c1.2 1.1 3.1 1.7 5.7 1.7s4.5-.6 5.6-1.7 1.7-3 1.7-5.4-.6-4.3-1.8-5.4-3.1-1.7-5.7-1.7c-4.9 0-7.4 2.4-7.4 7.1.1 2.5.7 4.3 1.9 5.4" class="st4"/></g><g class="st3"><path d="M940.4 387.8v-23.7h-23.7v23.7h-8.9v-54.9h8.9v23.4h23.7v-23.4h9v54.9zM990.6 360.1v18.3c.1 1.2.4 2 .9 2.6.6.6 1.4.9 2.6 1.1l-.2 6.6c-4.6 0-8.1-1-10.7-3q-6.45 3-12.9 3c-8 0-11.9-4.2-11.9-12.7 0-4.1 1.1-7 3.2-8.8 2.2-1.8 5.5-2.9 10-3.3l10.3-.9v-2.9c0-2.1-.5-3.6-1.4-4.5s-2.3-1.3-4.1-1.3c-3.4 0-7.7.2-12.8.6l-2.6.2-.3-6.2c5.8-1.4 11.2-2.1 16.1-2.1s8.4 1.1 10.6 3.2c2.1 2.1 3.2 5.5 3.2 10.1m-18 9.9c-3.7.3-5.5 2.3-5.5 6s1.6 5.5 4.9 5.5c2.7 0 5.5-.4 8.5-1.3l1.4-.5V369zM1001.6 387.8v-40.1h8.7v4.8c4.5-2.9 9.1-4.8 13.6-5.7v8.7c-4.6.9-8.5 2.1-11.8 3.5l-1.8.7v28h-8.7zM1039.2 387.8h-8.7v-40.1h8.7v2.5c3.8-2.2 7.3-3.4 10.4-3.4q6.9 0 10.2 3.9c4.9-2.6 9.7-3.9 14.5-3.9s8.2 1.5 10.2 4.4q3 4.5 3 15v21.5h-8.7v-21.2c0-4.3-.4-7.4-1.3-9.2s-2.7-2.7-5.5-2.7c-2.4 0-5 .5-7.8 1.6l-1.4.6c.4 1.1.6 4.5.6 10.3v20.8h-8.7v-20.6c0-4.8-.4-8-1.3-9.9-.9-1.8-2.7-2.7-5.6-2.7-2.7 0-5.2.5-7.5 1.6l-1.2.5v31zM1108.1 355.2v32.6h-8.7v-32.6h-4.6v-7.5h4.6v-2.6c0-5.7.8-9.6 2.5-11.8 1.7-2.1 4.6-3.2 8.8-3.2l8.7.8-.1 7.1c-2.6-.1-4.8-.2-6.5-.2s-3 .5-3.6 1.6c-.7 1-1 3-1 5.7v2.5h10.6v7.5h-10.7zM1149.6 347.7h8.7v40.1h-8.7v-2.5c-3.9 2.2-7.5 3.4-10.8 3.4-5.5 0-9.2-1.5-11.1-4.4-1.9-3-2.8-8.2-2.8-15.6v-20.9h8.7v21c0 4.8.4 8 1.2 9.7s2.7 2.5 5.6 2.5 5.5-.5 7.9-1.6l1.2-.5v-31.2zM1169.3 387.8v-56.7h8.7v56.7z" class="st4"/></g><g class="st3"><path d="M1227.9 370.7h-11.2v17.1h-8.9v-54.9h20.1c12.4 0 18.7 6.1 18.7 18.4 0 6.3-1.6 11.1-4.7 14.4-3.1 3.4-7.8 5-14 5m-11.2-7.7h11.1q9.6 0 9.6-11.7c0-3.7-.8-6.5-2.3-8.2s-4-2.6-7.3-2.6h-11.1z" class="st4"/></g><g class="st3"><path d="M1283.4 360.1v18.3c.1 1.2.4 2 .9 2.6.6.6 1.4.9 2.6 1.1l-.2 6.6c-4.6 0-8.1-1-10.7-3q-6.45 3-12.9 3c-8 0-11.9-4.2-11.9-12.7 0-4.1 1.1-7 3.2-8.8 2.2-1.8 5.5-2.9 10-3.3l10.3-.9v-2.9c0-2.1-.5-3.6-1.4-4.5s-2.3-1.3-4.1-1.3c-3.4 0-7.7.2-12.8.6l-2.6.2-.3-6.2c5.8-1.4 11.2-2.1 16.1-2.1s8.4 1.1 10.6 3.2c2.1 2.1 3.2 5.5 3.2 10.1m-18 9.9c-3.7.3-5.5 2.3-5.5 6s1.6 5.5 4.9 5.5c2.7 0 5.5-.4 8.5-1.3l1.4-.5V369zM1315.9 355.2h-11.1v17.6c0 3.3.2 5.4.7 6.5s1.7 1.6 3.7 1.6l6.6-.2.4 7c-3.6.7-6.3 1-8.2 1-4.5 0-7.7-1-9.3-3.1-1.7-2.1-2.5-6-2.5-11.8v-18.6h-5.1v-7.5h5.1v-11.6h8.7v11.6h11.1v7.5zM1344.6 355.2h-11.1v17.6c0 3.3.2 5.4.7 6.5s1.7 1.6 3.7 1.6l6.6-.2.4 7c-3.6.7-6.3 1-8.2 1-4.5 0-7.7-1-9.3-3.1-1.7-2.1-2.5-6-2.5-11.8v-18.6h-5.1v-7.5h5.1v-11.6h8.7v11.6h11.1v7.5zM1380.2 380.6l2.2-.2.2 6.5q-9.15 1.8-16.2 1.8c-5.9 0-10.2-1.6-12.8-4.9q-3.9-4.95-3.9-15.6 0-21.3 17.4-21.3 16.8 0 16.8 18.3l-.6 6.2h-24.8c.1 3.3.8 5.7 2.2 7.3 1.4 1.5 4 2.3 7.8 2.3 3.8.1 7.7-.1 11.7-.4m-4.8-15.9c0-4-.6-6.7-1.9-8.3s-3.4-2.4-6.4-2.4-5.2.8-6.5 2.5c-1.4 1.7-2.1 4.4-2.1 8.2zM1392.4 387.8v-40.1h8.7v4.8c4.5-2.9 9.1-4.8 13.6-5.7v8.7c-4.6.9-8.5 2.1-11.8 3.5l-1.8.7v28h-8.7zM1430 387.8h-8.7v-40.1h8.7v2.5c3.9-2.2 7.6-3.4 11.1-3.4 5.3 0 9 1.5 10.9 4.5s2.9 8 2.9 14.9v21.5h-8.7v-21.2c0-4.3-.5-7.4-1.4-9.2q-1.35-2.7-5.7-2.7c-2.7 0-5.3.5-7.9 1.6l-1.2.5zM1492.9 356c-6.3-.9-10.9-1.3-13.7-1.3s-4.8.3-5.9 1-1.6 1.7-1.6 3.2c0 1.4.6 2.5 1.8 3 1.2.6 4 1.3 8.5 2 4.5.8 7.6 2 9.5 3.6 1.9 1.7 2.8 4.6 2.8 8.8s-1.3 7.3-4 9.3-6.6 3-11.8 3c-3.3 0-7.4-.5-12.3-1.4l-2.5-.4.3-7.3c6.4.9 11 1.3 13.9 1.3 2.8 0 4.8-.3 6-1s1.8-1.8 1.8-3.4-.6-2.7-1.7-3.3-3.9-1.3-8.3-2-7.5-1.9-9.6-3.4c-2-1.5-3-4.4-3-8.5s1.4-7.2 4.2-9.2q4.2-3 10.8-3c3.4 0 7.6.4 12.6 1.3l2.5.5z" class="st4"/></g><g class="st3"><path d="M906.8 430.8v-9.2h8.7v9.2zm0 46.9v-40.1h8.7v40.1zM934.8 477.7h-8.7v-40.1h8.7v2.5c3.9-2.2 7.6-3.4 11.1-3.4 5.3 0 9 1.5 10.9 4.5s2.9 8 2.9 14.9v21.5H951v-21.2c0-4.3-.5-7.4-1.4-9.2q-1.35-2.7-5.7-2.7c-2.7 0-5.3.5-7.9 1.6l-1.2.5zM1007.5 477.7h-19v-54.9h19c8.4 0 14.2 2.1 17.3 6.4s4.6 11 4.6 20.1c0 4.6-.3 8.6-.9 11.8s-1.7 6.2-3.2 8.8c-3.1 5.2-9 7.8-17.8 7.8m12.7-28.4c0-6.6-.8-11.4-2.5-14.3s-5.1-4.4-10.3-4.4h-10.1v39.3h10.1c5.3 0 8.8-1.9 10.6-5.8.9-2 1.4-4.1 1.7-6.3.4-2.4.5-5.2.5-8.5M1038.8 430.8v-9.2h8.7v9.2zm0 46.9v-40.1h8.7v40.1zM1093.1 483.1c0 8.8-6.3 13.1-19 13.1-6.1 0-10.6-.8-13.5-2.5s-4.4-4.7-4.4-9.1c0-2 .5-3.7 1.4-5.1 1-1.4 2.5-3 4.6-4.6-1.8-1.2-2.6-3.1-2.6-5.8 0-1.1.7-2.8 2.2-5.2l.7-1.2c-3.8-2.3-5.8-6.3-5.8-12 0-4.8 1.4-8.3 4.3-10.6 2.9-2.2 6.8-3.4 11.7-3.4 2.4 0 4.7.3 7 .8l1.2.2 12.4-.3v7l-6.7-.4c1.4 1.9 2.2 4.1 2.2 6.6 0 5.2-1.3 8.9-4 10.9-2.6 2-6.8 3-12.4 3-1.4 0-2.6-.1-3.5-.3-.7 1.8-1.1 3.2-1.1 4.2s.5 1.7 1.5 2q1.5.6 7.2.6c6.4.1 10.7.9 13.1 2.6 2.4 1.8 3.5 4.9 3.5 9.5m-28.3.8c0 1.9.7 3.2 2.2 4s4.1 1.2 7.7 1.2c6.5 0 9.7-1.8 9.7-5.5 0-2.1-.6-3.4-1.7-4q-1.65-.9-6.9-.9l-7.9-.5c-1.2 1-2 1.9-2.5 2.7q-.6 1.2-.6 3m2.4-27.8c1.2 1.1 3.1 1.7 5.7 1.7s4.5-.6 5.6-1.7 1.7-3 1.7-5.4-.6-4.3-1.8-5.4-3.1-1.7-5.7-1.7c-4.9 0-7.4 2.4-7.4 7.1.1 2.5.7 4.3 1.9 5.4M1100.2 430.8v-9.2h8.7v9.2zm0 46.9v-40.1h8.7v40.1zM1141.1 445.1H1130v17.6c0 3.3.2 5.4.7 6.5s1.7 1.6 3.7 1.6l6.6-.2.4 7c-3.6.7-6.3 1-8.2 1-4.5 0-7.7-1-9.3-3.1-1.7-2.1-2.5-6-2.5-11.8v-18.6h-5.1v-7.5h5.1V426h8.7v11.6h11.1v7.5zM1177.8 449.9v18.3c.1 1.2.4 2 .9 2.6.6.6 1.4.9 2.6 1.1l-.2 6.6c-4.6 0-8.1-1-10.7-3q-6.45 3-12.9 3c-8 0-11.9-4.2-11.9-12.7 0-4.1 1.1-7 3.2-8.8 2.2-1.8 5.5-2.9 10-3.3l10.3-.9v-2.9c0-2.1-.5-3.6-1.4-4.5s-2.3-1.3-4.1-1.3c-3.4 0-7.7.2-12.8.6l-2.6.2-.3-6.2c5.8-1.4 11.2-2.1 16.1-2.1s8.4 1.1 10.6 3.2c2.1 2.2 3.2 5.5 3.2 10.1m-17.9 10c-3.7.3-5.5 2.3-5.5 6s1.6 5.5 4.9 5.5c2.7 0 5.5-.4 8.5-1.3l1.4-.5V459zM1189.3 477.7V421h8.7v56.7zM1227.7 477.7v-54.9h34.1v7.8h-25.2v18.5h20.9v7.8h-20.9v20.8zM1269.1 430.8v-9.2h8.7v9.2zm0 46.9v-40.1h8.7v40.1zM1297.1 477.7h-8.7v-40.1h8.7v2.5c3.9-2.2 7.6-3.4 11.1-3.4 5.3 0 9 1.5 10.9 4.5s2.9 8 2.9 14.9v21.5h-8.7v-21.2c0-4.3-.5-7.4-1.4-9.2q-1.35-2.7-5.7-2.7c-2.7 0-5.3.5-7.9 1.6l-1.2.5zM1361.8 449.9v18.3c.1 1.2.4 2 .9 2.6.6.6 1.4.9 2.6 1.1l-.2 6.6c-4.6 0-8.1-1-10.7-3q-6.45 3-12.9 3c-8 0-11.9-4.2-11.9-12.7 0-4.1 1.1-7 3.2-8.8 2.2-1.8 5.5-2.9 10-3.3l10.3-.9v-2.9c0-2.1-.5-3.6-1.4-4.5s-2.3-1.3-4.1-1.3c-3.4 0-7.7.2-12.8.6l-2.6.2-.3-6.2c5.8-1.4 11.2-2.1 16.1-2.1s8.4 1.1 10.6 3.2c2.1 2.2 3.2 5.5 3.2 10.1m-18 10c-3.7.3-5.5 2.3-5.5 6s1.6 5.5 4.9 5.5c2.7 0 5.5-.4 8.5-1.3l1.4-.5V459zM1381.5 477.7h-8.7v-40.1h8.7v2.5c3.9-2.2 7.6-3.4 11.1-3.4 5.3 0 9 1.5 10.9 4.5s2.9 8 2.9 14.9v21.5h-8.7v-21.2c0-4.3-.5-7.4-1.4-9.2q-1.35-2.7-5.7-2.7c-2.7 0-5.3.5-7.9 1.6l-1.2.5z" class="st4"/></g><g class="st3"><path d="M1431.5 436.7c2.8 0 6.2.4 10 1.1l2 .4-.3 6.9c-4.2-.4-7.3-.6-9.4-.6-4.1 0-6.8.9-8.2 2.7s-2.1 5.2-2.1 10.3c0 5 .7 8.5 2 10.4s4.1 2.9 8.3 2.9l9.4-.6.2 7c-5.4 1-9.5 1.4-12.2 1.4-6.1 0-10.4-1.6-12.9-4.9s-3.7-8.7-3.7-16.1c0-7.5 1.3-12.8 3.9-16 2.8-3.3 7.1-4.9 13-4.9" class="st4"/></g><g class="st3"><path d="m1480 470.4 2.2-.2.2 6.5q-9.15 1.8-16.2 1.8c-5.9 0-10.2-1.6-12.8-4.9q-3.9-4.95-3.9-15.6 0-21.3 17.4-21.3 16.8 0 16.8 18.3l-.6 6.2h-24.8c.1 3.3.8 5.7 2.2 7.3 1.4 1.5 4 2.3 7.8 2.3 3.8.1 7.7 0 11.7-.4m-4.8-15.8c0-4-.6-6.7-1.9-8.3s-3.4-2.4-6.4-2.4-5.2.8-6.5 2.5c-1.4 1.7-2.1 4.4-2.1 8.2z" class="st4"/></g><g class="st3"><path d="M936.2 619.9c-4.7 1-8.8 1.4-12.1 1.4s-6-.4-8.1-1.1c-2-.7-3.7-1.7-5-3s-2.3-3-3-5q-2.1-5.7-2.1-15.3c0-10.4 1.7-17.2 5-20.6 2.7-2.8 6.8-4.2 12.4-4.2 3.8 0 8.1.5 12.9 1.4l-.2 3.7c-4.8-.9-8.6-1.3-11.5-1.3s-5.1.3-6.7.9-2.9 1.4-3.9 2.5c-1 1-1.7 2.5-2.2 4.3-.9 3.1-1.4 7-1.4 11.7s.2 8.2.5 10.5.9 4.4 1.9 6.3c.9 1.9 2.3 3.2 4.1 4.1 1.8.8 4.3 1.2 7.4 1.2s7.1-.4 11.8-1.3zM967.9 596.5v18.4q.3 2.55 4.5 3l-.2 3.3c-3.5 0-6.1-.9-7.8-2.8-4.3 1.9-8.6 2.8-12.9 2.8-3.1 0-5.4-.9-7-2.6-1.6-1.8-2.4-4.3-2.4-7.6s.8-5.7 2.4-7.3 4.2-2.6 7.7-2.9l11.7-1.2v-3.2c0-2.6-.6-4.4-1.7-5.5s-2.6-1.7-4.5-1.7c-2.9 0-6.7.3-11.4.8l-2.1.2-.2-3.3c5-1 9.5-1.4 13.2-1.4 3.8 0 6.5.9 8.2 2.7 1.6 1.8 2.5 4.6 2.5 8.3m-21.6 14.4q0 6.9 5.7 6.9 2.55 0 5.4-.6c2-.4 3.5-.8 4.7-1.2l1.7-.6V603l-11.2 1.2c-2.2.2-3.9.8-4.8 1.9q-1.5 1.65-1.5 4.8" class="st4"/></g><g class="st3"><path d="M978.5 620.7v-34.4h4.1v5c1.7-1.2 3.8-2.3 6.2-3.4 2.5-1.1 4.7-1.8 6.8-2.2v4.1c-2 .4-4 1-6.2 1.9s-3.8 1.6-5 2.2l-1.8 1v25.8z" class="st4"/></g><g class="st3"><path d="M999.5 603.4q0-9.75 3.3-13.8c2.2-2.7 5.9-4.1 11.1-4.1s9 1.4 11.1 4.1q3.3 4.05 3.3 13.8t-3 13.8c-2 2.8-5.8 4.1-11.4 4.1s-9.4-1.4-11.4-4.1q-3-4.05-3-13.8m4.3-.1c0 5.4.6 9.2 1.9 11.3s4 3.1 8.3 3.1 7-1.1 8.3-3.2 1.9-5.9 1.9-11.2-.7-9.1-2.2-11.1c-1.4-2-4.1-3-8-3s-6.6 1-8 3c-1.5 1.9-2.2 5.6-2.2 11.1M1037.6 620.7V571h4.1v49.7zM1052.4 577.7v-5.2h4.1v5.2zm0 43v-34.4h4.1v34.4zM1070.8 620.7h-4.1v-34.4h4.1v2.5c3.9-2.2 7.6-3.2 11.2-3.2 4.6 0 7.6 1.2 9.2 3.6 1.5 2.4 2.3 6.9 2.3 13.3v18.1h-4.1v-17.9c0-5.3-.5-8.8-1.5-10.7s-3.2-2.8-6.5-2.8c-1.6 0-3.3.2-5.1.7s-3.1 1-4.1 1.5l-1.4.7zM1126.2 617.2l2.1-.2.1 3.4c-5.2.6-9.6 1-13.1 1-5 0-8.4-1.5-10.4-4.4s-3-7.3-3-13.3c0-12 4.7-18 14.2-18q6.75 0 10.2 3.9c2.2 2.6 3.4 6.7 3.4 12.4l-.1 3.3h-23.4c0 4.2.7 7.3 2.2 9.4 1.4 2 3.9 3.1 7.4 3.1 3.4-.2 6.9-.3 10.4-.6m-20.1-15.5h19.4c0-4.5-.7-7.8-2.2-9.7s-3.9-2.9-7.2-2.9q-4.95 0-7.5 3c-1.6 2-2.5 5.2-2.5 9.6M1167 575.9c-7.4 0-11.1 2.8-11.1 8.5 0 3.3.8 5.5 2.5 6.7 1.7 1.1 5 2.2 9.8 3.2s8.4 2.3 10.5 4 3.1 4.5 3.1 8.5c0 5.1-1.3 8.8-3.8 11.1s-6.3 3.4-11.2 3.4c-3.6 0-7.7-.3-12.5-1l-2.5-.3.5-3.6c6.3.8 11.1 1.2 14.6 1.2s6.1-.8 7.8-2.5c1.8-1.7 2.7-4.1 2.7-7.4s-.8-5.4-2.4-6.6-4.1-2.1-7.6-2.7-6-1.2-7.6-1.8c-1.6-.5-3.1-1.3-4.5-2.3s-2.4-2.2-3-3.8c-.6-1.5-.9-3.5-.9-5.8 0-8.3 5-12.5 15.1-12.5 3 0 7 .3 11.8 1l2.3.3-.3 3.6c-6.1-.8-10.6-1.2-13.3-1.2M1190.5 577.7v-5.2h4.1v5.2zm0 43v-34.4h4.1v34.4zM1208.9 620.7h-4.1v-34.4h4.1v2.5c3.9-2.2 7.6-3.2 11.2-3.2 4.6 0 7.6 1.2 9.2 3.6 1.5 2.4 2.3 6.9 2.3 13.3v18.1h-4.1v-17.9c0-5.3-.5-8.8-1.5-10.7s-3.2-2.8-6.5-2.8c-1.6 0-3.3.2-5.1.7s-3.1 1-4.1 1.5l-1.4.7zM1267.2 571v49.7h-4.1v-2.5c-3.6 2.2-7.3 3.2-11 3.2-1.7 0-3.2-.2-4.4-.6s-2.5-1.2-3.8-2.3c-2.6-2.3-3.9-6.9-3.9-13.7s1.1-11.7 3.3-14.7q3.3-4.5 11.1-4.5 3 0 8.7.9V571zm-17.7 46.1c.8.3 1.9.5 3.3.5s2.9-.3 4.7-.8 3.2-1 4.2-1.4l1.4-.8V590c-3.7-.6-6.5-.8-8.5-.8q-5.85 0-8.1 3.6c-1.5 2.4-2.2 6.1-2.2 11.1 0 5.9.9 9.7 2.7 11.5.8.8 1.7 1.4 2.5 1.7M1300.3 617.2l2.1-.2.1 3.4c-5.2.6-9.6 1-13.1 1-5 0-8.4-1.5-10.4-4.4s-3-7.3-3-13.3c0-12 4.7-18 14.2-18q6.75 0 10.2 3.9c2.2 2.6 3.4 6.7 3.4 12.4l-.1 3.3h-23.4c0 4.2.7 7.3 2.2 9.4 1.4 2 3.9 3.1 7.4 3.1 3.4-.2 6.9-.3 10.4-.6m-20.1-15.5h19.4c0-4.5-.7-7.8-2.2-9.7s-3.9-2.9-7.2-2.9q-4.95 0-7.5 3c-1.7 2-2.5 5.2-2.5 9.6M1312.2 620.7v-34.4h4.1v5c1.7-1.2 3.8-2.3 6.2-3.4 2.5-1.1 4.7-1.8 6.8-2.2v4.1c-2 .4-4 1-6.2 1.9s-3.8 1.6-5 2.2l-1.8 1v25.8zM1345.9 589.4c-5.4 0-8.1 2-8.1 5.8 0 1.8.6 3 1.8 3.8 1.2.7 3.9 1.5 8.1 2.2s7.2 1.7 8.9 2.9 2.6 3.6 2.6 7.1-1.1 6.1-3.4 7.7-5.5 2.4-9.9 2.4c-2.5 0-5.8-.3-9.8-1l-2-.3.3-3.6c5.1.8 9.1 1.2 11.8 1.2 2.8 0 4.9-.5 6.4-1.4 1.5-1 2.3-2.6 2.3-4.9s-.6-3.8-1.9-4.6q-1.95-1.2-8.1-2.1c-4.2-.6-7.1-1.6-8.8-2.8s-2.5-3.4-2.5-6.7 1.2-5.7 3.5-7.2 5.2-2.3 8.7-2.3c2.8 0 6.2.3 10.3.9l1.9.3-.1 3.6c-5-.7-9-1-12-1" class="st4"/></g></svg>