<svg xmlns="http://www.w3.org/2000/svg" xmlns:xlink="http://www.w3.org/1999/xlink" xml:space="preserve" id="Layer_1" x="0" y="0" viewBox="0 0 350 352"><style>.st3{enable-background:new}.st4{fill:#fff}</style><defs><path id="SVGID_1_" d="M0 0h350v352H0z"/></defs><clipPath id="SVGID_00000015341375547514121210000010556792124800375696_"><use xlink:href="#SVGID_1_" style="overflow:visible"/></clipPath><g style="clip-path:url(#SVGID_00000015341375547514121210000010556792124800375696_)"><linearGradient id="SVGID_00000062908924715213842350000012851327803544432309_" x1="-393.31" x2="-38.27" y1="6832.25" y2="6832.25" gradientTransform="matrix(1 0 0 -1 390.62 7009.89)" gradientUnits="userSpaceOnUse"><stop offset="0" style="stop-color:#c22801"/><stop offset="1" style="stop-color:#ea8b1d"/></linearGradient><path d="M352.4-1.7h-355V357h355z" style="fill:url(#SVGID_00000062908924715213842350000012851327803544432309_)"/><linearGradient id="SVGID_00000071529549814037264780000018177016601056222135_" x1="90.364" x2="432" y1="143.844" y2="143.844" gradientTransform="matrix(1 0 0 -1 0 354)" gradientUnits="userSpaceOnUse"><stop offset="0" style="stop-color:#c22801"/><stop offset="1" style="stop-color:#ea8b1d"/></linearGradient><path d="M268 385.2h42.1c4.7 0 8 1.6 8.1 6.6.1 5.8-3.7 7.3-8.8 7.2-20.1-.1-40.3 0-60.5 0h-36.3c-5.1 0-9.1-1.3-9.1-7.1.1-5.9 4.3-6.8 9.3-6.8 13.3.1 26.6 0 40.3 0V357c-9.8-.5-19.6-.6-29.4-1.7-42.1-4.3-78.6-21-109.5-49.3-5.3-4.9-5.4-8.1-.2-13.2 6-5.9 12.2-11.6 18.5-17.6-30.6-33.3-45.3-71.7-41.7-116 3.2-38.8 19.8-71.6 48.8-98.2 54.6-49.9 144.7-56.7 209.1 1.6 5.9-5.9 11.7-12 17.7-17.9 5.5-5.4 8.9-5.5 13.9 0 48.4 53.6 64.1 115.3 41.6 183.4-22.3 67.6-71.2 108.8-141.8 124.5-12 2.7-12.1 2.3-12.1 14.7zm-100-99c6.8 3.5 12.7 7.2 19.2 9.7 20.2 7.7 14.9 9.8 26.8-8.8 13.4-21.1 12.7-41.6-3.9-61.1-5.3-6.2-10.5-12.6-15-19.4-9.9-14.9-8.9-28.8 2.7-42.5 2.7-3.2 5.6-6.3 8.8-9 6.6-5.6 14-10.3 19.9-16.4 8.1-8.3 16.8-16.8 22.3-26.8 4.4-7.9 8.3-13.8 17.3-17 11.9-4.1 18.4-13.7 20.2-25.9 1-6.8 1-13.7 1.9-20.5.6-4.4-.7-6.2-5.1-7.4-53-14.2-99.2-2.3-138.7 35.1-1.8 1.7-3.1 4.5-3.5 6.9-1.8 11.1-3.1 22.3-4.7 33.4-3.8 26.4-1.4 50.8 21.5 69.3 1.6 1.2 2.5 5.5 1.5 7.1-10.1 17.8-6.5 33.9 5.1 49.5 10 13.4 12.2 27.7 3.7 43.8M302.4 49.5c-.3 4.3-.5 8.9-.8 13.4-1.4 17.3-7.6 32.6-23.8 41-9.1 4.8-14.7 10.9-19.3 19.7-7.5 14.4-20.6 24.1-33.2 34.1-5.7 4.6-11.5 9.3-16.3 14.8-8.6 9.7-8.8 16.5-1.5 27.1 4.1 6 8.9 11.7 13.4 17.5 20.5 26.5 21.9 48.6 4.9 77.5-2.1 3.5-4.2 6.9-6.6 10.9 22.1 3.9 42.8 2.5 62.1-3.2-1.2-10.8-3.2-20.6-3.1-30.4.2-12.9 7.6-23.2 15.6-32.8 7.7-9.3 10.7-19 7.7-31.2-4.1-16.7 3.7-30.9 20.3-36.1 10.7-3.3 22.4-4.2 33.6-4.4 8.6-.2 17.3 2.4 27.3 3.9-1.8-12.2-3.6-23.9-5.4-36-3.3 1.2-5.1 1.9-6.9 2.4-28.5 9.3-55.9-7.4-58.6-36.7-1-10.8.8-22 2.6-32.8 2.4-13.9 2.9-13.8-10.7-19-.1 0-.4.1-1.3.3M128.9 298.2c68.7 61.9 173.8 58.6 239.2-7.7 65.9-66.7 64.1-168.2 4.8-230.7l-14.4 12.9c54.1 62.7 45.7 147.2-1 198.3-24.3 26.5-54.2 43.2-90.1 48.7-46.8 7.1-88.4-5.3-124.8-35-4.7 4.8-9.2 9.1-13.7 13.5m167.4-2c.8.2 1 .3 1.2.3 41.8-16.5 76.6-57.2 82.9-106.4.2-1.4-1.8-4.2-3.3-4.7-15-4.7-30.2-6.4-45.7-2.5-14.2 3.5-19 11.6-15.5 25.6 2.8 11.2 1 21.5-5.2 31-2.9 4.4-5.9 8.7-9.2 12.7-11.2 13.6-12.1 28.3-5.2 44m-172.7-192c-35.4 55.3-19.2 136.3 33.4 172.7 2.9-6.3 3.3-12.5.2-18.7-2.2-4.5-4.7-8.9-7.6-13-10.7-15.6-13.4-32-6.7-49.9.6-1.7.1-4.7-1.1-5.9-18.2-18.9-23-41.5-20.2-66.5.7-5.8 1.2-11.7 2-18.7m206.3-39c-3.8 12.9-5.9 25.2-3.8 37.7 3.6 20.7 29.1 30.8 45.6 18-8.9-21.8-22.5-40.1-41.8-55.7" style="opacity:.32;fill:url(#SVGID_00000071529549814037264780000018177016601056222135_)"/></g><g class="st3"><path d="M89.8 108.2c-3.8 0-6.4-1.1-7.8-3.2q-2.1-3.15-2.1-10.5c0-4.9.7-8.3 2.1-10.4s4-3.1 7.8-3.1c2.3 0 4.8.3 7.5 1l-.2 3.5q-3.45-.6-6.9-.6c-2.3 0-3.9.7-4.7 2.1s-1.2 3.9-1.2 7.7.4 6.3 1.2 7.7 2.3 2.1 4.6 2.1 4.6-.2 7-.6l.1 3.5c-2.5.6-5 .8-7.4.8" class="st4"/></g><g class="st3"><path d="M102.1 90.7c1.3-1.7 3.5-2.5 6.6-2.5s5.3.8 6.6 2.5 2 4.2 2 7.5-.6 5.8-1.9 7.5-3.5 2.5-6.6 2.5-5.4-.8-6.6-2.5c-1.3-1.7-1.9-4.2-1.9-7.5s.5-5.8 1.8-7.5m3.1 12.5c.6 1 1.7 1.5 3.5 1.5 1.7 0 2.9-.5 3.5-1.5s.9-2.7.9-5-.3-4-.9-4.9c-.6-1-1.8-1.5-3.4-1.5s-2.8.5-3.4 1.5-.9 2.6-.9 4.9c-.2 2.3.1 4 .7 5M125.5 107.8h-4.2V88.6h4.1v1.2c1.9-1.1 3.6-1.6 5.3-1.6 2.6 0 4.3.7 5.2 2.2.9 1.4 1.4 3.8 1.4 7.2v10.3h-4.1V97.7c0-2.1-.2-3.5-.7-4.4-.4-.9-1.4-1.3-2.7-1.3s-2.6.3-3.8.8l-.6.2v14.8zM147.3 92.2v15.6h-4.1V92.2H141v-3.6h2.2v-1.2c0-2.7.4-4.6 1.2-5.6q1.2-1.5 4.2-1.5l4.1.4v3.4c-1.3-.1-2.3-.1-3.1-.1s-1.4.2-1.7.7-.5 1.4-.5 2.7v1.2h5.1v3.6z" class="st4"/></g><g class="st3"><path d="M155.6 107.8V88.6h4.1V91c2.2-1.4 4.3-2.3 6.5-2.7v4.2c-2.2.4-4.1 1-5.6 1.7l-.8.3v13.4h-4.2z" class="st4"/></g><g class="st3"><path d="M170.3 90.7c1.3-1.7 3.5-2.5 6.6-2.5s5.3.8 6.6 2.5 2 4.2 2 7.5-.6 5.8-1.9 7.5-3.5 2.5-6.6 2.5-5.4-.8-6.6-2.5c-1.3-1.7-1.9-4.2-1.9-7.5s.5-5.8 1.8-7.5m3.1 12.5c.6 1 1.7 1.5 3.5 1.5 1.7 0 2.9-.5 3.5-1.5s.9-2.7.9-5-.3-4-.9-4.9c-.6-1-1.8-1.5-3.4-1.5s-2.8.5-3.4 1.5-.9 2.6-.9 4.9c-.2 2.3.1 4 .7 5M193.8 107.8h-4.2V88.6h4.1v1.2c1.9-1.1 3.6-1.6 5.3-1.6 2.6 0 4.3.7 5.2 2.2.9 1.4 1.4 3.8 1.4 7.2v10.3h-4.1V97.7c0-2.1-.2-3.5-.7-4.4-.4-.9-1.4-1.3-2.7-1.3s-2.6.3-3.8.8l-.6.2v14.8zM220.8 92.2h-5.3v8.4c0 1.6.1 2.6.3 3.1s.8.8 1.8.8l3.1-.1.2 3.3c-1.7.3-3 .5-3.9.5q-3.3 0-4.5-1.5c-.8-1-1.2-2.9-1.2-5.6v-8.9h-2.5v-3.6h2.5V83h4.1v5.6h5.3v3.6zM224.2 85.4V81h4.2v4.4zm0 22.4V88.6h4.2v19.2zM237.6 107.8h-4.2V88.6h4.1v1.2c1.9-1.1 3.6-1.6 5.3-1.6 2.6 0 4.3.7 5.2 2.2.9 1.4 1.4 3.8 1.4 7.2v10.3h-4.1V97.7c0-2.1-.2-3.5-.7-4.4-.4-.9-1.4-1.3-2.7-1.3s-2.6.3-3.8.8l-.6.2v14.8zM271.2 110.4c0 4.2-3 6.3-9.1 6.3-2.9 0-5.1-.4-6.5-1.2s-2.1-2.2-2.1-4.3c0-.9.2-1.8.7-2.4.5-.7 1.2-1.4 2.2-2.2-.8-.6-1.3-1.5-1.3-2.8 0-.5.3-1.3 1-2.5l.3-.6c-1.8-1.1-2.8-3-2.8-5.8q0-3.45 2.1-5.1c1.4-1.1 3.2-1.6 5.6-1.6 1.1 0 2.2.1 3.3.4l.6.1 5.9-.2V92l-3.2-.2c.7.9 1 1.9 1 3.1 0 2.5-.6 4.2-1.9 5.2s-3.2 1.4-5.9 1.4c-.7 0-1.2-.1-1.7-.2-.4.9-.5 1.5-.5 2s.2.8.7 1 1.6.3 3.4.3c3 0 5.1.4 6.2 1.2 1.4.9 2 2.4 2 4.6m-13.6.4c0 .9.4 1.5 1.1 1.9s1.9.6 3.7.6c3.1 0 4.6-.9 4.6-2.6 0-1-.3-1.6-.8-1.9s-1.6-.4-3.3-.4l-3.8-.2c-.6.5-1 .9-1.2 1.3-.2.3-.3.7-.3 1.3m1.1-13.3c.6.5 1.5.8 2.7.8 1.3 0 2.2-.3 2.7-.8s.8-1.4.8-2.6-.3-2-.8-2.6c-.6-.5-1.5-.8-2.7-.8-2.4 0-3.5 1.1-3.5 3.4 0 1.2.3 2.1.8 2.6" class="st4"/></g><g class="st3"><path d="M51.1 150.8v-11.3H39.7v11.3h-4.3v-26.3h4.3v11.2H51v-11.2h4.3v26.3zM75.1 137.6v8.7c0 .6.2 1 .4 1.2.3.3.7.4 1.2.5l-.1 3.2c-2.2 0-3.9-.5-5.1-1.4-2 .9-4.1 1.4-6.2 1.4-3.8 0-5.7-2-5.7-6.1 0-1.9.5-3.3 1.6-4.2s2.6-1.4 4.8-1.6l4.9-.4v-1.4c0-1-.2-1.7-.7-2.1-.4-.4-1.1-.6-2-.6-1.6 0-3.7.1-6.1.3l-1.2.1-.2-3c2.8-.7 5.3-1 7.7-1s4 .5 5.1 1.5 1.6 2.7 1.6 4.9m-8.6 4.7c-1.8.2-2.6 1.1-2.6 2.9s.8 2.6 2.3 2.6c1.3 0 2.6-.2 4.1-.6l.7-.2v-5.1zM80.3 150.8v-19.2h4.1v2.3c2.2-1.4 4.3-2.3 6.5-2.7v4.2c-2.2.4-4.1 1-5.6 1.7l-.8.3v13.4zM98.3 150.8h-4.2v-19.2h4.1v1.2c1.8-1.1 3.5-1.6 5-1.6 2.2 0 3.8.6 4.9 1.9 2.3-1.3 4.6-1.9 6.9-1.9s3.9.7 4.9 2.1c.9 1.4 1.4 3.8 1.4 7.2v10.3h-4.1v-10.2c0-2.1-.2-3.5-.6-4.4s-1.3-1.3-2.6-1.3c-1.1 0-2.4.3-3.7.8l-.7.3c.2.5.3 2.1.3 4.9v9.9h-4.1V141c0-2.3-.2-3.8-.6-4.7s-1.3-1.3-2.7-1.3c-1.3 0-2.5.3-3.6.8l-.6.2zM131.3 135.2v15.6h-4.1v-15.6H125v-3.6h2.2v-1.2c0-2.7.4-4.6 1.2-5.6q1.2-1.5 4.2-1.5l4.1.4v3.4c-1.3-.1-2.3-.1-3.1-.1s-1.4.2-1.7.7-.5 1.4-.5 2.7v1.2h5.1v3.6zM151.2 131.7h4.1v19.2h-4.1v-1.2c-1.9 1.1-3.6 1.6-5.2 1.6-2.6 0-4.4-.7-5.3-2.1s-1.3-3.9-1.3-7.5v-10h4.2v10c0 2.3.2 3.8.6 4.6s1.3 1.2 2.7 1.2 2.6-.3 3.8-.8l.6-.2v-14.8zM160.6 150.8v-27.1h4.2v27.1z" class="st4"/></g><g class="st3"><path d="M188.6 142.7h-5.4v8.2H179v-26.3h9.6c6 0 8.9 2.9 8.9 8.8 0 3-.7 5.3-2.2 6.9s-3.7 2.4-6.7 2.4m-5.3-3.7h5.3c3.1 0 4.6-1.9 4.6-5.6 0-1.8-.4-3.1-1.1-3.9s-1.9-1.2-3.5-1.2h-5.3z" class="st4"/></g><g class="st3"><path d="M215.2 137.6v8.7c0 .6.2 1 .4 1.2.3.3.7.4 1.2.5l-.1 3.2c-2.2 0-3.9-.5-5.1-1.4-2 .9-4.1 1.4-6.2 1.4-3.8 0-5.7-2-5.7-6.1 0-1.9.5-3.3 1.6-4.2s2.6-1.4 4.8-1.6l4.9-.4v-1.4c0-1-.2-1.7-.7-2.1-.4-.4-1.1-.6-2-.6-1.6 0-3.7.1-6.1.3l-1.2.1-.2-3c2.8-.7 5.3-1 7.7-1s4 .5 5.1 1.5 1.6 2.7 1.6 4.9m-8.6 4.7c-1.8.2-2.6 1.1-2.6 2.9s.8 2.6 2.3 2.6c1.3 0 2.6-.2 4.1-.6l.7-.2v-5.1zM230.7 135.2h-5.3v8.4c0 1.6.1 2.6.3 3.1s.8.8 1.8.8l3.1-.1.2 3.3c-1.7.3-3 .5-3.9.5q-3.3 0-4.5-1.5c-.8-1-1.2-2.9-1.2-5.6v-8.9h-2.5v-3.6h2.5V126h4.1v5.6h5.3v3.6zM244.4 135.2h-5.3v8.4c0 1.6.1 2.6.3 3.1s.8.8 1.8.8l3.1-.1.2 3.3c-1.7.3-3 .5-3.9.5q-3.3 0-4.5-1.5c-.8-1-1.2-2.9-1.2-5.6v-8.9h-2.5v-3.6h2.5V126h4.1v5.6h5.3v3.6zM261.5 147.4l1.1-.1.1 3.1c-2.9.6-5.5.9-7.7.9-2.8 0-4.9-.8-6.1-2.3-1.2-1.6-1.9-4.1-1.9-7.5 0-6.8 2.8-10.2 8.3-10.2 5.4 0 8.1 2.9 8.1 8.8l-.3 3h-11.9c0 1.6.4 2.7 1 3.5.7.7 1.9 1.1 3.7 1.1 1.8-.1 3.7-.2 5.6-.3m-2.3-7.6c0-1.9-.3-3.2-.9-4s-1.6-1.1-3-1.1-2.5.4-3.1 1.2-1 2.1-1 3.9zM267.3 150.8v-19.2h4.1v2.3c2.2-1.4 4.3-2.3 6.5-2.7v4.2c-2.2.4-4.1 1-5.6 1.7l-.8.3v13.4zM285.4 150.8h-4.2v-19.2h4.1v1.2c1.9-1.1 3.6-1.6 5.3-1.6 2.6 0 4.3.7 5.2 2.2.9 1.4 1.4 3.8 1.4 7.2v10.3h-4.1v-10.2c0-2.1-.2-3.5-.7-4.4-.4-.9-1.4-1.3-2.7-1.3s-2.6.3-3.8.8l-.6.2v14.8zM315.4 135.6q-4.5-.6-6.6-.6c-1.4 0-2.3.2-2.8.5s-.8.8-.8 1.5.3 1.2.9 1.5 1.9.6 4.1 1c2.1.4 3.6 1 4.5 1.7.9.8 1.3 2.2 1.3 4.2s-.6 3.5-1.9 4.4-3.2 1.4-5.7 1.4c-1.6 0-3.5-.2-5.9-.7l-1.2-.2.2-3.5q4.65.6 6.6.6c1.4 0 2.3-.2 2.9-.5s.9-.9.9-1.6-.3-1.3-.8-1.6-1.9-.6-3.9-1c-2.1-.3-3.6-.9-4.6-1.6s-1.5-2.1-1.5-4.1.7-3.4 2-4.4 3.1-1.5 5.2-1.5q2.4 0 6 .6l1.2.2z" class="st4"/></g><g class="st3"><path d="M37.4 171.4V167h4.2v4.4zm0 22.4v-19.2h4.2v19.2zM50.9 193.8h-4.2v-19.2h4.1v1.2c1.9-1.1 3.6-1.6 5.3-1.6 2.6 0 4.3.7 5.2 2.2.9 1.4 1.4 3.8 1.4 7.2v10.3h-4.1v-10.2c0-2.1-.2-3.5-.7-4.4-.4-.9-1.4-1.3-2.7-1.3s-2.6.3-3.8.8l-.6.2v14.8zM85.6 193.8h-9.1v-26.3h9.1c4 0 6.8 1 8.3 3.1 1.5 2 2.2 5.3 2.2 9.6 0 2.2-.1 4.1-.4 5.7-.3 1.5-.8 2.9-1.6 4.2-1.4 2.5-4.2 3.7-8.5 3.7m6.1-13.5q0-4.8-1.2-6.9c-.8-1.4-2.4-2.1-4.9-2.1h-4.8v18.8h4.8c2.5 0 4.2-.9 5.1-2.8.4-.9.7-2 .8-3 .2-1.1.2-2.5.2-4M100.6 171.4V167h4.2v4.4zm0 22.4v-19.2h4.2v19.2zM126.6 196.4c0 4.2-3 6.3-9.1 6.3-2.9 0-5.1-.4-6.5-1.2s-2.1-2.2-2.1-4.3c0-.9.2-1.8.7-2.4.5-.7 1.2-1.4 2.2-2.2-.8-.6-1.3-1.5-1.3-2.8 0-.5.3-1.3 1-2.5l.3-.6c-1.8-1.1-2.8-3-2.8-5.8q0-3.45 2.1-5.1c1.4-1.1 3.2-1.6 5.6-1.6 1.1 0 2.2.1 3.3.4l.6.1 5.9-.2v3.4l-3.2-.2c.7.9 1 1.9 1 3.1 0 2.5-.6 4.2-1.9 5.2s-3.2 1.4-5.9 1.4c-.7 0-1.2-.1-1.7-.2-.4.9-.5 1.5-.5 2s.2.8.7 1 1.6.3 3.4.3c3 0 5.1.4 6.2 1.2 1.5 1 2 2.5 2 4.7m-13.6.4c0 .9.4 1.5 1.1 1.9s1.9.6 3.7.6c3.1 0 4.6-.9 4.6-2.6 0-1-.3-1.6-.8-1.9s-1.6-.4-3.3-.4l-3.8-.2c-.6.5-1 .9-1.2 1.3s-.3.8-.3 1.3m1.2-13.3c.6.5 1.5.8 2.7.8 1.3 0 2.2-.3 2.7-.8s.8-1.4.8-2.6-.3-2-.8-2.6c-.6-.5-1.5-.8-2.7-.8-2.4 0-3.5 1.1-3.5 3.4 0 1.2.2 2.1.8 2.6M130 171.4V167h4.2v4.4zm0 22.4v-19.2h4.2v19.2zM149.5 178.2h-5.3v8.4c0 1.6.1 2.6.3 3.1s.8.8 1.8.8l3.1-.1.2 3.3c-1.7.3-3 .5-3.9.5q-3.3 0-4.5-1.5c-.8-1-1.2-2.9-1.2-5.6v-8.9h-2.5v-3.6h2.5V169h4.1v5.6h5.3v3.6zM167.1 180.6v8.7c0 .6.2 1 .4 1.2.3.3.7.4 1.2.5l-.1 3.2c-2.2 0-3.9-.5-5.1-1.4-2 .9-4.1 1.4-6.2 1.4-3.8 0-5.7-2-5.7-6.1 0-1.9.5-3.3 1.6-4.2s2.6-1.4 4.8-1.6l4.9-.4v-1.4c0-1-.2-1.7-.7-2.1-.4-.4-1.1-.6-2-.6-1.6 0-3.7.1-6.1.3l-1.2.1-.2-3c2.8-.7 5.3-1 7.7-1s4 .5 5.1 1.5 1.6 2.7 1.6 4.9m-8.5 4.7c-1.8.2-2.6 1.1-2.6 2.9s.8 2.6 2.3 2.6c1.3 0 2.6-.2 4.1-.6l.7-.2v-5.1zM172.6 193.8v-27.1h4.2v27.1zM191 193.8v-26.3h16.3v3.7h-12v8.9h10v3.7h-10v10zM210.8 171.4V167h4.2v4.4zm0 22.4v-19.2h4.2v19.2zM224.2 193.8H220v-19.2h4.1v1.2c1.9-1.1 3.6-1.6 5.3-1.6 2.6 0 4.3.7 5.2 2.2.9 1.4 1.4 3.8 1.4 7.2v10.3h-4v-10.2c0-2.1-.2-3.5-.7-4.4-.4-.9-1.4-1.3-2.7-1.3s-2.6.3-3.8.8l-.6.2zM255.2 180.6v8.7c0 .6.2 1 .4 1.2s.7.4 1.2.5l-.1 3.2c-2.2 0-3.9-.5-5.1-1.4-2 .9-4.1 1.4-6.2 1.4-3.8 0-5.7-2-5.7-6.1 0-1.9.5-3.3 1.6-4.2s2.6-1.4 4.8-1.6l4.9-.4v-1.4c0-1-.2-1.7-.7-2.1-.4-.4-1.1-.6-2-.6-1.6 0-3.7.1-6.1.3l-1.2.1-.2-3c2.8-.7 5.3-1 7.7-1s4 .5 5.1 1.5 1.6 2.7 1.6 4.9m-8.6 4.7c-1.8.2-2.6 1.1-2.6 2.9s.8 2.6 2.3 2.6c1.3 0 2.6-.2 4.1-.6l.7-.2v-5.1zM264.6 193.8h-4.2v-19.2h4.1v1.2c1.9-1.1 3.6-1.6 5.3-1.6 2.6 0 4.3.7 5.2 2.2.9 1.4 1.4 3.8 1.4 7.2v10.3h-4.1v-10.2c0-2.1-.2-3.5-.7-4.4-.4-.9-1.4-1.3-2.7-1.3s-2.6.3-3.8.8l-.6.2v14.8z" class="st4"/></g><g class="st3"><path d="M288.5 174.2c1.4 0 3 .2 4.8.5l1 .2-.2 3.3q-3-.3-4.5-.3c-1.9 0-3.2.4-3.9 1.3s-1 2.5-1 4.9.3 4.1 1 5c.6.9 2 1.4 4 1.4l4.5-.3.1 3.3c-2.6.5-4.5.7-5.8.7-2.9 0-5-.8-6.2-2.4s-1.8-4.1-1.8-7.7.6-6.1 1.9-7.6 3.3-2.3 6.1-2.3" class="st4"/></g><g class="st3"><path d="m311.8 190.4 1.1-.1.1 3.1c-2.9.6-5.5.9-7.7.9-2.8 0-4.9-.8-6.1-2.3-1.2-1.6-1.9-4.1-1.9-7.5 0-6.8 2.8-10.2 8.3-10.2 5.4 0 8.1 2.9 8.1 8.8l-.3 3h-11.9c0 1.6.4 2.7 1 3.5.7.7 1.9 1.1 3.7 1.1 1.8-.1 3.7-.2 5.6-.3m-2.3-7.6c0-1.9-.3-3.2-.9-4s-1.6-1.1-3-1.1-2.5.4-3.1 1.2-1 2.1-1 3.9z" class="st4"/></g><g class="st3"><path d="M81.3 261.8c-2.3.5-4.2.7-5.8.7s-2.9-.2-3.9-.5-1.8-.8-2.4-1.4-1.1-1.4-1.4-2.4c-.7-1.8-1-4.2-1-7.3 0-5 .8-8.2 2.4-9.8 1.3-1.3 3.3-2 5.9-2 1.8 0 3.9.2 6.2.7l-.1 1.8c-2.3-.4-4.1-.6-5.5-.6s-2.5.1-3.2.4q-1.2.45-1.8 1.2c-.5.5-.8 1.2-1.1 2.1-.4 1.5-.7 3.4-.7 5.6s.1 3.9.2 5q.3 1.65.9 3c.4.9 1.1 1.5 1.9 1.9.9.4 2 .6 3.6.6s3.4-.2 5.7-.6zM96.5 250.6v8.8c.1.8.8 1.3 2.1 1.4l-.1 1.6c-1.7 0-2.9-.4-3.7-1.3-2.1.9-4.1 1.3-6.2 1.3-1.5 0-2.6-.4-3.4-1.3-.8-.8-1.2-2.1-1.2-3.6 0-1.6.4-2.7 1.2-3.5s2-1.2 3.7-1.4l5.6-.6v-1.5c0-1.2-.3-2.1-.8-2.7-.5-.5-1.3-.8-2.2-.8-1.4 0-3.2.1-5.5.4l-1 .1-.1-1.6c2.4-.5 4.5-.7 6.3-.7s3.1.4 3.9 1.3c1 1 1.4 2.3 1.4 4.1m-10.4 6.9q0 3.3 2.7 3.3c.8 0 1.7-.1 2.6-.3s1.7-.4 2.2-.6l.8-.3v-6l-5.4.6c-1.1.1-1.8.4-2.3.9-.3.6-.6 1.4-.6 2.4" class="st4"/></g><g class="st3"><path d="M101.6 262.2v-16.5h1.9v2.4c.8-.6 1.8-1.1 3-1.6s2.3-.9 3.2-1.1v2q-1.35.3-3 .9c-1 .4-1.8.8-2.4 1.1l-.9.5v12.3z" class="st4"/></g><g class="st3"><path d="M111.6 253.9c0-3.1.5-5.3 1.6-6.6 1-1.3 2.8-1.9 5.3-1.9s4.3.6 5.3 1.9 1.6 3.5 1.6 6.6-.5 5.3-1.4 6.6c-1 1.3-2.8 2-5.4 2-2.7 0-4.5-.7-5.5-2q-1.5-1.95-1.5-6.6m2.1 0q0 3.9.9 5.4c.6 1 1.9 1.5 4 1.5 2 0 3.4-.5 4-1.5q.9-1.5.9-5.4c0-2.6-.3-4.3-1-5.3s-2-1.4-3.8-1.4c-1.9 0-3.1.5-3.8 1.4-.9.9-1.2 2.7-1.2 5.3M129.9 262.2v-23.8h1.9v23.8zM136.9 241.6v-2.5h1.9v2.5zm0 20.6v-16.5h1.9v16.5zM145.8 262.2h-1.9v-16.5h1.9v1.2q2.7-1.5 5.4-1.5c2.2 0 3.7.6 4.4 1.7.7 1.2 1.1 3.3 1.1 6.4v8.7h-2v-8.6c0-2.5-.2-4.2-.7-5.1s-1.5-1.3-3.1-1.3q-1.2 0-2.4.3c-.8.2-1.5.5-2 .7l-.7.3zM172.3 260.5l1-.1.1 1.6c-2.5.3-4.6.5-6.3.5-2.4 0-4-.7-5-2.1-.9-1.4-1.4-3.5-1.4-6.4 0-5.8 2.3-8.6 6.8-8.6 2.2 0 3.8.6 4.9 1.9 1.1 1.2 1.6 3.2 1.6 5.9l-.1 1.6h-11.2c0 2 .3 3.5 1 4.5q1.05 1.5 3.6 1.5c2.55 0 3.3-.1 5-.3m-9.6-7.4h9.3c0-2.2-.4-3.7-1.1-4.6s-1.9-1.4-3.4-1.4c-1.6 0-2.8.5-3.6 1.4-.8 1-1.2 2.5-1.2 4.6M191.8 240.7c-3.5 0-5.3 1.3-5.3 4 0 1.6.4 2.6 1.2 3.2.8.5 2.4 1.1 4.7 1.5 2.3.5 4 1.1 5 1.9s1.5 2.2 1.5 4.1c0 2.5-.6 4.2-1.8 5.3s-3 1.6-5.3 1.6c-1.7 0-3.7-.2-6-.5l-1.2-.2.2-1.7c3 .4 5.3.6 7 .6 1.6 0 2.9-.4 3.8-1.2s1.3-2 1.3-3.5-.4-2.6-1.1-3.2c-.8-.6-2-1-3.6-1.3-1.7-.3-2.9-.6-3.6-.8-.8-.3-1.5-.6-2.2-1.1s-1.1-1.1-1.4-1.8-.4-1.7-.4-2.8q0-6 7.2-6c1.4 0 3.3.2 5.7.5l1.1.2-.2 1.7c-3.2-.3-5.3-.5-6.6-.5M203 241.6v-2.5h1.9v2.5zm0 20.6v-16.5h1.9v16.5zM211.8 262.2h-1.9v-16.5h1.9v1.2q2.7-1.5 5.4-1.5c2.2 0 3.7.6 4.4 1.7.7 1.2 1.1 3.3 1.1 6.4v8.7h-2v-8.6c0-2.5-.2-4.2-.7-5.1s-1.5-1.3-3.1-1.3q-1.2 0-2.4.3c-.8.2-1.5.5-2 .7l-.7.3zM239.8 238.4v23.8h-2V261c-1.7 1-3.5 1.5-5.3 1.5q-1.2 0-2.1-.3c-.6-.2-1.2-.6-1.8-1.1-1.3-1.1-1.9-3.3-1.9-6.6s.5-5.6 1.6-7 2.8-2.1 5.3-2.1c1 0 2.3.1 4.1.4v-7.4zm-8.5 22.1c.4.2.9.2 1.6.2.6 0 1.4-.1 2.2-.4.8-.2 1.5-.5 2-.7l.7-.4v-11.8c-1.8-.3-3.1-.4-4.1-.4-1.9 0-3.2.6-3.9 1.7s-1.1 2.9-1.1 5.3c0 2.8.4 4.6 1.3 5.5.5.6.9.8 1.3 1M255.6 260.5l1-.1.1 1.6c-2.5.3-4.6.5-6.3.5-2.4 0-4-.7-5-2.1-.9-1.4-1.4-3.5-1.4-6.4 0-5.8 2.3-8.6 6.8-8.6 2.2 0 3.8.6 4.9 1.9 1.1 1.2 1.6 3.2 1.6 5.9l-.1 1.6H246c0 2 .3 3.5 1 4.5s1.9 1.5 3.6 1.5 3.3-.1 5-.3m-9.7-7.4h9.3c0-2.2-.4-3.7-1.1-4.6s-1.9-1.4-3.4-1.4-2.8.5-3.6 1.4c-.8 1-1.2 2.5-1.2 4.6M261.2 262.2v-16.5h1.9v2.4c.8-.6 1.8-1.1 3-1.6s2.3-.9 3.2-1.1v2q-1.35.3-3 .9c-1 .4-1.8.8-2.4 1.1l-.9.5v12.3zM277.4 247.2c-2.6 0-3.9.9-3.9 2.8q0 1.35.9 1.8c.6.4 1.9.7 3.9 1s3.4.8 4.2 1.4 1.2 1.7 1.2 3.4-.5 2.9-1.6 3.7-2.7 1.2-4.7 1.2c-1.2 0-2.8-.2-4.7-.5l-1-.1.1-1.7c2.5.4 4.3.6 5.7.6 1.3 0 2.3-.2 3.1-.7s1.1-1.2 1.1-2.3-.3-1.8-.9-2.2-1.9-.7-3.9-1-3.4-.7-4.2-1.3-1.2-1.6-1.2-3.2.6-2.7 1.7-3.5 2.5-1.1 4.1-1.1c1.3 0 3 .1 4.9.4l.9.1-.1 1.7c-2.3-.3-4.2-.5-5.6-.5" class="st4"/></g></svg>