<svg xmlns="http://www.w3.org/2000/svg" fill="none" viewBox="0 0 2027 1106"><path fill="url(#a)" d="M2027 0H0v1106h2027V0Z"/><path fill="#6500D9" d="M1126.57 204.19a342.593 342.593 0 0 0-242.359 100.452c-64.285 64.309-100.393 151.554-100.393 242.506 0 90.953 36.108 178.198 100.393 242.507a342.628 342.628 0 0 0 242.359 100.452c90.9 0 178.1-36.129 242.37-100.452 64.28-64.309 100.39-151.554 100.39-242.507-.05-90.94-36.18-178.146-100.46-242.455-64.27-64.31-151.42-100.465-242.31-100.516l.01.013Zm0 625.875c-74.98 0-146.891-29.806-199.931-82.864-53.026-53.057-82.801-125.012-82.801-200.053a283.053 283.053 0 0 1 82.801-200.052 282.677 282.677 0 0 1 144.781-77.416 282.428 282.428 0 0 1 163.35 16.103 282.734 282.734 0 0 1 126.9 104.198c31.07 46.518 47.64 101.227 47.64 157.18a283.382 283.382 0 0 1-82.93 199.926 283.096 283.096 0 0 1-199.81 82.978Zm-44.81-357.779a44.858 44.858 0 0 0 13.12 31.71 44.848 44.848 0 0 0 31.69 13.131c8.86.127 17.68 1.41 26.21 3.81a104.26 104.26 0 0 1 68.15 55.407 104.366 104.366 0 0 1 1.66 87.842 104.247 104.247 0 0 1-66 57.947v13.614a30.033 30.033 0 0 1-15 26.008 30.037 30.037 0 0 1-30.02 0c-9.29-5.359-15-15.277-15-26.008v-13.614a104.553 104.553 0 0 1-53.98-37.654 104.695 104.695 0 0 1-20.85-62.455c0-7.963 3.16-15.608 8.78-21.234 5.64-5.625 13.27-8.8 21.22-8.8 7.96 0 15.6 3.162 21.22 8.8a30.033 30.033 0 0 1 8.8 21.234 45.073 45.073 0 0 0 13.1 31.964 44.961 44.961 0 0 0 31.85 13.284 45.014 45.014 0 0 0 31.91-13.195c8.47-8.458 13.2-19.951 13.19-31.913a45.151 45.151 0 0 0-13.28-31.889 44.995 44.995 0 0 0-31.94-13.105c-8.86-.127-17.68-1.41-26.21-3.81a104.243 104.243 0 0 1-68.14-55.407 104.33 104.33 0 0 1-1.67-87.842 104.271 104.271 0 0 1 66-57.947v-12.42a30.048 30.048 0 0 1 15-26.008 30.037 30.037 0 0 1 30.02 0 30.027 30.027 0 0 1 15 26.008v12.42a104.654 104.654 0 0 1 54.11 37.603 104.79 104.79 0 0 1 20.92 62.506 30.22 30.22 0 0 1-8.84 21.17 30.133 30.133 0 0 1-21.16 8.851 29.824 29.824 0 0 1-21.28-8.737 29.85 29.85 0 0 1-8.74-21.297 45.04 45.04 0 0 0-12.04-33.78 45.013 45.013 0 0 0-32.88-14.274 44.997 44.997 0 0 0-32.88 14.274 45.04 45.04 0 0 0-12.04 33.78v.026Zm768.97 114.916a111.262 111.262 0 0 0-33.82 5.397l-65.43-98.102a30.045 30.045 0 0 0-24.61-13.614h-124.66a470.85 470.85 0 0 0-30.01-112.516h126.46a30.108 30.108 0 0 0 16.38-4.927 30.01 30.01 0 0 0 11.03-13.093l42.42-95.906c5.04.711 10.12 1.105 15.2 1.207 29.25 0 57.3-11.633 77.97-32.308a110.34 110.34 0 0 0 32.29-78.012c0-29.259-11.61-57.325-32.29-78.012a110.199 110.199 0 0 0-77.97-32.307c-29.25 0-57.27 11.633-77.96 32.307a110.342 110.342 0 0 0-32.29 78.012 108.958 108.958 0 0 0 15.81 56.462 110.357 110.357 0 0 0 24.22 28.434l-34.42 78.088h-136.07c-2.8-4.801-5.39-9.614-8.4-14.211a480.21 480.21 0 0 0-223.63-190.185 480.013 480.013 0 0 0-292.47-24.472A480.183 480.183 0 0 0 766.392 229.83l-4.607 5.397h-70.833l-34.814-43.851a109.936 109.936 0 0 0 20.015-64.462 110.15 110.15 0 0 0-37.631-82.71 110.008 110.008 0 0 0-86.965-26.237 110.045 110.045 0 0 0-77.052 48.117 110.19 110.19 0 0 0-14.672 89.683 110.098 110.098 0 0 0 57.697 70.177 109.976 109.976 0 0 0 90.785 2.87l43.622 55.064a30.221 30.221 0 0 0 23.607 11.417h41.426a478.81 478.81 0 0 0-65.426 321.941h-100.05l-45.221-56.664c2.195-3.201 4.201-6.401 6.206-9.804a110.335 110.335 0 0 0 6.993-92.629 110.309 110.309 0 0 0-66.188-65.135 110.163 110.163 0 0 0-92.447 8.546c-28.049 16.319-47.493 44.181-53.154 76.158a110.388 110.388 0 0 0 23.836 89.785 110.243 110.243 0 0 0 83.918 39.736c14.938 0 29.724-3.06 43.419-9.004l54.829 67.675a30.012 30.012 0 0 0 23.403 11.214H664.35a475.093 475.093 0 0 0 58.42 130.346h-62.228a29.831 29.831 0 0 0-18.01 6.21l-89.845 68.271a110.17 110.17 0 0 0-93.349-18.731c-32.351 8.216-59.233 30.656-73.13 61.008a110.367 110.367 0 0 0 1.637 95.262c14.926 29.86 42.568 51.36 75.174 58.45 32.605 7.1 66.683-.96 92.65-21.93a110.358 110.358 0 0 0 41.033-85.963 108.146 108.146 0 0 0-6.397-36.841l-1.193-3.403 81.647-62.265h97.651l1.396 1.803A480.256 480.256 0 0 0 999.58 1011.03a480.05 480.05 0 0 0 269.87-4.7 480.267 480.267 0 0 0 224.71-149.609h100.05l49.01 55.864c-2.19 3.607-4.4 7.416-6.4 11.214a110.916 110.916 0 0 0 .79 100.091c16.15 31.35 46.23 53.14 81.01 58.71 34.8 5.58 70.18-5.74 95.29-30.47 25.12-24.74 36.99-59.958 31.95-94.856-5.03-34.898-26.32-65.338-57.39-81.974a110.8 110.8 0 0 0-100.01-2.35l-58.03-66.074a30.656 30.656 0 0 0-22.61-10.211h-70.44c44.54-73.237 68.51-157.141 69.44-242.862v-12.814h103.86l56.22 84.895a112.73 112.73 0 0 0-26.41 71.472 110.376 110.376 0 0 0 32.18 78.089 110.15 110.15 0 0 0 77.94 32.421 110.261 110.261 0 0 0 78.03-32.231 110.322 110.322 0 0 0 32.36-78.012 110.253 110.253 0 0 0-32.28-78.05 110.188 110.188 0 0 0-77.97-32.333h.02l-.04-.038Zm-67.04-492.125c13.33 0 26.1 5.296 35.53 14.719a50.268 50.268 0 0 1 0 71.065 50.238 50.238 0 0 1-35.53 14.719 50.209 50.209 0 0 1-35.51-14.719 50.31 50.31 0 0 1-14.71-35.533c0-13.321 5.3-26.11 14.71-35.532a50.226 50.226 0 0 1 35.51-14.719ZM566.292 177.153a50.183 50.183 0 0 1-35.321-14.922 50.234 50.234 0 0 1-14.494-35.533 50.315 50.315 0 0 1 14.773-35.405 50.21 50.21 0 0 1 35.436-14.655 50.235 50.235 0 0 1 50.222 50.06 50.518 50.518 0 0 1-14.837 35.749 50.405 50.405 0 0 1-35.791 14.706h.012ZM415.424 547.148c-13.288-.152-25.98-5.587-35.296-15.099a50.246 50.246 0 0 1-14.329-35.622 50.348 50.348 0 0 1 14.989-35.355 50.28 50.28 0 0 1 35.563-14.439 50.205 50.205 0 0 1 35.372 14.909 50.238 50.238 0 0 1 14.52 35.546 50.439 50.439 0 0 1-15.053 35.558 50.389 50.389 0 0 1-35.778 14.49l.012.012Zm70.834 472.302a50.21 50.21 0 0 1-35.512-14.72 50.27 50.27 0 0 1-14.71-35.531 50.33 50.33 0 0 1 14.71-35.546 50.218 50.218 0 0 1 35.512-14.718 50.217 50.217 0 0 1 35.511 14.718 50.284 50.284 0 0 1 14.71 35.546 50.247 50.247 0 0 1-14.71 35.531 50.232 50.232 0 0 1-35.511 14.72Zm1249.212-98.102c13.32 0 26.09 5.295 35.51 14.718a50.31 50.31 0 0 1 14.71 35.533c0 13.322-5.3 26.11-14.71 35.541a50.203 50.203 0 0 1-71.03 0 50.3 50.3 0 0 1-14.71-35.541 50.549 50.549 0 0 1 14.84-35.546 50.416 50.416 0 0 1 35.59-14.705h-.2Zm-608.9 46.251c-111.44 0-218.321-44.296-297.125-123.146-78.803-78.85-123.073-185.804-123.073-297.305 0-111.5 44.27-218.454 123.073-297.304 78.804-78.85 185.695-123.146 297.125-123.146 111.44 0 218.33 44.296 297.13 123.146 78.81 78.85 123.08 185.804 123.08 297.304 0 111.501-44.27 218.455-123.08 297.305-78.8 78.85-185.69 123.146-297.13 123.146Zm724.15-220.233a50.216 50.216 0 0 1-35.54-14.743 50.169 50.169 0 0 1-14.68-35.584 50.312 50.312 0 0 1 14.77-35.546 50.244 50.244 0 0 1 35.58-14.642 50.226 50.226 0 0 1 50.09 50.455 50.48 50.48 0 0 1-14.83 35.355 50.451 50.451 0 0 1-35.39 14.705Z" opacity=".11"/><path fill="#fff" d="M1104.9 340H922.1a14.14 14.14 0 0 0-9.972 4.115 14.054 14.054 0 0 0-4.128 9.941v119.888c0 3.72 1.486 7.308 4.128 9.941A14.14 14.14 0 0 0 922.1 488h182.8c3.73 0 7.33-1.481 9.97-4.115a14.065 14.065 0 0 0 4.13-9.941V354.056c0-3.72-1.49-7.308-4.13-9.941a14.138 14.138 0 0 0-9.97-4.115Zm7.3 133.911a7.12 7.12 0 0 1-2.15 5.135c-1.39 1.35-3.23 2.14-5.15 2.14H922.1c-1.949 0-3.798-.757-5.152-2.14-1.353-1.382-2.146-3.226-2.146-5.135V354.023c0-1.942.76-3.785 2.146-5.135 1.387-1.35 3.236-2.14 5.152-2.14h182.8c1.95 0 3.8.757 5.15 2.14a7.301 7.301 0 0 1 2.15 5.135v119.888Zm-98.7-98.656c-10.3 0-20.208 4.082-27.473 11.357A38.663 38.663 0 0 0 974.635 414a38.604 38.604 0 0 0 11.392 27.388 38.906 38.906 0 0 0 27.473 11.357c10.3 0 20.21-4.082 27.47-11.357A38.647 38.647 0 0 0 1052.36 414c0-10.27-4.09-20.113-11.39-27.388a38.886 38.886 0 0 0-27.47-11.357Zm0 70.708a32.169 32.169 0 0 1-22.685-9.348A31.911 31.911 0 0 1 981.437 414c0-8.493 3.368-16.591 9.378-22.615a32.248 32.248 0 0 1 16.415-8.756 32.402 32.402 0 0 1 18.52 1.81c5.85 2.404 10.86 6.518 14.4 11.785a31.827 31.827 0 0 1 5.41 17.743c0 8.46-3.4 16.591-9.41 22.582s-14.16 9.349-22.65 9.382v.032Zm-5.09-40.423c0 1.35.53 2.633 1.49 3.588a5.09 5.09 0 0 0 3.6 1.481c.99 0 2.01.165 2.97.428 3.37.856 6.21 3.128 7.73 6.255a11.905 11.905 0 0 1 .2 9.941 11.946 11.946 0 0 1-7.5 6.551v1.547c0 1.218-.66 2.337-1.72 2.93a3.476 3.476 0 0 1-3.4 0 3.369 3.369 0 0 1-1.71-2.93v-1.547a11.75 11.75 0 0 1-6.11-4.247 12.034 12.034 0 0 1-2.38-7.044c0-.889.36-1.778.99-2.403a3.463 3.463 0 0 1 2.41-.988c.89 0 1.78.362 2.41.988.63.625.99 1.514.99 2.403a5.12 5.12 0 0 0 1.49 3.621c.96.955 2.24 1.514 3.6 1.514 1.35 0 2.67-.527 3.63-1.481a5.063 5.063 0 0 0 1.49-3.621c0-1.35-.53-2.634-1.52-3.588a5.167 5.167 0 0 0-3.64-1.482c-.99 0-2.01-.164-2.97-.427-3.37-.856-6.21-3.128-7.72-6.255a11.867 11.867 0 0 1-.2-9.941 11.954 11.954 0 0 1 7.49-6.551v-1.415c0-1.218.66-2.338 1.72-2.93a3.471 3.471 0 0 1 3.4 0 3.356 3.356 0 0 1 1.72 2.93v1.415c2.44.724 4.59 2.206 6.14 4.247 1.52 2.04 2.38 4.509 2.38 7.077 0 .889-.37 1.745-.99 2.403-.63.625-1.49.987-2.41.987-.9 0-1.79-.362-2.41-.987a3.424 3.424 0 0 1-.99-2.403 5.094 5.094 0 0 0-1.36-3.819 5.13 5.13 0 0 0-3.73-1.613 5.13 5.13 0 0 0-3.73 1.613 5.094 5.094 0 0 0-1.36 3.819v-.066Zm87.21 12.97c-1.29 0-2.61.197-3.83.625l-7.43-11.093c-.63-.955-1.65-1.514-2.81-1.547h-14.13c-.59-4.378-1.75-8.625-3.4-12.707h14.33c.66 0 1.32-.197 1.85-.559.56-.363.99-.889 1.26-1.482l4.82-10.83c.56.066 1.15.132 1.71.132 3.31 0 6.51-1.317 8.85-3.654a12.416 12.416 0 0 0 3.67-8.822c0-3.325-1.32-6.485-3.67-8.822a12.499 12.499 0 0 0-8.85-3.654c-3.33 0-6.5 1.317-8.85 3.654a12.448 12.448 0 0 0-3.66 8.822c0 2.238.63 4.444 1.78 6.386a12.902 12.902 0 0 0 2.74 3.226l-3.89 8.822h-15.42c-.33-.526-.63-1.086-.96-1.613-6.01-9.612-14.86-17.15-25.36-21.495a54.73 54.73 0 0 0-33.15-2.766 54.528 54.528 0 0 0-28.599 16.986l-.529.626h-8.023l-3.963-4.938a12.27 12.27 0 0 0 2.279-7.275c0-3.588-1.552-6.979-4.26-9.349-2.708-2.37-6.307-3.423-9.873-2.962-3.566.461-6.736 2.469-8.751 5.431-1.981 2.996-2.608 6.682-1.651 10.139.925 3.456 3.335 6.353 6.538 7.933a12.503 12.503 0 0 0 10.303.329l4.953 6.222a3.43 3.43 0 0 0 2.674 1.284h4.689a53.899 53.899 0 0 0-7.429 36.374h-11.359l-5.118-6.386c.264-.362.462-.724.693-1.119a12.51 12.51 0 0 0 .793-10.468 12.554 12.554 0 0 0-7.496-7.374c-3.467-1.218-7.298-.888-10.468.955a12.607 12.607 0 0 0-6.042 8.592 12.512 12.512 0 0 0 2.707 10.138 12.376 12.376 0 0 0 9.51 4.477c1.684 0 3.368-.329 4.92-1.02l6.208 7.637a3.44 3.44 0 0 0 2.642 1.251h14.43a53.747 53.747 0 0 0 6.637 14.714h-7.067c-.726 0-1.453.263-2.047.691l-10.203 7.703a12.578 12.578 0 0 0-10.6-2.107 12.5 12.5 0 0 0-8.288 6.88 12.321 12.321 0 0 0 .198 10.765c1.684 3.39 4.821 5.793 8.52 6.616 3.698.79 7.561-.099 10.5-2.469a12.462 12.462 0 0 0 4.656-9.711c0-1.415-.231-2.831-.727-4.147l-.132-.395 9.246-7.045h11.062l.165.198a54.418 54.418 0 0 0 26.053 15.998c10.039 2.732 20.669 2.568 30.609-.527a54.598 54.598 0 0 0 25.49-16.887h11.36l5.55 6.32c-.27.395-.5.823-.73 1.251a12.457 12.457 0 0 0 .1 11.324c1.82 3.555 5.25 5.991 9.18 6.65a12.577 12.577 0 0 0 14.43-14.188 12.44 12.44 0 0 0-6.5-9.25 12.604 12.604 0 0 0-11.33-.263l-6.57-7.473a3.494 3.494 0 0 0-2.58-1.152h-7.99a53.672 53.672 0 0 0 7.86-27.454v-1.448h11.79l6.37 9.579a12.7 12.7 0 0 0-3 8.065c0 3.292 1.32 6.485 3.66 8.822a12.534 12.534 0 0 0 8.85 3.654c3.3 0 6.51-1.317 8.85-3.654a12.416 12.416 0 0 0 3.67-8.822c0-3.292-1.32-6.485-3.67-8.822a12.499 12.499 0 0 0-8.85-3.654l.1.132Zm-7.59-55.599c1.52 0 2.97.593 4.03 1.679a5.724 5.724 0 0 1 1.68 4.016 5.56 5.56 0 0 1-1.68 4.016 5.745 5.745 0 0 1-4.03 1.679c-1.52 0-2.97-.593-4.03-1.679a5.692 5.692 0 0 1-1.69-4.016c0-1.514.6-2.963 1.69-4.016a5.745 5.745 0 0 1 4.03-1.679Zm-138.061 9.283c-1.519 0-2.939-.625-3.996-1.679a5.671 5.671 0 0 1-1.651-4.016c0-1.514.595-2.93 1.684-4.016a5.708 5.708 0 0 1 4.029-1.646c1.519 0 2.939.593 4.028 1.646a5.7 5.7 0 0 1 1.684 4.016 5.694 5.694 0 0 1-1.684 4.049 5.565 5.565 0 0 1-4.061 1.646h-.033ZM932.864 414c-1.519 0-2.939-.625-3.995-1.712-1.057-1.086-1.651-2.535-1.618-4.016 0-1.514.627-2.929 1.684-3.983a5.764 5.764 0 0 1 4.028-1.646c1.519 0 2.939.626 3.996 1.679a5.673 5.673 0 0 1 1.651 4.016 5.599 5.599 0 0 1-1.717 4.016 5.84 5.84 0 0 1-4.062 1.646h.033Zm8.024 53.36a5.594 5.594 0 0 1-4.028-1.679 5.697 5.697 0 0 1-1.684-4.016c0-1.514.594-2.962 1.684-4.016a5.734 5.734 0 0 1 4.028-1.678c1.519 0 2.972.592 4.029 1.678a5.704 5.704 0 0 1 1.684 4.016 5.566 5.566 0 0 1-1.684 4.016 5.735 5.735 0 0 1-4.029 1.679Zm141.662-11.093c1.51 0 2.97.592 4.02 1.679a5.69 5.69 0 0 1 1.69 4.016 5.57 5.57 0 0 1-1.69 4.016 5.722 5.722 0 0 1-4.02 1.679c-1.52 0-2.98-.593-4.03-1.679a5.693 5.693 0 0 1-1.69-4.016 5.69 5.69 0 0 1 1.69-4.016c1.05-1.054 2.51-1.646 4.03-1.646v-.033Zm-69.05 5.234c-12.65 0-24.765-5.004-33.681-13.925-8.948-8.92-13.967-21.001-13.967-33.576a47.361 47.361 0 0 1 13.967-33.576 47.725 47.725 0 0 1 33.681-13.925c12.61 0 24.77 5.004 33.68 13.925 8.95 8.92 13.97 21.001 13.97 33.576a47.356 47.356 0 0 1-13.97 33.576 47.724 47.724 0 0 1-33.68 13.925Zm82.12-24.886c-1.52 0-2.97-.593-4.03-1.679-1.05-1.053-1.68-2.502-1.65-4.016 0-1.514.6-2.963 1.69-4.016a5.69 5.69 0 0 1 4.02-1.646c1.52 0 2.98.593 4.03 1.679a5.654 5.654 0 0 1 1.65 4.016c0 1.514-.62 2.93-1.68 3.983a5.714 5.714 0 0 1-4.03 1.646v.033ZM262.679 687h-32.976v-97.92h32.976c8.448 0 15.408.912 20.88 2.736 5.472 1.728 9.696 4.656 12.672 8.784 3.072 4.032 5.184 8.832 6.336 14.4 1.152 5.472 1.728 12.624 1.728 21.456 0 8.832-.528 16.176-1.584 22.032-1.056 5.76-3.072 10.944-6.048 15.552-2.88 4.512-7.104 7.824-12.672 9.936-5.568 2.016-12.672 3.024-21.312 3.024Zm20.88-38.88c.192-3.072.288-7.296.288-12.672 0-5.472-.192-9.84-.576-13.104-.384-3.264-1.296-6.24-2.736-8.928-1.44-2.688-3.6-4.512-6.48-5.472-2.784-1.056-6.576-1.584-11.376-1.584h-13.104v63.36h13.104c7.2 0 12.432-1.824 15.696-5.472 2.784-2.976 4.512-8.352 5.184-16.128ZM319.803 687v-72h19.296v72h-19.296Zm0-81.216V586.2h19.296v19.584h-19.296Zm102.357 90.144c0 8.256-3.168 14.352-9.504 18.288-6.336 3.936-14.928 5.904-25.776 5.904-10.752 0-19.056-1.44-24.912-4.32-5.76-2.88-8.64-8.112-8.64-15.696 0-6.048 3.456-11.76 10.368-17.136-3.552-2.4-5.328-6.048-5.328-10.944 0-1.92 1.44-5.088 4.32-9.504l1.296-2.016c-6.528-4.704-9.792-11.616-9.792-20.736 0-9.216 2.736-15.888 8.208-20.016 5.568-4.128 12.912-6.192 22.032-6.192 4.128 0 8.208.48 12.24 1.44l2.304.432 23.184-.72v15.408l-10.8-.864c2.112 3.264 3.168 6.528 3.168 9.792 0 9.6-2.448 16.224-7.344 19.872-4.896 3.648-12.576 5.472-23.04 5.472-2.208 0-4.176-.192-5.904-.576-.96 2.496-1.44 4.56-1.44 6.192 0 1.536.816 2.592 2.448 3.168 1.632.576 5.472.912 11.52 1.008 12.096.096 20.352 1.728 24.768 4.896 4.416 3.072 6.624 8.688 6.624 16.848Zm-49.824 2.16c0 4.128 5.04 6.192 15.12 6.192 10.176 0 15.264-2.4 15.264-7.2 0-2.592-.864-4.272-2.592-5.04-1.728-.672-5.376-1.056-10.944-1.152l-12.96-1.008c-2.592 2.592-3.888 5.328-3.888 8.208Zm1.152-58.896c0 7.008 3.648 10.512 10.944 10.512 7.392 0 11.088-3.504 11.088-10.512 0-7.104-3.696-10.656-11.088-10.656-7.296 0-10.944 3.552-10.944 10.656ZM433.85 687v-72h19.296v72H433.85Zm0-81.216V586.2h19.296v19.584H433.85Zm77.013 25.632h-17.712v29.52c0 2.88.048 4.944.144 6.192.192 1.152.72 2.16 1.584 3.024.96.864 2.4 1.296 4.32 1.296l10.944-.288.864 15.408c-6.432 1.44-11.328 2.16-14.688 2.16-8.64 0-14.544-1.92-17.712-5.76-3.168-3.936-4.752-11.136-4.752-21.6v-29.952h-8.496V615h8.496v-20.016h19.296V615h17.712v16.416Zm67.717 6.048v29.952c.192 2.304.576 3.936 1.152 4.896.576.864 1.776 1.488 3.6 1.872l-.576 14.544c-4.896 0-8.832-.336-11.808-1.008-2.88-.672-5.808-2.016-8.784-4.032-6.912 3.36-13.968 5.04-21.168 5.04-14.88 0-22.32-7.872-22.32-23.616 0-7.68 2.064-13.104 6.192-16.272 4.128-3.264 10.464-5.184 19.008-5.76l15.408-1.152v-4.464c0-2.976-.672-4.992-2.016-6.048-1.344-1.152-3.504-1.728-6.48-1.728l-27.072 1.152-.576-13.392c10.272-2.784 20.016-4.176 29.232-4.176 9.312 0 15.984 1.92 20.016 5.76 4.128 3.84 6.192 9.984 6.192 18.432Zm-32.4 19.008c-5.376.48-8.064 3.36-8.064 8.64 0 5.28 2.352 7.92 7.056 7.92 3.648 0 7.632-.576 11.952-1.728l2.16-.576V655.32l-13.104 1.152ZM597.839 687V586.2h19.296V687h-19.296Zm71.317 0v-97.92h33.84l17.28 71.424 17.28-71.424h33.84V687h-19.872v-75.744h-2.16l-19.152 71.424H710.34l-19.152-71.424h-2.16V687h-19.872Zm124.926-63.792c5.088-6.624 13.584-9.936 25.488-9.936s20.4 3.312 25.488 9.936c5.088 6.528 7.632 15.744 7.632 27.648 0 25.248-11.04 37.872-33.12 37.872s-33.12-12.624-33.12-37.872c0-11.904 2.544-21.12 7.632-27.648Zm14.832 43.92c2.016 3.456 5.568 5.184 10.656 5.184 5.088 0 8.592-1.728 10.512-5.184 2.016-3.456 3.024-8.88 3.024-16.272 0-7.392-1.008-12.768-3.024-16.128-1.92-3.36-5.424-5.04-10.512-5.04s-8.64 1.68-10.656 5.04c-1.92 3.36-2.88 8.736-2.88 16.128 0 7.392.96 12.816 2.88 16.272ZM886.13 687h-19.296v-72h19.152v4.032c6.528-3.84 12.528-5.76 18-5.76 9.6 0 16.224 2.832 19.872 8.496 3.648 5.664 5.472 14.4 5.472 26.208V687h-19.296v-38.448c0-6.144-.72-10.656-2.16-13.536-1.44-2.976-4.32-4.464-8.64-4.464-3.936 0-7.728.672-11.376 2.016l-1.728.576V687Zm76.138-27.792c.096 4.416 1.248 7.632 3.456 9.648 2.304 1.92 5.568 2.88 9.792 2.88 8.928 0 16.896-.288 23.904-.864l4.03-.432.29 14.256c-11.04 2.688-21.024 4.032-29.952 4.032-10.848 0-18.72-2.88-23.616-8.64-4.896-5.76-7.344-15.12-7.344-28.08 0-25.824 10.608-38.736 31.824-38.736 20.928 0 31.388 10.848 31.388 32.544l-1.44 13.392h-42.332Zm24.768-14.688c0-5.76-.912-9.744-2.736-11.952-1.824-2.304-5.04-3.456-9.648-3.456-4.512 0-7.728 1.2-9.648 3.6-1.824 2.304-2.784 6.24-2.88 11.808h24.912ZM1012.09 615h19l13.11 55.584h3.31l13.1-55.584h19.01l-25.34 102.24h-18.87l7.92-30.24h-13.53l-17.71-72Zm111.99-25.92h38.45c10.17 0 17.8 2.064 22.89 6.192 5.09 4.032 7.63 10.608 7.63 19.728 0 5.472-.81 9.84-2.44 13.104-1.64 3.168-4.42 6-8.36 8.496 4.32 1.824 7.49 4.464 9.51 7.92 2.11 3.456 3.17 8.256 3.17 14.4 0 9.504-2.79 16.56-8.36 21.168-5.56 4.608-13.39 6.912-23.47 6.912h-39.02v-97.92Zm38.01 57.024h-18.14v23.904h18.14c4.32 0 7.49-.864 9.51-2.592 2.11-1.728 3.17-4.896 3.17-9.504 0-7.872-4.23-11.808-12.68-11.808Zm-.57-40.032h-17.57V629.4h17.71c7.49 0 11.23-3.888 11.23-11.664s-3.79-11.664-11.37-11.664ZM1210.96 687V586.2h19.3V687h-19.3Zm41.84-63.792c5.09-6.624 13.58-9.936 25.49-9.936 11.9 0 20.4 3.312 25.49 9.936 5.08 6.528 7.63 15.744 7.63 27.648 0 25.248-11.04 37.872-33.12 37.872s-33.12-12.624-33.12-37.872c0-11.904 2.54-21.12 7.63-27.648Zm14.83 43.92c2.02 3.456 5.57 5.184 10.66 5.184s8.59-1.728 10.51-5.184c2.02-3.456 3.02-8.88 3.02-16.272 0-7.392-1-12.768-3.02-16.128-1.92-3.36-5.42-5.04-10.51-5.04s-8.64 1.68-10.66 5.04c-1.92 3.36-2.88 8.736-2.88 16.128 0 7.392.96 12.816 2.88 16.272Zm123.16 28.8c0 8.256-3.17 14.352-9.51 18.288-6.33 3.936-14.93 5.904-25.77 5.904-10.76 0-19.06-1.44-24.92-4.32-5.76-2.88-8.64-8.112-8.64-15.696 0-6.048 3.46-11.76 10.37-17.136-3.55-2.4-5.33-6.048-5.33-10.944 0-1.92 1.44-5.088 4.32-9.504l1.3-2.016c-6.53-4.704-9.79-11.616-9.79-20.736 0-9.216 2.73-15.888 8.21-20.016 5.56-4.128 12.91-6.192 22.03-6.192 4.13 0 8.21.48 12.24 1.44l2.3.432 23.19-.72v15.408l-10.8-.864c2.11 3.264 3.16 6.528 3.16 9.792 0 9.6-2.44 16.224-7.34 19.872-4.9 3.648-12.58 5.472-23.04 5.472-2.21 0-4.18-.192-5.9-.576-.96 2.496-1.44 4.56-1.44 6.192 0 1.536.81 2.592 2.44 3.168 1.64.576 5.48.912 11.52 1.008 12.1.096 20.36 1.728 24.77 4.896 4.42 3.072 6.63 8.688 6.63 16.848Zm-49.83 2.16c0 4.128 5.04 6.192 15.12 6.192 10.18 0 15.27-2.4 15.27-7.2 0-2.592-.87-4.272-2.6-5.04-1.72-.672-5.37-1.056-10.94-1.152l-12.96-1.008c-2.59 2.592-3.89 5.328-3.89 8.208Zm1.15-58.896c0 7.008 3.65 10.512 10.95 10.512 7.39 0 11.09-3.504 11.09-10.512 0-7.104-3.7-10.656-11.09-10.656-7.3 0-10.95 3.552-10.95 10.656Zm123.83-34.56c-10.46 0-15.7 3.456-15.7 10.368 0 3.072 1.3 5.424 3.89 7.056 2.59 1.632 8.64 3.984 18.15 7.056 9.6 3.072 16.32 6.576 20.16 10.512 3.84 3.84 5.76 9.792 5.76 17.856 0 10.272-3.12 18.048-9.36 23.328-6.24 5.28-14.4 7.92-24.48 7.92-7.49 0-16.66-1.152-27.51-3.456l-5.18-1.008 2.01-15.408c12.87 1.728 22.71 2.592 29.52 2.592 10.18 0 15.27-4.224 15.27-12.672 0-3.072-1.2-5.472-3.6-7.2-2.31-1.728-6.96-3.6-13.97-5.616-11.14-3.168-19.01-6.912-23.62-11.232-4.51-4.416-6.76-10.512-6.76-18.288 0-9.792 2.97-17.088 8.92-21.888 5.96-4.8 14.12-7.2 24.48-7.2 7.11 0 16.13.96 27.08 2.88l5.18 1.008-1.58 15.696c-13.54-1.536-23.09-2.304-28.66-2.304Zm62.34 54.576c.1 4.416 1.25 7.632 3.46 9.648 2.3 1.92 5.57 2.88 9.79 2.88 8.93 0 16.9-.288 23.91-.864l4.03-.432.29 14.256c-11.04 2.688-21.03 4.032-29.96 4.032-10.84 0-18.72-2.88-23.61-8.64-4.9-5.76-7.35-15.12-7.35-28.08 0-25.824 10.61-38.736 31.83-38.736 20.93 0 31.39 10.848 31.39 32.544l-1.44 13.392h-42.34Zm24.77-14.688c0-5.76-.91-9.744-2.73-11.952-1.83-2.304-5.04-3.456-9.65-3.456-4.51 0-7.73 1.2-9.65 3.6-1.82 2.304-2.78 6.24-2.88 11.808h24.91Zm32.8 42.48v-72H1605v7.632c8.07-4.8 15.75-7.92 23.04-9.36v19.44c-7.77 1.632-14.45 3.312-20.01 5.04l-2.88 1.008V687h-19.3Zm53.58 0v-72h19.29v72h-19.29Zm0-81.216V586.2h19.29v19.584h-19.29Zm52.96 53.424c.1 4.416 1.25 7.632 3.46 9.648 2.3 1.92 5.57 2.88 9.79 2.88 8.93 0 16.9-.288 23.91-.864l4.03-.432.29 14.256c-11.04 2.688-21.03 4.032-29.96 4.032-10.84 0-18.72-2.88-23.61-8.64-4.9-5.76-7.35-15.12-7.35-28.08 0-25.824 10.61-38.736 31.83-38.736 20.93 0 31.39 10.848 31.39 32.544l-1.44 13.392h-42.34Zm24.77-14.688c0-5.76-.91-9.744-2.73-11.952-1.83-2.304-5.04-3.456-9.65-3.456-4.51 0-7.73 1.2-9.65 3.6-1.82 2.304-2.78 6.24-2.88 11.808h24.91Zm84.5-11.52c-11.91-1.536-20.26-2.304-25.06-2.304-4.7 0-7.78.432-9.22 1.296-1.34.864-2.01 2.256-2.01 4.176 0 1.824.91 3.12 2.73 3.888 1.92.672 6.72 1.728 14.4 3.168 7.78 1.344 13.3 3.6 16.56 6.768 3.27 3.168 4.9 8.304 4.9 15.408 0 15.552-9.65 23.328-28.94 23.328-6.34 0-14.02-.864-23.04-2.592l-4.61-.864.57-16.128c11.91 1.536 20.16 2.304 24.77 2.304 4.71 0 7.87-.432 9.51-1.296 1.72-.96 2.59-2.352 2.59-4.176 0-1.824-.91-3.168-2.74-4.032-1.73-.864-6.33-1.92-13.82-3.168-7.39-1.248-12.91-3.36-16.56-6.336-3.65-2.976-5.47-8.256-5.47-15.84 0-7.68 2.59-13.44 7.77-17.28 5.19-3.936 11.86-5.904 20.02-5.904 5.66 0 13.39.912 23.18 2.736l4.75.864-.28 15.984Z"/><defs><linearGradient id="a" x1="-.019" x2="2026.98" y1="553" y2="553" gradientUnits="userSpaceOnUse"><stop stop-color="#6500CF"/><stop offset="1" stop-color="#AB71FF"/></linearGradient></defs></svg>
