<svg xmlns="http://www.w3.org/2000/svg" fill="none" viewBox="0 0 600 600"><path fill="url(#a)" d="M600 0H0v600h600V0Z"/><path fill="url(#b)" d="M300.45 498.001c78.48 0 142.1-3.344 142.1-7.47 0-4.125-63.62-7.47-142.1-7.47-78.48 0-142.1 3.345-142.1 7.47 0 4.126 63.62 7.47 142.1 7.47Z" opacity=".22"/><path fill="url(#c)" d="M343.16 483.311h-85.42l4.89-36.75h76.34l4.19 36.75Z"/><path fill="url(#d)" d="M132 415.781v22.69c0 4.61 3.77 8.38 8.38 8.38h320.15c4.6 0 8.37-3.77 8.37-8.38v-22.69H132Z"/><path fill="url(#e)" d="M468.9 223.061c0-4.61-3.77-8.38-8.37-8.38H140.38c-4.61 0-8.38 3.77-8.38 8.38v192.71h336.9v-192.71Z"/><path fill="url(#f)" d="M457.03 225.861H143.87v178.75h313.16v-178.75Z"/><path fill="url(#g)" d="M257.74 483.311h85.42l15.03 3.55-115.47.09 15.02-3.64Z"/><path fill="url(#h)" d="M357.4 488.841H243.5l-.76-1.89 115.45-.09-.79 1.98Z"/><path fill="#fff" d="M306.44 432.301c0 3.31-2.68 5.99-5.99 5.99s-5.99-2.68-5.99-5.99 2.68-6 5.99-6a5.99 5.99 0 0 1 5.99 6ZM293.896 380.838l-1.045-.027.025-.528.025-.529 3.506-.009 3.505-.009v1.054l-1.543.056c-1.476.054-2.132.052-4.473-.008Zm-14.422-2.203c-2.063-.598-5.996-1.897-6.149-2.03-.036-.032.217-.801.313-.951.051-.081.45.03 1.634.453.862.308 2.327.784 3.255 1.058.928.273 1.707.517 1.731.541.068.068-.185 1.014-.277 1.034-.045.01-.273-.037-.507-.105Zm33.149-.374c-.081-.285-.132-.534-.114-.551.018-.018.738-.242 1.6-.497a69.244 69.244 0 0 0 4.366-1.447c.324-.122.614-.193.644-.157.031.037.137.267.236.513l.18.447-.315.132c-.615.259-3.818 1.325-4.988 1.66l-1.327.38c-.105.031-.17-.078-.282-.48Zm-52.198-8.448c-1.111-.754-3.488-2.513-4.216-3.121l-.235-.195.358-.44.357-.44.43.345a77.355 77.355 0 0 0 3.971 2.93l1.242.846-.283.449c-.156.247-.295.461-.31.475-.015.013-.606-.368-1.314-.849Zm70.346.413c-.156-.26-.25-.501-.21-.536.04-.036.562-.398 1.16-.807 1.241-.847 2.878-2.055 3.771-2.782l.609-.496.355.445.354.446-.283.242c-.556.473-2.936 2.242-3.981 2.958-1.679 1.15-1.446 1.081-1.775.53Zm-84.962-14.161c-.891-1.148-2.459-3.336-2.951-4.122l-.227-.361.476-.305c.261-.167.485-.291.496-.276.012.016.396.583.853 1.261a70.26 70.26 0 0 0 2.868 3.897l.361.456-.38.328c-.209.18-.419.329-.467.331-.048.001-.511-.543-1.029-1.209Zm99.711.902c-.218-.17-.396-.322-.396-.338 0-.016.36-.488.801-1.05a66.409 66.409 0 0 0 2.758-3.808l.528-.789.252.149c.139.082.349.227.468.322l.215.172-.835 1.233c-1.278 1.885-3.186 4.418-3.329 4.418-.036 0-.244-.139-.462-.309Zm-68.566-3.358c.016-1.222.004-2.465-.028-2.762l-.058-.54h-5.51v-55.555l-.446-.054c-.579-.069-4.053-.069-4.632 0l-.446.054v5.5h-5.609v-5.609h5.509l.059-.624c.032-.344.045-1.586.029-2.762l-.031-2.138h5.567v-5.609h5.51l.059-.547c.032-.301.045-1.544.028-2.762l-.031-2.214h5.567v5.521l2.771.022 2.771.023.012 19.39c.007 10.665.044 19.423.083 19.461.092.093 5.29.093 5.382 0 .039-.038.071-1.291.071-2.783v-2.712h5.567v-2.783l-.001-2.784h2.713c1.492 0 2.744-.031 2.783-.07.039-.039.082-5.039.095-11.112l.024-11.041h-5.51l-.06.568c-.034.312-.048 1.559-.033 2.771l.029 2.204-2.782.012-2.782.012v-5.567h5.524v-5.609h5.608v-5.524h11.133v5.524h5.524v61.188H326.924l.058-.547c.032-.301.045-1.543.028-2.762l-.031-2.214h5.567v5.566l-2.222-.03c-1.223-.016-2.466-.004-2.762.028l-.54.058v5.51h-11.133v5.524h-5.609v-5.524h-5.524l-.013-10.899c-.007-5.994-.003-12.027.01-13.406.013-1.379-.005-2.727-.039-2.996l-.062-.488h-5.406l-.058.547c-.032.301-.045 1.544-.028 2.762l.031 2.215h-5.567v5.566h-2.712c-1.492 0-2.745.032-2.784.071-.038.039-.07 3.796-.07 8.35v8.278h-5.567v5.524h-5.566l.029-2.222Zm-40.798-15.135c-.65-1.801-1.663-5.136-1.58-5.202.014-.011.261-.078.548-.149l.521-.128.192.731c.241.925 1.276 4.115 1.663 5.129.161.423.283.776.27.784-.073.047-.948.385-.996.385-.032 0-.31-.697-.618-1.55Zm119.357 1.364c-.246-.097-.446-.225-.446-.285 0-.06.129-.448.287-.862.385-1.01 1.256-3.689 1.541-4.743.127-.467.244-.872.26-.9.051-.087 1.056.211 1.056.313 0 .516-2.032 6.674-2.197 6.658a5.855 5.855 0 0 1-.501-.181Zm-17.358-14.473v-2.677h5.099V311.13H338.367v-5.354l3.4.001c4.31.002 4.59.056 5.677 1.093.582.555.865 1.002 1.089 1.721.151.486.16.892.16 7.305v6.792h4.334v5.353h-14.872v-2.676Zm19.685 2.543a4.027 4.027 0 0 1-2.67-2.15l-.316-.639-.025-7.951c-.023-7.204-.012-8 .116-8.484.362-1.361 1.618-2.509 3.079-2.814.308-.064 2.67-.093 7.479-.092 7.748.002 7.718-.001 8.704.525a3.987 3.987 0 0 1 1.746 1.825l.317.665v8.073c0 7.612-.009 8.099-.156 8.521-.37 1.061-1.259 1.983-2.332 2.416l-.486.196-7.479.016c-6.242.012-7.561-.005-7.977-.107Zm13.628-10.999v-5.779H361.1v11.558h10.368v-5.779Zm-138.993 2.231c-.057-1.19-.009-5.697.061-5.754.015-.013.256-.005.537.017l.51.039v6.934l-.373.051c-.725.1-.664.206-.735-1.287Zm2.574-18.438c-.269-.07-.489-.161-.489-.2 0-.283 1.315-4.421 1.963-6.178.216-.587.181-.576.904-.267l.361.155-.264.704a74.945 74.945 0 0 0-1.523 4.635c-.204.713-.392 1.292-.417 1.288a30.627 30.627 0 0 1-.535-.137Zm122.024-.131c-.103-.551-.985-3.377-1.494-4.789-.285-.79-.526-1.467-.536-1.505-.018-.065.961-.51 1.011-.459.204.203 2.157 6.227 2.157 6.651 0 .057-.182.147-.404.202-.222.054-.466.117-.542.14-.103.03-.153-.032-.192-.24Zm-113.93-17.995a4.683 4.683 0 0 0-.459-.281c-.168-.057 2.561-3.898 4.081-5.743.032-.039.307.144.67.443l.254.21-.296.369c-.753.937-2.408 3.192-3.061 4.17-.397.594-.74 1.082-.764 1.083-.023.001-.214-.112-.425-.251Zm105.27-.914a68.426 68.426 0 0 0-2.707-3.687c-.32-.404-.582-.75-.582-.769 0-.019.196-.184.436-.367l.435-.332.208.251c1.048 1.266 4.02 5.431 3.928 5.506-.134.109-.839.567-.874.567-.023 0-.403-.526-.844-1.169Zm-92.068-13.88c-.179-.235-.327-.443-.327-.46 0-.119 3.736-2.886 5.173-3.832l.499-.328.183.23c.101.126.25.342.331.479l.147.249-.32.193c-.657.397-2.907 2.001-3.969 2.83-.605.472-1.166.905-1.245.963-.125.091-.188.048-.472-.324Zm79.473.211c-.671-.562-3.017-2.304-4.101-3.044-.666-.455-1.211-.849-1.211-.877 0-.162.55-.876.646-.839.389.15 4.197 2.887 5.427 3.901l.251.207-.365.436c-.201.24-.371.435-.379.433a5.236 5.236 0 0 1-.268-.217Zm-62.338-10.195c-.11-.273-.159-.503-.116-.544.192-.182 3.574-1.321 5.897-1.987l.723-.207.109.254c.061.139.118.387.128.551l.018.298-1.254.367c-1.472.43-3.369 1.054-4.426 1.455-.413.157-.782.285-.819.285-.037 0-.154-.212-.26-.472Zm45.299.394c-.223-.133-3.647-1.277-4.969-1.661-.7-.203-1.282-.401-1.295-.441-.012-.039.044-.289.125-.554l.147-.481 1.318.377c1.401.402 3.587 1.124 4.729 1.561l.692.266-.187.484c-.188.484-.321.591-.56.449Zm-25.877-4.157c-.024-.062-.043-.297-.043-.522 0-.294.037-.423.134-.46.074-.028 1.601-.052 3.393-.052 1.791 0 3.318.024 3.392.052.102.039.134.176.134.574v.522h-3.483c-2.822 0-3.492-.022-3.527-.114Z"/><path fill="url(#i)" d="m249.02 155.207 33.743 49.709 29.546-20.057-33.744-49.708-29.545 20.056Z"/><path fill="url(#j)" d="m248.95 155.081 38.69 10.37-4.78 39.58-33.91-49.95Z"/><path fill="url(#k)" d="m312.4 184.981-38.69-10.36 4.78-39.59 33.91 49.95Z"/><path fill="#fff" d="m383.34 212.981-3.08-7.36-9.68-6.38 1-1.51 9.29 6.14 5.57-5.48 1.26 1.28-4.93 4.86 5.18 1.26-.43 1.75-5.01-1.22 2.5 5.97-1.67.69ZM368.64 220.281l-.57-7.96-8.23-11.45 1.42-1.11 7.96 11.09 7.02-3.41.79 1.62-6.23 3.03 4.51 2.85-.97 1.52-4.36-2.76.46 6.45-1.8.13Z"/><path fill="url(#l)" d="M318.2 167.811c.06-.13 6.34 1.04 7.02 1.12 2.56.28 5.14.41 7.71.29 4.95-.22 9.94-1.38 14.11-4.16 15.06-10.04 13.91-31.14 14.24-47.07.07-3.32.4-6.79.14-10.11 0 0-1.45-18.17-6.31-17.17 0 0-36.89 77.09-36.9 77.1h-.01Z"/><path fill="url(#m)" d="M318.2 167.811s8.91 1.27 15.07-2.15 12.73-10.84 19.73-28.47c7.01-17.63 10.67-25.63 7.4-36.64 0 0 0-6.66-4.61-11.64l-37.59 78.9Z"/><path fill="url(#n)" d="M318.2 167.811s15.08-8.36 20.76-18.89c5.29-9.8 18.3-34.12 23.56-51.64 1.12-3.74 3.06-8.35 2.5-12.32-.84-5.94-6.13-4.58-7.81 0-2.11 5.75-39.01 82.85-39.01 82.85Z"/><path fill="url(#o)" d="M311.05 162.921s-.34 19.96 15.84 30.51c16.19 10.55 28.22 9.3 41.79 7.08 13.56-2.22 32.38-16.34 38.39-28.73 6.02-12.39 4.49-11.42 4.49-11.42l-66.69-28.13s-6.48 34.18-33.83 30.69h.01Z"/><path fill="#fff" d="m300.28 145.711-8.82 15.07 11.6-6.97-2.78-8.1Z"/><path fill="#fff" d="m303.06 153.811-11.6 6.97 17.31-2.32-5.71-4.65Z"/><path fill="url(#p)" d="M344.88 132.231s-10.68-6.03-18.43-6.45c-5.81-.31-12.29.29-17.41 3.47-6.97 4.31-10.98 14.86-8.11 22.64 2.75 7.45 10.72 13.23 18.73 13.09 5.88-.1 12.08-4.74 15.67-9.17 2.25-2.78 3.94-5.98 5.45-9.21 4.98-10.66 4.1-14.38 4.1-14.38v.01Z"/><path fill="#000" d="M313.03 150.441a5.41 5.41 0 1 0 0-10.82 5.41 5.41 0 0 0 0 10.82Z"/><path fill="#fff" d="M313.59 143.441a.9.9 0 1 0 0-1.8.9.9 0 0 0 0 1.8Z"/><path fill="url(#q)" d="M341.64 158.151c.13-.09 5.66 4.75 6.29 5.23 2.37 1.78 4.85 3.42 7.46 4.82 5.03 2.69 10.65 4.47 16.41 4.16 20.81-1.1 32.06-22.66 41.74-38.24 2.02-3.24 4.39-6.49 6.07-9.93 0 0 9.23-18.84 3.84-20.71 0 0-81.79 54.66-81.81 54.67Z"/><path fill="url(#r)" d="M341.64 158.151s8.08 6.49 16.18 6.72c8.1.22 18.97-3.26 36.26-16.6 17.29-13.34 25.62-19.11 28.85-31.93 0 0 3.91-6.59 2.27-14.23l-83.56 56.05v-.01Z"/><path fill="url(#s)" d="M341.64 158.151s19.84.58 31.65-6.51c10.99-6.6 38.15-23.03 53.65-37.29 3.31-3.05 7.94-6.47 9.71-10.73 2.65-6.38-3.38-8.13-7.74-4.58-5.46 4.45-87.27 59.12-87.27 59.12v-.01Z"/><path fill="#000" d="M299.71 143.011s24.17-6.48 36.98-14.93c0 0 0 22.57-17.01 26.6-17 4.02-19.96-11.67-19.96-11.67h-.01Z"/><path fill="url(#t)" d="M311.2 147.441a3.08 3.08 0 1 0 0-6.16 3.08 3.08 0 0 0 0 6.16Z"/><path fill="#000" d="M311.2 146.621a2.26 2.26 0 1 0 0-4.52 2.26 2.26 0 0 0 0 4.52Z"/><path fill="#FBF9FF" d="M311.56 144.271a.73.73 0 1 0 0-1.46.73.73 0 0 0 0 1.46Z"/><defs><linearGradient id="a" x1="0" x2="600" y1="300" y2="300" gradientUnits="userSpaceOnUse"><stop stop-color="#5BC7BA"/><stop offset="1" stop-color="#BEEDE7"/></linearGradient><linearGradient id="b" x1="158.35" x2="442.55" y1="490.531" y2="490.531" gradientUnits="userSpaceOnUse"><stop stop-color="#077"/><stop offset="1" stop-color="#69BCC3"/></linearGradient><linearGradient id="c" x1="257.74" x2="343.16" y1="464.941" y2="464.941" gradientUnits="userSpaceOnUse"><stop stop-color="#077"/><stop offset="1" stop-color="#69BDC4"/></linearGradient><linearGradient id="d" x1="132" x2="468.9" y1="431.311" y2="431.311" gradientUnits="userSpaceOnUse"><stop stop-color="#FF7201"/><stop offset="1" stop-color="#FFC40A"/></linearGradient><linearGradient id="e" x1="132" x2="468.9" y1="315.231" y2="315.231" gradientUnits="userSpaceOnUse"><stop stop-color="#077"/><stop offset="1" stop-color="#69BDC4"/></linearGradient><linearGradient id="f" x1="143.87" x2="457.03" y1="315.231" y2="315.231" gradientUnits="userSpaceOnUse"><stop stop-color="#005D86"/><stop offset="1" stop-color="#4A9A9F"/></linearGradient><linearGradient id="g" x1="242.72" x2="358.19" y1="485.131" y2="485.131" gradientUnits="userSpaceOnUse"><stop stop-color="#FF7201"/><stop offset="1" stop-color="#FFC40A"/></linearGradient><linearGradient id="h" x1="242.74" x2="358.19" y1="487.851" y2="487.851" gradientUnits="userSpaceOnUse"><stop stop-color="#7652E3"/><stop offset="1" stop-color="#009A99"/></linearGradient><linearGradient id="i" x1="312.299" x2="249.009" y1="169.609" y2="169.609" gradientUnits="userSpaceOnUse"><stop stop-color="#077"/><stop offset="1" stop-color="#51D5C4"/></linearGradient><linearGradient id="j" x1="287.64" x2="248.95" y1="180.061" y2="180.061" gradientUnits="userSpaceOnUse"><stop stop-color="#077"/><stop offset="1" stop-color="#69BDC4"/></linearGradient><linearGradient id="k" x1="312.4" x2="273.71" y1="160.011" y2="160.011" gradientUnits="userSpaceOnUse"><stop stop-color="#077"/><stop offset="1" stop-color="#70DBD5"/></linearGradient><linearGradient id="l" x1="318.2" x2="361.51" y1="129.971" y2="129.971" gradientUnits="userSpaceOnUse"><stop stop-color="#FF6201"/><stop offset="1" stop-color="#FFB10A"/></linearGradient><linearGradient id="m" x1="361.61" x2="318.2" y1="128.481" y2="128.481" gradientUnits="userSpaceOnUse"><stop stop-color="#8ED7C6"/><stop offset="1" stop-color="#56ADAB"/></linearGradient><linearGradient id="n" x1="365.12" x2="318.2" y1="124.411" y2="124.411" gradientUnits="userSpaceOnUse"><stop stop-color="#69BDC4"/><stop offset="1" stop-color="#077"/></linearGradient><linearGradient id="o" x1="411.74" x2="311.05" y1="167.131" y2="167.131" gradientUnits="userSpaceOnUse"><stop stop-color="#077"/><stop offset="1" stop-color="#69BDC4"/></linearGradient><linearGradient id="p" x1="344.94" x2="300" y1="145.351" y2="145.351" gradientUnits="userSpaceOnUse"><stop stop-color="#FF7201"/><stop offset="1" stop-color="#FFC40A"/></linearGradient><linearGradient id="q" x1="341.64" x2="425.14" y1="137.941" y2="137.941" gradientUnits="userSpaceOnUse"><stop stop-color="#FF7201"/><stop offset="1" stop-color="#FFC40A"/></linearGradient><linearGradient id="r" x1="425.6" x2="341.64" y1="133.501" y2="133.501" gradientUnits="userSpaceOnUse"><stop stop-color="#8ED7C6"/><stop offset="1" stop-color="#56ADAB"/></linearGradient><linearGradient id="s" x1="437.3" x2="341.64" y1="127.701" y2="127.701" gradientUnits="userSpaceOnUse"><stop stop-color="#69BDC4"/><stop offset="1" stop-color="#077"/></linearGradient><linearGradient id="t" x1="308.12" x2="314.28" y1="144.361" y2="144.361" gradientUnits="userSpaceOnUse"><stop stop-color="#FF7201"/><stop offset="1" stop-color="#FFC40A"/></linearGradient></defs></svg>
