<svg xmlns="http://www.w3.org/2000/svg" xmlns:xlink="http://www.w3.org/1999/xlink" id="Layer_1" data-name="Layer 1" viewBox="0 0 1616.84 880.98"><defs><linearGradient id="linear-gradient" x1="10981.44" x2="10981.44" y1="-2554.62" y2="-3436.62" gradientTransform="translate(-10173.79 3435.62)" gradientUnits="userSpaceOnUse"><stop offset="0" stop-color="#224"/><stop offset=".19" stop-color="#26264e"/><stop offset=".51" stop-color="#32326c"/><stop offset=".93" stop-color="#46469b"/><stop offset="1" stop-color="#4a4aa3"/></linearGradient><linearGradient id="linear-gradient-2" x1="458.42" x2="1158.42" y1="684.32" y2="684.32" gradientUnits="userSpaceOnUse"><stop offset=".27" stop-color="#5b35df"/><stop offset=".41" stop-color="#503fd6"/><stop offset=".65" stop-color="#3259be"/><stop offset=".98" stop-color="#038598"/><stop offset="1" stop-color="#008995"/></linearGradient><linearGradient id="linear-gradient-3" x1="656.61" x2="949.69" y1="713.84" y2="713.84" gradientUnits="userSpaceOnUse"><stop offset="0" stop-color="#808de1"/><stop offset="1" stop-color="#8eb5c7"/></linearGradient><linearGradient xlink:href="#linear-gradient-3" id="linear-gradient-4" x1="458.42" x2="1158.42" y1="766.55" y2="766.55"/><linearGradient id="linear-gradient-5" x1="540.65" x2="1067.76" y1="434.47" y2="434.47" gradientUnits="userSpaceOnUse"><stop offset="0" stop-color="#7680e1"/><stop offset="1" stop-color="#804dc7"/></linearGradient><linearGradient xlink:href="#linear-gradient" id="linear-gradient-6" x1="562.57" x2="1045.84" y1="434.47" y2="434.47"/><linearGradient id="linear-gradient-7" x1="559.63" x2="592.06" y1="630.55" y2="630.55" gradientUnits="userSpaceOnUse"><stop offset="0" stop-color="#6fa1d5"/><stop offset="1" stop-color="#8eb5c7"/></linearGradient><linearGradient xlink:href="#linear-gradient-7" id="linear-gradient-8" x1="592.06" x2="627.48"/><linearGradient xlink:href="#linear-gradient-7" id="linear-gradient-9" x1="629.86" x2="665.58"/><linearGradient xlink:href="#linear-gradient-7" id="linear-gradient-10" x1="665.58" x2="695.34"/><linearGradient xlink:href="#linear-gradient-7" id="linear-gradient-11" x1="698.62" x2="728.38"/><linearGradient xlink:href="#linear-gradient-7" id="linear-gradient-12" x1="734.04" x2="764.4"/><linearGradient xlink:href="#linear-gradient-7" id="linear-gradient-13" x1="769.76" x2="804.29"/><linearGradient xlink:href="#linear-gradient-7" id="linear-gradient-14" x1="806.37" x2="842.09"/><linearGradient xlink:href="#linear-gradient-7" id="linear-gradient-15" x1="843.88" x2="876.92"/><linearGradient xlink:href="#linear-gradient-7" id="linear-gradient-16" x1="879.89" x2="914.72"/><linearGradient xlink:href="#linear-gradient-7" id="linear-gradient-17" x1="917.99" x2="950.14"/><linearGradient xlink:href="#linear-gradient-7" id="linear-gradient-18" x1="952.82" x2="986.75"/><linearGradient xlink:href="#linear-gradient-7" id="linear-gradient-19" x1="989.43" x2="1022.77"/><linearGradient xlink:href="#linear-gradient-7" id="linear-gradient-20" x1="1024.26" x2="1047.18"/><linearGradient xlink:href="#linear-gradient-7" id="linear-gradient-21" x1="591.25" x2="626.57" y1="659.02" y2="659.02"/><linearGradient xlink:href="#linear-gradient-7" id="linear-gradient-22" x1="628.95" x2="664.56" y1="659.02" y2="659.02"/><linearGradient xlink:href="#linear-gradient-7" id="linear-gradient-23" x1="664.56" x2="694.24" y1="659.02" y2="659.02"/><linearGradient xlink:href="#linear-gradient-7" id="linear-gradient-24" x1="697.51" x2="727.19" y1="659.02" y2="659.02"/><linearGradient xlink:href="#linear-gradient-7" id="linear-gradient-25" x1="732.83" x2="763.1" y1="659.02" y2="659.02"/><linearGradient xlink:href="#linear-gradient-7" id="linear-gradient-26" x1="768.45" x2="802.88" y1="659.02" y2="659.02"/><linearGradient xlink:href="#linear-gradient-7" id="linear-gradient-27" x1="804.95" x2="840.57" y1="659.02" y2="659.02"/><linearGradient xlink:href="#linear-gradient-7" id="linear-gradient-28" x1="842.35" x2="875.3" y1="659.02" y2="659.02"/><linearGradient xlink:href="#linear-gradient-7" id="linear-gradient-29" x1="878.26" x2="912.99" y1="659.02" y2="659.02"/><linearGradient xlink:href="#linear-gradient-7" id="linear-gradient-30" x1="916.26" x2="948.31" y1="659.02" y2="659.02"/><linearGradient xlink:href="#linear-gradient-7" id="linear-gradient-31" x1="950.98" x2="984.82" y1="659.02" y2="659.02"/><linearGradient xlink:href="#linear-gradient-7" id="linear-gradient-32" x1="987.49" x2="1020.73" y1="659.02" y2="659.02"/><linearGradient xlink:href="#linear-gradient-7" id="linear-gradient-33" x1="1022.22" x2="1067.76" y1="659.02" y2="659.02"/><linearGradient xlink:href="#linear-gradient-7" id="linear-gradient-34" x1="546.97" x2="606.34" y1="644.26" y2="644.26"/><linearGradient xlink:href="#linear-gradient-7" id="linear-gradient-35" x1="536.43" x2="589.14" y1="659.02" y2="659.02"/><linearGradient xlink:href="#linear-gradient-7" id="linear-gradient-36" x1="606.34" x2="643.85" y1="644.26" y2="644.26"/><linearGradient xlink:href="#linear-gradient-7" id="linear-gradient-37" x1="643.85" x2="682.25" y1="644.26" y2="644.26"/><linearGradient xlink:href="#linear-gradient-7" id="linear-gradient-38" x1="686.09" x2="720.62" y1="644.26" y2="644.26"/><linearGradient xlink:href="#linear-gradient-7" id="linear-gradient-39" x1="725.11" x2="757.55" y1="644.26" y2="644.26"/><linearGradient xlink:href="#linear-gradient-7" id="linear-gradient-40" x1="764.4" x2="799.82" y1="644.26" y2="644.26"/><linearGradient xlink:href="#linear-gradient-7" id="linear-gradient-41" x1="802.5" x2="839.11" y1="644.26" y2="644.26"/><linearGradient xlink:href="#linear-gradient-7" id="linear-gradient-42" x1="840.6" x2="874.24" y1="644.26" y2="644.26"/><linearGradient xlink:href="#linear-gradient-7" id="linear-gradient-43" x1="876.92" x2="914.72" y1="644.26" y2="644.26"/><linearGradient xlink:href="#linear-gradient-7" id="linear-gradient-44" x1="917.99" x2="951.63" y1="644.26" y2="644.26"/><linearGradient xlink:href="#linear-gradient-7" id="linear-gradient-45" x1="954.31" x2="989.43" y1="644.26" y2="644.26"/><linearGradient xlink:href="#linear-gradient-7" id="linear-gradient-46" x1="990.92" x2="1022.77" y1="644.26" y2="644.26"/><linearGradient xlink:href="#linear-gradient-7" id="linear-gradient-47" x1="1025.15" x2="1057.22" y1="644.26" y2="644.26"/><linearGradient xlink:href="#linear-gradient-7" id="linear-gradient-48" x1="566.28" x2="603.79" y1="673.78" y2="673.78"/><linearGradient xlink:href="#linear-gradient-7" id="linear-gradient-49" x1="602.13" x2="639.63" y1="673.78" y2="673.78"/><linearGradient xlink:href="#linear-gradient-7" id="linear-gradient-50" x1="526.22" x2="565.84" y1="673.78" y2="673.78"/><linearGradient xlink:href="#linear-gradient-7" id="linear-gradient-51" x1="639.63" x2="782.96" y1="673.78" y2="673.78"/><linearGradient xlink:href="#linear-gradient-7" id="linear-gradient-52" x1="785.63" x2="822.25" y1="673.78" y2="673.78"/><linearGradient xlink:href="#linear-gradient-7" id="linear-gradient-53" x1="823.73" x2="857.37" y1="673.78" y2="673.78"/><linearGradient xlink:href="#linear-gradient-7" id="linear-gradient-54" x1="860.05" x2="897.85" y1="673.78" y2="673.78"/><linearGradient xlink:href="#linear-gradient-7" id="linear-gradient-55" x1="901.13" x2="934.76" y1="673.78" y2="673.78"/><linearGradient xlink:href="#linear-gradient-7" id="linear-gradient-56" x1="937.44" x2="972.57" y1="673.78" y2="673.78"/><linearGradient xlink:href="#linear-gradient-7" id="linear-gradient-57" x1="974.05" x2="1005.9" y1="673.78" y2="673.78"/><linearGradient xlink:href="#linear-gradient-7" id="linear-gradient-58" x1="1008.28" x2="1040.35" y1="673.78" y2="673.78"/><linearGradient xlink:href="#linear-gradient-7" id="linear-gradient-59" x1="1039.91" x2="1078.3" y1="673.78" y2="673.78"/><linearGradient id="linear-gradient-60" x1="8189.46" x2="8290.59" y1="207.93" y2="207.93" gradientTransform="rotate(-55.83 4911.94 7022.849)scale(1 -1)" gradientUnits="userSpaceOnUse"><stop offset="0" stop-color="#5b35df"/><stop offset=".01" stop-color="#5837dd"/><stop offset=".19" stop-color="#3854c3"/><stop offset=".37" stop-color="#1f6bae"/><stop offset=".56" stop-color="#0e7ca0"/><stop offset=".77" stop-color="#038597"/><stop offset="1" stop-color="#008995"/></linearGradient><linearGradient xlink:href="#linear-gradient-2" id="linear-gradient-61" x1="8228.89" x2="8290.72" y1="223.95" y2="223.95" gradientTransform="matrix(-1 0 0 1 9038.34 0)"/><linearGradient id="linear-gradient-62" x1="8189.33" x2="8251.16" y1="191.9" y2="191.9" gradientTransform="matrix(-1 0 0 1 9038.34 0)" gradientUnits="userSpaceOnUse"><stop offset="0" stop-color="#8455a2"/><stop offset=".19" stop-color="#835fa2"/><stop offset=".51" stop-color="#827da4"/><stop offset=".93" stop-color="#80aca8"/><stop offset="1" stop-color="#80b4a9"/></linearGradient><linearGradient id="linear-gradient-63" x1="8100.75" x2="8122.56" y1="249.55" y2="249.55" gradientTransform="matrix(-1 0 0 1 9038.34 0)" gradientUnits="userSpaceOnUse"><stop offset="0" stop-color="#92adcb"/><stop offset="1" stop-color="#784fde"/></linearGradient><linearGradient xlink:href="#linear-gradient-63" id="linear-gradient-64" x1="8114.46" x2="8136.05" y1="255.4" y2="255.4"/><linearGradient id="linear-gradient-65" x1="8133.96" x2="8188.35" y1="154.87" y2="154.87" gradientTransform="matrix(-1 0 0 1 9038.34 0)" gradientUnits="userSpaceOnUse"><stop offset="0" stop-color="#008995"/><stop offset="1" stop-color="#5b35df"/></linearGradient><linearGradient xlink:href="#linear-gradient-2" id="linear-gradient-66" x1="8133.83" x2="8188.35" y1="152.99" y2="152.99" gradientTransform="matrix(-1 0 0 1 9038.34 0)"/><linearGradient id="linear-gradient-67" x1="8129.42" x2="8188.35" y1="147.88" y2="147.88" gradientTransform="matrix(-1 0 0 1 9038.34 0)" gradientUnits="userSpaceOnUse"><stop offset=".39" stop-color="#9276de"/><stop offset="1" stop-color="#92adcb"/></linearGradient><linearGradient id="linear-gradient-68" x1="8070.87" x2="8197.32" y1="201.54" y2="201.54" gradientTransform="matrix(-1 0 0 1 9038.34 0)" gradientUnits="userSpaceOnUse"><stop offset="0" stop-color="#ff417d"/><stop offset=".12" stop-color="#fa507e"/><stop offset=".52" stop-color="#ee7b84"/><stop offset=".82" stop-color="#e69687"/><stop offset="1" stop-color="#e4a089"/></linearGradient><linearGradient id="linear-gradient-69" x1="8206.65" x2="8224.46" y1="181.48" y2="181.48" gradientTransform="matrix(-1 0 0 1 9038.34 0)" gradientUnits="userSpaceOnUse"><stop offset=".6" stop-color="#ff417d"/><stop offset=".65" stop-color="#fa507e"/><stop offset=".81" stop-color="#ee7b84"/><stop offset=".93" stop-color="#e69687"/><stop offset="1" stop-color="#e4a089"/></linearGradient><linearGradient xlink:href="#linear-gradient-69" id="linear-gradient-70" x1="8204.3" y1="187.65" y2="187.65"/><linearGradient xlink:href="#linear-gradient-68" id="linear-gradient-71" x1="8154.76" x2="8211.21" y1="174.19" y2="174.19"/><linearGradient xlink:href="#linear-gradient-60" id="linear-gradient-72" x1="8054.04" x2="8158.91" y1="164.88" y2="164.88" gradientTransform="matrix(-1 0 0 1 9038.34 0)"/><linearGradient xlink:href="#linear-gradient-2" id="linear-gradient-73" x1="8053.46" x2="8158.91" y1="159.3" y2="159.3" gradientTransform="matrix(-1 0 0 1 9038.34 0)"/><linearGradient xlink:href="#linear-gradient-63" id="linear-gradient-74" x1="8038.77" x2="8158.91" y1="152.02" y2="152.02"/><linearGradient xlink:href="#linear-gradient-68" id="linear-gradient-75" x1="838.99" x2="848.02" y1="173.78" y2="173.78"/><style>.cls-80,.cls-88,.cls-96,.cls-99{stroke-width:0}.cls-80{fill:#f2f4f7}.cls-88{fill:#5a5ab5}.cls-96{fill:#c2c2ff}.cls-99{fill:#a0a0ff}</style></defs><path d="M1617.16-1h-1619v882h1619z" style="fill:url(#linear-gradient);stroke-width:0"/><path d="m548.36 611.58-89.94 145.48h700l-99.24-144.42z" style="stroke-width:0;fill:url(#linear-gradient-2)"/><path d="M679.81 687.48h244.43l25.45 52.71H656.61z" style="stroke-width:0;fill:url(#linear-gradient-3)"/><path d="M1143.66 776.03H473.18l-14.76-18.97h700z" style="stroke-width:0;fill:url(#linear-gradient-4)"/><rect width="527.11" height="362.65" x="540.65" y="253.14" rx="8.45" ry="8.45" style="stroke-width:0;fill:url(#linear-gradient-5)"/><rect width="483.28" height="324.18" x="562.57" y="272.38" rx="1.83" ry="1.83" style="stroke-width:0;fill:url(#linear-gradient-6)"/><path d="m565.95 626.34-6.32 8.43h26.17l6.26-8.43z" style="stroke-width:0;fill:url(#linear-gradient-7)"/><path d="m598.9 626.34-6.84 8.43h30.36l5.06-8.43z" style="stroke-width:0;fill:url(#linear-gradient-8)"/><path d="m634.92 626.34-5.06 8.43h30.36l5.36-8.43z" style="stroke-width:0;fill:url(#linear-gradient-9)"/><path d="m670.04 626.34-4.46 8.43h26.79l2.97-8.43z" style="stroke-width:0;fill:url(#linear-gradient-10)"/><path d="m702.19 626.34-3.57 8.43h29.76v-8.43z" style="stroke-width:0;fill:url(#linear-gradient-11)"/><path d="m735.23 626.34-1.19 8.43h30.36l-1.78-8.43z" style="stroke-width:0;fill:url(#linear-gradient-12)"/><path d="m769.76 626.34 2.08 8.43h32.45l-4.76-8.43z" style="stroke-width:0;fill:url(#linear-gradient-13)"/><path d="m806.37 626.34 5.06 8.43h30.66l-7.44-8.43z" style="stroke-width:0;fill:url(#linear-gradient-14)"/><path d="m843.88 626.34 5.06 8.43h27.98l-5.96-8.43z" style="stroke-width:0;fill:url(#linear-gradient-15)"/><path d="m879.89 626.34 6.25 8.43h28.58l-6.55-8.43z" style="stroke-width:0;fill:url(#linear-gradient-16)"/><path d="m917.99 626.34 5.96 8.43h26.19l-5.65-8.43z" style="stroke-width:0;fill:url(#linear-gradient-17)"/><path d="m952.82 626.34 6.25 8.43h27.68l-5.35-8.43z" style="stroke-width:0;fill:url(#linear-gradient-18)"/><path d="m989.43 626.34 5.66 8.43h27.68l-3.87-8.43z" style="stroke-width:0;fill:url(#linear-gradient-19)"/><path d="m1024.26 626.34 5.65 8.43h17.27l-5.95-8.43z" style="stroke-width:0;fill:url(#linear-gradient-20)"/><path d="m598.08 653.75-6.83 10.54h30.28l5.04-10.54z" style="stroke-width:0;fill:url(#linear-gradient-21)"/><path d="m633.99 653.75-5.04 10.54h30.27l5.34-10.54z" style="stroke-width:0;fill:url(#linear-gradient-22)"/><path d="m669.02 653.75-4.46 10.54h26.72l2.96-10.54z" style="stroke-width:0;fill:url(#linear-gradient-23)"/><path d="m701.07 653.75-3.56 10.54h29.68v-10.54z" style="stroke-width:0;fill:url(#linear-gradient-24)"/><path d="m734.02 653.75-1.19 10.54h30.27l-1.78-10.54z" style="stroke-width:0;fill:url(#linear-gradient-25)"/><path d="m768.45 653.75 2.07 10.54h32.36l-4.75-10.54z" style="stroke-width:0;fill:url(#linear-gradient-26)"/><path d="m804.95 653.75 5.05 10.54h30.57l-7.42-10.54z" style="stroke-width:0;fill:url(#linear-gradient-27)"/><path d="m842.35 653.75 5.05 10.54h27.9l-5.94-10.54z" style="stroke-width:0;fill:url(#linear-gradient-28)"/><path d="m878.26 653.75 6.24 10.54h28.49l-6.53-10.54z" style="stroke-width:0;fill:url(#linear-gradient-29)"/><path d="m916.26 653.75 5.93 10.54h26.12l-5.64-10.54z" style="stroke-width:0;fill:url(#linear-gradient-30)"/><path d="m950.98 653.75 6.24 10.54h27.6l-5.34-10.54z" style="stroke-width:0;fill:url(#linear-gradient-31)"/><path d="m987.49 653.75 5.64 10.54h27.6l-3.86-10.54z" style="stroke-width:0;fill:url(#linear-gradient-32)"/><path d="m1022.22 653.75 5.84 10.54h39.7l-8.34-10.54z" style="stroke-width:0;fill:url(#linear-gradient-33)"/><path d="m555.41 638.99-8.44 10.54h51.83l7.54-10.54z" style="stroke-width:0;fill:url(#linear-gradient-34)"/><path d="m543.92 653.75-7.49 10.54h46.02l6.69-10.54z" style="stroke-width:0;fill:url(#linear-gradient-35)"/><path d="m613.19 638.99-6.85 10.54h30.96l6.55-10.54z" style="stroke-width:0;fill:url(#linear-gradient-36)"/><path d="m650.4 638.99-6.55 10.54h35.42l2.98-10.54z" style="stroke-width:0;fill:url(#linear-gradient-37)"/><path d="m689.66 638.99-3.57 10.54h32.74l1.79-10.54z" style="stroke-width:0;fill:url(#linear-gradient-38)"/><path d="m726.6 638.99-1.49 10.54h32.44v-10.54z" style="stroke-width:0;fill:url(#linear-gradient-39)"/><path d="m764.4 638.99 1.19 10.54h34.23l-6.84-10.54z" style="stroke-width:0;fill:url(#linear-gradient-40)"/><path d="m802.5 638.99 5.66 10.54h30.95l-7.14-10.54z" style="stroke-width:0;fill:url(#linear-gradient-41)"/><path d="m840.6 638.99 5.36 10.54h28.28l-5.36-10.54z" style="stroke-width:0;fill:url(#linear-gradient-42)"/><path d="m876.92 638.99 5.65 10.54h32.15l-5.95-10.54z" style="stroke-width:0;fill:url(#linear-gradient-43)"/><path d="m917.99 638.99 6.55 10.54h27.09l-5.95-10.54z" style="stroke-width:0;fill:url(#linear-gradient-44)"/><path d="m954.31 638.99 5.65 10.54h29.47l-7.44-10.54z" style="stroke-width:0;fill:url(#linear-gradient-45)"/><path d="m990.92 638.99 5.95 10.54h25.9l-5.36-10.54z" style="stroke-width:0;fill:url(#linear-gradient-46)"/><path d="m1025.15 638.99 5.89 10.54h26.18l-7.86-10.54z" style="stroke-width:0;fill:url(#linear-gradient-47)"/><path d="m573.13 668.5-6.85 10.55h30.96l6.55-10.55z" style="stroke-width:0;fill:url(#linear-gradient-48)"/><path d="m608.97 668.5-6.84 10.55h30.95l6.55-10.55z" style="stroke-width:0;fill:url(#linear-gradient-49)"/><path d="m535.18 668.5-8.96 10.55h33.07l6.55-10.55z" style="stroke-width:0;fill:url(#linear-gradient-50)"/><path d="M776.11 668.5H646.18l-6.55 10.55h143.33z" style="stroke-width:0;fill:url(#linear-gradient-51)"/><path d="m785.63 668.5 5.66 10.55h30.96l-7.15-10.55z" style="stroke-width:0;fill:url(#linear-gradient-52)"/><path d="m823.73 668.5 5.36 10.55h28.28l-5.36-10.55z" style="stroke-width:0;fill:url(#linear-gradient-53)"/><path d="m860.05 668.5 5.65 10.55h32.15l-5.95-10.55z" style="stroke-width:0;fill:url(#linear-gradient-54)"/><path d="m901.13 668.5 6.55 10.55h27.08l-5.95-10.55z" style="stroke-width:0;fill:url(#linear-gradient-55)"/><path d="m937.44 668.5 5.66 10.55h29.47l-7.45-10.55z" style="stroke-width:0;fill:url(#linear-gradient-56)"/><path d="m974.05 668.5 5.96 10.55h25.89l-5.35-10.55z" style="stroke-width:0;fill:url(#linear-gradient-57)"/><path d="m1008.28 668.5 5.89 10.55h26.18l-7.85-10.55z" style="stroke-width:0;fill:url(#linear-gradient-58)"/><path d="m1039.91 668.5 8 10.55h30.39l-9.96-10.55z" style="stroke-width:0;fill:url(#linear-gradient-59)"/><path d="M750.31 179.4h96.01v57.06h-96.01z" style="stroke-width:0;fill:url(#linear-gradient-60)" transform="rotate(235.83 798.306 207.941)"/><path d="m747.62 184.04 61.83 16.56-7.65 63.27z" style="stroke-width:0;fill:url(#linear-gradient-61)"/><path d="m849.02 231.82-61.83-16.56 7.64-63.27z" style="stroke-width:0;fill:url(#linear-gradient-62)"/><path d="m931.81 259.13-3.87-9.25-12.16-8.02 1.25-1.89 11.68 7.71 6.99-6.89 1.59 1.62-6.2 6.1 6.51 1.58-.54 2.2-6.3-1.53 3.14 7.49z" style="stroke-width:0;fill:url(#linear-gradient-63)"/><path d="m913.34 268.29-.71-10-10.34-14.38 1.79-1.39 9.99 13.93 8.82-4.29.99 2.04-7.82 3.8 5.66 3.58-1.22 1.92-5.47-3.48.57 8.11z" style="stroke-width:0;fill:url(#linear-gradient-64)"/><path d="M849.99 202.4c.08-.16 7.96 1.31 8.81 1.4 3.21.35 6.45.51 9.68.37 6.22-.28 12.48-1.74 17.72-5.23 18.91-12.61 17.47-39.11 17.88-59.11.09-4.17.5-8.53.17-12.69 0 0-1.82-22.82-7.92-21.57z" style="stroke-width:0;fill:url(#linear-gradient-65)"/><path d="M849.99 202.4s11.2 1.6 18.92-2.7 15.98-13.62 24.78-35.76 13.4-32.19 9.3-46.02c0 0 0-8.36-5.79-14.62l-47.21 99.09Z" style="stroke-width:0;fill:url(#linear-gradient-66)"/><path d="M849.99 202.4s18.94-10.5 26.08-23.72c6.64-12.31 22.98-42.85 29.58-64.85 1.41-4.7 3.85-10.49 3.14-15.48-1.06-7.46-7.7-5.75-9.81 0-2.65 7.22-48.99 104.05-48.99 104.05" style="stroke-width:0;fill:url(#linear-gradient-67)"/><path d="M841.02 196.25s-.43 25.06 19.9 38.31 35.45 11.68 52.48 8.89 40.66-20.52 48.22-36.08 5.64-14.34 5.64-14.34l-83.75-35.33s-8.14 42.92-42.49 38.54Z" style="stroke-width:0;fill:url(#linear-gradient-68)"/><path d="m827.87 170.31-13.99 22.34 17.81-10z" style="stroke-width:0;fill:url(#linear-gradient-69)"/><path d="m831.69 182.65-17.81 10 20.16-2.09z" style="stroke-width:0;fill:url(#linear-gradient-70)"/><path d="M883.51 157.72s-13.42-7.58-23.15-8.09c-7.29-.39-15.43.37-21.87 4.35-8.75 5.41-13.79 18.66-10.18 28.43 3.45 9.36 13.47 16.61 23.52 16.44 7.38-.12 15.17-5.95 19.67-11.51 2.82-3.49 4.95-7.51 6.85-11.57 6.25-13.38 5.15-18.06 5.15-18.06Z" style="stroke-width:0;fill:url(#linear-gradient-71)"/><path d="M879.44 190.27c.17-.11 7.11 5.97 7.9 6.56 2.97 2.23 6.08 4.3 9.37 6.05 6.32 3.38 13.38 5.61 20.61 5.23 26.13-1.38 40.27-28.46 52.41-48.02 2.53-4.07 5.51-8.15 7.62-12.47 0 0 11.59-23.67 4.82-26.01 0 0-102.72 68.64-102.74 68.66Z" style="stroke-width:0;fill:url(#linear-gradient-72)"/><path d="M879.44 190.27s10.15 8.16 20.32 8.44 23.82-4.1 45.54-20.85 32.17-24 36.23-40.1c0 0 4.91-8.27 2.85-17.87l-104.94 70.39Z" style="stroke-width:0;fill:url(#linear-gradient-73)"/><path d="M879.44 190.27s24.92.73 39.75-8.17c13.81-8.29 47.91-28.93 67.38-46.84 4.16-3.83 9.97-8.13 12.2-13.48 3.33-8.01-4.24-10.21-9.71-5.75-6.86 5.59-109.61 74.24-109.61 74.24Z" style="stroke-width:0;fill:url(#linear-gradient-74)"/><path d="M827.87 170.13s27.75-6.29 44.48-17.32c0 0 3.78 27.3-18.41 32.55-22.2 5.25-26.06-15.23-26.06-15.23Z" style="stroke-width:0;fill:#2b2b60"/><circle cx="843.51" cy="173.78" r="4.51" style="stroke-width:0;fill:url(#linear-gradient-75)"/><circle cx="843.51" cy="173.78" r="3.32" style="stroke-width:0"/><circle cx="844.04" cy="172.58" r="1.07" style="stroke-width:0;fill:#f6f4ff"/><path d="M806.56 205.66c.45 2.17.74 4.7 0 6.96-.73 2.23-2.4 3.92-4.02 5.41-1.95 1.09-4.24 2.13-6.64 2.13s-4.56-1.03-6.49-2.09c-1.65-1.5-3.36-3.2-4.1-5.45-.73-2.23-.42-4.74 0-6.89.93-2.01 2.16-4.26 4.1-5.66 1.92-1.38 4.3-1.75 6.5-2.01 2.23.25 4.69.75 6.63 2.15 1.92 1.38 3.09 3.47 4.02 5.45" style="stroke-width:0;fill:#fff"/><path d="M795.93 219.73c-2.37 0-4.59-.61-6.53-1.67.07 1.5 3.01 3.27 6.58 3.27s6.34-2.18 6.56-3.32a13.5 13.5 0 0 1-6.61 1.71Z" style="stroke-width:0;fill:#ade7d9"/><path d="M789.41 218.07c-1.65-1.5-2.95-3.43-3.69-5.68-.73-2.23-.84-4.51-.41-6.65-1.3.31-1.98 4.67-1.12 7.2.87 2.53 3.93 5.69 5.22 5.14Z" style="stroke-width:0;fill:#cdcfdb"/><path d="M789.63 200.5c1.92-1.38 4.08-2.18 6.27-2.44-1.07-.93-5.39-.24-7.27 1.17-1.88 1.42-4.09 5.17-3.33 6.5.93-2.02 2.38-3.83 4.33-5.23" style="stroke-width:0;fill:#f9c2d6"/><path d="M795.91 198.06c2.3.26 4.49 1.11 6.36 2.46 1.92 1.38 3.36 3.16 4.29 5.14.81-1.35-.99-4.92-3.37-6.47s-6.67-1.96-7.28-1.13" style="stroke-width:0;fill:#f8e4ab"/><path d="M806.56 205.66c.45 2.17.35 4.48-.4 6.74a13.25 13.25 0 0 1-3.62 5.62c1.84.18 4.4-2.24 5.18-5.17s-.02-7.03-1.16-7.19" style="stroke-width:0;fill:#bfdd9b"/><path d="M784.19 212.92c-.79.98.21 5.11 3.54 7.44 3.33 2.34 7.53 1.83 8.26.97-2.45-.47-4.74-1.6-6.58-3.27-2.18-1.2-3.99-2.99-5.22-5.14" style="stroke-width:0;fill:#9db8d6"/><path d="M807.72 212.85a13.47 13.47 0 0 1-5.18 5.17 13.6 13.6 0 0 1-6.56 3.32c.88 1.06 5.66.52 8.25-1.03s3.99-6.12 3.49-7.47Z" style="stroke-width:0;fill:#92dbcb"/><path d="M785.3 205.73c.48-2.43 1.64-4.68 3.33-6.5-1.74-.64-5.04 2.25-6.07 5.63-1.02 3.38-.2 7.25 1.62 8.07-.31-2.45.08-4.95 1.12-7.2" style="stroke-width:0;fill:#f8a0ac"/><path d="M795.91 198.06c2.48-.3 5.01.09 7.28 1.13.74-1.39-3.98-3.97-7.28-3.97s-7.2 2.25-7.26 4.01c2.26-1.05 4.79-1.46 7.27-1.17Z" style="stroke-width:0;fill:#f8c5a3"/><path d="M807.72 212.85c1.57-.3 2.74-4.16 1.56-8.08-1.18-3.91-4.83-5.99-6.1-5.59a13.3 13.3 0 0 1 3.38 6.47c1.05 2.24 1.46 4.74 1.16 7.19Z" style="stroke-width:0;fill:#e2ce96"/><path d="M787.73 220.37a13.256 13.256 0 0 1-3.54-7.44 13.13 13.13 0 0 1-1.71-6.5c0-.53.03-1.06.09-1.57-1.26.35-2.78 5.35-1.4 9.05s5.38 6.67 6.56 6.46" style="stroke-width:0;fill:#9d92d1"/><path d="M804.24 220.31c-.5.23-1.02.44-1.56.61-2.24.72-4.53.83-6.69.42-2.19.43-4.51.33-6.78-.4-.51-.16-1.01-.36-1.48-.57.59 1.8 3.6 4.11 8.27 4.11s7.38-2.27 8.24-4.17" style="stroke-width:0;fill:#57b1af"/><path d="M809.29 204.77c.07.54.1 1.1.1 1.66 0 2.33-.6 4.52-1.67 6.42-.26 2.19-1.08 4.34-2.48 6.25-.32.43-.65.84-1.01 1.22 2.16.14 5.35-2.22 6.51-6.51 1.16-4.28-.29-8.51-1.46-9.04Z" style="stroke-width:0;fill:#68bb7e"/><path d="M782.57 204.86a13.324 13.324 0 0 1 6.06-5.62c1.51-1.62 3.45-2.89 5.72-3.62.51-.16 1.03-.3 1.54-.4-1.83-.9-6.29-.37-9.14 1.48-2.85 1.84-4.71 6.42-4.19 8.16Z" style="stroke-width:0;fill:#f8797d"/><path d="M795.9 195.22c.54.1 1.09.24 1.63.41 2.24.72 4.16 1.96 5.66 3.55 2.02.92 3.84 2.35 5.24 4.26.32.43.6.87.86 1.33.82-1.55-1.67-6.22-4.24-8.14s-7.23-2.27-9.14-1.42Z" style="stroke-width:0;fill:#f8b380"/><path d="M782.57 204.86a13.2 13.2 0 0 1 4.19-8.16c-2.84 1.58-5.11 4.18-6.19 7.48-1.1 3.33-.79 6.79.6 9.73-.61-3.01-.18-6.22 1.4-9.05" style="stroke-width:0;fill:#805280"/><path d="M787.73 220.37c-2.88-1.31-5.21-3.6-6.56-6.46.64 3.16 2.44 6.09 5.28 8.13 2.87 2.06 6.28 2.84 9.54 2.44-3.09-.35-6.04-1.76-8.27-4.11Z" style="stroke-width:0;fill:#8075ad"/><path d="M804.24 220.31a13.54 13.54 0 0 1-8.24 4.17c3.23.37 6.61-.41 9.46-2.45 2.87-2.06 4.67-5.03 5.3-8.22a13.38 13.38 0 0 1-6.51 6.51Z" style="stroke-width:0;fill:#309680"/><path d="M809.29 204.77c1.6 2.82 2.06 6.02 1.46 9.04 1.36-2.93 1.65-6.35.56-9.65a13.24 13.24 0 0 0-6.27-7.52c2.29 2.08 3.84 4.93 4.24 8.13Z" style="stroke-width:0;fill:#568e58"/><path d="M795.9 195.22c3.21-.63 6.43-.07 9.14 1.42-2.4-2.18-5.59-3.51-9.11-3.51s-6.77 1.36-9.17 3.57c2.71-1.51 5.93-2.09 9.14-1.48" style="stroke-width:0;fill:#f89252"/><path d="M1005.76 445.93q-1.755 0-3.24-.87c-.99-.58-1.8-1.37-2.42-2.37-.58-.99-.87-2.09-.87-3.29v-12.76h-3.14v-7.2h3.6l3.09-6.95h4.78v6.95h4.78v5.15l-1.85 2.06h-2.93v10.19c0 .41.1.72.31.93s.5.31.87.31h3.96v7.87h-6.95ZM974.7 445.93v-7.2h9.78c.38 0 .65-.09.82-.26.21-.21.31-.46.31-.77v-.31c0-.31-.1-.55-.31-.72-.17-.17-.48-.33-.93-.46l-4.58-1.39c-1.13-.38-2.08-.81-2.83-1.29a5.6 5.6 0 0 1-1.7-1.9c-.38-.79-.57-1.72-.57-2.78v-2.88c0-1.2.29-2.3.87-3.29.62-.99 1.42-1.78 2.42-2.37.99-.58 2.08-.87 3.24-.87h11.99v5.15l-1.85 2.06h-7.05c-.38 0-.67.09-.87.26-.17.14-.26.36-.26.67v.26c0 .27.1.51.31.72s.51.36.93.46l4.63 1.44c1.13.34 2.06.77 2.78 1.29.75.48 1.32 1.1 1.7 1.85s.57 1.66.57 2.73v3.09c0 1.2-.29 2.3-.87 3.29q-.87 1.485-2.37 2.37c-.99.58-2.09.87-3.29.87h-12.86ZM957.92 430.08h4.89v-3.19c0-.41-.1-.7-.31-.87-.17-.21-.46-.31-.87-.31h-2.47c-.41 0-.72.1-.93.31-.21.17-.31.46-.31.87zm-1.59 15.85c-1.2 0-2.3-.29-3.29-.87a6.57 6.57 0 0 1-2.37-2.37c-.58-.99-.87-2.09-.87-3.29v-13.94c0-1.2.29-2.3.87-3.29q.87-1.485 2.37-2.37c.99-.58 2.09-.87 3.29-.87h8.13q1.755 0 3.24.87t2.37 2.37c.62.99.93 2.09.93 3.29v10.19h-12.86v2.21c0 .41.1.72.31.93s.5.31.87.31h10.44v6.84h-13.43ZM932.72 416.19c0-1.2.29-2.3.87-3.29q.87-1.485 2.37-2.37c.99-.58 2.09-.87 3.29-.87h9.52v7.2h-6.53c-.38 0-.67.1-.87.31-.21.17-.31.46-.31.87V422h5.66v5.04l-.98 2.16h-4.68v16.72h-8.34v-29.74ZM913.52 445.92v-26.5h5.25l1.18 2.83h.26c.41-.86 1.06-1.63 1.96-2.32.89-.69 1.92-1.03 3.09-1.03h4.12v8.39h-6.07c-.34 0-.62.07-.82.21-.21.1-.36.26-.46.46-.1.21-.15.48-.15.82v17.13h-8.34ZM896.11 430.08H901v-3.19c0-.41-.1-.7-.31-.87-.17-.21-.46-.31-.87-.31h-2.47c-.41 0-.72.1-.93.31-.21.17-.31.46-.31.87zm-1.59 15.85c-1.2 0-2.3-.29-3.29-.87a6.57 6.57 0 0 1-2.37-2.37c-.58-.99-.87-2.09-.87-3.29v-13.94c0-1.2.29-2.3.87-3.29q.87-1.485 2.37-2.37c.99-.58 2.09-.87 3.29-.87h8.13q1.755 0 3.24.87t2.37 2.37c.62.99.93 2.09.93 3.29v10.19h-12.86v2.21c0 .41.1.72.31.93s.5.31.87.31h10.44v6.84h-13.43ZM874.52 438.22c.41 0 .7-.1.87-.31.21-.21.31-.5.31-.87v-9.21c0-.41-.1-.7-.31-.87-.17-.21-.46-.31-.87-.31h-1.96c-.48 0-.86.07-1.13.21s-.5.36-.67.67q-.21.405-.21 1.08v9.62h3.96Zm-12.09 7.72v-35.76h8.34v11.99h.26c.38-.82.99-1.56 1.85-2.21.89-.69 1.92-1.03 3.09-1.03h1.54c1.2 0 2.28.27 3.24.82s1.72 1.32 2.26 2.32c.58.96.87 2.02.87 3.19v14.15c0 1.2-.31 2.3-.93 3.29q-.87 1.485-2.37 2.37c-.99.58-2.08.87-3.24.87h-14.92ZM848.43 438.72c.41 0 .7-.1.87-.31.21-.21.31-.5.31-.87v-9.72c0-.41-.1-.7-.31-.87-.17-.21-.46-.31-.87-.31h-2.73c-.41 0-.72.1-.93.31-.21.17-.31.46-.31.87v9.72c0 .38.1.67.31.87s.51.31.93.31zm-5.56 7.72c-1.2 0-2.3-.29-3.29-.87a6.57 6.57 0 0 1-2.37-2.37c-.58-.99-.87-2.09-.87-3.29v-14.46c0-1.2.29-2.3.87-3.29q.87-1.485 2.37-2.37c.99-.58 2.09-.87 3.29-.87h8.39q1.755 0 3.24.87t2.37 2.37c.62.99.93 2.09.93 3.29v14.46c0 1.2-.31 2.3-.93 3.29q-.87 1.485-2.37 2.37c-.99.58-2.08.87-3.24.87zM826.28 445.93q-1.755 0-3.24-.87c-.99-.58-1.8-1.37-2.42-2.37-.58-.99-.87-2.09-.87-3.29v-12.76h-3.14v-7.2h3.6l3.09-6.95h4.78v6.95h4.78v5.15l-1.85 2.06h-2.93v10.19c0 .41.1.72.31.93s.5.31.87.31h3.96v7.87h-6.95ZM793.19 445.93v-35.76h8.33v18.68h1.96l3.5-9.41h7.56v3.85l-4.01 9.11 4.37 9.67v3.86h-7.82l-3.6-9.52h-1.96v9.52zM777.6 445.93c-1.2 0-2.3-.29-3.29-.87a6.57 6.57 0 0 1-2.37-2.37c-.58-.99-.87-2.09-.87-3.29v-13.43c0-1.2.29-2.3.87-3.29q.87-1.485 2.37-2.37c.99-.58 2.09-.87 3.29-.87h11.47v6.02l-1.7 1.85h-6.79c-.38 0-.67.1-.87.31s-.31.51-.31.93v8.28c0 .41.1.72.31.93s.5.31.87.31h8.49v7.87H777.6ZM756.58 439.75c.41 0 .75-.07 1.03-.21.31-.17.53-.39.67-.67.17-.31.26-.67.26-1.08v-2.52h-3.65c-.41 0-.72.1-.93.31s-.31.51-.31.93v2.06c0 .38.1.67.31.87.21.21.51.31.93.31h1.7Zm-4.53 6.69c-1.2 0-2.28-.27-3.24-.82a6.44 6.44 0 0 1-2.32-2.26c-.55-.99-.82-2.08-.82-3.24v-4.06c0-1.17.27-2.23.82-3.19.58-.99 1.35-1.77 2.32-2.32.96-.55 2.04-.82 3.24-.82h6.33v-2.32c0-.41-.1-.7-.31-.87-.17-.21-.46-.31-.87-.31h-9.21v-6.79h12.35c1.2 0 2.28.27 3.24.82s1.72 1.32 2.26 2.32c.58.96.87 2.02.87 3.19v20.17h-5.25l-1.18-2.83h-.26c-.41.86-1.08 1.63-2.01 2.32-.89.69-1.92 1.03-3.09 1.03h-2.88ZM719.54 445.92V409.9h8.59v13.9h4.53v-13.9h8.59v36.02h-8.59v-14.15h-4.53v14.15z" class="cls-80"/><path d="M652.28 435v-13.39h12.06v2.49l-1.34 1.33h-6.51v1.73h5.55v3.82h-5.55V435zM636.4 435v-13.39h4.21v4.78h5.74v-4.78h4.21V435h-4.21v-4.78h-5.74V435z" class="cls-96"/><path d="M651.45 450.16h3.67v3.67h-3.67zM655.12 450.16h3.67v3.67h-3.67z" class="cls-88"/><path d="M655.12 446.5h3.67v3.67h-3.67z" class="cls-99"/><path d="M658.79 442.83h3.67v3.67h-3.67z" class="cls-88"/><path d="M658.79 439.17h3.67v3.67h-3.67zM651.45 402.53h3.67v3.67h-3.67zM655.12 402.53h3.67v3.67h-3.67z" class="cls-88"/><path d="M655.12 406.19h3.67v3.67h-3.67z" class="cls-99"/><path d="M658.79 409.86h3.67v3.67h-3.67zM644.12 450.16h3.67v3.67h-3.67z" class="cls-88"/><path d="M640.46 450.16h3.67v3.67h-3.67z" class="cls-88"/><path d="M640.46 446.5h3.67v3.67h-3.67z" class="cls-99"/><path d="M636.79 442.83h3.67v3.67h-3.67z" class="cls-88"/><path d="M636.79 439.17h3.67v3.67h-3.67zM644.12 402.53h3.67v3.67h-3.67z" class="cls-88"/><path d="M640.46 402.53h3.67v3.67h-3.67z" class="cls-88"/><path d="M640.46 406.19h3.67v3.67h-3.67z" class="cls-99"/><path d="M636.79 409.86h3.67v3.67h-3.67z" class="cls-88"/><path d="M658.77 402.52h3.67v3.67h-3.67z" class="cls-99"/><path d="M662.43 406.18h3.67v3.67h-3.67z" class="cls-88"/><path d="M666.1 406.18h3.67v3.67h-3.67z" class="cls-99"/><path d="M669.76 409.84h3.67v3.67h-3.67z" class="cls-99"/><path d="M673.43 413.51h3.67v3.67h-3.67z" class="cls-88"/><path d="M673.43 417.18h3.67v3.67h-3.67zM677.1 420.85h3.67v3.67h-3.67z" class="cls-99"/><path d="M677.1 424.51h3.67v3.67h-3.67z" class="cls-88"/><path d="M658.77 450.18h3.67v3.67h-3.67z" class="cls-99"/><path d="M662.43 446.52h3.67v3.67h-3.67z" class="cls-88"/><path d="M666.1 446.52h3.67v3.67h-3.67z" class="cls-99"/><path d="M669.76 442.85h3.67v3.67h-3.67z" class="cls-99"/><path d="M673.43 439.19h3.67v3.67h-3.67z" class="cls-88"/><path d="M673.43 435.52h3.67v3.67h-3.67zM677.1 431.85h3.67v3.67h-3.67z" class="cls-99"/><path d="M677.1 428.19h3.67v3.67h-3.67z" class="cls-88"/><path d="M636.79 402.52h3.67v3.67h-3.67z" class="cls-99"/><path d="M633.13 406.18h3.67v3.67h-3.67z" class="cls-88"/><path d="M629.46 406.18h3.67v3.67h-3.67z" class="cls-99"/><path d="M625.8 409.84h3.67v3.67h-3.67z" class="cls-99"/><path d="M622.13 413.51h3.67v3.67h-3.67z" class="cls-88"/><path d="M622.13 417.18h3.67v3.67h-3.67zM618.47 420.85h3.67v3.67h-3.67z" class="cls-99"/><path d="M618.47 424.51h3.67v3.67h-3.67z" class="cls-88"/><path d="M636.79 450.18h3.67v3.67h-3.67z" class="cls-99"/><path d="M633.13 446.52h3.67v3.67h-3.67z" class="cls-88"/><path d="M629.46 446.52h3.67v3.67h-3.67z" class="cls-99"/><path d="M625.8 442.85h3.67v3.67h-3.67z" class="cls-99"/><path d="M622.13 439.19h3.67v3.67h-3.67z" class="cls-88"/><path d="M622.13 435.52h3.67v3.67h-3.67z" class="cls-99"/><path d="M618.47 431.85h3.67v3.67h-3.67z" class="cls-99"/><path d="M618.47 428.19h3.67v3.67h-3.67zM666.12 402.52h3.67v3.67h-3.67z" class="cls-88"/><path d="M669.78 406.18h3.67v3.67h-3.67z" class="cls-88"/><path d="M669.78 402.52h3.67v3.67h-3.67zM673.45 406.18h3.67v3.67h-3.67zM677.12 409.85h3.67v3.67h-3.67z" class="cls-99"/><path d="M677.12 406.18h3.67v3.67h-3.67zM680.78 409.85h3.67v3.67h-3.67zM684.45 413.51h3.67v3.67h-3.67z" class="cls-88"/><path d="M688.11 417.19h3.67v3.67h-3.67z" class="cls-99"/><path d="M688.11 420.85h3.67v3.67h-3.67zM662.45 402.52h3.67v3.67h-3.67zM666.12 450.19h3.67v3.67h-3.67zM662.45 450.19h3.67v3.67h-3.67zM669.78 446.52h3.67v3.67h-3.67z" class="cls-88"/><path d="M669.78 450.19h3.67v3.67h-3.67zM673.45 446.52h3.67v3.67h-3.67zM677.12 442.86h3.67v3.67h-3.67z" class="cls-99"/><path d="M677.12 446.52h3.67v3.67h-3.67z" class="cls-88"/><path d="M680.78 442.86h3.67v3.67h-3.67zM684.45 439.19h3.67v3.67h-3.67z" class="cls-88"/><path d="M688.11 435.52h3.67v3.67h-3.67z" class="cls-99"/><path d="M688.11 431.86h3.67v3.67h-3.67z" class="cls-88"/><path d="M688.11 430.02h3.67v3.67h-3.67zM629.46 402.52h3.67v3.67h-3.67zM625.79 406.18h3.67v3.67h-3.67z" class="cls-88"/><path d="M625.79 402.52h3.67v3.67h-3.67z" class="cls-99"/><path d="M622.13 406.18h3.67v3.67h-3.67zM618.46 409.85h3.67v3.67h-3.67z" class="cls-99"/><path d="M618.46 406.18h3.67v3.67h-3.67zM614.79 409.85h3.67v3.67h-3.67z" class="cls-88"/><path d="M611.13 413.51h3.67v3.67h-3.67z" class="cls-88"/><path d="M607.47 417.18h3.67v3.67h-3.67z" class="cls-99"/><path d="M607.47 420.85h3.67v3.67h-3.67z" class="cls-88"/><path d="M607.47 424.51h3.67v3.67h-3.67zM633.12 402.52h3.67v3.67h-3.67zM629.46 450.19h3.67v3.67h-3.67z" class="cls-88"/><path d="M633.12 450.19h3.67v3.67h-3.67zM625.79 446.52h3.67v3.67h-3.67z" class="cls-88"/><path d="M625.79 450.19h3.67v3.67h-3.67zM622.13 446.52h3.67v3.67h-3.67zM618.46 442.86h3.67v3.67h-3.67z" class="cls-99"/><path d="M618.46 446.52h3.67v3.67h-3.67zM614.79 442.86h3.67v3.67h-3.67zM611.13 439.19h3.67v3.67h-3.67z" class="cls-88"/><path d="M607.47 435.52h3.67v3.67h-3.67z" class="cls-99"/><path d="M607.47 431.86h3.67v3.67h-3.67zM607.47 428.19h3.67v3.67h-3.67z" class="cls-88"/><path d="M680.78 406.21h3.67v3.67h-3.67z" class="cls-99"/><path d="M684.45 406.21h3.67v3.67h-3.67z" class="cls-88"/><path d="M684.45 409.88h3.67v3.67h-3.67z" class="cls-99"/><path d="M688.11 409.88h3.67v3.67h-3.67z" class="cls-88"/><path d="M691.78 409.88h3.67v3.67h-3.67z" class="cls-99"/><path d="M691.78 413.54h3.67v3.67h-3.67z" class="cls-88"/><path d="M695.45 413.54h3.67v3.67h-3.67z" class="cls-99"/><path d="M695.45 417.2h3.67v3.67h-3.67zM699.11 420.88h3.67v3.67h-3.67z" class="cls-99"/><path d="M699.11 424.54h3.67v3.67h-3.67zM680.78 446.52h3.67v3.67h-3.67z" class="cls-99"/><path d="M684.45 446.52h3.67v3.67h-3.67z" class="cls-88"/><path d="M684.45 442.86h3.67v3.67h-3.67z" class="cls-99"/><path d="M688.11 442.86h3.67v3.67h-3.67z" class="cls-88"/><path d="M691.78 442.86h3.67v3.67h-3.67z" class="cls-99"/><path d="M691.78 439.19h3.67v3.67h-3.67z" class="cls-88"/><path d="M695.45 439.19h3.67v3.67h-3.67z" class="cls-99"/><path d="M695.45 435.53h3.67v3.67h-3.67z" class="cls-99"/><path d="M699.11 431.86h3.67v3.67h-3.67zM699.11 428.19h3.67v3.67h-3.67zM614.79 406.21h3.67v3.67h-3.67z" class="cls-99"/><path d="M611.13 406.21h3.67v3.67h-3.67z" class="cls-88"/><path d="M611.13 409.88h3.67v3.67h-3.67z" class="cls-99"/><path d="M607.46 409.88h3.67v3.67h-3.67z" class="cls-88"/><path d="M603.79 409.88h3.67v3.67h-3.67z" class="cls-99"/><path d="M603.79 413.54h3.67v3.67h-3.67z" class="cls-88"/><path d="M600.12 413.54h3.67v3.67h-3.67z" class="cls-99"/><path d="M600.12 417.2h3.67v3.67h-3.67zM596.46 420.88h3.67v3.67h-3.67z" class="cls-99"/><path d="M596.46 424.54h3.67v3.67h-3.67zM614.79 446.52h3.67v3.67h-3.67z" class="cls-99"/><path d="M611.13 446.52h3.67v3.67h-3.67z" class="cls-88"/><path d="M611.13 442.86h3.67v3.67h-3.67z" class="cls-99"/><path d="M607.46 442.86h3.67v3.67h-3.67z" class="cls-88"/><path d="M603.79 442.86h3.67v3.67h-3.67z" class="cls-99"/><path d="M603.79 439.19h3.67v3.67h-3.67z" class="cls-88"/><path d="M600.12 439.19h3.67v3.67h-3.67z" class="cls-99"/><path d="M600.12 435.53h3.67v3.67h-3.67z" class="cls-99"/><path d="M596.46 431.86h3.67v3.67h-3.67zM596.46 428.19h3.67v3.67h-3.67z" class="cls-99"/><path d="M647.8 446.5h3.67v3.67h-3.67zM647.8 439.18h3.67v3.67h-3.67z" class="cls-88"/><path d="M647.8 409.85h3.67v3.67h-3.67zM647.8 402.52h3.67v3.67h-3.67zM647.8 450.17h3.67v3.67h-3.67zM647.8 442.85h3.67v3.67h-3.67z" class="cls-99"/><path d="M647.8 413.51h3.67v3.67h-3.67zM647.8 406.19h3.67v3.67h-3.67zM625.81 426.35h3.67v3.67h-3.67z" class="cls-88"/><path d="M611.15 426.35h3.67v3.67h-3.67zM603.81 426.35h3.67v3.67h-3.67z" class="cls-99"/><path d="M680.78 426.35h3.67v3.67h-3.67zM614.81 426.35h3.67v3.67h-3.67zM688.12 422.68h3.67v3.67h-3.67z" class="cls-88"/><path d="M673.46 426.35h3.67v3.67h-3.67zM691.78 426.35h3.67v3.67h-3.67z" class="cls-99"/><path d="M695.45 426.35h3.67v3.67h-3.67z" class="cls-88"/><path d="M622.14 426.35h3.67v3.67h-3.67z" class="cls-99"/><path d="M600.15 426.35h3.67v3.67h-3.67z" class="cls-88"/><path d="M684.45 426.35h3.67v3.67h-3.67z" class="cls-99"/><path d="M669.79 426.35h3.67v3.67h-3.67zM629.46 442.85h3.67v3.67h-3.67zM666.11 442.85h3.67v3.67h-3.67z" class="cls-88"/><path d="M636.79 439.19h3.67v3.67h-3.67zM658.78 439.19h3.67v3.67h-3.67z" class="cls-99"/><path d="M629.46 409.86h3.67v3.67h-3.67zM666.11 409.86h3.67v3.67h-3.67z" class="cls-88"/><path d="M636.79 413.52h3.67v3.67h-3.67zM658.78 413.52h3.67v3.67h-3.67z" class="cls-99"/></svg>