<svg xmlns="http://www.w3.org/2000/svg" fill="none" viewBox="0 0 600 600"><path fill="url(#a)" d="M600 0H0v600h600V0Z"/><path fill="url(#b)" d="m237.704 147.888 40.579 54.848 35.527-22.129-40.579-54.847-35.527 22.128Z"/><path fill="url(#c)" d="m237.65 147.733 46.52 11.442-5.75 43.674-40.77-55.116Z"/><path fill="url(#d)" d="m313.95 180.727-46.53-11.432 5.75-43.684 40.78 55.116Z"/><path fill="#fff" d="m399.26 211.621-3.709-8.12-11.63-7.047 1.189-1.661 11.181 6.772 6.689-6.047 1.53 1.413-5.939 5.368 6.23 1.385-.51 1.936-6.031-1.349 3 6.579-2 .771ZM381.581 219.668l-.68-8.781-9.9-12.625 1.71-1.23 9.56 12.24 8.45-3.762.95 1.79-7.49 3.33 5.42 3.157-1.16 1.679-5.25-3.056.55 7.12-2.16.138Z"/><path fill="url(#e)" d="M320.921 161.78c.07-.137 7.62 1.147 8.44 1.23 3.08.312 6.18.449 9.27.321 5.96-.248 11.95-1.532 16.97-4.597 18.11-11.084 16.73-34.361 17.12-51.932.08-3.661.48-7.496.16-11.157 0 0-1.75-20.048-7.59-18.947l-44.38 85.073.01.009Z"/><path fill="url(#f)" d="M320.921 161.781s10.72 1.404 18.12-2.377c7.4-3.78 15.3-11.964 23.73-31.416 8.43-19.451 12.83-28.278 8.9-40.426 0 0 0-7.35-5.55-12.845l-45.21 87.064h.01Z"/><path fill="url(#g)" d="M320.921 161.78s18.139-9.221 24.969-20.837c6.36-10.817 22.01-37.646 28.33-56.978 1.35-4.129 3.68-9.221 3-13.598-1.02-6.55-7.369-5.046-9.389 0-2.54 6.34-46.91 91.413-46.91 91.413Z"/><path fill="url(#h)" d="M312.32 156.385s-.41 22.021 19.05 33.655c19.46 11.643 33.94 10.258 50.25 7.817 16.31-2.449 38.94-18.029 46.17-31.691 7.24-13.671 5.4-12.598 5.4-12.598L353 122.528s-7.79 37.711-40.69 33.857h.01Z"/><path fill="#fff" d="m299.38 137.393-10.62 16.625 13.96-7.689-3.34-8.936ZM302.72 146.329l-13.96 7.689 20.83-2.551-6.87-5.138Z"/><path fill="url(#i)" d="M353.011 122.529s-12.851-6.652-22.171-7.111c-6.98-.34-14.769.321-20.939 3.826-8.38 4.753-13.2 16.396-9.75 24.975 3.31 8.221 12.9 14.598 22.52 14.451 7.07-.11 14.53-5.23 18.84-10.111 2.7-3.065 4.74-6.597 6.56-10.157 5.99-11.763 4.93-15.864 4.93-15.864l.01-.009Z"/><path fill="#000" d="M314.711 142.613c3.595 0 6.51-2.674 6.51-5.973s-2.915-5.973-6.51-5.973c-3.596 0-6.51 2.674-6.51 5.973s2.914 5.973 6.51 5.973Z"/><path fill="#fff" d="M315.371 134.888c.596 0 1.08-.444 1.08-.991 0-.547-.484-.991-1.08-.991-.597 0-1.079.444-1.079.991 0 .547.482.991 1.079.991Z"/><path fill="url(#j)" d="M349.11 151.128c.16-.101 6.81 5.248 7.57 5.771 2.85 1.963 5.83 3.78 8.97 5.312 6.05 2.964 12.81 4.928 19.74 4.588 25.02-1.211 38.56-25.012 50.19-42.188 2.42-3.578 5.27-7.166 7.3-10.955 0 0 11.1-20.791 4.62-22.846 0 0-98.36 60.309-98.38 60.318h-.01Z"/><path fill="url(#k)" d="M349.11 151.127s9.72 7.166 19.46 7.414c9.74.248 22.81-3.597 43.6-18.323 20.79-14.717 30.81-21.085 34.69-35.233 0 0 4.71-7.267 2.73-15.699l-100.48 61.841Z"/><path fill="url(#l)" d="M349.11 151.127s23.86.643 38.06-7.184c13.22-7.276 45.88-25.415 64.52-41.151 3.98-3.358 9.55-7.138 11.68-11.845 3.19-7.038-4.06-8.974-9.3-5.056-6.57 4.909-104.95 65.227-104.95 65.227l-.01.009Z"/><path fill="#000" d="M298.679 134.42s29.06-7.148 44.47-16.47c0 0-.01 24.911-20.46 29.343-20.45 4.44-24.01-12.873-24.01-12.873Z"/><path fill="url(#m)" d="M312.499 139.301c2.044 0 3.7-1.519 3.7-3.394 0-1.875-1.656-3.395-3.7-3.395-2.043 0-3.7 1.52-3.7 3.395s1.657 3.394 3.7 3.394Z"/><path fill="#000" d="M312.499 138.402c1.502 0 2.72-1.117 2.72-2.495 0-1.378-1.218-2.496-2.72-2.496-1.502 0-2.72 1.118-2.72 2.496s1.218 2.495 2.72 2.495Z"/><path fill="#F9F7FF" d="M312.939 135.815c.486 0 .88-.362.88-.807 0-.446-.394-.808-.88-.808s-.88.362-.88.808c0 .445.394.807.88.807Z"/><path fill="url(#n)" d="M300.1 526.94c78.48 0 142.1-3.344 142.1-7.47 0-4.126-63.62-7.47-142.1-7.47-78.48 0-142.1 3.344-142.1 7.47 0 4.126 63.62 7.47 142.1 7.47Z" opacity=".22"/><path fill="url(#o)" d="M350.939 509.899h-102.72l5.87-40.555h91.81l5.04 40.555Z"/><path fill="url(#p)" d="M97 435.387v25.039c0 5.083 4.53 9.24 10.08 9.24h385c5.54 0 10.07-4.157 10.07-9.24v-25.039H97Z"/><path fill="url(#q)" d="M502.15 222.75c0-5.083-4.53-9.249-10.07-9.249h-385c-5.54 0-10.08 4.157-10.08 9.249v212.636h405.15V222.75Z"/><path fill="url(#r)" d="M487.75 226.22h-376.6v197.231h376.6V226.22Z"/><path fill="url(#s)" d="M248.22 509.899h102.72l18.07 3.918-138.86.1 18.07-4.018Z"/><path fill="url(#t)" d="M368.059 515.999h-136.97l-.91-2.082 138.83-.101-.95 2.183Z"/><path fill="#fff" d="M306.78 453.618c0 3.651-3.23 6.615-7.21 6.615s-7.21-2.964-7.21-6.615c0-3.652 3.22-6.616 7.21-6.616 3.99 0 7.21 2.964 7.21 6.616Z"/><path fill="#F3F0E0" d="M283.621 312.821h3.701v8.022h6.339v-8.022h3.702v19.637h-3.703v-8.081h-6.34v8.081h-3.701l.002-19.637Zm27.099 15.429h-6.679l-.954 4.208h-3.873l4.683-19.637h6.959l4.684 19.637h-3.873l-.955-4.208h.008Zm-5.892-3.533h5.077l-2.272-10.047h-.505l-2.3 10.047Zm19.498 4.767c.709 0 1.293-.107 1.753-.322.459-.216.815-.506 1.068-.869.252-.367.425-.787.518-1.262a7.66 7.66 0 0 0 .14-1.474v-.505h3.702v.505c0 2.338-.614 4.138-1.84 5.401-1.224 1.263-3.006 1.894-5.345 1.894-2.338 0-4.022-.683-5.331-2.049-1.308-1.366-1.963-3.359-1.963-5.978v-4.375c0-1.252.168-2.379.506-3.382.337-1.002.822-1.844 1.457-2.525a6.349 6.349 0 0 1 2.3-1.57c.895-.367 1.909-.546 3.031-.546 1.121 0 2.189.168 3.086.507a5.962 5.962 0 0 1 2.259 1.458 6.173 6.173 0 0 1 1.376 2.298c.307.896.464 1.91.464 3.031v.507h-3.702v-.507a6.01 6.01 0 0 0-.167-1.403 3.692 3.692 0 0 0-.561-1.262 2.879 2.879 0 0 0-1.068-.912c-.449-.233-1.01-.35-1.683-.351-.617 0-1.149.117-1.597.351a3.281 3.281 0 0 0-1.123.954 4.076 4.076 0 0 0-.658 1.403 6.562 6.562 0 0 0-.21 1.668v4.938c0 .635.064 1.219.194 1.752.129.535.334.997.616 1.387.28.391.649.695 1.106.913.459.214 1.014.322 1.668.323l.004.002Zm14.112 2.974h-3.702v-19.637h3.702v8.051h.815l5.19-8.051h4.18v.167l-6.058 9.398v.507l6.397 9.398v.167h-4.348l-5.357-8.05h-.815v8.051l-.004-.001Zm12.539-19.637h14.139v3.533h-5.217v16.104h-3.702v-16.103h-5.216v-3.534h-.004Zm16.719 7.628c0-2.544.64-4.516 1.92-5.918 1.283-1.403 3.055-2.104 5.315-2.104 2.261 0 4.036.701 5.315 2.104 1.281 1.403 1.921 3.376 1.92 5.919v4.375c0 2.617-.64 4.61-1.92 5.978-1.282 1.364-3.054 2.047-5.315 2.049-2.26 0-4.037-.683-5.315-2.049-1.28-1.366-1.92-3.359-1.92-5.978v-4.376Zm7.239 9.035c.675 0 1.235-.107 1.683-.322.45-.214.815-.518 1.095-.912s.476-.862.588-1.403c.113-.542.169-1.14.168-1.795v-4.824c0-.617-.066-1.197-.195-1.739a4.075 4.075 0 0 0-.615-1.402 3.015 3.015 0 0 0-1.095-.939c-.448-.234-.99-.351-1.629-.351s-1.176.118-1.628.351a3.048 3.048 0 0 0-1.095.939 3.94 3.94 0 0 0-.616 1.404 7.357 7.357 0 0 0-.195 1.737v4.824a8.816 8.816 0 0 0 .167 1.795c.114.543.31 1.01.588 1.403.282.394.647.698 1.096.911.448.216 1.009.325 1.683.325m9.593-.561h1.85v-12.57h-1.85v-3.534h8.611c.934 0 1.762.131 2.482.394a5.393 5.393 0 0 1 1.823 1.066c.496.448.87.986 1.122 1.614.253.626.379 1.304.378 2.033v.335c.001 1.123-.312 2.02-.939 2.693-.628.675-1.418 1.142-2.369 1.402v.507c.954.261 1.744.734 2.369 1.419.627.682.94 1.585.939 2.708v.334c0 .729-.126 1.407-.378 2.035a4.463 4.463 0 0 1-1.122 1.628c-.495.459-1.103.819-1.823 1.08-.72.262-1.548.393-2.482.394h-8.611v-3.538Zm5.556-8.082h2.693c.786 0 1.422-.164 1.908-.49.487-.329.73-.885.729-1.668v-.168c0-.788-.242-1.34-.729-1.668-.486-.327-1.122-.49-1.908-.49h-2.693v4.488-.004Zm0 8.082h2.693c.786 0 1.422-.169 1.908-.507.487-.336.73-.897.729-1.684v-.167c0-.788-.243-1.349-.729-1.683-.486-.337-1.122-.505-1.908-.507h-2.693v4.548Zm12.343-16.104h12.399v3.533h-8.697v4.489h8.362v3.534h-8.362v4.544h9.032v3.533h-12.738v-19.636l.004.003Zm29.819 19.637h-3.701v-5.889c0-.449-.117-.815-.351-1.096-.235-.28-.623-.42-1.165-.42h-4.263v7.407h-3.701v-19.64h7.52c1.009 0 1.897.14 2.665.42.767.281 1.407.669 1.92 1.165a5.005 5.005 0 0 1 1.177 1.725c.271.655.406 1.357.406 2.106v.673c0 .804-.216 1.557-.647 2.259-.432.703-1.096 1.241-1.992 1.614v.507c.654.075 1.174.326 1.559.755.384.43.576.973.577 1.629v6.787l-.004-.002Zm-9.48-10.94h3.534c.896 0 1.583-.21 2.05-.632.468-.42.702-1.014.702-1.781v-.335c0-.654-.234-1.22-.702-1.698-.467-.478-1.151-.717-2.05-.717h-3.534v5.163Zm-139.145 17.953h12.568v3.534h-8.863v4.489h8.696v3.532h-8.696v8.083h-3.7v-19.638h-.005Zm16.72.001h12.397v3.533h-8.697v4.489h8.362v3.534h-8.362v4.544h9.032v3.533h-12.736v-19.637l.004.004Zm26.536 6.004c0-.787-.303-1.47-.911-2.05-.609-.58-1.464-.87-2.568-.869-.936 0-1.675.193-2.216.578a1.808 1.808 0 0 0-.815 1.557c0 .336.065.64.195.912.131.272.359.515.685.729.328.213.758.406 1.29.578.534.167 1.212.325 2.034.474 2.057.374 3.628 1 4.715 1.878 1.085.879 1.628 2.179 1.628 3.9v.335c0 .916-.164 1.747-.491 2.482a5.161 5.161 0 0 1-1.418 1.894 6.434 6.434 0 0 1-2.245 1.208c-.879.281-1.87.421-2.972.421-1.29-.001-2.427-.183-3.409-.545-.982-.366-1.8-.872-2.454-1.516a6.428 6.428 0 0 1-1.49-2.272 7.87 7.87 0 0 1-.505-2.849v-.84h3.7v.674c0 1.175.343 2.119 1.025 2.821.683.7 1.744 1.05 3.183 1.05 1.122.001 1.955-.241 2.498-.727.542-.488.814-1.067.815-1.738 0-.319-.057-.624-.169-.913a1.968 1.968 0 0 0-.588-.786c-.281-.234-.664-.444-1.149-.631-.6-.217-1.22-.377-1.851-.476a18.958 18.958 0 0 1-2.719-.657 7.596 7.596 0 0 1-2.148-1.081 4.683 4.683 0 0 1-1.417-1.682c-.337-.674-.506-1.498-.507-2.471v-.168c0-.803.164-1.545.491-2.228a5.39 5.39 0 0 1 1.376-1.781c.587-.505 1.298-.897 2.131-1.177.831-.28 1.761-.42 2.79-.42 1.16 0 2.189.164 3.086.491.897.327 1.65.77 2.259 1.332a5.58 5.58 0 0 1 1.376 1.937c.308.73.463 1.496.464 2.298v1.01h-3.703v-.675l.004-.007Zm6.453-6.005h14.14v3.534h-5.218v16.104h-3.701v-16.104h-5.217v-3.533l-.004-.001Zm-108.15 8.245h-35.067v11.688h35.067v-11.688Zm23.339-35.043H236.83v46.755h11.689v-46.755Zm-34.833-11.714h-11.689v46.757h11.689v-46.757Zm-11.689 11.69h-11.688v11.688h11.688v-11.688Zm34.833 11.713h-11.688v11.689h11.688v-11.689Z"/><path fill="#F3F0E0" d="M260.207 347.739h-11.688v11.689h11.688v-11.689Zm-70.016 35.457-11.962-11.767v-81.964h81.96l11.961 11.767V277.22h-106v106l24.041-.024Z"/><defs><linearGradient id="a" x1="0" x2="600" y1="300" y2="300" gradientUnits="userSpaceOnUse"><stop stop-color="#5BC7BA"/><stop offset="1" stop-color="#BEEDE7"/></linearGradient><linearGradient id="b" x1="313.797" x2="237.697" y1="163.559" y2="163.559" gradientUnits="userSpaceOnUse"><stop stop-color="#077"/><stop offset="1" stop-color="#51D3C2"/></linearGradient><linearGradient id="c" x1="284.17" x2="237.65" y1="175.296" y2="175.296" gradientUnits="userSpaceOnUse"><stop stop-color="#077"/><stop offset="1" stop-color="#69BBC2"/></linearGradient><linearGradient id="d" x1="313.95" x2="267.42" y1="153.165" y2="153.165" gradientUnits="userSpaceOnUse"><stop stop-color="#077"/><stop offset="1" stop-color="#70D9D3"/></linearGradient><linearGradient id="e" x1="320.921" x2="373.001" y1="120.024" y2="120.024" gradientUnits="userSpaceOnUse"><stop stop-color="#FF6201"/><stop offset="1" stop-color="#FFAF0A"/></linearGradient><linearGradient id="f" x1="373.131" x2="320.921" y1="118.382" y2="118.382" gradientUnits="userSpaceOnUse"><stop stop-color="#8CD5C4"/><stop offset="1" stop-color="#56ABA9"/></linearGradient><linearGradient id="g" x1="377.34" x2="320.921" y1="113.885" y2="113.885" gradientUnits="userSpaceOnUse"><stop stop-color="#69BBC2"/><stop offset="1" stop-color="#077"/></linearGradient><linearGradient id="h" x1="433.41" x2="312.32" y1="161.028" y2="161.028" gradientUnits="userSpaceOnUse"><stop stop-color="#077"/><stop offset="1" stop-color="#69BBC2"/></linearGradient><linearGradient id="i" x1="353.081" x2="299.031" y1="136.998" y2="136.998" gradientUnits="userSpaceOnUse"><stop stop-color="#FF7201"/><stop offset="1" stop-color="#FFC20A"/></linearGradient><linearGradient id="j" x1="349.11" x2="449.53" y1="128.823" y2="128.823" gradientUnits="userSpaceOnUse"><stop stop-color="#FF7201"/><stop offset="1" stop-color="#FFC20A"/></linearGradient><linearGradient id="k" x1="450.08" x2="349.11" y1="123.923" y2="123.923" gradientUnits="userSpaceOnUse"><stop stop-color="#8CD5C4"/><stop offset="1" stop-color="#56ABA9"/></linearGradient><linearGradient id="l" x1="464.15" x2="349.11" y1="117.518" y2="117.518" gradientUnits="userSpaceOnUse"><stop stop-color="#69BBC2"/><stop offset="1" stop-color="#077"/></linearGradient><linearGradient id="m" x1="308.799" x2="316.199" y1="135.907" y2="135.907" gradientUnits="userSpaceOnUse"><stop stop-color="#FF7201"/><stop offset="1" stop-color="#FFC20A"/></linearGradient><linearGradient id="n" x1="158" x2="442.2" y1="519.47" y2="519.47" gradientUnits="userSpaceOnUse"><stop stop-color="#077"/><stop offset="1" stop-color="#69BCC3"/></linearGradient><linearGradient id="o" x1="248.219" x2="350.939" y1="489.621" y2="489.621" gradientUnits="userSpaceOnUse"><stop stop-color="#077"/><stop offset="1" stop-color="#69BBC2"/></linearGradient><linearGradient id="p" x1="97" x2="502.15" y1="452.526" y2="452.526" gradientUnits="userSpaceOnUse"><stop stop-color="#FF7201"/><stop offset="1" stop-color="#FFC20A"/></linearGradient><linearGradient id="q" x1="97" x2="502.15" y1="324.439" y2="324.439" gradientUnits="userSpaceOnUse"><stop stop-color="#077"/><stop offset="1" stop-color="#69BBC2"/></linearGradient><linearGradient id="r" x1="111.15" x2="487.75" y1="324.835" y2="324.835" gradientUnits="userSpaceOnUse"><stop stop-color="#005D84"/><stop offset="1" stop-color="#4A989D"/></linearGradient><linearGradient id="s" x1="230.15" x2="369.01" y1="511.908" y2="511.908" gradientUnits="userSpaceOnUse"><stop stop-color="#FF7201"/><stop offset="1" stop-color="#FFC20A"/></linearGradient><linearGradient id="t" x1="230.179" x2="369.009" y1="514.908" y2="514.908" gradientUnits="userSpaceOnUse"><stop stop-color="#7652E1"/><stop offset="1" stop-color="#009897"/></linearGradient></defs></svg>
