<svg xmlns="http://www.w3.org/2000/svg" xmlns:xlink="http://www.w3.org/1999/xlink" id="Layer_1" data-name="Layer 1" viewBox="0 0 350 352"><defs><linearGradient id="linear-gradient" x1="10348.79" x2="10348.79" y1="-3083.62" y2="-3435.48" gradientTransform="translate(-10173.79 3435.62)" gradientUnits="userSpaceOnUse"><stop offset="0" stop-color="#224"/><stop offset=".19" stop-color="#26264e"/><stop offset=".51" stop-color="#32326c"/><stop offset=".93" stop-color="#46469b"/><stop offset="1" stop-color="#4a4aa3"/></linearGradient><linearGradient id="linear-gradient-2" x1="25" x2="325" y1="282.98" y2="282.98" gradientUnits="userSpaceOnUse"><stop offset=".27" stop-color="#5b35df"/><stop offset=".41" stop-color="#503fd6"/><stop offset=".65" stop-color="#3259be"/><stop offset=".98" stop-color="#038598"/><stop offset="1" stop-color="#008995"/></linearGradient><linearGradient id="linear-gradient-3" x1="109.94" x2="235.54" y1="295.63" y2="295.63" gradientUnits="userSpaceOnUse"><stop offset="0" stop-color="#808de1"/><stop offset="1" stop-color="#8eb5c7"/></linearGradient><linearGradient xlink:href="#linear-gradient-3" id="linear-gradient-4" x1="25" x2="325" y1="318.22" y2="318.22"/><linearGradient id="linear-gradient-5" x1="60.24" x2="286.14" y1="175.9" y2="175.9" gradientUnits="userSpaceOnUse"><stop offset="0" stop-color="#7680e1"/><stop offset="1" stop-color="#804dc7"/></linearGradient><linearGradient xlink:href="#linear-gradient" id="linear-gradient-6" x1="69.63" x2="276.75" y1="175.9" y2="175.9"/><linearGradient id="linear-gradient-7" x1="68.37" x2="82.27" y1="259.94" y2="259.94" gradientUnits="userSpaceOnUse"><stop offset="0" stop-color="#6fa1d5"/><stop offset="1" stop-color="#8eb5c7"/></linearGradient><linearGradient xlink:href="#linear-gradient-7" id="linear-gradient-8" x1="82.27" x2="97.45"/><linearGradient xlink:href="#linear-gradient-7" id="linear-gradient-9" x1="98.47" x2="113.78"/><linearGradient xlink:href="#linear-gradient-7" id="linear-gradient-10" x1="113.78" x2="126.54"/><linearGradient xlink:href="#linear-gradient-7" id="linear-gradient-11" x1="127.94" x2="140.7"/><linearGradient xlink:href="#linear-gradient-7" id="linear-gradient-12" x1="143.12" x2="156.13"/><linearGradient xlink:href="#linear-gradient-7" id="linear-gradient-13" x1="158.43" x2="173.23"/><linearGradient xlink:href="#linear-gradient-7" id="linear-gradient-14" x1="174.12" x2="189.43"/><linearGradient xlink:href="#linear-gradient-7" id="linear-gradient-15" x1="190.2" x2="204.36"/><linearGradient xlink:href="#linear-gradient-7" id="linear-gradient-16" x1="205.63" x2="220.56"/><linearGradient xlink:href="#linear-gradient-7" id="linear-gradient-17" x1="221.96" x2="235.74"/><linearGradient xlink:href="#linear-gradient-7" id="linear-gradient-18" x1="236.89" x2="251.43"/><linearGradient xlink:href="#linear-gradient-7" id="linear-gradient-19" x1="252.58" x2="266.86"/><linearGradient xlink:href="#linear-gradient-7" id="linear-gradient-20" x1="267.5" x2="277.32"/><linearGradient xlink:href="#linear-gradient-7" id="linear-gradient-21" x1="81.93" x2="97.06" y1="272.13" y2="272.13"/><linearGradient xlink:href="#linear-gradient-7" id="linear-gradient-22" x1="98.08" x2="113.35" y1="272.13" y2="272.13"/><linearGradient xlink:href="#linear-gradient-7" id="linear-gradient-23" x1="113.35" x2="126.07" y1="272.13" y2="272.13"/><linearGradient xlink:href="#linear-gradient-7" id="linear-gradient-24" x1="127.47" x2="140.19" y1="272.13" y2="272.13"/><linearGradient xlink:href="#linear-gradient-7" id="linear-gradient-25" x1="142.6" x2="155.58" y1="272.13" y2="272.13"/><linearGradient xlink:href="#linear-gradient-7" id="linear-gradient-26" x1="157.87" x2="172.62" y1="272.13" y2="272.13"/><linearGradient xlink:href="#linear-gradient-7" id="linear-gradient-27" x1="173.51" x2="188.78" y1="272.13" y2="272.13"/><linearGradient xlink:href="#linear-gradient-7" id="linear-gradient-28" x1="189.54" x2="203.66" y1="272.13" y2="272.13"/><linearGradient xlink:href="#linear-gradient-7" id="linear-gradient-29" x1="204.93" x2="219.82" y1="272.13" y2="272.13"/><linearGradient xlink:href="#linear-gradient-7" id="linear-gradient-30" x1="221.22" x2="234.95" y1="272.13" y2="272.13"/><linearGradient xlink:href="#linear-gradient-7" id="linear-gradient-31" x1="236.1" x2="250.6" y1="272.13" y2="272.13"/><linearGradient xlink:href="#linear-gradient-7" id="linear-gradient-32" x1="251.74" x2="265.99" y1="272.13" y2="272.13"/><linearGradient xlink:href="#linear-gradient-7" id="linear-gradient-33" x1="266.63" x2="286.14" y1="272.13" y2="272.13"/><linearGradient xlink:href="#linear-gradient-7" id="linear-gradient-34" x1="62.95" x2="88.4" y1="265.81" y2="265.81"/><linearGradient xlink:href="#linear-gradient-7" id="linear-gradient-35" x1="58.43" x2="81.02" y1="272.13" y2="272.13"/><linearGradient xlink:href="#linear-gradient-7" id="linear-gradient-36" x1="88.4" x2="104.47" y1="265.81" y2="265.81"/><linearGradient xlink:href="#linear-gradient-7" id="linear-gradient-37" x1="104.47" x2="120.93" y1="265.81" y2="265.81"/><linearGradient xlink:href="#linear-gradient-7" id="linear-gradient-38" x1="122.57" x2="137.37" y1="265.81" y2="265.81"/><linearGradient xlink:href="#linear-gradient-7" id="linear-gradient-39" x1="139.3" x2="153.2" y1="265.81" y2="265.81"/><linearGradient xlink:href="#linear-gradient-7" id="linear-gradient-40" x1="156.13" x2="171.32" y1="265.81" y2="265.81"/><linearGradient xlink:href="#linear-gradient-7" id="linear-gradient-41" x1="172.46" x2="188.15" y1="265.81" y2="265.81"/><linearGradient xlink:href="#linear-gradient-7" id="linear-gradient-42" x1="188.79" x2="203.21" y1="265.81" y2="265.81"/><linearGradient xlink:href="#linear-gradient-7" id="linear-gradient-43" x1="204.36" x2="220.56" y1="265.81" y2="265.81"/><linearGradient xlink:href="#linear-gradient-7" id="linear-gradient-44" x1="221.96" x2="236.38" y1="265.81" y2="265.81"/><linearGradient xlink:href="#linear-gradient-7" id="linear-gradient-45" x1="237.52" x2="252.58" y1="265.81" y2="265.81"/><linearGradient xlink:href="#linear-gradient-7" id="linear-gradient-46" x1="253.21" x2="266.86" y1="265.81" y2="265.81"/><linearGradient xlink:href="#linear-gradient-7" id="linear-gradient-47" x1="267.88" x2="281.63" y1="265.81" y2="265.81"/><linearGradient xlink:href="#linear-gradient-7" id="linear-gradient-48" x1="71.23" x2="87.3" y1="278.46" y2="278.46"/><linearGradient xlink:href="#linear-gradient-7" id="linear-gradient-49" x1="86.59" x2="102.66" y1="278.46" y2="278.46"/><linearGradient xlink:href="#linear-gradient-7" id="linear-gradient-50" x1="54.06" x2="71.04" y1="278.46" y2="278.46"/><linearGradient xlink:href="#linear-gradient-7" id="linear-gradient-51" x1="102.66" x2="164.09" y1="278.46" y2="278.46"/><linearGradient xlink:href="#linear-gradient-7" id="linear-gradient-52" x1="165.23" x2="180.93" y1="278.46" y2="278.46"/><linearGradient xlink:href="#linear-gradient-7" id="linear-gradient-53" x1="181.56" x2="195.98" y1="278.46" y2="278.46"/><linearGradient xlink:href="#linear-gradient-7" id="linear-gradient-54" x1="197.13" x2="213.33" y1="278.46" y2="278.46"/><linearGradient xlink:href="#linear-gradient-7" id="linear-gradient-55" x1="214.73" x2="229.15" y1="278.46" y2="278.46"/><linearGradient xlink:href="#linear-gradient-7" id="linear-gradient-56" x1="230.29" x2="245.35" y1="278.46" y2="278.46"/><linearGradient xlink:href="#linear-gradient-7" id="linear-gradient-57" x1="245.99" x2="259.64" y1="278.46" y2="278.46"/><linearGradient xlink:href="#linear-gradient-7" id="linear-gradient-58" x1="260.66" x2="274.4" y1="278.46" y2="278.46"/><linearGradient xlink:href="#linear-gradient-7" id="linear-gradient-59" x1="274.21" x2="290.66" y1="278.46" y2="278.46"/><linearGradient id="linear-gradient-60" x1="10277.69" x2="10321.03" y1="78.81" y2="78.81" gradientTransform="rotate(-55.83 5384.166 9558.616)scale(1 -1)" gradientUnits="userSpaceOnUse"><stop offset="0" stop-color="#5b35df"/><stop offset=".01" stop-color="#5837dd"/><stop offset=".19" stop-color="#3854c3"/><stop offset=".37" stop-color="#1f6bae"/><stop offset=".56" stop-color="#0e7ca0"/><stop offset=".77" stop-color="#038597"/><stop offset="1" stop-color="#008995"/></linearGradient><linearGradient xlink:href="#linear-gradient-2" id="linear-gradient-61" x1="10294.59" x2="10321.09" y1="85.68" y2="85.68" gradientTransform="matrix(-1 0 0 1 10470.03 0)"/><linearGradient id="linear-gradient-62" x1="10277.63" x2="10304.13" y1="71.94" y2="71.94" gradientTransform="matrix(-1 0 0 1 10470.03 0)" gradientUnits="userSpaceOnUse"><stop offset="0" stop-color="#8455a2"/><stop offset=".19" stop-color="#835fa2"/><stop offset=".51" stop-color="#827da4"/><stop offset=".93" stop-color="#80aca8"/><stop offset="1" stop-color="#80b4a9"/></linearGradient><linearGradient id="linear-gradient-63" x1="10239.67" x2="10249.01" y1="96.65" y2="96.65" gradientTransform="matrix(-1 0 0 1 10470.03 0)" gradientUnits="userSpaceOnUse"><stop offset="0" stop-color="#92adcb"/><stop offset="1" stop-color="#784fde"/></linearGradient><linearGradient xlink:href="#linear-gradient-63" id="linear-gradient-64" x1="10245.54" x2="10254.8" y1="99.16" y2="99.16"/><linearGradient id="linear-gradient-65" x1="10253.9" x2="10277.21" y1="56.07" y2="56.07" gradientTransform="matrix(-1 0 0 1 10470.03 0)" gradientUnits="userSpaceOnUse"><stop offset="0" stop-color="#008995"/><stop offset="1" stop-color="#5b35df"/></linearGradient><linearGradient xlink:href="#linear-gradient-2" id="linear-gradient-66" x1="10253.84" x2="10277.21" y1="55.27" y2="55.27" gradientTransform="matrix(-1 0 0 1 10470.03 0)"/><linearGradient id="linear-gradient-67" x1="10251.96" x2="10277.21" y1="53.08" y2="53.08" gradientTransform="matrix(-1 0 0 1 10470.03 0)" gradientUnits="userSpaceOnUse"><stop offset=".39" stop-color="#9276de"/><stop offset="1" stop-color="#92adcb"/></linearGradient><linearGradient id="linear-gradient-68" x1="10226.86" x2="10281.06" y1="76.07" y2="76.07" gradientTransform="matrix(-1 0 0 1 10470.03 0)" gradientUnits="userSpaceOnUse"><stop offset="0" stop-color="#ff417d"/><stop offset=".12" stop-color="#fa507e"/><stop offset=".52" stop-color="#ee7b84"/><stop offset=".82" stop-color="#e69687"/><stop offset="1" stop-color="#e4a089"/></linearGradient><linearGradient id="linear-gradient-69" x1="10285.05" x2="10292.69" y1="67.48" y2="67.48" gradientTransform="matrix(-1 0 0 1 10470.03 0)" gradientUnits="userSpaceOnUse"><stop offset=".6" stop-color="#ff417d"/><stop offset=".65" stop-color="#fa507e"/><stop offset=".81" stop-color="#ee7b84"/><stop offset=".93" stop-color="#e69687"/><stop offset="1" stop-color="#e4a089"/></linearGradient><linearGradient xlink:href="#linear-gradient-69" id="linear-gradient-70" x1="10284.05" y1="70.12" y2="70.12"/><linearGradient xlink:href="#linear-gradient-68" id="linear-gradient-71" x1="10262.81" x2="10287.01" y1="64.35" y2="64.35"/><linearGradient xlink:href="#linear-gradient-60" id="linear-gradient-72" x1="10219.65" x2="10264.59" y1="60.36" y2="60.36" gradientTransform="matrix(-1 0 0 1 10470.03 0)"/><linearGradient xlink:href="#linear-gradient-2" id="linear-gradient-73" x1="10219.4" x2="10264.59" y1="57.97" y2="57.97" gradientTransform="matrix(-1 0 0 1 10470.03 0)"/><linearGradient xlink:href="#linear-gradient-63" id="linear-gradient-74" x1="10213.1" x2="10264.59" y1="54.85" y2="54.85"/><linearGradient xlink:href="#linear-gradient-68" id="linear-gradient-75" x1="188.1" x2="191.97" y1="64.18" y2="64.18"/><style>.cls-80,.cls-88,.cls-96,.cls-99{stroke-width:0}.cls-80{fill:#f2f4f7}.cls-88{fill:#5a5ab5}.cls-96{fill:#c2c2ff}.cls-99{fill:#a0a0ff}</style></defs><path d="M350 .14H0V352h350z" style="fill:url(#linear-gradient);stroke-width:0"/><path d="M63.55 251.8 25 314.15h300l-42.53-61.89z" style="stroke-width:0;fill:url(#linear-gradient-2)"/><path d="M119.88 284.33h104.76l10.9 22.59h-125.6z" style="stroke-width:0;fill:url(#linear-gradient-3)"/><path d="M318.67 322.29H31.33L25 314.15h300z" style="stroke-width:0;fill:url(#linear-gradient-4)"/><rect width="225.9" height="155.42" x="60.24" y="98.19" rx="8.45" ry="8.45" style="stroke-width:0;fill:url(#linear-gradient-5)"/><rect width="207.12" height="138.93" x="69.63" y="106.43" rx="1.83" ry="1.83" style="stroke-width:0;fill:url(#linear-gradient-6)"/><path d="m71.08 258.13-2.71 3.61h11.22l2.68-3.61z" style="stroke-width:0;fill:url(#linear-gradient-7)"/><path d="m85.21 258.13-2.94 3.61h13.01l2.17-3.61z" style="stroke-width:0;fill:url(#linear-gradient-8)"/><path d="m100.64 258.13-2.17 3.61h13.02l2.29-3.61z" style="stroke-width:0;fill:url(#linear-gradient-9)"/><path d="m115.7 258.13-1.92 3.61h11.48l1.28-3.61z" style="stroke-width:0;fill:url(#linear-gradient-10)"/><path d="m129.47 258.13-1.53 3.61h12.76v-3.61z" style="stroke-width:0;fill:url(#linear-gradient-11)"/><path d="m143.63 258.13-.51 3.61h13.01l-.76-3.61z" style="stroke-width:0;fill:url(#linear-gradient-12)"/><path d="m158.43 258.13.89 3.61h13.91l-2.04-3.61z" style="stroke-width:0;fill:url(#linear-gradient-13)"/><path d="m174.12 258.13 2.17 3.61h13.14l-3.19-3.61z" style="stroke-width:0;fill:url(#linear-gradient-14)"/><path d="m190.2 258.13 2.16 3.61h12l-2.56-3.61z" style="stroke-width:0;fill:url(#linear-gradient-15)"/><path d="m205.63 258.13 2.68 3.61h12.25l-2.81-3.61z" style="stroke-width:0;fill:url(#linear-gradient-16)"/><path d="m221.96 258.13 2.55 3.61h11.23l-2.43-3.61z" style="stroke-width:0;fill:url(#linear-gradient-17)"/><path d="m236.89 258.13 2.67 3.61h11.87l-2.3-3.61z" style="stroke-width:0;fill:url(#linear-gradient-18)"/><path d="m252.58 258.13 2.42 3.61h11.86l-1.65-3.61z" style="stroke-width:0;fill:url(#linear-gradient-19)"/><path d="m267.5 258.13 2.43 3.61h7.39l-2.55-3.61z" style="stroke-width:0;fill:url(#linear-gradient-20)"/><path d="m84.85 269.88-2.92 4.51H94.9l2.16-4.51z" style="stroke-width:0;fill:url(#linear-gradient-21)"/><path d="m100.24 269.88-2.16 4.51h12.98l2.29-4.51z" style="stroke-width:0;fill:url(#linear-gradient-22)"/><path d="m115.25 269.88-1.9 4.51h11.45l1.27-4.51z" style="stroke-width:0;fill:url(#linear-gradient-23)"/><path d="m128.99 269.88-1.52 4.51h12.72v-4.51z" style="stroke-width:0;fill:url(#linear-gradient-24)"/><path d="m143.11 269.88-.51 4.51h12.98l-.76-4.51z" style="stroke-width:0;fill:url(#linear-gradient-25)"/><path d="m157.87 269.88.89 4.51h13.86l-2.03-4.51z" style="stroke-width:0;fill:url(#linear-gradient-26)"/><path d="m173.51 269.88 2.17 4.51h13.1l-3.18-4.51z" style="stroke-width:0;fill:url(#linear-gradient-27)"/><path d="m189.54 269.88 2.16 4.51h11.96l-2.54-4.51z" style="stroke-width:0;fill:url(#linear-gradient-28)"/><path d="m204.93 269.88 2.67 4.51h12.22l-2.8-4.51z" style="stroke-width:0;fill:url(#linear-gradient-29)"/><path d="m221.22 269.88 2.54 4.51h11.19l-2.41-4.51z" style="stroke-width:0;fill:url(#linear-gradient-30)"/><path d="m236.1 269.88 2.67 4.51h11.83l-2.29-4.51z" style="stroke-width:0;fill:url(#linear-gradient-31)"/><path d="m251.74 269.88 2.42 4.51h11.83l-1.65-4.51z" style="stroke-width:0;fill:url(#linear-gradient-32)"/><path d="m266.63 269.88 2.5 4.51h17.01l-3.57-4.51z" style="stroke-width:0;fill:url(#linear-gradient-33)"/><path d="m66.57 263.55-3.62 4.52h22.21l3.24-4.52z" style="stroke-width:0;fill:url(#linear-gradient-34)"/><path d="m61.64 269.88-3.21 4.51h19.72l2.87-4.51z" style="stroke-width:0;fill:url(#linear-gradient-35)"/><path d="m91.33 263.55-2.93 4.52h13.26l2.81-4.52z" style="stroke-width:0;fill:url(#linear-gradient-36)"/><path d="m107.28 263.55-2.81 4.52h15.18l1.28-4.52z" style="stroke-width:0;fill:url(#linear-gradient-37)"/><path d="m124.1 263.55-1.53 4.52h14.04l.76-4.52z" style="stroke-width:0;fill:url(#linear-gradient-38)"/><path d="m139.93 263.55-.63 4.52h13.9v-4.52z" style="stroke-width:0;fill:url(#linear-gradient-39)"/><path d="m156.13 263.55.51 4.52h14.68l-2.94-4.52z" style="stroke-width:0;fill:url(#linear-gradient-40)"/><path d="m172.46 263.55 2.43 4.52h13.26l-3.06-4.52z" style="stroke-width:0;fill:url(#linear-gradient-41)"/><path d="m188.79 263.55 2.3 4.52h12.12l-2.3-4.52z" style="stroke-width:0;fill:url(#linear-gradient-42)"/><path d="m204.36 263.55 2.42 4.52h13.78l-2.55-4.52z" style="stroke-width:0;fill:url(#linear-gradient-43)"/><path d="m221.96 263.55 2.81 4.52h11.61l-2.56-4.52z" style="stroke-width:0;fill:url(#linear-gradient-44)"/><path d="m237.52 263.55 2.43 4.52h12.63l-3.19-4.52z" style="stroke-width:0;fill:url(#linear-gradient-45)"/><path d="m253.21 263.55 2.56 4.52h11.09l-2.29-4.52z" style="stroke-width:0;fill:url(#linear-gradient-46)"/><path d="m267.88 263.55 2.53 4.52h11.22l-3.37-4.52z" style="stroke-width:0;fill:url(#linear-gradient-47)"/><path d="m74.16 276.2-2.93 4.52h13.26l2.81-4.52z" style="stroke-width:0;fill:url(#linear-gradient-48)"/><path d="m89.52 276.2-2.93 4.52h13.27l2.8-4.52z" style="stroke-width:0;fill:url(#linear-gradient-49)"/><path d="m57.9 276.2-3.84 4.52h14.17l2.81-4.52z" style="stroke-width:0;fill:url(#linear-gradient-50)"/><path d="M161.15 276.2h-55.68l-2.81 4.52h61.43z" style="stroke-width:0;fill:url(#linear-gradient-51)"/><path d="m165.23 276.2 2.43 4.52h13.27l-3.07-4.52z" style="stroke-width:0;fill:url(#linear-gradient-52)"/><path d="m181.56 276.2 2.3 4.52h12.12l-2.3-4.52z" style="stroke-width:0;fill:url(#linear-gradient-53)"/><path d="m197.13 276.2 2.42 4.52h13.78l-2.55-4.52z" style="stroke-width:0;fill:url(#linear-gradient-54)"/><path d="m214.73 276.2 2.81 4.52h11.61l-2.55-4.52z" style="stroke-width:0;fill:url(#linear-gradient-55)"/><path d="m230.29 276.2 2.43 4.52h12.63l-3.19-4.52z" style="stroke-width:0;fill:url(#linear-gradient-56)"/><path d="m245.99 276.2 2.55 4.52h11.1l-2.3-4.52z" style="stroke-width:0;fill:url(#linear-gradient-57)"/><path d="m260.66 276.2 2.52 4.52h11.22l-3.37-4.52z" style="stroke-width:0;fill:url(#linear-gradient-58)"/><path d="m274.21 276.2 3.43 4.52h13.02l-4.27-4.52z" style="stroke-width:0;fill:url(#linear-gradient-59)"/><path d="M150.1 66.58h41.15v24.46H150.1z" style="stroke-width:0;fill:url(#linear-gradient-60)" transform="rotate(235.83 170.664 78.812)"/><path d="m148.94 68.57 26.5 7.1-3.28 27.11z" style="stroke-width:0;fill:url(#linear-gradient-61)"/><path d="m192.4 89.05-26.5-7.1 3.28-27.11z" style="stroke-width:0;fill:url(#linear-gradient-62)"/><path d="m227.88 100.75-1.66-3.96-5.21-3.44.54-.81 5 3.31 3-2.95.68.69-2.66 2.61 2.79.68-.23.94-2.7-.65 1.35 3.21z" style="stroke-width:0;fill:url(#linear-gradient-63)"/><path d="m219.97 104.68-.31-4.29-4.43-6.16.77-.59 4.28 5.96 3.78-1.83.42.87-3.35 1.63 2.43 1.54-.52.82-2.35-1.49.25 3.47z" style="stroke-width:0;fill:url(#linear-gradient-64)"/><path d="M192.82 76.44c.03-.07 3.41.56 3.78.6 1.38.15 2.76.22 4.15.16 2.67-.12 5.35-.75 7.59-2.24 8.11-5.41 7.49-16.76 7.66-25.33.04-1.79.22-3.66.07-5.44 0 0-.78-9.78-3.4-9.24 0 0-19.86 41.49-19.86 41.5Z" style="stroke-width:0;fill:url(#linear-gradient-65)"/><path d="M192.82 76.44s4.8.68 8.11-1.16 6.85-5.84 10.62-15.33 5.74-13.79 3.98-19.72c0 0 0-3.58-2.48-6.26z" style="stroke-width:0;fill:url(#linear-gradient-66)"/><path d="M192.82 76.44s8.12-4.5 11.18-10.17c2.85-5.28 9.85-18.36 12.68-27.79.6-2.01 1.65-4.5 1.34-6.63-.45-3.2-3.3-2.46-4.2 0-1.14 3.09-21 44.59-21 44.59" style="stroke-width:0;fill:url(#linear-gradient-67)"/><path d="M188.97 73.81s-.18 10.74 8.53 16.42 15.19 5.01 22.49 3.81c7.3-1.19 17.43-8.79 20.67-15.46s2.42-6.15 2.42-6.15l-35.89-15.14s-3.49 18.39-18.21 16.52Z" style="stroke-width:0;fill:url(#linear-gradient-68)"/><path d="m183.33 62.69-5.99 9.57 7.63-4.28z" style="stroke-width:0;fill:url(#linear-gradient-69)"/><path d="m184.97 67.98-7.63 4.28 8.64-.89z" style="stroke-width:0;fill:url(#linear-gradient-70)"/><path d="M207.18 57.29s-5.75-3.25-9.92-3.47c-3.13-.17-6.61.16-9.37 1.87-3.75 2.32-5.91 8-4.36 12.19 1.48 4.01 5.77 7.12 10.08 7.05 3.16-.05 6.5-2.55 8.43-4.93 1.21-1.5 2.12-3.22 2.93-4.96 2.68-5.74 2.21-7.74 2.21-7.74Z" style="stroke-width:0;fill:url(#linear-gradient-71)"/><path d="M205.44 71.24c.07-.05 3.05 2.56 3.39 2.81 1.27.96 2.61 1.84 4.01 2.59 2.71 1.45 5.73 2.4 8.83 2.24 11.2-.59 17.26-12.2 22.46-20.58 1.08-1.75 2.36-3.49 3.27-5.34 0 0 4.97-10.14 2.07-11.15 0 0-44.02 29.42-44.03 29.42Z" style="stroke-width:0;fill:url(#linear-gradient-72)"/><path d="M205.44 71.24s4.35 3.5 8.71 3.62 10.21-1.76 19.52-8.94 13.79-10.28 15.53-17.19c0 0 2.11-3.55 1.22-7.66l-44.97 30.17Z" style="stroke-width:0;fill:url(#linear-gradient-73)"/><path d="M205.44 71.24s10.68.31 17.04-3.5c5.92-3.55 20.53-12.4 28.88-20.07 1.78-1.64 4.27-3.48 5.23-5.78 1.43-3.43-1.82-4.38-4.16-2.47-2.94 2.4-46.97 31.82-46.97 31.82Z" style="stroke-width:0;fill:url(#linear-gradient-74)"/><path d="M183.33 62.61s11.89-2.69 19.06-7.42c0 0 1.62 11.7-7.89 13.95s-11.17-6.53-11.17-6.53" style="stroke-width:0;fill:#2b2b60"/><circle cx="190.04" cy="64.18" r="1.93" style="stroke-width:0;fill:url(#linear-gradient-75)"/><circle cx="190.04" cy="64.18" r="1.42" style="stroke-width:0"/><circle cx="190.26" cy="63.66" r=".46" style="stroke-width:0;fill:#f6f4ff"/><path d="M174.2 77.84c.19.93.32 2.01 0 2.98-.31.95-1.03 1.68-1.72 2.32-.84.47-1.82.91-2.85.91s-1.95-.44-2.78-.9c-.71-.64-1.44-1.37-1.76-2.34-.31-.95-.18-2.03 0-2.95.4-.86.93-1.83 1.76-2.42.82-.59 1.84-.75 2.79-.86.95.11 2.01.32 2.84.92.82.59 1.32 1.49 1.72 2.34" style="stroke-width:0;fill:#fff"/><path d="M169.65 83.87c-1.02 0-1.97-.26-2.8-.71.03.64 1.29 1.4 2.82 1.4s2.72-.94 2.81-1.42c-.84.47-1.8.73-2.83.73" style="stroke-width:0;fill:#ade7d9"/><path d="M166.85 83.16a5.65 5.65 0 0 1-1.58-2.44 5.7 5.7 0 0 1-.18-2.85c-.56.13-.85 2-.48 3.09.37 1.08 1.68 2.44 2.24 2.2" style="stroke-width:0;fill:#cdcfdb"/><path d="M166.95 75.63c.82-.59 1.75-.93 2.69-1.05-.46-.4-2.31-.1-3.12.5-.8.61-1.75 2.21-1.43 2.78a5.75 5.75 0 0 1 1.85-2.24Z" style="stroke-width:0;fill:#f9c2d6"/><path d="M169.64 74.58a5.8 5.8 0 0 1 2.73 1.05c.82.59 1.44 1.35 1.84 2.2.35-.58-.42-2.11-1.45-2.77-1.02-.67-2.86-.84-3.12-.48" style="stroke-width:0;fill:#f8e4ab"/><path d="M174.2 77.84c.19.93.15 1.92-.17 2.89-.3.92-.84 1.75-1.55 2.41.79.08 1.88-.96 2.22-2.22s0-3.01-.5-3.08" style="stroke-width:0;fill:#bfdd9b"/><path d="M164.61 80.95c-.34.42.09 2.19 1.52 3.19s3.23.78 3.54.42a5.9 5.9 0 0 1-2.82-1.4 5.8 5.8 0 0 1-2.24-2.2Z" style="stroke-width:0;fill:#9db8d6"/><path d="M174.7 80.92c-.52.93-1.29 1.7-2.22 2.22a5.75 5.75 0 0 1-2.81 1.42c.38.45 2.43.22 3.54-.44s1.71-2.62 1.49-3.2" style="stroke-width:0;fill:#92dbcb"/><path d="M165.09 77.87c.21-1.04.7-2.01 1.43-2.78-.75-.27-2.16.96-2.6 2.41s-.09 3.11.69 3.46c-.13-1.05.03-2.12.48-3.08Z" style="stroke-width:0;fill:#f8a0ac"/><path d="M169.64 74.58c1.06-.13 2.15.04 3.12.48.32-.6-1.71-1.7-3.12-1.7s-3.09.97-3.11 1.72a5.86 5.86 0 0 1 3.12-.5Z" style="stroke-width:0;fill:#f8c5a3"/><path d="M174.7 80.92c.67-.13 1.18-1.78.67-3.46s-2.07-2.57-2.62-2.39a5.8 5.8 0 0 1 1.45 2.77c.45.96.62 2.03.5 3.08" style="stroke-width:0;fill:#e2ce96"/><path d="M166.13 84.14a5.741 5.741 0 0 1-1.52-3.19 5.57 5.57 0 0 1-.73-2.78c0-.23.01-.45.04-.67-.54.15-1.19 2.29-.6 3.88s2.31 2.86 2.81 2.77Z" style="stroke-width:0;fill:#9d92d1"/><path d="M173.21 84.12c-.21.1-.44.19-.67.26-.96.31-1.94.35-2.87.18-.94.18-1.93.14-2.9-.17-.22-.07-.43-.15-.64-.25.25.77 1.54 1.76 3.54 1.76s3.16-.97 3.53-1.79Z" style="stroke-width:0;fill:#57b1af"/><path d="M175.37 77.46c.03.23.04.47.04.71 0 1-.26 1.94-.71 2.75-.11.94-.46 1.86-1.06 2.68-.14.18-.28.36-.43.52.93.06 2.29-.95 2.79-2.79s-.12-3.65-.63-3.87" style="stroke-width:0;fill:#68bb7e"/><path d="M163.92 77.49q.165-.315.39-.6c.59-.81 1.36-1.41 2.21-1.81a5.8 5.8 0 0 1 3.11-1.72c-.78-.39-2.69-.16-3.92.63-1.22.79-2.02 2.75-1.79 3.5" style="stroke-width:0;fill:#f8797d"/><path d="M169.63 73.36c.23.04.47.1.7.18.96.31 1.78.84 2.42 1.52.87.39 1.65 1.01 2.25 1.83.14.18.26.37.37.57.35-.67-.72-2.67-1.82-3.49s-3.1-.97-3.92-.61" style="stroke-width:0;fill:#f8b380"/><path d="M163.92 77.49c.16-1.38.82-2.6 1.8-3.5a5.66 5.66 0 0 0-2.65 3.21c-.47 1.43-.34 2.91.26 4.17-.26-1.29-.08-2.67.6-3.88Z" style="stroke-width:0;fill:#805280"/><path d="M166.13 84.14a5.7 5.7 0 0 1-2.81-2.77 5.7 5.7 0 0 0 2.26 3.49c1.23.88 2.69 1.22 4.09 1.05a5.75 5.75 0 0 1-3.54-1.76Z" style="stroke-width:0;fill:#8075ad"/><path d="M173.21 84.12a5.76 5.76 0 0 1-3.53 1.79c1.39.16 2.83-.18 4.05-1.05 1.23-.88 2-2.16 2.27-3.52-.55 1.2-1.52 2.2-2.79 2.79Z" style="stroke-width:0;fill:#309680"/><path d="M175.37 77.46c.69 1.21.88 2.58.63 3.87.58-1.25.71-2.72.24-4.14a5.64 5.64 0 0 0-2.69-3.22c.98.89 1.65 2.11 1.82 3.49" style="stroke-width:0;fill:#568e58"/><path d="M169.63 73.36c1.37-.27 2.76-.03 3.92.61-1.03-.93-2.4-1.51-3.9-1.51s-2.9.58-3.93 1.53c1.16-.65 2.54-.9 3.92-.63Z" style="stroke-width:0;fill:#f89252"/><path d="M266.77 181.45c-.54 0-1.04-.14-1.51-.41-.46-.27-.84-.64-1.12-1.1a2.97 2.97 0 0 1-.41-1.53v-5.93h-1.46v-3.34h1.67l1.43-3.23h2.22v3.23h2.22v2.39l-.86.96h-1.36v4.73c0 .19.05.33.14.43.1.1.23.14.41.14h1.84v3.66h-3.23ZM252.35 181.45v-3.34h4.54c.18 0 .3-.04.38-.12.1-.1.14-.22.14-.36v-.14c0-.14-.05-.25-.14-.33-.08-.08-.22-.15-.43-.22l-2.13-.65c-.53-.18-.96-.37-1.31-.6-.33-.24-.6-.53-.79-.88-.18-.37-.26-.8-.26-1.29v-1.34c0-.56.14-1.07.41-1.53.29-.46.66-.83 1.12-1.1s.96-.41 1.51-.41h5.57v2.39l-.86.96h-3.27c-.18 0-.31.04-.41.12-.08.06-.12.17-.12.31v.12c0 .13.05.24.14.33.1.1.24.17.43.22l2.15.67q.795.24 1.29.6c.35.22.61.51.79.86s.26.77.26 1.27v1.43c0 .56-.14 1.07-.41 1.53s-.64.83-1.1 1.1-.97.41-1.53.41h-5.97ZM244.56 174.08h2.27v-1.48c0-.19-.05-.33-.14-.41-.08-.1-.22-.14-.41-.14h-1.15c-.19 0-.33.05-.43.14-.1.08-.14.22-.14.41zm-.74 7.36c-.56 0-1.07-.14-1.53-.41s-.83-.64-1.1-1.1a2.97 2.97 0 0 1-.41-1.53v-6.47c0-.56.14-1.07.41-1.53s.64-.83 1.1-1.1.97-.41 1.53-.41h3.78c.54 0 1.04.14 1.51.41.46.27.83.64 1.1 1.1.29.46.43.97.43 1.53v4.73h-5.97v1.03c0 .19.05.33.14.43.1.1.23.14.41.14h4.85v3.18h-6.24ZM232.86 167.64c0-.56.14-1.07.41-1.53s.64-.83 1.1-1.1.97-.41 1.53-.41h4.42v3.34h-3.03c-.18 0-.31.05-.41.14-.1.08-.14.22-.14.41v1.84h2.63v2.34l-.45 1h-2.17v7.77h-3.87v-13.81ZM223.94 181.44v-12.3h2.44l.55 1.31h.12c.19-.4.49-.76.91-1.08.41-.32.89-.48 1.43-.48h1.91v3.89h-2.82c-.16 0-.29.03-.38.1a.47.47 0 0 0-.22.22c-.05.1-.07.22-.07.38v7.96zM215.86 174.08h2.27v-1.48c0-.19-.05-.33-.14-.41-.08-.1-.22-.14-.41-.14h-1.15c-.19 0-.33.05-.43.14-.1.08-.14.22-.14.41zm-.74 7.36c-.56 0-1.07-.14-1.53-.41s-.83-.64-1.1-1.1a2.97 2.97 0 0 1-.41-1.53v-6.47c0-.56.14-1.07.41-1.53s.64-.83 1.1-1.1.97-.41 1.53-.41h3.78c.54 0 1.04.14 1.51.41.46.27.83.64 1.1 1.1.29.46.43.97.43 1.53v4.73h-5.97v1.03c0 .19.05.33.14.43.1.1.23.14.41.14h4.85v3.18h-6.24ZM205.83 177.86c.19 0 .33-.05.41-.14.1-.1.14-.23.14-.41v-4.28c0-.19-.05-.33-.14-.41-.08-.1-.22-.14-.41-.14h-.91c-.22 0-.4.03-.53.1s-.23.17-.31.31c-.06.13-.1.29-.1.5v4.47h1.84Zm-5.61 3.58v-16.61h3.87v5.57h.12c.18-.38.46-.72.86-1.03.41-.32.89-.48 1.43-.48h.72c.56 0 1.06.13 1.51.38q.675.375 1.05 1.08c.27.45.41.94.41 1.48v6.57c0 .56-.14 1.07-.43 1.53-.27.46-.64.83-1.1 1.1s-.96.41-1.51.41zM193.71 178.1c.19 0 .33-.05.41-.14.1-.1.14-.23.14-.41v-4.52c0-.19-.05-.33-.14-.41-.08-.1-.22-.14-.41-.14h-1.27c-.19 0-.33.05-.43.14-.1.08-.14.22-.14.41v4.52c0 .18.05.31.14.41s.24.14.43.14zm-2.58 3.58c-.56 0-1.07-.14-1.53-.41s-.83-.64-1.1-1.1a2.97 2.97 0 0 1-.41-1.53v-6.71c0-.56.14-1.07.41-1.53s.64-.83 1.1-1.1.97-.41 1.53-.41h3.89c.54 0 1.04.14 1.51.41.46.27.83.64 1.1 1.1.29.46.43.97.43 1.53v6.71c0 .56-.14 1.07-.43 1.53-.27.46-.64.83-1.1 1.1s-.96.41-1.51.41zM183.43 181.45c-.54 0-1.04-.14-1.51-.41-.46-.27-.84-.64-1.12-1.1a2.97 2.97 0 0 1-.41-1.53v-5.93h-1.46v-3.34h1.67l1.43-3.23h2.22v3.23h2.22v2.39l-.86.96h-1.36v4.73c0 .19.05.33.14.43.1.1.23.14.41.14h1.84v3.66h-3.23ZM168.06 181.45v-16.61h3.88v8.68h.9l1.63-4.38h3.51v1.8l-1.86 4.22 2.03 4.5v1.79h-3.63l-1.68-4.42h-.9v4.42zM160.83 181.45c-.56 0-1.07-.14-1.53-.41s-.83-.64-1.1-1.1-.41-.97-.41-1.53v-6.24c0-.56.14-1.07.41-1.53s.64-.83 1.1-1.1.97-.41 1.53-.41h5.33v2.8l-.79.86h-3.15c-.18 0-.31.05-.41.14s-.14.24-.14.43v3.85c0 .19.05.33.14.43.1.1.23.14.41.14h3.94v3.66h-5.33ZM151.07 178.58c.19 0 .35-.03.48-.1.14-.08.25-.18.31-.31a1 1 0 0 0 .12-.5v-1.17h-1.7c-.19 0-.33.05-.43.14-.1.1-.14.24-.14.43v.96c0 .18.05.31.14.41.1.1.24.14.43.14zm-2.1 3.11c-.56 0-1.06-.13-1.51-.38s-.8-.61-1.08-1.05c-.25-.46-.38-.96-.38-1.51v-1.89c0-.54.13-1.04.38-1.48q.405-.69 1.08-1.08c.45-.25.95-.38 1.51-.38h2.94v-1.08c0-.19-.05-.33-.14-.41-.08-.1-.22-.14-.41-.14h-4.28v-3.15h5.73c.56 0 1.06.13 1.51.38q.675.375 1.05 1.08c.27.45.41.94.41 1.48v9.37h-2.44l-.55-1.31h-.12q-.285.6-.93 1.08c-.41.32-.89.48-1.43.48h-1.34ZM133.86 181.44v-16.72h3.99v6.45h2.1v-6.45h3.99v16.72h-3.99v-6.57h-2.1v6.57z" class="cls-80"/><path d="M102.63 176.37v-6.22h5.6v1.16l-.62.62h-3.02v.8h2.57v1.78h-2.57v1.86zM95.26 176.37v-6.22h1.95v2.22h2.67v-2.22h1.95v6.22h-1.95v-2.22h-2.67v2.22z" class="cls-96"/><path d="M102.25 183.41h1.7v1.7h-1.7zM103.95 183.41h1.7v1.7h-1.7z" class="cls-88"/><path d="M103.95 181.71h1.7v1.7h-1.7z" class="cls-99"/><path d="M105.65 180.01h1.7v1.7h-1.7zM105.65 178.31h1.7v1.7h-1.7zM102.25 161.29h1.7v1.7h-1.7zM103.95 161.29h1.7v1.7h-1.7z" class="cls-88"/><path d="M103.95 162.99h1.7v1.7h-1.7z" class="cls-99"/><path d="M105.65 164.7h1.7v1.7h-1.7zM98.84 183.41h1.7v1.7h-1.7zM97.14 183.41h1.7v1.7h-1.7z" class="cls-88"/><path d="M97.14 181.71h1.7v1.7h-1.7z" class="cls-99"/><path d="M95.44 180.01h1.7v1.7h-1.7zM95.44 178.31h1.7v1.7h-1.7zM98.84 161.29h1.7v1.7h-1.7zM97.14 161.29h1.7v1.7h-1.7z" class="cls-88"/><path d="M97.14 162.99h1.7v1.7h-1.7z" class="cls-99"/><path d="M95.44 164.7h1.7v1.7h-1.7z" class="cls-88"/><path d="M105.64 161.29h1.7v1.7h-1.7z" class="cls-99"/><path d="M107.34 162.99h1.7v1.7h-1.7z" class="cls-88"/><path d="M109.05 162.99h1.7v1.7h-1.7zM110.75 164.69h1.7v1.7h-1.7z" class="cls-99"/><path d="M112.45 166.39h1.7v1.7h-1.7z" class="cls-88"/><path d="M112.45 168.1h1.7v1.7h-1.7zM114.15 169.8h1.7v1.7h-1.7z" class="cls-99"/><path d="M114.15 171.5h1.7v1.7h-1.7z" class="cls-88"/><path d="M105.64 183.42h1.7v1.7h-1.7z" class="cls-99"/><path d="M107.34 181.72h1.7v1.7h-1.7z" class="cls-88"/><path d="M109.05 181.72h1.7v1.7h-1.7zM110.75 180.02h1.7v1.7h-1.7z" class="cls-99"/><path d="M112.45 178.32h1.7v1.7h-1.7z" class="cls-88"/><path d="M112.45 176.61h1.7v1.7h-1.7zM114.15 174.91h1.7v1.7h-1.7z" class="cls-99"/><path d="M114.15 173.21h1.7v1.7h-1.7z" class="cls-88"/><path d="M95.44 161.29h1.7v1.7h-1.7z" class="cls-99"/><path d="M93.74 162.99h1.7v1.7h-1.7z" class="cls-88"/><path d="M92.03 162.99h1.7v1.7h-1.7zM90.33 164.69h1.7v1.7h-1.7z" class="cls-99"/><path d="M88.63 166.39h1.7v1.7h-1.7z" class="cls-88"/><path d="M88.63 168.1h1.7v1.7h-1.7zM86.93 169.8h1.7v1.7h-1.7z" class="cls-99"/><path d="M86.93 171.5h1.7v1.7h-1.7z" class="cls-88"/><path d="M95.44 183.42h1.7v1.7h-1.7z" class="cls-99"/><path d="M93.74 181.72h1.7v1.7h-1.7z" class="cls-88"/><path d="M92.03 181.72h1.7v1.7h-1.7zM90.33 180.02h1.7v1.7h-1.7z" class="cls-99"/><path d="M88.63 178.32h1.7v1.7h-1.7z" class="cls-88"/><path d="M88.63 176.61h1.7v1.7h-1.7zM86.93 174.91h1.7v1.7h-1.7z" class="cls-99"/><path d="M86.93 173.21h1.7v1.7h-1.7zM109.06 161.29h1.7v1.7h-1.7zM110.76 162.99h1.7v1.7h-1.7z" class="cls-88"/><path d="M110.76 161.29h1.7v1.7h-1.7zM112.46 162.99h1.7v1.7h-1.7zM114.16 164.69h1.7v1.7h-1.7z" class="cls-99"/><path d="M114.16 162.99h1.7v1.7h-1.7zM115.87 164.69h1.7v1.7h-1.7zM117.57 166.39h1.7v1.7h-1.7z" class="cls-88"/><path d="M119.27 168.1h1.7v1.7h-1.7z" class="cls-99"/><path d="M119.27 169.8h1.7v1.7h-1.7zM107.35 161.29h1.7v1.7h-1.7zM109.06 183.42h1.7v1.7h-1.7zM107.35 183.42h1.7v1.7h-1.7zM110.76 181.72h1.7v1.7h-1.7z" class="cls-88"/><path d="M110.76 183.42h1.7v1.7h-1.7zM112.46 181.72h1.7v1.7h-1.7zM114.16 180.02h1.7v1.7h-1.7z" class="cls-99"/><path d="M114.16 181.72h1.7v1.7h-1.7zM115.87 180.02h1.7v1.7h-1.7zM117.57 178.32h1.7v1.7h-1.7z" class="cls-88"/><path d="M119.27 176.61h1.7v1.7h-1.7z" class="cls-99"/><path d="M119.27 174.91h1.7v1.7h-1.7z" class="cls-88"/><path d="M119.27 174.06h1.7v1.7h-1.7zM92.03 161.29h1.7v1.7h-1.7zM90.33 162.99h1.7v1.7h-1.7z" class="cls-88"/><path d="M90.33 161.29h1.7v1.7h-1.7zM88.63 162.99h1.7v1.7h-1.7zM86.92 164.69h1.7v1.7h-1.7z" class="cls-99"/><path d="M86.92 162.99h1.7v1.7h-1.7zM85.22 164.69h1.7v1.7h-1.7zM83.52 166.39h1.7v1.7h-1.7z" class="cls-88"/><path d="M81.82 168.1h1.7v1.7h-1.7z" class="cls-99"/><path d="M81.82 169.8h1.7v1.7h-1.7zM81.82 171.5h1.7v1.7h-1.7zM93.73 161.29h1.7v1.7h-1.7zM92.03 183.42h1.7v1.7h-1.7zM93.73 183.42h1.7v1.7h-1.7zM90.33 181.72h1.7v1.7h-1.7z" class="cls-88"/><path d="M90.33 183.42h1.7v1.7h-1.7zM88.63 181.72h1.7v1.7h-1.7zM86.92 180.02h1.7v1.7h-1.7z" class="cls-99"/><path d="M86.92 181.72h1.7v1.7h-1.7zM85.22 180.02h1.7v1.7h-1.7zM83.52 178.32h1.7v1.7h-1.7z" class="cls-88"/><path d="M81.82 176.61h1.7v1.7h-1.7z" class="cls-99"/><path d="M81.82 174.91h1.7v1.7h-1.7zM81.82 173.21h1.7v1.7h-1.7z" class="cls-88"/><path d="M115.87 163h1.7v1.7h-1.7z" class="cls-99"/><path d="M117.57 163h1.7v1.7h-1.7z" class="cls-88"/><path d="M117.57 164.7h1.7v1.7h-1.7z" class="cls-99"/><path d="M119.27 164.7h1.7v1.7h-1.7z" class="cls-88"/><path d="M120.97 164.7h1.7v1.7h-1.7z" class="cls-99"/><path d="M120.97 166.41h1.7v1.7h-1.7z" class="cls-88"/><path d="M122.68 166.41h1.7v1.7h-1.7zM122.68 168.11h1.7v1.7h-1.7zM124.38 169.81h1.7v1.7h-1.7zM124.38 171.52h1.7v1.7h-1.7zM115.87 181.72h1.7v1.7h-1.7z" class="cls-99"/><path d="M117.57 181.72h1.7v1.7h-1.7z" class="cls-88"/><path d="M117.57 180.02h1.7v1.7h-1.7z" class="cls-99"/><path d="M119.27 180.02h1.7v1.7h-1.7z" class="cls-88"/><path d="M120.97 180.02h1.7v1.7h-1.7z" class="cls-99"/><path d="M120.97 178.32h1.7v1.7h-1.7z" class="cls-88"/><path d="M122.68 178.32h1.7v1.7h-1.7zM122.68 176.62h1.7v1.7h-1.7zM124.38 174.91h1.7v1.7h-1.7zM124.38 173.21h1.7v1.7h-1.7zM85.22 163h1.7v1.7h-1.7z" class="cls-99"/><path d="M83.52 163h1.7v1.7h-1.7z" class="cls-88"/><path d="M83.52 164.7h1.7v1.7h-1.7z" class="cls-99"/><path d="M81.82 164.7h1.7v1.7h-1.7z" class="cls-88"/><path d="M80.11 164.7h1.7v1.7h-1.7z" class="cls-99"/><path d="M80.11 166.41h1.7v1.7h-1.7z" class="cls-88"/><path d="M78.41 166.41h1.7v1.7h-1.7zM78.41 168.11h1.7v1.7h-1.7zM76.71 169.81h1.7v1.7h-1.7zM76.71 171.52h1.7v1.7h-1.7zM85.22 181.72h1.7v1.7h-1.7z" class="cls-99"/><path d="M83.52 181.72h1.7v1.7h-1.7z" class="cls-88"/><path d="M83.52 180.02h1.7v1.7h-1.7z" class="cls-99"/><path d="M81.82 180.02h1.7v1.7h-1.7z" class="cls-88"/><path d="M80.11 180.02h1.7v1.7h-1.7z" class="cls-99"/><path d="M80.11 178.32h1.7v1.7h-1.7z" class="cls-88"/><path d="M78.41 178.32h1.7v1.7h-1.7zM78.41 176.62h1.7v1.7h-1.7zM76.71 174.91h1.7v1.7h-1.7zM76.71 173.21h1.7v1.7h-1.7z" class="cls-99"/><path d="M100.55 181.71h1.7v1.7h-1.7zM100.55 178.31h1.7v1.7h-1.7z" class="cls-88"/><path d="M100.55 164.69h1.7v1.7h-1.7zM100.55 161.29h1.7v1.7h-1.7zM100.55 183.42h1.7v1.7h-1.7zM100.55 180.02h1.7v1.7h-1.7z" class="cls-99"/><path d="M100.55 166.39h1.7v1.7h-1.7zM100.55 162.99h1.7v1.7h-1.7zM90.34 172.35h1.7v1.7h-1.7z" class="cls-88"/><path d="M83.53 172.35h1.7v1.7h-1.7zM80.12 172.35h1.7v1.7h-1.7z" class="cls-99"/><path d="M115.87 172.35h1.7v1.7h-1.7zM85.23 172.35h1.7v1.7h-1.7zM119.27 170.65h1.7v1.7h-1.7z" class="cls-88"/><path d="M112.46 172.35h1.7v1.7h-1.7zM120.97 172.35h1.7v1.7h-1.7z" class="cls-99"/><path d="M122.68 172.35h1.7v1.7h-1.7z" class="cls-88"/><path d="M88.64 172.35h1.7v1.7h-1.7z" class="cls-99"/><path d="M78.42 172.35h1.7v1.7h-1.7z" class="cls-88"/><path d="M117.57 172.35h1.7v1.7h-1.7z" class="cls-99"/><path d="M110.76 172.35h1.7v1.7h-1.7zM92.03 180.02h1.7v1.7h-1.7zM109.05 180.02h1.7v1.7h-1.7z" class="cls-88"/><path d="M95.44 178.31h1.7v1.7h-1.7zM105.65 178.31h1.7v1.7h-1.7z" class="cls-99"/><path d="M92.03 164.7h1.7v1.7h-1.7zM109.05 164.7h1.7v1.7h-1.7z" class="cls-88"/><path d="M95.44 166.4h1.7v1.7h-1.7zM105.65 166.4h1.7v1.7h-1.7z" class="cls-99"/></svg>