<svg xmlns="http://www.w3.org/2000/svg" xmlns:xlink="http://www.w3.org/1999/xlink" id="Layer_1" data-name="Layer 1" viewBox="0 0 1440 810"><defs><linearGradient id="linear-gradient" x1="0" x2="1440" y1="405" y2="405" gradientUnits="userSpaceOnUse"><stop offset="0" stop-color="#5bc5b8"/><stop offset="1" stop-color="#bcebe5"/></linearGradient><linearGradient id="linear-gradient-2" x1="332.29" x2="373.43" y1="313.06" y2="313.06" gradientUnits="userSpaceOnUse"><stop offset="0" stop-color="#ff7a7f"/><stop offset="1" stop-color="#ff577f"/></linearGradient><linearGradient id="linear-gradient-3" x1="276.12" x2="377.9" y1="330.1" y2="330.1" gradientUnits="userSpaceOnUse"><stop offset="0" stop-color="#008897"/><stop offset=".59" stop-color="#009e87"/><stop offset="1" stop-color="#00a880"/></linearGradient><linearGradient xlink:href="#linear-gradient-3" id="linear-gradient-4" x1="354.78" x2="381.09" y1="315.1" y2="315.1"/><linearGradient xlink:href="#linear-gradient-3" id="linear-gradient-5" x1="369.66" x2="397.44" y1="316.32" y2="316.32"/><linearGradient id="linear-gradient-6" x1="394.48" x2="455.32" y1="327.8" y2="327.8" gradientUnits="userSpaceOnUse"><stop offset="0" stop-color="#8ed7c6"/><stop offset="1" stop-color="#56adab"/></linearGradient><linearGradient xlink:href="#linear-gradient-3" id="linear-gradient-7" x1="385.82" x2="429.76" y1="370.73" y2="370.73"/><linearGradient xlink:href="#linear-gradient-3" id="linear-gradient-8" x1="377.85" x2="397.43" y1="400.63" y2="400.63"/><linearGradient xlink:href="#linear-gradient-2" id="linear-gradient-9" x1="360.43" x2="388.42" y1="403.57" y2="403.57"/><linearGradient xlink:href="#linear-gradient-3" id="linear-gradient-10" x1="306.62" x2="357.91" y1="312.48" y2="312.48"/><linearGradient xlink:href="#linear-gradient-3" id="linear-gradient-11" x1="290.02" x2="362.51" y1="408.21" y2="408.21"/><linearGradient xlink:href="#linear-gradient" id="linear-gradient-12" x1="264.77" x2="431.84" y1="537.65" y2="537.65"/><linearGradient xlink:href="#linear-gradient-6" id="linear-gradient-13" x1="237.32" x2="266.16" y1="637.27" y2="637.27"/><linearGradient id="linear-gradient-14" x1="229.93" x2="264.81" y1="642.18" y2="642.18" gradientUnits="userSpaceOnUse"><stop offset="0" stop-color="#12aa98"/><stop offset="1" stop-color="#077"/></linearGradient><linearGradient xlink:href="#linear-gradient-6" id="linear-gradient-15" x1="719.15" x2="747.99" y1="-9121.17" y2="-9121.17" gradientTransform="rotate(-65.5 8197.608 -3973.79)"/><linearGradient xlink:href="#linear-gradient-14" id="linear-gradient-16" x1="711.76" x2="746.64" y1="-9116.26" y2="-9116.26" gradientTransform="rotate(-65.5 8197.608 -3973.79)"/><linearGradient xlink:href="#linear-gradient-3" id="linear-gradient-17" x1="18103.66" x2="18123.52" y1="-2562.81" y2="-2562.81" gradientTransform="matrix(1 0 0 -1 -17618.81 -2278.31)"/><linearGradient xlink:href="#linear-gradient-6" id="linear-gradient-18" x1="18104.62" x2="18122.55" y1="-2562.81" y2="-2562.81" gradientTransform="matrix(1 0 0 -1 -17618.81 -2278.31)"/><linearGradient xlink:href="#linear-gradient-6" id="linear-gradient-19" x1="531.18" x2="603.51" y1="702.2" y2="702.2"/><linearGradient xlink:href="#linear-gradient" id="linear-gradient-20" x1="574.61" x2="612.93" y1="352.31" y2="352.31"/><linearGradient xlink:href="#linear-gradient-3" id="linear-gradient-21" x1="501.76" x2="595.11" y1="360.48" y2="360.48"/><linearGradient xlink:href="#linear-gradient-3" id="linear-gradient-22" x1="604.99" x2="715.68" y1="388.59" y2="388.59"/><linearGradient xlink:href="#linear-gradient-2" id="linear-gradient-23" x1="544.47" x2="659.11" y1="550.52" y2="550.52"/><linearGradient xlink:href="#linear-gradient-6" id="linear-gradient-24" x1="573.39" x2="645.72" y1="702.2" y2="702.2"/><linearGradient xlink:href="#linear-gradient-2" id="linear-gradient-25" x1="1048.2" x2="1119.56" y1="345.82" y2="345.82"/><linearGradient xlink:href="#linear-gradient-2" id="linear-gradient-26" x1="1130.58" x2="1201.7" y1="343.69" y2="343.69"/><linearGradient xlink:href="#linear-gradient" id="linear-gradient-27" x1="1093.93" x2="1148.79" y1="320.83" y2="320.83"/><linearGradient xlink:href="#linear-gradient-3" id="linear-gradient-28" x1="1116.87" x2="1151.1" y1="391.62" y2="391.62"/><linearGradient xlink:href="#linear-gradient-3" id="linear-gradient-29" x1="1062.58" x2="1170.94" y1="538.97" y2="538.97"/><linearGradient xlink:href="#linear-gradient-2" id="linear-gradient-30" x1="1047.88" x2="1091.98" y1="681.91" y2="681.91"/><linearGradient xlink:href="#linear-gradient-2" id="linear-gradient-31" x1="1139.4" x2="1183.06" y1="687.31" y2="687.31"/><linearGradient xlink:href="#linear-gradient-3" id="linear-gradient-32" x1="1108.28" x2="1137.68" y1="304.86" y2="304.86" gradientTransform="rotate(174.03 1122.983 304.831)"/><linearGradient xlink:href="#linear-gradient-3" id="linear-gradient-33" x1="1108.28" x2="1137.68" y1="304.86" y2="304.86" gradientTransform="rotate(174.03 1122.983 304.831)"/><linearGradient xlink:href="#linear-gradient-3" id="linear-gradient-34" x1="1123.25" x2="1141.98" y1="305.67" y2="305.67"/><linearGradient xlink:href="#linear-gradient-3" id="linear-gradient-35" x1="1107.59" x2="1128.43" y1="304.35" y2="304.35"/><linearGradient xlink:href="#linear-gradient-3" id="linear-gradient-36" x1="1103.98" x2="1112.46" y1="304.36" y2="304.36"/><linearGradient xlink:href="#linear-gradient-6" id="linear-gradient-37" x1="1109.48" x2="1136.48" y1="304.86" y2="304.86" gradientTransform="rotate(174.03 1122.983 304.831)"/><linearGradient xlink:href="#linear-gradient-6" id="linear-gradient-38" x1="1109.48" x2="1136.48" y1="304.86" y2="304.86" gradientTransform="rotate(174.03 1122.983 304.831)"/><linearGradient xlink:href="#linear-gradient-6" id="linear-gradient-39" x1="1123.53" x2="1140.42" y1="305.62" y2="305.62"/><linearGradient xlink:href="#linear-gradient-6" id="linear-gradient-40" x1="1123.37" x2="1128.42" y1="305.17" y2="305.17" gradientTransform="rotate(84.03 1125.867 305.127)"/><linearGradient xlink:href="#linear-gradient-6" id="linear-gradient-41" x1="1123.21" x2="1128.26" y1="305.15" y2="305.15" gradientTransform="rotate(84.03 1125.71 305.108)"/><linearGradient xlink:href="#linear-gradient-6" id="linear-gradient-42" x1="1123.04" x2="1128.1" y1="305.13" y2="305.13" gradientTransform="rotate(84.03 1125.546 305.094)"/><linearGradient xlink:href="#linear-gradient-6" id="linear-gradient-43" x1="1122.88" x2="1127.93" y1="305.12" y2="305.12" gradientTransform="rotate(84.03 1125.378 305.075)"/><linearGradient xlink:href="#linear-gradient-6" id="linear-gradient-44" x1="1122.72" x2="1127.77" y1="305.1" y2="305.1" gradientTransform="rotate(84.03 1125.22 305.056)"/><linearGradient xlink:href="#linear-gradient-6" id="linear-gradient-45" x1="1122.56" x2="1127.61" y1="305.08" y2="305.08" gradientTransform="rotate(84.03 1125.057 305.042)"/><linearGradient xlink:href="#linear-gradient-6" id="linear-gradient-46" x1="1122.39" x2="1127.45" y1="305.06" y2="305.06" gradientTransform="rotate(84.03 1124.894 305.028)"/><linearGradient xlink:href="#linear-gradient-6" id="linear-gradient-47" x1="1122.23" x2="1127.28" y1="305.05" y2="305.05" gradientTransform="rotate(84.03 1124.736 305.01)"/><linearGradient xlink:href="#linear-gradient-6" id="linear-gradient-48" x1="1122.07" x2="1127.12" y1="305.03" y2="305.03" gradientTransform="rotate(84.03 1124.568 304.99)"/><linearGradient xlink:href="#linear-gradient-6" id="linear-gradient-49" x1="1121.91" x2="1126.96" y1="305.01" y2="305.01" gradientTransform="rotate(84.03 1124.405 304.976)"/><linearGradient xlink:href="#linear-gradient-6" id="linear-gradient-50" x1="1121.74" x2="1126.8" y1="305" y2="305" gradientTransform="rotate(84.03 1124.247 304.957)"/><linearGradient xlink:href="#linear-gradient-6" id="linear-gradient-51" x1="1121.58" x2="1126.64" y1="304.98" y2="304.98" gradientTransform="rotate(84.03 1124.084 304.944)"/><linearGradient xlink:href="#linear-gradient-6" id="linear-gradient-52" x1="1121.42" x2="1126.47" y1="304.96" y2="304.96" gradientTransform="rotate(84.03 1123.92 304.92)"/><linearGradient xlink:href="#linear-gradient-6" id="linear-gradient-53" x1="1121.26" x2="1126.31" y1="304.95" y2="304.95" gradientTransform="rotate(84.03 1123.758 304.905)"/><linearGradient xlink:href="#linear-gradient-6" id="linear-gradient-54" x1="1121.09" x2="1126.15" y1="304.93" y2="304.93" gradientTransform="rotate(84.03 1123.594 304.892)"/><linearGradient xlink:href="#linear-gradient-6" id="linear-gradient-55" x1="1120.93" x2="1125.99" y1="304.91" y2="304.91" gradientTransform="rotate(84.03 1123.437 304.873)"/><linearGradient xlink:href="#linear-gradient-6" id="linear-gradient-56" x1="1120.77" x2="1125.82" y1="304.89" y2="304.89" gradientTransform="rotate(84.03 1123.268 304.854)"/><linearGradient xlink:href="#linear-gradient-6" id="linear-gradient-57" x1="1120.61" x2="1125.66" y1="304.88" y2="304.88" gradientTransform="rotate(84.03 1123.105 304.84)"/><linearGradient xlink:href="#linear-gradient-6" id="linear-gradient-58" x1="1120.44" x2="1125.5" y1="304.86" y2="304.86" gradientTransform="rotate(84.03 1122.947 304.82)"/><linearGradient xlink:href="#linear-gradient-6" id="linear-gradient-59" x1="1120.28" x2="1125.34" y1="304.84" y2="304.84" gradientTransform="rotate(84.03 1122.784 304.807)"/><linearGradient xlink:href="#linear-gradient-6" id="linear-gradient-60" x1="1120.12" x2="1125.17" y1="304.83" y2="304.83" gradientTransform="rotate(84.03 1122.622 304.783)"/><linearGradient xlink:href="#linear-gradient-6" id="linear-gradient-61" x1="1119.96" x2="1125.01" y1="304.81" y2="304.81" gradientTransform="rotate(84.03 1122.458 304.769)"/><linearGradient xlink:href="#linear-gradient-6" id="linear-gradient-62" x1="1119.79" x2="1124.85" y1="304.79" y2="304.79" gradientTransform="rotate(84.03 1122.295 304.755)"/><linearGradient xlink:href="#linear-gradient-6" id="linear-gradient-63" x1="1119.63" x2="1124.69" y1="304.78" y2="304.78" gradientTransform="rotate(84.03 1122.137 304.736)"/><linearGradient xlink:href="#linear-gradient-6" id="linear-gradient-64" x1="1119.47" x2="1124.52" y1="304.76" y2="304.76" gradientTransform="rotate(84.03 1121.97 304.717)"/><linearGradient xlink:href="#linear-gradient-6" id="linear-gradient-65" x1="1119.31" x2="1124.36" y1="304.74" y2="304.74" gradientTransform="rotate(84.03 1121.806 304.703)"/><linearGradient xlink:href="#linear-gradient-6" id="linear-gradient-66" x1="1119.14" x2="1124.2" y1="304.72" y2="304.72" gradientTransform="rotate(84.03 1121.648 304.684)"/><linearGradient xlink:href="#linear-gradient-6" id="linear-gradient-67" x1="1118.98" x2="1124.04" y1="304.71" y2="304.71" gradientTransform="rotate(84.03 1121.485 304.67)"/><linearGradient xlink:href="#linear-gradient-6" id="linear-gradient-68" x1="1118.82" x2="1123.87" y1="304.69" y2="304.69" gradientTransform="rotate(84.03 1121.322 304.657)"/><linearGradient xlink:href="#linear-gradient-6" id="linear-gradient-69" x1="1118.66" x2="1123.71" y1="304.67" y2="304.67" gradientTransform="rotate(84.03 1121.159 304.632)"/><linearGradient xlink:href="#linear-gradient-6" id="linear-gradient-70" x1="1118.5" x2="1123.55" y1="304.66" y2="304.66" gradientTransform="rotate(84.03 1120.996 304.619)"/><linearGradient xlink:href="#linear-gradient-6" id="linear-gradient-71" x1="1118.33" x2="1123.39" y1="304.64" y2="304.64" gradientTransform="rotate(84.03 1120.838 304.6)"/><linearGradient xlink:href="#linear-gradient-6" id="linear-gradient-72" x1="1118.17" x2="1123.22" y1="304.62" y2="304.62" gradientTransform="rotate(84.03 1120.67 304.58)"/><linearGradient xlink:href="#linear-gradient-6" id="linear-gradient-73" x1="1118.01" x2="1123.06" y1="304.61" y2="304.61" gradientTransform="rotate(84.03 1120.506 304.567)"/><linearGradient xlink:href="#linear-gradient-6" id="linear-gradient-74" x1="1117.85" x2="1122.9" y1="304.59" y2="304.59" gradientTransform="rotate(84.03 1120.349 304.548)"/><linearGradient xlink:href="#linear-gradient-6" id="linear-gradient-75" x1="1117.68" x2="1122.74" y1="304.57" y2="304.57" gradientTransform="rotate(84.03 1120.186 304.534)"/><linearGradient xlink:href="#linear-gradient-6" id="linear-gradient-76" x1="1117.52" x2="1122.57" y1="304.55" y2="304.55" gradientTransform="rotate(84.03 1120.017 304.515)"/><linearGradient xlink:href="#linear-gradient-6" id="linear-gradient-77" x1="1117.36" x2="1122.41" y1="304.54" y2="304.54" gradientTransform="rotate(84.03 1119.86 304.496)"/><linearGradient xlink:href="#linear-gradient-6" id="linear-gradient-78" x1="1117.2" x2="1122.25" y1="304.52" y2="304.52" gradientTransform="rotate(84.03 1119.696 304.482)"/><linearGradient xlink:href="#linear-gradient-6" id="linear-gradient-79" x1="1117.03" x2="1122.09" y1="304.5" y2="304.5" gradientTransform="rotate(84.03 1119.539 304.463)"/><linearGradient xlink:href="#linear-gradient-6" id="linear-gradient-80" x1="1116.87" x2="1121.92" y1="304.49" y2="304.49" gradientTransform="rotate(84.03 1119.375 304.45)"/><linearGradient xlink:href="#linear-gradient-6" id="linear-gradient-81" x1="1116.71" x2="1121.76" y1="304.47" y2="304.47" gradientTransform="rotate(84.03 1119.207 304.43)"/><linearGradient xlink:href="#linear-gradient-6" id="linear-gradient-82" x1="1116.55" x2="1121.6" y1="304.45" y2="304.45" gradientTransform="rotate(84.03 1119.05 304.411)"/><linearGradient xlink:href="#linear-gradient-6" id="linear-gradient-83" x1="1116.38" x2="1121.44" y1="304.44" y2="304.44" gradientTransform="rotate(84.03 1118.886 304.398)"/><linearGradient xlink:href="#linear-gradient-6" id="linear-gradient-84" x1="1116.22" x2="1121.28" y1="304.42" y2="304.42"/><linearGradient xlink:href="#linear-gradient-6" id="linear-gradient-85" x1="1116.06" x2="1121.11" y1="304.4" y2="304.4"/><linearGradient xlink:href="#linear-gradient-6" id="linear-gradient-86" x1="1115.9" x2="1120.95" y1="304.38" y2="304.38"/><linearGradient xlink:href="#linear-gradient-6" id="linear-gradient-87" x1="1115.74" x2="1120.79" y1="304.35" y2="304.35"/><linearGradient xlink:href="#linear-gradient-6" id="linear-gradient-88" x1="1115.58" x2="1120.63" y1="304.33" y2="304.33"/><linearGradient xlink:href="#linear-gradient-6" id="linear-gradient-89" x1="1115.42" x2="1120.46" y1="304.3" y2="304.3"/><linearGradient xlink:href="#linear-gradient-6" id="linear-gradient-90" x1="1115.26" x2="1120.3" y1="304.28" y2="304.28"/><linearGradient xlink:href="#linear-gradient-6" id="linear-gradient-91" x1="1115.09" x2="1120.14" y1="304.26" y2="304.26"/><linearGradient xlink:href="#linear-gradient-6" id="linear-gradient-92" x1="1114.93" x2="1119.98" y1="304.23" y2="304.23"/><linearGradient xlink:href="#linear-gradient-6" id="linear-gradient-93" x1="1114.77" x2="1119.81" y1="304.21" y2="304.21"/><linearGradient xlink:href="#linear-gradient-6" id="linear-gradient-94" x1="1114.61" x2="1119.65" y1="304.19" y2="304.19"/><linearGradient xlink:href="#linear-gradient-6" id="linear-gradient-95" x1="1114.45" x2="1119.49" y1="304.16" y2="304.16"/><linearGradient xlink:href="#linear-gradient-6" id="linear-gradient-96" x1="1114.29" x2="1119.33" y1="304.14" y2="304.14"/><linearGradient xlink:href="#linear-gradient-6" id="linear-gradient-97" x1="1114.13" x2="1119.16" y1="304.12" y2="304.12"/><linearGradient xlink:href="#linear-gradient-6" id="linear-gradient-98" x1="1113.97" x2="1119" y1="304.09" y2="304.09"/><linearGradient xlink:href="#linear-gradient-6" id="linear-gradient-99" x1="1113.81" x2="1118.84" y1="304.07" y2="304.07"/><linearGradient xlink:href="#linear-gradient-6" id="linear-gradient-100" x1="1113.64" x2="1118.68" y1="304.05" y2="304.05"/><linearGradient xlink:href="#linear-gradient-6" id="linear-gradient-101" x1="1113.48" x2="1118.51" y1="304.02" y2="304.02"/><linearGradient xlink:href="#linear-gradient-6" id="linear-gradient-102" x1="1113.32" x2="1118.35" y1="304" y2="304"/><linearGradient xlink:href="#linear-gradient-6" id="linear-gradient-103" x1="1113.16" x2="1118.19" y1="303.98" y2="303.98"/><linearGradient xlink:href="#linear-gradient-6" id="linear-gradient-104" x1="1113" x2="1118.03" y1="303.95" y2="303.95"/><linearGradient xlink:href="#linear-gradient-6" id="linear-gradient-105" x1="1112.84" x2="1117.86" y1="303.93" y2="303.93"/><linearGradient xlink:href="#linear-gradient-6" id="linear-gradient-106" x1="1112.68" x2="1117.7" y1="303.91" y2="303.91"/><linearGradient xlink:href="#linear-gradient-6" id="linear-gradient-107" x1="1112.52" x2="1117.54" y1="303.88" y2="303.88"/><linearGradient xlink:href="#linear-gradient-6" id="linear-gradient-108" x1="1112.36" x2="1117.38" y1="303.86" y2="303.86"/><linearGradient xlink:href="#linear-gradient-6" id="linear-gradient-109" x1="1112.19" x2="1117.21" y1="303.84" y2="303.84"/><linearGradient xlink:href="#linear-gradient-6" id="linear-gradient-110" x1="1112.03" x2="1117.05" y1="303.81" y2="303.81"/><linearGradient xlink:href="#linear-gradient-6" id="linear-gradient-111" x1="1111.87" x2="1116.89" y1="303.79" y2="303.79"/><linearGradient xlink:href="#linear-gradient-6" id="linear-gradient-112" x1="1111.71" x2="1116.73" y1="303.77" y2="303.77"/><linearGradient xlink:href="#linear-gradient-6" id="linear-gradient-113" x1="1111.55" x2="1116.57" y1="303.74" y2="303.74"/><linearGradient xlink:href="#linear-gradient-6" id="linear-gradient-114" x1="1111.39" x2="1116.4" y1="303.72" y2="303.72"/><linearGradient xlink:href="#linear-gradient-6" id="linear-gradient-115" x1="1111.23" x2="1116.24" y1="303.7" y2="303.7"/><linearGradient xlink:href="#linear-gradient-6" id="linear-gradient-116" x1="1111.07" x2="1116.08" y1="303.67" y2="303.67"/><linearGradient xlink:href="#linear-gradient-6" id="linear-gradient-117" x1="1110.91" x2="1115.92" y1="303.65" y2="303.65"/><linearGradient xlink:href="#linear-gradient-6" id="linear-gradient-118" x1="1110.75" x2="1115.75" y1="303.63" y2="303.63"/><linearGradient xlink:href="#linear-gradient-6" id="linear-gradient-119" x1="1110.58" x2="1115.59" y1="303.6" y2="303.6"/><linearGradient xlink:href="#linear-gradient-6" id="linear-gradient-120" x1="1110.42" x2="1115.43" y1="303.58" y2="303.58"/><linearGradient xlink:href="#linear-gradient-6" id="linear-gradient-121" x1="1110.26" x2="1115.27" y1="303.56" y2="303.56"/><linearGradient xlink:href="#linear-gradient-6" id="linear-gradient-122" x1="1110.1" x2="1115.1" y1="303.53" y2="303.53"/><linearGradient xlink:href="#linear-gradient-6" id="linear-gradient-123" x1="1109.94" x2="1114.94" y1="303.51" y2="303.51"/><linearGradient xlink:href="#linear-gradient-6" id="linear-gradient-124" x1="1109.78" x2="1114.78" y1="303.49" y2="303.49"/><linearGradient xlink:href="#linear-gradient-6" id="linear-gradient-125" x1="1109.62" x2="1114.62" y1="303.46" y2="303.46"/><linearGradient xlink:href="#linear-gradient-6" id="linear-gradient-126" x1="1109.46" x2="1114.45" y1="303.44" y2="303.44"/><linearGradient xlink:href="#linear-gradient-6" id="linear-gradient-127" x1="1109.3" x2="1114.29" y1="303.42" y2="303.42"/><linearGradient xlink:href="#linear-gradient-6" id="linear-gradient-128" x1="1109.13" x2="1114.13" y1="303.39" y2="303.39"/><linearGradient xlink:href="#linear-gradient-6" id="linear-gradient-129" x1="1108.97" x2="1113.97" y1="303.38" y2="303.38"/><linearGradient xlink:href="#linear-gradient-6" id="linear-gradient-130" x1="1105.53" x2="1113.61" y1="304.28" y2="304.28"/><linearGradient xlink:href="#linear-gradient-3" id="linear-gradient-131" x1="1131.77" x2="1135.55" y1="286.55" y2="286.55"/><linearGradient xlink:href="#linear-gradient-3" id="linear-gradient-132" x1="1128.32" x2="1131.12" y1="286.32" y2="286.32"/><linearGradient xlink:href="#linear-gradient-6" id="linear-gradient-133" x1="-1169.3" x2="-1097.93" y1="-819.01" y2="-819.01" gradientTransform="translate(1338.31 1040.38)"/><linearGradient xlink:href="#linear-gradient-3" id="linear-gradient-134" x1="-1179.59" x2="-1086.88" y1="-817.75" y2="-817.75" gradientTransform="rotate(-12.35 4343.7 -6483.517)"/><linearGradient xlink:href="#linear-gradient-2" id="linear-gradient-135" x1="-1156.1" x2="-1130.1" y1="-843.73" y2="-843.73" gradientTransform="rotate(-12.35 4343.7 -6483.517)"/><linearGradient xlink:href="#linear-gradient-2" id="linear-gradient-136" x1="-1156.1" x2="-1111.81" y1="-822.88" y2="-822.88" gradientTransform="rotate(-12.35 4343.7 -6483.517)"/><linearGradient xlink:href="#linear-gradient-2" id="linear-gradient-137" x1="-1156.1" x2="-1124.89" y1="-833.3" y2="-833.3" gradientTransform="rotate(-12.35 4343.7 -6483.517)"/><linearGradient id="linear-gradient-138" x1="1951.17" x2="2041.7" y1="636.26" y2="636.26" gradientTransform="rotate(12.02 3372.913 -5534.329)" gradientUnits="userSpaceOnUse"><stop offset="0" stop-color="#077"/><stop offset="1" stop-color="#12aa98"/></linearGradient><linearGradient id="linear-gradient-139" x1="1962.55" x2="2030.32" y1="636.26" y2="636.26" gradientTransform="translate(-1254.84 -421.99)" gradientUnits="userSpaceOnUse"><stop offset="0" stop-color="#009877"/><stop offset="1" stop-color="#50d098"/></linearGradient><linearGradient xlink:href="#linear-gradient-2" id="linear-gradient-140" x1="1970.47" x2="1993.22" y1="623.64" y2="623.64" gradientTransform="rotate(12.02 3372.913 -5534.329)"/><linearGradient xlink:href="#linear-gradient-138" id="linear-gradient-141" x1="1962.45" x2="2030.24" y1="653.2" y2="653.2"/><linearGradient xlink:href="#linear-gradient-138" id="linear-gradient-142" x1="-863.24" x2="-814.49" y1="-892.87" y2="-892.87" gradientTransform="rotate(-15.33 4692.212 -6270.441)"/><linearGradient xlink:href="#linear-gradient-2" id="linear-gradient-143" x1="-849.87" x2="-814.5" y1="-913.94" y2="-913.94" gradientTransform="rotate(-15.33 4692.212 -6270.441)"/><linearGradient xlink:href="#linear-gradient-138" id="linear-gradient-144" x1="2418.06" x2="2466.81" y1="1326.98" y2="1326.98" gradientTransform="rotate(17.62 4150.727 -6423.206)"/><linearGradient xlink:href="#linear-gradient-2" id="linear-gradient-145" x1="2431.42" x2="2466.8" y1="1305.91" y2="1305.91" gradientTransform="rotate(17.62 4150.727 -6423.206)"/><linearGradient xlink:href="#linear-gradient-2" id="linear-gradient-146" x1="442.23" x2="523.34" y1="436.28" y2="436.28"/><linearGradient xlink:href="#linear-gradient-139" id="linear-gradient-147" x1="445.03" x2="521.43" y1="430.29" y2="430.29"/><linearGradient xlink:href="#linear-gradient-3" id="linear-gradient-148" x1="2774.81" x2="2860.77" y1="-457.43" y2="-457.43" gradientTransform="rotate(90.01 1686.975 -893.24)"/><linearGradient xlink:href="#linear-gradient-2" id="linear-gradient-149" x1="457.37" x2="460.35" y1="118.32" y2="118.32"/><linearGradient id="linear-gradient-150" x1="453.84" x2="497.84" y1="126.2" y2="126.2" gradientUnits="userSpaceOnUse"><stop offset="0" stop-color="#077"/><stop offset="1" stop-color="#12a593"/></linearGradient><linearGradient xlink:href="#linear-gradient-2" id="linear-gradient-151" x1="439" x2="475.5" y1="129.84" y2="129.84"/><linearGradient xlink:href="#linear-gradient-2" id="linear-gradient-152" x1="462.55" x2="475.5" y1="130.75" y2="130.75"/><linearGradient xlink:href="#linear-gradient-2" id="linear-gradient-153" x1="460.35" x2="462.96" y1="121.11" y2="121.11"/><linearGradient xlink:href="#linear-gradient-2" id="linear-gradient-154" x1="453.84" x2="457.37" y1="115.44" y2="115.44"/><linearGradient xlink:href="#linear-gradient-150" id="linear-gradient-155" x1="475.5" x2="508.92" y1="167.16" y2="167.16"/><linearGradient xlink:href="#linear-gradient-150" id="linear-gradient-156" x1="448.6" x2="488.21" y1="168.78" y2="168.78"/><linearGradient xlink:href="#linear-gradient-150" id="linear-gradient-157" x1="438.67" x2="476.29" y1="153.67" y2="153.67"/><linearGradient xlink:href="#linear-gradient-2" id="linear-gradient-158" x1="476.29" x2="507.79" y1="138.35" y2="138.35"/><linearGradient xlink:href="#linear-gradient-2" id="linear-gradient-159" x1="418.13" x2="447.19" y1="171.15" y2="171.15"/><linearGradient xlink:href="#linear-gradient-150" id="linear-gradient-160" x1="417.15" x2="439.31" y1="141.39" y2="141.39"/><linearGradient xlink:href="#linear-gradient-2" id="linear-gradient-161" x1="437.57" x2="484.59" y1="186.54" y2="186.54"/><linearGradient xlink:href="#linear-gradient" id="linear-gradient-162" x1="196.24" x2="219.74" y1="366.58" y2="366.58"/><linearGradient xlink:href="#linear-gradient" id="linear-gradient-163" x1="735.61" x2="759.11" y1="312.48" y2="312.48"/><linearGradient xlink:href="#linear-gradient" id="linear-gradient-164" x1="332.26" x2="355.76" y1="625.52" y2="625.52"/><linearGradient xlink:href="#linear-gradient" id="linear-gradient-165" x1="746.04" x2="769.53" y1="518.17" y2="518.17"/><linearGradient xlink:href="#linear-gradient" id="linear-gradient-166" x1="351.31" x2="374.8" y1="111.9" y2="111.9"/><linearGradient xlink:href="#linear-gradient" id="linear-gradient-167" x1="433.97" x2="451.07" y1="250.38" y2="250.38"/><linearGradient xlink:href="#linear-gradient" id="linear-gradient-168" x1="541.11" x2="555.75" y1="180.08" y2="180.08"/><linearGradient xlink:href="#linear-gradient" id="linear-gradient-169" x1="529.36" x2="544" y1="261.76" y2="261.76"/><linearGradient xlink:href="#linear-gradient" id="linear-gradient-170" x1="651.79" x2="666.43" y1="223.29" y2="223.29"/><linearGradient xlink:href="#linear-gradient" id="linear-gradient-171" x1="184.07" x2="198.7" y1="557.42" y2="557.42"/><linearGradient xlink:href="#linear-gradient" id="linear-gradient-172" x1="299.3" x2="313.94" y1="665.68" y2="665.68"/><linearGradient xlink:href="#linear-gradient" id="linear-gradient-173" x1="785.93" x2="800.56" y1="467.87" y2="467.87"/><linearGradient xlink:href="#linear-gradient" id="linear-gradient-174" x1="715.68" x2="730.32" y1="432.25" y2="432.25"/><linearGradient xlink:href="#linear-gradient" id="linear-gradient-175" x1="474.48" x2="489.12" y1="349.8" y2="349.8"/><linearGradient xlink:href="#linear-gradient" id="linear-gradient-176" x1="430.25" x2="444.88" y1="487.06" y2="487.06"/><linearGradient xlink:href="#linear-gradient" id="linear-gradient-177" x1="287.55" x2="302.19" y1="528.41" y2="528.41"/><linearGradient xlink:href="#linear-gradient" id="linear-gradient-178" x1="691.66" x2="706.3" y1="578.91" y2="578.91"/><linearGradient xlink:href="#linear-gradient" id="linear-gradient-179" x1="490.52" x2="505.16" y1="516.66" y2="516.66"/><linearGradient xlink:href="#linear-gradient" id="linear-gradient-180" x1="246.9" x2="261.54" y1="441.26" y2="441.26"/><linearGradient xlink:href="#linear-gradient" id="linear-gradient-181" x1="236.66" x2="251.3" y1="301.63" y2="301.63"/><linearGradient xlink:href="#linear-gradient" id="linear-gradient-182" x1="536.68" x2="560.18" y1="99.71" y2="99.71"/><linearGradient xlink:href="#linear-gradient-2" id="linear-gradient-183" x1="237.66" x2="261.16" y1="515.15" y2="515.15"/><linearGradient xlink:href="#linear-gradient-2" id="linear-gradient-184" x1="499.31" x2="522.81" y1="642.18" y2="642.18"/><linearGradient xlink:href="#linear-gradient-2" id="linear-gradient-185" x1="280.7" x2="304.19" y1="168.78" y2="168.78"/><linearGradient xlink:href="#linear-gradient-2" id="linear-gradient-186" x1="757.79" x2="781.28" y1="585.76" y2="585.76"/><linearGradient xlink:href="#linear-gradient-139" id="linear-gradient-187" x1="462.12" x2="485.62" y1="574.02" y2="574.02"/><linearGradient xlink:href="#linear-gradient-139" id="linear-gradient-188" x1="689.65" x2="713.15" y1="653.93" y2="653.93"/><linearGradient xlink:href="#linear-gradient-2" id="linear-gradient-189" x1="620.17" x2="643.67" y1="149.33" y2="149.33"/><clipPath id="clippath"><rect width="25.87" height="48.82" x="1110.04" y="280.45" rx="7.19" ry="7.19" style="stroke-width:0;fill:url(#linear-gradient-33)" transform="rotate(185.97 1122.97 304.893)"/></clipPath><clipPath id="clippath-1"><rect width="23.37" height="46.06" x="1111.29" y="281.83" rx="5.23" ry="5.23" style="stroke-width:0;fill:url(#linear-gradient-38)" transform="rotate(185.97 1122.97 304.893)"/></clipPath><style>.cls-190,.cls-193,.cls-196,.cls-197,.cls-198{stroke-width:0}.cls-198{fill:#fff}.cls-190{fill:#f7ab8d}.cls-193{fill:#aa5755}.cls-196{fill:#fed7bd}.cls-197{fill:#744034}</style></defs><path d="M0 0h1440v810H0z" style="stroke-width:0;fill:url(#linear-gradient);opacity:.3"/><path d="m365.93 246.1 1.35-3.82c3.48-2.51 4.28-5.71 2.4-9.58l.1-6.05c-7.95-.01-15.8-1.2-23.57-3.55-.13-.04-.27-.07-.41-.09-1.36-.19-2.64.64-2.86 1.85l-2 11.09c-.06.44-.28.85-.62 1.18-4.42 4.2.67-12.54-10.75-4.62-2.9 2.02-3.71 4.58-2.42 7.66 1.85 4.43 2.32 8.67 1.4 12.7l-3.12 18.79 6.87 8.55 16.77-5.11.45-8.7c.06-1.09 1-1.98 2.22-2.1 10.45-1 20.14-4.2 16.07-15.42l-1.87-2.79Zm-7.23-12.26c.02-.05.05-.11.08-.16-.03.05-.06.1-.08.16m.17-.31.11-.14c-.04.04-.08.09-.11.14m-.3 1.17s.01.1.03.15c0-.02-.01-.03-.02-.05v-.1Zm.82-1.66c.06-.04.12-.07.18-.1-.06.03-.13.06-.18.1m-.15.1s-.1.08-.14.12c.04-.04.09-.08.14-.12m-.68 1.2v.17zm.07-.34c-.02.06-.03.11-.05.17.01-.06.03-.11.05-.17" class="cls-190"/><path d="M369.78 226.66c-7.95-.01-15.8-1.2-23.57-3.55-1.31-.4-2.73.23-3.17 1.39-.05.12-.08.24-.1.37l-2 11.09c-.06.44-.28.85-.62 1.18-4.42 4.2.67-12.54-10.75-4.62-2.9 2.02-3.71 4.58-2.42 7.66 1.85 4.43 2.32 8.67 1.4 12.7-10.16-13.59-10.76-27.53-1.77-41.83 2.95-4.69 7.07-6.64 12.37-5.87 5.85.86 11.26 0 16.25-2.61 3.48-1.82 7.74-2.13 12.77-.94 16.6 3.93 17.55 19.64 1.62 25.02Z" style="stroke-width:0;fill:#1b1f3e"/><path d="m349.06 275.12 5.72 2.32c3.95 28.48 13.82 48.25 18.65 73.57l-15.52-.09q-.225-3.525-1.77-6.36c-.82-23.73-8.76-45.17-23.84-64.32l16.77-5.11Z" style="stroke-width:0;fill:url(#linear-gradient-2)"/><path d="M306.62 276.37c9.58 14.03 14.16 27.39 13.75 40.09-.37 11.47-.9 22.97-1.6 34.48-.07 1.23.99 2.28 2.36 2.35h.31l30.22-1.81 6.25-.56 15.52.09 2.6 1.76c-.75 5.76-.12 11.34 1.87 16.74l-.05 3.68-17.42 4c-23.27 5.36-43.09 8.99-67.41 4.87-16.1-10.76-17.02-23.88-16.9-42.34.15-18.93 2.6-58.28 30.49-63.34Z" style="stroke-width:0;fill:url(#linear-gradient-3)"/><path d="M354.78 277.44c6.25.28 11.87 2.08 16.87 5.4a44.2 44.2 0 0 0-1.8 17.32c.09.98 1.06 1.71 2.16 1.63q.195-.015.39-.06c.77-.19 1.52-.14 2.25.16 5.92 2.39 6.7 41.8 6.37 47.92l-5 2.97-2.6-1.76c-4.82-25.31-14.7-45.09-18.65-73.57Z" style="stroke-width:0;fill:url(#linear-gradient-4)"/><path d="M371.65 282.84c15.05 11.56 21.57 36.14 25.62 52.07.55 2.83-.25 5.22-2.4 7.16-4.13 3.26-8.75 5.83-13.85 7.72.32-6.12-.45-45.53-6.37-47.92-.73-.3-1.48-.35-2.25-.16-1.06.27-2.17-.27-2.48-1.22-.04-.11-.06-.23-.07-.34a44.2 44.2 0 0 1 1.8-17.32Z" style="stroke-width:0;fill:url(#linear-gradient-5)"/><path d="m444.03 321.99-14.52 22.5c-.54.83-.43 1.87.27 2.59l.62.62c.9.91.8 2.32-.24 3.13-.13.1-.26.19-.41.26a94 94 0 0 1-9.65 4.33c-3.92 1.5-7.92 2.05-12.02 1.65-3.93-.39-7.86-1.06-11.8-2.03-1.33-.33-2.1-1.57-1.72-2.77.04-.12.09-.24.15-.35.72-1.35 1.44-2.66 2.17-3.91 1.35-2.37 1.65-5.45-2.02-5.94 2.15-1.95 2.95-4.34 2.4-7.16l22.32-35.38c.44-.72 1.3-1.16 2.22-1.14l31.07.62c1.38.03 2.47 1.05 2.44 2.28 0 .33-.1.66-.27.95l-11.02 19.73Z" style="stroke-width:0;fill:url(#linear-gradient-6)"/><path d="m444.03 321.99.15 2.72c.05.65.41 1.25 1 1.65 8.17 5.58 8.1 18.46-1.87 22.9-.33.15-.61.35-.82.6l-12.72 14.06c-5.42 1.55-10.43 1.02-15.05-1.58-.75-.44-1.72-.48-2.52-.09-8 3.82-16.51 6.24-25.54 7.25-2.87-.67-5.78-.67-8.75 0-2-5.4-2.62-10.98-1.87-16.74l5-2.97c5.1-1.89 9.71-4.46 13.85-7.72 3.67.49 3.37 3.57 2.02 5.94-.73 1.25-1.46 2.55-2.17 3.91-.59 1.13-.06 2.47 1.18 2.99.13.05.26.1.39.13 3.93.97 7.86 1.64 11.8 2.03 4.1.4 8.11-.15 12.02-1.65a94 94 0 0 0 9.65-4.33c1.2-.61 1.62-1.97.94-3.03a2 2 0 0 0-.29-.36l-.62-.62c-.7-.72-.81-1.76-.27-2.59l14.52-22.5Z" class="cls-190"/><path d="M429.76 363.93c-10.58 10.88-24.53 16.05-41.84 15.51-2.28-2.78-2.71-6.09-1.27-9.93 9.03-1.01 17.55-3.43 25.54-7.25.8-.39 1.77-.35 2.52.09 4.62 2.6 9.63 3.13 15.05 1.58" style="stroke-width:0;fill:url(#linear-gradient-7)"/><path d="M386.65 369.51c-1.43 3.84-1.01 7.15 1.27 9.93 1.63 12.51 4.74 28.71 9.32 48.59.82 3.5-1.05 4.82-5.6 3.97l-3.22-5.67-10.57-53.14.05-3.68c2.97-.67 5.88-.67 8.75 0" style="stroke-width:0;fill:url(#linear-gradient-8)"/><path d="m377.85 373.19 10.57 53.14c-7.26 4.84-15.9 7.37-25.92 7.61l-2.07-56.76 17.42-4Z" style="stroke-width:0;fill:url(#linear-gradient-9)"/><path d="M320.37 316.45c-.37 11.47-.9 22.97-1.6 34.48v.28c.1 1.23 1.29 2.15 2.67 2.07l30.22-1.81 6.25-.56q-.225-3.525-1.77-6.36c-.82-23.73-8.76-45.17-23.84-64.32l-6.87-8.55-18.79 4.69c9.58 14.03 14.16 27.39 13.75 40.09Z" style="stroke-width:0;fill:url(#linear-gradient-10)"/><path d="M360.43 377.19c-23.27 5.36-43.09 8.99-67.41 4.87l-3 53.28c-.07 1.22 1 2.26 2.37 2.32l8.75.4c21.03 2.46 41.48 1.09 61.36-4.11z" style="stroke-width:0;fill:url(#linear-gradient-11)"/><path d="M421.74 509.92c-7.71-20.7-15.7-41.31-23.94-61.83L391.65 432l-3.22-5.67c-7.26 4.84-15.9 7.37-25.92 7.61-19.88 5.19-40.33 6.56-61.36 4.11 9.3 32.63 28.94 65.95 44.99 97.45.02.03.03.06.04.09.51 1.13-.1 2.42-1.37 2.88-31.09 11.54-55.58 36.89-79.3 58.14-.43.39-.69.91-.72 1.47-.07 1.16.18 2.31.75 3.46l10.6 14.44c37.76-20.94 68.08-38.26 90.98-51.98 21.22-12.72 11.57-37.21 6.3-61.65 8.58 12.93 16.15 26.22 22.69 39.86a2 2 0 0 1 .17 1.29c-6.82 33.37-3.6 68.39-3.05 101.82.01.86.58 1.64 1.45 2.01l3.95 1.63h2.92l15.1-1.03c2.88-.24 4.48-1.44 4.8-3.59 3.58-25.15 6.94-54.51 10.07-88.1 1.67-18.01-3.3-28.93-9.77-46.34Zm-58.68-57.03c-.12 0-.24.03-.36.05.12-.02.24-.04.36-.05m-.44.07s-.1.02-.14.04c.05-.01.1-.03.14-.04m-.24.07s-.09.03-.13.05c.04-.02.09-.03.13-.05m-.23.09s-.08.04-.11.05c.04-.02.08-.04.11-.05m-.22.11s-.06.04-.1.06c.03-.02.06-.04.1-.06m-.2.12s-.06.04-.08.06c.03-.02.05-.04.08-.06m-.18.14s-.05.04-.08.07c.02-.02.05-.05.08-.07m-.17.15s-.05.05-.07.08c.02-.03.05-.05.07-.08m-.63 1.38v.09zm.48-1.22s-.05.06-.07.09c.02-.03.05-.06.07-.09m-.13.18s-.04.07-.06.1c.02-.03.04-.07.06-.1m-.11.19s-.04.07-.05.11c.02-.04.03-.07.05-.11m-.09.2s-.03.07-.04.11c.01-.04.03-.07.04-.11m-.07.21-.03.11c0-.04.02-.07.03-.11m-.05.22s0 .06-.01.1c0-.03 0-.06.01-.1m-.02.45v.07-.07m34.05-4.69s.07-.06.1-.1c-.03.04-.07.07-.1.1m-.81.39c.05 0 .11-.02.16-.03zm.3-.08s.1-.04.14-.06c-.05.02-.1.04-.14.06m.27-.13s.09-.05.12-.08c-.04.03-.08.05-.12.08m.69-1.03-.03.14zm-.06.27s-.04.09-.06.13c.02-.04.04-.09.06-.13m-.12.25s-.05.08-.08.12c.03-.04.06-.08.08-.12m.19-.67v-.18.18" style="stroke-width:0;fill:url(#linear-gradient-12)"/><path d="m265.53 601.54 10.6 14.44c-6.3.22-11.36 2.29-15.17 6.2l-9.82-3.44c-3.35-1.16-3.45-2.51-.3-4.04 3.6-1.74 6.76-4.46 9.5-8.15l5.2-5.02Z" class="cls-190"/><path d="M260.33 606.56c-2.73 3.69-5.9 6.41-9.5 8.15-3.15 1.53-3.05 2.88.3 4.04l9.82 3.44c2.95 3.24 5.01 7.12 5.18 11.55.1 2.67-.28 5.33-.54 7.98a84.5 84.5 0 0 0-.08 15.34c.2 2.36 1.43 9.25-.95 10.96-1.49 1.07-5.11-1.24-6.36-2.21-2.25-1.76-4.02-4.12-5.56-6.49-3.79-5.83-6.47-12.4-8.72-18.96-1.69-4.91-3.52-10.17-4.01-15.38-1.96-2.79-.59-1.02-2.6-7.52v-6.9c.06-.9 2.4-1.76 3.35-2.07 6.28-2.05 12.84-2.69 19.67-1.92Z" style="stroke-width:0;fill:url(#linear-gradient-13)"/><path d="m239.09 622.19.82 2.79c.75 7.83 12.05 45.31 24.89 42.88-.6 14.26-13.7 2.75-18.22-2.14-9.68-14.92-15.22-31.47-16.62-49.64-.33-4.3 1.44-6.45 5.32-6.45 1.38 0 2.5 1 2.51 2.25v.16c-.32 3.54.12 6.93 1.3 10.16Z" style="stroke-width:0;fill:url(#linear-gradient-14)"/><path d="M405.44 672.3c4.39-2.44 8.55-3.74 12.45-3.89l-.52-3.26c-1.83-5.67-2.07-11.41-.73-17.21l-14.81 1.01-5.55-1.01-2.47 18.42 1.69 12.09c0-.12.83-.54.96-.63.32-.22.64-.44.96-.67.88-.62 1.98 3.3 2.92 2.76.96-.55 3.64-3.51 4.59-4.08 1.75 2.24 1.02-1.9 1.02-1.96-.01-.5-.21-1.04-.5-1.58Z" class="cls-190"/><path d="M394.11 662.9c2.22 4.02 3.38 8.02 3.47 12.02.09 3.5 1.36 3.97 3.8 1.4l7.2-7.51c4.17-1.35 8.55-1.61 12.66.08 2.47 1.01 4.73 2.46 7.04 3.8 4.43 2.56 9.1 4.72 13.92 6.44 2.23.8 9.01 2.53 9.58 5.4.35 1.8-3.25 4.14-4.65 4.87-2.53 1.32-5.41 1.95-8.22 2.37-6.88 1.03-13.97.74-20.87.07-5.17-.5-10.71-1.02-15.66-2.72-3.35.63-1.17.11-7.92-.75l-6.28-2.86c-.79-.42-.61-2.92-.5-3.9.74-6.57 2.87-12.8 6.41-18.69Z" style="stroke-width:0;fill:url(#linear-gradient-15)"/><path d="m399.52 688.71 2.88.41c7.44 2.57 46.22 7.83 49.34-4.87 12.73 6.46-3.18 13.6-9.51 15.69-17.6 2.62-34.95.8-52.06-5.46-4.05-1.48-5.27-3.99-3.66-7.52.57-1.26 1.95-1.86 3.08-1.35.05.02.1.05.15.07q4.635 2.64 9.78 3.03" style="stroke-width:0;fill:url(#linear-gradient-16)"/><path d="M508.51 321.52c.57-.37-.75-.27-.19-.66 3.25-2.29 6.31-4.92 9.08-7.84-2.79-4.3-6.91-10.77-6.96-11.62-.06-1.09 1.23-.76.95-9.29-.08-2.46-1.79-5.53-1.79-5.53s-2.13-3.76-3.03-3.51c-.91.25-1.35 1.46-1.2 2.29s1.15 2.22 1.31 3.05c.15.83-1.12 3-1.82 3.53s-6.64-10.76-6.64-10.76-1.57-3.32-2.02-4.46c-.38-.97-1.32-3.98-1.32-3.98s-1.54-4.21-2.67-3.68c-.66.31-.21 4.41.81 8.31 1.09 4.2 2.77 8.21 2.44 8.42-.78.49-4.17-5.63-4.17-5.63s-1.02-3.25-1.85-4.49c-.33-2.1-1.74-5.32-3.06-4.57-.24.14.57 5.07.57 5.07s1.05 3.06 1.47 4.55c.74 2.63 2.8 6.03 3.42 7.76.52 1.45-.05 1.15-.13 1.3-.06.11-1-1.69-2.32-4.15-.67-1.24-1.65-2.48-2.23-4.04-.54-1.44-1.53-3.32-2.15-4.44-1.76-3.16-3.17-1.48-1.95 1.74.46 1.23.98 2.56 1.51 3.9 2.05 5.23 4.88 9.55 4.49 9.93-.51.5-5.27-7.69-5.27-7.69s-3.66-3.67-1.85 1.08c2.1 5.51 4.68 9.26 4.81 9.42.83 1.07 2.78 5.78 6.18 9.04 3.39 3.26 8.94 8.25 8.94 8.25.59 1.07 4.22 3.97 6.66 8.69Z" class="cls-196"/><circle cx="502.79" cy="298.85" r="2.78" style="stroke-width:0;fill:#8c809b"/><rect width="19.85" height="37.46" x="484.85" y="265.77" rx="5.22" ry="5.22" style="stroke-width:0;fill:url(#linear-gradient-17)" transform="rotate(160.61 494.778 284.516)"/><rect width="17.93" height="35.34" x="485.82" y="266.84" rx="4.44" ry="4.44" style="stroke-width:0;fill:url(#linear-gradient-18)" transform="rotate(160.61 494.778 284.516)"/><path d="m483.248 270.812.062-.092 7.853 5.274-.06.091zM481.624 270.705l.061-.091 7.854 5.273-.061.092zM494.742 271.683l.062-.09 5.942 4.012-.062.09zM493.114 271.574l.062-.09 5.942 4.012-.062.09zM499.407 284.957l.061-.091 5.942 4.012-.061.091zM499.601 286.14l.062-.092 5.942 4.013-.062.091zM488.363 287.303l.063-.09 7.033 4.879-.063.09zM489.137 288.848l.063-.09 7.033 4.88-.062.09zM498.05 301.32l.06-.09-6.59-4.58-.06.09zM490.896 297.384l.064-.09 5.429 3.858-.064.09zM507.85 297.99l.06-.09-6.59-4.58-.06.08zM502.125 292.98l.064-.089 5.429 3.858-.064.09z" class="cls-198"/><circle cx="499.61" cy="298.42" r="1.6" class="cls-198"/><path d="M598.37 693.9c-.56-1.3 1.39-3.9.34-4.69l-1.15-10.85h-22.61l1.09 10.12c-.29.15-.57.3-.82.45l-4.11 4.27c-.34 2.42.46 4.36 2.44 5.81 5.4.43 9.48 2.76 12.22 7.01 4.85-3.62 10.77-5.24 17.72-4.9l-5.13-7.22Z" class="cls-196"/><path d="M598.27 684.12c-7.82 1.61-15.41 1.03-22.77-1.75-.17-.06-1.76 1.63-1.97 1.82-.69.63-1.38 1.24-2.09 1.86-1.4 1.22-2.83 2.41-4.28 3.58-2.91 2.33-5.91 4.53-9 6.61-.85.57-1.71 1.13-2.6 1.65-.78.45-1.42 1.23-2.33 1.43-.35.08-.71.05-1.07.04-3.07-.14-6.09.27-8.94 1.45-2.84 1.18-5.27 3.32-7.47 5.41-2.16 2.05-3.51 4.51-4.41 7.35-.54 1.71.2 3.48 1.57 4.32 2.98 1.84 6.29 3.14 9.75 3.72 3.6.61 7.34.37 10.98.41 7.8.09 15.66-.4 23.42-1.19 7.82-.8 15.6-2 23.3-3.6l.12-.02c7.12-2.94-.37-27.46-2.22-33.09Z" style="stroke-width:0;fill:url(#linear-gradient-19)"/><path d="m611.97 200.88 8.71 17.96c.16.37.44.61.7.65l.51.07-.33.51c-.19.3-.21.72-.09 1.17 2.76 11.07-.42 19.99-9.5 26.74-2.26-1.61-2.66-5.56-1.19-11.81.33-1.49-.28-3.04-1.56-3.85-1.8-1.17-4.55 5.53-4.97 6.49-.33.79-.91 1.35-1.54 1.49-2.22.54-2.55-1.77-2.17-3.48 1.33-6.14 1.8-12.49 1.4-19.08a3.24 3.24 0 0 0-4.02-2.94c-7.12 1.8-14.69 2.22-22.72 1.26-4.62-1.89-6.28-4.97-4.97-9.25.21-.7.77-1.24 1.49-1.49 12.7-4.37 28.14-9.9 40.25-4.44" class="cls-197"/><path d="m621.9 219.56-.51-.07c-.26-.05-.54-.28-.7-.65l-8.71-17.96c19.38-6.93 22.67 17.12 9.92 18.68" class="cls-197"/><path d="M611.97 247.97c-2.26-1.61-2.66-5.56-1.19-11.81.33-1.49-.28-3.04-1.56-3.85-1.8-1.17-4.55 5.53-4.97 6.49-.33.79-.91 1.35-1.54 1.49-2.22.54-2.55-1.77-2.17-3.48 1.33-6.14 1.8-12.49 1.4-19.08a3.24 3.24 0 0 0-4.02-2.94c-7.12 1.8-14.69 2.22-22.72 1.26l-1.49 22.63c-.4 7.36.44 14.52 2.57 21.48.35 1.14 1.33 1.91 2.4 1.87l13.57-.56c.28.02.42.4.42 1.07 0 .61-.4 1.24-1.07 1.66l-7.05 4.39 8.17 7.59c5.49.4 10.9-.23 16.25-1.84 1.7-2.17 2.78-4.44 3.27-6.84-2.08-6.47-2.17-12.96-.26-19.52Z" class="cls-196"/><path d="M608.96 274.33c-3.71 16.93-4.83 33.46-3.32 49.62 3.55 38.27 5.98 73.22 7.29 104.86.02.51-.14.96-.4 1.12l-.56.35c-12.82-1-25.08-4.18-36.78-9.53l-.47-2.41c-.19-.86-.16-1.63.07-2.17 4.76-11.65 8.76-23.51 11.98-35.63 5.11-19.19 6.86-42.15 8.01-61.69.79-13.45.09-27.67-2.08-42.68 5.49.4 10.9-.23 16.25-1.84Z" style="stroke-width:0;fill:url(#linear-gradient-20)"/><path d="M584.54 268.59c-6.16 1.8-8.17 13.31-8.76 17.91-4.75 6.56-7.27 14.35-10.66 21.62-3.11 6.67-7.21 13.24-13.49 17.09-3.68 2.25-7.62 3.25-10.98.12-7.99-7.44-16.51-13.83-25.08-20.6l-13.82 12.36c9.31 12.22 19.45 24 30.41 35.34 8.58 8.86 18.29 15.2 30.41 5.5 1.11-.89 2.15-1.71 3.1-2.47-.6 8.54-.96 17.1-1.08 25.7a578 578 0 0 0-5.77 71.22c2.12-3.85 15.04-31.59 16.37-31.62l-.47-2.41c-.19-.86-.16-1.63.07-2.17 4.76-11.65 8.76-23.51 11.98-35.63 5.11-19.19 6.86-42.15 8.01-61.69.79-13.45.09-27.67-2.08-42.68l-8.17-7.59Zm-18.42 115.44h.02zm.91-.18" style="stroke-width:0;fill:url(#linear-gradient-21)"/><path d="M711.47 376.16c5.98-5.88 5.14-11.44.37-18.12a1128 1128 0 0 1-42.61-64.51c-8.15-13.31-21.93-29.82-39.16-20.27-2.43-.14-4.37-1.31-5.84-3.5-3.43-2.59-7.45-3.34-12-2.26-.49 2.41-1.56 4.67-3.27 6.84-3.71 16.93-4.83 33.46-3.32 49.62 3.55 38.27 5.98 73.22 7.29 104.86.02.51-.14.96-.4 1.12l-.56.35c.51.89.96 1.42.93 2.5-1 23.51-.98 47.63.02 72.34.07 2.17 1.77 3.9 3.85 3.95l39.06 1.1c12.82-.21 38.9-4.2 46.37-16.27 3.9-6.33 2.08-12.77-5.51-19.33-.42.25-.85.39-1.28.46.43-.06.86-.21 1.28-.46-6.33-7.87-12.75-15.69-19.26-23.47-7.4-8.8-11.74-20.2-13.08-34.18-7.85-13.4-11.79-24.83-15.54-39.02-.37-1.42-.75-2.87-1.12-4.34.37 1.48.75 2.93 1.12 4.34 3.75 14.19 7.69 25.63 15.54 39.02 16.74-12.73 32.43-26.32 47.1-40.75Zm-69.91-28.42s.04-.07.06-.1c-.02.03-.04.07-.06.1m.53-.42s.05-.01.08-.02l.44-.05-.44.05s-.05.01-.08.02m14.55 32.62.29-.44c-.58-5.91.05-11.88 1.91-17.93-.33-.54-.67-1.07-1.01-1.6.34.53.68 1.06 1.01 1.6l8.69 6.16-10.6 11.77z" style="stroke-width:0;fill:url(#linear-gradient-22)"/><path d="M646.25 539.21c-.35-.63-.42-1.4-.16-2.1l9.76-26.95-39.06-1.1c-2.08-.05-3.78-1.77-3.85-3.95-1-24.7-1.03-48.82-.02-72.34.02-1.07-.42-1.61-.93-2.5-12.82-1-25.08-4.18-36.78-9.53-1.33.02-14.24 27.76-16.37 31.62-8.71 26.6-16.02 49.36-14.03 76.07 1 13.8 8.17 27.79 10.93 42.36a258 258 0 0 0 5.44 22.79c2.01 6.96 2.78 14.57 4.04 21.71 1.34 7.56 2.6 15.14 3.79 22.73 2.3 14.68 3.57 20.23 5.33 34.95.32 2.66.32 3.97.76 6.53 5.48.1 9.39.15 12.82-.15 3.93-.35 6.06-.22 10.03-.22-.75-1.35.04 2.28-.17.74-.27-2.05-.52-4.11-.76-6.16-.48-4.27-.88-8.55-1.17-12.84-.57-8.28.89-15.91 1.66-24.12.97-10.34 1.63-20.75 1.03-31.13-.56-9.75-2.12-19.44-4.62-28.88-2.47-9.31-6.34-18.11-8.92-27.33-.91-3.25-2.6-6.24-3.31-9.55-.09-.42.12-1.26.56-2.24l20.73-44.83c.72-1.56 1.07-1.42 1.07.4-.07 18.17 2.99 36.05 9.13 53.63 3.39 9.69 3.15 17.84 3.48 27.58 1.14 32.9 1.33 65.75.56 98.58l25.71.14a316 316 0 0 0 10.11-38.71c7.15-36.73 11.28-63.21-6.77-95.2Z" style="stroke-width:0;fill:url(#linear-gradient-23)"/><path d="m617.21 672.98 25.71.14c.35 3.9-.47 7.57-2.43 11-7.82 1.61-15.41 1.03-22.77-1.75 1-3.06.82-6.19-.51-9.39" class="cls-196"/><path d="M640.48 684.12c-7.82 1.61-15.41 1.03-22.77-1.75-.17-.06-1.76 1.63-1.97 1.82-.69.63-1.38 1.24-2.09 1.86-1.4 1.22-2.83 2.41-4.28 3.58-2.91 2.33-5.91 4.53-9 6.61-.85.57-1.71 1.13-2.6 1.65-.78.45-1.42 1.23-2.33 1.43-.35.08-.71.05-1.07.04-3.07-.14-6.09.27-8.94 1.45-2.84 1.18-5.27 3.32-7.47 5.41-2.16 2.05-3.51 4.51-4.41 7.35-.54 1.71.2 3.48 1.57 4.32 2.98 1.84 6.29 3.14 9.75 3.72 3.6.61 7.34.37 10.98.41 7.8.09 15.66-.4 23.42-1.19s15.6-2 23.3-3.6l.12-.02c7.12-2.94-.37-27.46-2.22-33.09Z" style="stroke-width:0;fill:url(#linear-gradient-24)"/><path d="M1189.79 360.61c-.61.24.69.38.08.64a60.6 60.6 0 0 0-10.17 5.6c2.05 4.41 5.05 11.03 4.97 11.82-.11 1.01-1.33.48-2.42 8.33-.31 2.26.87 5.36.87 5.36s1.49 3.8 2.42 3.73 1.56-1.1 1.54-1.89-.78-2.23-.79-3.02c-.02-.79 1.58-2.55 2.35-2.92s4.8 10.98 4.8 10.98 1.01 3.3 1.26 4.42c.22.96.66 3.87.66 3.87s.84 4.11 2.03 3.82c.7-.17.91-4 .54-7.73-.4-4.02-1.41-7.98-1.05-8.11.84-.31 3.19 5.86 3.19 5.86s.48 3.15 1.1 4.42c0 1.98.86 5.16 2.27 4.7.26-.09.26-4.73.26-4.73s-.54-2.98-.71-4.41c-.31-2.53-1.78-5.99-2.12-7.69-.28-1.41.23-1.05.33-1.16.08-.09.71 1.72 1.62 4.19.46 1.24 1.22 2.55 1.54 4.08.3 1.41.97 3.3 1.4 4.43 1.22 3.19 2.88 1.9 2.2-1.25-.26-1.2-.55-2.5-.85-3.83-1.17-5.14-3.26-9.56-2.82-9.85.58-.37 3.94 7.93 3.94 7.93s3 3.98 1.99-.67c-1.18-5.4-3.11-9.27-3.21-9.44-.64-1.12-1.81-5.76-4.61-9.32-2.81-3.56-7.45-9.08-7.45-9.08-.41-1.08-3.5-4.36-5.14-9.09Z" class="cls-193"/><path d="m1115.03 324.3-2.03-4.73c-.14-.36-.02-1.33.31-2.53 3.16-11 3.93-22.21 2.29-33.64-.14-.94-.63-1.69-1.33-2l-8.54-3.92a1.4 1.4 0 0 1-.26-.15c-5.83-4.2-10.79-15.39-12.32-22.7-.29-1.37-.86 3.93-1.39 5.22-.59 1.44-.79 3.07-.59 4.88 1.3 11.12.12 22.09-3.52 32.92-1.45 4.27-2.87 4.22-4.27-.19l-4.34-13.62c-.22-.72-.63-.75-1.21-.05-5.31 6.49-3.98-12.35-4.12-13.84-.05-.6-.7-.99-1.25-.77-1.57.63-10.85 7.21-10.97 6.39-.07-.51.17-1.16.65-1.76 1.53-1.98 7.37-11.26 7.93-13.49.45-1.77-7.03 4.71-7.53 6.47-8.17 28.74-12.94 57.94-14.3 87.61-.72 15.86 4.92 27.03 21.63 26.28.89-.04 1.59.75 1.45 1.63l-.97 6.04-5.14 45.05c-.07.8.34 1.5 1.01 1.66l6.46 1.54c.08.02.16.03.24.04l9.92.58c.13 0 .27 0 .4-.04 4.09-1 8.2-1.07 12.33-.17q.135.03.27.03l18.5.07c2.92.02 4.39-1.57 4.44-4.75l.43-31.02c0-.19-.03-.37-.1-.54-1.69-4.12-2.44-8.44-2.25-12.98.02-.46.27-.87.65-1.12l.42-.27c.42-.27.66-.74.64-1.25-.91-18.64 4.53-44.57-3.57-60.88Zm-11.67-33.98c-1.48 8.66-2.6 15.54-3.36 20.65.76-5.11 1.88-11.99 3.36-20.65m1.83 40.06c-2.56-.06-4.35-1.09-5.38-3.08 1.03 1.99 2.83 3.02 5.38 3.08.96.02 2.02-.09 3.2-.34-1.17.25-2.24.36-3.2.34m6.02-1.16c.33-.18.62-.44.86-.76-.24.33-.53.59-.86.76" style="stroke-width:0;fill:url(#linear-gradient-25)"/><path d="M1175.34 396.51c-1.11-8.71-2.07-17.43-2.92-26.17-.07-.73.43-1.4 1.16-1.53l26.96-4.81c1.07-.19 1.53-1.46.83-2.3-4.95-5.99-17.55-25.43-23.47-47.76-7.46-28.1-22.48-50.37-23.54-51.93-.04-.06-.08-.12-.11-.19l-3.92-8.18.13.69c-.07-.24-.12-.47-.13-.69.75 10.39 4.58 17.27.31 27.95-1.09 2.75-.4 1.78-1.85-.8-3.21-5.7-9.88-13.94-15.98-18.39-1.2-.88-2.75.49-2.07 1.81 18.69 36.61 10.73 75.1 14 111.7.04.39.23.76.55 1l.79.61c.33.26.53.65.55 1.07l.48 16.04s0 .1.01.14l3.46 25.92c.27 2 1.66 12.68 3.26 12.22 0 0 2.45 2.35 8.96-1.15-.98.37 2.24-2.84 1.66-1.99 1.35.19 3.11-.85 4.39-1.23 1.06 0 2.05-.65 3.05-.93 1.25-.36 2.47-.51 3.45-1.47 1.66-1.64 1.89-4.27 1.98-6.47.1-2.68.1-5.44-.39-8.08-.94-5.01-.96-10.05-1.6-15.11Z" style="stroke-width:0;fill:url(#linear-gradient-26)"/><path d="M1117.38 183.39c6.35 2.29 13.42 8.22 16.32 13.68 2.93 5.52 2.62 11.7 4.53 17.48 2.13 6.46 6.28 12.06 9.99 17.67 2.57 3.88 5.08 8.12 6.03 12.74s-.29 9.54.06 14.32c.75 10.39 4.58 17.27.31 27.95-1.09 2.75-2.36 2.85-3.81.27-3.91-6.94-10.06-19.24-18.21-21.58-1.21-2.92-3.26-4.75-6.13-5.52l-2.17-14.42c10.49-10.47 10.06-21.61 5.33-35.33-.34-.96-.87-1.71-1.45-2.03-5.5-2.89-11.36-3.76-17.56-2.63-.77.14-1.45.6-1.83 1.25-3.13 5.4-6 11.02-8.58 16.83-3.47 7.79-.58 13.41 3.95 19.63l-6.13 11.96-4.12 1.11c-2.19 2.05-3.11 4.7-2.75 7.96 1.3 11.12.12 22.09-3.52 32.92-1.45 4.27-2.87 4.22-4.27-.19l-4.34-13.62c-.22-.72-.63-.75-1.21-.05-5.31 6.49-3.98-12.35-4.12-13.84-.05-.6-.7-.99-1.25-.77-1.57.63-10.85 7.21-10.97 6.39-.07-.51.17-1.16.65-1.76 3.5-4.53 4.49-9.72 2.94-15.58-1.46-5.56 6.04-13.46 9.05-17.49 4.17-5.58 8.63-11.33 9.76-18.4.98-6.19-.7-12.55 1.19-18.62 1.74-5.56 5.53-10.64 9.11-15.13 3.78-4.75 15.41-7.11 21.02-5.84.71.16 1.43.38 2.17.64Z" style="stroke-width:0;fill:#431b20"/><path d="M1124.31 245.98c-5.57 5.09-11.17 4.61-16.78-1.47-.92-.99-2.03-1.25-3.35-.8-4.53-6.22-7.43-11.84-3.95-19.63 2.58-5.81 5.45-11.43 8.58-16.83.39-.65 1.06-1.11 1.83-1.25 6.2-1.13 12.06-.27 17.56 2.63.58.31 1.11 1.06 1.45 2.03 4.73 13.72 5.16 24.86-5.33 35.33Z" class="cls-193"/><path d="M1104.18 243.71c1.33-.46 2.44-.19 3.35.8 5.62 6.08 11.21 6.56 16.78 1.47l2.17 14.42c-8.13 4.44-23.99 6.15-28.43-4.73z" style="stroke-width:0;fill:#a0594d"/><path d="M1098.05 255.67c4.44 10.88 20.3 9.16 28.43 4.73 2.87.77 4.92 2.6 6.13 5.52 21.51 37.98 12.64 78.16 16.18 116.26l-30.14 3.81c-1.11-18.69 4.61-45.14-3.62-61.68l-2.03-4.73c-.14-.36-.02-1.33.31-2.53 3.16-11 3.93-22.21 2.29-33.64-.14-.94-.63-1.69-1.33-2l-8.68-3.98c-6.75-4.82-10.63-11.7-11.67-20.64l4.12-1.11Z" style="stroke-width:0;fill:url(#linear-gradient-27)"/><path d="m1148.79 382.18 1.81 1.4.51 16.78-30.05.7h-1.81c-1.86-4.41-2.63-9.07-2.31-13.96l1.71-1.11z" style="stroke-width:0;fill:url(#linear-gradient-28)"/><path d="m1142.06 522.74 9.24-20.5c14.83-23.32 21.36-46.38 19.26-74.09l-11.71 2.59c-1.59.46-4.01-2.39-4.28-4.39l-3.47-26-30.05.7h-1.81l-.43 31.3c-.05 3.18-1.52 4.77-4.44 4.75l-18.64-.07-.52.02.52-.02c-4.24-.94-8.46-.87-12.66.19l-10.25-.6c-.36 8.95 1.21 17.63 4.68 26.02 7.79 18.76 15.99 37.4 24.6 55.95.31.7.36 1.52.1 2.24-3.91 10.75-4 23.03-8.75 32.94-15.77 32.87-22.19 71.72-30.87 106.92 5.04.07 9.96 1.83 14.73 5.23 11.16-27.08 23.17-53.68 36-79.8.87-1.76 1.52-1.69 1.95.24 6.7 29.93 15.1 59.56 25.18 88.89l-.7 2.32c1.23-2.05 2.99-3.11 5.28-3.14.84-.02 1.59-.19 2.24-.55l5.23-2.85 5.33-3.71a2324 2324 0 0 1-10.44-112.08c-.77-10.9-3.71-21.44-5.33-32.51Zm-67.43 117.93c-.02.07-.04.13-.06.19.02-.06.04-.13.06-.19v-.01zm62.46-234.34" style="stroke-width:0;fill:url(#linear-gradient-29)"/><path d="M1083.2 682.5c.55-6.82-1.42-12.35-5.88-16.57-4.77-3.4-9.69-5.16-14.73-5.23-5.76 4.24-10.59 9.36-14.44 15.36-.39.6-.34 1.4.12 1.95l13.21 15.94c8.49 8.37 18.66 11 30.5 7.93l-8.34-17.1c-.34-.72-.51-1.52-.43-2.29Z" style="stroke-width:0;fill:url(#linear-gradient-30)"/><path d="M1176.93 680.14c-1.66 0-3.23-.17-4.72-.49-4.46-.97-8.15-3.36-11.1-7.18 2.95 3.82 6.64 6.21 11.1 7.18 1.49.32 3.06.49 4.72.49l-19.1-12.8-5.33 3.71-5.23 2.85c-.65.36-1.4.53-2.24.55-2.29.02-4.05 1.09-5.28 3.14-1.09 9.48.34 18.57 4.32 27.23l-.1 1.71c5.79 1.18 11.57 1.01 17.39-.51 5.86-2.99 21.85-9.14 21.7-16.88.02-4.36-2.03-7.38-6.13-8.99Z" style="stroke-width:0;fill:url(#linear-gradient-31)"/><rect width="25.87" height="48.82" x="1110.04" y="280.45" rx="7.19" ry="7.19" style="fill:url(#linear-gradient-32)" transform="rotate(185.97 1122.97 304.893)"/><g style="clip-path:url(#clippath)"><path d="m1130.58 280.63-2.15-.22-5.18 49.5 9.82 1.03 8.91-48.2z" style="stroke-width:0;fill:url(#linear-gradient-34)"/><path d="m1128.43 280.41-15.54-1.63-.43 2.3-4.87 46.57 7.79 1.44 7.87.82z" style="stroke-width:0;fill:url(#linear-gradient-35)"/><path d="m1107.59 327.65 4.87-46.57-8.48 45.9z" style="stroke-width:0;fill:url(#linear-gradient-36)"/></g><rect width="23.37" height="46.06" x="1111.29" y="281.83" rx="5.23" ry="5.23" style="fill:url(#linear-gradient-37)" transform="rotate(185.97 1122.97 304.893)"/><g style="clip-path:url(#clippath-1)"><path d="m1129.66 281.93-1.24-.13-4.89 46.75 8.48.89 8.41-45.52z" style="stroke-width:0;fill:url(#linear-gradient-39)"/><path d="M1102.39 305.08h47.01v.16h-47.01z" style="stroke-width:0;fill:url(#linear-gradient-40)" transform="rotate(-84.03 1125.85 305.188)"/><path d="M1102.23 305.07h47.01v.16h-47.01z" style="stroke-width:0;fill:url(#linear-gradient-41)" transform="rotate(-84.03 1125.69 305.175)"/><path d="M1102.07 305.05h47.01v.16h-47.01z" style="stroke-width:0;fill:url(#linear-gradient-42)" transform="rotate(-84.03 1125.53 305.152)"/><path d="M1101.9 305.03h47.01v.16h-47.01z" style="stroke-width:0;fill:url(#linear-gradient-43)" transform="rotate(-84.03 1125.366 305.134)"/><path d="M1101.74 305.02h47.01v.16h-47.01z" style="stroke-width:0;fill:url(#linear-gradient-44)" transform="rotate(-84.03 1125.206 305.121)"/><path d="M1101.58 305h47.01v.16h-47.01z" style="stroke-width:0;fill:url(#linear-gradient-45)" transform="rotate(-84.03 1125.042 305.103)"/><path d="M1101.42 304.98h47.01v.16h-47.01z" style="stroke-width:0;fill:url(#linear-gradient-46)" transform="rotate(-84.03 1124.877 305.085)"/><path d="M1101.25 304.97h47.01v.16h-47.01z" style="stroke-width:0;fill:url(#linear-gradient-47)" transform="rotate(-84.03 1124.717 305.073)"/><path d="M1101.09 304.95h47.01v.16h-47.01z" style="stroke-width:0;fill:url(#linear-gradient-48)" transform="rotate(-84.03 1124.552 305.055)"/><path d="M1100.93 304.93h47.01v.16h-47.01z" style="stroke-width:0;fill:url(#linear-gradient-49)" transform="rotate(-84.03 1124.392 305.031)"/><path d="M1100.77 304.91h47.01v.16h-47.01z" style="stroke-width:0;fill:url(#linear-gradient-50)" transform="rotate(-84.03 1124.228 305.013)"/><path d="M1100.6 304.9h47.01v.16h-47.01z" style="stroke-width:0;fill:url(#linear-gradient-51)" transform="rotate(-84.03 1124.068 305)"/><path d="M1100.44 304.88h47.01v.16h-47.01z" style="stroke-width:0;fill:url(#linear-gradient-52)" transform="rotate(-84.03 1123.903 304.983)"/><path d="M1100.28 304.86h47.01v.16h-47.01z" style="stroke-width:0;fill:url(#linear-gradient-53)" transform="rotate(-84.03 1123.738 304.965)"/><path d="M1100.12 304.85h47.01v.16h-47.01z" style="stroke-width:0;fill:url(#linear-gradient-54)" transform="rotate(-84.03 1123.579 304.952)"/><path d="M1099.95 304.83h47.01v.16h-47.01z" style="stroke-width:0;fill:url(#linear-gradient-55)" transform="rotate(-84.03 1123.414 304.934)"/><path d="M1099.79 304.81h47.01v.16h-47.01z" style="stroke-width:0;fill:url(#linear-gradient-56)" transform="rotate(-84.03 1123.254 304.91)"/><path d="M1099.63 304.8h47.01v.16h-47.01z" style="stroke-width:0;fill:url(#linear-gradient-57)" transform="rotate(-84.03 1123.095 304.898)"/><path d="M1099.47 304.78h47.01v.16h-47.01z" style="stroke-width:0;fill:url(#linear-gradient-58)" transform="rotate(-84.03 1122.93 304.88)"/><path d="M1099.3 304.76h47.01v.16h-47.01z" style="stroke-width:0;fill:url(#linear-gradient-59)" transform="rotate(-84.03 1122.765 304.862)"/><path d="M1099.14 304.74h47.01v.16h-47.01z" style="stroke-width:0;fill:url(#linear-gradient-60)" transform="rotate(-84.03 1122.606 304.85)"/><path d="M1098.98 304.73h47.01v.16h-47.01z" style="stroke-width:0;fill:url(#linear-gradient-61)" transform="rotate(-84.03 1122.44 304.832)"/><path d="M1098.82 304.71h47.01v.16h-47.01z" style="stroke-width:0;fill:url(#linear-gradient-62)" transform="rotate(-84.03 1122.276 304.814)"/><path d="M1098.66 304.69h47.01v.16h-47.01z" style="stroke-width:0;fill:url(#linear-gradient-63)" transform="rotate(-84.03 1122.122 304.795)"/><path d="M1098.49 304.68h47.01v.16h-47.01z" style="stroke-width:0;fill:url(#linear-gradient-64)" transform="rotate(-84.03 1121.957 304.777)"/><path d="M1098.33 304.66h47.01v.16h-47.01z" style="stroke-width:0;fill:url(#linear-gradient-65)" transform="rotate(-84.03 1121.792 304.76)"/><path d="M1098.17 304.64h47.01v.16h-47.01z" style="stroke-width:0;fill:url(#linear-gradient-66)" transform="rotate(-84.03 1121.632 304.747)"/><path d="M1098.01 304.63h47.01v.16h-47.01z" style="stroke-width:0;fill:url(#linear-gradient-67)" transform="rotate(-84.03 1121.468 304.729)"/><path d="M1097.84 304.61h47.01v.16h-47.01z" style="stroke-width:0;fill:url(#linear-gradient-68)" transform="rotate(-84.03 1121.303 304.711)"/><path d="M1097.68 304.59h47.01v.16h-47.01z" style="stroke-width:0;fill:url(#linear-gradient-69)" transform="rotate(-84.03 1121.143 304.698)"/><path d="M1097.52 304.57h47.01v.16h-47.01z" style="stroke-width:0;fill:url(#linear-gradient-70)" transform="rotate(-84.03 1120.978 304.68)"/><path d="M1097.36 304.56h47.01v.16h-47.01z" style="stroke-width:0;fill:url(#linear-gradient-71)" transform="rotate(-84.03 1120.818 304.657)"/><path d="M1097.19 304.54h47.01v.16h-47.01z" style="stroke-width:0;fill:url(#linear-gradient-72)" transform="rotate(-84.03 1120.66 304.644)"/><path d="M1097.03 304.52h47.01v.16h-47.01z" style="stroke-width:0;fill:url(#linear-gradient-73)" transform="rotate(-84.03 1120.494 304.626)"/><path d="M1096.87 304.51h47.01v.16h-47.01z" style="stroke-width:0;fill:url(#linear-gradient-74)" transform="rotate(-84.03 1120.33 304.608)"/><path d="M1096.71 304.49h47.01v.16h-47.01z" style="stroke-width:0;fill:url(#linear-gradient-75)" transform="rotate(-84.03 1120.17 304.596)"/><path d="M1096.54 304.47h47.01v.16h-47.01z" style="stroke-width:0;fill:url(#linear-gradient-76)" transform="rotate(-84.03 1120.005 304.578)"/><path d="M1096.38 304.46h47.01v.16h-47.01z" style="stroke-width:0;fill:url(#linear-gradient-77)" transform="rotate(-84.03 1119.84 304.56)"/><path d="M1096.22 304.44h47.01v.16h-47.01z" style="stroke-width:0;fill:url(#linear-gradient-78)" transform="rotate(-84.03 1119.686 304.542)"/><path d="M1096.06 304.42h47.01v.16h-47.01z" style="stroke-width:0;fill:url(#linear-gradient-79)" transform="rotate(-84.03 1119.52 304.524)"/><path d="M1095.89 304.41h47.01v.16h-47.01z" style="stroke-width:0;fill:url(#linear-gradient-80)" transform="rotate(-84.03 1119.356 304.506)"/><path d="M1095.73 304.39h47.01v.16h-47.01z" style="stroke-width:0;fill:url(#linear-gradient-81)" transform="rotate(-84.03 1119.197 304.493)"/><path d="M1095.57 304.37h47.01v.16h-47.01z" style="stroke-width:0;fill:url(#linear-gradient-82)" transform="rotate(-84.03 1119.032 304.475)"/><path d="M1095.41 304.35h47.01v.16h-47.01z" style="stroke-width:0;fill:url(#linear-gradient-83)" transform="rotate(-84.03 1118.867 304.457)"/><path d="m1121.28 281.05-.17-.02-4.89 46.75.08.01.08.01z" style="stroke-width:0;fill:url(#linear-gradient-84)"/><path d="m1121.11 281.03-.16-.01-4.89 46.73.16.03z" style="stroke-width:0;fill:url(#linear-gradient-85)"/><path d="m1120.95 281.02-.16-.02-4.89 46.72.16.03z" style="stroke-width:0;fill:url(#linear-gradient-86)"/><path d="m1120.79 281-.16-.02-4.89 46.71.16.03z" style="stroke-width:0;fill:url(#linear-gradient-87)"/><path d="m1120.63 280.98-.17-.01-4.88 46.69.16.03z" style="stroke-width:0;fill:url(#linear-gradient-88)"/><path d="m1120.46 280.97-.16-.02-4.88 46.68.16.03z" style="stroke-width:0;fill:url(#linear-gradient-89)"/><path d="m1120.3 280.95-.16-.02-4.88 46.67.16.03z" style="stroke-width:0;fill:url(#linear-gradient-90)"/><path d="m1120.14 280.93-.16-.01-4.89 46.65.17.03z" style="stroke-width:0;fill:url(#linear-gradient-91)"/><path d="m1119.98 280.92-.17-.02-4.88 46.64.16.03z" style="stroke-width:0;fill:url(#linear-gradient-92)"/><path d="m1119.81 280.9-.16-.02-4.88 46.63.16.03z" style="stroke-width:0;fill:url(#linear-gradient-93)"/><path d="m1119.65 280.88-.16-.02-4.88 46.62.16.03z" style="stroke-width:0;fill:url(#linear-gradient-94)"/><path d="m1119.49 280.86-.16-.01-4.88 46.6.16.03z" style="stroke-width:0;fill:url(#linear-gradient-95)"/><path d="m1119.33 280.85-.17-.02-4.87 46.59.16.03z" style="stroke-width:0;fill:url(#linear-gradient-96)"/><path d="m1119.16 280.83-.16-.02-4.87 46.58.16.03z" style="stroke-width:0;fill:url(#linear-gradient-97)"/><path d="m1119 280.81-.16-.01-4.87 46.56.16.03z" style="stroke-width:0;fill:url(#linear-gradient-98)"/><path d="m1118.84 280.8-.16-.02-4.87 46.55.16.03z" style="stroke-width:0;fill:url(#linear-gradient-99)"/><path d="m1118.68 280.78-.17-.02-4.87 46.54.17.03z" style="stroke-width:0;fill:url(#linear-gradient-100)"/><path d="m1118.51 280.76-.16-.01-4.87 46.52.16.03z" style="stroke-width:0;fill:url(#linear-gradient-101)"/><path d="m1118.35 280.75-.16-.02-4.87 46.51.16.03z" style="stroke-width:0;fill:url(#linear-gradient-102)"/><path d="m1118.19 280.73-.16-.02-4.87 46.5.16.03z" style="stroke-width:0;fill:url(#linear-gradient-103)"/><path d="m1118.03 280.71-.17-.02-4.86 46.49.16.03z" style="stroke-width:0;fill:url(#linear-gradient-104)"/><path d="m1117.86 280.69-.16-.01-4.86 46.47.16.03z" style="stroke-width:0;fill:url(#linear-gradient-105)"/><path d="m1117.7 280.68-.16-.02-4.86 46.47.16.02z" style="stroke-width:0;fill:url(#linear-gradient-106)"/><path d="m1117.54 280.66-.16-.02-4.86 46.46.16.03z" style="stroke-width:0;fill:url(#linear-gradient-107)"/><path d="m1117.38 280.64-.17-.01-4.85 46.44.16.03z" style="stroke-width:0;fill:url(#linear-gradient-108)"/><path d="m1117.21 280.63-.16-.02-4.86 46.43.17.03z" style="stroke-width:0;fill:url(#linear-gradient-109)"/><path d="m1117.05 280.61-.16-.02-4.86 46.42.16.03z" style="stroke-width:0;fill:url(#linear-gradient-110)"/><path d="m1116.89 280.59-.16-.01-4.86 46.4.16.03z" style="stroke-width:0;fill:url(#linear-gradient-111)"/><path d="m1116.73 280.58-.16-.02-4.86 46.39.16.03z" style="stroke-width:0;fill:url(#linear-gradient-112)"/><path d="m1116.57 280.56-.17-.02-4.85 46.38.16.03z" style="stroke-width:0;fill:url(#linear-gradient-113)"/><path d="m1116.4 280.54-.16-.02-4.85 46.37.16.03z" style="stroke-width:0;fill:url(#linear-gradient-114)"/><path d="m1116.24 280.52-.16-.01-4.85 46.35.16.03z" style="stroke-width:0;fill:url(#linear-gradient-115)"/><path d="m1116.08 280.51-.16-.02-4.85 46.34.16.03z" style="stroke-width:0;fill:url(#linear-gradient-116)"/><path d="m1115.92 280.49-.17-.02-4.84 46.33.16.03z" style="stroke-width:0;fill:url(#linear-gradient-117)"/><path d="m1115.75 280.47-.16-.01-4.84 46.31.16.03z" style="stroke-width:0;fill:url(#linear-gradient-118)"/><path d="m1115.59 280.46-.16-.02-4.85 46.3.17.03z" style="stroke-width:0;fill:url(#linear-gradient-119)"/><path d="m1115.43 280.44-.16-.02-4.85 46.29.16.03z" style="stroke-width:0;fill:url(#linear-gradient-120)"/><path d="m1115.27 280.42-.17-.01-4.84 46.27.16.03z" style="stroke-width:0;fill:url(#linear-gradient-121)"/><path d="m1115.1 280.41-.16-.02-4.84 46.26.16.03z" style="stroke-width:0;fill:url(#linear-gradient-122)"/><path d="m1114.94 280.39-.16-.02-4.84 46.25.16.03z" style="stroke-width:0;fill:url(#linear-gradient-123)"/><path d="m1114.78 280.37-.16-.02-4.84 46.24.16.03z" style="stroke-width:0;fill:url(#linear-gradient-124)"/><path d="m1114.62 280.35-.17-.01-4.83 46.22.16.03z" style="stroke-width:0;fill:url(#linear-gradient-125)"/><path d="m1114.45 280.34-.16-.02-4.83 46.21.16.03z" style="stroke-width:0;fill:url(#linear-gradient-126)"/><path d="m1114.29 280.32-.16-.02-4.83 46.2.16.03z" style="stroke-width:0;fill:url(#linear-gradient-127)"/><path d="m1114.13 280.3-.16-.01-4.84 46.18.17.03z" style="stroke-width:0;fill:url(#linear-gradient-128)"/><path d="m1113.97 280.29-.02-.01-.34 1.84-4.64 44.32.16.03z" style="stroke-width:0;fill:url(#linear-gradient-129)"/><path d="m1108.97 326.44 4.64-44.32-8.08 43.68z" style="stroke-width:0;fill:url(#linear-gradient-130)"/></g><path d="M1135.27 285.45c-1.7-1.88-4.37-.05-3.21 2.21 1.7 1.88 4.37.05 3.21-2.21" style="stroke-width:0;fill:url(#linear-gradient-131)"/><path d="M1130.91 285.5c-1.25-1.4-3.23-.03-2.38 1.64 1.25 1.4 3.23.03 2.38-1.64" style="stroke-width:0;fill:url(#linear-gradient-132)"/><path d="M1096.22 339.14c-.39-.53.78.05.41-.5-2.19-3.19-4.1-6.59-5.63-10.15 4.08-2.64 10.15-6.66 10.49-7.37.44-.92-.87-1.12 2.38-8.34.94-2.08 3.59-4.08 3.59-4.08s3.28-2.43 4.03-1.87.74 1.76.3 2.42c-.43.66-1.84 1.48-2.28 2.13-.43.66-.02 3 .44 3.72s9.9-6.75 9.9-6.75 2.61-2.26 3.42-3.08c.69-.69 2.61-2.93 2.61-2.93s2.9-3.04 3.75-2.16c.5.52-1.35 3.87-3.66 6.83-2.48 3.19-5.43 6.01-5.2 6.31.55.71 5.82-3.27 5.82-3.27s2.08-2.41 3.28-3.16c1.04-1.68 3.47-3.92 4.43-2.77.18.21-2.3 4.14-2.3 4.14s-2.04 2.24-2.95 3.36c-1.6 1.98-4.69 4.13-5.88 5.38-.99 1.05-.36 1.01-.34 1.16.02.12 1.51-1.08 3.6-2.69 1.05-.81 2.39-1.51 3.47-2.63 1-1.04 2.57-2.28 3.54-3.01 2.73-2.06 3.45-.08 1.2 2.23-.86.88-1.8 1.83-2.76 2.79-3.72 3.73-7.85 6.37-7.62 6.85.29.62 7.56-4.62 7.56-4.62s4.66-1.77 1.33 1.63c-3.86 3.95-7.57 6.2-7.73 6.29-1.14.61-4.59 3.92-8.86 5.45-4.27 1.52-11.14 3.73-11.14 3.73-.92.7-5.28 1.83-9.19 4.96Z" class="cls-193"/><path d="M169.01 180.81h71.37v81.12h-71.37z" style="stroke-width:0;fill:url(#linear-gradient-133)" transform="rotate(-12.35 204.638 221.315)"/><path d="M238.03 198.86c-.86-4.07-1.66-8.14-2.49-12.21-.52-2.57-1.04-5.14-1.6-7.7-.26-1.2-.53-2.39-.77-3.6-.21-1.06-.3-2.31-1.2-3.03-.52-.42-1.29-.3-1.91-.25-.91.07-1.84.37-2.73.57-3.75.84-7.49 1.62-11.25 2.4-.47.1-.94.19-1.4.29-1.03.22-2.07.43-3.1.65-12 2.63-24.04 5.08-36.05 7.68l-12.75 2.76c-.33.07-.66.14-1 .22h-.03c-.94.21-1.8.8-2.32 1.61s-.66 1.72-.47 2.61l14.88 67.99-5.09 1.11c-1.4.31-2.29 1.7-1.99 3.1l.83 3.79c.44 4.31 4.73 7.34 10.1 7.13.16 0 .39-.06.54-.09l62.59-13.7c.15-.03.28-.06.43-.12.2-.04.39-.06.59-.1l.25-.06c2.42-.53 4.55-1.98 5.9-3.99 1.24-1.9 1.66-4.1 1.2-6.21-1.77-8.11-3.56-16.21-5.34-24.32-1.77-8.03-3.61-16.04-5.34-24.07-.18-.81-.35-1.63-.52-2.44Zm5.57 53.79c-.58 1.29-1.92 2.2-3.34 2.25-1.41.06-2.83-.74-3.5-1.98-1.18-2.15-.45-5.53-2.66-6.6-.93-.45-2.03-.24-3.05-.02-17.36 3.8-34.72 7.6-52.07 11.4-4.85-22.11-9.69-44.21-14.54-66.32 21.17-4.58 42.34-9.17 63.51-13.75l.09.42 15.54 69.78c.36 1.6.7 3.32.03 4.82Z" style="stroke-width:0;fill:url(#linear-gradient-134)"/><path d="m180.54 204.02 20.31-4.45c1.4-.31 2.29-1.7 1.99-3.1s-1.7-2.29-3.1-1.99l-20.31 4.45c-1.4.31-2.29 1.7-1.99 3.1.31 1.4 1.7 2.29 3.1 1.99" style="stroke-width:0;fill:url(#linear-gradient-135)"/><path d="m222.07 210.94-38.18 8.36c-1.4.31-2.29 1.7-1.99 3.1s1.7 2.29 3.1 1.99l38.18-8.36c1.4-.31 2.29-1.7 1.99-3.1s-1.7-2.29-3.1-1.99" style="stroke-width:0;fill:url(#linear-gradient-136)"/><path d="m224.3 221.12-38.18 8.36c-1.4.31-2.29 1.7-1.99 3.1s1.7 2.29 3.1 1.99l38.18-8.36c1.4-.31 2.29-1.7 1.99-3.1s-1.7-2.29-3.1-1.99M226.52 231.3l-38.18 8.36c-1.4.31-2.29 1.7-1.99 3.1s1.7 2.29 3.1 1.99l38.18-8.36c1.4-.31 2.29-1.7 1.99-3.1s-1.7-2.29-3.1-1.99" class="cls-198"/><path d="m182.77 214.2 25.4-5.56c1.4-.31 2.29-1.7 1.99-3.1s-1.7-2.29-3.1-1.99l-25.4 5.56c-1.4.31-2.29 1.7-1.99 3.1.31 1.4 1.7 2.29 3.1 1.99" style="stroke-width:0;fill:url(#linear-gradient-137)"/><path d="m775.11 265.91-85.15-18.13 18.13-85.16 17.71 3.77 67.44 14.36z" class="cls-198"/><path d="m706.75 160.57-18.85 88.54 88.54 18.85 18.85-88.54zm67.03 103.29-81.77-17.41 17.41-81.77 81.77 17.41z" style="stroke-width:0;fill:url(#linear-gradient-138)"/><path d="M707.72 180.38h67.77v67.77h-67.77z" style="stroke-width:0;fill:url(#linear-gradient-139)" transform="rotate(12.02 741.534 214.22)"/><circle cx="729.95" cy="198.89" r="11.38" style="stroke-width:0;fill:url(#linear-gradient-140)"/><path d="M703.9 228.13s8.39-12.78 22.08-5.82c8.35 4.25 18.38 7.75 27.9 7.28 7.73-.38 13.45-6.58 20.78-8.3l-7.06 33.14-66.2-14.09s2.69-13.13 2.5-12.22Z" style="stroke-width:0;fill:url(#linear-gradient-141)"/><path d="M773.62 396.39c-.09-.39-.14-.67-.21-.94l-9.15-32.9c-.23-.84-.41-1.69-.64-2.52-.12-.43 0-.66.4-.87 4.51-2.32 9.02-4.65 13.52-6.99 4.22-2.19 8.44-4.4 12.65-6.6 1.31-.68 2.62-1.34 3.92-2.03.94-.5 1.04-.48 1.33.54l9.72 34.87c.65 2.33 1.23 4.68 1.96 6.99 1.13 3.57-.03 6.45-2.55 8.94-1.91 1.88-4.23 2.93-6.94 2.94-4.27.01-6.91-3.41-5.86-7.54 1.14-4.48 5.67-7.8 10.31-7.54.23.01.46 0 .8.01-.06-.34-.09-.62-.16-.88-2.46-8.89-4.93-17.78-7.4-26.67-.27-.97-.34-.97-1.22-.51-2.94 1.53-5.88 3.04-8.83 4.56-2.94 1.52-5.89 3.03-8.84 4.54-2.06 1.06-4.1 2.14-6.17 3.17-1.35.67-1.36.64-.95 2.11 2.82 10.16 5.64 20.32 8.45 30.47 1.08 3.89-.19 7.44-3.5 9.82-2.05 1.48-4.31 2.34-6.87 1.99-3.81-.51-5.87-3.63-4.96-7.37 1.1-4.55 5.72-7.94 10.4-7.64.21.01.41.02.78.05Z" style="stroke-width:0;fill:url(#linear-gradient-142)"/><path d="m763.34 360.01 2.45 8.15c.19.63.9.93 1.48.62l30-15.71c.44-.23.65-.74.52-1.21l-2.35-8.17c-.18-.63-.9-.94-1.48-.63l-30.1 15.73c-.44.23-.66.74-.51 1.22Z" style="stroke-width:0;fill:url(#linear-gradient-143)"/><path d="M161.66 458.23c.14-.38.25-.64.33-.9 3.4-10.86 6.81-21.72 10.21-32.58.26-.83.57-1.64.84-2.46.13-.42.35-.56.81-.52 5.05.51 10.1 1 15.15 1.48 4.74.45 9.47.89 14.21 1.34 1.47.14 2.93.31 4.4.43 1.07.09 1.14.16.82 1.18l-10.8 34.55c-.72 2.31-1.51 4.6-2.16 6.93-.99 3.61-3.53 5.4-7 6.11-2.63.54-5.14.16-7.42-1.31-3.59-2.31-3.94-6.61-.82-9.51 3.39-3.14 9-3.46 12.75-.72.19.14.38.26.67.45.13-.32.26-.57.34-.83 2.77-8.8 5.53-17.61 8.29-26.41.3-.96.25-1-.74-1.09-3.3-.31-6.59-.65-9.89-.98l-9.89-.99c-2.3-.23-4.61-.43-6.9-.69-1.5-.17-1.49-.21-1.95 1.26-3.16 10.06-6.32 20.12-9.48 30.17-1.21 3.85-4.2 6.14-8.28 6.34-2.53.12-4.89-.38-6.85-2.06-2.91-2.5-2.96-6.24-.16-8.89 3.4-3.22 9.12-3.55 12.88-.75.17.12.33.24.63.46Z" style="stroke-width:0;fill:url(#linear-gradient-144)"/><path d="m172.82 422.1-2.37 8.17c-.18.63.25 1.27.9 1.33l33.72 3.13c.49.05.95-.26 1.09-.73l2.47-8.14a1.04 1.04 0 0 0-.9-1.34l-33.81-3.16c-.5-.05-.96.27-1.1.75Z" style="stroke-width:0;fill:url(#linear-gradient-145)"/><path d="M480.35 430.6c-.35.07-.7.14-1.05.19-1.86.24-3.74-.13-5.59-.48-3.32-.63-6.66-1.2-10.03-1.45-1.06-.08-9.04-.72-8.54 1.19.07.28.27.5.47.7 2.66 2.65 6.38 3.85 9.92 5.09 4.21 1.47 8.79 2.75 12.39 5.47 1.2.91 2.35 1.97 3.79 2.37 3.22.91 6.9-1.42 7.93-4.48.9-2.7.1-5.88-2.14-7.68a6.5 6.5 0 0 0-4.34-1.42c-.95.04-1.88.3-2.81.5" style="stroke-width:0;fill:url(#linear-gradient-146)"/><path d="M500.96 403.06c-.58-.32-1.17-.64-1.91-1.04.54-1.75 1.1-3.46 1.58-5.18.72-2.56.17-3.74-2.3-4.76-1.49-.61-3.02-1.13-4.56-1.58-2.19-.65-3.63.05-4.5 2.16q-.96 2.325-1.77 4.71c-.35 1.05-.94 1.43-2.08 1.41-2.61-.04-5.23.09-8.23.16-.26-.74-.7-1.65-.87-2.61-.09-.51.08-1.3.44-1.63 1.36-1.26 1.59-2.6.99-4.35-1.9-5.55-2.29-5.78-7.92-3.96-1.27.41-2.57.72-3.85 1.08-.89.31-1.77.62-2.66.94-1.34.59-2.69 1.17-4.03 1.77-1.84.82-2.55 2.28-2 4.24.33 1.16.58 2.42 1.25 3.37.63.88 1.77 2 2.66 1.98 2.31-.04 2 1.7 2.54 2.91.64 1.44-.66 1.73-1.4 2.21-14.84 9.72-21.5 28.74-14.61 46.37 6.59 16.86 26.2 27.3 43.71 22.94.51-.13 1.05-.12 1.57-.18 2.03-.71 4.05-1.43 6.08-2.14 1.71-1.04 3.47-2.01 5.14-3.11 24.29-16.09 22.52-51.45-3.28-65.7Zm9.21 40.64c-4.11 15.67-20.35 24.67-35.49 19.68-8.11-2.67-14.99-9.43-17.93-17.44-.39-1.07-.72-2.16-.97-3.27-2-8.75.47-18.09 6.66-24.59a26.7 26.7 0 0 1 5.4-4.36c2.72-1.66 5.71-2.91 8.8-3.7 3.71-.94 8.02-1.38 11.78-.44 15.71 3.09 25.74 18.85 21.74 34.11Z" style="stroke-width:0;fill:url(#linear-gradient-147)"/><path d="M456.11 431.39c1.14.72 2.25 1.67 3.53 2.18 4.93 1.94 9.94 3.69 14.87 5.64 1.26.5 2.48 1.29 3.46 2.23 2.86 2.76 6.48 3.17 9.47.89 2.77-2.11 3.38-5.65 1.57-9.04-1.53-2.85-5.13-3.9-8.65-2.66-.89.31-1.96.37-2.91.24-5.25-.7-10.48-1.56-15.74-2.23-1.59-.2-3.24 0-4.83.01 1.59-11.91 17.71-21.77 31.56-19.05 15.71 3.09 25.74 18.85 21.74 34.11-4.11 15.67-20.35 24.67-35.49 19.68-13.63-4.49-23.04-20.97-18.58-32" class="cls-198"/><circle cx="1250.92" cy="237.51" r="42.98" style="stroke-width:0;fill:url(#linear-gradient-148)" transform="rotate(-75.9 1250.972 237.481)"/><path d="M1237.39 250.11c1.03 1.61 2.01 2.95 3.33 4.1.64.55 1.33 1.04 2.09 1.45l-.37 1.66c-.43 1.89.76 3.76 2.65 4.19s3.76-.76 4.19-2.65l.35-1.57c2.06-.04 4.03-.56 5.75-1.46 2.83-1.48 4.98-4 5.79-7.19 1.57-6.26-2.65-12.71-9.43-14.41-1.59-.4-2.87-1.3-3.64-2.44-.7-1.03-.98-2.25-.68-3.43h-.01c.29-1.17 1.13-2.12 2.23-2.7 1.22-.64 2.77-.83 4.36-.43.78.2 1.92.84 2.94 1.67.79.64 1.41 1.27 1.55 1.7a3.51 3.51 0 0 0 4.46 2.16 3.51 3.51 0 0 0 2.16-4.46c-.62-1.77-2.08-3.49-3.76-4.86-.76-.61-1.59-1.18-2.42-1.66l.47-2.09c.43-1.89-.76-3.76-2.65-4.19s-3.76.76-4.19 2.65l-.42 1.86c-2.06.04-4.04.56-5.76 1.46-2.82 1.48-4.97 3.99-5.77 7.19h-.01c-.8 3.19-.09 6.42 1.7 9.07 1.72 2.53 4.43 4.51 7.73 5.34 3.01.76 4.94 3.39 4.32 5.87-.3 1.18-1.12 2.12-2.22 2.7-1.22.64-2.77.83-4.36.43-1.11-.28-1.86-.66-2.45-1.17-.68-.59-1.31-1.47-2.02-2.57a3.51 3.51 0 0 0-4.85-1.06 3.513 3.513 0 0 0-1.07 4.85Z" style="stroke-width:0;fill-rule:evenodd;fill:#fff"/><path d="m457.37 116.88 2.98 2.87-1.03-1.27z" style="stroke-width:0;fill:url(#linear-gradient-149)"/><path d="m496.65 127-11.96-9.14-4.44-1.52-9-3.07-14.99-.09-2.42.81 2.55 1.95.98.94 1.95 1.6 1.03 1.27 2.61 2.51 1.56 1.51 6.87 8.8 4.11 6.66 4.63-2.63 8.55-4.36 9.16-3.93z" style="stroke-width:0;fill:url(#linear-gradient-150)"/><path d="m469.71 131.29-7.16-8.83-2.2-2.71-2.98-2.87-3.53-2.89-14.11 5.61-.73 12.98.61 8.59.32 4.52 9.2-3.59 12.22-2.51 12.85-.27 1.3-.09z" style="stroke-width:0;fill:url(#linear-gradient-151)"/><path d="m464.52 123.77-1.57-1.51c-.14.07-.27.13-.41.2l7.16 8.83 5.8 7.94-4.12-6.66-6.87-8.8Z" style="stroke-width:0;fill:url(#linear-gradient-152)"/><path d="M462.55 122.46c.14-.07.27-.13.41-.2l-2.61-2.51 2.19 2.71Z" style="stroke-width:0;fill:url(#linear-gradient-153)"/><path d="m456.39 115.94-2.55-1.95 3.53 2.89z" style="stroke-width:0;fill:url(#linear-gradient-154)"/><path d="m508.06 149.28-1.07-.72-2.22-1.49-6.71-3.9-7.91-1.72-7.35-1.23-7.3-.99 7.2 16.05 2.3 8.5 1.56 5.78 1.21 11.09.12 14.44 3.86-1.42 5.59-5.28 6.67-8.69 4.91-14.28z" style="stroke-width:0;fill:url(#linear-gradient-155)"/><path d="m485.97 167.99-3.84-14.06-5.82-12.91-.81-1.79-6.85 4.85-9.76 10.32-9.12 11.44-1.17 5.05 10.82 12.44 7.84 5.11 6.27 4.09 11.06 5.8 3.03-1.74.59-3.26z" style="stroke-width:0;fill:url(#linear-gradient-156)"/><path d="m439.52 147.53 1.27 8.23 4.14 7.32 3.28 5.34 5.08-7.73 11.19-12.56 11.81-8.5-8.29-.71-12.02 1.55-13.73 3.62-3.58 2.23z" style="stroke-width:0;fill:url(#linear-gradient-157)"/><path d="m476.29 139.63 5-3.96 6.4-3.13 7.65-3.03 3.25-.8 5.18 7.33s3.62 6.82 3.62 7.34.39 4.65.39 4.65-2.67-.94-3.02-.94-13.28-4.83-13.28-4.83l-10.25-1.41-4.94-1.2Z" style="stroke-width:0;fill:url(#linear-gradient-158)"/><path d="M438.67 146.32s-5.74 2.97-11.75 7.45c-3.12 2.33-6.3 5.06-8.79 8 0 0-.2 18.3 17.65 32.38l1.79 1.83s.26-5.11 3.26-13.78c1.42-4.11 3.45-9.02 6.36-14.57 0 0-6.74-12.81-8.52-21.31" style="stroke-width:0;fill:url(#linear-gradient-159)"/><path d="m417.15 162.33 21.99-16.81-.24-22.31.41-2.76-7.34 4.8-8.99 12.11-4.96 18.74z" style="stroke-width:0;fill:url(#linear-gradient-160)"/><path d="M466.93 189.32c-11.55-8.7-19.45-19.95-19.45-19.95-7.4 12.76-9.91 26.61-9.91 26.61 9.26 4.94 17.31 7.04 24 7.58 14.85 1.21 23.02-5.23 23.02-5.23-6.37-1.61-12.39-5.04-17.65-9.01Z" style="stroke-width:0;fill:url(#linear-gradient-161)"/><path d="M484.2 116.32c-9.8-4.87-20.52-5.95-30.47-3.81-.06-.04-.1-.07-.12-.08l-.07.12c-13.34 2.92-25.3 11.62-31.84 24.78a46.5 46.5 0 0 0-4.72 24.54c1.36 16.44 10.98 30.63 25.73 37.96 6.65 3.3 13.71 4.87 20.67 4.87 9.21 0 18.25-2.74 25.9-7.82a46.4 46.4 0 0 0 15.93-18.06c11.44-23.02 2.02-51.06-21.01-62.5m21.87 29.7c-7.44-3.09-16.26-5.88-25.78-7.19-.02-.29-.08-.58-.15-.86 5.17-3.05 11-5.78 17.55-8a44.6 44.6 0 0 1 8.38 16.05m-42.54-32.25c6.62 0 13.33 1.49 19.65 4.62 5 2.49 9.32 5.8 12.89 9.69-6.33 2.21-12 4.89-17.05 7.87-.13-.14-.27-.27-.41-.4a4.8 4.8 0 0 0-4.47-.92c-.58-.92-1.16-1.81-1.73-2.65-6.27-9.23-12.62-14.9-16.1-17.62 2.38-.39 4.8-.6 7.23-.6Zm-23.2 6.52c4-2.44 8.37-4.23 12.91-5.31 2.48 1.77 9.97 7.61 17.24 18.31.55.8 1.1 1.65 1.65 2.53-.1.1-.21.21-.3.33-.48.58-.81 1.24-.98 1.92-9.09-.2-18.59 1.17-27.98 5.06-.23-.33-.5-.63-.82-.9-.69-.58-1.5-.93-2.33-1.06-1.28-11.9.88-20.69.9-20.8l-.29-.07Zm9.52 43.33a4.8 4.8 0 0 0-3.56.03q-3.225-6.36-5.01-13.56a4.774 4.774 0 0 0 2.43-4.82c9.09-3.76 18.31-5.1 27.14-4.89.07.27.16.53.27.79-9.57 7.09-16.43 15.16-21.27 22.44Zm-26.08-25.26c3.39-6.83 8.33-12.4 14.17-16.5-.61 3.36-1.53 10.54-.55 19.51-.8.27-1.53.76-2.12 1.45a4.79 4.79 0 0 0-.89 4.54c-7.67 4.54-12.7 9.6-15.21 12.49-.3-7.41 1.27-14.8 4.6-21.49m-4.34 24.84c1.18-1.55 6.57-8.16 16.17-13.86.09.08.17.17.27.25.93.78 2.06 1.14 3.18 1.12 1.1 4.42 2.8 9.29 5.4 14.3l-.01.01a4.814 4.814 0 0 0 .59 6.77c-5.09 9.68-7.33 17.93-8.17 21.76-9.7-7.22-16-18.06-17.43-30.34Zm24.3 34.56c-1.67-.83-3.28-1.76-4.8-2.77.63-3.07 2.75-11.87 8.18-22.2.7.15 1.41.14 2.1-.02 6.65 9.32 16.88 18.52 32.59 25.61-11.73 5.33-25.66 5.54-38.07-.62m43.26-2.16c-.82.51-1.65.99-2.5 1.44-14.57-6.26-25.69-14.73-33.28-25.28a4.788 4.788 0 0 0 .52-6.79c4.72-7.12 11.42-15.01 20.8-21.95 1.2.94 2.7 1.22 4.09.89 5.98 12.16 11.04 29.24 10.36 51.69Zm16.13-17.8a44.14 44.14 0 0 1-13.77 16.21c.4-22.12-4.69-39.04-10.67-51.17.18-.16.34-.32.5-.51.31-.37.56-.78.74-1.2 10 1.37 19.22 4.42 26.83 7.7 2.03 9.46 1.01 19.65-3.62 28.97Z" class="cls-198"/><path d="M217.39 364.23c-1.87 0-3.66-.74-4.98-2.06a7.04 7.04 0 0 1-2.06-4.98c0-.84-.45-1.62-1.17-2.04a2.347 2.347 0 0 0-3.52 2.04c0 1.87-.74 3.66-2.06 4.98a7.04 7.04 0 0 1-4.98 2.06c-.84 0-1.62.45-2.04 1.17a2.347 2.347 0 0 0 2.04 3.52c1.87 0 3.66.74 4.98 2.06a7.04 7.04 0 0 1 2.06 4.98c0 .84.45 1.62 1.17 2.04a2.347 2.347 0 0 0 3.52-2.04c0-1.87.74-3.66 2.06-4.98a7.04 7.04 0 0 1 4.98-2.06c.84 0 1.61-.45 2.04-1.17a2.347 2.347 0 0 0-2.04-3.52m-9.4 4.77c-.68-.92-1.5-1.74-2.42-2.42.92-.68 1.74-1.5 2.42-2.42.68.92 1.5 1.74 2.42 2.42-.92.68-1.74 1.5-2.42 2.42" style="stroke-width:0;fill:url(#linear-gradient-162)"/><path d="M756.76 310.13c-1.87 0-3.66-.74-4.98-2.06a7.04 7.04 0 0 1-2.06-4.98c0-.84-.45-1.62-1.17-2.04a2.347 2.347 0 0 0-3.52 2.04c0 1.87-.74 3.66-2.06 4.98a7.04 7.04 0 0 1-4.98 2.06c-.84 0-1.62.45-2.04 1.17a2.347 2.347 0 0 0 2.04 3.52c1.87 0 3.66.74 4.98 2.06a7.04 7.04 0 0 1 2.06 4.98c0 .84.45 1.62 1.17 2.04a2.347 2.347 0 0 0 3.52-2.04c0-1.87.74-3.66 2.06-4.98a7.04 7.04 0 0 1 4.98-2.06c.84 0 1.61-.45 2.04-1.17a2.347 2.347 0 0 0-2.04-3.52m-9.4 4.77c-.68-.92-1.5-1.74-2.42-2.42.92-.68 1.74-1.5 2.42-2.42.68.92 1.5 1.74 2.42 2.42-.92.68-1.74 1.5-2.42 2.42" style="stroke-width:0;fill:url(#linear-gradient-163)"/><path d="M353.41 623.17c-1.87 0-3.66-.74-4.98-2.06a7.04 7.04 0 0 1-2.06-4.98c0-.84-.45-1.62-1.17-2.04a2.347 2.347 0 0 0-3.52 2.04c0 1.87-.74 3.66-2.06 4.98a7.04 7.04 0 0 1-4.98 2.06c-.84 0-1.62.45-2.04 1.17a2.347 2.347 0 0 0 2.04 3.52c1.87 0 3.66.74 4.98 2.06a7.04 7.04 0 0 1 2.06 4.98c0 .84.45 1.62 1.17 2.04a2.347 2.347 0 0 0 3.52-2.04c0-1.87.74-3.66 2.06-4.98a7.04 7.04 0 0 1 4.98-2.06c.84 0 1.61-.45 2.04-1.17a2.347 2.347 0 0 0-2.04-3.52m-9.4 4.77c-.68-.92-1.5-1.74-2.42-2.42.92-.68 1.74-1.5 2.42-2.42.68.92 1.5 1.74 2.42 2.42-.92.68-1.74 1.5-2.42 2.42" style="stroke-width:0;fill:url(#linear-gradient-164)"/><path d="M767.19 515.82c-1.87 0-3.66-.74-4.98-2.06a7.04 7.04 0 0 1-2.06-4.98c0-.84-.45-1.62-1.17-2.04a2.347 2.347 0 0 0-3.52 2.04c0 1.87-.74 3.66-2.06 4.98a7.04 7.04 0 0 1-4.98 2.06c-.84 0-1.62.45-2.04 1.17a2.347 2.347 0 0 0 2.04 3.52c1.87 0 3.66.74 4.98 2.06a7.04 7.04 0 0 1 2.06 4.98c0 .84.45 1.62 1.17 2.04a2.347 2.347 0 0 0 3.52-2.04c0-1.87.74-3.66 2.06-4.98a7.04 7.04 0 0 1 4.98-2.06c.84 0 1.61-.45 2.04-1.17a2.347 2.347 0 0 0-2.04-3.52m-9.4 4.77c-.68-.92-1.5-1.74-2.42-2.42.92-.68 1.74-1.5 2.42-2.42.68.92 1.5 1.74 2.42 2.42-.92.68-1.74 1.5-2.42 2.42" style="stroke-width:0;fill:url(#linear-gradient-165)"/><path d="M372.45 109.55c-1.87 0-3.66-.74-4.98-2.06a7.04 7.04 0 0 1-2.06-4.98c0-.84-.45-1.62-1.17-2.04a2.347 2.347 0 0 0-3.52 2.04c0 1.87-.74 3.66-2.06 4.98a7.04 7.04 0 0 1-4.98 2.06c-.84 0-1.62.45-2.04 1.17a2.347 2.347 0 0 0 2.04 3.52c1.87 0 3.66.74 4.98 2.06a7.04 7.04 0 0 1 2.06 4.98c0 .84.45 1.62 1.17 2.04a2.347 2.347 0 0 0 3.52-2.04c0-1.87.74-3.66 2.06-4.98a7.04 7.04 0 0 1 4.98-2.06c.84 0 1.61-.45 2.04-1.17a2.347 2.347 0 0 0-2.04-3.52m-9.4 4.77c-.68-.92-1.5-1.74-2.42-2.42.92-.68 1.74-1.5 2.42-2.42.68.92 1.5 1.74 2.42 2.42-.92.68-1.74 1.5-2.42 2.42" style="stroke-width:0;fill:url(#linear-gradient-166)"/><path d="M449.36 248.67a5.14 5.14 0 0 1-3.63-1.5 5.14 5.14 0 0 1-1.5-3.63c0-.61-.33-1.18-.86-1.48-.53-.31-1.18-.31-1.71 0s-.86.87-.86 1.48c0 1.36-.54 2.67-1.5 3.63a5.14 5.14 0 0 1-3.63 1.5c-.61 0-1.18.33-1.48.86-.31.53-.31 1.18 0 1.71s.87.86 1.48.86c1.36 0 2.67.54 3.63 1.5s1.5 2.27 1.5 3.63c0 .61.33 1.18.86 1.48.53.31 1.18.31 1.71 0s.86-.87.86-1.48c0-1.36.54-2.67 1.5-3.63a5.14 5.14 0 0 1 3.63-1.5c.61 0 1.18-.33 1.48-.86.31-.53.31-1.18 0-1.71s-.87-.86-1.48-.86m-6.84 3.47a8.4 8.4 0 0 0-1.76-1.76 8.4 8.4 0 0 0 1.76-1.76c.5.67 1.09 1.27 1.76 1.76a8.4 8.4 0 0 0-1.76 1.76" style="stroke-width:0;fill:url(#linear-gradient-167)"/><path d="M554.29 178.62c-1.16 0-2.28-.46-3.1-1.29a4.4 4.4 0 0 1-1.29-3.1c0-.52-.28-1.01-.73-1.27s-1.01-.26-1.46 0-.73.74-.73 1.27c0 1.16-.46 2.28-1.29 3.1a4.4 4.4 0 0 1-3.1 1.29c-.52 0-1.01.28-1.27.73s-.26 1.01 0 1.46.74.73 1.27.73c1.16 0 2.28.46 3.1 1.29a4.4 4.4 0 0 1 1.29 3.1c0 .52.28 1.01.73 1.27s1.01.26 1.46 0 .73-.74.73-1.27c0-1.16.46-2.28 1.29-3.1a4.4 4.4 0 0 1 3.1-1.29c.52 0 1.01-.28 1.27-.73s.26-1.01 0-1.46-.74-.73-1.27-.73m-5.85 2.97c-.43-.57-.93-1.08-1.51-1.51.57-.43 1.08-.93 1.51-1.51.43.57.93 1.08 1.51 1.51-.57.43-1.08.93-1.51 1.51" style="stroke-width:0;fill:url(#linear-gradient-168)"/><path d="M542.54 260.3c-1.16 0-2.28-.46-3.1-1.29a4.4 4.4 0 0 1-1.29-3.1c0-.52-.28-1.01-.73-1.27s-1.01-.26-1.46 0-.73.74-.73 1.27c0 1.16-.46 2.28-1.29 3.1a4.4 4.4 0 0 1-3.1 1.29c-.52 0-1.01.28-1.27.73s-.26 1.01 0 1.46.74.73 1.27.73c1.16 0 2.28.46 3.1 1.29a4.4 4.4 0 0 1 1.29 3.1c0 .52.28 1.01.73 1.27s1.01.26 1.46 0 .73-.74.73-1.27c0-1.16.46-2.28 1.29-3.1a4.4 4.4 0 0 1 3.1-1.29c.52 0 1.01-.28 1.27-.73s.26-1.01 0-1.46-.74-.73-1.27-.73m-5.85 2.97c-.43-.57-.93-1.08-1.51-1.51.57-.43 1.08-.93 1.51-1.51.43.57.93 1.08 1.51 1.51-.57.43-1.08.93-1.51 1.51" style="stroke-width:0;fill:url(#linear-gradient-169)"/><path d="M664.97 221.82c-1.16 0-2.28-.46-3.1-1.29a4.4 4.4 0 0 1-1.29-3.1c0-.52-.28-1.01-.73-1.27s-1.01-.26-1.46 0-.73.74-.73 1.27c0 1.16-.46 2.28-1.29 3.1a4.4 4.4 0 0 1-3.1 1.29c-.52 0-1.01.28-1.27.73s-.26 1.01 0 1.46.74.73 1.27.73c1.16 0 2.28.46 3.1 1.29a4.4 4.4 0 0 1 1.29 3.1c0 .52.28 1.01.73 1.27s1.01.26 1.46 0 .73-.74.73-1.27c0-1.16.46-2.28 1.29-3.1a4.4 4.4 0 0 1 3.1-1.29c.52 0 1.01-.28 1.27-.73s.26-1.01 0-1.46-.74-.73-1.27-.73m-5.85 2.97c-.43-.57-.93-1.08-1.51-1.51.57-.43 1.08-.93 1.51-1.51.43.57.93 1.08 1.51 1.51-.57.43-1.08.93-1.51 1.51" style="stroke-width:0;fill:url(#linear-gradient-170)"/><path d="M197.24 555.96c-1.16 0-2.28-.46-3.1-1.29a4.4 4.4 0 0 1-1.29-3.1c0-.52-.28-1.01-.73-1.27s-1.01-.26-1.46 0-.73.74-.73 1.27c0 1.16-.46 2.28-1.29 3.1a4.4 4.4 0 0 1-3.1 1.29c-.52 0-1.01.28-1.27.73s-.26 1.01 0 1.46.74.73 1.27.73c1.16 0 2.28.46 3.1 1.29a4.4 4.4 0 0 1 1.29 3.1c0 .52.28 1.01.73 1.27s1.01.26 1.46 0 .73-.74.73-1.27c0-1.16.46-2.28 1.29-3.1a4.4 4.4 0 0 1 3.1-1.29c.52 0 1.01-.28 1.27-.73s.26-1.01 0-1.46-.74-.73-1.27-.73m-5.85 2.97c-.43-.57-.93-1.08-1.51-1.51.57-.43 1.08-.93 1.51-1.51.43.57.93 1.08 1.51 1.51-.57.43-1.08.93-1.51 1.51" style="stroke-width:0;fill:url(#linear-gradient-171)"/><path d="M312.48 664.22c-1.16 0-2.28-.46-3.1-1.29a4.4 4.4 0 0 1-1.29-3.1c0-.52-.28-1.01-.73-1.27s-1.01-.26-1.46 0-.73.74-.73 1.27c0 1.16-.46 2.28-1.29 3.1a4.4 4.4 0 0 1-3.1 1.29c-.52 0-1.01.28-1.27.73s-.26 1.01 0 1.46.74.73 1.27.73c1.16 0 2.28.46 3.1 1.29a4.4 4.4 0 0 1 1.29 3.1c0 .52.28 1.01.73 1.27s1.01.26 1.46 0 .73-.74.73-1.27c0-1.16.46-2.28 1.29-3.1a4.4 4.4 0 0 1 3.1-1.29c.52 0 1.01-.28 1.27-.73s.26-1.01 0-1.46-.74-.73-1.27-.73m-5.85 2.97c-.43-.57-.93-1.08-1.51-1.51.57-.43 1.08-.93 1.51-1.51.43.57.93 1.08 1.51 1.51-.57.43-1.08.93-1.51 1.51" style="stroke-width:0;fill:url(#linear-gradient-172)"/><path d="M799.1 466.41c-1.16 0-2.28-.46-3.1-1.29a4.4 4.4 0 0 1-1.29-3.1c0-.52-.28-1.01-.73-1.27s-1.01-.26-1.46 0-.73.74-.73 1.27c0 1.16-.46 2.28-1.29 3.1a4.4 4.4 0 0 1-3.1 1.29c-.52 0-1.01.28-1.27.73s-.26 1.01 0 1.46.74.73 1.27.73c1.16 0 2.28.46 3.1 1.29a4.4 4.4 0 0 1 1.29 3.1c0 .52.28 1.01.73 1.27s1.01.26 1.46 0 .73-.74.73-1.27c0-1.16.46-2.28 1.29-3.1a4.4 4.4 0 0 1 3.1-1.29c.52 0 1.01-.28 1.27-.73s.26-1.01 0-1.46-.74-.73-1.27-.73m-5.85 2.97c-.43-.57-.93-1.08-1.51-1.51.57-.43 1.08-.93 1.51-1.51.43.57.93 1.08 1.51 1.51-.57.43-1.08.93-1.51 1.51" style="stroke-width:0;fill:url(#linear-gradient-173)"/><path d="M728.86 430.79c-1.16 0-2.28-.46-3.1-1.29a4.4 4.4 0 0 1-1.29-3.1c0-.52-.28-1.01-.73-1.27s-1.01-.26-1.46 0-.73.74-.73 1.27c0 1.16-.46 2.28-1.29 3.1a4.4 4.4 0 0 1-3.1 1.29c-.52 0-1.01.28-1.27.73s-.26 1.01 0 1.46.74.73 1.27.73c1.16 0 2.28.46 3.1 1.29a4.4 4.4 0 0 1 1.29 3.1c0 .52.28 1.01.73 1.27s1.01.26 1.46 0 .73-.74.73-1.27c0-1.16.46-2.28 1.29-3.1a4.4 4.4 0 0 1 3.1-1.29c.52 0 1.01-.28 1.27-.73s.26-1.01 0-1.46-.74-.73-1.27-.73m-5.85 2.97c-.43-.57-.93-1.08-1.51-1.51.57-.43 1.08-.93 1.51-1.51.43.57.93 1.08 1.51 1.51-.57.43-1.08.93-1.51 1.51" style="stroke-width:0;fill:url(#linear-gradient-174)"/><path d="M487.66 348.34c-1.16 0-2.28-.46-3.1-1.29a4.4 4.4 0 0 1-1.29-3.1c0-.52-.28-1.01-.73-1.27s-1.01-.26-1.46 0-.73.74-.73 1.27c0 1.16-.46 2.28-1.29 3.1a4.4 4.4 0 0 1-3.1 1.29c-.52 0-1.01.28-1.27.73s-.26 1.01 0 1.46.74.73 1.27.73c1.16 0 2.28.46 3.1 1.29a4.4 4.4 0 0 1 1.29 3.1c0 .52.28 1.01.73 1.27s1.01.26 1.46 0 .73-.74.73-1.27c0-1.16.46-2.28 1.29-3.1a4.4 4.4 0 0 1 3.1-1.29c.52 0 1.01-.28 1.27-.73s.26-1.01 0-1.46-.74-.73-1.27-.73m-5.85 2.97c-.43-.57-.93-1.08-1.51-1.51.57-.43 1.08-.93 1.51-1.51.43.57.93 1.08 1.51 1.51-.57.43-1.08.93-1.51 1.51" style="stroke-width:0;fill:url(#linear-gradient-175)"/><path d="M443.42 485.59c-1.16 0-2.28-.46-3.1-1.29a4.4 4.4 0 0 1-1.29-3.1c0-.52-.28-1.01-.73-1.27s-1.01-.26-1.46 0-.73.74-.73 1.27c0 1.16-.46 2.28-1.29 3.1a4.4 4.4 0 0 1-3.1 1.29c-.52 0-1.01.28-1.27.73s-.26 1.01 0 1.46.74.73 1.27.73c1.16 0 2.28.46 3.1 1.29a4.4 4.4 0 0 1 1.29 3.1c0 .52.28 1.01.73 1.27s1.01.26 1.46 0 .73-.74.73-1.27c0-1.16.46-2.28 1.29-3.1a4.4 4.4 0 0 1 3.1-1.29c.52 0 1.01-.28 1.27-.73s.26-1.01 0-1.46-.74-.73-1.27-.73m-5.85 2.97c-.43-.57-.93-1.08-1.51-1.51.57-.43 1.08-.93 1.51-1.51.43.57.93 1.08 1.51 1.51-.57.43-1.08.93-1.51 1.51" style="stroke-width:0;fill:url(#linear-gradient-176)"/><path d="M300.72 526.95c-1.16 0-2.28-.46-3.1-1.29a4.4 4.4 0 0 1-1.29-3.1c0-.52-.28-1.01-.73-1.27s-1.01-.26-1.46 0-.73.74-.73 1.27c0 1.16-.46 2.28-1.29 3.1a4.4 4.4 0 0 1-3.1 1.29c-.52 0-1.01.28-1.27.73s-.26 1.01 0 1.46.74.73 1.27.73c1.16 0 2.28.46 3.1 1.29a4.4 4.4 0 0 1 1.29 3.1c0 .52.28 1.01.73 1.27s1.01.26 1.46 0 .73-.74.73-1.27c0-1.16.46-2.28 1.29-3.1a4.4 4.4 0 0 1 3.1-1.29c.52 0 1.01-.28 1.27-.73s.26-1.01 0-1.46-.74-.73-1.27-.73m-5.85 2.97c-.43-.57-.93-1.08-1.51-1.51.57-.43 1.08-.93 1.51-1.51.43.57.93 1.08 1.51 1.51-.57.43-1.08.93-1.51 1.51" style="stroke-width:0;fill:url(#linear-gradient-177)"/><path d="M704.83 577.45c-1.16 0-2.28-.46-3.1-1.29a4.4 4.4 0 0 1-1.29-3.1c0-.52-.28-1.01-.73-1.27s-1.01-.26-1.46 0-.73.74-.73 1.27c0 1.16-.46 2.28-1.29 3.1a4.4 4.4 0 0 1-3.1 1.29c-.52 0-1.01.28-1.27.73s-.26 1.01 0 1.46.74.73 1.27.73c1.16 0 2.28.46 3.1 1.29a4.4 4.4 0 0 1 1.29 3.1c0 .52.28 1.01.73 1.27s1.01.26 1.46 0 .73-.74.73-1.27c0-1.16.46-2.28 1.29-3.1a4.4 4.4 0 0 1 3.1-1.29c.52 0 1.01-.28 1.27-.73s.26-1.01 0-1.46-.74-.73-1.27-.73m-5.85 2.97c-.43-.57-.93-1.08-1.51-1.51.57-.43 1.08-.93 1.51-1.51.43.57.93 1.08 1.51 1.51-.57.43-1.08.93-1.51 1.51" style="stroke-width:0;fill:url(#linear-gradient-178)"/><path d="M503.69 515.2c-1.16 0-2.28-.46-3.1-1.29a4.4 4.4 0 0 1-1.29-3.1c0-.52-.28-1.01-.73-1.27s-1.01-.26-1.46 0-.73.74-.73 1.27c0 1.16-.46 2.28-1.29 3.1a4.4 4.4 0 0 1-3.1 1.29c-.52 0-1.01.28-1.27.73s-.26 1.01 0 1.46.74.73 1.27.73c1.16 0 2.28.46 3.1 1.29a4.4 4.4 0 0 1 1.29 3.1c0 .52.28 1.01.73 1.27s1.01.26 1.46 0 .73-.74.73-1.27c0-1.16.46-2.28 1.29-3.1a4.4 4.4 0 0 1 3.1-1.29c.52 0 1.01-.28 1.27-.73s.26-1.01 0-1.46-.74-.73-1.27-.73m-5.85 2.97c-.43-.57-.93-1.08-1.51-1.51.57-.43 1.08-.93 1.51-1.51.43.57.93 1.08 1.51 1.51-.57.43-1.08.93-1.51 1.51" style="fill:url(#linear-gradient-179);stroke-width:0"/><path d="M260.08 439.8c-1.16 0-2.28-.46-3.1-1.29a4.4 4.4 0 0 1-1.29-3.1c0-.52-.28-1.01-.73-1.27s-1.01-.26-1.46 0-.73.74-.73 1.27c0 1.16-.46 2.28-1.29 3.1a4.4 4.4 0 0 1-3.1 1.29c-.52 0-1.01.28-1.27.73s-.26 1.01 0 1.46.74.73 1.27.73c1.16 0 2.28.46 3.1 1.29a4.4 4.4 0 0 1 1.29 3.1c0 .52.28 1.01.73 1.27s1.01.26 1.46 0 .73-.74.73-1.27c0-1.16.46-2.28 1.29-3.1a4.4 4.4 0 0 1 3.1-1.29c.52 0 1.01-.28 1.27-.73s.26-1.01 0-1.46-.74-.73-1.27-.73m-5.85 2.97c-.43-.57-.93-1.08-1.51-1.51.57-.43 1.08-.93 1.51-1.51.43.57.93 1.08 1.51 1.51-.57.43-1.08.93-1.51 1.51" style="stroke-width:0;fill:url(#linear-gradient-180)"/><path d="M249.84 300.17c-1.16 0-2.28-.46-3.1-1.29a4.4 4.4 0 0 1-1.29-3.1c0-.52-.28-1.01-.73-1.27s-1.01-.26-1.46 0-.73.74-.73 1.27c0 1.16-.46 2.28-1.29 3.1a4.4 4.4 0 0 1-3.1 1.29c-.52 0-1.01.28-1.27.73s-.26 1.01 0 1.46.74.73 1.27.73c1.16 0 2.28.46 3.1 1.29a4.4 4.4 0 0 1 1.29 3.1c0 .52.28 1.01.73 1.27s1.01.26 1.46 0 .73-.74.73-1.27c0-1.16.46-2.28 1.29-3.1a4.4 4.4 0 0 1 3.1-1.29c.52 0 1.01-.28 1.27-.73s.26-1.01 0-1.46-.74-.73-1.27-.73m-5.85 2.97c-.43-.57-.93-1.08-1.51-1.51.57-.43 1.08-.93 1.51-1.51.43.57.93 1.08 1.51 1.51-.57.43-1.08.93-1.51 1.51" style="stroke-width:0;fill:url(#linear-gradient-181)"/><path d="M557.83 97.36c-1.87 0-3.66-.74-4.98-2.06a7.04 7.04 0 0 1-2.06-4.98c0-.84-.45-1.62-1.17-2.04a2.347 2.347 0 0 0-3.52 2.04c0 1.87-.74 3.66-2.06 4.98a7.04 7.04 0 0 1-4.98 2.06c-.84 0-1.62.45-2.04 1.17a2.347 2.347 0 0 0 2.04 3.52c1.87 0 3.66.74 4.98 2.06a7.04 7.04 0 0 1 2.06 4.98c0 .84.45 1.62 1.17 2.04a2.347 2.347 0 0 0 3.52-2.04c0-1.87.74-3.66 2.06-4.98a7.04 7.04 0 0 1 4.98-2.06c.84 0 1.61-.45 2.04-1.17a2.347 2.347 0 0 0-2.04-3.52m-9.4 4.77c-.68-.92-1.5-1.74-2.42-2.42.92-.68 1.74-1.5 2.42-2.42.68.92 1.5 1.74 2.42 2.42-.92.68-1.74 1.5-2.42 2.42" style="stroke-width:0;fill:url(#linear-gradient-182)"/><path d="M258.81 512.8c-1.87 0-3.66-.74-4.98-2.06a7.04 7.04 0 0 1-2.06-4.98c0-.84-.45-1.62-1.17-2.04a2.347 2.347 0 0 0-3.52 2.04c0 1.87-.74 3.66-2.06 4.98a7.04 7.04 0 0 1-4.98 2.06c-.84 0-1.62.45-2.04 1.17a2.347 2.347 0 0 0 2.04 3.52c1.87 0 3.66.74 4.98 2.06a7.04 7.04 0 0 1 2.06 4.98c0 .84.45 1.62 1.17 2.04a2.347 2.347 0 0 0 3.52-2.04c0-1.87.74-3.66 2.06-4.98a7.04 7.04 0 0 1 4.98-2.06c.84 0 1.61-.45 2.04-1.17a2.347 2.347 0 0 0-2.04-3.52m-9.4 4.77c-.68-.92-1.5-1.74-2.42-2.42.92-.68 1.74-1.5 2.42-2.42.68.92 1.5 1.74 2.42 2.42-.92.68-1.74 1.5-2.42 2.42" style="stroke-width:0;fill:url(#linear-gradient-183)"/><path d="M520.46 639.83c-1.87 0-3.66-.74-4.98-2.06a7.04 7.04 0 0 1-2.06-4.98c0-.84-.45-1.62-1.17-2.04a2.347 2.347 0 0 0-3.52 2.04c0 1.87-.74 3.66-2.06 4.98a7.04 7.04 0 0 1-4.98 2.06c-.84 0-1.62.45-2.04 1.17a2.347 2.347 0 0 0 2.04 3.52c1.87 0 3.66.74 4.98 2.06a7.04 7.04 0 0 1 2.06 4.98c0 .84.45 1.62 1.17 2.04a2.347 2.347 0 0 0 3.52-2.04c0-1.87.74-3.66 2.06-4.98a7.04 7.04 0 0 1 4.98-2.06c.84 0 1.61-.45 2.04-1.17a2.347 2.347 0 0 0-2.04-3.52m-9.4 4.77c-.68-.92-1.5-1.74-2.42-2.42.92-.68 1.74-1.5 2.42-2.42.68.92 1.5 1.74 2.42 2.42-.92.68-1.74 1.5-2.42 2.42" style="stroke-width:0;fill:url(#linear-gradient-184)"/><path d="M301.84 166.43c-1.87 0-3.66-.74-4.98-2.06a7.04 7.04 0 0 1-2.06-4.98c0-.84-.45-1.62-1.17-2.04a2.347 2.347 0 0 0-3.52 2.04c0 1.87-.74 3.66-2.06 4.98a7.04 7.04 0 0 1-4.98 2.06c-.84 0-1.62.45-2.04 1.17a2.347 2.347 0 0 0 2.04 3.52c1.87 0 3.66.74 4.98 2.06a7.04 7.04 0 0 1 2.06 4.98c0 .84.45 1.62 1.17 2.04a2.347 2.347 0 0 0 3.52-2.04c0-1.87.74-3.66 2.06-4.98a7.04 7.04 0 0 1 4.98-2.06c.84 0 1.61-.45 2.04-1.17a2.347 2.347 0 0 0-2.04-3.52m-9.4 4.77c-.68-.92-1.5-1.74-2.42-2.42.92-.68 1.74-1.5 2.42-2.42.68.92 1.5 1.74 2.42 2.42-.92.68-1.74 1.5-2.42 2.42" style="stroke-width:0;fill:url(#linear-gradient-185)"/><path d="M778.93 583.41c-1.87 0-3.66-.74-4.98-2.06a7.04 7.04 0 0 1-2.06-4.98c0-.84-.45-1.62-1.17-2.04a2.347 2.347 0 0 0-3.52 2.04c0 1.87-.74 3.66-2.06 4.98a7.04 7.04 0 0 1-4.98 2.06c-.84 0-1.62.45-2.04 1.17a2.347 2.347 0 0 0 2.04 3.52c1.87 0 3.66.74 4.98 2.06a7.04 7.04 0 0 1 2.06 4.98c0 .84.45 1.62 1.17 2.04a2.347 2.347 0 0 0 3.52-2.04c0-1.87.74-3.66 2.06-4.98a7.04 7.04 0 0 1 4.98-2.06c.84 0 1.61-.45 2.04-1.17a2.347 2.347 0 0 0-2.04-3.52m-9.4 4.77c-.68-.92-1.5-1.74-2.42-2.42.92-.68 1.74-1.5 2.42-2.42.68.92 1.5 1.74 2.42 2.42-.92.68-1.74 1.5-2.42 2.42" style="stroke-width:0;fill:url(#linear-gradient-186)"/><path d="M483.27 571.67c-1.87 0-3.66-.74-4.98-2.06a7.04 7.04 0 0 1-2.06-4.98c0-.84-.45-1.62-1.17-2.04a2.347 2.347 0 0 0-3.52 2.04c0 1.87-.74 3.66-2.06 4.98a7.04 7.04 0 0 1-4.98 2.06c-.84 0-1.62.45-2.04 1.17a2.347 2.347 0 0 0 2.04 3.52c1.87 0 3.66.74 4.98 2.06a7.04 7.04 0 0 1 2.06 4.98c0 .84.45 1.62 1.17 2.04a2.347 2.347 0 0 0 3.52-2.04c0-1.87.74-3.66 2.06-4.98a7.04 7.04 0 0 1 4.98-2.06c.84 0 1.61-.45 2.04-1.17a2.347 2.347 0 0 0-2.04-3.52m-9.4 4.77c-.68-.92-1.5-1.74-2.42-2.42.92-.68 1.74-1.5 2.42-2.42.68.92 1.5 1.74 2.42 2.42-.92.68-1.74 1.5-2.42 2.42" style="stroke-width:0;fill:url(#linear-gradient-187)"/><path d="M710.8 651.58c-1.87 0-3.66-.74-4.98-2.06a7.04 7.04 0 0 1-2.06-4.98c0-.84-.45-1.62-1.17-2.04a2.347 2.347 0 0 0-3.52 2.04c0 1.87-.74 3.66-2.06 4.98a7.04 7.04 0 0 1-4.98 2.06c-.84 0-1.62.45-2.04 1.17a2.347 2.347 0 0 0 2.04 3.52c1.87 0 3.66.74 4.98 2.06a7.04 7.04 0 0 1 2.06 4.98c0 .84.45 1.62 1.17 2.04a2.347 2.347 0 0 0 3.52-2.04c0-1.87.74-3.66 2.06-4.98a7.04 7.04 0 0 1 4.98-2.06c.84 0 1.61-.45 2.04-1.17a2.347 2.347 0 0 0-2.04-3.52m-9.4 4.77c-.68-.92-1.5-1.74-2.42-2.42.92-.68 1.74-1.5 2.42-2.42.68.92 1.5 1.74 2.42 2.42-.92.68-1.74 1.5-2.42 2.42" style="stroke-width:0;fill:url(#linear-gradient-188)"/><path d="M641.32 146.98c-1.87 0-3.66-.74-4.98-2.06a7.04 7.04 0 0 1-2.06-4.98c0-.84-.45-1.62-1.17-2.04a2.347 2.347 0 0 0-3.52 2.04c0 1.87-.74 3.66-2.06 4.98a7.04 7.04 0 0 1-4.98 2.06c-.84 0-1.62.45-2.04 1.17a2.347 2.347 0 0 0 2.04 3.52c1.87 0 3.66.74 4.98 2.06a7.04 7.04 0 0 1 2.06 4.98c0 .84.45 1.62 1.17 2.04a2.347 2.347 0 0 0 3.52-2.04c0-1.87.74-3.66 2.06-4.98a7.04 7.04 0 0 1 4.98-2.06c.84 0 1.61-.45 2.04-1.17a2.347 2.347 0 0 0-2.04-3.52m-9.4 4.77c-.68-.92-1.5-1.74-2.42-2.42.92-.68 1.74-1.5 2.42-2.42.68.92 1.5 1.74 2.42 2.42-.92.68-1.74 1.5-2.42 2.42" style="stroke-width:0;fill:url(#linear-gradient-189)"/></svg>