<svg xmlns="http://www.w3.org/2000/svg" xmlns:xlink="http://www.w3.org/1999/xlink" id="Layer_1" data-name="Layer 1" viewBox="0 0 350 350"><defs><linearGradient id="linear-gradient" x1="-2" x2="352" y1="175" y2="175" gradientUnits="userSpaceOnUse"><stop offset="0" stop-color="#5bc5b8"/><stop offset="1" stop-color="#bcebe5"/></linearGradient><linearGradient id="linear-gradient-2" x1="111.29" x2="129.42" y1="134.47" y2="134.47" gradientUnits="userSpaceOnUse"><stop offset="0" stop-color="#ff7a7f"/><stop offset="1" stop-color="#ff577f"/></linearGradient><linearGradient id="linear-gradient-3" x1="86.53" x2="131.39" y1="141.98" y2="141.98" gradientUnits="userSpaceOnUse"><stop offset="0" stop-color="#008897"/><stop offset=".59" stop-color="#009e87"/><stop offset="1" stop-color="#00a880"/></linearGradient><linearGradient xlink:href="#linear-gradient-3" id="linear-gradient-4" x1="121.2" x2="132.8" y1="135.37" y2="135.37"/><linearGradient xlink:href="#linear-gradient-3" id="linear-gradient-5" x1="127.76" x2="140.01" y1="135.91" y2="135.91"/><linearGradient id="linear-gradient-6" x1="138.7" x2="165.52" y1="140.97" y2="140.97" gradientUnits="userSpaceOnUse"><stop offset="0" stop-color="#8ed7c6"/><stop offset="1" stop-color="#56adab"/></linearGradient><linearGradient xlink:href="#linear-gradient-3" id="linear-gradient-7" x1="134.89" x2="154.26" y1="159.89" y2="159.89"/><linearGradient xlink:href="#linear-gradient-3" id="linear-gradient-8" x1="131.37" x2="140" y1="173.07" y2="173.07"/><linearGradient xlink:href="#linear-gradient-2" id="linear-gradient-9" x1="123.69" x2="136.03" y1="174.37" y2="174.37"/><linearGradient xlink:href="#linear-gradient-3" id="linear-gradient-10" x1="99.97" x2="122.58" y1="134.22" y2="134.22"/><linearGradient xlink:href="#linear-gradient-3" id="linear-gradient-11" x1="92.66" x2="124.61" y1="176.41" y2="176.41"/><linearGradient xlink:href="#linear-gradient" id="linear-gradient-12" x1="81.53" x2="155.17" y1="233.47" y2="233.47"/><linearGradient xlink:href="#linear-gradient-6" id="linear-gradient-13" x1="69.43" x2="82.14" y1="277.38" y2="277.38"/><linearGradient id="linear-gradient-14" x1="66.17" x2="81.54" y1="279.55" y2="279.55" gradientUnits="userSpaceOnUse"><stop offset="0" stop-color="#12aa98"/><stop offset="1" stop-color="#077"/></linearGradient><linearGradient xlink:href="#linear-gradient-6" id="linear-gradient-15" x1="1237.2" x2="1249.92" y1="-10406.87" y2="-10406.87" gradientTransform="rotate(-65.5 9017.596 -4203.784)"/><linearGradient xlink:href="#linear-gradient-14" id="linear-gradient-16" x1="1233.95" x2="1249.32" y1="-10404.71" y2="-10404.71" gradientTransform="rotate(-65.5 9017.596 -4203.784)"/><linearGradient xlink:href="#linear-gradient-3" id="linear-gradient-17" x1="20019.26" x2="20028.01" y1="-3104.98" y2="-3104.98" gradientTransform="matrix(1 0 0 -1 -19840.72 -2983.09)"/><linearGradient xlink:href="#linear-gradient-6" id="linear-gradient-18" x1="20019.69" x2="20027.59" y1="-3104.98" y2="-3104.98" gradientTransform="matrix(1 0 0 -1 -19840.72 -2983.09)"/><linearGradient xlink:href="#linear-gradient-6" id="linear-gradient-19" x1="198.96" x2="230.84" y1="306.01" y2="306.01"/><linearGradient xlink:href="#linear-gradient" id="linear-gradient-20" x1="218.1" x2="235" y1="151.77" y2="151.77"/><linearGradient xlink:href="#linear-gradient-3" id="linear-gradient-21" x1="185.99" x2="227.14" y1="155.38" y2="155.38"/><linearGradient xlink:href="#linear-gradient-3" id="linear-gradient-22" x1="231.5" x2="280.29" y1="167.77" y2="167.77"/><linearGradient xlink:href="#linear-gradient-2" id="linear-gradient-23" x1="204.82" x2="255.35" y1="239.14" y2="239.14"/><linearGradient xlink:href="#linear-gradient-6" id="linear-gradient-24" x1="217.57" x2="249.45" y1="306.01" y2="306.01"/><linearGradient xlink:href="#linear-gradient-6" id="linear-gradient-25" x1="-1298.52" x2="-1267.06" y1="-1156.06" y2="-1156.06" gradientTransform="translate(1337.84 1250.11)"/><linearGradient xlink:href="#linear-gradient-3" id="linear-gradient-26" x1="-1303.06" x2="-1262.19" y1="-1155.5" y2="-1155.5" gradientTransform="rotate(-12.35 5163.544 -6713.448)"/><linearGradient xlink:href="#linear-gradient-2" id="linear-gradient-27" x1="-1292.71" x2="-1281.24" y1="-1166.95" y2="-1166.95" gradientTransform="rotate(-12.35 5163.544 -6713.448)"/><linearGradient xlink:href="#linear-gradient-2" id="linear-gradient-28" x1="-1292.71" x2="-1273.18" y1="-1157.76" y2="-1157.76" gradientTransform="rotate(-12.35 5163.544 -6713.448)"/><linearGradient xlink:href="#linear-gradient-2" id="linear-gradient-29" x1="-1292.71" x2="-1278.95" y1="-1162.36" y2="-1162.36" gradientTransform="rotate(-12.35 5163.544 -6713.448)"/><linearGradient id="linear-gradient-30" x1="1576.64" x2="1616.55" y1="775.01" y2="775.01" gradientTransform="rotate(12.02 4192.816 -5764.32)" gradientUnits="userSpaceOnUse"><stop offset="0" stop-color="#077"/><stop offset="1" stop-color="#12aa98"/></linearGradient><linearGradient id="linear-gradient-31" x1="1581.66" x2="1611.53" y1="775.01" y2="775.01" gradientTransform="translate(-1304.88 -684.08)" gradientUnits="userSpaceOnUse"><stop offset="0" stop-color="#009877"/><stop offset="1" stop-color="#50d098"/></linearGradient><linearGradient xlink:href="#linear-gradient-2" id="linear-gradient-32" x1="1585.15" x2="1595.18" y1="769.44" y2="769.44" gradientTransform="rotate(12.02 4192.816 -5764.32)"/><linearGradient xlink:href="#linear-gradient-30" id="linear-gradient-33" x1="1581.61" x2="1611.49" y1="782.47" y2="782.47"/><linearGradient xlink:href="#linear-gradient-30" id="linear-gradient-34" x1="-1278.87" x2="-1257.37" y1="-1449.59" y2="-1449.59" gradientTransform="rotate(-15.33 5512.023 -6500.34)"/><linearGradient xlink:href="#linear-gradient-2" id="linear-gradient-35" x1="-1272.97" x2="-1257.38" y1="-1458.88" y2="-1458.88" gradientTransform="rotate(-15.33 5512.023 -6500.34)"/><linearGradient xlink:href="#linear-gradient-30" id="linear-gradient-36" x1="2335.44" x2="2356.93" y1="1363.78" y2="1363.78" gradientTransform="rotate(17.62 4970.475 -6653.195)"/><linearGradient xlink:href="#linear-gradient-2" id="linear-gradient-37" x1="2341.34" x2="2356.93" y1="1354.49" y2="1354.49" gradientTransform="rotate(17.62 4970.475 -6653.195)"/><linearGradient xlink:href="#linear-gradient-2" id="linear-gradient-38" x1="159.75" x2="195.5" y1="188.79" y2="188.79"/><linearGradient xlink:href="#linear-gradient-31" id="linear-gradient-39" x1="160.98" x2="194.66" y1="186.15" y2="186.15"/><linearGradient xlink:href="#linear-gradient-2" id="linear-gradient-40" x1="166.43" x2="167.74" y1="48.63" y2="48.63"/><linearGradient id="linear-gradient-41" x1="164.87" x2="184.26" y1="52.11" y2="52.11" gradientUnits="userSpaceOnUse"><stop offset="0" stop-color="#077"/><stop offset="1" stop-color="#12a593"/></linearGradient><linearGradient xlink:href="#linear-gradient-2" id="linear-gradient-42" x1="158.33" x2="174.42" y1="53.71" y2="53.71"/><linearGradient xlink:href="#linear-gradient-2" id="linear-gradient-43" x1="168.71" x2="174.42" y1="54.11" y2="54.11"/><linearGradient xlink:href="#linear-gradient-2" id="linear-gradient-44" x1="167.74" x2="168.89" y1="49.86" y2="49.86"/><linearGradient xlink:href="#linear-gradient-2" id="linear-gradient-45" x1="164.87" x2="166.43" y1="47.36" y2="47.36"/><linearGradient xlink:href="#linear-gradient-41" id="linear-gradient-46" x1="174.42" x2="189.15" y1="70.16" y2="70.16"/><linearGradient xlink:href="#linear-gradient-41" id="linear-gradient-47" x1="162.56" x2="180.02" y1="70.88" y2="70.88"/><linearGradient xlink:href="#linear-gradient-41" id="linear-gradient-48" x1="158.18" x2="174.77" y1="64.21" y2="64.21"/><linearGradient xlink:href="#linear-gradient-2" id="linear-gradient-49" x1="174.77" x2="188.65" y1="57.46" y2="57.46"/><linearGradient xlink:href="#linear-gradient-2" id="linear-gradient-50" x1="149.13" x2="161.94" y1="71.92" y2="71.92"/><linearGradient xlink:href="#linear-gradient-41" id="linear-gradient-51" x1="148.7" x2="158.46" y1="58.8" y2="58.8"/><linearGradient xlink:href="#linear-gradient-2" id="linear-gradient-52" x1="157.69" x2="178.42" y1="78.7" y2="78.7"/><linearGradient xlink:href="#linear-gradient" id="linear-gradient-53" x1="51.32" x2="61.68" y1="158.07" y2="158.07"/><linearGradient xlink:href="#linear-gradient" id="linear-gradient-54" x1="289.07" x2="299.43" y1="134.22" y2="134.22"/><linearGradient xlink:href="#linear-gradient" id="linear-gradient-55" x1="111.28" x2="121.64" y1="272.21" y2="272.21"/><linearGradient xlink:href="#linear-gradient" id="linear-gradient-56" x1="293.67" x2="304.03" y1="224.89" y2="224.89"/><linearGradient xlink:href="#linear-gradient" id="linear-gradient-57" x1="119.67" x2="130.03" y1="45.8" y2="45.8"/><linearGradient xlink:href="#linear-gradient" id="linear-gradient-58" x1="156.11" x2="163.65" y1="106.84" y2="106.84"/><linearGradient xlink:href="#linear-gradient" id="linear-gradient-59" x1="203.34" x2="209.79" y1="75.86" y2="75.86"/><linearGradient xlink:href="#linear-gradient" id="linear-gradient-60" x1="198.16" x2="204.61" y1="111.86" y2="111.86"/><linearGradient xlink:href="#linear-gradient" id="linear-gradient-61" x1="252.13" x2="258.58" y1="94.9" y2="94.9"/><linearGradient xlink:href="#linear-gradient" id="linear-gradient-62" x1="45.95" x2="52.4" y1="242.19" y2="242.19"/><linearGradient xlink:href="#linear-gradient" id="linear-gradient-63" x1="96.75" x2="103.2" y1="289.91" y2="289.91"/><linearGradient xlink:href="#linear-gradient" id="linear-gradient-64" x1="311.25" x2="317.71" y1="202.71" y2="202.71"/><linearGradient xlink:href="#linear-gradient" id="linear-gradient-65" x1="280.29" x2="286.74" y1="187.01" y2="187.01"/><linearGradient xlink:href="#linear-gradient" id="linear-gradient-66" x1="173.97" x2="180.42" y1="150.67" y2="150.67"/><linearGradient xlink:href="#linear-gradient" id="linear-gradient-67" x1="154.47" x2="160.92" y1="211.17" y2="211.17"/><linearGradient xlink:href="#linear-gradient" id="linear-gradient-68" x1="91.57" x2="98.02" y1="229.4" y2="229.4"/><linearGradient xlink:href="#linear-gradient" id="linear-gradient-69" x1="269.7" x2="276.15" y1="251.66" y2="251.66"/><linearGradient xlink:href="#linear-gradient" id="linear-gradient-70" x1="181.04" x2="187.49" y1="224.22" y2="224.22"/><linearGradient xlink:href="#linear-gradient" id="linear-gradient-71" x1="73.65" x2="80.1" y1="190.98" y2="190.98"/><linearGradient xlink:href="#linear-gradient" id="linear-gradient-72" x1="69.14" x2="75.59" y1="129.43" y2="129.43"/><linearGradient xlink:href="#linear-gradient" id="linear-gradient-73" x1="201.39" x2="211.74" y1="40.43" y2="40.43"/><linearGradient xlink:href="#linear-gradient-2" id="linear-gradient-74" x1="69.58" x2="79.93" y1="223.56" y2="223.56"/><linearGradient xlink:href="#linear-gradient-2" id="linear-gradient-75" x1="184.91" x2="195.27" y1="279.55" y2="279.55"/><linearGradient xlink:href="#linear-gradient-2" id="linear-gradient-76" x1="88.55" x2="98.9" y1="70.88" y2="70.88"/><linearGradient xlink:href="#linear-gradient-2" id="linear-gradient-77" x1="298.85" x2="309.21" y1="254.68" y2="254.68"/><linearGradient xlink:href="#linear-gradient-31" id="linear-gradient-78" x1="168.52" x2="178.88" y1="249.5" y2="249.5"/><linearGradient xlink:href="#linear-gradient-31" id="linear-gradient-79" x1="268.82" x2="279.17" y1="284.73" y2="284.73"/><linearGradient xlink:href="#linear-gradient-2" id="linear-gradient-80" x1="238.19" x2="248.55" y1="62.3" y2="62.3"/><style>.cls-81,.cls-84,.cls-85,.cls-86{stroke-width:0}.cls-81{fill:#f7ab8d}.cls-84{fill:#fed7bd}.cls-85{fill:#744034}.cls-86{fill:#fff}</style></defs><path d="M-2-2h354v354H-2z" style="stroke-width:0;fill:url(#linear-gradient);opacity:.3"/><path d="m126.12 104.96.59-1.68c1.54-1.11 1.89-2.52 1.06-4.22l.04-2.67c-3.5 0-6.97-.53-10.39-1.56-.06-.02-.12-.03-.18-.04-.6-.09-1.17.28-1.26.82l-.88 4.89c-.03.19-.12.37-.28.52-1.95 1.85.3-5.53-4.74-2.04-1.28.89-1.63 2.02-1.07 3.37.82 1.95 1.02 3.82.62 5.6l-1.38 8.28 3.03 3.77 7.39-2.25.2-3.84c.02-.48.44-.87.98-.92 4.61-.44 8.88-1.85 7.08-6.8l-.83-1.23Zm-3.19-5.4s.02-.05.04-.07c-.01.02-.02.05-.04.07m.08-.14s.03-.04.05-.06c-.02.02-.03.04-.05.06m-.13.51s0 .04.01.06v-.06Zm.37-.74s.05-.03.08-.04c-.03.01-.06.03-.08.04m-.06.05s-.04.03-.06.05c.02-.02.04-.04.06-.05m-.3.53v.07zm.03-.15s-.01.05-.02.08c0-.03.01-.05.02-.08" class="cls-81"/><path d="M127.81 96.39c-3.5 0-6.97-.53-10.39-1.56-.58-.18-1.2.1-1.4.61-.02.05-.04.11-.05.16l-.88 4.89c-.03.19-.12.37-.28.52-1.95 1.85.3-5.53-4.74-2.04-1.28.89-1.63 2.02-1.07 3.37.82 1.95 1.02 3.82.62 5.6-4.48-5.99-4.74-12.13-.78-18.44 1.3-2.07 3.12-2.93 5.45-2.59 2.58.38 4.97 0 7.16-1.15 1.54-.8 3.41-.94 5.63-.41 7.32 1.73 7.73 8.66.72 11.03Z" style="stroke-width:0;fill:#1b1f3e"/><path d="m118.68 117.75 2.52 1.02c1.74 12.55 6.09 21.27 8.22 32.43l-6.84-.04c-.07-1.04-.33-1.97-.78-2.8-.36-10.46-3.86-19.91-10.51-28.35l7.39-2.25Z" style="stroke-width:0;fill:url(#linear-gradient-2)"/><path d="M99.97 118.3q6.33 9.285 6.06 17.67c-.16 5.06-.4 10.12-.71 15.2-.03.54.43 1.01 1.04 1.03h.14l13.32-.8 2.75-.25 6.84.04 1.15.78c-.33 2.54-.06 5 .83 7.38l-.02 1.62-7.68 1.76c-10.26 2.36-18.99 3.96-29.71 2.14-7.1-4.74-7.5-10.53-7.45-18.66.07-8.34 1.15-25.69 13.44-27.92Z" style="stroke-width:0;fill:url(#linear-gradient-3)"/><path d="M121.2 118.77c2.75.12 5.23.92 7.44 2.38-.77 2.5-1.04 5.04-.79 7.63.04.43.47.75.95.72.06 0 .11-.01.17-.03.34-.09.67-.06.99.07 2.61 1.05 2.95 18.43 2.81 21.12l-2.2 1.31-1.15-.78c-2.13-11.16-6.48-19.87-8.22-32.43Z" style="stroke-width:0;fill:url(#linear-gradient-4)"/><path d="M128.64 121.15c6.63 5.1 9.51 15.93 11.29 22.95.24 1.25-.11 2.3-1.06 3.16-1.82 1.44-3.86 2.57-6.1 3.4.14-2.7-.2-20.07-2.81-21.12-.32-.13-.65-.15-.99-.07-.47.12-.96-.12-1.09-.54a.4.4 0 0 1-.03-.15c-.24-2.59.02-5.14.79-7.63" style="stroke-width:0;fill:url(#linear-gradient-5)"/><path d="m160.55 138.41-6.4 9.92c-.24.36-.19.82.12 1.14l.28.28c.4.4.35 1.02-.11 1.38l-.18.12c-1.37.71-2.78 1.34-4.25 1.91-1.73.66-3.49.91-5.3.73-1.73-.17-3.47-.47-5.2-.9-.59-.15-.93-.69-.76-1.22.02-.05.04-.11.07-.16.32-.6.64-1.17.96-1.72.59-1.04.73-2.4-.89-2.62.95-.86 1.3-1.91 1.06-3.16l9.84-15.59c.19-.32.57-.51.98-.5l13.69.28c.61.01 1.09.46 1.08 1.01q0 .225-.12.42l-4.86 8.7Z" style="stroke-width:0;fill:url(#linear-gradient-6)"/><path d="m160.55 138.41.07 1.2c.02.29.18.55.44.73 3.6 2.46 3.57 8.14-.83 10.09-.15.07-.27.15-.36.27l-5.61 6.2c-2.39.68-4.6.45-6.63-.7-.33-.19-.76-.21-1.11-.04-3.53 1.69-7.28 2.75-11.26 3.2a8.4 8.4 0 0 0-3.86 0c-.88-2.38-1.16-4.84-.83-7.38l2.2-1.31a22.3 22.3 0 0 0 6.1-3.4c1.62.22 1.49 1.57.89 2.62-.32.55-.64 1.12-.96 1.72-.26.5-.03 1.09.52 1.32.06.02.11.04.17.06 1.73.43 3.47.72 5.2.9 1.81.18 3.57-.07 5.3-.73 1.47-.56 2.89-1.2 4.25-1.91.53-.27.71-.87.41-1.34a1 1 0 0 0-.13-.16l-.28-.28c-.31-.32-.36-.78-.12-1.14l6.4-9.92Z" class="cls-81"/><path d="M154.26 156.9c-4.66 4.79-10.81 7.07-18.44 6.84-1.01-1.23-1.19-2.69-.56-4.38 3.98-.45 7.73-1.51 11.26-3.2.35-.17.78-.16 1.11.04 2.03 1.15 4.25 1.38 6.63.7" style="stroke-width:0;fill:url(#linear-gradient-7)"/><path d="M135.25 159.35c-.63 1.69-.44 3.15.56 4.38q1.08 8.28 4.11 21.42c.36 1.54-.46 2.13-2.47 1.75l-1.42-2.5-4.66-23.43.02-1.62c1.31-.3 2.59-.3 3.86 0" style="stroke-width:0;fill:url(#linear-gradient-8)"/><path d="m131.37 160.98 4.66 23.43c-3.2 2.13-7.01 3.25-11.42 3.35l-.91-25.02 7.68-1.76Z" style="stroke-width:0;fill:url(#linear-gradient-9)"/><path d="M106.03 135.97c-.16 5.06-.4 10.12-.71 15.2v.12c.04.54.57.95 1.18.91l13.32-.8 2.75-.25c-.07-1.04-.33-1.97-.78-2.8-.36-10.46-3.86-19.91-10.51-28.35l-3.03-3.77-8.28 2.07q6.33 9.285 6.06 17.67" style="stroke-width:0;fill:url(#linear-gradient-10)"/><path d="M123.69 162.74c-10.26 2.36-18.99 3.96-29.71 2.14l-1.32 23.48c-.03.54.44.99 1.05 1.02l3.86.18c9.27 1.08 18.28.48 27.05-1.81l-.91-25.02Z" style="stroke-width:0;fill:url(#linear-gradient-11)"/><path d="M150.72 221.25c-3.4-9.12-6.92-18.21-10.55-27.25l-2.71-7.09-1.42-2.5c-3.2 2.13-7.01 3.25-11.42 3.35-8.76 2.29-17.78 2.89-27.05 1.81 4.1 14.38 12.76 29.07 19.83 42.95 0 .01.01.03.02.04.23.5-.04 1.07-.6 1.27-13.71 5.09-24.5 16.26-34.96 25.63-.19.17-.31.4-.32.65-.03.51.08 1.02.33 1.52l4.67 6.37c16.64-9.23 30.01-16.87 40.1-22.91 9.35-5.61 5.1-16.4 2.78-27.17 3.78 5.7 7.12 11.56 10 17.57.09.18.11.38.08.57-3.01 14.71-1.59 30.15-1.34 44.88 0 .38.25.72.64.89l1.74.72h1.29l6.65-.45c1.27-.1 1.98-.63 2.12-1.58 1.58-11.08 3.06-24.03 4.44-38.83.74-7.94-1.45-12.75-4.31-20.42Zm-26.06-25.11s-.04.01-.06.02c.02 0 .04-.01.06-.02m-.11.03s-.04.01-.06.02c.02 0 .04-.01.06-.02m-.1.04s-.03.02-.05.02c.02 0 .03-.02.05-.02m-.1.05s-.03.02-.04.03c.01 0 .03-.02.04-.03m-.09.05s-.02.02-.04.03c.01 0 .02-.02.04-.03m-.08.06-.03.03c.01 0 .02-.02.03-.03m-.07.07-.03.03zm-.28.61v.04zm.21-.54s-.02.03-.03.04c.01-.01.02-.03.03-.04m-.06.08s-.02.03-.03.05c0-.02.02-.03.03-.05m-.05.08s-.02.03-.02.05c0-.02.02-.03.02-.05m-.04.09s-.01.03-.02.05c0-.02.01-.03.02-.05m-.03.09s0 .03-.01.05c0-.02 0-.03.01-.05m-.02.1v.04zm0 .2v.03-.03m15.01-2.07s.03-.03.05-.04c-.01.02-.03.03-.05.04m-.36.17s.05 0 .07-.01c-.02 0-.05.01-.07.01m.13-.04.06-.03c-.02 0-.04.02-.06.03m.12-.06s.04-.02.05-.04c-.02.01-.04.02-.05.04m.31-.45s0 .04-.01.06c0-.02 0-.04.01-.06m-.03.12s-.02.04-.02.06c0-.02.02-.04.02-.06m-.05.11s-.02.03-.04.05c.01-.02.03-.03.04-.05m.08-.3v-.08.09Z" style="stroke-width:0;fill:url(#linear-gradient-12)"/><path d="m81.86 261.64 4.67 6.37c-2.78.1-5.01 1.01-6.69 2.74l-4.33-1.52c-1.48-.51-1.52-1.11-.13-1.78 1.59-.77 2.98-1.96 4.19-3.59l2.29-2.21Z" class="cls-81"/><path d="M79.57 263.85c-1.2 1.63-2.6 2.82-4.19 3.59-1.39.68-1.34 1.27.13 1.78l4.33 1.52c1.3 1.43 2.21 3.14 2.28 5.09.05 1.18-.12 2.35-.24 3.52-.22 2.25-.23 4.51-.04 6.76.09 1.04.63 4.08-.42 4.83-.66.47-2.25-.55-2.81-.98-.99-.77-1.77-1.81-2.45-2.86-1.67-2.57-2.85-5.47-3.84-8.36-.74-2.17-1.55-4.48-1.77-6.78-.86-1.23-.26-.45-1.14-3.31v-3.04c.03-.4 1.06-.78 1.47-.91 2.77-.91 5.66-1.19 8.67-.85Z" style="stroke-width:0;fill:url(#linear-gradient-13)"/><path d="m70.21 270.74.36 1.23c.33 3.45 5.31 19.97 10.97 18.9-.26 6.29-6.04 1.21-8.03-.94-4.27-6.58-6.71-13.87-7.33-21.88-.15-1.9.64-2.84 2.35-2.84.61 0 1.1.44 1.1.99v.07c-.14 1.56.05 3.05.57 4.48Z" style="stroke-width:0;fill:url(#linear-gradient-14)"/><path d="M143.53 292.83q2.91-1.62 5.49-1.71l-.23-1.44c-.81-2.5-.91-5.03-.32-7.59l-6.53.44-2.44-.44-1.09 8.12.75 5.33c0-.05.37-.24.42-.28.14-.1.28-.2.42-.29.39-.28.87 1.45 1.29 1.22.42-.24 1.61-1.55 2.02-1.8.77.99.45-.84.45-.86 0-.22-.09-.46-.22-.7Z" class="cls-81"/><path d="M138.54 288.68c.98 1.77 1.49 3.54 1.53 5.3.04 1.54.6 1.75 1.68.62l3.17-3.31c1.84-.59 3.77-.71 5.58.03 1.09.45 2.09 1.09 3.1 1.67a37 37 0 0 0 6.14 2.84c.98.35 3.97 1.12 4.22 2.38.16.79-1.43 1.82-2.05 2.15-1.12.58-2.39.86-3.62 1.04-3.03.45-6.16.33-9.2.03-2.28-.22-4.72-.45-6.9-1.2-1.48.28-.52.05-3.49-.33l-2.77-1.26c-.35-.19-.27-1.29-.22-1.72.32-2.89 1.27-5.64 2.83-8.24" style="stroke-width:0;fill:url(#linear-gradient-15)"/><path d="m140.92 300.06 1.27.18c3.28 1.13 20.38 3.45 21.75-2.15 5.61 2.85-1.4 6-4.19 6.92-7.76 1.15-15.41.35-22.95-2.41-1.79-.65-2.32-1.76-1.61-3.31.25-.55.86-.82 1.36-.59.02 0 .04.02.06.03 1.36.77 2.8 1.22 4.31 1.34Z" style="stroke-width:0;fill:url(#linear-gradient-16)"/><path d="M188.97 138.2c.25-.16-.33-.12-.08-.29a26.8 26.8 0 0 0 4-3.46c-1.23-1.89-3.04-4.75-3.07-5.12-.03-.48.54-.34.42-4.09-.04-1.08-.79-2.44-.79-2.44s-.94-1.66-1.34-1.55-.6.64-.53 1.01.51.98.58 1.35-.49 1.32-.8 1.56c-.31.23-2.93-4.74-2.93-4.74s-.69-1.46-.89-1.97c-.17-.43-.58-1.76-.58-1.76s-.68-1.86-1.18-1.62c-.29.14-.09 1.95.36 3.66.48 1.85 1.22 3.62 1.08 3.71-.34.21-1.84-2.48-1.84-2.48s-.45-1.43-.82-1.98c-.15-.93-.77-2.35-1.35-2.01-.11.06.25 2.23.25 2.23s.46 1.35.65 2.01c.33 1.16 1.23 2.66 1.51 3.42.23.64-.02.51-.06.57-.03.05-.44-.75-1.02-1.83-.29-.54-.73-1.09-.98-1.78-.24-.64-.67-1.47-.95-1.96-.77-1.39-1.4-.65-.86.77.2.54.43 1.13.66 1.72.9 2.31 2.15 4.21 1.98 4.38-.22.22-2.32-3.39-2.32-3.39s-1.61-1.62-.82.48c.92 2.43 2.06 4.08 2.12 4.15.37.47 1.23 2.55 2.72 3.98 1.49 1.44 3.94 3.64 3.94 3.64.26.47 1.86 1.75 2.93 3.83Z" class="cls-84"/><circle cx="186.45" cy="128.21" r="1.23" style="stroke-width:0;fill:#8c809b"/><rect width="8.75" height="16.51" x="178.54" y="113.63" rx="4.38" ry="4.38" style="stroke-width:0;fill:url(#linear-gradient-17)" transform="rotate(160.61 182.914 121.89)"/><rect width="7.9" height="15.58" x="178.96" y="114.1" rx="3.95" ry="3.95" style="stroke-width:0;fill:url(#linear-gradient-18)" transform="rotate(160.61 182.914 121.89)"/><path d="m177.818 115.85.028-.04 3.462 2.324-.028.041zM177.119 115.798l.028-.042 3.462 2.325-.028.041zM182.898 116.239l.028-.042 2.619 1.769-.028.041zM182.18 116.18l.027-.042 2.62 1.768-.029.042zM184.963 122.083l.028-.042 2.619 1.769-.028.041zM185.049 122.608l.028-.042 2.619 1.769-.028.041zM180.088 123.12l.028-.042 3.098 2.149-.029.041zM180.43 123.797l.029-.04 3.097 2.148-.028.041zM184.36 129.3l.02-.04-2.9-2.02-.03.04zM181.2 127.567l.028-.04 2.397 1.702-.03.041zM188.68 127.83l.02-.04-2.9-2.02-.03.04zM186.155 125.628l.03-.04 2.396 1.703-.03.04z" class="cls-86"/><circle cx="185.05" cy="128.02" r=".71" class="cls-86"/><path d="M228.58 302.35c-.25-.57.61-1.72.15-2.07l-.51-4.78h-9.96l.48 4.46c-.13.07-.25.13-.36.2l-1.81 1.88c-.15 1.07.2 1.92 1.07 2.56 2.38.19 4.18 1.22 5.39 3.09 2.14-1.59 4.75-2.31 7.81-2.16z" class="cls-84"/><path d="M228.54 298.04c-3.45.71-6.79.45-10.04-.77-.08-.03-.77.72-.87.8-.3.28-.61.55-.92.82-.62.54-1.25 1.06-1.89 1.58-1.28 1.03-2.6 2-3.97 2.91-.38.25-.75.5-1.14.73-.34.2-.63.54-1.03.63-.15.03-.31.02-.47.02-1.35-.06-2.68.12-3.94.64-1.25.52-2.32 1.46-3.29 2.38-.95.9-1.55 1.99-1.95 3.24-.24.75.09 1.53.69 1.9 1.31.81 2.77 1.38 4.3 1.64s3.24.16 4.84.18c3.44.04 6.9-.17 10.32-.52s6.88-.88 10.27-1.59h.05c3.14-1.31-.16-12.11-.98-14.6Z" style="stroke-width:0;fill:url(#linear-gradient-19)"/><path d="m234.58 85.02 3.84 7.91c.07.16.2.27.31.29l.23.03-.14.23c-.08.13-.09.32-.04.51 1.21 4.88-.19 8.81-4.19 11.79-1-.71-1.17-2.45-.52-5.21.14-.66-.12-1.34-.69-1.7-.79-.51-2.01 2.44-2.19 2.86-.14.35-.4.6-.68.66-.98.24-1.12-.78-.96-1.53.59-2.71.79-5.51.62-8.41-.06-.9-.91-1.51-1.77-1.3-3.14.79-6.47.98-10.01.56q-3.06-1.245-2.19-4.08c.09-.31.34-.55.66-.66 5.6-1.92 12.4-4.36 17.74-1.96Z" class="cls-85"/><path d="m238.95 93.26-.23-.03c-.11-.02-.24-.12-.31-.29l-3.84-7.91c8.54-3.06 9.99 7.54 4.37 8.23Z" class="cls-85"/><path d="M234.58 105.78c-1-.71-1.17-2.45-.52-5.21.14-.66-.12-1.34-.69-1.7-.79-.51-2.01 2.44-2.19 2.86-.14.35-.4.6-.68.66-.98.24-1.12-.78-.96-1.53.59-2.71.79-5.51.62-8.41-.06-.9-.91-1.51-1.77-1.3-3.14.79-6.47.98-10.01.56l-.66 9.97c-.18 3.24.2 6.4 1.13 9.47.15.5.59.84 1.06.82l5.98-.25c.12.01.19.17.19.47 0 .27-.18.55-.47.73l-3.11 1.94 3.6 3.35c2.42.18 4.81-.1 7.16-.81.75-.96 1.22-1.96 1.44-3.02-.92-2.85-.96-5.71-.11-8.6Z" class="cls-84"/><path d="M233.25 117.4c-1.64 7.46-2.13 14.75-1.46 21.87 1.56 16.87 2.63 32.28 3.21 46.22.01.23-.06.42-.17.49l-.25.15a47.5 47.5 0 0 1-16.21-4.2l-.21-1.06c-.08-.38-.07-.72.03-.96 2.1-5.14 3.86-10.36 5.28-15.71 2.25-8.46 3.03-18.58 3.53-27.19.35-5.93.04-12.2-.92-18.81 2.42.18 4.81-.1 7.16-.81Z" style="stroke-width:0;fill:url(#linear-gradient-20)"/><path d="M222.48 114.87c-2.72.79-3.6 5.87-3.86 7.89-2.09 2.89-3.2 6.32-4.7 9.53-1.37 2.94-3.18 5.84-5.95 7.53-1.62.99-3.36 1.43-4.84.05-3.52-3.28-7.28-6.1-11.06-9.08l-6.09 5.45c4.11 5.39 8.57 10.58 13.41 15.58 3.78 3.91 8.06 6.7 13.41 2.43.49-.39.95-.76 1.37-1.09-.26 3.76-.42 7.54-.48 11.33a254 254 0 0 0-2.54 31.39c.94-1.7 6.63-13.93 7.22-13.94l-.21-1.06c-.08-.38-.07-.72.03-.96 2.1-5.14 3.86-10.36 5.28-15.71 2.25-8.46 3.03-18.58 3.53-27.19.35-5.93.04-12.2-.92-18.81l-3.6-3.35Zm-8.12 50.89h.01zm.4-.08" style="stroke-width:0;fill:url(#linear-gradient-21)"/><path d="M278.43 162.29c2.63-2.59 2.26-5.04.16-7.99a488 488 0 0 1-18.78-28.44c-3.59-5.87-9.66-13.14-17.26-8.93-1.07-.06-1.92-.58-2.57-1.54-1.51-1.14-3.28-1.47-5.29-1-.22 1.06-.69 2.06-1.44 3.02-1.64 7.46-2.13 14.75-1.46 21.87 1.56 16.87 2.63 32.28 3.21 46.22.01.23-.06.42-.18.49l-.25.15c.23.39.42.63.41 1.1-.44 10.36-.43 21 .01 31.89.03.96.78 1.72 1.7 1.74l17.22.48c5.65-.09 17.15-1.85 20.44-7.17 1.72-2.79.92-5.63-2.43-8.52-2.79-3.47-5.62-6.92-8.49-10.34-3.26-3.88-5.18-8.9-5.76-15.07-3.46-5.91-5.2-10.95-6.85-17.2-.17-.63-.33-1.26-.49-1.91.17.65.33 1.29.49 1.91 1.65 6.25 3.39 11.3 6.85 17.2 7.38-5.61 14.3-11.6 20.76-17.96m-17.21-1.96c.24-.12.49-.24.75-.35-.26.11-.5.23-.75.35m-13.61-10.57s.02-.03.03-.05c-.01.01-.02.03-.03.05m.24-.18h.04l.2-.02c.05 0 .1 0 .14.02-.04-.02-.09-.03-.14-.02l-.2.02zm6.41 14.38.13-.19c-.26-2.6.02-5.24.84-7.9-.15-.24-.29-.47-.44-.7.15.23.3.47.44.7l3.83 2.72-4.67 5.19-.13.19Z" style="stroke-width:0;fill:url(#linear-gradient-22)"/><path d="M249.68 234.16c-.15-.28-.19-.62-.07-.93l4.3-11.88-17.22-.48c-.92-.02-1.67-.78-1.7-1.74-.44-10.89-.45-21.52-.01-31.89.01-.47-.19-.71-.41-1.1a47.5 47.5 0 0 1-16.21-4.2c-.59.01-6.28 12.24-7.22 13.94-3.84 11.72-7.06 21.76-6.19 33.53.44 6.08 3.6 12.25 4.82 18.67.65 3.38 1.44 6.72 2.4 10.05.88 3.07 1.22 6.42 1.78 9.57.59 3.33 1.15 6.67 1.67 10.02 1.02 6.47 1.57 8.92 2.35 15.41.14 1.17.14 1.75.33 2.88 2.42.05 4.14.07 5.65-.07 1.73-.15 2.67-.09 4.42-.09-.33-.59.02 1.01-.07.33-.12-.9-.23-1.81-.33-2.72-.21-1.88-.39-3.77-.52-5.66-.25-3.65.39-7.01.73-10.63.43-4.56.72-9.15.45-13.72-.25-4.3-.93-8.57-2.04-12.73s-2.79-7.98-3.93-12.05c-.4-1.43-1.14-2.75-1.46-4.21-.04-.19.05-.56.25-.99l9.14-19.76c.32-.69.47-.63.47.17-.03 8.01 1.32 15.89 4.02 23.64 1.49 4.27 1.39 7.86 1.53 12.16.5 14.5.59 28.98.25 43.46l11.33.06c1.85-5.61 3.33-11.3 4.46-17.07 3.15-16.19 4.97-27.86-2.98-41.96Z" style="stroke-width:0;fill:url(#linear-gradient-23)"/><path d="m236.88 293.13 11.33.06c.15 1.72-.21 3.33-1.07 4.85-3.45.71-6.79.45-10.04-.77.44-1.35.36-2.73-.23-4.14Z" class="cls-84"/><path d="M247.14 298.04c-3.45.71-6.79.45-10.04-.77-.08-.03-.77.72-.87.8-.3.28-.61.55-.92.82-.62.54-1.25 1.06-1.89 1.58-1.28 1.03-2.6 2-3.97 2.91-.38.25-.75.5-1.14.73-.34.2-.63.54-1.03.63-.15.03-.31.02-.47.02-1.35-.06-2.68.12-3.94.64-1.25.52-2.32 1.46-3.29 2.38-.95.9-1.55 1.99-1.95 3.24-.24.75.09 1.53.69 1.9 1.31.81 2.77 1.38 4.3 1.64 1.59.27 3.24.16 4.84.18 3.44.04 6.9-.17 10.32-.52 3.45-.35 6.88-.88 10.27-1.59h.05c3.14-1.31-.16-12.11-.98-14.6Z" style="stroke-width:0;fill:url(#linear-gradient-24)"/><path d="M39.31 76.17h31.46v35.76H39.31z" style="stroke-width:0;fill:url(#linear-gradient-25)" transform="rotate(-12.35 55.048 94.041)"/><path d="M69.74 84.13c-.38-1.79-.73-3.59-1.1-5.38-.23-1.13-.46-2.27-.7-3.4-.11-.53-.23-1.06-.34-1.59-.09-.47-.13-1.02-.53-1.34-.23-.19-.57-.13-.84-.11-.4.03-.81.16-1.2.25-1.65.37-3.3.72-4.96 1.06-.21.04-.41.09-.62.13-.46.1-.91.19-1.37.29-5.29 1.16-10.6 2.24-15.89 3.38-1.87.41-3.75.81-5.62 1.22-.15.03-.29.06-.44.1h-.01c-.42.09-.79.35-1.02.71s-.29.76-.21 1.15l6.56 29.97-2.24.49c-.62.14-1.01.75-.88 1.37l.37 1.67c.19 1.9 2.08 3.24 4.45 3.14.07 0 .17-.03.24-.04l27.59-6.04c.07-.01.12-.03.19-.05.09-.02.17-.03.26-.05l.11-.02c1.07-.23 2.01-.87 2.6-1.76.55-.84.73-1.81.53-2.74-.78-3.57-1.57-7.15-2.36-10.72-.78-3.54-1.59-7.07-2.35-10.61-.08-.36-.15-.72-.23-1.08Zm2.46 23.71c-.26.57-.85.97-1.47.99s-1.25-.33-1.54-.87c-.52-.95-.2-2.44-1.17-2.91-.41-.2-.9-.11-1.34 0-7.65 1.68-15.3 3.35-22.95 5.03-2.14-9.74-4.27-19.49-6.41-29.23l27.99-6.06c.01.06.03.12.04.18 2.28 10.25 4.57 20.51 6.85 30.76.16.7.31 1.47.01 2.12Z" style="stroke-width:0;fill:url(#linear-gradient-26)"/><path d="m44.4 86.41 8.95-1.96c.62-.14 1.01-.75.88-1.37s-.75-1.01-1.37-.88l-8.95 1.96c-.62.14-1.01.75-.88 1.37s.75 1.01 1.37.88" style="stroke-width:0;fill:url(#linear-gradient-27)"/><path d="m62.7 89.46-16.83 3.68c-.62.14-1.01.75-.88 1.37s.75 1.01 1.37.88l16.83-3.68c.62-.14 1.01-.75.88-1.37s-.75-1.01-1.37-.88" style="stroke-width:0;fill:url(#linear-gradient-28)"/><path d="m63.69 93.94-16.83 3.68c-.62.14-1.01.75-.88 1.37s.75 1.01 1.37.88l16.83-3.68c.62-.14 1.01-.75.88-1.37s-.75-1.01-1.37-.88M64.67 98.43l-16.83 3.68c-.62.14-1.01.75-.88 1.37s.75 1.01 1.37.88l16.83-3.68c.62-.14 1.01-.75.88-1.37s-.75-1.01-1.37-.88" class="cls-86"/><path d="m45.38 90.9 11.2-2.45c.62-.14 1.01-.75.88-1.37s-.75-1.01-1.37-.88l-11.2 2.45c-.62.14-1.01.75-.88 1.37s.75 1.01 1.37.88" style="stroke-width:0;fill:url(#linear-gradient-29)"/><path d="m306.49 113.69-37.54-7.99 7.99-37.54 7.81 1.66 29.73 6.33z" class="cls-86"/><path d="m276.35 67.25-8.31 39.03 39.03 8.31 8.31-39.03zm29.55 45.53-36.04-7.67 7.67-36.04 36.04 7.67z" style="stroke-width:0;fill:url(#linear-gradient-30)"/><path d="M276.78 75.99h29.87v29.87h-29.87z" style="stroke-width:0;fill:url(#linear-gradient-31)" transform="rotate(12.02 291.681 90.922)"/><circle cx="286.58" cy="84.14" r="5.02" style="stroke-width:0;fill:url(#linear-gradient-32)"/><path d="M275.1 97.04s3.7-5.63 9.73-2.56c3.68 1.87 8.1 3.42 12.3 3.21 3.41-.17 5.93-2.9 9.16-3.66l-3.11 14.61-29.18-6.21s1.19-5.79 1.1-5.39" style="stroke-width:0;fill:url(#linear-gradient-33)"/><path d="M305.83 171.21c-.04-.17-.06-.29-.09-.41-1.34-4.83-2.69-9.67-4.03-14.5-.1-.37-.18-.74-.28-1.11-.05-.19 0-.29.18-.39 1.99-1.02 3.97-2.05 5.96-3.08l5.58-2.91c.58-.3 1.16-.59 1.73-.89.42-.22.46-.21.59.24l4.29 15.37c.29 1.03.54 2.06.86 3.08.5 1.57-.01 2.84-1.12 3.94-.84.83-1.86 1.29-3.06 1.29-1.88 0-3.04-1.5-2.58-3.32.5-1.98 2.5-3.44 4.54-3.32h.35c-.03-.15-.04-.27-.07-.39-1.09-3.92-2.17-7.84-3.26-11.76-.12-.43-.15-.43-.54-.23-1.29.68-2.59 1.34-3.89 2.01s-2.6 1.33-3.89 2c-.91.47-1.81.94-2.72 1.4-.59.3-.6.28-.42.93 1.24 4.48 2.49 8.95 3.73 13.43.48 1.72-.08 3.28-1.54 4.33-.91.65-1.9 1.03-3.03.88-1.68-.23-2.59-1.6-2.19-3.25.49-2 2.52-3.5 4.58-3.37.09 0 .18.01.34.02Z" style="stroke-width:0;fill:url(#linear-gradient-34)"/><path d="m301.3 155.17 1.08 3.59c.08.28.4.41.65.27l13.22-6.92c.19-.1.29-.32.23-.53l-1.04-3.6a.46.46 0 0 0-.65-.28l-13.27 6.93c-.2.1-.29.33-.23.54Z" style="stroke-width:0;fill:url(#linear-gradient-35)"/><path d="M36.08 198.46c.06-.17.11-.28.15-.4 1.5-4.79 3-9.58 4.5-14.36.11-.36.25-.72.37-1.09.06-.19.16-.25.36-.23 2.22.22 4.45.44 6.68.65 2.09.2 4.18.39 6.26.59.65.06 1.29.13 1.94.19.47.04.5.07.36.52-1.59 5.08-3.17 10.15-4.76 15.23-.32 1.02-.67 2.03-.95 3.05-.44 1.59-1.56 2.38-3.09 2.69-1.16.24-2.27.07-3.27-.58-1.58-1.02-1.74-2.92-.36-4.19 1.49-1.39 3.97-1.52 5.62-.32.08.06.17.11.29.2.06-.14.11-.25.15-.36l3.66-11.64c.13-.42.11-.44-.33-.48-1.45-.14-2.91-.29-4.36-.43-1.45-.15-2.91-.29-4.36-.44-1.01-.1-2.03-.19-3.04-.31-.66-.07-.66-.09-.86.55-1.39 4.43-2.78 8.87-4.18 13.3-.53 1.7-1.85 2.71-3.65 2.79-1.11.05-2.15-.17-3.02-.91-1.28-1.1-1.3-2.75-.07-3.92 1.5-1.42 4.02-1.56 5.68-.33.07.05.15.11.28.2Z" style="stroke-width:0;fill:url(#linear-gradient-36)"/><path d="m40.99 182.54-1.05 3.6c-.08.28.11.56.4.59l14.86 1.38c.22.02.42-.12.48-.32l1.09-3.59a.463.463 0 0 0-.4-.59l-14.9-1.39a.456.456 0 0 0-.48.33Z" style="stroke-width:0;fill:url(#linear-gradient-37)"/><path d="M176.55 186.28c-.15.03-.31.06-.46.08-.82.1-1.65-.06-2.46-.21-1.46-.28-2.93-.53-4.42-.64-.47-.03-3.98-.32-3.77.53.03.12.12.22.21.31 1.17 1.17 2.81 1.7 4.37 2.24 1.86.65 3.87 1.21 5.46 2.41.53.4 1.04.87 1.67 1.05 1.42.4 3.04-.62 3.49-1.97.4-1.19.04-2.59-.94-3.39-.53-.43-1.23-.66-1.91-.62-.42.02-.83.13-1.24.22Z" style="fill:url(#linear-gradient-38);stroke-width:0"/><path d="M185.64 174.15c-.26-.14-.52-.28-.84-.46.24-.77.48-1.52.7-2.28.32-1.13.07-1.65-1.02-2.1-.66-.27-1.33-.5-2.01-.7-.97-.29-1.6.02-1.98.95-.28.68-.54 1.38-.78 2.08-.16.46-.41.63-.91.62-1.15-.02-2.3.04-3.63.07-.12-.33-.31-.73-.38-1.15-.04-.23.04-.57.19-.72.6-.56.7-1.15.44-1.92-.84-2.45-1.01-2.55-3.49-1.75-.56.18-1.13.32-1.7.47-.39.14-.78.28-1.17.41-.59.26-1.19.52-1.77.78-.81.36-1.13 1.01-.88 1.87.15.51.26 1.07.55 1.49.28.39.78.88 1.17.87 1.02-.02.88.75 1.12 1.28.28.63-.29.76-.61.97-6.54 4.28-9.48 12.67-6.44 20.44 2.9 7.43 11.55 12.03 19.27 10.11.22-.06.46-.05.69-.08.89-.31 1.79-.63 2.68-.94.76-.46 1.53-.89 2.26-1.37 10.71-7.09 9.93-22.68-1.45-28.96Zm4.06 17.92c-1.81 6.91-8.97 10.88-15.64 8.68-3.58-1.18-6.61-4.16-7.9-7.69-.17-.47-.32-.95-.43-1.44-.88-3.86.21-7.97 2.94-10.84.71-.74 1.51-1.39 2.38-1.92 1.2-.73 2.52-1.28 3.88-1.63 1.64-.41 3.53-.61 5.19-.19 6.92 1.36 11.35 8.31 9.58 15.04Z" style="stroke-width:0;fill:url(#linear-gradient-39)"/><path d="M165.87 186.63c.5.32.99.74 1.56.96 2.17.86 4.38 1.63 6.55 2.48.55.22 1.09.57 1.52.98 1.26 1.21 2.86 1.4 4.18.39 1.22-.93 1.49-2.49.69-3.98-.67-1.26-2.26-1.72-3.81-1.17-.39.14-.86.16-1.28.11-2.31-.31-4.62-.69-6.94-.98-.7-.09-1.43 0-2.13 0 .7-5.25 7.81-9.6 13.91-8.4 6.92 1.36 11.35 8.31 9.58 15.04-1.81 6.91-8.97 10.88-15.64 8.68-6.01-1.98-10.16-9.24-8.19-14.11" class="cls-86"/><path d="m166.43 48 1.31 1.26-.46-.56z" style="stroke-width:0;fill:url(#linear-gradient-40)"/><path d="m183.74 52.46-5.27-4.03-1.96-.67-3.97-1.35-6.6-.05-1.07.36 1.12.86.44.42.85.7.46.56 1.15 1.11.69.66 3.02 3.88 1.82 2.94 2.04-1.16 3.77-1.92 4.03-1.73z" style="stroke-width:0;fill:url(#linear-gradient-41)"/><path d="m171.86 54.35-3.15-3.89-.97-1.2-1.31-1.26-1.56-1.28-6.22 2.47-.32 5.73.27 3.78.14 2 4.05-1.59 5.39-1.1 5.67-.12.57-.04z" style="stroke-width:0;fill:url(#linear-gradient-42)"/><path d="m169.58 51.03-.69-.66-.18.09 3.16 3.89 2.55 3.5-1.81-2.94z" style="stroke-width:0;fill:url(#linear-gradient-43)"/><path d="m168.71 50.46.18-.09-1.15-1.11.97 1.19Z" style="stroke-width:0;fill:url(#linear-gradient-44)"/><path d="m165.99 47.58-1.12-.86 1.56 1.28z" style="stroke-width:0;fill:url(#linear-gradient-45)"/><path d="m188.77 62.28-.47-.32-.98-.66-2.96-1.71-3.49-.76-3.23-.55-3.22-.43 3.17 7.07 1.01 3.75.69 2.55.53 4.89.06 6.36 1.7-.62 2.47-2.33 2.93-3.83 2.17-6.3z" style="stroke-width:0;fill:url(#linear-gradient-46)"/><path d="m179.03 70.53-1.69-6.2-2.57-5.69-.35-.79-3.02 2.14-4.31 4.55-4.01 5.04-.52 2.22 4.77 5.49 3.46 2.25 2.76 1.8 4.87 2.56 1.34-.77.26-1.44z" style="stroke-width:0;fill:url(#linear-gradient-47)"/><path d="m158.56 61.51.56 3.62 1.82 3.23 1.45 2.36 2.24-3.41 4.93-5.54 5.21-3.75-3.66-.31-5.3.68-6.05 1.6-1.58.98z" style="stroke-width:0;fill:url(#linear-gradient-48)"/><path d="m174.77 58.02 2.2-1.75 2.82-1.38 3.37-1.34 1.43-.35 2.28 3.23s1.6 3 1.6 3.23.17 2.05.17 2.05-1.18-.41-1.33-.41-5.86-2.13-5.86-2.13l-4.52-.62-2.18-.53Z" style="stroke-width:0;fill:url(#linear-gradient-49)"/><path d="M158.18 60.97s-2.53 1.31-5.18 3.28c-1.37 1.03-2.78 2.23-3.88 3.53 0 0-.09 8.07 7.78 14.27l.79.8s.12-2.25 1.44-6.07c.63-1.81 1.52-3.98 2.81-6.42 0 0-2.97-5.65-3.76-9.39" style="stroke-width:0;fill:url(#linear-gradient-50)"/><path d="m148.7 68.03 9.69-7.41-.11-9.83.18-1.22-3.23 2.12-3.97 5.33-2.18 8.26z" style="stroke-width:0;fill:url(#linear-gradient-51)"/><path d="M170.64 79.93c-5.09-3.84-8.57-8.79-8.57-8.79-3.26 5.62-4.37 11.73-4.37 11.73 4.08 2.18 7.63 3.1 10.58 3.34 6.54.53 10.15-2.3 10.15-2.3-2.81-.71-5.46-2.22-7.78-3.97Z" style="stroke-width:0;fill:url(#linear-gradient-52)"/><path d="M178.25 47.75c-4.32-2.15-9.04-2.62-13.43-1.68l-.05-.03-.03.05c-5.88 1.29-11.15 5.12-14.03 10.92-1.67 3.36-2.39 7.1-2.08 10.82.6 7.25 4.84 13.5 11.34 16.73 2.93 1.46 6.04 2.14 9.11 2.14 4.06 0 8.04-1.21 11.42-3.45 2.91-1.93 5.36-4.62 7.02-7.96 5.04-10.15.89-22.51-9.26-27.55Zm9.64 13.09c-3.28-1.36-7.17-2.59-11.36-3.17-.01-.13-.03-.25-.07-.38 2.28-1.35 4.85-2.55 7.74-3.53 1.71 2.09 2.97 4.51 3.69 7.07Zm-18.75-14.22c2.92 0 5.88.66 8.66 2.04 2.2 1.1 4.11 2.56 5.68 4.27a41 41 0 0 0-7.51 3.47c-.06-.06-.12-.12-.18-.17-.57-.48-1.31-.6-1.97-.4-.26-.41-.51-.8-.76-1.17-2.76-4.07-5.56-6.57-7.1-7.77 1.05-.17 2.11-.26 3.19-.26Zm-10.22 2.88c1.76-1.08 3.69-1.86 5.69-2.34 1.1.78 4.4 3.35 7.6 8.07.24.35.48.73.73 1.12-.05.05-.09.09-.13.14-.21.25-.35.55-.43.85-4.01-.09-8.2.52-12.34 2.23a2.064 2.064 0 0 0-1.39-.87c-.57-5.25.39-9.12.4-9.17zm4.2 19.1a2.08 2.08 0 0 0-1.57.02c-.95-1.87-1.68-3.86-2.21-5.98.22-.12.42-.28.59-.49.4-.47.55-1.07.48-1.64 4.01-1.66 8.07-2.25 11.96-2.16.03.12.07.24.12.35a39.7 39.7 0 0 0-9.38 9.89Zm-11.5-11.14c1.5-3.01 3.67-5.47 6.25-7.27-.27 1.48-.67 4.64-.24 8.6-.35.12-.68.33-.93.64-.48.58-.61 1.33-.39 2-3.38 2-5.6 4.23-6.7 5.51-.13-3.27.56-6.52 2.03-9.47Zm-1.91 10.95c.52-.68 2.9-3.6 7.13-6.11.04.04.08.07.12.11.41.34.91.5 1.4.49.48 1.95 1.23 4.1 2.38 6.3-.75.9-.63 2.23.26 2.98-2.24 4.27-3.23 7.9-3.6 9.59-4.28-3.18-7.05-7.96-7.68-13.37Zm10.71 15.23c-.74-.37-1.44-.78-2.12-1.22.28-1.35 1.21-5.23 3.61-9.78.31.07.62.06.93-.01 2.93 4.11 7.44 8.16 14.37 11.29-5.17 2.35-11.31 2.44-16.78-.27Zm19.07-.95c-.36.23-.73.43-1.1.64-6.42-2.76-11.32-6.49-14.67-11.14a2.107 2.107 0 0 0 .23-2.99c2.08-3.14 5.03-6.62 9.17-9.68.53.41 1.19.54 1.8.39 2.64 5.36 4.87 12.89 4.57 22.79Zm7.11-7.85a19.44 19.44 0 0 1-6.07 7.15c.18-9.75-2.07-17.21-4.7-22.56a1.923 1.923 0 0 0 .54-.75c4.41.6 8.47 1.95 11.83 3.4.9 4.17.44 8.66-1.6 12.77Z" class="cls-86"/><path d="M60.64 157.03c-.82 0-1.61-.33-2.2-.91a3.1 3.1 0 0 1-.91-2.2c0-.37-.2-.71-.52-.9-.32-.18-.72-.18-1.04 0-.32.19-.52.53-.52.9 0 .82-.33 1.61-.91 2.2-.58.58-1.37.91-2.2.91-.37 0-.71.2-.9.52-.18.32-.18.72 0 1.04.19.32.53.52.9.52.82 0 1.61.33 2.2.91.58.58.91 1.37.91 2.2 0 .37.2.71.52.9.32.18.72.18 1.04 0 .32-.19.52-.53.52-.9 0-.82.33-1.61.91-2.2a3.1 3.1 0 0 1 2.2-.91c.37 0 .71-.2.9-.52.18-.32.18-.72 0-1.04a1.05 1.05 0 0 0-.9-.52m-4.14 2.1c-.3-.41-.66-.77-1.07-1.07.41-.3.77-.66 1.07-1.07.3.41.66.77 1.07 1.07-.41.3-.77.66-1.07 1.07" style="stroke-width:0;fill:url(#linear-gradient-53)"/><path d="M298.4 133.18c-.82 0-1.61-.33-2.2-.91a3.1 3.1 0 0 1-.91-2.2c0-.37-.2-.71-.52-.9-.32-.18-.72-.18-1.04 0-.32.19-.52.53-.52.9 0 .82-.33 1.61-.91 2.2-.58.58-1.37.91-2.2.91-.37 0-.71.2-.9.52-.18.32-.18.72 0 1.04.19.32.53.52.9.52.82 0 1.61.33 2.2.91.58.58.91 1.37.91 2.2 0 .37.2.71.52.9.32.18.72.18 1.04 0 .32-.19.52-.53.52-.9 0-.82.33-1.61.91-2.2a3.1 3.1 0 0 1 2.2-.91c.37 0 .71-.2.9-.52.18-.32.18-.72 0-1.04a1.05 1.05 0 0 0-.9-.52m-4.14 2.1c-.3-.41-.66-.77-1.07-1.07.41-.3.77-.66 1.07-1.07.3.41.66.77 1.07 1.07-.41.3-.77.66-1.07 1.07" style="stroke-width:0;fill:url(#linear-gradient-54)"/><path d="M120.6 271.17c-.82 0-1.61-.33-2.2-.91a3.1 3.1 0 0 1-.91-2.2c0-.37-.2-.71-.52-.9-.32-.18-.72-.18-1.04 0-.32.19-.52.53-.52.9 0 .82-.33 1.61-.91 2.2-.58.58-1.37.91-2.2.91-.37 0-.71.2-.9.52-.18.32-.18.72 0 1.04.19.32.53.52.9.52.82 0 1.61.33 2.2.91.58.58.91 1.37.91 2.2 0 .37.2.71.52.9.32.18.72.18 1.04 0 .32-.19.52-.53.52-.9 0-.82.33-1.61.91-2.2a3.1 3.1 0 0 1 2.2-.91c.37 0 .71-.2.9-.52.18-.32.18-.72 0-1.04a1.05 1.05 0 0 0-.9-.52m-4.14 2.1c-.3-.41-.66-.77-1.07-1.07.41-.3.77-.66 1.07-1.07.3.41.66.77 1.07 1.07-.41.3-.77.66-1.07 1.07" style="stroke-width:0;fill:url(#linear-gradient-55)"/><path d="M302.99 223.85c-.82 0-1.61-.33-2.2-.91a3.1 3.1 0 0 1-.91-2.2c0-.37-.2-.71-.52-.9-.32-.18-.72-.18-1.04 0-.32.19-.52.53-.52.9 0 .82-.33 1.61-.91 2.2-.58.58-1.37.91-2.2.91-.37 0-.71.2-.9.52-.18.32-.18.72 0 1.04.19.32.53.52.9.52.82 0 1.61.33 2.2.91.58.58.91 1.37.91 2.2 0 .37.2.71.52.9.32.18.72.18 1.04 0 .32-.19.52-.53.52-.9 0-.82.33-1.61.91-2.2a3.1 3.1 0 0 1 2.2-.91c.37 0 .71-.2.9-.52.18-.32.18-.72 0-1.04a1.05 1.05 0 0 0-.9-.52m-4.14 2.1c-.3-.41-.66-.77-1.07-1.07.41-.3.77-.66 1.07-1.07.3.41.66.77 1.07 1.07-.41.3-.77.66-1.07 1.07" style="stroke-width:0;fill:url(#linear-gradient-56)"/><path d="M128.99 44.77c-.82 0-1.61-.33-2.2-.91a3.1 3.1 0 0 1-.91-2.2c0-.37-.2-.71-.52-.9-.32-.18-.72-.18-1.04 0-.32.19-.52.53-.52.9 0 .82-.33 1.61-.91 2.2-.58.58-1.37.91-2.2.91-.37 0-.71.2-.9.52-.18.32-.18.72 0 1.04.19.32.53.52.9.52.82 0 1.61.33 2.2.91.58.58.91 1.37.91 2.2 0 .37.2.71.52.9.32.18.72.18 1.04 0 .32-.19.52-.53.52-.9 0-.82.33-1.61.91-2.2a3.1 3.1 0 0 1 2.2-.91c.37 0 .71-.2.9-.52.18-.32.18-.72 0-1.04a1.05 1.05 0 0 0-.9-.52m-4.14 2.1c-.3-.41-.66-.77-1.07-1.07.41-.3.77-.66 1.07-1.07.3.41.66.77 1.07 1.07-.41.3-.77.66-1.07 1.07" style="stroke-width:0;fill:url(#linear-gradient-57)"/><path d="M162.89 106.09c-.6 0-1.18-.24-1.6-.66s-.66-1-.66-1.6c0-.27-.14-.52-.38-.65a.77.77 0 0 0-.75 0c-.23.13-.38.38-.38.65 0 .6-.24 1.18-.66 1.6s-1 .66-1.6.66c-.27 0-.52.14-.65.38a.77.77 0 0 0 0 .75c.13.23.38.38.65.38.6 0 1.18.24 1.6.66s.66 1 .66 1.6c0 .27.14.52.38.65.23.13.52.13.75 0s.38-.38.38-.65c0-.6.24-1.18.66-1.6s1-.66 1.6-.66c.27 0 .52-.14.65-.38a.77.77 0 0 0 0-.75.75.75 0 0 0-.65-.38m-3.02 1.53q-.33-.45-.78-.78.45-.33.78-.78.33.45.78.78-.45.33-.78.78" style="stroke-width:0;fill:url(#linear-gradient-58)"/><path d="M209.15 75.21c-.51 0-1.01-.2-1.37-.57-.36-.36-.57-.86-.57-1.37a.65.65 0 0 0-.32-.56.63.63 0 0 0-.65 0 .65.65 0 0 0-.32.56c0 .51-.2 1.01-.57 1.37-.36.36-.86.57-1.37.57a.65.65 0 0 0-.56.32c-.12.2-.12.45 0 .65s.33.32.56.32c.51 0 1.01.2 1.37.57.36.36.57.86.57 1.37 0 .23.12.44.32.56s.45.12.65 0 .32-.33.32-.56c0-.51.2-1.01.57-1.37.36-.36.86-.57 1.37-.57.23 0 .44-.12.56-.32s.12-.45 0-.65a.65.65 0 0 0-.56-.32m-2.58 1.31c-.19-.25-.41-.48-.67-.67.25-.19.48-.41.67-.67.19.25.41.48.67.67-.25.19-.48.41-.67.67" style="stroke-width:0;fill:url(#linear-gradient-59)"/><path d="M203.97 111.22c-.51 0-1.01-.2-1.37-.57-.36-.36-.57-.86-.57-1.37a.65.65 0 0 0-.32-.56.63.63 0 0 0-.65 0 .65.65 0 0 0-.32.56c0 .51-.2 1.01-.57 1.37-.36.36-.86.57-1.37.57a.65.65 0 0 0-.56.32c-.12.2-.12.45 0 .65s.33.32.56.32c.51 0 1.01.2 1.37.57.36.36.57.86.57 1.37 0 .23.12.44.32.56s.45.12.65 0 .32-.33.32-.56c0-.51.2-1.01.57-1.37.36-.36.86-.57 1.37-.57.23 0 .44-.12.56-.32s.12-.45 0-.65a.65.65 0 0 0-.56-.32m-2.58 1.31c-.19-.25-.41-.48-.67-.67.25-.19.48-.41.67-.67.19.25.41.48.67.67-.25.19-.48.41-.67.67" style="stroke-width:0;fill:url(#linear-gradient-60)"/><path d="M257.93 94.25c-.51 0-1.01-.2-1.37-.57-.36-.36-.57-.86-.57-1.37a.65.65 0 0 0-.32-.56.63.63 0 0 0-.65 0 .65.65 0 0 0-.32.56c0 .51-.2 1.01-.57 1.37-.36.36-.86.57-1.37.57a.65.65 0 0 0-.56.32c-.12.2-.12.45 0 .65s.33.32.56.32c.51 0 1.01.2 1.37.57.36.36.57.86.57 1.37 0 .23.12.44.32.56s.45.12.65 0 .32-.33.32-.56c0-.51.2-1.01.57-1.37.36-.36.86-.57 1.37-.57.23 0 .44-.12.56-.32s.12-.45 0-.65a.65.65 0 0 0-.56-.32m-2.58 1.31c-.19-.25-.41-.48-.67-.67.25-.19.48-.41.67-.67.19.25.41.48.67.67-.25.19-.48.41-.67.67" style="stroke-width:0;fill:url(#linear-gradient-61)"/><path d="M51.76 241.54c-.51 0-1.01-.2-1.37-.57-.36-.36-.57-.86-.57-1.37a.65.65 0 0 0-.32-.56.63.63 0 0 0-.65 0 .65.65 0 0 0-.32.56c0 .51-.2 1.01-.57 1.37-.36.36-.86.57-1.37.57a.65.65 0 0 0-.56.32c-.12.2-.12.45 0 .65s.33.32.56.32c.51 0 1.01.2 1.37.57.36.36.57.86.57 1.37 0 .23.12.44.32.56s.45.12.65 0 .32-.33.32-.56c0-.51.2-1.01.57-1.37.36-.36.86-.57 1.37-.57.23 0 .44-.12.56-.32s.12-.45 0-.65a.65.65 0 0 0-.56-.32m-2.58 1.31c-.19-.25-.41-.48-.67-.67.25-.19.48-.41.67-.67.19.25.41.48.67.67-.25.19-.48.41-.67.67" style="stroke-width:0;fill:url(#linear-gradient-62)"/><path d="M102.55 289.26c-.51 0-1.01-.2-1.37-.57-.36-.36-.57-.86-.57-1.37a.65.65 0 0 0-.32-.56.63.63 0 0 0-.65 0 .65.65 0 0 0-.32.56c0 .51-.2 1.01-.57 1.37-.36.36-.86.57-1.37.57a.65.65 0 0 0-.56.32c-.12.2-.12.45 0 .65s.33.32.56.32c.51 0 1.01.2 1.37.57.36.36.57.86.57 1.37 0 .23.12.44.32.56s.45.12.65 0 .32-.33.32-.56c0-.51.2-1.01.57-1.37.36-.36.86-.57 1.37-.57.23 0 .44-.12.56-.32s.12-.45 0-.65a.65.65 0 0 0-.56-.32m-2.58 1.31c-.19-.25-.41-.48-.67-.67.25-.19.48-.41.67-.67.19.25.41.48.67.67-.25.19-.48.41-.67.67" style="stroke-width:0;fill:url(#linear-gradient-63)"/><path d="M317.06 202.07c-.51 0-1.01-.2-1.37-.57-.36-.36-.57-.86-.57-1.37a.65.65 0 0 0-.32-.56.63.63 0 0 0-.65 0 .65.65 0 0 0-.32.56c0 .51-.2 1.01-.57 1.37-.36.36-.86.57-1.37.57a.65.65 0 0 0-.56.32c-.12.2-.12.45 0 .65s.33.32.56.32c.51 0 1.01.2 1.37.57.36.36.57.86.57 1.37 0 .23.12.44.32.56s.45.12.65 0 .32-.33.32-.56c0-.51.2-1.01.57-1.37.36-.36.86-.57 1.37-.57.23 0 .44-.12.56-.32s.12-.45 0-.65a.65.65 0 0 0-.56-.32m-2.58 1.31c-.19-.25-.41-.48-.67-.67.25-.19.48-.41.67-.67.19.25.41.48.67.67-.25.19-.48.41-.67.67" style="stroke-width:0;fill:url(#linear-gradient-64)"/><path d="M286.1 186.37c-.51 0-1.01-.2-1.37-.57-.36-.36-.57-.86-.57-1.37a.65.65 0 0 0-.32-.56.63.63 0 0 0-.65 0 .65.65 0 0 0-.32.56c0 .51-.2 1.01-.57 1.37-.36.36-.86.57-1.37.57a.65.65 0 0 0-.56.32c-.12.2-.12.45 0 .65s.33.32.56.32c.51 0 1.01.2 1.37.57.36.36.57.86.57 1.37 0 .23.12.44.32.56s.45.12.65 0 .32-.33.32-.56c0-.51.2-1.01.57-1.37.36-.36.86-.57 1.37-.57.23 0 .44-.12.56-.32s.12-.45 0-.65a.65.65 0 0 0-.56-.32m-2.58 1.31c-.19-.25-.41-.48-.67-.67.25-.19.48-.41.67-.67.19.25.41.48.67.67-.25.19-.48.41-.67.67" style="stroke-width:0;fill:url(#linear-gradient-65)"/><path d="M179.78 150.02c-.51 0-1.01-.2-1.37-.57-.36-.36-.57-.86-.57-1.37a.65.65 0 0 0-.32-.56.63.63 0 0 0-.65 0 .65.65 0 0 0-.32.56c0 .51-.2 1.01-.57 1.37-.36.36-.86.57-1.37.57a.65.65 0 0 0-.56.32c-.12.2-.12.45 0 .65s.33.32.56.32c.51 0 1.01.2 1.37.57.36.36.57.86.57 1.37 0 .23.12.44.32.56s.45.12.65 0 .32-.33.32-.56c0-.51.2-1.01.57-1.37.36-.36.86-.57 1.37-.57.23 0 .44-.12.56-.32s.12-.45 0-.65a.65.65 0 0 0-.56-.32m-2.58 1.31c-.19-.25-.41-.48-.67-.67.25-.19.48-.41.67-.67.19.25.41.48.67.67-.25.19-.48.41-.67.67" style="stroke-width:0;fill:url(#linear-gradient-66)"/><path d="M160.28 210.53c-.51 0-1.01-.2-1.37-.57-.36-.36-.57-.86-.57-1.37a.65.65 0 0 0-.32-.56.63.63 0 0 0-.65 0 .65.65 0 0 0-.32.56c0 .51-.2 1.01-.57 1.37-.36.36-.86.57-1.37.57a.65.65 0 0 0-.56.32c-.12.2-.12.45 0 .65s.33.32.56.32c.51 0 1.01.2 1.37.57.36.36.57.86.57 1.37 0 .23.12.44.32.56s.45.12.65 0 .32-.33.32-.56c0-.51.2-1.01.57-1.37.36-.36.86-.57 1.37-.57.23 0 .44-.12.56-.32s.12-.45 0-.65a.65.65 0 0 0-.56-.32m-2.58 1.31c-.19-.25-.41-.48-.67-.67.25-.19.48-.41.67-.67.19.25.41.48.67.67-.25.19-.48.41-.67.67" style="stroke-width:0;fill:url(#linear-gradient-67)"/><path d="M97.37 228.75c-.51 0-1.01-.2-1.37-.57-.36-.36-.57-.86-.57-1.37a.65.65 0 0 0-.32-.56.63.63 0 0 0-.65 0 .65.65 0 0 0-.32.56c0 .51-.2 1.01-.57 1.37-.36.36-.86.57-1.37.57a.65.65 0 0 0-.56.32c-.12.2-.12.45 0 .65s.33.32.56.32c.51 0 1.01.2 1.37.57.36.36.57.86.57 1.37 0 .23.12.44.32.56s.45.12.65 0 .32-.33.32-.56c0-.51.2-1.01.57-1.37.36-.36.86-.57 1.37-.57.23 0 .44-.12.56-.32s.12-.45 0-.65a.65.65 0 0 0-.56-.32m-2.58 1.31c-.19-.25-.41-.48-.67-.67.25-.19.48-.41.67-.67.19.25.41.48.67.67-.25.19-.48.41-.67.67" style="stroke-width:0;fill:url(#linear-gradient-68)"/><path d="M275.51 251.02c-.51 0-1.01-.2-1.37-.57-.36-.36-.57-.86-.57-1.37a.65.65 0 0 0-.32-.56.63.63 0 0 0-.65 0 .65.65 0 0 0-.32.56c0 .51-.2 1.01-.57 1.37-.36.36-.86.57-1.37.57a.65.65 0 0 0-.56.32c-.12.2-.12.45 0 .65s.33.32.56.32c.51 0 1.01.2 1.37.57.36.36.57.86.57 1.37 0 .23.12.44.32.56s.45.12.65 0 .32-.33.32-.56c0-.51.2-1.01.57-1.37.36-.36.86-.57 1.37-.57.23 0 .44-.12.56-.32s.12-.45 0-.65a.65.65 0 0 0-.56-.32m-2.58 1.31c-.19-.25-.41-.48-.67-.67.25-.19.48-.41.67-.67.19.25.41.48.67.67-.25.19-.48.41-.67.67" style="stroke-width:0;fill:url(#linear-gradient-69)"/><path d="M186.84 223.58c-.51 0-1.01-.2-1.37-.57-.36-.36-.57-.86-.57-1.37a.65.65 0 0 0-.32-.56.63.63 0 0 0-.65 0 .65.65 0 0 0-.32.56c0 .51-.2 1.01-.57 1.37-.36.36-.86.57-1.37.57a.65.65 0 0 0-.56.32c-.12.2-.12.45 0 .65s.33.32.56.32c.51 0 1.01.2 1.37.57.36.36.57.86.57 1.37 0 .23.12.44.32.56s.45.12.65 0 .32-.33.32-.56c0-.51.2-1.01.57-1.37.36-.36.86-.57 1.37-.57.23 0 .44-.12.56-.32s.12-.45 0-.65a.65.65 0 0 0-.56-.32m-2.58 1.31c-.19-.25-.41-.48-.67-.67.25-.19.48-.41.67-.67.19.25.41.48.67.67-.25.19-.48.41-.67.67" style="stroke-width:0;fill:url(#linear-gradient-70)"/><path d="M79.46 190.34c-.51 0-1.01-.2-1.37-.57-.36-.36-.57-.86-.57-1.37a.65.65 0 0 0-.32-.56.63.63 0 0 0-.65 0 .65.65 0 0 0-.32.56c0 .51-.2 1.01-.57 1.37-.36.36-.86.57-1.37.57a.65.65 0 0 0-.56.32c-.12.2-.12.45 0 .65s.33.32.56.32c.51 0 1.01.2 1.37.57.36.36.57.86.57 1.37 0 .23.12.44.32.56s.45.12.65 0 .32-.33.32-.56c0-.51.2-1.01.57-1.37.36-.36.86-.57 1.37-.57.23 0 .44-.12.56-.32s.12-.45 0-.65a.65.65 0 0 0-.56-.32m-2.58 1.31c-.19-.25-.41-.48-.67-.67.25-.19.48-.41.67-.67.19.25.41.48.67.67-.25.19-.48.41-.67.67" style="stroke-width:0;fill:url(#linear-gradient-71)"/><path d="M74.94 128.79c-.51 0-1.01-.2-1.37-.57-.36-.36-.57-.86-.57-1.37a.65.65 0 0 0-.32-.56.63.63 0 0 0-.65 0 .65.65 0 0 0-.32.56c0 .51-.2 1.01-.57 1.37-.36.36-.86.57-1.37.57a.65.65 0 0 0-.56.32c-.12.2-.12.45 0 .65s.33.32.56.32c.51 0 1.01.2 1.37.57.36.36.57.86.57 1.37 0 .23.12.44.32.56s.45.12.65 0 .32-.33.32-.56c0-.51.2-1.01.57-1.37.36-.36.86-.57 1.37-.57.23 0 .44-.12.56-.32s.12-.45 0-.65a.65.65 0 0 0-.56-.32m-2.58 1.31c-.19-.25-.41-.48-.67-.67.25-.19.48-.41.67-.67.19.25.41.48.67.67-.25.19-.48.41-.67.67" style="stroke-width:0;fill:url(#linear-gradient-72)"/><path d="M210.71 39.39c-.82 0-1.61-.33-2.2-.91a3.1 3.1 0 0 1-.91-2.2c0-.37-.2-.71-.52-.9-.32-.18-.72-.18-1.04 0-.32.19-.52.53-.52.9 0 .82-.33 1.61-.91 2.2-.58.58-1.37.91-2.2.91-.37 0-.71.2-.9.52-.18.32-.18.72 0 1.04.19.32.53.52.9.52.82 0 1.61.33 2.2.91.58.58.91 1.37.91 2.2 0 .37.2.71.52.9.32.18.72.18 1.04 0 .32-.19.52-.53.52-.9 0-.82.33-1.61.91-2.2a3.1 3.1 0 0 1 2.2-.91c.37 0 .71-.2.9-.52.18-.32.18-.72 0-1.04a1.05 1.05 0 0 0-.9-.52m-4.14 2.1c-.3-.41-.66-.77-1.07-1.07.41-.3.77-.66 1.07-1.07.3.41.66.77 1.07 1.07-.41.3-.77.66-1.07 1.07" style="stroke-width:0;fill:url(#linear-gradient-73)"/><path d="M78.9 222.52c-.82 0-1.61-.33-2.2-.91a3.1 3.1 0 0 1-.91-2.2c0-.37-.2-.71-.52-.9-.32-.18-.72-.18-1.04 0-.32.19-.52.53-.52.9 0 .82-.33 1.61-.91 2.2-.58.58-1.37.91-2.2.91-.37 0-.71.2-.9.52-.18.32-.18.72 0 1.04.19.32.53.52.9.52.82 0 1.61.33 2.2.91.58.58.91 1.37.91 2.2 0 .37.2.71.52.9.32.18.72.18 1.04 0 .32-.19.52-.53.52-.9 0-.82.33-1.61.91-2.2a3.1 3.1 0 0 1 2.2-.91c.37 0 .71-.2.9-.52.18-.32.18-.72 0-1.04a1.05 1.05 0 0 0-.9-.52m-4.14 2.1c-.3-.41-.66-.77-1.07-1.07.41-.3.77-.66 1.07-1.07.3.41.66.77 1.07 1.07-.41.3-.77.66-1.07 1.07" style="stroke-width:0;fill:url(#linear-gradient-74)"/><path d="M194.23 278.52c-.82 0-1.61-.33-2.2-.91a3.1 3.1 0 0 1-.91-2.2c0-.37-.2-.71-.52-.9-.32-.18-.72-.18-1.04 0-.32.19-.52.53-.52.9 0 .82-.33 1.61-.91 2.2-.58.58-1.37.91-2.2.91-.37 0-.71.2-.9.52-.18.32-.18.72 0 1.04.19.32.53.52.9.52.82 0 1.61.33 2.2.91.58.58.91 1.37.91 2.2 0 .37.2.71.52.9.32.18.72.18 1.04 0 .32-.19.52-.53.52-.9 0-.82.33-1.61.91-2.2a3.1 3.1 0 0 1 2.2-.91c.37 0 .71-.2.9-.52.18-.32.18-.72 0-1.04a1.05 1.05 0 0 0-.9-.52m-4.14 2.1c-.3-.41-.66-.77-1.07-1.07.41-.3.77-.66 1.07-1.07.3.41.66.77 1.07 1.07-.41.3-.77.66-1.07 1.07" style="stroke-width:0;fill:url(#linear-gradient-75)"/><path d="M97.87 69.84c-.82 0-1.61-.33-2.2-.91a3.1 3.1 0 0 1-.91-2.2c0-.37-.2-.71-.52-.9-.32-.18-.72-.18-1.04 0-.32.19-.52.53-.52.9 0 .82-.33 1.61-.91 2.2-.58.58-1.37.91-2.2.91-.37 0-.71.2-.9.52-.18.32-.18.72 0 1.04.19.32.53.52.9.52.82 0 1.61.33 2.2.91.58.58.91 1.37.91 2.2 0 .37.2.71.52.9.32.18.72.18 1.04 0 .32-.19.52-.53.52-.9 0-.82.33-1.61.91-2.2a3.1 3.1 0 0 1 2.2-.91c.37 0 .71-.2.9-.52.18-.32.18-.72 0-1.04a1.05 1.05 0 0 0-.9-.52m-4.14 2.1c-.3-.41-.66-.77-1.07-1.07.41-.3.77-.66 1.07-1.07.3.41.66.77 1.07 1.07-.41.3-.77.66-1.07 1.07" style="stroke-width:0;fill:url(#linear-gradient-76)"/><path d="M308.17 253.65c-.82 0-1.61-.33-2.2-.91a3.1 3.1 0 0 1-.91-2.2c0-.37-.2-.71-.52-.9-.32-.18-.72-.18-1.04 0-.32.19-.52.53-.52.9 0 .82-.33 1.61-.91 2.2-.58.58-1.37.91-2.2.91-.37 0-.71.2-.9.52-.18.32-.18.72 0 1.04.19.32.53.52.9.52.82 0 1.61.33 2.2.91.58.58.91 1.37.91 2.2 0 .37.2.71.52.9.32.18.72.18 1.04 0 .32-.19.52-.53.52-.9 0-.82.33-1.61.91-2.2a3.1 3.1 0 0 1 2.2-.91c.37 0 .71-.2.9-.52.18-.32.18-.72 0-1.04a1.05 1.05 0 0 0-.9-.52m-4.14 2.1c-.3-.41-.66-.77-1.07-1.07.41-.3.77-.66 1.07-1.07.3.41.66.77 1.07 1.07-.41.3-.77.66-1.07 1.07" style="stroke-width:0;fill:url(#linear-gradient-77)"/><path d="M177.84 248.47c-.82 0-1.61-.33-2.2-.91a3.1 3.1 0 0 1-.91-2.2c0-.37-.2-.71-.52-.9-.32-.18-.72-.18-1.04 0-.32.19-.52.53-.52.9 0 .82-.33 1.61-.91 2.2-.58.58-1.37.91-2.2.91-.37 0-.71.2-.9.52-.18.32-.18.72 0 1.04.19.32.53.52.9.52.82 0 1.61.33 2.2.91.58.58.91 1.37.91 2.2 0 .37.2.71.52.9.32.18.72.18 1.04 0 .32-.19.52-.53.52-.9 0-.82.33-1.61.91-2.2a3.1 3.1 0 0 1 2.2-.91c.37 0 .71-.2.9-.52.18-.32.18-.72 0-1.04a1.05 1.05 0 0 0-.9-.52m-4.14 2.1c-.3-.41-.66-.77-1.07-1.07.41-.3.77-.66 1.07-1.07.3.41.66.77 1.07 1.07-.41.3-.77.66-1.07 1.07" style="stroke-width:0;fill:url(#linear-gradient-78)"/><path d="M278.14 283.69c-.82 0-1.61-.33-2.2-.91a3.1 3.1 0 0 1-.91-2.2c0-.37-.2-.71-.52-.9-.32-.18-.72-.18-1.04 0-.32.19-.52.53-.52.9 0 .82-.33 1.61-.91 2.2-.58.58-1.37.91-2.2.91-.37 0-.71.2-.9.52-.18.32-.18.72 0 1.04.19.32.53.52.9.52.82 0 1.61.33 2.2.91.58.58.91 1.37.91 2.2 0 .37.2.71.52.9.32.18.72.18 1.04 0 .32-.19.52-.53.52-.9 0-.82.33-1.61.91-2.2a3.1 3.1 0 0 1 2.2-.91c.37 0 .71-.2.9-.52.18-.32.18-.72 0-1.04a1.05 1.05 0 0 0-.9-.52m-4.14 2.1c-.3-.41-.66-.77-1.07-1.07.41-.3.77-.66 1.07-1.07.3.41.66.77 1.07 1.07-.41.3-.77.66-1.07 1.07" style="stroke-width:0;fill:url(#linear-gradient-79)"/><path d="M247.51 61.27c-.82 0-1.61-.33-2.2-.91a3.1 3.1 0 0 1-.91-2.2c0-.37-.2-.71-.52-.9-.32-.18-.72-.18-1.04 0-.32.19-.52.53-.52.9 0 .82-.33 1.61-.91 2.2-.58.58-1.37.91-2.2.91-.37 0-.71.2-.9.52-.18.32-.18.72 0 1.04.19.32.53.52.9.52.82 0 1.61.33 2.2.91.58.58.91 1.37.91 2.2 0 .37.2.71.52.9.32.18.72.18 1.04 0 .32-.19.52-.53.52-.9 0-.82.33-1.61.91-2.2a3.1 3.1 0 0 1 2.2-.91c.37 0 .71-.2.9-.52.18-.32.18-.72 0-1.04a1.05 1.05 0 0 0-.9-.52m-4.14 2.1c-.3-.41-.66-.77-1.07-1.07.41-.3.77-.66 1.07-1.07.3.41.66.77 1.07 1.07-.41.3-.77.66-1.07 1.07" style="stroke-width:0;fill:url(#linear-gradient-80)"/></svg>