<svg xmlns="http://www.w3.org/2000/svg" id="Layer_2" data-name="Layer 2" viewBox="0 0 1441 811"><defs><linearGradient id="linear-gradient" x1="10156.91" x2="11626.91" y1="-3028.2" y2="-3028.2" gradientTransform="translate(-10173.79 3435.62)" gradientUnits="userSpaceOnUse"><stop offset="0" stop-color="#6500d5"/><stop offset="1" stop-color="#b171ff"/></linearGradient><style>.cls-3{stroke-width:0;fill:#fff}</style></defs><path d="M1453.12-14.08h-1470v843h1470z" style="fill:url(#linear-gradient);stroke-width:0"/><g style="opacity:.07"><path d="M1309.73 572.33c40.27-43.21 81.02-85.97 121.62-128.87 25.62-27.07 51.24-54.15 76.5-81.57 11.81-12.82 23.54-25.7 35.52-38.35 10.54-11.13 24.35-22.36 25.48-38.74.65-9.49-7.08-17.45-12.67-24.22-8.22-9.95-19.28-18.35-28.89-27.07-40.42-36.68-80.13-73.77-119.89-111.16-4.95-4.65-9.9-9.3-14.86-13.93-10.98-10.26-21.96-20.51-32.94-30.77-128.75-118.04-255.72-237.97-384.22-356.28-45.46-41.86-90.93-83.72-136.39-125.59-3.56-3.27-7.11-6.55-10.67-9.82l-.27-.25c-10.1-9.26-23.96-14.43-37.57-13.84s-25.42 6.35-34.18 15.9L87.62 317.13l-54.61-50.07c-15.02-13.77-38.57-12.75-52.34 2.27l-37.3 40.69c-46.5 40.3-46.66 115.03-.24 175.68 1.39 1.78 3.85 4.03 5.48 5.53l671.46 615.61c1.64 1.5 3 2.75 4.89 3.98 2.18 2 3.85 4.03 6.03 6.03l2.73 2.5c25.94 23.78 60.33 36.71 94.64 36.01 32.2-1.14 61.26-14.2 82.04-36.86 79.74-86.97 159.42-174 239.01-261.11 78.83-86.27 156.97-173.17 236.2-259.07 8.01-8.69 16.05-17.35 24.11-26Zm-579.79 504.95c-19.73 3.81-41.3-4.39-53.51-20.36-12.21-15.96-14.48-38.93-5.63-56.97 15.36-31.33 60.61-50.52 54.99-84.96-2.37-14.54-13.86-25.62-24.72-35.57C514.84 708.7 328.62 537.98 142.4 367.26l652.07-711.68 679.55 625.85c-1.38 1.5-2.76 3-4.12 4.5-228.06 250.54-456.13 501.07-684.19 751.6-15.65 17.19-32.94 35.34-55.76 39.75Z" class="cls-3"/><path d="m779.41-53.8 217.9 199.78c15.02 13.77 38.57 12.75 52.34-2.27s12.75-38.57-2.27-52.34l-217.9-199.78c-15.02-13.77-38.57-12.75-52.34 2.27s-12.75 38.57 2.27 52.34M1038.8 485.56 629.2 110.04c-15.02-13.77-38.57-12.75-52.34 2.27s-12.75 38.57 2.27 52.34l409.59 375.52c15.02 13.77 38.57 12.75 52.34-2.27s12.75-38.57-2.27-52.34ZM938.66 594.79 529.07 219.27c-15.02-13.77-38.57-12.75-52.34 2.27s-12.75 38.57 2.27 52.34L888.59 649.4c15.02 13.77 38.57 12.75 52.34-2.27s12.75-38.57-2.27-52.34M838.52 704.01 428.93 328.49c-15.02-13.77-38.57-12.75-52.34 2.27s-12.75 38.57 2.27 52.34l409.59 375.52c15.02 13.77 38.57 12.75 52.34-2.27s12.75-38.57-2.27-52.34M674.86 51.37l228.41 209.41c12.59 11.54 34.15 8.69 47.92-6.32 13.77-15.02 14.74-36.75 2.15-48.29L724.93-3.24c-12.59-11.54-34.15-8.69-47.92 6.32-13.77 15.02-14.74 36.75-2.15 48.29" class="cls-3"/><rect width="214.3" height="220.26" x="1003.93" y="190.31" class="cls-3" rx="4.82" ry="4.82" transform="rotate(42.6 1111.144 300.477)"/></g><path d="M338.54 494v-75.1h21.27l22.8 64.36h1.64V418.9h12.17V494h-20.83l-23.35-64.47h-1.53V494zM450.69 484.14l3.07-.33.22 8.88c-8.33 1.68-15.71 2.52-22.15 2.52q-12.165 0-17.49-6.69c-3.55-4.46-5.32-11.58-5.32-21.38q0-29.16 23.79-29.16c23.79 0 23.02 8.37 23.02 25.11l-.77 8.55h-33.99c.07 4.53 1.06 7.86 2.96 9.98s5.44 3.18 10.63 3.18 10.53-.22 16.01-.66Zm-6.58-21.71c0-5.41-.86-9.19-2.58-11.35s-4.62-3.23-8.72-3.23-7.07 1.13-8.94 3.4c-1.86 2.27-2.83 5.99-2.91 11.18h23.13ZM463.08 439.19h11.73l8.66 44.62h2.19l10.42-43.53h12.28l10.42 43.53h2.19l8.55-44.62h11.84l-11.62 54.82h-18.97l-8.55-37.61-8.55 37.61H474.7zM589.6 450.48c-8.62-1.17-14.87-1.75-18.75-1.75s-6.56.46-8.06 1.37c-1.5.92-2.25 2.36-2.25 4.33s.82 3.36 2.47 4.17c1.64.8 5.52 1.74 11.62 2.8s10.43 2.72 12.99 4.99q3.84 3.405 3.84 12.06c0 8.655-1.85 10.01-5.54 12.72s-9.08 4.06-16.17 4.06c-4.46 0-10.09-.62-16.88-1.86l-3.4-.55.44-9.98c8.77 1.17 15.09 1.75 18.97 1.75s6.63-.47 8.28-1.43c1.64-.95 2.47-2.52 2.47-4.71s-.79-3.71-2.36-4.55-5.34-1.75-11.29-2.74c-5.96-.99-10.33-2.54-13.1-4.66-2.78-2.12-4.17-5.99-4.17-11.62s1.92-9.83 5.76-12.61 8.75-4.17 14.75-4.17c4.68 0 10.42.59 17.21 1.75l3.4.66-.22 9.98ZM640.14 469.99c0 9.72 5.12 14.58 15.35 14.58s15.35-4.86 15.35-14.58V418.9h12.28v50.87q0 13.26-6.96 19.35c-4.64 4.06-11.55 6.08-20.72 6.08s-16.06-2.03-20.67-6.08-6.91-10.51-6.91-19.35V418.9h12.28zM697.92 517.58v-78.39h11.84v3.4c5.04-3.07 9.76-4.6 14.14-4.6 7.24 0 12.53 2.21 15.9 6.63q5.04 6.63 5.04 22.26c0 15.63-1.92 17.74-5.75 21.98-3.84 4.24-10.11 6.36-18.8 6.36-3 0-6.47-.33-10.42-.99v23.35zm23.9-68.96c-3.44 0-6.87.77-10.31 2.3l-1.64.77v32.34c2.92.58 6.14.88 9.65.88 4.97 0 8.4-1.43 10.31-4.28q2.85-4.275 2.85-14.58c0-11.62-3.62-17.43-10.85-17.43ZM801.52 416.38V494h-11.84v-2.85c-5.34 2.71-10.23 4.06-14.69 4.06-7.16 0-12.41-2.16-15.73-6.47-3.33-4.31-4.99-11.55-4.99-21.71s1.85-17.54 5.54-22.15c3.69-4.6 9.45-6.91 17.27-6.91 2.63 0 6.8.48 12.5 1.42v-23.02h11.95Zm-13.81 66.22 1.86-.77v-32.45c-4.38-.73-8.44-1.1-12.17-1.1q-11.07 0-11.07 18.42 0 10.095 2.58 13.98c1.72 2.6 4.44 3.89 8.17 3.89s7.27-.66 10.63-1.97M856.56 456.07v25c.07 1.61.49 2.8 1.26 3.56s1.96 1.26 3.56 1.48l-.33 9.1c-6.29 0-11.15-1.35-14.58-4.06-5.85 2.71-11.73 4.06-17.65 4.06-10.89 0-16.34-5.81-16.34-17.43q0-8.325 4.44-12.06 4.44-3.72 13.65-4.5l14.14-1.21v-3.95c0-2.92-.64-4.97-1.92-6.14s-3.16-1.75-5.65-1.75c-4.68 0-10.53.29-17.54.88l-3.51.22-.44-8.44c7.97-1.9 15.29-2.85 21.98-2.85s11.51 1.44 14.47 4.33 4.44 7.47 4.44 13.76ZM832 469.66q-7.56.66-7.56 8.22c0 7.56 2.23 7.56 6.69 7.56 3.65 0 7.53-.58 11.62-1.75l1.97-.66v-14.58zM901.07 449.38h-15.13v24.12q0 6.69.99 8.88t5.04 2.19l8.99-.33.55 9.54c-4.9.95-8.62 1.43-11.18 1.43-6.21 0-10.47-1.43-12.77-4.28s-3.45-8.22-3.45-16.12v-25.44h-7.02v-10.2h7.02v-15.9h11.84v15.9h15.13v10.2ZM949.85 484.14l3.07-.33.22 8.88c-8.33 1.68-15.71 2.52-22.15 2.52q-12.165 0-17.49-6.69c-3.55-4.46-5.32-11.58-5.32-21.38q0-29.16 23.79-29.16c23.79 0 23.02 8.37 23.02 25.11l-.77 8.55h-33.99c.07 4.53 1.06 7.86 2.96 9.98s5.44 3.18 10.63 3.18 10.53-.22 16.01-.66Zm-6.58-21.71c0-5.41-.86-9.19-2.58-11.35s-4.62-3.23-8.72-3.23-7.07 1.13-8.94 3.4c-1.86 2.27-2.83 5.99-2.91 11.18h23.13ZM1004.56 450.48c-8.62-1.17-14.87-1.75-18.75-1.75s-6.56.46-8.06 1.37c-1.5.92-2.25 2.36-2.25 4.33s.82 3.36 2.47 4.17c1.64.8 5.52 1.74 11.62 2.8s10.43 2.72 12.99 4.99q3.84 3.405 3.84 12.06c0 8.655-1.85 10.01-5.54 12.72s-9.08 4.06-16.17 4.06c-4.46 0-10.09-.62-16.88-1.86l-3.4-.55.44-9.98c8.77 1.17 15.09 1.75 18.97 1.75s6.63-.47 8.28-1.43c1.64-.95 2.47-2.52 2.47-4.71s-.79-3.71-2.36-4.55-5.34-1.75-11.29-2.74c-5.96-.99-10.33-2.54-13.1-4.66-2.78-2.12-4.17-5.99-4.17-11.62s1.92-9.83 5.76-12.61 8.75-4.17 14.75-4.17c4.68 0 10.42.59 17.21 1.75l3.4.66-.22 9.98ZM1053.95 420.88c3.76-2.92 8.97-4.38 15.62-4.38s11.77 1.48 15.35 4.44 5.37 7.05 5.37 12.28-1.17 9.34-3.51 12.33c-2.34 3-6.47 6.21-12.39 9.65l13.38 13.27c.51-1.39 1.02-3.78 1.53-7.18s.84-6.23.99-8.5l11.51.22c-1.02 8.92-2.81 16.41-5.37 22.48l13.05 11.95-6.8 7.78-12.39-10.74c-2.41 3.36-5.63 5.99-9.65 7.89s-8.44 2.85-13.27 2.85c-10.31 0-17.62-1.94-21.93-5.81s-6.47-9.61-6.47-17.21c0-6.07 1.28-10.76 3.84-14.09s6.69-6.05 12.39-8.17c-2.85-3.29-4.71-6.07-5.59-8.33s-1.32-5.19-1.32-8.77c0-5.04 1.88-9.03 5.65-11.95Zm12.12 63.7c3.51 0 6.72-.6 9.65-1.81 2.92-1.21 5.08-2.87 6.47-4.99l-20.72-20.72c-3.66 1.39-6.3 3.18-7.95 5.37s-2.47 5.12-2.47 8.77c0 8.92 5.01 13.38 15.02 13.38m-5.7-49.34c0 3.58 1.64 7.13 4.93 10.63l2.41 2.52c3.87-2.19 6.59-4.24 8.17-6.14 1.57-1.9 2.36-4.35 2.36-7.35 0-5.55-2.98-8.33-8.93-8.33s-8.94 2.89-8.94 8.66ZM442.31 597.12v-10.75h21.38v38.15c-1.97.51-5.97 1.06-12 1.64s-10.4.88-13.1.88c-11.4 0-19.26-3.14-23.57-9.43s-6.47-16.13-6.47-29.55 2.21-23.19 6.63-29.33 12.08-9.21 22.97-9.21c6.43 0 13.67.73 21.71 2.19l3.84.77-.44 9.65c-8.84-1.17-16.77-1.75-23.79-1.75s-11.82 1.97-14.42 5.92c-2.59 3.95-3.89 11.26-3.89 21.93s1.22 18.04 3.67 22.09c2.45 4.06 7.4 6.08 14.86 6.08 5.33 0 9.32-.33 11.95-.99V597.1h-9.32ZM478.16 625.84v-77.62h11.95v77.62zM508.25 576.95c3.76-4.75 10.03-7.13 18.8-7.13s15.04 2.38 18.8 7.13 5.65 11.88 5.65 21.38-1.83 16.67-5.48 21.49c-3.66 4.82-9.98 7.24-18.97 7.24s-15.31-2.41-18.97-7.24c-3.66-4.82-5.48-11.99-5.48-21.49s1.88-16.63 5.65-21.38m8.94 35.63c1.68 2.92 4.97 4.39 9.87 4.39s8.18-1.46 9.87-4.39c1.68-2.92 2.52-7.71 2.52-14.36s-.9-11.36-2.69-14.14-5.03-4.17-9.7-4.17-7.91 1.39-9.7 4.17-2.69 7.49-2.69 14.14.84 11.44 2.52 14.36M588.89 569.82c7.53 0 12.95 2.1 16.28 6.3s4.99 11.64 4.99 22.31-1.97 18.11-5.92 22.31-10.89 6.3-20.83 6.3c-3.44 0-8.88-.33-16.33-.99l-3.73-.33v-77.51h11.84v24.89c5.04-2.19 9.61-3.29 13.71-3.29Zm-5.48 46.59c5.85 0 9.74-1.37 11.68-4.11q2.91-4.11 2.91-13.98c0-9.87-.82-11.2-2.47-13.87-1.64-2.67-4.33-4-8.06-4-3.51 0-7.02.55-10.52 1.64l-1.75.55v33.33c4.02.29 6.76.44 8.22.44ZM662.67 587.91v25c.07 1.61.49 2.8 1.26 3.56.77.77 1.96 1.26 3.56 1.48l-.33 9.1c-6.29 0-11.15-1.35-14.58-4.06-5.85 2.71-11.73 4.06-17.65 4.06-10.89 0-16.34-5.81-16.34-17.43q0-8.325 4.44-12.06 4.44-3.72 13.65-4.5l14.14-1.21v-3.95c0-2.92-.64-4.97-1.92-6.14s-3.16-1.75-5.65-1.75c-4.68 0-10.53.29-17.54.88l-3.51.22-.44-8.44c7.97-1.9 15.29-2.85 21.98-2.85s11.51 1.44 14.47 4.33 4.44 7.47 4.44 13.76Zm-24.56 13.59q-7.56.66-7.56 8.22c0 7.56 2.23 7.56 6.69 7.56 3.65 0 7.53-.58 11.62-1.75l1.97-.66v-14.58zM678.35 625.84v-77.62h11.95v77.62zM723.73 561.6v-10.85h54.82v10.85h-21.16v64.25h-12.28V561.6zM779.87 625.84v-54.82h11.84v6.58c6.21-4.02 12.42-6.61 18.64-7.78v11.95c-6.29 1.24-11.66 2.85-16.12 4.82l-2.41.99v38.26zM858.03 615.98l3.07-.33.22 8.88c-8.33 1.68-15.71 2.52-22.15 2.52q-12.165 0-17.49-6.69c-3.55-4.46-5.32-11.58-5.32-21.38q0-29.16 23.79-29.16c23.79 0 23.02 8.37 23.02 25.11l-.77 8.55h-33.99c.07 4.53 1.06 7.86 2.96 9.98s5.44 3.18 10.63 3.18 10.53-.22 16.01-.66Zm-6.58-21.71c0-5.41-.86-9.19-2.58-11.35s-4.62-3.23-8.72-3.23-7.07 1.13-8.94 3.4c-1.86 2.27-2.83 5.99-2.91 11.18h23.13ZM886.65 625.84H874.7v-54.82h11.84v3.4c5.33-3.07 10.38-4.6 15.13-4.6 7.31 0 12.3 2.07 14.96 6.19 2.67 4.13 4 10.95 4 20.45v29.38h-11.84v-29.05c0-5.92-.64-10.12-1.92-12.61-1.28-2.48-3.89-3.73-7.84-3.73q-5.595 0-10.74 2.19l-1.64.66zM979.29 548.22v77.62h-11.84v-2.85c-5.34 2.71-10.23 4.06-14.69 4.06-7.16 0-12.41-2.16-15.73-6.47-3.33-4.31-4.99-11.55-4.99-21.71s1.85-17.54 5.54-22.15c3.69-4.6 9.45-6.91 17.27-6.91 2.63 0 6.8.48 12.5 1.43v-23.02h11.95Zm-13.81 66.22 1.86-.77v-32.45c-4.38-.73-8.44-1.1-12.17-1.1q-11.07 0-11.07 18.42c0 6.73.86 11.38 2.58 13.98 1.72 2.59 4.44 3.89 8.17 3.89s7.27-.66 10.63-1.97M1031.8 582.32c-8.62-1.17-14.87-1.75-18.75-1.75s-6.56.46-8.06 1.37-2.25 2.36-2.25 4.33.82 3.36 2.47 4.17c1.64.81 5.52 1.74 11.62 2.8s10.43 2.72 12.99 4.99q3.84 3.405 3.84 12.06c0 8.655-1.85 10.01-5.54 12.72s-9.08 4.06-16.17 4.06c-4.46 0-10.09-.62-16.88-1.86l-3.4-.55.44-9.98c8.77 1.17 15.09 1.75 18.97 1.75s6.63-.47 8.28-1.42c1.64-.95 2.47-2.52 2.47-4.71s-.79-3.71-2.36-4.55-5.34-1.75-11.29-2.74c-5.96-.99-10.33-2.54-13.1-4.66-2.78-2.12-4.17-5.99-4.17-11.62s1.92-9.83 5.76-12.61 8.75-4.17 14.75-4.17c4.68 0 10.42.59 17.21 1.75l3.4.66-.22 9.98ZM819.6 219.49c.07-9.92.24-19.84.38-29.76.09-6.26.18-12.52.18-18.78 0-2.93-.01-5.85.03-8.78.04-2.58.47-5.53-1.25-7.69-1-1.25-2.86-1.35-4.32-1.55-2.15-.29-4.47-.08-6.65-.06-9.17.06-18.3 0-27.46-.11l-3.42-.03-7.57-.06c-29.34.04-58.68-.35-88.02-.36-10.38 0-20.76-.01-31.15-.02h-2.5c-2.3 0-4.6.94-6.22 2.56s-2.42 3.68-2.42 5.85l.25 166.22-12.45.02c-3.42 0-6.22 2.81-6.21 6.23v9.27c-1.15 10.27 7.33 19.53 19.96 21.75.37.06.93.06 1.31.06l153.03-.23c.37 0 .68 0 1.06-.06.5 0 .93.06 1.43.06h.62c5.91-.01 11.63-2.32 15.8-6.31 3.85-3.8 5.96-8.72 5.95-13.89-.03-19.82-.07-39.64-.14-59.46-.06-19.63-.28-39.26-.25-58.89 0-1.99.01-3.97.02-5.96Zm-14.27 128.36c-2.01 2.72-5.61 4.15-8.93 3.57-3.32-.59-6.22-3.17-7.17-6.4-1.66-5.62 1.75-13.14-2.86-16.76-1.95-1.53-4.63-1.59-7.1-1.59-42.44.07-84.88.13-127.32.2l-.3-162.14c51.73.04 103.46.07 155.19.11v1.02l.87 170.74c.02 3.91-.05 8.11-2.38 11.26Z" class="cls-3"/><path d="m682.83 202.37 49.66-.08c3.42 0 6.22-2.81 6.21-6.23 0-3.42-2.81-6.22-6.23-6.21l-49.66.08c-3.42 0-6.22 2.81-6.21 6.23s2.81 6.22 6.23 6.21M776.24 239.57l-93.35.14c-3.42 0-6.22 2.81-6.21 6.23 0 3.42 2.81 6.22 6.23 6.21l93.35-.14c3.42 0 6.22-2.81 6.21-6.23 0-3.42-2.81-6.22-6.23-6.21M776.27 264.46l-93.35.14c-3.42 0-6.22 2.81-6.21 6.23s2.81 6.22 6.23 6.21l93.35-.14c3.42 0 6.22-2.81 6.21-6.23 0-3.42-2.81-6.22-6.23-6.21M776.31 289.35l-93.35.14c-3.42 0-6.22 2.81-6.21 6.23 0 3.42 2.81 6.22 6.23 6.21l93.35-.14c3.42 0 6.22-2.81 6.21-6.23 0-3.42-2.81-6.22-6.23-6.21M681.86 227.26l52.05-.08c2.87 0 5.21-2.81 5.21-6.23s-2.36-6.22-5.23-6.22l-52.05.08c-2.87 0-5.21 2.81-5.21 6.23s2.36 6.22 5.23 6.22" class="cls-3"/><rect width="36" height="37" x="746.12" y="189.96" class="cls-3" rx="4.82" ry="4.82"/></svg>