<svg xmlns="http://www.w3.org/2000/svg" id="Layer_2" data-name="Layer 2" viewBox="0 0 350 352"><defs><linearGradient id="linear-gradient" x1="10164.91" x2="10534.91" y1="-3258.7" y2="-3258.7" gradientTransform="translate(-10173.79 3435.62)" gradientUnits="userSpaceOnUse"><stop offset="0" stop-color="#6500d5"/><stop offset="1" stop-color="#b171ff"/></linearGradient><style>.cls-3{stroke-width:0;fill:#fff}</style></defs><path d="M361.12-8.08h-370v370h370z" style="fill:url(#linear-gradient);stroke-width:0"/><g style="opacity:.07"><path d="M380.83 243.16c14.96-16.05 30.1-31.94 45.19-47.88 9.52-10.06 19.04-20.12 28.42-30.31 4.39-4.76 8.75-9.55 13.2-14.25 3.92-4.14 9.05-8.31 9.47-14.39.24-3.53-2.63-6.48-4.71-9-3.06-3.7-7.16-6.82-10.73-10.06-15.02-13.63-29.77-27.41-44.54-41.3-1.84-1.73-3.68-3.45-5.52-5.18l-12.24-11.43C351.53 15.5 304.36-29.06 256.62-73.02c-16.89-15.55-33.78-31.11-50.68-46.66-1.32-1.22-2.64-2.43-3.96-3.65l-.1-.09c-3.75-3.44-8.9-5.36-13.96-5.14s-9.44 2.36-12.7 5.91L-73.24 148.34l-20.29-18.6c-5.58-5.12-14.33-4.74-19.45.84l-13.86 15.12c-17.28 14.97-17.34 42.74-.09 65.27.52.66 1.43 1.5 2.04 2.06l249.48 228.73c.61.56 1.12 1.02 1.82 1.48.81.74 1.43 1.5 2.24 2.24l1.01.93c9.64 8.84 22.41 13.64 35.16 13.38 11.96-.42 22.76-5.27 30.48-13.69 29.63-32.31 59.23-64.65 88.8-97.01 29.29-32.05 58.32-64.34 87.76-96.26 2.98-3.23 5.96-6.45 8.96-9.66ZM165.41 430.77c-7.33 1.42-15.34-1.63-19.88-7.56s-5.38-14.46-2.09-21.17c5.71-11.64 22.52-18.77 20.43-31.57-.88-5.4-5.15-9.52-9.18-13.22C85.5 293.83 16.31 230.4-52.88 166.97 27.87 78.83 108.63-9.31 189.39-97.45l252.48 232.53c-.51.56-1.02 1.11-1.53 1.67L186.13 416.01c-5.82 6.39-12.24 13.13-20.72 14.77Z" class="cls-3"/><path d="m183.79 10.53 80.96 74.23c5.58 5.12 14.33 4.74 19.45-.84s4.74-14.33-.84-19.45L202.4-9.76c-5.58-5.12-14.33-4.74-19.45.84s-4.74 14.33.84 19.45M280.17 210.92 127.98 71.4c-5.58-5.12-14.33-4.74-19.45.84s-4.74 14.33.84 19.45l152.18 139.52c5.58 5.12 14.33 4.74 19.45-.84s4.74-14.33-.84-19.45ZM242.96 251.51 90.78 111.98c-5.58-5.12-14.33-4.74-19.45.84s-4.74 14.33.84 19.45l152.18 139.52c5.58 5.12 14.33 4.74 19.45-.84s4.74-14.33-.84-19.45ZM205.75 292.09 53.57 152.56c-5.58-5.12-14.33-4.74-19.45.84s-4.74 14.33.84 19.45l152.18 139.52c5.58 5.12 14.33 4.74 19.45-.84s4.74-14.33-.84-19.45ZM144.95 49.6l84.86 77.8c4.68 4.29 12.69 3.23 17.8-2.35 5.12-5.58 5.48-13.65.8-17.94l-84.86-77.8c-4.68-4.29-12.69-3.23-17.8 2.35-5.12 5.58-5.48 13.65-.8 17.94" class="cls-3"/><rect width="79.62" height="81.84" x="267.21" y="101.22" class="cls-3" rx="4.82" ry="4.82" transform="rotate(42.6 307.036 142.156)"/></g><path d="M32.61 208.99v-28h7.93l8.5 23.99h.61v-23.99h4.54v28h-7.77l-8.71-24.03h-.57v24.03H32.6ZM74.42 205.32l1.14-.12.08 3.31c-3.11.63-5.86.94-8.26.94-3.02 0-5.2-.83-6.52-2.49s-1.98-4.32-1.98-7.97c0-7.25 2.96-10.87 8.87-10.87s8.58 3.12 8.58 9.36l-.29 3.19H63.37c.03 1.69.39 2.93 1.1 3.72s2.03 1.19 3.96 1.19 3.92-.08 5.97-.25Zm-2.45-8.09q0-3.03-.96-4.23c-.64-.8-1.72-1.21-3.25-1.21s-2.64.42-3.33 1.27q-1.05 1.26-1.08 4.17zM79.03 188.56h4.37l3.23 16.63h.82l3.88-16.23h4.58l3.88 16.23h.82l3.19-16.63h4.41L103.88 209h-7.07l-3.19-14.02L90.43 209h-7.07zM126.2 192.77c-3.22-.44-5.54-.65-6.99-.65s-2.45.17-3 .51c-.56.34-.84.88-.84 1.61s.31 1.25.92 1.55 2.06.65 4.33 1.04 3.89 1.02 4.84 1.86c.95.85 1.43 2.34 1.43 4.5s-.69 3.73-2.06 4.74c-1.38 1.01-3.39 1.51-6.03 1.51-1.66 0-3.76-.23-6.29-.69l-1.27-.2.16-3.72c3.27.44 5.63.65 7.07.65s2.47-.18 3.09-.53c.61-.35.92-.94.92-1.76s-.29-1.38-.88-1.7c-.59-.31-1.99-.65-4.21-1.02s-3.85-.95-4.88-1.74c-1.04-.79-1.55-2.23-1.55-4.33s.72-3.66 2.15-4.7 3.26-1.55 5.5-1.55c1.74 0 3.88.22 6.42.65l1.27.25-.08 3.72ZM145.04 200.04c0 3.62 1.91 5.44 5.72 5.44s5.72-1.81 5.72-5.44v-19.05h4.58v18.96c0 3.3-.87 5.7-2.6 7.21s-4.31 2.27-7.72 2.27-5.99-.76-7.7-2.27-2.58-3.92-2.58-7.21v-18.96h4.58zM166.58 217.78v-29.22h4.41v1.27c1.88-1.14 3.64-1.72 5.27-1.72 2.7 0 4.67.82 5.93 2.47 1.25 1.65 1.88 4.41 1.88 8.3s-.71 6.61-2.15 8.19c-1.43 1.58-3.77 2.37-7.01 2.37-1.12 0-2.41-.12-3.88-.37v8.71h-4.46Zm8.91-25.71c-1.28 0-2.56.29-3.84.86l-.61.29v12.06q1.635.33 3.6.33 2.775 0 3.84-1.59c1.065-1.59 1.06-2.87 1.06-5.44 0-4.33-1.35-6.5-4.05-6.5ZM205.2 180.06V209h-4.41v-1.06c-1.99 1.01-3.82 1.51-5.48 1.51-2.67 0-4.63-.8-5.87-2.41s-1.86-4.3-1.86-8.09.69-6.54 2.06-8.26c1.38-1.72 3.52-2.57 6.44-2.57.98 0 2.53.18 4.66.53v-8.58h4.46Zm-5.15 24.69.69-.29v-12.1c-1.63-.27-3.15-.41-4.54-.41-2.75 0-4.13 2.29-4.13 6.87 0 2.51.32 4.24.96 5.21s1.66 1.45 3.04 1.45 2.71-.25 3.96-.74ZM225.72 194.85v9.32c.03.6.18 1.04.47 1.33s.73.47 1.33.55l-.12 3.39c-2.34 0-4.16-.5-5.44-1.51-2.18 1.01-4.37 1.51-6.58 1.51-4.06 0-6.09-2.17-6.09-6.5 0-2.07.55-3.57 1.66-4.5 1.1-.93 2.8-1.48 5.09-1.68l5.27-.45v-1.47c0-1.09-.24-1.85-.72-2.29s-1.18-.65-2.1-.65q-2.61 0-6.54.33l-1.31.08-.16-3.15c2.97-.71 5.7-1.06 8.19-1.06s4.29.54 5.4 1.61c1.1 1.08 1.66 2.79 1.66 5.13Zm-9.16 5.07c-1.88.16-2.82 1.19-2.82 3.07s.83 2.82 2.49 2.82c1.36 0 2.81-.22 4.33-.65l.74-.25v-5.44zM242.32 192.36h-5.64v8.99c0 1.66.12 2.77.37 3.31.25.55.87.82 1.88.82l3.35-.12.2 3.56c-1.83.35-3.22.53-4.17.53-2.32 0-3.9-.53-4.76-1.59s-1.29-3.07-1.29-6.01v-9.48h-2.62v-3.8h2.62v-5.93h4.41v5.93h5.64v3.8ZM260.5 205.32l1.14-.12.08 3.31c-3.11.63-5.86.94-8.26.94-3.02 0-5.2-.83-6.52-2.49s-1.98-4.32-1.98-7.97c0-7.25 2.96-10.87 8.87-10.87s8.58 3.12 8.58 9.36l-.29 3.19h-12.67c.03 1.69.39 2.93 1.1 3.72s2.03 1.19 3.96 1.19 3.92-.08 5.97-.25Zm-2.45-8.09q0-3.03-.96-4.23c-.64-.8-1.72-1.21-3.25-1.21s-2.64.42-3.33 1.27q-1.05 1.26-1.08 4.17zM280.9 192.77c-3.22-.44-5.54-.65-6.99-.65s-2.45.17-3 .51c-.56.34-.84.88-.84 1.61s.31 1.25.92 1.55 2.06.65 4.33 1.04 3.89 1.02 4.84 1.86c.95.85 1.43 2.34 1.43 4.5s-.69 3.73-2.06 4.74c-1.38 1.01-3.39 1.51-6.03 1.51-1.66 0-3.76-.23-6.29-.69l-1.27-.2.16-3.72c3.27.44 5.63.65 7.07.65s2.47-.18 3.09-.53c.61-.35.92-.94.92-1.76s-.29-1.38-.88-1.7c-.59-.31-1.99-.65-4.21-1.02s-3.85-.95-4.88-1.74c-1.04-.79-1.55-2.23-1.55-4.33s.72-3.66 2.15-4.7 3.26-1.55 5.5-1.55c1.74 0 3.88.22 6.42.65l1.27.25-.08 3.72ZM299.31 181.73c1.4-1.09 3.34-1.63 5.82-1.63s4.39.55 5.72 1.66c1.33 1.1 2 2.63 2 4.58s-.44 3.48-1.31 4.6q-1.305 1.68-4.62 3.6l4.99 4.95c.19-.52.38-1.41.57-2.68s.31-2.32.37-3.17l4.29.08c-.38 3.32-1.05 6.12-2 8.38l4.86 4.46-2.53 2.9-4.62-4.01q-1.35 1.875-3.6 2.94c-1.5.71-3.15 1.06-4.95 1.06-3.84 0-6.57-.72-8.17-2.17-1.61-1.44-2.41-3.58-2.41-6.42 0-2.26.48-4.01 1.43-5.25s2.49-2.25 4.62-3.04c-1.06-1.23-1.76-2.26-2.08-3.11-.33-.84-.49-1.93-.49-3.27 0-1.88.7-3.37 2.1-4.46Zm4.52 23.75c1.31 0 2.51-.22 3.6-.67s1.89-1.07 2.41-1.86l-7.72-7.73c-1.36.52-2.35 1.19-2.96 2s-.92 1.91-.92 3.27c0 3.32 1.87 4.99 5.6 4.99Zm-2.12-18.39c0 1.34.61 2.66 1.84 3.96l.9.94c1.44-.82 2.46-1.58 3.04-2.29s.88-1.62.88-2.74c0-2.07-1.11-3.11-3.33-3.11s-3.33 1.08-3.33 3.23ZM71.29 247.44v-4.01h7.97v14.22c-.74.19-2.23.4-4.47.61-2.25.22-3.88.33-4.88.33-4.25 0-7.18-1.17-8.79-3.52-1.61-2.34-2.41-6.01-2.41-11.01s.82-8.64 2.47-10.93 4.5-3.43 8.56-3.43c2.4 0 5.09.27 8.09.82l1.43.29-.16 3.6c-3.3-.44-6.25-.65-8.87-.65s-4.41.74-5.38 2.21-1.45 4.2-1.45 8.17.46 6.72 1.37 8.24c.91 1.51 2.76 2.27 5.54 2.27 1.99 0 3.47-.12 4.46-.37v-6.83H71.3ZM84.65 258.14V229.2h4.46v28.94zM95.87 239.92c1.4-1.77 3.74-2.66 7.01-2.66s5.61.89 7.01 2.66 2.1 4.43 2.1 7.97-.68 6.21-2.04 8.01-3.72 2.7-7.07 2.7-5.71-.9-7.07-2.7-2.04-4.47-2.04-8.01.7-6.2 2.1-7.97m3.33 13.28c.63 1.09 1.85 1.63 3.68 1.63s3.05-.54 3.68-1.63.94-2.87.94-5.35-.33-4.24-1-5.27c-.67-1.04-1.87-1.55-3.62-1.55s-2.95.52-3.62 1.55c-.67 1.04-1 2.79-1 5.27s.31 4.26.94 5.35M125.93 237.26c2.81 0 4.83.78 6.07 2.35s1.86 4.34 1.86 8.32-.74 6.75-2.21 8.32-4.06 2.35-7.77 2.35c-1.28 0-3.31-.12-6.09-.37l-1.39-.12v-28.9h4.41v9.28c1.88-.82 3.58-1.23 5.11-1.23Zm-2.04 17.37q3.27 0 4.35-1.53c.72-1.02 1.08-2.76 1.08-5.21s-.31-4.18-.92-5.17-1.61-1.49-3-1.49c-1.31 0-2.62.2-3.92.61l-.65.2v12.43c1.5.11 2.52.16 3.07.16ZM153.44 244v9.32c.03.6.18 1.04.47 1.33s.73.47 1.33.55l-.12 3.39c-2.34 0-4.16-.5-5.44-1.51-2.18 1.01-4.37 1.51-6.58 1.51-4.06 0-6.09-2.17-6.09-6.5 0-2.07.55-3.57 1.66-4.5 1.1-.93 2.8-1.48 5.09-1.68l5.27-.45v-1.47c0-1.09-.24-1.85-.72-2.29s-1.18-.65-2.1-.65q-2.61 0-6.54.33l-1.31.08-.16-3.15c2.97-.71 5.7-1.06 8.19-1.06s4.29.54 5.4 1.61c1.1 1.08 1.66 2.79 1.66 5.13Zm-9.16 5.07c-1.88.16-2.82 1.19-2.82 3.07s.83 2.82 2.49 2.82c1.36 0 2.81-.22 4.33-.65l.74-.25v-5.44zM159.28 258.14V229.2h4.46v28.94zM176.2 234.19v-4.05h20.44v4.05h-7.89v23.95h-4.58v-23.95zM197.13 258.14V237.7h4.41v2.45c2.32-1.5 4.63-2.47 6.95-2.9v4.46c-2.34.46-4.35 1.06-6.01 1.8l-.9.37v14.26h-4.46ZM226.27 254.47l1.14-.12.08 3.31c-3.11.63-5.86.94-8.26.94-3.02 0-5.2-.83-6.52-2.49s-1.98-4.32-1.98-7.97c0-7.25 2.96-10.87 8.87-10.87s8.58 3.12 8.58 9.36l-.29 3.19h-12.67c.03 1.69.39 2.93 1.1 3.72s2.03 1.19 3.96 1.19 3.92-.08 5.97-.25Zm-2.45-8.09q0-3.03-.96-4.23c-.64-.8-1.72-1.21-3.25-1.21s-2.64.42-3.33 1.27q-1.05 1.26-1.08 4.17zM236.94 258.14h-4.46V237.7h4.41v1.27c1.99-1.14 3.87-1.72 5.64-1.72q4.08 0 5.58 2.31c.99 1.54 1.49 4.08 1.49 7.62v10.95h-4.41V247.3c0-2.21-.24-3.77-.71-4.7-.48-.93-1.45-1.39-2.92-1.39-1.39 0-2.73.27-4.01.82l-.61.25zM271.48 229.21v28.94h-4.41v-1.06c-1.99 1.01-3.82 1.51-5.48 1.51-2.67 0-4.63-.8-5.87-2.41s-1.86-4.3-1.86-8.09.69-6.54 2.06-8.26c1.38-1.72 3.52-2.57 6.44-2.57.98 0 2.53.18 4.66.53v-8.58h4.46Zm-5.15 24.69.69-.29v-12.1c-1.63-.27-3.15-.41-4.54-.41-2.75 0-4.13 2.29-4.13 6.87 0 2.51.32 4.24.96 5.21s1.66 1.45 3.04 1.45 2.71-.25 3.96-.74ZM291.05 241.92c-3.22-.44-5.54-.65-6.99-.65s-2.45.17-3 .51c-.56.34-.84.88-.84 1.61s.31 1.25.92 1.55 2.06.65 4.33 1.04 3.89 1.02 4.84 1.86c.95.85 1.43 2.34 1.43 4.5s-.69 3.73-2.06 4.74c-1.38 1.01-3.39 1.51-6.03 1.51-1.66 0-3.76-.23-6.29-.69l-1.27-.2.16-3.72c3.27.44 5.63.65 7.07.65s2.47-.18 3.09-.53c.61-.35.92-.94.92-1.76s-.29-1.38-.88-1.7c-.59-.31-1.99-.65-4.21-1.02s-3.85-.95-4.88-1.74c-1.04-.79-1.55-2.23-1.55-4.33s.72-3.66 2.15-4.7 3.26-1.55 5.5-1.55c1.74 0 3.88.22 6.42.65l1.27.25-.08 3.72ZM211.95 106.65c.02-3.7.09-7.4.14-11.1.03-2.33.07-4.67.07-7 0-1.09 0-2.18.01-3.27.01-.96.17-2.06-.47-2.87-.37-.47-1.07-.5-1.61-.58-.8-.11-1.67-.03-2.48-.02-3.42.02-6.82 0-10.24-.04-.43 0-.85 0-1.28-.01-.94 0-1.88-.01-2.82-.02-10.94.02-21.88-.13-32.81-.14h-12.54c-.86 0-1.72.35-2.32.95s-.9 1.37-.9 2.18l.09 61.97h-4.64a2.33 2.33 0 0 0-2.32 2.33v3.46c-.43 3.83 2.73 7.28 7.44 8.11.14.02.35.02.49.02l57.05-.09c.14 0 .26 0 .39-.02.19 0 .35.02.53.02h.23a8.6 8.6 0 0 0 5.89-2.35c1.44-1.42 2.22-3.25 2.22-5.18-.01-7.39-.03-14.78-.05-22.17s-.11-14.64-.09-21.96v-2.22Zm-5.32 47.85c-.75 1.01-2.09 1.55-3.33 1.33s-2.32-1.18-2.67-2.39c-.62-2.1.65-4.9-1.07-6.25-.73-.57-1.73-.59-2.65-.59-15.82.02-31.64.05-47.46.07-.04-20.15-.07-40.3-.11-60.45 19.28.01 38.57.03 57.85.04v.38c.11 21.22.22 42.43.32 63.65 0 1.46-.02 3.03-.89 4.2Z" class="cls-3"/><path d="m160.96 100.27 18.51-.03c1.28 0 2.32-1.05 2.32-2.32s-1.05-2.32-2.32-2.32l-18.51.03c-1.28 0-2.32 1.05-2.32 2.32 0 1.28 1.05 2.32 2.32 2.32M195.78 114.14l-34.8.05c-1.28 0-2.32 1.05-2.32 2.32s1.05 2.32 2.32 2.32l34.8-.05c1.28 0 2.32-1.05 2.32-2.32s-1.05-2.32-2.32-2.32M195.79 123.42l-34.8.05c-1.28 0-2.32 1.05-2.32 2.32 0 1.28 1.05 2.32 2.32 2.32l34.8-.05c1.28 0 2.32-1.05 2.32-2.32s-1.05-2.32-2.32-2.32M195.81 132.7l-34.8.05c-1.28 0-2.32 1.05-2.32 2.32s1.05 2.32 2.32 2.32l34.8-.05c1.28 0 2.32-1.05 2.32-2.32 0-1.28-1.05-2.32-2.32-2.32M160.6 109.55l19.41-.03c1.07 0 1.94-1.05 1.94-2.32 0-1.28-.88-2.32-1.95-2.32l-19.41.03c-1.07 0-1.94 1.05-1.94 2.32s.88 2.32 1.95 2.32" class="cls-3"/><rect width="13.42" height="13.79" x="184.55" y="95.65" class="cls-3" rx="4.82" ry="4.82"/></svg>