<svg width="1100" height="600" viewBox="0 0 1100 600" fill="none" xmlns="http://www.w3.org/2000/svg">
<g clip-path="url(#clip0_11_58)">
<path d="M134.26 654.258L1155 654.258V-74.725L134.26 -74.725L134.26 654.258Z" fill="url(#paint0_linear_11_58)"/>
<path d="M14.8242 554.567C14.9188 554.558 15.0133 554.55 15.1078 554.533C14.9789 554.492 14.8586 554.458 14.7297 554.417C-23.6844 541.808 -59.7953 520.783 -90.5437 491.292C-121.266 461.825 -143.335 427.075 -156.759 390.008C-156.819 389.85 -156.87 389.7 -156.922 389.542C-156.939 389.658 -156.948 389.775 -156.956 389.892C-162.516 438.05 -154.112 487.375 -131.802 531.733C-85.7914 552.892 -34.8047 560.5 14.8242 554.567Z" fill="white"/>
<path d="M-156.759 390C-143.335 427.067 -121.266 461.817 -90.5437 491.283C-59.7953 520.775 -23.6843 541.808 14.7297 554.408C-8.60229 518.525 -26.3828 480.192 -38.6031 440.575C-79.6554 429.142 -119.444 412.283 -156.759 390Z" fill="white"/>
<path d="M345.787 532.508C333.446 556.533 317.023 579.108 296.493 599.242C249.743 645.075 189.741 670.433 128.373 675.25C107.19 676.917 85.8516 676.125 64.8399 672.892C11.911 664.742 -38.9468 641.058 -79.9132 601.767C-101.759 580.817 -119.041 557.083 -131.794 531.725C-85.7828 552.883 -34.796 560.492 14.8329 554.558C14.9274 554.55 15.0219 554.542 15.1165 554.525C69.0508 572.142 127.497 573.133 182.007 557.567C182.024 557.567 182.041 557.567 182.059 557.567C237.325 566.15 294.869 557.758 345.804 532.492L345.787 532.508Z" fill="url(#paint1_linear_11_58)"/>
<path d="M370.03 374.517C370.03 374.517 370.03 374.5 370.03 374.483C370.03 374.5 370.03 374.508 370.021 374.525C357.552 416.217 334.469 455.592 300.747 488.65C266.57 522.158 225.569 545.125 182.067 557.558C182.041 557.558 182.024 557.567 181.998 557.575C182.016 557.575 182.033 557.575 182.05 557.575C237.316 566.158 294.86 557.767 345.795 532.5C371.13 483.167 379.208 427.683 370.038 374.508L370.03 374.517Z" fill="url(#paint2_linear_11_58)"/>
<path d="M182.059 557.558C225.569 545.125 266.561 522.158 300.738 488.65C334.46 455.592 357.543 416.217 370.012 374.525C330.73 401.208 288.26 421.55 244.114 435.542C229.943 478.267 209.266 519.425 182.059 557.55V557.558Z" fill="white"/>
<path d="M244.114 435.55C229.513 440.183 214.723 444.117 199.813 447.358C136.323 461.15 70.5203 462.342 6.66873 450.908C-8.5508 448.183 -23.6586 444.742 -38.6031 440.575C-26.3828 480.192 -8.60237 518.525 14.7297 554.408C14.8586 554.45 14.9789 554.483 15.1078 554.525C69.0422 572.142 127.488 573.133 181.998 557.567C182.024 557.567 182.041 557.558 182.067 557.55C209.275 519.417 229.952 478.267 244.123 435.542L244.114 435.55Z" fill="white"/>
<path d="M-161.889 227.708C-161.889 227.708 -161.889 227.733 -161.889 227.75C-161.889 227.733 -161.88 227.708 -161.872 227.692C-149.523 185.367 -126.294 145.367 -92.1078 111.858C-58.3774 78.7917 -18.0039 55.975 24.8703 43.4333C-30.0781 35.1167 -87.2094 43.55 -137.818 68.6667C-163.324 118.325 -171.342 174.217 -161.889 227.708Z" fill="white"/>
<path d="M25.1625 43.475C25.1969 43.425 25.2313 43.3667 25.2742 43.3167C25.1367 43.3583 25.0078 43.3917 24.8703 43.4333C-18.0039 55.975 -58.3687 78.7917 -92.0992 111.858C-126.277 145.367 -149.514 185.367 -161.863 227.692C-122.745 200.833 -80.4203 180.3 -36.4117 166.083C-22.4469 123.175 -1.9164 81.8167 25.1625 43.475Z" fill="white"/>
<path d="M24.8703 43.4333C25.0078 43.3917 25.1367 43.3583 25.2742 43.3167C80.5836 27.225 140.035 28.2167 194.769 46.3667C194.812 46.3833 194.855 46.3917 194.898 46.4083C243.977 40.8583 294.302 48.525 339.78 69.4333C327.027 44.0833 309.745 20.35 287.899 -0.608335C246.452 -40.3583 194.889 -64.125 141.29 -72C121.816 -74.8583 102.085 -75.625 82.4656 -74.2833C20.0921 -70.025 -41.0524 -44.6083 -88.5242 1.93333C-109.063 22.0667 -125.477 44.6333 -137.818 68.6667C-87.2094 43.55 -30.0782 35.125 24.8703 43.4333Z" fill="url(#paint3_linear_11_58)"/>
<path d="M339.762 69.4417C366.051 81.5333 390.706 98.0333 412.552 118.983C454.102 158.842 479.205 208.733 487.841 260.767C490.952 279.483 491.932 298.467 490.772 317.367C487.077 377.875 461.527 437.442 414.047 483.983C393.508 504.117 370.416 520.283 345.77 532.508C371.104 483.175 379.182 427.692 370.012 374.517C370.012 374.508 370.012 374.5 370.012 374.483C386.126 320.567 384.493 262.783 365.131 209.783C365.114 209.742 365.097 209.7 365.088 209.658C370.27 162.017 361.823 113.292 339.754 69.4333L339.762 69.4417Z" fill="url(#paint4_linear_11_58)"/>
<path d="M194.889 46.4167C232.934 59.0583 268.692 79.9833 299.183 109.233C329.673 138.475 351.648 172.917 365.097 209.675C370.279 162.033 361.831 113.308 339.763 69.45C294.293 48.5333 243.959 40.875 194.88 46.425L194.889 46.4167Z" fill="url(#paint5_linear_11_58)"/>
<path d="M247.483 159.917C288.32 171.175 327.912 187.783 365.088 209.758C365.105 209.767 365.123 209.783 365.14 209.792C365.123 209.75 365.105 209.708 365.097 209.667C351.648 172.917 329.673 138.467 299.183 109.225C268.692 79.9833 232.934 59.05 194.889 46.4083C194.846 46.3917 194.803 46.3833 194.76 46.3667C194.769 46.3833 194.786 46.4 194.795 46.4167C217.869 82.225 235.426 120.425 247.483 159.908V159.917Z" fill="white"/>
<path d="M247.483 159.917C252.037 174.833 255.793 189.933 258.775 205.15C270.858 266.858 270.007 330.517 256.188 392.033C252.897 406.675 248.875 421.2 244.114 435.55C288.26 421.558 330.73 401.208 370.012 374.533C370.012 374.517 370.012 374.508 370.021 374.492C386.134 320.575 384.502 262.792 365.14 209.792C365.123 209.783 365.105 209.767 365.088 209.758C327.912 187.783 288.32 171.167 247.483 159.917Z" fill="white"/>
<path d="M-36.4117 166.083C-21.768 161.358 -6.94378 157.333 8.00935 154.008C71.3109 139.933 136.95 138.417 200.724 149.458C216.442 152.183 232.057 155.658 247.483 159.908C235.434 120.433 217.869 82.225 194.795 46.4167C194.786 46.4 194.769 46.3833 194.76 46.3667C140.035 28.2167 80.5836 27.225 25.2656 43.3167C25.2312 43.3667 25.1969 43.425 25.1539 43.475C-1.91643 81.8167 -22.4469 123.175 -36.4117 166.083Z" fill="white"/>
<path d="M258.775 205.15C255.793 189.933 252.037 174.833 247.483 159.917C232.057 155.667 216.442 152.183 200.724 149.467C136.959 138.425 71.3109 139.942 8.00935 154.017C-6.95237 157.342 -21.7766 161.367 -36.4117 166.092C-41.0266 180.267 -44.9281 194.608 -48.1164 209.067C-61.7289 270.892 -62.2703 334.825 -49.7664 396.725C-46.7844 411.483 -43.0633 426.117 -38.6031 440.583C-23.6586 444.742 -8.5508 448.183 6.66873 450.917C70.5203 462.35 136.314 461.158 199.813 447.367C214.723 444.125 229.513 440.192 244.114 435.558C248.875 421.208 252.897 406.692 256.188 392.042C270.007 330.517 270.858 266.858 258.775 205.158V205.15Z" fill="white"/>
<path d="M448.362 265.2C440.679 218.967 418.378 174.625 381.451 139.2C362.038 120.583 340.123 105.917 316.766 95.175C305.43 72.6417 290.073 51.55 270.66 32.9333C233.827 -2.39166 188.005 -23.5083 140.37 -30.5083C123.071 -33.05 105.531 -33.725 88.0945 -32.5417C32.682 -28.7667 -21.6563 -6.175 -63.843 35.1833C-82.0961 53.075 -118.834 32.5333 -129.8 53.8833C-151.697 64.75 -150.073 119.717 -168.326 137.608C-209.868 178.333 -232.521 230.275 -236.345 283.183C-237.669 301.458 -236.741 319.85 -233.57 337.933C-225.586 383.458 -203.388 427.05 -166.985 461.967C-147.572 480.583 -149.256 545.567 -125.898 556.308C-114.563 578.842 -75.6078 549.617 -56.1945 568.233C-19.7914 603.15 25.4031 624.2 72.4453 631.442C91.1195 634.317 110.086 635.017 128.906 633.533C183.442 629.25 236.766 606.717 278.309 565.983C296.562 548.092 311.145 528.033 322.12 506.683C344.016 495.817 364.547 481.45 382.791 463.558C424.978 422.2 447.683 369.267 450.974 315.492C451.997 298.7 451.129 281.825 448.37 265.192L448.362 265.2Z" fill="url(#paint6_linear_11_58)"/>
<path d="M125.95 258V223.75H131.5V258H125.95ZM144.178 258H138.728V233H144.128V234.55C146.561 233.15 148.861 232.45 151.028 232.45C154.361 232.45 156.628 233.4 157.828 235.3C159.061 237.167 159.678 240.267 159.678 244.6V258H154.278V244.75C154.278 242.05 153.978 240.133 153.378 239C152.811 237.867 151.628 237.3 149.828 237.3C148.128 237.3 146.494 237.633 144.928 238.3L144.178 238.6V258ZM183.373 238.15C179.439 237.617 176.589 237.35 174.823 237.35C173.056 237.35 171.823 237.567 171.123 238C170.456 238.4 170.123 239.05 170.123 239.95C170.123 240.85 170.489 241.483 171.223 241.85C171.989 242.217 173.756 242.65 176.523 243.15C179.323 243.617 181.306 244.367 182.473 245.4C183.639 246.433 184.223 248.267 184.223 250.9C184.223 253.533 183.373 255.467 181.673 256.7C180.006 257.933 177.556 258.55 174.323 258.55C172.289 258.55 169.723 258.267 166.623 257.7L165.073 257.45L165.273 252.9C169.273 253.433 172.156 253.7 173.923 253.7C175.689 253.7 176.939 253.483 177.673 253.05C178.439 252.617 178.823 251.9 178.823 250.9C178.823 249.9 178.456 249.217 177.723 248.85C177.023 248.45 175.306 248.033 172.573 247.6C169.873 247.133 167.889 246.417 166.623 245.45C165.356 244.483 164.723 242.717 164.723 240.15C164.723 237.583 165.589 235.667 167.323 234.4C169.089 233.133 171.339 232.5 174.073 232.5C176.206 232.5 178.823 232.767 181.923 233.3L183.473 233.6L183.373 238.15ZM189.46 268.75V233H194.86V234.55C197.16 233.15 199.31 232.45 201.31 232.45C204.61 232.45 207.027 233.467 208.56 235.5C210.093 237.5 210.86 240.883 210.86 245.65C210.86 250.383 209.977 253.717 208.21 255.65C206.477 257.583 203.627 258.55 199.66 258.55C198.293 258.55 196.71 258.4 194.91 258.1V268.75H189.46ZM200.36 237.3C198.793 237.3 197.227 237.65 195.66 238.35L194.91 238.7V253.45C196.243 253.717 197.71 253.85 199.31 253.85C201.577 253.85 203.143 253.2 204.01 251.9C204.877 250.6 205.31 248.383 205.31 245.25C205.31 239.95 203.66 237.3 200.36 237.3ZM216.316 258V233H221.766V258H216.316ZM216.316 228.75V223H221.766V228.75H216.316ZM228.376 258V233H233.776V236C236.61 234.167 239.443 232.983 242.276 232.45V237.9C239.41 238.467 236.96 239.2 234.926 240.1L233.826 240.55V258H228.376ZM246.443 258V233H251.893V258H246.443ZM246.443 228.75V223H251.893V228.75H246.443ZM263.953 258H258.503V233H263.903V234.55C266.336 233.15 268.636 232.45 270.803 232.45C274.136 232.45 276.403 233.4 277.603 235.3C278.836 237.167 279.453 240.267 279.453 244.6V258H274.053V244.75C274.053 242.05 273.753 240.133 273.153 239C272.586 237.867 271.403 237.3 269.603 237.3C267.903 237.3 266.27 237.633 264.703 238.3L263.953 238.6V258ZM307.648 261.4C307.648 266.867 303.698 269.6 295.798 269.6C291.998 269.6 289.181 269.083 287.348 268.05C285.515 267.017 284.598 265.133 284.598 262.4C284.598 261.167 284.898 260.1 285.498 259.2C286.098 258.333 287.065 257.383 288.398 256.35C287.298 255.617 286.748 254.4 286.748 252.7C286.748 252.033 287.198 250.95 288.098 249.45L288.548 248.7C286.148 247.267 284.948 244.767 284.948 241.2C284.948 238.2 285.848 236 287.648 234.6C289.448 233.2 291.881 232.5 294.948 232.5C296.415 232.5 297.865 232.667 299.298 233L300.048 233.15L307.798 232.95V237.35L303.648 237.1C304.548 238.267 304.998 239.633 304.998 241.2C304.998 244.467 304.165 246.733 302.498 248C300.865 249.233 298.298 249.85 294.798 249.85C293.931 249.85 293.198 249.783 292.598 249.65C292.131 250.783 291.898 251.667 291.898 252.3C291.898 252.9 292.198 253.317 292.798 253.55C293.431 253.783 294.931 253.917 297.298 253.95C301.265 253.983 303.981 254.517 305.448 255.55C306.915 256.583 307.648 258.533 307.648 261.4ZM289.948 261.9C289.948 263.067 290.415 263.9 291.348 264.4C292.281 264.9 293.881 265.15 296.148 265.15C300.181 265.15 302.198 264 302.198 261.7C302.198 260.4 301.831 259.567 301.098 259.2C300.398 258.867 298.981 258.683 296.848 258.65L291.948 258.35C291.215 258.95 290.698 259.5 290.398 260C290.098 260.533 289.948 261.167 289.948 261.9ZM290.348 241.2C290.348 242.733 290.715 243.867 291.448 244.6C292.181 245.3 293.365 245.65 294.998 245.65C296.631 245.65 297.798 245.3 298.498 244.6C299.231 243.867 299.598 242.733 299.598 241.2C299.598 239.667 299.231 238.55 298.498 237.85C297.765 237.117 296.581 236.75 294.948 236.75C291.881 236.75 290.348 238.233 290.348 241.2ZM131.85 296.65V317H126.45V296.65H123.55V292H126.45V290.4C126.45 286.833 126.967 284.383 128 283.05C129.033 281.717 130.867 281.05 133.5 281.05L138.9 281.55L138.85 286C137.217 285.933 135.85 285.9 134.75 285.9C133.683 285.9 132.933 286.233 132.5 286.9C132.067 287.533 131.85 288.717 131.85 290.45V292H138.45V296.65H131.85ZM157.735 292H163.135V317H157.735V315.45C155.302 316.85 153.052 317.55 150.985 317.55C147.552 317.55 145.252 316.633 144.085 314.8C142.918 312.933 142.335 309.683 142.335 305.05V292H147.785V305.1C147.785 308.1 148.035 310.117 148.535 311.15C149.035 312.183 150.202 312.7 152.035 312.7C153.835 312.7 155.485 312.367 156.985 311.7L157.735 311.4V292ZM183.184 296.65H176.284V307.65C176.284 309.683 176.434 311.033 176.734 311.7C177.034 312.367 177.8 312.7 179.034 312.7L183.134 312.55L183.384 316.9C181.15 317.333 179.45 317.55 178.284 317.55C175.45 317.55 173.5 316.9 172.434 315.6C171.4 314.3 170.884 311.85 170.884 308.25V296.65H167.684V292H170.884V284.75H176.284V292H183.184V296.65ZM202.804 292H208.204V317H202.804V315.45C200.37 316.85 198.12 317.55 196.054 317.55C192.62 317.55 190.32 316.633 189.154 314.8C187.987 312.933 187.404 309.683 187.404 305.05V292H192.854V305.1C192.854 308.1 193.104 310.117 193.604 311.15C194.104 312.183 195.27 312.7 197.104 312.7C198.904 312.7 200.554 312.367 202.054 311.7L202.804 311.4V292ZM214.802 317V292H220.202V295C223.035 293.167 225.869 291.983 228.702 291.45V296.9C225.835 297.467 223.385 298.2 221.352 299.1L220.252 299.55V317H214.802ZM250.473 312.5L251.873 312.35L251.973 316.4C248.173 317.167 244.806 317.55 241.873 317.55C238.173 317.55 235.506 316.533 233.873 314.5C232.273 312.467 231.473 309.217 231.473 304.75C231.473 295.883 235.09 291.45 242.323 291.45C249.323 291.45 252.823 295.267 252.823 302.9L252.473 306.8H236.973C237.006 308.867 237.456 310.383 238.323 311.35C239.19 312.317 240.806 312.8 243.173 312.8C245.54 312.8 247.973 312.7 250.473 312.5ZM247.473 302.6C247.473 300.133 247.073 298.417 246.273 297.45C245.506 296.45 244.19 295.95 242.323 295.95C240.456 295.95 239.09 296.467 238.223 297.5C237.39 298.533 236.956 300.233 236.923 302.6H247.473ZM125.6 376V340.6H131.05V376H125.6ZM155.746 371.5L157.146 371.35L157.246 375.4C153.446 376.167 150.08 376.55 147.146 376.55C143.446 376.55 140.78 375.533 139.146 373.5C137.546 371.467 136.746 368.217 136.746 363.75C136.746 354.883 140.363 350.45 147.596 350.45C154.596 350.45 158.096 354.267 158.096 361.9L157.746 365.8H142.246C142.28 367.867 142.73 369.383 143.596 370.35C144.463 371.317 146.08 371.8 148.446 371.8C150.813 371.8 153.246 371.7 155.746 371.5ZM152.746 361.6C152.746 359.133 152.346 357.417 151.546 356.45C150.78 355.45 149.463 354.95 147.596 354.95C145.73 354.95 144.363 355.467 143.496 356.5C142.663 357.533 142.23 359.233 142.196 361.6H152.746ZM181.837 358.7V370.1C181.87 370.833 182.054 371.383 182.387 371.75C182.754 372.083 183.304 372.3 184.037 372.4L183.887 376.55C181.02 376.55 178.804 375.933 177.237 374.7C174.57 375.933 171.887 376.55 169.187 376.55C164.22 376.55 161.737 373.9 161.737 368.6C161.737 366.067 162.404 364.233 163.737 363.1C165.104 361.967 167.187 361.283 169.987 361.05L176.437 360.5V358.7C176.437 357.367 176.137 356.433 175.537 355.9C174.97 355.367 174.12 355.1 172.987 355.1C170.854 355.1 168.187 355.233 164.987 355.5L163.387 355.6L163.187 351.75C166.82 350.883 170.154 350.45 173.187 350.45C176.254 350.45 178.454 351.117 179.787 352.45C181.154 353.75 181.837 355.833 181.837 358.7ZM170.637 364.9C168.337 365.1 167.187 366.35 167.187 368.65C167.187 370.95 168.204 372.1 170.237 372.1C171.904 372.1 173.67 371.833 175.537 371.3L176.437 371V364.35L170.637 364.9ZM209.079 340.6V376H203.679V374.7C201.246 375.933 199.012 376.55 196.979 376.55C193.712 376.55 191.312 375.567 189.779 373.6C188.279 371.633 187.529 368.333 187.529 363.7C187.529 359.067 188.362 355.7 190.029 353.6C191.729 351.5 194.362 350.45 197.929 350.45C199.129 350.45 201.029 350.667 203.629 351.1V340.6H209.079ZM202.779 370.8L203.629 370.45V355.65C201.629 355.317 199.779 355.15 198.079 355.15C194.712 355.15 193.029 357.95 193.029 363.55C193.029 366.617 193.412 368.75 194.179 369.95C194.979 371.117 196.229 371.7 197.929 371.7C199.629 371.7 201.246 371.4 202.779 370.8ZM233.481 371.5L234.881 371.35L234.981 375.4C231.181 376.167 227.814 376.55 224.881 376.55C221.181 376.55 218.514 375.533 216.881 373.5C215.281 371.467 214.481 368.217 214.481 363.75C214.481 354.883 218.098 350.45 225.331 350.45C232.331 350.45 235.831 354.267 235.831 361.9L235.481 365.8H219.981C220.014 367.867 220.464 369.383 221.331 370.35C222.198 371.317 223.814 371.8 226.181 371.8C228.548 371.8 230.981 371.7 233.481 371.5ZM230.481 361.6C230.481 359.133 230.081 357.417 229.281 356.45C228.514 355.45 227.198 354.95 225.331 354.95C223.464 354.95 222.098 355.467 221.231 356.5C220.398 357.533 219.964 359.233 219.931 361.6H230.481ZM241.071 376V351H246.471V354C249.305 352.167 252.138 350.983 254.971 350.45V355.9C252.105 356.467 249.655 357.2 247.621 358.1L246.521 358.55V376H241.071ZM276.488 356.15C272.555 355.617 269.705 355.35 267.938 355.35C266.171 355.35 264.938 355.567 264.238 356C263.571 356.4 263.238 357.05 263.238 357.95C263.238 358.85 263.605 359.483 264.338 359.85C265.105 360.217 266.871 360.65 269.638 361.15C272.438 361.617 274.421 362.367 275.588 363.4C276.755 364.433 277.338 366.267 277.338 368.9C277.338 371.533 276.488 373.467 274.788 374.7C273.121 375.933 270.671 376.55 267.438 376.55C265.405 376.55 262.838 376.267 259.738 375.7L258.188 375.45L258.388 370.9C262.388 371.433 265.271 371.7 267.038 371.7C268.805 371.7 270.055 371.483 270.788 371.05C271.555 370.617 271.938 369.9 271.938 368.9C271.938 367.9 271.571 367.217 270.838 366.85C270.138 366.45 268.421 366.033 265.688 365.6C262.988 365.133 261.005 364.417 259.738 363.45C258.471 362.483 257.838 360.717 257.838 358.15C257.838 355.583 258.705 353.667 260.438 352.4C262.205 351.133 264.455 350.5 267.188 350.5C269.321 350.5 271.938 350.767 275.038 351.3L276.588 351.6L276.488 356.15Z" fill="white"/>
<path d="M594.74 247V205.9H601.4V247H594.74ZM616.613 247H610.073V217H616.553V218.86C619.473 217.18 622.233 216.34 624.833 216.34C628.833 216.34 631.553 217.48 632.993 219.76C634.473 222 635.213 225.72 635.213 230.92V247H628.733V231.1C628.733 227.86 628.373 225.56 627.653 224.2C626.973 222.84 625.553 222.16 623.393 222.16C621.353 222.16 619.393 222.56 617.513 223.36L616.613 223.72V247ZM658.967 222.58H650.687V235.78C650.687 238.22 650.867 239.84 651.227 240.64C651.587 241.44 652.507 241.84 653.987 241.84L658.907 241.66L659.207 246.88C656.527 247.4 654.487 247.66 653.087 247.66C649.687 247.66 647.347 246.88 646.067 245.32C644.827 243.76 644.207 240.82 644.207 236.5V222.58H640.367V217H644.207V208.3H650.687V217H658.967V222.58ZM685.691 241.6L687.371 241.42L687.491 246.28C682.931 247.2 678.891 247.66 675.371 247.66C670.931 247.66 667.731 246.44 665.771 244C663.851 241.56 662.891 237.66 662.891 232.3C662.891 221.66 667.231 216.34 675.911 216.34C684.311 216.34 688.511 220.92 688.511 230.08L688.091 234.76H669.491C669.531 237.24 670.071 239.06 671.111 240.22C672.151 241.38 674.091 241.96 676.931 241.96C679.771 241.96 682.691 241.84 685.691 241.6ZM682.091 229.72C682.091 226.76 681.611 224.7 680.651 223.54C679.731 222.34 678.151 221.74 675.911 221.74C673.671 221.74 672.031 222.36 670.991 223.6C669.991 224.84 669.471 226.88 669.431 229.72H682.091ZM694.8 247V217H701.28V220.6C704.68 218.4 708.08 216.98 711.48 216.34V222.88C708.04 223.56 705.1 224.44 702.66 225.52L701.34 226.06V247H694.8ZM716.84 247V204.52H723.38V247H716.84ZM753.015 241.6L754.695 241.42L754.815 246.28C750.255 247.2 746.215 247.66 742.695 247.66C738.255 247.66 735.055 246.44 733.095 244C731.175 241.56 730.215 237.66 730.215 232.3C730.215 221.66 734.555 216.34 743.235 216.34C751.635 216.34 755.835 220.92 755.835 230.08L755.415 234.76H736.815C736.855 237.24 737.395 239.06 738.435 240.22C739.475 241.38 741.415 241.96 744.255 241.96C747.095 241.96 750.015 241.84 753.015 241.6ZM749.415 229.72C749.415 226.76 748.935 224.7 747.975 223.54C747.055 222.34 745.475 221.74 743.235 221.74C740.995 221.74 739.355 222.36 738.315 223.6C737.315 224.84 736.795 226.88 736.755 229.72H749.415ZM786.604 204.52V247H780.124V245.44C777.204 246.92 774.524 247.66 772.084 247.66C768.164 247.66 765.284 246.48 763.444 244.12C761.644 241.76 760.744 237.8 760.744 232.24C760.744 226.68 761.744 222.64 763.744 220.12C765.784 217.6 768.944 216.34 773.224 216.34C774.664 216.34 776.944 216.6 780.064 217.12V204.52H786.604ZM779.044 240.76L780.064 240.34V222.58C777.664 222.18 775.444 221.98 773.404 221.98C769.364 221.98 767.344 225.34 767.344 232.06C767.344 235.74 767.804 238.3 768.724 239.74C769.684 241.14 771.184 241.84 773.224 241.84C775.264 241.84 777.204 241.48 779.044 240.76ZM820.746 251.08C820.746 257.64 816.006 260.92 806.526 260.92C801.966 260.92 798.586 260.3 796.386 259.06C794.186 257.82 793.086 255.56 793.086 252.28C793.086 250.8 793.446 249.52 794.166 248.44C794.886 247.4 796.046 246.26 797.646 245.02C796.326 244.14 795.666 242.68 795.666 240.64C795.666 239.84 796.206 238.54 797.286 236.74L797.826 235.84C794.946 234.12 793.506 231.12 793.506 226.84C793.506 223.24 794.586 220.6 796.746 218.92C798.906 217.24 801.826 216.4 805.506 216.4C807.266 216.4 809.006 216.6 810.726 217L811.626 217.18L820.926 216.94V222.22L815.946 221.92C817.026 223.32 817.566 224.96 817.566 226.84C817.566 230.76 816.566 233.48 814.566 235C812.606 236.48 809.526 237.22 805.326 237.22C804.286 237.22 803.406 237.14 802.686 236.98C802.126 238.34 801.846 239.4 801.846 240.16C801.846 240.88 802.206 241.38 802.926 241.66C803.686 241.94 805.486 242.1 808.326 242.14C813.086 242.18 816.346 242.82 818.106 244.06C819.866 245.3 820.746 247.64 820.746 251.08ZM799.506 251.68C799.506 253.08 800.066 254.08 801.186 254.68C802.306 255.28 804.226 255.58 806.946 255.58C811.786 255.58 814.206 254.2 814.206 251.44C814.206 249.88 813.766 248.88 812.886 248.44C812.046 248.04 810.346 247.82 807.786 247.78L801.906 247.42C801.026 248.14 800.406 248.8 800.046 249.4C799.686 250.04 799.506 250.8 799.506 251.68ZM799.986 226.84C799.986 228.68 800.426 230.04 801.306 230.92C802.186 231.76 803.606 232.18 805.566 232.18C807.526 232.18 808.926 231.76 809.766 230.92C810.646 230.04 811.086 228.68 811.086 226.84C811.086 225 810.646 223.66 809.766 222.82C808.886 221.94 807.466 221.5 805.506 221.5C801.826 221.5 799.986 223.28 799.986 226.84ZM847.41 241.6L849.09 241.42L849.21 246.28C844.65 247.2 840.61 247.66 837.09 247.66C832.65 247.66 829.45 246.44 827.49 244C825.57 241.56 824.61 237.66 824.61 232.3C824.61 221.66 828.95 216.34 837.63 216.34C846.03 216.34 850.23 220.92 850.23 230.08L849.81 234.76H831.21C831.25 237.24 831.79 239.06 832.83 240.22C833.87 241.38 835.81 241.96 838.65 241.96C841.49 241.96 844.41 241.84 847.41 241.6ZM843.81 229.72C843.81 226.76 843.33 224.7 842.37 223.54C841.45 222.34 839.87 221.74 837.63 221.74C835.39 221.74 833.75 222.36 832.71 223.6C831.71 224.84 831.19 226.88 831.15 229.72H843.81ZM856.519 247V217H862.999V220.6C866.399 218.4 869.799 216.98 873.199 216.34V222.88C869.759 223.56 866.819 224.44 864.379 225.52L863.059 226.06V247H856.519ZM594.74 319V277.9H606.38L618.86 313.12H619.76V277.9H626.42V319H615.02L602.24 283.72H601.4V319H594.74ZM656.101 313.6L657.781 313.42L657.901 318.28C653.341 319.2 649.301 319.66 645.781 319.66C641.341 319.66 638.141 318.44 636.181 316C634.261 313.56 633.301 309.66 633.301 304.3C633.301 293.66 637.641 288.34 646.321 288.34C654.721 288.34 658.921 292.92 658.921 302.08L658.501 306.76H639.901C639.941 309.24 640.481 311.06 641.521 312.22C642.561 313.38 644.501 313.96 647.341 313.96C650.181 313.96 653.101 313.84 656.101 313.6ZM652.501 301.72C652.501 298.76 652.021 296.7 651.061 295.54C650.141 294.34 648.561 293.74 646.321 293.74C644.081 293.74 642.441 294.36 641.401 295.6C640.401 296.84 639.881 298.88 639.841 301.72H652.501ZM662.33 289H669.29L675.17 299.38L681.11 289H688.07L679.13 303.76L688.07 319H681.11L675.17 308.74L669.29 319H662.33L671.03 303.94L662.33 289ZM709.182 294.58H700.902V307.78C700.902 310.22 701.082 311.84 701.442 312.64C701.802 313.44 702.722 313.84 704.202 313.84L709.122 313.66L709.422 318.88C706.742 319.4 704.702 319.66 703.302 319.66C699.902 319.66 697.562 318.88 696.282 317.32C695.042 315.76 694.422 312.82 694.422 308.5V294.58H690.582V289H694.422V280.3H700.902V289H709.182V294.58ZM732.066 303.28V297.4H743.766V318.28C742.686 318.56 740.486 318.86 737.166 319.18C733.886 319.5 731.506 319.66 730.026 319.66C723.786 319.66 719.486 317.94 717.126 314.5C714.766 311.06 713.586 305.68 713.586 298.36C713.586 291 714.786 285.64 717.186 282.28C719.626 278.92 723.826 277.24 729.786 277.24C733.306 277.24 737.266 277.64 741.666 278.44L743.766 278.86L743.526 284.14C738.686 283.5 734.346 283.18 730.506 283.18C726.666 283.18 724.026 284.26 722.586 286.42C721.186 288.58 720.486 292.58 720.486 298.42C720.486 304.26 721.146 308.3 722.466 310.54C723.826 312.74 726.546 313.84 730.626 313.84C733.546 313.84 735.726 313.66 737.166 313.3V303.28H732.066ZM772.703 313.6L774.383 313.42L774.503 318.28C769.943 319.2 765.903 319.66 762.383 319.66C757.943 319.66 754.743 318.44 752.783 316C750.863 313.56 749.903 309.66 749.903 304.3C749.903 293.66 754.243 288.34 762.923 288.34C771.323 288.34 775.523 292.92 775.523 302.08L775.103 306.76H756.503C756.543 309.24 757.083 311.06 758.123 312.22C759.163 313.38 761.103 313.96 763.943 313.96C766.783 313.96 769.703 313.84 772.703 313.6ZM769.103 301.72C769.103 298.76 768.623 296.7 767.663 295.54C766.743 294.34 765.163 293.74 762.923 293.74C760.683 293.74 759.043 294.36 758.003 295.6C757.003 296.84 756.483 298.88 756.443 301.72H769.103ZM788.352 319H781.812V289H788.292V290.86C791.212 289.18 793.972 288.34 796.572 288.34C800.572 288.34 803.292 289.48 804.732 291.76C806.212 294 806.952 297.72 806.952 302.92V319H800.472V303.1C800.472 299.86 800.112 297.56 799.392 296.2C798.712 294.84 797.292 294.16 795.132 294.16C793.092 294.16 791.132 294.56 789.252 295.36L788.352 295.72V319ZM852.949 319V301.24H835.189V319H828.529V277.9H835.189V295.42H852.949V277.9H859.669V319H852.949ZM868.296 319V289H874.836V319H868.296ZM868.296 283.9V277H874.836V283.9H868.296ZM908.989 323.08C908.989 329.64 904.249 332.92 894.769 332.92C890.209 332.92 886.829 332.3 884.629 331.06C882.429 329.82 881.329 327.56 881.329 324.28C881.329 322.8 881.689 321.52 882.409 320.44C883.129 319.4 884.289 318.26 885.889 317.02C884.569 316.14 883.909 314.68 883.909 312.64C883.909 311.84 884.449 310.54 885.529 308.74L886.069 307.84C883.189 306.12 881.749 303.12 881.749 298.84C881.749 295.24 882.829 292.6 884.989 290.92C887.149 289.24 890.069 288.4 893.749 288.4C895.509 288.4 897.249 288.6 898.969 289L899.869 289.18L909.169 288.94V294.22L904.189 293.92C905.269 295.32 905.809 296.96 905.809 298.84C905.809 302.76 904.809 305.48 902.809 307C900.849 308.48 897.769 309.22 893.569 309.22C892.529 309.22 891.649 309.14 890.929 308.98C890.369 310.34 890.089 311.4 890.089 312.16C890.089 312.88 890.449 313.38 891.169 313.66C891.929 313.94 893.729 314.1 896.569 314.14C901.329 314.18 904.589 314.82 906.349 316.06C908.109 317.3 908.989 319.64 908.989 323.08ZM887.749 323.68C887.749 325.08 888.309 326.08 889.429 326.68C890.549 327.28 892.469 327.58 895.189 327.58C900.029 327.58 902.449 326.2 902.449 323.44C902.449 321.88 902.009 320.88 901.129 320.44C900.289 320.04 898.589 319.82 896.029 319.78L890.149 319.42C889.269 320.14 888.649 320.8 888.289 321.4C887.929 322.04 887.749 322.8 887.749 323.68ZM888.229 298.84C888.229 300.68 888.669 302.04 889.549 302.92C890.429 303.76 891.849 304.18 893.809 304.18C895.769 304.18 897.169 303.76 898.009 302.92C898.889 302.04 899.329 300.68 899.329 298.84C899.329 297 898.889 295.66 898.009 294.82C897.129 293.94 895.709 293.5 893.749 293.5C890.069 293.5 888.229 295.28 888.229 298.84ZM920.832 319H914.292V276.52H920.832V290.56C923.792 289.08 926.532 288.34 929.052 288.34C933.052 288.34 935.772 289.48 937.212 291.76C938.692 294 939.432 297.72 939.432 302.92V319H932.892V303.1C932.892 299.86 932.552 297.56 931.872 296.2C931.192 294.84 929.752 294.16 927.552 294.16C925.632 294.16 923.712 294.48 921.792 295.12L920.832 295.48V319ZM968.406 313.6L970.086 313.42L970.206 318.28C965.646 319.2 961.606 319.66 958.086 319.66C953.646 319.66 950.446 318.44 948.486 316C946.566 313.56 945.606 309.66 945.606 304.3C945.606 293.66 949.946 288.34 958.626 288.34C967.026 288.34 971.226 292.92 971.226 302.08L970.806 306.76H952.206C952.246 309.24 952.786 311.06 953.826 312.22C954.866 313.38 956.806 313.96 959.646 313.96C962.486 313.96 965.406 313.84 968.406 313.6ZM964.806 301.72C964.806 298.76 964.326 296.7 963.366 295.54C962.446 294.34 960.866 293.74 958.626 293.74C956.386 293.74 954.746 294.36 953.706 295.6C952.706 296.84 952.186 298.88 952.146 301.72H964.806ZM977.515 319V289H983.995V292.6C987.395 290.4 990.795 288.98 994.195 288.34V294.88C990.755 295.56 987.815 296.44 985.375 297.52L984.055 298.06V319H977.515ZM595.1 391V349.48H620.36V353.56H599.72V367.9H616.76V371.92H599.72V386.92H620.36V391H595.1ZM649.997 347.92V391H645.557V388.96C642.477 390.72 639.437 391.6 636.437 391.6C634.837 391.6 633.437 391.4 632.237 391C631.037 390.6 629.917 389.88 628.877 388.84C626.717 386.68 625.637 382.7 625.637 376.9C625.637 371.06 626.597 366.86 628.517 364.3C630.477 361.7 633.697 360.4 638.177 360.4C640.497 360.4 642.957 360.66 645.557 361.18V347.92H649.997ZM632.357 385.6C632.997 386.36 633.677 386.88 634.397 387.16C635.117 387.44 636.037 387.58 637.157 387.58C638.317 387.58 639.597 387.4 640.997 387.04C642.437 386.64 643.557 386.26 644.357 385.9L645.557 385.36V365.02C642.997 364.54 640.617 364.3 638.417 364.3C635.377 364.3 633.257 365.28 632.057 367.24C630.857 369.16 630.257 372.16 630.257 376.24C630.257 380.88 630.957 384 632.357 385.6ZM677.435 361H681.935V391H677.435V388.9C674.435 390.7 671.475 391.6 668.555 391.6C664.475 391.6 661.755 390.54 660.395 388.42C659.075 386.3 658.415 382.38 658.415 376.66V361H662.915V376.6C662.915 380.96 663.295 383.88 664.055 385.36C664.815 386.84 666.535 387.58 669.215 387.58C670.535 387.58 671.875 387.4 673.235 387.04C674.595 386.64 675.635 386.26 676.355 385.9L677.435 385.36V361ZM701.81 360.4C703.13 360.4 705.37 360.64 708.53 361.12L709.97 361.3L709.79 364.96C706.59 364.6 704.23 364.42 702.71 364.42C699.31 364.42 696.99 365.24 695.75 366.88C694.55 368.48 693.95 371.48 693.95 375.88C693.95 380.24 694.51 383.28 695.63 385C696.79 386.72 699.17 387.58 702.77 387.58L709.85 387.04L710.03 390.76C706.31 391.32 703.53 391.6 701.69 391.6C697.01 391.6 693.77 390.4 691.97 388C690.21 385.6 689.33 381.56 689.33 375.88C689.33 370.16 690.29 366.16 692.21 363.88C694.13 361.56 697.33 360.4 701.81 360.4ZM737.902 370.06V385.42C738.022 386.9 739.182 387.78 741.382 388.06L741.202 391.6C738.042 391.6 735.662 390.8 734.062 389.2C730.462 390.8 726.862 391.6 723.262 391.6C720.502 391.6 718.402 390.82 716.962 389.26C715.522 387.7 714.802 385.46 714.802 382.54C714.802 379.62 715.542 377.48 717.022 376.12C718.502 374.72 720.822 373.86 723.982 373.54L733.402 372.64V370.06C733.402 368.02 732.962 366.56 732.082 365.68C731.202 364.8 730.002 364.36 728.482 364.36C725.282 364.36 721.962 364.56 718.522 364.96L716.662 365.14L716.482 361.72C720.882 360.84 724.782 360.4 728.182 360.4C731.582 360.4 734.042 361.18 735.562 362.74C737.122 364.3 737.902 366.74 737.902 370.06ZM719.422 382.3C719.422 385.98 720.942 387.82 723.982 387.82C726.702 387.82 729.382 387.36 732.022 386.44L733.402 385.96V376.06L724.522 376.9C722.722 377.06 721.422 377.58 720.622 378.46C719.822 379.34 719.422 380.62 719.422 382.3ZM762.321 364.9H752.781V379.24C752.781 382.68 753.021 384.94 753.501 386.02C754.021 387.1 755.221 387.64 757.101 387.64L762.441 387.28L762.741 391C760.061 391.44 758.021 391.66 756.621 391.66C753.501 391.66 751.341 390.9 750.141 389.38C748.941 387.86 748.341 384.96 748.341 380.68V364.9H744.081V361H748.341V351.82H752.781V361H762.321V364.9ZM767.816 391V361H772.316V391H767.816ZM767.816 354.22V349H772.316V354.22H767.816ZM779.621 375.94C779.621 370.46 780.601 366.5 782.561 364.06C784.521 361.62 787.821 360.4 792.461 360.4C797.141 360.4 800.441 361.62 802.361 364.06C804.321 366.5 805.301 370.46 805.301 375.94C805.301 381.42 804.381 385.4 802.541 387.88C800.701 390.36 797.341 391.6 792.461 391.6C787.581 391.6 784.221 390.36 782.381 387.88C780.541 385.4 779.621 381.42 779.621 375.94ZM784.241 375.88C784.241 380.24 784.761 383.3 785.801 385.06C786.881 386.82 789.101 387.7 792.461 387.7C795.861 387.7 798.081 386.84 799.121 385.12C800.161 383.36 800.681 380.28 800.681 375.88C800.681 371.48 800.101 368.46 798.941 366.82C797.781 365.14 795.621 364.3 792.461 364.3C789.341 364.3 787.181 365.14 785.981 366.82C784.821 368.46 784.241 371.48 784.241 375.88ZM817.14 391H812.64V361H817.08V363.1C820.32 361.3 823.42 360.4 826.38 360.4C830.38 360.4 833.06 361.48 834.42 363.64C835.82 365.8 836.52 369.64 836.52 375.16V391H832.08V375.28C832.08 371.12 831.66 368.28 830.82 366.76C830.02 365.2 828.28 364.42 825.6 364.42C824.32 364.42 822.96 364.62 821.52 365.02C820.12 365.38 819.04 365.74 818.28 366.1L817.14 366.64V391ZM875.27 373.9V369.76H886.73V390.16C881.69 391.12 877.19 391.6 873.23 391.6C867.19 391.6 862.99 389.86 860.63 386.38C858.31 382.9 857.15 377.54 857.15 370.3C857.15 363.02 858.31 357.64 860.63 354.16C862.99 350.64 867.15 348.88 873.11 348.88C876.83 348.88 880.69 349.28 884.69 350.08L886.73 350.44L886.55 354.28C881.59 353.44 877.29 353.02 873.65 353.02C869.05 353.02 865.95 354.36 864.35 357.04C862.75 359.68 861.95 364.1 861.95 370.3C861.95 376.46 862.75 380.88 864.35 383.56C865.95 386.2 869.03 387.52 873.59 387.52C876.39 387.52 879.25 387.24 882.17 386.68V373.9H875.27ZM895.023 391V361H899.463V365.08C902.943 362.68 906.603 361.1 910.443 360.34V364.9C908.763 365.22 907.003 365.72 905.163 366.4C903.363 367.08 901.983 367.68 901.023 368.2L899.523 368.98V391H895.023ZM936.945 370.06V385.42C937.065 386.9 938.225 387.78 940.425 388.06L940.245 391.6C937.085 391.6 934.705 390.8 933.105 389.2C929.505 390.8 925.905 391.6 922.305 391.6C919.545 391.6 917.445 390.82 916.005 389.26C914.565 387.7 913.845 385.46 913.845 382.54C913.845 379.62 914.585 377.48 916.065 376.12C917.545 374.72 919.865 373.86 923.025 373.54L932.445 372.64V370.06C932.445 368.02 932.005 366.56 931.125 365.68C930.245 364.8 929.045 364.36 927.525 364.36C924.325 364.36 921.005 364.56 917.565 364.96L915.705 365.14L915.525 361.72C919.925 360.84 923.825 360.4 927.225 360.4C930.625 360.4 933.085 361.18 934.605 362.74C936.165 364.3 936.945 366.74 936.945 370.06ZM918.465 382.3C918.465 385.98 919.985 387.82 923.025 387.82C925.745 387.82 928.425 387.36 931.065 386.44L932.445 385.96V376.06L923.565 376.9C921.765 377.06 920.465 377.58 919.665 378.46C918.865 379.34 918.465 380.62 918.465 382.3ZM950.324 391H945.824V361H950.264V363.1C953.504 361.3 956.604 360.4 959.564 360.4C963.564 360.4 966.244 361.48 967.604 363.64C969.004 365.8 969.704 369.64 969.704 375.16V391H965.264V375.28C965.264 371.12 964.844 368.28 964.004 366.76C963.204 365.2 961.464 364.42 958.784 364.42C957.504 364.42 956.144 364.62 954.704 365.02C953.304 365.38 952.224 365.74 951.464 366.1L950.324 366.64V391ZM993.415 364.9H983.875V379.24C983.875 382.68 984.115 384.94 984.595 386.02C985.115 387.1 986.315 387.64 988.195 387.64L993.535 387.28L993.835 391C991.155 391.44 989.115 391.66 987.715 391.66C984.595 391.66 982.435 390.9 981.235 389.38C980.035 387.86 979.435 384.96 979.435 380.68V364.9H975.175V361H979.435V351.82H983.875V361H993.415V364.9Z" fill="white"/>
</g>
<defs>
<linearGradient id="paint0_linear_11_58" x1="1155" y1="289.767" x2="134.26" y2="289.767" gradientUnits="userSpaceOnUse">
<stop stop-color="#AF0801"/>
<stop offset="1" stop-color="#F1921D"/>
</linearGradient>
<linearGradient id="paint1_linear_11_58" x1="-131.802" y1="603.917" x2="345.787" y2="603.917" gradientUnits="userSpaceOnUse">
<stop stop-color="#FF9C4E"/>
<stop offset="1" stop-color="#FFD3B1"/>
</linearGradient>
<linearGradient id="paint2_linear_11_58" x1="181.998" y1="467.667" x2="373.682" y2="467.667" gradientUnits="userSpaceOnUse">
<stop stop-color="#FF9C4E"/>
<stop offset="1" stop-color="#FFD3B1"/>
</linearGradient>
<linearGradient id="paint3_linear_11_58" x1="-137.818" y1="-2.73334" x2="339.762" y2="-2.73334" gradientUnits="userSpaceOnUse">
<stop stop-color="#FF9C4E"/>
<stop offset="1" stop-color="#FFD3B1"/>
</linearGradient>
<linearGradient id="paint4_linear_11_58" x1="339.762" y1="300.975" x2="491.253" y2="300.975" gradientUnits="userSpaceOnUse">
<stop stop-color="#FF9C4E"/>
<stop offset="1" stop-color="#FFD3B1"/>
</linearGradient>
<linearGradient id="paint5_linear_11_58" x1="194.889" y1="127.167" x2="366.575" y2="127.167" gradientUnits="userSpaceOnUse">
<stop stop-color="#FF9C4E"/>
<stop offset="1" stop-color="#FFD3B1"/>
</linearGradient>
<linearGradient id="paint6_linear_11_58" x1="-236.93" y1="300.592" x2="451.387" y2="300.592" gradientUnits="userSpaceOnUse">
<stop offset="0.28" stop-color="#349F51"/>
<stop offset="1" stop-color="#9BD458"/>
</linearGradient>
<clipPath id="clip0_11_58">
<rect width="1100" height="600" fill="white"/>
</clipPath>
</defs>
</svg>
