<svg xmlns="http://www.w3.org/2000/svg" xmlns:xlink="http://www.w3.org/1999/xlink" xml:space="preserve" id="Layer_1" x="0" y="0" viewBox="0 0 350 352"><style>.st3{enable-background:new}.st4{fill:#fff}</style><defs><path id="SVGID_1_" d="M-3-2h354v354H-3z"/></defs><clipPath id="SVGID_00000121968428994711344340000008883225828425419678_"><use xlink:href="#SVGID_1_" style="overflow:visible"/></clipPath><g style="clip-path:url(#SVGID_00000121968428994711344340000008883225828425419678_)"><linearGradient id="SVGID_00000034807752989900645860000002266522690599001014_" x1="-393.31" x2="-38.27" y1="6832.25" y2="6832.25" gradientTransform="matrix(1 0 0 -1 390.62 7009.89)" gradientUnits="userSpaceOnUse"><stop offset="0" style="stop-color:#c22801"/><stop offset="1" style="stop-color:#ea8b1d"/></linearGradient><path d="M352.4-1.7h-355V357h355z" style="fill:url(#SVGID_00000034807752989900645860000002266522690599001014_)"/><linearGradient id="SVGID_00000134216787889645683000000009408329481859054979_" x1="90.364" x2="432" y1="143.844" y2="143.844" gradientTransform="matrix(1 0 0 -1 0 354)" gradientUnits="userSpaceOnUse"><stop offset="0" style="stop-color:#c22801"/><stop offset="1" style="stop-color:#ea8b1d"/></linearGradient><path d="M268 385.2h42.1c4.7 0 8 1.6 8.1 6.6.1 5.8-3.7 7.3-8.8 7.2-20.1-.1-40.3 0-60.5 0h-36.3c-5.1 0-9.1-1.3-9.1-7.1.1-5.9 4.3-6.8 9.3-6.8 13.3.1 26.6 0 40.3 0V357c-9.8-.5-19.6-.6-29.4-1.7-42.1-4.3-78.6-21-109.5-49.3-5.3-4.9-5.4-8.1-.2-13.2 6-5.9 12.2-11.6 18.5-17.6-30.6-33.3-45.3-71.7-41.7-116 3.2-38.8 19.8-71.6 48.8-98.2 54.6-49.9 144.7-56.7 209.1 1.6 5.9-5.9 11.7-12 17.7-17.9 5.5-5.4 8.9-5.5 13.9 0 48.4 53.6 64.1 115.3 41.6 183.4-22.3 67.6-71.2 108.8-141.8 124.5-12 2.7-12.1 2.3-12.1 14.7zm-100-99c6.8 3.5 12.7 7.2 19.2 9.7 20.2 7.7 14.9 9.8 26.8-8.8 13.4-21.1 12.7-41.6-3.9-61.1-5.3-6.2-10.5-12.6-15-19.4-9.9-14.9-8.9-28.8 2.7-42.5 2.7-3.2 5.6-6.3 8.8-9 6.6-5.6 14-10.3 19.9-16.4 8.1-8.3 16.8-16.8 22.3-26.8 4.4-7.9 8.3-13.8 17.3-17 11.9-4.1 18.4-13.7 20.2-25.9 1-6.8 1-13.7 1.9-20.5.6-4.4-.7-6.2-5.1-7.4-53-14.2-99.2-2.3-138.7 35.1-1.8 1.7-3.1 4.5-3.5 6.9-1.8 11.1-3.1 22.3-4.7 33.4-3.8 26.4-1.4 50.8 21.5 69.3 1.6 1.2 2.5 5.5 1.5 7.1-10.1 17.8-6.5 33.9 5.1 49.5 10 13.4 12.2 27.7 3.7 43.8M302.4 49.5c-.3 4.3-.5 8.9-.8 13.4-1.4 17.3-7.6 32.6-23.8 41-9.1 4.8-14.7 10.9-19.3 19.7-7.5 14.4-20.6 24.1-33.2 34.1-5.7 4.6-11.5 9.3-16.3 14.8-8.6 9.7-8.8 16.5-1.5 27.1 4.1 6 8.9 11.7 13.4 17.5 20.5 26.5 21.9 48.6 4.9 77.5-2.1 3.5-4.2 6.9-6.6 10.9 22.1 3.9 42.8 2.5 62.1-3.2-1.2-10.8-3.2-20.6-3.1-30.4.2-12.9 7.6-23.2 15.6-32.8 7.7-9.3 10.7-19 7.7-31.2-4.1-16.7 3.7-30.9 20.3-36.1 10.7-3.3 22.4-4.2 33.6-4.4 8.6-.2 17.3 2.4 27.3 3.9-1.8-12.2-3.6-23.9-5.4-36-3.3 1.2-5.1 1.9-6.9 2.4-28.5 9.3-55.9-7.4-58.6-36.7-1-10.8.8-22 2.6-32.8 2.4-13.9 2.9-13.8-10.7-19-.1 0-.4.1-1.3.3M128.9 298.2c68.7 61.9 173.8 58.6 239.2-7.7 65.9-66.7 64.1-168.2 4.8-230.7l-14.4 12.9c54.1 62.7 45.7 147.2-1 198.3-24.3 26.5-54.2 43.2-90.1 48.7-46.8 7.1-88.4-5.3-124.8-35-4.7 4.8-9.2 9.1-13.7 13.5m167.4-2c.8.2 1 .3 1.2.3 41.8-16.5 76.6-57.2 82.9-106.4.2-1.4-1.8-4.2-3.3-4.7-15-4.7-30.2-6.4-45.7-2.5-14.2 3.5-19 11.6-15.5 25.6 2.8 11.2 1 21.5-5.2 31-2.9 4.4-5.9 8.7-9.2 12.7-11.2 13.6-12.1 28.3-5.2 44m-172.7-192c-35.4 55.3-19.2 136.3 33.4 172.7 2.9-6.3 3.3-12.5.2-18.7-2.2-4.5-4.7-8.9-7.6-13-10.7-15.6-13.4-32-6.7-49.9.6-1.7.1-4.7-1.1-5.9-18.2-18.9-23-41.5-20.2-66.5.7-5.8 1.2-11.7 2-18.7m206.3-39c-3.8 12.9-5.9 25.2-3.8 37.7 3.6 20.7 29.1 30.8 45.6 18-8.9-21.8-22.5-40.1-41.8-55.7" style="opacity:.32;fill:url(#SVGID_00000134216787889645683000000009408329481859054979_)"/></g><g class="st3"><path d="M80.1 103.9v9.4h-4.3V87h10c5.9 0 8.9 2.8 8.9 8.4 0 3.7-1.4 6.3-4.3 7.6l4.3 10.3H90l-3.8-9.4zm10.3-8.5c0-3.1-1.5-4.7-4.5-4.7h-5.7v9.5H86c1.5 0 2.7-.4 3.4-1.3.6-.9 1-2 1-3.5" class="st4"/></g><g class="st3"><path d="m112.4 109.8 1.1-.1.1 3.1c-2.9.6-5.5.9-7.7.9-2.8 0-4.9-.8-6.1-2.3-1.2-1.6-1.9-4.1-1.9-7.5 0-6.8 2.8-10.2 8.3-10.2 5.4 0 8.1 2.9 8.1 8.8l-.3 3h-11.9c0 1.6.4 2.7 1 3.5s1.9 1.1 3.7 1.1c1.8-.1 3.7-.1 5.6-.3m-2.3-7.6c0-1.9-.3-3.2-.9-4s-1.6-1.1-3-1.1-2.5.4-3.1 1.2c-.7.8-1 2.1-1 3.9zM118.2 90.8v-4.4h4.2v4.4zm0 22.5V94.1h4.2v19.2zM131.7 113.3h-4.2V94.1h4.1v1.2c1.8-1.1 3.5-1.6 5-1.6 2.2 0 3.8.6 4.9 1.9 2.3-1.3 4.6-1.9 6.9-1.9s3.9.7 4.9 2.1c.9 1.4 1.4 3.8 1.4 7.2v10.3h-4.1v-10.2c0-2.1-.2-3.5-.6-4.4s-1.3-1.3-2.6-1.3c-1.2 0-2.4.3-3.7.8l-.7.3c.2.5.3 2.1.3 4.9v9.9h-4.1v-9.9c0-2.3-.2-3.8-.6-4.7s-1.3-1.3-2.7-1.3c-1.3 0-2.5.3-3.6.8l-.6.2zM173.8 100v8.7c0 .6.2 1 .4 1.2s.7.4 1.2.5l-.1 3.2c-2.2 0-3.9-.5-5.1-1.4-2 .9-4.1 1.4-6.2 1.4-3.8 0-5.7-2-5.7-6.1 0-1.9.5-3.3 1.6-4.2s2.6-1.4 4.8-1.6l4.9-.4V100c0-1-.2-1.7-.7-2.1-.4-.4-1.1-.6-2-.6-1.6 0-3.7.1-6.1.3l-1.2.1-.2-3c2.8-.7 5.3-1 7.7-1s4 .5 5.1 1.5 1.6 2.6 1.6 4.8m-8.6 4.7c-1.8.2-2.6 1.1-2.6 2.9s.8 2.6 2.3 2.6c1.3 0 2.6-.2 4.1-.6l.7-.2v-5.1zM195.8 115.9c0 4.2-3 6.3-9.1 6.3-2.9 0-5.1-.4-6.5-1.2s-2.1-2.2-2.1-4.3c0-.9.2-1.8.7-2.4.5-.7 1.2-1.4 2.2-2.2-.8-.6-1.3-1.5-1.3-2.8 0-.5.3-1.3 1-2.5l.3-.6c-1.8-1.1-2.8-3-2.8-5.8q0-3.45 2.1-5.1c1.4-1.1 3.2-1.6 5.6-1.6 1.1 0 2.2.1 3.3.4l.6.1 5.9-.2v3.4l-3.2-.2c.7.9 1 1.9 1 3.1 0 2.5-.6 4.2-1.9 5.2s-3.2 1.4-5.9 1.4c-.7 0-1.2-.1-1.7-.2-.4.9-.5 1.5-.5 2s.2.8.7 1 1.6.3 3.4.3c3 0 5.1.4 6.2 1.2 1.4 1 2 2.5 2 4.7m-13.6.3c0 .9.4 1.5 1.1 1.9s1.9.6 3.7.6c3.1 0 4.6-.9 4.6-2.6 0-1-.3-1.6-.8-1.9s-1.6-.4-3.3-.4l-3.8-.2c-.6.5-1 .9-1.2 1.3-.1.3-.3.8-.3 1.3m1.2-13.2c.6.5 1.5.8 2.7.8 1.3 0 2.2-.3 2.7-.8s.8-1.4.8-2.6-.3-2-.8-2.6c-.6-.5-1.5-.8-2.7-.8-2.4 0-3.5 1.1-3.5 3.4-.1 1.2.2 2 .8 2.6M199.2 90.8v-4.4h4.2v4.4zm0 22.5V94.1h4.2v19.2zM212.6 113.3h-4.2V94.1h4.1v1.2c1.9-1.1 3.6-1.6 5.3-1.6 2.6 0 4.3.7 5.2 2.2.9 1.4 1.4 3.8 1.4 7.2v10.3h-4.1v-10.2c0-2.1-.2-3.5-.7-4.4-.4-.9-1.4-1.3-2.7-1.3s-2.6.3-3.8.8l-.6.2v14.8zM229.4 90.8v-4.4h4.2v4.4zm0 22.5V94.1h4.2v19.2zM242.8 113.3h-4.2V94.1h4.1v1.2c1.9-1.1 3.6-1.6 5.3-1.6 2.6 0 4.3.7 5.2 2.2.9 1.4 1.4 3.8 1.4 7.2v10.3h-4.1v-10.2c0-2.1-.2-3.5-.7-4.4-.4-.9-1.4-1.3-2.7-1.3s-2.6.3-3.8.8l-.6.2v14.8zM276.3 115.9c0 4.2-3 6.3-9.1 6.3-2.9 0-5.1-.4-6.5-1.2s-2.1-2.2-2.1-4.3c0-.9.2-1.8.7-2.4.5-.7 1.2-1.4 2.2-2.2-.8-.6-1.3-1.5-1.3-2.8 0-.5.3-1.3 1-2.5l.3-.6c-1.8-1.1-2.8-3-2.8-5.8q0-3.45 2.1-5.1c1.4-1.1 3.2-1.6 5.6-1.6 1.1 0 2.2.1 3.3.4l.6.1 5.9-.2v3.4l-3.2-.2c.7.9 1 1.9 1 3.1 0 2.5-.6 4.2-1.9 5.2s-3.2 1.4-5.9 1.4c-.7 0-1.2-.1-1.7-.2-.4.9-.5 1.5-.5 2s.2.8.7 1 1.6.3 3.4.3c3 0 5.1.4 6.2 1.2 1.4 1 2 2.5 2 4.7m-13.6.3c0 .9.4 1.5 1.1 1.9s1.9.6 3.7.6c3.1 0 4.6-.9 4.6-2.6 0-1-.3-1.6-.8-1.9s-1.6-.4-3.3-.4l-3.8-.2c-.6.5-1 .9-1.2 1.3-.2.3-.3.8-.3 1.3m1.2-13.2c.6.5 1.5.8 2.7.8s2.2-.3 2.7-.8.8-1.4.8-2.6-.3-2-.8-2.6c-.6-.5-1.5-.8-2.7-.8-2.4 0-3.5 1.1-3.5 3.4-.1 1.2.2 2 .8 2.6" class="st4"/></g><g class="st3"><path d="m88 152.8 1.1-.1.1 3.1c-2.9.6-5.5.9-7.7.9-2.8 0-4.9-.8-6.1-2.3-1.2-1.6-1.9-4.1-1.9-7.5 0-6.8 2.8-10.2 8.3-10.2 5.4 0 8.1 2.9 8.1 8.8l-.3 3h-12c0 1.6.4 2.7 1 3.5.7.7 1.9 1.1 3.7 1.1 1.9-.1 3.8-.1 5.7-.3m-2.3-7.6c0-1.9-.3-3.2-.9-4s-1.6-1.1-3-1.1-2.5.4-3.1 1.2c-.7.8-1 2.1-1 3.9zM93.6 147.8V144h11.5v3.8z" class="st4"/></g><g class="st3"><path d="M117.1 136.7c1.4 0 3 .2 4.8.5l1 .2-.2 3.3q-3-.3-4.5-.3c-1.9 0-3.2.4-3.9 1.3s-1 2.5-1 4.9.3 4.1 1 5c.6.9 2 1.4 4 1.4l4.5-.3.1 3.3c-2.6.5-4.5.7-5.8.7-2.9 0-5-.8-6.2-2.4s-1.8-4.1-1.8-7.7.6-6.1 1.9-7.6c1.2-1.6 3.3-2.3 6.1-2.3" class="st4"/></g><g class="st3"><path d="M127.8 139.2c1.3-1.7 3.5-2.5 6.6-2.5s5.3.8 6.6 2.5 2 4.2 2 7.5-.6 5.8-1.9 7.5-3.5 2.5-6.6 2.5-5.4-.8-6.6-2.5c-1.3-1.7-1.9-4.2-1.9-7.5s.5-5.9 1.8-7.5m3.1 12.4c.6 1 1.7 1.5 3.5 1.5 1.7 0 2.9-.5 3.5-1.5s.9-2.7.9-5-.3-4-.9-4.9c-.6-1-1.8-1.5-3.4-1.5s-2.8.5-3.4 1.5-.9 2.6-.9 4.9c-.2 2.3.1 4 .7 5M151.2 156.3H147v-19.2h4.1v1.2c1.8-1.1 3.5-1.6 5-1.6 2.2 0 3.8.6 4.9 1.9 2.3-1.3 4.6-1.9 6.9-1.9s3.9.7 4.9 2.1c.9 1.4 1.4 3.8 1.4 7.2v10.3h-4.1v-10.2c0-2.1-.2-3.5-.6-4.4s-1.3-1.3-2.6-1.3c-1.1 0-2.4.3-3.7.8l-.7.3c.2.5.3 2.1.3 4.9v9.9h-4.1v-9.9c0-2.3-.2-3.8-.6-4.7s-1.3-1.3-2.7-1.3c-1.3 0-2.5.3-3.6.8l-.6.2zM183.3 156.3h-4.2v-19.2h4.1v1.2c1.8-1.1 3.5-1.6 5-1.6 2.2 0 3.8.6 4.9 1.9 2.3-1.3 4.6-1.9 6.9-1.9s3.9.7 4.9 2.1c.9 1.4 1.4 3.8 1.4 7.2v10.3h-4.1v-10.2c0-2.1-.2-3.5-.6-4.4s-1.3-1.3-2.6-1.3c-1.2 0-2.4.3-3.7.8l-.7.3c.2.5.3 2.1.3 4.9v9.9h-4.1v-9.9c0-2.3-.2-3.8-.6-4.7s-1.3-1.3-2.7-1.3c-1.3 0-2.5.3-3.6.8l-.6.2zM224.9 152.8l1.1-.1.1 3.1c-2.9.6-5.5.9-7.7.9-2.8 0-4.9-.8-6.1-2.3-1.2-1.6-1.9-4.1-1.9-7.5 0-6.8 2.8-10.2 8.3-10.2 5.4 0 8.1 2.9 8.1 8.8l-.3 3h-11.9c0 1.6.4 2.7 1 3.5.7.7 1.9 1.1 3.7 1.1 1.9-.1 3.7-.1 5.6-.3m-2.3-7.6c0-1.9-.3-3.2-.9-4s-1.6-1.1-3-1.1-2.5.4-3.1 1.2-1 2.1-1 3.9z" class="st4"/></g><g class="st3"><path d="M230.8 156.3v-19.2h4.1v2.3c2.2-1.4 4.3-2.3 6.5-2.7v4.2c-2.2.4-4.1 1-5.6 1.7l-.8.3v13.4z" class="st4"/></g><g class="st3"><path d="M251.6 136.7c1.4 0 3 .2 4.8.5l1 .2-.2 3.3q-3-.3-4.5-.3c-1.9 0-3.2.4-3.9 1.3s-1 2.5-1 4.9.3 4.1 1 5c.6.9 2 1.4 4 1.4l4.5-.3.1 3.3c-2.6.5-4.5.7-5.8.7-2.9 0-5-.8-6.2-2.4s-1.8-4.1-1.8-7.7.6-6.1 1.9-7.6c1.3-1.6 3.3-2.3 6.1-2.3" class="st4"/></g><g class="st3"><path d="m274.9 152.8 1.1-.1.1 3.1c-2.9.6-5.5.9-7.7.9-2.8 0-4.9-.8-6.1-2.3-1.2-1.6-1.9-4.1-1.9-7.5 0-6.8 2.8-10.2 8.3-10.2 5.4 0 8.1 2.9 8.1 8.8l-.3 3h-11.9c0 1.6.4 2.7 1 3.5s1.9 1.1 3.7 1.1c1.8-.1 3.7-.1 5.6-.3m-2.3-7.6c0-1.9-.3-3.2-.9-4s-1.6-1.1-3-1.1-2.5.4-3.1 1.2c-.7.8-1 2.1-1 3.9z" class="st4"/></g><g class="st3"><path d="M55.4 186v8.7c0 .6.2 1 .4 1.2.3.3.7.4 1.2.5l-.1 3.2c-2.2 0-3.9-.5-5.1-1.4-2 .9-4.1 1.4-6.2 1.4-3.8 0-5.7-2-5.7-6.1 0-1.9.5-3.3 1.6-4.2s2.6-1.4 4.8-1.6l4.9-.4V186c0-1-.2-1.7-.7-2.1-.4-.4-1.1-.6-2-.6-1.6 0-3.7.1-6.1.3l-1.2.1-.2-3c2.8-.7 5.3-1 7.7-1s4 .5 5.1 1.5 1.6 2.6 1.6 4.8m-8.6 4.8c-1.8.2-2.6 1.1-2.6 2.9s.8 2.6 2.3 2.6c1.3 0 2.6-.2 4.1-.6l.7-.2v-5.1zM64.9 199.3h-4.2v-19.2h4.1v1.2c1.9-1.1 3.6-1.6 5.3-1.6 2.6 0 4.3.7 5.2 2.2.9 1.4 1.4 3.8 1.4 7.2v10.3h-4.1v-10.2c0-2.1-.2-3.5-.7-4.4-.4-.9-1.4-1.3-2.7-1.3s-2.6.3-3.8.8l-.6.2v14.8zM97.3 172.1v27.1h-4.1v-1c-1.9.9-3.6 1.4-5.1 1.4-2.5 0-4.3-.8-5.5-2.3s-1.7-4-1.7-7.6.6-6.1 1.9-7.7q1.95-2.4 6-2.4c.9 0 2.4.2 4.4.5V172h4.1zm-4.9 23.2.7-.3v-11.3c-1.5-.3-3-.4-4.3-.4-2.6 0-3.9 2.1-3.9 6.4 0 2.4.3 4 .9 4.9s1.6 1.4 2.9 1.4 2.5-.3 3.7-.7M124.1 184q-4.5-.6-6.6-.6c-1.4 0-2.3.2-2.8.5s-.8.8-.8 1.5q0 1.05.9 1.5c.9.45 1.9.6 4.1 1 2.1.4 3.6 1 4.5 1.7.9.8 1.3 2.2 1.3 4.2s-.6 3.5-1.9 4.4-3.2 1.4-5.7 1.4c-1.6 0-3.5-.2-5.9-.7l-1.2-.2.2-3.5q4.65.6 6.6.6c1.4 0 2.3-.2 2.9-.5s.9-.9.9-1.6c0-.8-.3-1.3-.8-1.6s-1.9-.6-3.9-1c-2.1-.3-3.6-.9-4.6-1.6s-1.5-2.1-1.5-4.1.7-3.4 2-4.4 3.1-1.5 5.2-1.5q2.4 0 6 .6l1.2.2zM129.8 182.2c1.3-1.7 3.5-2.5 6.6-2.5s5.3.8 6.6 2.5 2 4.2 2 7.5-.6 5.8-1.9 7.5-3.5 2.5-6.6 2.5-5.4-.8-6.6-2.5c-1.3-1.7-1.9-4.2-1.9-7.5s.5-5.9 1.8-7.5m3.1 12.4c.6 1 1.7 1.5 3.5 1.5 1.7 0 2.9-.5 3.5-1.5s.9-2.7.9-5-.3-4-.9-4.9c-.6-1-1.8-1.5-3.4-1.5s-2.8.5-3.4 1.5-.9 2.6-.9 4.9c-.2 2.3.1 4 .7 5M156.2 179.7c1.4 0 3 .2 4.8.5l1 .2-.2 3.3q-3-.3-4.5-.3c-1.9 0-3.2.4-3.9 1.3s-1 2.5-1 4.9.3 4.1 1 5c.6.9 2 1.4 4 1.4l4.5-.3.1 3.3c-2.6.5-4.5.7-5.8.7-2.9 0-5-.8-6.2-2.4s-1.8-4.1-1.8-7.7.6-6.1 1.9-7.6c1.2-1.6 3.3-2.3 6.1-2.3M166 176.8v-4.4h4.2v4.4zm0 22.5v-19.2h4.2v19.2zM189.4 186v8.7c0 .6.2 1 .4 1.2.3.3.7.4 1.2.5l-.1 3.2c-2.2 0-3.9-.5-5.1-1.4-2 .9-4.1 1.4-6.2 1.4-3.8 0-5.7-2-5.7-6.1 0-1.9.5-3.3 1.6-4.2 1-.9 2.6-1.4 4.8-1.6l4.9-.4V186c0-1-.2-1.7-.7-2.1s-1.1-.6-2-.6c-1.6 0-3.7.1-6.1.3l-1.2.1-.2-3c2.8-.7 5.3-1 7.7-1s4 .5 5.1 1.5 1.6 2.6 1.6 4.8m-8.6 4.8c-1.8.2-2.6 1.1-2.6 2.9s.8 2.6 2.3 2.6c1.3 0 2.6-.2 4.1-.6l.7-.2v-5.1zM194.9 199.3v-27.1h4.2v27.1zM217 199.3h-4.2v-19.2h4.1v1.2c1.8-1.1 3.5-1.6 5-1.6 2.2 0 3.8.6 4.9 1.9 2.3-1.3 4.6-1.9 6.9-1.9s3.9.7 4.9 2.1c.9 1.4 1.4 3.8 1.4 7.2v10.3h-4.1v-10.2c0-2.1-.2-3.5-.6-4.4s-1.3-1.3-2.6-1.3c-1.2 0-2.4.3-3.7.8l-.7.3c.2.5.3 2.1.3 4.9v9.9h-4.1v-9.9c0-2.3-.2-3.8-.6-4.7s-1.3-1.3-2.7-1.3c-1.3 0-2.5.3-3.6.8l-.6.2zM258.6 195.8l1.1-.1.1 3.1c-2.9.6-5.5.9-7.7.9-2.8 0-4.9-.8-6.1-2.3s-1.9-4.1-1.9-7.5c0-6.8 2.8-10.2 8.3-10.2 5.4 0 8.1 2.9 8.1 8.8l-.3 3h-11.9c0 1.6.4 2.7 1 3.5.7.7 1.9 1.1 3.7 1.1 1.8-.1 3.7-.1 5.6-.3m-2.3-7.6c0-1.9-.3-3.2-.9-4s-1.6-1.1-3-1.1-2.5.4-3.1 1.2c-.7.8-1 2.1-1 3.9zM280.1 172.1v27.1H276v-1c-1.9.9-3.6 1.4-5.1 1.4-2.5 0-4.3-.8-5.5-2.3s-1.7-4-1.7-7.6.6-6.1 1.9-7.7q1.95-2.4 6-2.4c.9 0 2.4.2 4.4.5V172h4.1zm-4.9 23.2.7-.3v-11.3c-1.5-.3-3-.4-4.3-.4-2.6 0-3.9 2.1-3.9 6.4 0 2.4.3 4 .9 4.9s1.6 1.4 2.9 1.4 2.5-.3 3.7-.7M285.1 176.8v-4.4h4.2v4.4zm0 22.5v-19.2h4.2v19.2zM308.5 186v8.7c0 .6.2 1 .4 1.2.3.3.7.4 1.2.5l-.1 3.2c-2.2 0-3.9-.5-5.1-1.4-2 .9-4.1 1.4-6.2 1.4-3.8 0-5.7-2-5.7-6.1 0-1.9.5-3.3 1.6-4.2s2.6-1.4 4.8-1.6l4.9-.4V186c0-1-.2-1.7-.7-2.1-.4-.4-1.1-.6-2-.6-1.6 0-3.7.1-6.1.3l-1.2.1-.2-3c2.8-.7 5.3-1 7.7-1s4 .5 5.1 1.5 1.6 2.6 1.6 4.8m-8.5 4.8c-1.8.2-2.6 1.1-2.6 2.9s.8 2.6 2.3 2.6c1.3 0 2.6-.2 4.1-.6l.7-.2v-5.1z" class="st4"/></g><g class="st3"><path d="M109.8 258v-1.8h6.2v11.1c-.6.1-1.8.3-3.4.5s-2.9.3-4 .3c-3.3 0-5.6-1-6.8-2.9-1.3-1.9-1.9-4.9-1.9-8.8 0-2 .1-3.6.4-5s.7-2.6 1.4-3.7c1.3-2.1 3.6-3.2 6.9-3.2q3.15 0 6.3.6l1.1.2-.1 1.7c-2.7-.5-5.1-.8-7.1-.8q-4.05 0-5.4 2.4c-.9 1.6-1.4 4.1-1.4 7.6s.5 6 1.4 7.5 2.7 2.3 5.3 2.3c1.6 0 3.3-.2 5.2-.5V258z" class="st4"/></g><g class="st3"><path d="M132 256.2v8.8c.1.8.8 1.3 2.1 1.4l-.1 1.6c-1.7 0-2.9-.4-3.7-1.3-2.1.9-4.1 1.3-6.2 1.3-1.5 0-2.6-.4-3.4-1.3-.8-.8-1.2-2.1-1.2-3.6 0-1.6.4-2.7 1.2-3.5s2-1.2 3.7-1.4l5.6-.6v-1.5c0-1.2-.3-2.1-.8-2.7-.5-.5-1.3-.8-2.2-.8-1.4 0-3.2.1-5.5.4l-1 .1-.1-1.6c2.4-.5 4.5-.7 6.3-.7s3.1.4 3.9 1.3c1 1 1.4 2.3 1.4 4.1m-10.3 6.8q0 3.3 2.7 3.3c.8 0 1.7-.1 2.6-.3s1.7-.4 2.2-.6l.8-.3v-6l-5.4.6c-1.1.1-1.8.4-2.3.9-.4.7-.6 1.4-.6 2.4" class="st4"/></g><g class="st3"><path d="M135.4 251.2h2.2l4.1 14.7h1.3l4.3-14.7h2l-4.8 16.5h-4.3zM152.7 247.1v-2.5h1.9v2.5zm0 20.6v-16.5h1.9v16.5zM161.5 267.7h-1.9v-16.5h1.9v1.2q2.7-1.5 5.4-1.5c2.2 0 3.7.6 4.4 1.7.7 1.2 1.1 3.3 1.1 6.4v8.7h-2v-8.6c0-2.5-.2-4.2-.7-5.1s-1.5-1.3-3.1-1.3q-1.2 0-2.4.3c-1.2.3-1.5.5-2 .7l-.7.3zM198.4 267.3c-2.3.5-4.2.7-5.8.7s-2.9-.2-3.9-.5-1.8-.8-2.4-1.4-1.1-1.4-1.4-2.4c-.7-1.8-1-4.2-1-7.3 0-5 .8-8.2 2.4-9.8 1.3-1.3 3.3-2 5.9-2 1.8 0 3.9.2 6.2.7l-.1 1.8c-2.3-.4-4.1-.6-5.5-.6s-2.5.1-3.2.4q-1.2.45-1.8 1.2c-.5.5-.8 1.2-1.1 2.1-.4 1.5-.7 3.4-.7 5.6s.1 3.9.2 5q.3 1.65.9 3c.4.9 1.1 1.5 1.9 1.9.9.4 2 .6 3.6.6s3.4-.2 5.7-.6zM204.2 267.7h-1.9v-23.8h1.9v8.3c1.8-.9 3.6-1.3 5.3-1.3 2.2 0 3.7.6 4.4 1.7.7 1.2 1.1 3.3 1.1 6.4v8.7h-2v-8.6c0-2.5-.2-4.2-.7-5.1s-1.5-1.3-3.1-1.3q-1.2 0-2.4.3c-.8.2-1.5.4-2 .6l-.7.3v13.8zM231.1 256.2v8.8c.1.8.8 1.3 2.1 1.4l-.1 1.6c-1.7 0-2.9-.4-3.7-1.3-2.1.9-4.1 1.3-6.2 1.3-1.5 0-2.6-.4-3.4-1.3-.8-.8-1.2-2.1-1.2-3.6 0-1.6.4-2.7 1.2-3.5s2-1.2 3.7-1.4l5.6-.6v-1.5c0-1.2-.3-2.1-.8-2.7-.5-.5-1.3-.8-2.2-.8-1.4 0-3.2.1-5.5.4l-1 .1-.1-1.6c2.4-.5 4.5-.7 6.3-.7s3.1.4 3.9 1.3c1 1 1.4 2.3 1.4 4.1m-10.3 6.8q0 3.3 2.7 3.3c.8 0 1.7-.1 2.6-.3s1.7-.4 2.2-.6l.8-.3v-6l-5.4.6c-1.1.1-1.8.4-2.3.9-.4.7-.6 1.4-.6 2.4M236.2 247.1v-2.5h1.9v2.5zm0 20.6v-16.5h1.9v16.5zM251.4 253h-5.5v8.1c0 2.1.2 3.5.5 4.2s1 1 2.2 1l3-.2.1 1.7c-1.4.2-2.6.3-3.3.3-1.7 0-2.8-.4-3.5-1.2-.6-.8-1-2.4-1-4.7V253h-2.4v-1.7h2.4v-5.2h2v5.2h5.5z" class="st4"/></g></svg>