<svg xmlns="http://www.w3.org/2000/svg" xmlns:xlink="http://www.w3.org/1999/xlink" xml:space="preserve" id="Layer_1" x="0" y="0" viewBox="0 0 1616.8 881"><style>.st3{enable-background:new}.st4{fill:#fff}</style><linearGradient id="SVGID_1_" x1="-390.46" x2="1226.54" y1="7097.39" y2="7097.39" gradientTransform="matrix(1 0 0 -1 390.62 7537.89)" gradientUnits="userSpaceOnUse"><stop offset="0" style="stop-color:#c22801"/><stop offset="1" style="stop-color:#ea8b1d"/></linearGradient><path d="M1617.2 0H.2v881h1617z" style="fill:url(#SVGID_1_)"/><defs><path id="SVGID_00000098928144006996823260000001312685621607024821_" d="M.2 0h1617v881H.2z"/></defs><clipPath id="SVGID_00000166645207176098749610000015573010276038185401_"><use xlink:href="#SVGID_00000098928144006996823260000001312685621607024821_" style="overflow:visible"/></clipPath><g style="clip-path:url(#SVGID_00000166645207176098749610000015573010276038185401_)"><linearGradient id="SVGID_00000039848361182132266770000002590841709416539034_" x1="3642.262" x2="4643.029" y1="-2313.569" y2="-2313.569" gradientTransform="matrix(.9992 -.041 -.041 -.9992 -4004.582 -1639.963)" gradientUnits="userSpaceOnUse"><stop offset="0" style="stop-color:#c22801"/><stop offset="1" style="stop-color:#ea8b1d"/></linearGradient><path d="M261.5 1007.2c42.7-2.3 82.9-4.5 123.1-6.8 13.7-.8 23.6 3.3 24.4 17.9.9 16.8-10.2 21.7-25.2 22.4-58.9 3.1-117.9 6.4-176.8 9.6-35.4 1.9-70.7 3.7-106.1 5.9-14.8.9-26.8-2.4-27-19.1-.3-17 12.2-20.5 26.7-21.2 38.9-1.9 77.9-4.2 118-6.4-.8-28.1-1.5-54.4-2.2-81.9-28.6 0-57.5 1.3-86.3-.1C6.5 921.7-101.4 879.2-194.1 802c-15.8-13.2-16.3-22.7-1.8-38.1 17.1-18 34.7-35.6 52.8-54.1C-235.3 618-281.3 509.1-274.2 380-268 266.9-222 169.2-139.3 87.5 16.3-66.1 279.4-100 472.5 58.6 489.2 40.4 505.8 22 522.8 4c15.6-16.5 25.5-17.3 40.5-2.2C709 149.4 759.7 326 699.3 527.2 639.4 726.7 499.7 854 294.3 911c-34.9 9.7-35.2 8.7-34.2 44.5.4 16.2.9 32.5 1.4 51.7M-38.9 736.1c20.2 9 37.8 19 56.8 25 59.6 19 44.3 26.2 77.7-29.8 37.7-63.3 33.8-122.8-16.1-176.7-15.9-17.2-31.7-34.8-45.4-53.8C4.1 459 6 418.7 38.7 376.9c7.6-9.7 16-19.1 25.1-27.5 18.8-17.3 40.1-32.2 57-50.9 23.1-25.5 47.7-51.5 63.1-81.3 12.2-23.6 23.1-41.4 49.3-52 34.5-13.9 52.8-42.6 57.1-78.4 2.4-19.8 1.8-39.9 4-59.8 1.4-12.7-2.6-18-15.5-20.7-156.2-32.6-290.3 9.2-402.8 124-5.1 5.2-8.7 13.4-9.7 20.6-4.3 32.5-7.2 65.1-11 97.7-8.9 77.1-.2 147.7 68.3 197.7 4.6 3.4 7.7 15.4 5.1 20.4-28.2 53.2-16.2 99.4 18.7 142.9 29.9 37.2 37.5 78.5 13.7 126.5M335.8 27.8c-.4 12.7-.6 25.8-1.3 39-2.6 50.5-19.7 95.6-66.2 122.8-26.3 15.3-42.3 34.2-55 60.4-20.8 43-58.4 73.1-94.3 104.2-16.4 14.2-32.9 28.9-46.6 45.4-24.4 29.5-24.5 49.3-2.4 78.8 12.6 16.8 26.8 32.5 40.4 48.6 62 73.6 67.9 137.5 20.5 224-5.7 10.4-11.7 20.7-18.5 32.7 64.8 7.8 125.3.5 181.5-19.2-4.3-31.1-11.1-59.3-11.4-87.8-.4-37.3 20.5-68.5 43.1-97.6 21.8-28.2 29.8-56.9 20.1-91.9-13.2-47.7 8.3-90.3 56.4-107.9 30.9-11.3 65.1-15.8 98.1-18.3 25.2-1.9 50.8 4.2 80.1 7-6.3-35.1-12.4-68.8-18.7-103.5-9.6 3.9-14.8 6.2-20 8.2-82.7 31.5-164.2-12.4-174.3-96.9-3.7-31.1.6-63.9 5.1-95.5 5.8-40.6 7.5-40.5-32.9-53.3-.4-.1-1.1.2-3.7.8m-487.9 749.4c205.6 168.5 512.7 142.2 699-60.7 187.4-204.1 174.2-498.2-4.1-669.9-13.7 13.2-27.4 26.4-41 39.6C665 259.4 647 505.8 514.3 661.5c-68.9 80.8-155.2 134-259.5 155.6-136.4 28.2-259-1.2-367.6-81.4-13.9 14.6-26.6 28.1-39.3 41.5m489.2-32.7c2.3.4 3 .8 3.4.6 121-54.6 219.6-178.3 234-322 .4-4.2-5.6-11.9-10.1-13-44.1-11.1-89-13.6-133.8 0-41.2 12.5-54.7 36.7-43.3 76.6 9.1 32 4.7 62.1-12.9 90.8-8 13.1-16.5 26.1-25.8 38.4-31.4 41.4-32.8 84.1-11.5 128.6M-183 215.3c-99.2 166-45.3 398.4 111.4 495.6 7.8-18.7 8.7-36.9-.9-54.2-6.9-12.6-14.5-25-23.2-36.5-32.6-43.4-41.7-90.8-23.6-143.6 1.7-4.9-.1-13.6-3.7-17-54.7-51.8-70.5-116.8-64.3-189.6 1.5-17.2 2.7-34.4 4.3-54.7M417.2 69c-10.1 38-15.4 74.1-8.1 109.9 12 59.6 87.6 84.6 134.9 44.9-27.6-61.7-69.1-112.6-126.8-154.8" style="opacity:.7;fill:url(#SVGID_00000039848361182132266770000002590841709416539034_)"/></g><g class="st3"><path d="M916.7 278.4v19.5h-8.9V243h20.8c12.4 0 18.6 5.8 18.6 17.5q0 11.7-9 15.9l9.1 21.6h-9.8l-7.9-19.5h-12.9zm21.4-17.8c0-6.6-3.2-9.9-9.5-9.9h-11.9v19.9h12.1c3.2 0 5.6-.9 7.1-2.8 1.5-1.7 2.2-4.2 2.2-7.2" class="st4"/></g><g class="st3"><path d="m984.2 290.7 2.2-.2.2 6.5q-9.15 1.8-16.2 1.8c-5.9 0-10.2-1.6-12.8-4.9q-3.9-4.95-3.9-15.6 0-21.3 17.4-21.3 16.8 0 16.8 18.3l-.6 6.2h-24.8c.1 3.3.8 5.7 2.2 7.3 1.4 1.5 4 2.3 7.8 2.3 3.8.1 7.7-.1 11.7-.4m-4.8-15.8c0-4-.6-6.7-1.9-8.3s-3.4-2.4-6.4-2.4-5.2.8-6.5 2.5c-1.4 1.7-2.1 4.4-2.1 8.2zM996.4 251.1v-9.2h8.7v9.2zm0 46.8v-40.1h8.7v40.1zM1024.4 297.9h-8.7v-40.1h8.7v2.5c3.8-2.2 7.3-3.4 10.4-3.4q6.9 0 10.2 3.9c4.9-2.6 9.7-3.9 14.5-3.9s8.2 1.5 10.2 4.4q3 4.5 3 15v21.5h-8.7v-21.2c0-4.3-.4-7.4-1.3-9.2s-2.7-2.7-5.5-2.7c-2.4 0-5 .5-7.8 1.6l-1.4.6c.4 1.1.6 4.5.6 10.3V298h-8.7v-20.6c0-4.8-.4-8-1.3-9.9-.9-1.8-2.7-2.7-5.6-2.7-2.7 0-5.2.5-7.5 1.6l-1.2.5v31zM1112.5 270.2v18.3c.1 1.2.4 2 .9 2.6.6.6 1.4.9 2.6 1.1l-.2 6.6c-4.6 0-8.1-1-10.7-3q-6.45 3-12.9 3c-8 0-11.9-4.2-11.9-12.7 0-4.1 1.1-7 3.2-8.8 2.2-1.8 5.5-2.9 10-3.3l10.3-.9v-2.9c0-2.1-.5-3.6-1.4-4.5s-2.3-1.3-4.1-1.3c-3.4 0-7.7.2-12.8.6l-2.6.2-.3-6.2c5.8-1.4 11.2-2.1 16.1-2.1s8.4 1.1 10.6 3.2c2.1 2.2 3.2 5.5 3.2 10.1m-18 9.9c-3.7.3-5.5 2.3-5.5 6s1.6 5.5 4.9 5.5c2.7 0 5.5-.4 8.5-1.3l1.4-.5v-10.7zM1158.4 303.4c0 8.8-6.3 13.1-19 13.1-6.1 0-10.6-.8-13.5-2.5s-4.4-4.7-4.4-9.1c0-2 .5-3.7 1.4-5.1 1-1.4 2.5-3 4.6-4.6-1.8-1.2-2.6-3.1-2.6-5.8 0-1.1.7-2.8 2.2-5.2l.7-1.2c-3.8-2.3-5.8-6.3-5.8-12 0-4.8 1.4-8.3 4.3-10.6 2.9-2.2 6.8-3.4 11.7-3.4 2.4 0 4.7.3 7 .8l1.2.2 12.4-.3v7l-6.6-.4c1.4 1.9 2.2 4.1 2.2 6.6 0 5.2-1.3 8.9-4 10.9s-6.8 3-12.4 3c-1.4 0-2.6-.1-3.5-.3-.7 1.8-1.1 3.2-1.1 4.2s.5 1.7 1.5 2q1.5.6 7.2.6c6.4.1 10.7.9 13.1 2.6 2.3 1.8 3.4 4.9 3.4 9.5m-28.3.8c0 1.9.7 3.2 2.2 4s4.1 1.2 7.7 1.2c6.5 0 9.7-1.8 9.7-5.5 0-2.1-.6-3.4-1.7-4q-1.65-.9-6.9-.9l-7.9-.5c-1.2 1-2 1.9-2.5 2.7q-.6 1.2-.6 3m2.4-27.8c1.2 1.1 3.1 1.7 5.7 1.7s4.5-.6 5.6-1.7 1.7-3 1.7-5.4-.6-4.3-1.8-5.4-3.1-1.7-5.7-1.7c-4.9 0-7.4 2.4-7.4 7.1.1 2.5.7 4.3 1.9 5.4M1165.5 251.1v-9.2h8.7v9.2zm0 46.8v-40.1h8.7v40.1zM1193.5 297.9h-8.7v-40.1h8.7v2.5c3.9-2.2 7.6-3.4 11.1-3.4 5.3 0 9 1.5 10.9 4.5s2.9 8 2.9 14.9v21.5h-8.7v-21.2c0-4.3-.5-7.4-1.4-9.2q-1.35-2.7-5.7-2.7c-2.7 0-5.3.5-7.9 1.6l-1.2.5zM1228.5 251.1v-9.2h8.7v9.2zm0 46.8v-40.1h8.7v40.1zM1256.6 297.9h-8.7v-40.1h8.7v2.5c3.9-2.2 7.6-3.4 11.1-3.4 5.3 0 9 1.5 10.9 4.5s2.9 8 2.9 14.9v21.5h-8.7v-21.2c0-4.3-.5-7.4-1.4-9.2q-1.35-2.7-5.7-2.7c-2.7 0-5.3.5-7.9 1.6l-1.2.5zM1326.6 303.4c0 8.8-6.3 13.1-19 13.1-6.1 0-10.6-.8-13.5-2.5s-4.4-4.7-4.4-9.1c0-2 .5-3.7 1.4-5.1 1-1.4 2.5-3 4.6-4.6-1.8-1.2-2.6-3.1-2.6-5.8 0-1.1.7-2.8 2.2-5.2l.7-1.2c-3.8-2.3-5.8-6.3-5.8-12 0-4.8 1.4-8.3 4.3-10.6 2.9-2.2 6.8-3.4 11.7-3.4 2.3 0 4.7.3 7 .8l1.2.2 12.4-.3v7l-6.7-.4c1.4 1.9 2.2 4.1 2.2 6.6 0 5.2-1.3 8.9-4 10.9-2.6 2-6.8 3-12.4 3-1.4 0-2.6-.1-3.5-.3-.7 1.8-1.1 3.2-1.1 4.2s.5 1.7 1.5 2q1.5.6 7.2.6c6.4.1 10.7.9 13.1 2.6 2.3 1.8 3.5 4.9 3.5 9.5m-28.4.8c0 1.9.7 3.2 2.2 4s4.1 1.2 7.7 1.2c6.5 0 9.7-1.8 9.7-5.5 0-2.1-.6-3.4-1.7-4s-3.4-.9-6.8-.9l-7.9-.5c-1.2 1-2 1.9-2.5 2.7-.4.8-.7 1.8-.7 3m2.5-27.8c1.2 1.1 3.1 1.7 5.7 1.7s4.5-.6 5.6-1.7 1.7-3 1.7-5.4-.6-4.3-1.8-5.4-3.1-1.7-5.7-1.7c-4.9 0-7.4 2.4-7.4 7.1.1 2.5.7 4.3 1.9 5.4" class="st4"/></g><g class="st3"><path d="m935.3 380.6 2.2-.2.2 6.5q-9.15 1.8-16.2 1.8c-5.9 0-10.2-1.6-12.8-4.9q-3.9-4.95-3.9-15.6 0-21.3 17.4-21.3 16.8 0 16.8 18.3l-.6 6.2h-24.8c.1 3.3.8 5.7 2.2 7.3 1.4 1.5 4 2.3 7.8 2.3 3.8.1 7.7-.1 11.7-.4m-4.8-15.9c0-4-.6-6.7-1.9-8.3s-3.4-2.4-6.4-2.4-5.2.8-6.5 2.5c-1.4 1.7-2.1 4.4-2.1 8.2zM947.1 370.2v-7.9h24v7.9z" class="st4"/></g><g class="st3"><path d="M996.2 346.9c2.8 0 6.2.4 10 1.1l2 .4-.3 6.9c-4.2-.4-7.3-.6-9.4-.6-4.1 0-6.8.9-8.2 2.7s-2.1 5.2-2.1 10.3c0 5 .7 8.5 2 10.4s4.1 2.9 8.3 2.9l9.4-.6.2 7c-5.4 1-9.5 1.4-12.2 1.4-6.1 0-10.4-1.6-12.9-4.9s-3.7-8.7-3.7-16.1c0-7.5 1.3-12.8 3.9-16 2.8-3.4 7.1-4.9 13-4.9" class="st4"/></g><g class="st3"><path d="M1018.4 352.1c2.8-3.5 7.3-5.2 13.7-5.2s11 1.7 13.7 5.2c2.8 3.5 4.1 8.7 4.1 15.6s-1.3 12.2-4 15.7-7.3 5.3-13.9 5.3-11.2-1.8-13.9-5.3-4-8.8-4-15.7c.2-7 1.6-12.2 4.3-15.6m6.6 26c1.2 2.1 3.6 3.2 7.2 3.2s6-1.1 7.2-3.2q1.8-3.15 1.8-10.5c0-4.9-.7-8.3-2-10.3s-3.7-3-7.1-3-5.8 1-7.1 3-2 5.5-2 10.3c.1 4.9.7 8.4 2 10.5M1067.4 387.8h-8.7v-40.1h8.7v2.5c3.8-2.2 7.3-3.4 10.4-3.4q6.9 0 10.2 3.9c4.9-2.6 9.7-3.9 14.5-3.9s8.2 1.5 10.2 4.4q3 4.5 3 15v21.5h-8.7v-21.2c0-4.3-.4-7.4-1.3-9.2s-2.7-2.7-5.5-2.7c-2.4 0-5 .5-7.8 1.6l-1.4.6c.4 1.1.6 4.5.6 10.3v20.8h-8.7v-20.6c0-4.8-.4-8-1.3-9.9-.9-1.8-2.7-2.7-5.6-2.7-2.7 0-5.2.5-7.5 1.6l-1.2.5v31zM1134.6 387.8h-8.7v-40.1h8.7v2.5c3.8-2.2 7.3-3.4 10.4-3.4q6.9 0 10.2 3.9c4.9-2.6 9.7-3.9 14.5-3.9s8.2 1.5 10.2 4.4q3 4.5 3 15v21.5h-8.7v-21.2c0-4.3-.4-7.4-1.3-9.2s-2.7-2.7-5.5-2.7c-2.4 0-5 .5-7.8 1.6l-1.4.6c.4 1.1.6 4.5.6 10.3v20.8h-8.7v-20.6c0-4.8-.4-8-1.3-9.9-.9-1.8-2.7-2.7-5.6-2.7-2.7 0-5.2.5-7.5 1.6l-1.2.5v31zM1221.5 380.6l2.2-.2.2 6.5q-9.15 1.8-16.2 1.8c-5.9 0-10.2-1.6-12.8-4.9q-3.9-4.95-3.9-15.6 0-21.3 17.4-21.3 16.8 0 16.8 18.3l-.6 6.2h-24.8c.1 3.3.8 5.7 2.2 7.3 1.4 1.5 4 2.3 7.8 2.3 3.8.1 7.7-.1 11.7-.4m-4.8-15.9c0-4-.6-6.7-1.9-8.3s-3.4-2.4-6.4-2.4-5.2.8-6.5 2.5c-1.4 1.7-2.1 4.4-2.1 8.2z" class="st4"/></g><g class="st3"><path d="M1233.7 387.8v-40.1h8.7v4.8c4.5-2.9 9.1-4.8 13.6-5.7v8.7c-4.6.9-8.5 2.1-11.8 3.5l-1.8.7v28h-8.7z" class="st4"/></g><g class="st3"><path d="M1277.3 346.9c2.8 0 6.2.4 10 1.1l2 .4-.3 6.9c-4.2-.4-7.3-.6-9.4-.6-4.1 0-6.8.9-8.2 2.7s-2.1 5.2-2.1 10.3c0 5 .7 8.5 2 10.4s4.1 2.9 8.3 2.9l9.4-.6.2 7c-5.4 1-9.5 1.4-12.2 1.4-6.1 0-10.4-1.6-12.9-4.9s-3.7-8.7-3.7-16.1c0-7.5 1.3-12.8 3.9-16 2.8-3.4 7-4.9 13-4.9" class="st4"/></g><g class="st3"><path d="m1325.8 380.6 2.2-.2.2 6.5q-9.15 1.8-16.2 1.8c-5.9 0-10.2-1.6-12.8-4.9q-3.9-4.95-3.9-15.6 0-21.3 17.4-21.3 16.8 0 16.8 18.3l-.6 6.2h-24.8c.1 3.3.8 5.7 2.2 7.3 1.4 1.5 4 2.3 7.8 2.3 3.8.1 7.7-.1 11.7-.4m-4.8-15.9c0-4-.6-6.7-1.9-8.3s-3.4-2.4-6.4-2.4-5.2.8-6.5 2.5c-1.4 1.7-2.1 4.4-2.1 8.2z" class="st4"/></g><g class="st3"><path d="M936.4 449.9v18.3c.1 1.2.4 2 .9 2.6.6.6 1.4.9 2.6 1.1l-.2 6.6c-4.6 0-8.1-1-10.7-3q-6.45 3-12.9 3c-8 0-11.9-4.2-11.9-12.7 0-4.1 1.1-7 3.2-8.8 2.2-1.8 5.5-2.9 10-3.3l10.3-.9v-2.9c0-2.1-.5-3.6-1.4-4.5s-2.3-1.3-4.1-1.3c-3.4 0-7.7.2-12.8.6l-2.6.2-.3-6.2c5.8-1.4 11.2-2.1 16.1-2.1s8.4 1.1 10.6 3.2c2.2 2.2 3.2 5.5 3.2 10.1m-17.9 10c-3.7.3-5.5 2.3-5.5 6s1.6 5.5 4.9 5.5c2.7 0 5.5-.4 8.5-1.3l1.4-.5V459zM956.1 477.7h-8.7v-40.1h8.7v2.5c3.9-2.2 7.6-3.4 11.1-3.4 5.3 0 9 1.5 10.9 4.5s2.9 8 2.9 14.9v21.5h-8.7v-21.2c0-4.3-.5-7.4-1.4-9.2q-1.35-2.7-5.7-2.7c-2.7 0-5.3.5-7.9 1.6l-1.2.5zM1023.8 420.9v56.7h-8.7v-2.1c-3.9 2-7.5 3-10.7 3-5.2 0-9.1-1.6-11.5-4.7-2.4-3.2-3.6-8.4-3.6-15.9 0-7.4 1.3-12.8 4-16.2s6.9-5 12.6-5c1.9 0 5 .3 9.1 1v-16.8zm-10.1 48.4 1.4-.6V445c-3.2-.5-6.2-.8-8.9-.8q-8.1 0-8.1 13.5c0 4.9.6 8.3 1.9 10.2s3.2 2.8 6 2.8c2.7.1 5.3-.4 7.7-1.4M1079.8 445.9c-6.3-.9-10.9-1.3-13.7-1.3s-4.8.3-5.9 1-1.6 1.7-1.6 3.2c0 1.4.6 2.5 1.8 3 1.2.6 4 1.3 8.5 2 4.5.8 7.6 2 9.5 3.6 1.9 1.7 2.8 4.6 2.8 8.8s-1.3 7.3-4 9.3-6.6 3-11.8 3c-3.3 0-7.4-.5-12.3-1.4l-2.5-.4.3-7.3c6.4.9 11 1.3 13.9 1.3 2.8 0 4.8-.3 6-1s1.8-1.8 1.8-3.4-.6-2.7-1.7-3.3-3.9-1.3-8.3-2-7.5-1.9-9.6-3.4c-2-1.5-3-4.4-3-8.5s1.4-7.2 4.2-9.2q4.2-3 10.8-3c3.4 0 7.6.4 12.6 1.3l2.5.5zM1091.8 441.9c2.8-3.5 7.3-5.2 13.7-5.2s11 1.7 13.7 5.2c2.8 3.5 4.1 8.7 4.1 15.6s-1.3 12.2-4 15.7-7.3 5.3-13.9 5.3-11.2-1.8-13.9-5.3-4-8.8-4-15.7c.2-6.9 1.6-12.1 4.3-15.6m6.6 26.1c1.2 2.1 3.6 3.2 7.2 3.2s6-1.1 7.2-3.2q1.8-3.15 1.8-10.5c0-4.9-.7-8.3-2-10.3s-3.7-3-7.1-3-5.8 1-7.1 3-2 5.5-2 10.3c.1 4.8.7 8.3 2 10.5M1147.1 436.7c2.8 0 6.2.4 10 1.1l2 .4-.3 6.9c-4.2-.4-7.3-.6-9.4-.6-4.1 0-6.8.9-8.2 2.7s-2.1 5.2-2.1 10.3c0 5 .7 8.5 2 10.4s4.1 2.9 8.3 2.9l9.4-.6.2 7c-5.4 1-9.5 1.4-12.2 1.4-6.1 0-10.4-1.6-12.9-4.9s-3.7-8.7-3.7-16.1c0-7.5 1.3-12.8 3.9-16s7-4.9 13-4.9M1167.5 430.8v-9.2h8.7v9.2zm0 46.9v-40.1h8.7v40.1zM1216.4 449.9v18.3c.1 1.2.4 2 .9 2.6.6.6 1.4.9 2.6 1.1l-.2 6.6c-4.6 0-8.1-1-10.7-3q-6.45 3-12.9 3c-8 0-11.9-4.2-11.9-12.7 0-4.1 1.1-7 3.2-8.8 2.2-1.8 5.5-2.9 10-3.3l10.3-.9v-2.9c0-2.1-.5-3.6-1.4-4.5s-2.3-1.3-4.1-1.3c-3.4 0-7.7.2-12.8.6l-2.6.2-.3-6.2c5.8-1.4 11.2-2.1 16.1-2.1s8.4 1.1 10.6 3.2c2.2 2.2 3.2 5.5 3.2 10.1m-17.9 10c-3.7.3-5.5 2.3-5.5 6s1.6 5.5 4.9 5.5c2.7 0 5.5-.4 8.5-1.3l1.4-.5V459zM1227.9 477.7V421h8.7v56.7zM1274 477.7h-8.7v-40.1h8.7v2.5c3.8-2.2 7.3-3.4 10.4-3.4q6.9 0 10.2 3.9c4.9-2.6 9.7-3.9 14.5-3.9s8.2 1.5 10.2 4.4q3 4.5 3 15v21.5h-8.7v-21.2c0-4.3-.4-7.4-1.3-9.2s-2.7-2.7-5.5-2.7c-2.4 0-5 .5-7.8 1.6l-1.4.6c.4 1.1.6 4.5.6 10.3v20.8h-8.7v-20.6c0-4.8-.4-8-1.3-9.9-.9-1.8-2.7-2.7-5.6-2.7-2.7 0-5.2.5-7.5 1.6l-1.2.5v31zM1361 470.4l2.2-.2.2 6.5q-9.15 1.8-16.2 1.8c-5.9 0-10.2-1.6-12.8-4.9q-3.9-4.95-3.9-15.6 0-21.3 17.4-21.3 16.8 0 16.8 18.3l-.6 6.2h-24.8c.1 3.3.8 5.7 2.2 7.3 1.4 1.5 4 2.3 7.8 2.3 3.8.1 7.7 0 11.7-.4m-4.8-15.8c0-4-.6-6.7-1.9-8.3s-3.4-2.4-6.4-2.4-5.2.8-6.5 2.5c-1.4 1.7-2.1 4.4-2.1 8.2zM1405.8 420.9v56.7h-8.7v-2.1c-3.9 2-7.5 3-10.7 3-5.2 0-9.1-1.6-11.5-4.7-2.4-3.2-3.6-8.4-3.6-15.9 0-7.4 1.3-12.8 4-16.2s6.9-5 12.6-5c1.9 0 5 .3 9.1 1v-16.8zm-10 48.4 1.4-.6V445c-3.2-.5-6.2-.8-8.9-.8q-8.1 0-8.1 13.5c0 4.9.6 8.3 1.9 10.2s3.2 2.8 6 2.8c2.6.1 5.2-.4 7.7-1.4M1416.4 430.8v-9.2h8.7v9.2zm0 46.9v-40.1h8.7v40.1zM1465.4 449.9v18.3c.1 1.2.4 2 .9 2.6.6.6 1.4.9 2.6 1.1l-.2 6.6c-4.6 0-8.1-1-10.7-3q-6.45 3-12.9 3c-8 0-11.9-4.2-11.9-12.7 0-4.1 1.1-7 3.2-8.8 2.2-1.8 5.5-2.9 10-3.3l10.3-.9v-2.9c0-2.1-.5-3.6-1.4-4.5s-2.3-1.3-4.1-1.3c-3.4 0-7.7.2-12.8.6l-2.6.2-.3-6.2c5.8-1.4 11.2-2.1 16.1-2.1s8.4 1.1 10.6 3.2c2.1 2.2 3.2 5.5 3.2 10.1m-18 10c-3.7.3-5.5 2.3-5.5 6s1.6 5.5 4.9 5.5c2.7 0 5.5-.4 8.5-1.3l1.4-.5V459z" class="st4"/></g><g class="st3"><path d="M926.4 600.3v-3.8h13v23.1c-1.3.3-3.7.6-7 1.1-3.3.4-6.1.7-8.3.7-6.9 0-11.6-2-14.3-6.1-2.7-4-4-10.2-4-18.4 0-4.1.3-7.6.8-10.5.6-2.9 1.5-5.5 2.9-7.7 2.6-4.4 7.5-6.6 14.5-6.6 4.3 0 8.7.4 13.1 1.3l2.3.5-.2 3.6c-5.7-1.1-10.7-1.6-14.9-1.6-5.5 0-9.3 1.7-11.2 5s-2.9 8.6-2.9 15.9c0 7.2 1 12.5 2.9 15.8s5.7 4.9 11.2 4.9c3.3 0 6.9-.4 10.9-1.1v-16.1z" class="st4"/></g><g class="st3"><path d="M972.9 596.5v18.4q.3 2.55 4.5 3l-.2 3.3c-3.5 0-6.1-.9-7.8-2.8-4.3 1.9-8.6 2.8-12.9 2.8-3.1 0-5.4-.9-7-2.6-1.6-1.8-2.4-4.3-2.4-7.6s.8-5.7 2.4-7.3 4.2-2.6 7.7-2.9l11.7-1.2v-3.2c0-2.6-.6-4.4-1.7-5.5s-2.6-1.7-4.5-1.7c-2.9 0-6.7.3-11.4.8l-2.1.2-.2-3.3c5-1 9.5-1.4 13.2-1.4 3.8 0 6.5.9 8.2 2.7 1.6 1.8 2.5 4.6 2.5 8.3m-21.6 14.4q0 6.9 5.7 6.9 2.55 0 5.4-.6c2-.4 3.5-.8 4.7-1.2l1.7-.6V603l-11.2 1.2c-2.2.2-3.9.8-4.8 1.9q-1.5 1.65-1.5 4.8" class="st4"/></g><g class="st3"><path d="M979.9 586.3h4.5l8.6 30.8h2.8l8.9-30.8h4.3l-10 34.4h-9zM1016 577.7v-5.2h4.1v5.2zm0 43v-34.4h4.1v34.4zM1034.5 620.7h-4.1v-34.4h4.1v2.5c3.9-2.2 7.6-3.2 11.2-3.2 4.6 0 7.6 1.2 9.2 3.6 1.5 2.4 2.3 6.9 2.3 13.3v18.1h-4.1v-17.9c0-5.3-.5-8.8-1.5-10.7s-3.2-2.8-6.5-2.8c-1.6 0-3.3.2-5.1.7s-3.1 1-4.1 1.5l-1.4.7zM1111.6 619.9c-4.7 1-8.8 1.4-12.1 1.4s-6-.4-8.1-1.1c-2-.7-3.7-1.7-5-3s-2.3-3-3-5q-2.1-5.7-2.1-15.3c0-10.4 1.7-17.2 5-20.6 2.7-2.8 6.8-4.2 12.4-4.2 3.8 0 8.1.5 12.9 1.4l-.2 3.7c-4.8-.9-8.6-1.3-11.5-1.3s-5.1.3-6.7.9-2.9 1.4-3.9 2.5c-1 1-1.7 2.5-2.2 4.3-.9 3.1-1.4 7-1.4 11.7s.2 8.2.5 10.5.9 4.4 1.9 6.3c.9 1.9 2.3 3.2 4.1 4.1 1.8.8 4.3 1.2 7.4 1.2 3.2 0 7.1-.4 11.8-1.3zM1123.7 620.7h-4.1V571h4.1v17.3q5.85-2.7 11.1-2.7c4.6 0 7.6 1.2 9.2 3.6 1.5 2.4 2.3 6.9 2.3 13.3v18.1h-4.1v-17.9c0-5.3-.5-8.8-1.5-10.7s-3.1-2.8-6.4-2.8q-2.4 0-5.1.6c-2.7.6-3.1.8-4.1 1.2l-1.4.6zM1179.9 596.5v18.4q.3 2.55 4.5 3l-.2 3.3c-3.5 0-6.1-.9-7.8-2.8-4.3 1.9-8.6 2.8-12.9 2.8-3.1 0-5.4-.9-7-2.6-1.6-1.8-2.4-4.3-2.4-7.6s.8-5.7 2.4-7.3 4.2-2.6 7.7-2.9l11.7-1.2v-3.2c0-2.6-.6-4.4-1.7-5.5s-2.6-1.7-4.5-1.7c-2.9 0-6.7.3-11.4.8l-2.1.2-.2-3.3c5-1 9.5-1.4 13.2-1.4 3.8 0 6.5.9 8.2 2.7s2.5 4.6 2.5 8.3m-21.6 14.4q0 6.9 5.7 6.9 2.55 0 5.4-.6c2-.4 3.5-.8 4.7-1.2l1.7-.6V603l-11.2 1.2c-2.2.2-3.9.8-4.8 1.9q-1.5 1.65-1.5 4.8M1190.6 577.7v-5.2h4.1v5.2zm0 43v-34.4h4.1v34.4zM1222.4 589.9h-11.5v17c0 4.4.3 7.4 1 8.7s2.2 2.1 4.5 2.1l6.3-.5.3 3.5c-3 .5-5.3.7-6.9.7-3.5 0-5.9-.9-7.3-2.6s-2-5-2-9.9v-19.1h-5.1v-3.6h5.1v-10.8h4.1v10.8h11.5z" class="st4"/></g></svg>