<svg xmlns="http://www.w3.org/2000/svg" fill="none" viewBox="0 0 600 600"><path fill="url(#a)" d="M600 0H0v600h600V0Z"/><path fill="#fff" d="M147.78 229.13h-.01a5.43 5.43 0 0 0-5.43 5.43v117.68a5.43 5.43 0 0 0 5.43 5.43h.01a5.43 5.43 0 0 0 5.43-5.43V234.56a5.43 5.43 0 0 0-5.43-5.43ZM166 359.12h-.01a5.43 5.43 0 0 0-5.43 5.43v64.23a5.43 5.43 0 0 0 5.43 5.43h.01a5.43 5.43 0 0 0 5.43-5.43v-64.23a5.43 5.43 0 0 0-5.43-5.43ZM480.09 359.12h-.01a5.43 5.43 0 0 0-5.43 5.43v64.23a5.43 5.43 0 0 0 5.43 5.43h.01a5.43 5.43 0 0 0 5.43-5.43v-64.23a5.43 5.43 0 0 0-5.43-5.43ZM443.87 370.89h-.01a5.43 5.43 0 0 0-5.43 5.43v74.92a5.43 5.43 0 0 0 5.43 5.43h.01a5.43 5.43 0 0 0 5.43-5.43v-74.92a5.43 5.43 0 0 0-5.43-5.43ZM67.79 370.89h-.01a5.43 5.43 0 0 0-5.43 5.43v74.92a5.43 5.43 0 0 0 5.43 5.43h.01a5.43 5.43 0 0 0 5.43-5.43v-74.92a5.43 5.43 0 0 0-5.43-5.43ZM469.22 229.13h-.01a5.43 5.43 0 0 0-5.43 5.43v117.68a5.43 5.43 0 0 0 5.43 5.43h.01a5.43 5.43 0 0 0 5.43-5.43V234.56a5.43 5.43 0 0 0-5.43-5.43Z"/><path fill="url(#b)" d="M495.28 238.64H131.22c-5.612 0-10.16 4.549-10.16 10.16v12.28c0 5.611 4.548 10.16 10.16 10.16h364.06c5.611 0 10.16-4.549 10.16-10.16V248.8c0-5.611-4.549-10.16-10.16-10.16Z"/><path fill="url(#c)" d="M492.97 278.31H133.53c-6.887 0-12.47 5.583-12.47 12.47v7.66c0 6.887 5.583 12.47 12.47 12.47h359.44c6.887 0 12.47-5.583 12.47-12.47v-7.66c0-6.887-5.583-12.47-12.47-12.47Z"/><path fill="url(#d)" d="M495.94 317.99H130.56a9.5 9.5 0 0 0-9.5 9.5v13.6a9.5 9.5 0 0 0 9.5 9.5h365.38a9.5 9.5 0 0 0 9.5-9.5v-13.6a9.5 9.5 0 0 0-9.5-9.5Z"/><path fill="url(#e)" d="M463.58 376.27H51.74c-2.28 0-3.2-2.95-1.32-4.24l20.31-13.95c.39-.27.85-.41 1.32-.41h410.81c2.26 0 3.19 2.89 1.36 4.21l-19.28 13.95c-.4.29-.87.44-1.36.44Z"/><path fill="#F3795C" d="M147.77 259.74a4.8 4.8 0 1 0 0-9.6 4.8 4.8 0 0 0 0 9.6ZM147.77 299.41a4.8 4.8 0 1 0 0-9.6 4.8 4.8 0 0 0 0 9.6ZM147.77 339.09a4.8 4.8 0 1 0 0-9.6 4.8 4.8 0 0 0 0 9.6ZM469.22 259.74a4.8 4.8 0 1 0 0-9.6 4.8 4.8 0 0 0 0 9.6ZM469.22 299.41a4.8 4.8 0 1 0 0-9.6 4.8 4.8 0 0 0 0 9.6ZM469.22 339.09a4.8 4.8 0 1 0 0-9.6 4.8 4.8 0 0 0 0 9.6Z"/><path fill="url(#f)" d="M492.77 407.62c-1.7-17.9 17.74.8 21.24 17.35.45-5.87 1.13-12.8 2.15-20.23.13-.92.26-1.82.4-2.72-3.25-1.45-17.97-9.05-16.76-27.44 1.15-17.44 16.49 2.46 18.08 19.1 1.43-8.18 3.12-15.73 5.07-22.64-3.54-1.96-16.99-10.62-14.51-28.45 2.46-17.69 16.87 4.56 16.66 21.43 2.79-8.43 6.02-15.76 9.68-21.93-.91-6.03-1.38-20.79 13.26-30.3 17.97-11.69 6.18 23.55-10.49 32.05-3.61 6.12-6.61 13.13-9.07 20.46 12.31-11.63 39.23-15.85 27.5-2.12-10.55 12.34-24.11 10.05-29.47 8.48-2.74 9.42-4.71 19.04-6.1 27.69 10.84-13.38 42.21-19.13 29.71-4.5-11.14 13.03-25.64 9.74-30.29 8.23-.15 1.04-.3 2.07-.44 3.07-1.17 8.56-1.89 16.44-2.33 22.78 8.44-14.99 38.06-26.02 28.36-9.49-8.82 15.04-24.03 14.07-28.61 13.4-.4 6.91-.44 11.21-.44 11.29l-3.25-.02c0-.08.04-4.31.43-11.11-3.78-1.04-19.05-6.31-20.77-24.36l-.01-.02Z"/><path fill="url(#g)" d="M447.13 408.77c-4-13.88 14.12-2 19.34 10.55-.51-4.7-1.01-10.27-1.3-16.29-.04-.75-.06-1.47-.09-2.21-2.78-.66-15.53-4.48-17.3-19.18-1.68-13.94 13.38-.5 17.11 12.4-.09-6.67.13-12.89.65-18.63-3.09-1.02-14.99-5.87-15.67-20.31-.68-14.33 13.99 1.1 16.33 14.45.95-7.07 2.42-13.33 4.39-18.75-1.61-4.62-4.17-16.21 5.97-25.89 12.46-11.89 8.37 17.68-3.54 26.86-1.94 5.37-3.27 11.34-4.13 17.5 8-11.01 28.62-18.33 21.4-5.75-6.5 11.31-17.55 11.51-22.01 11.07-.77 7.84-.9 15.73-.71 22.77 6.57-12.17 30.49-21.36 22.79-7.96-6.86 11.94-18.8 11.49-22.69 10.99.03.84.07 1.68.11 2.49.34 6.93.94 13.26 1.54 18.33 4.45-13.09 26.19-26.19 20.99-11.7-4.73 13.18-16.89 14.68-20.6 14.82.71 5.51 6.12 28.15 6.14 28.22l-2.57.46c-.01-.07-5.42-22.65-6.12-28.08-3.13-.26-15.98-2.16-20.01-16.15l-.02-.01Z"/><path fill="url(#h)" d="M589.52 416.83c2.82-9.82-9.98-1.4-13.66 7.47.36-3.32.7-7.26.91-11.52.03-.53.04-1.04.06-1.56 1.97-.47 10.98-3.18 12.22-13.57 1.18-9.86-9.46-.35-12.09 8.78.06-4.71-.1-9.11-.47-13.17 2.18-.72 10.59-4.16 11.07-14.37.47-10.13-9.89.78-11.54 10.22-.68-5-1.72-9.42-3.11-13.25 1.14-3.27 2.94-11.46-4.24-18.3-8.81-8.4-5.91 12.5 2.51 18.98 1.38 3.8 2.32 8.02 2.93 12.37-5.66-7.78-20.24-12.94-15.13-4.05 4.6 7.99 12.41 8.12 15.57 7.81.55 5.54.64 11.12.52 16.1-4.65-8.6-21.57-15.08-16.12-5.61 4.86 8.44 13.29 8.11 16.05 7.75-.02.6-.05 1.19-.07 1.76-.24 4.9-.66 9.37-1.08 12.96-3.15-9.25-18.53-18.5-14.84-8.26 3.35 9.31 11.95 10.36 14.57 10.46-.5 3.9-4.31 19.91-4.32 19.95l1.82.33s3.82-16.01 4.31-19.85c2.22-.18 11.29-1.54 14.13-11.43Z"/><path fill="url(#i)" d="M11.48 414.81c-3.13-9.72 9.93-1.72 13.9 7.03-.47-3.31-.94-7.24-1.28-11.48-.04-.53-.08-1.04-.11-1.56-1.98-.41-11.07-2.82-12.65-13.17-1.49-9.81 9.45-.65 12.37 8.38-.21-4.71-.19-9.11.04-13.18-2.21-.65-10.72-3.81-11.52-14-.8-10.11 9.91.47 11.86 9.84.52-5.02 1.41-9.47 2.69-13.34-1.24-3.23-3.31-11.36 3.65-18.43 8.54-8.68 6.31 12.3-1.9 19.06-1.25 3.84-2.06 8.09-2.53 12.45 5.41-7.96 19.82-13.59 14.99-4.54-4.34 8.13-12.14 8.52-15.31 8.31-.37 5.56-.28 11.13 0 16.1 4.37-8.75 21.07-15.77 15.93-6.13-4.58 8.59-13.03 8.54-15.79 8.27.04.59.08 1.19.13 1.76.4 4.89.96 9.35 1.49 12.92 2.85-9.35 17.92-19.08 14.57-8.73-3.05 9.42-11.61 10.74-14.23 10.93.62 3.88 4.95 19.76 4.96 19.8l-1.81.39s-4.33-15.88-4.95-19.7c-2.22-.11-11.34-1.17-14.49-10.97l-.01-.01Z"/><path fill="url(#j)" d="M127.68 356.55c.2-16.86-16.51 2.13-18.49 17.87-.88-5.45-2.05-11.87-3.58-18.74-.19-.85-.39-1.68-.58-2.52 2.92-1.61 16.09-9.86 13.52-26.95-2.44-16.21-15.22 3.58-15.41 19.26-1.97-7.53-4.14-14.46-6.5-20.76 3.16-2.1 15.05-11.25 11.34-27.72-3.68-16.34-15.41 5.57-13.9 21.32-3.26-7.66-6.85-14.26-10.75-19.74.38-5.7-.33-19.53-14.75-27.29-17.71-9.52-3.94 22.49 12.3 29.13 3.85 5.44 7.2 11.75 10.07 18.41-12.41-9.91-37.89-11.75-25.86.16 10.82 10.71 23.32 7.51 28.2 5.63 3.3 8.59 5.88 17.42 7.86 25.4-11.17-11.66-40.94-14.58-28.12-1.89 11.43 11.31 24.72 7.11 28.95 5.33.22.96.44 1.91.65 2.84 1.76 7.9 3.05 15.21 3.95 21.1-9.06-13.35-37.59-21.35-27.24-6.66 9.41 13.37 23.55 11.28 27.78 10.29.91 6.42 5.38 47.63 5.38 47.71l3.04-.27c0-.08-4.46-41.22-5.36-47.54 3.45-1.26 17.31-7.39 17.51-24.38l-.01.01Z"/><path fill="url(#k)" d="M107.43 401.01c-1.76-14.79-14.21 3.76-14.15 17.76-1.39-4.67-3.16-10.16-5.28-16-.26-.72-.53-1.42-.8-2.14 2.38-1.74 12.96-10.47 8.76-25.14-3.99-13.91-12.91 4.88-11.29 18.63-2.59-6.37-5.28-12.19-8.07-17.43 2.53-2.2 11.89-11.57 6.76-25.57-5.09-13.88-12.85 6.64-9.73 20.26-3.73-6.34-7.63-11.7-11.67-16.05-.32-5.04-2.52-17.06-16.04-22.2-16.59-6.31-.87 20.14 14.11 24.1 4 4.32 7.65 9.47 10.92 14.97-12-7.26-34.52-5.95-22.62 3.1 10.7 8.14 21.27 3.91 25.34 1.7 3.87 7.14 7.14 14.58 9.79 21.34-11.11-8.93-37.51-8.08-24.83 1.56 11.3 8.6 22.45 3.4 25.95 1.36.31.81.61 1.62.89 2.41 2.45 6.72 4.41 12.97 5.88 18.02-9.46-10.65-35.36-14.39-24.61-2.71 9.77 10.63 21.91 7.18 25.5 5.83 1.53 5.52 2.32 8.99 2.33 9.06l2.63-.59c-.02-.07-.79-3.48-2.29-8.92 2.87-1.5 14.31-8.45 12.54-23.35h-.02Z"/><path fill="url(#l)" d="M151.07 406.33c-1.57-.89-4.9 1.9-8.18 6.57.07-.82.12-1.66.14-2.52.25-8.05-1.39-14.64-3.68-14.71-2.29-.07-4.35 6.4-4.6 14.45-.02.77-.03 1.52-.02 2.26-2.42-5.6-5.34-9.31-7.13-8.7-2.17.73-1.84 7.51.74 15.15 2.36 7 5.79 12.28 8.01 12.55.12.16.24.3.41.39 1.99 1.12 6.81-3.66 10.77-10.68s5.54-13.62 3.55-14.74l-.01-.02Z"/><path fill="url(#m)" d="M207.53 431.15c-1.57-.89-4.9 1.9-8.18 6.57.07-.82.12-1.66.14-2.52.25-8.05-1.39-14.64-3.68-14.71-2.29-.07-4.35 6.4-4.6 14.45-.02.77-.03 1.52-.02 2.26-2.42-5.6-5.34-9.31-7.13-8.7-2.17.73-1.84 7.51.74 15.15 2.36 7 5.79 12.28 8.01 12.55.12.16.24.3.41.39 1.99 1.12 6.81-3.66 10.77-10.68 3.95-7.02 5.54-13.62 3.55-14.74l-.01-.02Z"/><path fill="url(#n)" d="M408.52 420.16c-1.38-.78-4.32 1.68-7.2 5.78.06-.72.1-1.46.13-2.22.22-7.09-1.23-12.89-3.24-12.95-2.01-.06-3.83 5.63-4.05 12.72-.02.68-.03 1.34-.02 1.99-2.13-4.93-4.7-8.19-6.28-7.66-1.91.64-1.62 6.61.65 13.33 2.08 6.16 5.09 10.81 7.05 11.05.1.14.22.26.36.34 1.75.99 6-3.22 9.48-9.4 3.48-6.18 4.88-11.99 3.13-12.98h-.01Z"/><path fill="url(#o)" d="M564.34 432.77c-1.42-.65-4.49 1.51-7.54 5.11.07-.62.13-1.27.16-1.92.34-6.13-1.07-11.12-3.15-11.14-2.08-.02-4.04 4.93-4.38 11.06-.03.58-.05 1.16-.05 1.72-2.13-4.23-4.74-7.01-6.38-6.53-1.98.58-1.77 5.74.47 11.51 2.06 5.3 5.11 9.27 7.13 9.44.1.12.22.22.36.29 1.8.83 6.26-2.87 9.95-8.27 3.7-5.39 5.23-10.44 3.43-11.26v-.01Z"/><path fill="url(#p)" d="M359.4 407.94c-1.42-.65-4.49 1.51-7.54 5.11.07-.62.13-1.27.16-1.92.34-6.13-1.07-11.12-3.15-11.14-2.08-.02-4.04 4.93-4.38 11.06-.03.58-.05 1.16-.05 1.72-2.13-4.23-4.74-7.01-6.38-6.53-1.98.58-1.77 5.74.47 11.51 2.06 5.3 5.11 9.27 7.13 9.44.1.12.22.22.36.29 1.8.83 6.26-2.87 9.95-8.27 3.7-5.39 5.23-10.44 3.43-11.26v-.01Z"/><path fill="#8C4443" d="M299.07 184.82s-.79 10.34-1.49 11.95c-.7 1.61-2.41 5.43-25.66 12.27 0 0 7.65 9.66 37.03 9.96 29.38.3 38.73-10.06 38.73-10.06s-20.22-4.83-24.65-9.26-3.77-16.84-3.77-16.84l-6.79 3.43h-8.95l-4.44-1.46-.01.01Z"/><path fill="#8C4443" d="M292.85 146.27s-6.44 4.73-6.64 6.14c-.2 1.41-2.21 9.26-2.21 9.26s-1.71 2.92-1.51 3.42c.2.5 2.11 3.72 2.11 3.72l3.52 2.01 1.81 1.61s3.32 7.45 6.24 10.06c2.48 2.23 5.41 4.28 8.61 5.32 6.58 2.14 12.26-1.84 16.12-6.91 2.8-3.67 4.8-7.93 6.26-12.29 2.41-7.24 13.48-8.15 13.48-8.15s-8.55-2.92-8.95-2.92c-.4 0-1.71-2.82-1.71-2.82s-2.82-5.33-3.52-6.54c-.7-1.21-9.56-8.25-9.56-8.25s-14.89-2.21-15.59-1.91c-.7.3-8.45 8.25-8.45 8.25h-.01Z"/><path fill="#763635" d="M299.07 184.82s4.34 3.97 10.73 3.48c6.39-.49 9.46-5.46 9.46-5.46s-.52 9.62 1.62 13.23c0 0-14.68.13-21.81-11.26v.01Z"/><path fill="#330504" d="M307.89 141.59c.6-.15-1.56 0 1.86 0s.1-1.66 3.42 0 1.81.75 3.32 1.66c1.51.91 2.72-.15 2.87 1.21.15 1.36 1.21 1.66 2.64 2.11 1.43.45 2.19-.15 2.26 1.66.07 1.81-1.13 1.36.68 2.87s3.62 0 2.41 2.57-1.51 3.72-1.21 3.97c.3.25.91.73.3 1.1-.61.37-1.36 1.09-1.06 1.79.3.7.15 2.53.6 2.14.45-.39.6.54 1.06 0 .46-.54 1.36-1.05 1.36-1.4 0-.35.75-1.71 1.51-1.56.76.15 1.36.28 1.36.82 0 .54 1.66 1.77 0 2.14-1.66.37-2.87 1.69-2.87 1.69v9.39s3.19.98 3.61 1.19c.42.21 1.53 1.07 1.68-.89.15-1.96-1.36-1.06.15-1.96 1.51-.9 1.51 1.06 3.17-1.06s1.06-2.26 1.66-3.24c.6-.98 0-.68 1.96-.98 1.96-.3 3.02.48 2.41-1.12-.6-1.6-2.87-3.23-.75-3.02 2.12.21-.15 1.12 2.11.21 2.26-.91 2.26-1.94 2.11-2.17-.15-.23-.91-1.96-.91-1.96s.8-1.3 2.06-1.75c1.26-.45.65-1.6.65-2.46 0-.86-.3-1.16.75-1.91s-.45-1.36 0-1.96c.45-.6-.3.6 1.51-.91s1.81.15 1.81-1.51 2.57-.75 0-2.57l-2.57-1.81c.6-1.66 1.21-2.68 1.06-3-.15-.32-.6-.47-.91-1.53-.3-1.06-1.36-1.66-.6-2.72.76-1.06 1.36-1.51.75-2.41-.61-.9-3.42-.91-2.46-2.41s1.86.45 1.86-1.81c0-2.26-1.36-2.11-1.21-3.47.15-1.36 2.41-3.17 1.36-3.92s-3.47-1.21-4.53-1.36c-1.06-.15-1.21.3-1.36-1.21-.15-1.51 1.66-1.06-.91-2.57-2.57-1.51-1.66-1.21-2.26-2.41-.6-1.2-1.66-2.57-1.66-2.57s2.57-3.02.3-3.32c-2.27-.3-3.02.45-4.23 0-1.21-.45-.3-1.21-1.51-1.51-1.21-.3-2.26 0-2.26 0s.45-3.02-1.36-3.32c-1.81-.3-3.62 1.81-4.07 0-.45-1.81 1.81-1.66-.75-2.87-2.56-1.21-2.23-2.41-4.21-1.36s-.53 1.66-2.76 1.51c-2.23-.15-.72 1.36-2.23-.15s1.96-1.36-1.51-1.51c-3.47-.15-3.82.15-4.63.45-.81.3-1.06.91-1.99.3-.93-.61.43-1.26-1.83-1.01-2.26.25 0-.35-2.26.25s-2.57-.15-3.32.45 1.36-.3-.75.6c-2.11.91-2.44.75-3.48.6-1.04-.15-1.95-.75-2.4.3-.45 1.05 0 1.36-1.81 1.36s-3.77-.91-4.15 0c-.38.91-.38 2.26-2.19 2.11-1.81-.15-4.23.6-5.13 2.57-.91 1.96-.3 3.62-1.96 4.07-1.66.45-4.23.45-4.38 1.96-.15 1.51 1.36 3.62 0 4.07-1.36.45-5.58 1.66-4.98 3.32.6 1.66.94 2.26-.06 3.32s-3.11 4.07-2.51 5.43c.6 1.36 1.6 2.87-.11 3.92-1.71 1.05-2.16 3.02-1.1 4.68 1.06 1.66-.83 1.21-.57 5.13s2.68 4.38 1.92 5.89c-.75 1.51-2.26 3.08-.45 4.78 1.81 1.71 4.68 2.19 3.77 4.21-.91 2.02 2.46 2.35 1.91 3.92-.55 1.57-1.46 2.35.65 3.02 2.11.67 3.17 1.57 3.17 2.1s.3 2.19 1.51 2.49c1.21.3 2.57 0 3.02.45.45.45 1.83 2.57 2.2 2.26.37-.31-2.12-.18 1.12-.6l3.25-.43s3.24 1.68 1.28-1.13c-1.96-2.82-3.87-.6-3.52-2.01.35-1.41.2-.5-.1-2.31-.3-1.81-.3-3.13-.15-3.3.15-.17-1.61-1.68-.35-1.53 1.26.15 2.16-1.26 2.31-.4.15.86 1.66 4.63 1.66 4.63s.7.65 1.31-.21c.51-.73-.4-2.48-.7-3.02-.3-.54-.63-.7.5-2.86s-.96-1.06-.35-2.17c.61-1.11-1.06-1.95.6-3.11 1.66-1.16-.45-4.03 1.96-5.24s2.77-1.81 3.27-2.41c.5-.6.02-2.11 1.54-1.96 1.52.15.32.6 1.52.15 1.2-.45 1.86-1.21 1.86-1.21s-.73-1.06.14-1.36c.87-.3 1.17-.75 1.62-.75.45 0-.3 1.21 1.21.3l1.51-.91s.05-1.51 1.01-1.21c.96.3 2.92 1.66 2.92 1.66l.03.03Z"/><path fill="url(#q)" d="M288.64 171.95c.76-.34 1.29-1.1 1.29-1.99a2.19 2.19 0 1 0-4.38 0c0 .89.53 1.64 1.29 1.99-1.86.72-3.25 3.61-3.25 7.08 0 4.01 1.86 7.25 4.15 7.25s4.15-3.25 4.15-7.25c0-3.46-1.39-6.36-3.25-7.08Z"/><path fill="url(#r)" d="M329.32 169.85c.76-.34 1.29-1.1 1.29-1.99a2.19 2.19 0 1 0-4.38 0c0 .89.53 1.64 1.29 1.99-1.86.72-3.25 3.61-3.25 7.08 0 4.01 1.86 7.25 4.15 7.25s4.15-3.25 4.15-7.25c0-3.46-1.39-6.36-3.25-7.08Z"/><path fill="url(#s)" d="M178.1 229.88s2.26-5.13 12.83-6.49l13.88 33.2s-.45 1.51 2.41 0c2.87-1.51 45.12-35.46 45.12-35.46s15.29-11.62 19.57-12.07c0 0 8.05 8.55 29.18 9.63s37.63-1.84 46.58-9.73c0 0 7.29.4 14.24 14.14 6.94 13.73 16.75 50.1 16.75 50.1s6.34 22.18 8 36.97c1.66 14.79 3.92 22.79 3.92 23.69 0 .9 2.26 6.64 0 7.7-2.26 1.06-12.53 4.68-12.53 4.68s-3.47 1.81-5.58-6.04-8-36.07-8-36.07l-12.83-41.35s-4.23 44.32-.91 52.62l-78.48 1.96-1.81-36.93s-1.81-23.54-8.15-31.69l-31.09 22.49-16.9 11.02s-12.22 5.73-20.68-5.58c-8.45-11.32-15.54-46.78-15.54-46.78l.02-.01Z"/><path fill="url(#t)" d="M282.01 316.48s-4.15-4.11-12.81-.89-14.09 12.64-13.68 20.5c.4 7.87 2.22 16.61 9.56 19.18 7.34 2.57 22.92 18.14 22.92 18.14v51.03l-1.69 43.26s8.25 6.24 21.93 0c0 0 .8 0 2.21-2.21s12.48-110.07 12.48-110.07 10.72-39.68-40.92-38.95v.01Z"/><path fill="url(#u)" d="M248.68 394.87s11.47 5.03 19.12 1.41 40.44-47.89 45.68-68.01c0 0 11.07 7.04 9.46 27.16 0 0 15.9 5.63 27.77-2.41 11.87-8.05 10.26-23.94 9.86-26.16-.4-2.22-2.41-11.47-21.73-21.53L316.1 292.4l-7.85-3.37s-12.34-4.43-17.77 8.05-41.79 95.78-41.79 95.78v2.01h-.01Z"/><path fill="#8C4443" d="M183.64 190.28s-.44-.43-1.37 0c-.93.43-.63 3.09-.63 3.09s-.33 3.55.3 4.33c0 0-.45 1.13-.3 1.88.15.75.93 3.24.15 4.19l-1.39 2.88.2 6.84-.87 5.57-3.68.98-3.06.26s.92 1.29 1.4 1.59c.48.3 2.92 2.22 3.07 2.37.15.15.94.81.94.81s7.31-1.47 10.82-6.13l-.26-8.88c-.05-1.55-.43-3.18-.96-4.63-.3-.81-.65-1.6-.89-2.44-.24-.84-.27-1.68-.43-2.53-.16-.86-.37-1.72-.61-2.57l-.96-3.58s-.52-3.56-1.48-4.02l.01-.01Z"/><path fill="#763635" d="M182.75 190.11c-.39.18-.49.71-.52 1.09-.07.75-.15 1.82-.1 2.56.05.61.24 1.19.45 1.76.16.42.69 1.23.26 1.62-.68.61-.5 1.77-.37 2.58.25 1.46.77 2.95.48 4.45-.26 1.31-.57 2.61-.85 3.91-.14.66-.46 1.45-.46 2.13l-.08-6.7s.71.73.53-1.73l-.45-2.2s-.15-.66.3-1.88c0 0-2.24-6.71.82-7.58l-.01-.01Z"/><path fill="url(#v)" d="M179.17 183.01h-15.52a2.49 2.49 0 0 0-2.49 2.49v33.7a2.49 2.49 0 0 0 2.49 2.49h15.52a2.49 2.49 0 0 0 2.49-2.49v-33.7a2.49 2.49 0 0 0-2.49-2.49Z"/><path fill="url(#w)" d="M179.69 184.54h-16.56a.76.76 0 0 0-.76.76v34.11c0 .42.34.76.76.76h16.56a.76.76 0 0 0 .76-.76V185.3a.76.76 0 0 0-.76-.76Z"/><path fill="#8C4443" d="M161.2 187.85c0-.2-.47-.67-.62-.82-.72-.76-2.02-1.33-2.97-.62-.79.59-.88 1.57-.49 2.26.39.69 2.46 3.24 2.85 4.12l1.08 1.67.15-6.61Z"/><path fill="#763635" d="M160.86 187.39s.2 3.02-1.47 4.43l1.77 2.74v-6.82l-.29-.35h-.01Z"/><path fill="#8C4443" d="M161.4 195c.1.04.21.08.32.11.46.15.92.29 1.38.44.93.3 1.24 1.15 1 2.06-.13.48-.34.98-.72 1.33-.45.41-1.01.45-1.59.41-.67-.05-1.31-.22-1.96-.4-.63-.18-1.25-.39-1.79-.77-.54-.39-.54-1.14-.42-1.73.14-.69.48-1.33 1.15-1.64.48-.22 1.03-.24 1.55-.15.38.07.73.21 1.09.34h-.01Z"/><path fill="#763635" d="M162.04 195.25s1 .78 1.04 1.96c.04 1.18-1.04 2.16-1.04 2.16s.59.1 1.28-.29c0 0 .95-.64.88-1.86-.07-1.22-.39-1.67-2.16-1.96v-.01Z"/><path fill="#8C4443" d="M162.8 200.2c-.31-.16-.65-.27-.98-.39-.62-.21-1.23-.43-1.85-.64 0 0-1.14-.39-1.85.49-.66.83-.38 1.98.52 2.48.61.34 1.31.52 1.96.78.65.26 1.29.69 1.99.48.85-.26 1.43-1 1.27-1.88-.12-.67-.54-1.05-1.06-1.31v-.01Z"/><path fill="#763635" d="M162.53 200.06s.59.74.43 1.71c-.07.45-.34.84-.65 1.15-.17.17-.36.27-.55.45 0 .02.29.14.59.12.26-.02.45-.11.68-.23.34-.18.62-.46.77-.81.12-.27.16-.61.16-.9 0-.38-.11-.72-.4-.96-.29-.24-.67-.39-1.02-.53h-.01Z"/><path fill="#8C4443" d="M162.5 203.99c-.24-.1-.51-.16-.77-.23-.48-.12-.96-.24-1.44-.35 0 0-.89-.22-1.36.54-.43.71-.13 1.59.59 1.91.48.22 1.03.3 1.54.45.51.15 1.02.44 1.54.22.62-.27 1-.91.81-1.59-.14-.52-.49-.78-.9-.95h-.01Z"/><path fill="#763635" d="M162.28 203.9s.5.54.46 1.32c-.02.36-.19.69-.4.97-.11.14-.25.25-.38.4 0 .02.23.08.45.04.2-.04.33-.13.5-.24.24-.17.43-.41.52-.7.07-.22.07-.5.05-.73-.03-.3-.14-.56-.38-.73-.24-.17-.53-.26-.81-.33h-.01Z"/><path fill="#8C4443" d="m178.4 225.05.34 3.85s2.69-3.97 11.03-5.35l-.55-4.64s-8.74 5.49-10.82 6.13v.01ZM378.06 346.23l11.64-4.3s2.4 5.35 6.02 7.77c3.62 2.42 6.49 9.28 6.49 9.28s1.21 3.09.98 4.3c-.23 1.21-1.13 1.74-1.13 1.74s-1.13-7.32-3.17-8.6c0 0 1.43 3.77 1.74 5.36.31 1.59 1.89 7.55.75 8.45 0 0-.75.98-1.51-.38-.76-1.36-1.21-9.96-2.94-12 0 0 .08 1.74.91 6.04.83 4.3 1.36 7.7.98 8.83-.38 1.13-.91 1.66-.91 1.66s-1.74.91-2.41-2.19c-.67-3.1-.08-5.96-2.41-12.75 0 0-.38 1.13.6 5.89.98 4.75 1.66 8.77.98 9.18-.68.41-1.96 1.39-3.4-2.76-1.43-4.15-.6-8-3.32-10.49-2.72-2.49-2.72-2.26-3.17-1.96-.45.3-.23 2.49 1.58 4.83s1.51 5.36 1.21 5.96c-.3.6-1.43 1.28-3.09-.38 0 0-.75-2.04-1.96-3.7-1.21-1.66-2.8-4.38-3.97-8.9-1.16-4.53-.49-10.87-.49-10.87v-.01ZM250.28 395.5l-5.63 7.4s3.62 4.53 10.34 5.06c6.72.53 9.66-1.96 11.62-5.73l1.18-5.94s-8.71 2.9-17.51-.79Z"/><path fill="#4CBDBC" d="M244.66 402.9 231.88 416l-10.87 11.07s-1.01 1.31.8 2.41 5.63 4.43 18.01 2.31c12.37-2.11 26.16-11.67 26.16-11.67s3.52-3.22 3.72-5.73c.2-2.51.96-7.95-3.09-12.17 0 0-2.44 5.23-9.78 4.73s-12.17-4.05-12.17-4.05Z"/><path fill="#F3795C" d="M220.73 428.28c.4 2.16.3 4.66 2.49 5.78 2.9 1.48 6.46 1.64 9.66 1.67 12.75.12 23.97-6.68 34.45-13.15.32-.2.65-.41.87-.72 1.2-1.74.79-4.62 1.28-6.64-1.01 2.08-2.6 3.83-4.41 5.27-2.53 2.01-5.45 3.44-8.33 4.89-6.31 3.18-13.21 6.64-20.43 6.91-4.94.18-10.22 1.23-15.58-4v-.01ZM244.43 409.23l-1.02-.48c-6.03-2.81-8.74-7.02-7.87-9.48.19-.53 1.03-2.19 4.02-1.45 5.82 1.43 5.02 9.93 4.98 10.29l-.11 1.12Zm-6.27-9.99c-.48 0-.96.12-1.11.57-.43 1.21 1.24 4.43 5.94 6.95 0-2.15-.45-6.55-3.81-7.38a4.38 4.38 0 0 0-1.01-.14h-.01Z"/><path fill="#F3795C" d="M236.2 411.31c-2.39 0-4.14-.74-4.85-1.94-.28-.48-1.02-2.19 1.47-4.02 4.83-3.54 10.83 2.54 11.08 2.8l.79.81-1.02.48c-2.81 1.31-5.38 1.87-7.47 1.87Zm-.02-5.43c-.83 0-1.65.22-2.41.77-.45.33-1.47 1.18-1.04 1.91.65 1.11 4.19 1.9 9.14-.09-1.21-1-3.47-2.6-5.69-2.6v.01Z"/><path fill="#F3795C" d="M254.32 414.99c-2.46 0-4.37-.93-5.58-2.74-2.6-3.9-4.77-3.45-4.79-3.45l-.42-1.55c.13-.04 3.24-.85 6.54 4.1 2.6 3.89 8.96.96 9.03.93l.68 1.45c-.08.04-1.9.89-4.13 1.17-.46.06-.91.09-1.34.09h.01Z"/><path fill="#F3795C" d="M254.01 421.19c-.08 0-2.08-.23-4.13-1.15-2.86-1.29-4.43-3.31-4.53-5.86-.2-4.72-2.27-5.42-2.29-5.43l.43-1.55c.13.04 3.21.95 3.46 6.91.2 4.69 7.16 5.47 7.23 5.48l-.17 1.6ZM237.398 413.109l-1.566.329 1.609 7.643 1.566-.33-1.609-7.642Z"/><path fill="#F3795C" d="m242.396 414.399-10.719 2.137.313 1.569 10.719-2.136-.313-1.57ZM229.96 420.39h-1.6v6.18h1.6v-6.18Z"/><path fill="#F3795C" d="m232.964 421.394-8.146 2.01.384 1.553 8.145-2.009-.383-1.554Z"/><path fill="#4CBDBC" d="m291.97 480.85-3.55 16.9s-1.36 7.24.45 10.26c1.81 3.02 6.41 5.89 10.71 5.66 4.3-.23 9.58-2.41 12.07-5.06 2.49-2.64 3.55-6.64 1.51-14.19s-4.3-13.51-4.3-13.51l-9.21-2.64-4.9 1.21-2.79 1.36.01.01Z"/><path fill="#F3795C" d="M288.9 507.99c.34.37.26 1.22.34 1.73.31 1.94.86 3.46 2.69 4.41 5.65 2.95 13.47 3.29 18.65-.85 1.84-1.47 4.01-4.49 2.63-6.9 0 0-2.25 3.6-5.47 5-3.1 1.35-6.16 2.23-9.55 1.65-3.39-.58-6.88-2.39-9.3-5.05l.01.01ZM301.44 489.5h-1.2l.26-1c.07-.28 1.82-6.79 5.86-6.25 1.68.22 2.78 1.45 2.67 2.99-.15 2.14-2.56 4.27-7.59 4.27v-.01Zm4.46-5.68c-1.76 0-2.96 2.56-3.51 4.05 3.55-.23 4.97-1.71 5.05-2.75.05-.68-.44-1.17-1.29-1.28-.08-.01-.16-.02-.24-.02h-.01Z"/><path fill="#F3795C" d="M300.36 489.5c-5.03 0-7.44-2.13-7.59-4.27-.11-1.53.99-2.76 2.67-2.99 4.05-.55 5.79 5.98 5.86 6.25l.26.99h-1.03c-.06.01-.12.01-.17.01v.01Zm-4.46-5.68c-.08 0-.16 0-.24.02-.84.11-1.34.6-1.29 1.28.07 1.04 1.49 2.52 5.04 2.75-.55-1.49-1.76-4.05-3.51-4.05Z"/><path fill="#F3795C" d="M290.47 500.66c-.09 0-.18-.01-.27-.04l.51-1.52c-.24-.08-.42-.01-.42-.01.33-.12 3.03-1.86 4-4.97 1.2-3.84 4.31-6.03 4.44-6.12l.91 1.32s-2.79 1.98-3.83 5.28c-1.06 3.38-3.77 5.4-4.72 5.89-.2.1-.4.19-.63.19l.01-.02ZM309.07 499.74c-1.96-.45-5.56-2.38-5.11-6.53.16-1.49-.03-2.61-.55-3.24-.39-.47-.84-.52-.86-.52l.09-1.6c.11 0 1.13.08 1.96 1.05.84.98 1.16 2.49.95 4.49-.41 3.77 3.7 4.75 3.87 4.79l-.35 1.56ZM302.216 494.823l-5.313 5.725 1.173 1.089 5.313-5.725-1.173-1.089Z"/><path fill="#F3795C" d="M297.136 494.802 296.075 496l6.467 5.729 1.061-1.197-6.467-5.73ZM302.216 503.514l-5.313 5.725 1.173 1.089 5.312-5.725-1.172-1.089Z"/><path fill="#F3795C" d="m297.141 503.485-1.061 1.198 6.467 5.729 1.061-1.197-6.467-5.73Z"/><path fill="#8C4443" d="M292.51 470.12s8.23 1.27 14.26-1.78c0 0 .67 5.18.67 6.08 0 .9 1.66 6.04 1.43 6.49-.23.45-1.21 1.74-5.28 0s-4-1.81-5.28-1.74c-1.28.07-2.72 1.96-3.4 2.19-.68.23-2.87.3-2.94-.53-.07-.83.54-10.72.54-10.72v.01Z"/><path fill="#fff" d="M174.3 202.49c-.21.63-.56 1.18-1.01 1.6-.55.31-1.18.49-1.86.49-.68 0-1.29-.17-1.83-.47a3.778 3.778 0 0 1-1.16-3.5c.26-.57.67-1.09 1.22-1.48.54-.39 1.15-.62 1.76-.7.62.07 1.24.3 1.79.7.53.39.94.9 1.2 1.46.12.62.1 1.28-.11 1.91v-.01Z"/><path fill="#FFC8DC" d="M173.58 198.57c-.58.01-.99-.04-2.16-.06-.6-.01-1.19.3-1.71.68-.53.38-.93.89-1.18 1.44-.1-.78.22-1.49.73-2.04.45-.49 1.1-1.36 2.16-1.36s1.72.87 2.17 1.35l-.01-.01Z"/><path fill="#FFA6B2" d="M169.65 204.03c-.75-.22-1.36-.67-1.72-1.32-.33-.58-.96-1.41-.63-2.48.33-1.07 1.36-1.36 1.95-1.64-.51.55-.6 1.37-.73 2.04-.12.59-.09 1.22.11 1.84.2.62.56 1.16 1.01 1.57l.01-.01Z"/><path fill="#A3BEDC" d="M173.23 204.02c-.35.63-1.06 1.09-1.79 1.23-.65.13-1.68.41-2.55-.18-.87-.59-.89-1.71-.97-2.36.36.65 1.12.99 1.72 1.32a3.682 3.682 0 0 0 3.58-.01h.01Z"/><path fill="#98E1D0" d="M174.94 202.69c-.08.66-.16 1.74-.95 2.37-.79.63-1.9.32-2.54.19.73-.14 1.29-.77 1.79-1.23.44-.41.79-.94.99-1.55.2-.62.23-1.26.11-1.86.43.45.7 1.35.61 2.09l-.01-.01Z"/><path fill="#EAD69F" d="M174.94 202.69c.09-.74-.33-1.47-.61-2.09-.25-.55-.65-1.04-1.17-1.42-.53-.38-1.13-.61-1.74-.68.68-.08 1.49-.25 2.16.06.6.28 1.65.7 1.96 1.63.31.93-.29 1.92-.61 2.49l.01.01Z"/><path fill="#A398D6" d="M168.89 205.07c-.92-.42-1.9-1-2.21-1.95-.31-.95.13-2.01.61-2.89-.02.16-.03.33-.03.49 0 .74.33 1.41.66 1.99.08.65.21 1.37.63 1.96.1.14.21.27.33.4h.01Z"/><path fill="#56B7B5" d="M173.99 205.06c-.68.74-1.54 1.5-2.54 1.5s-1.86-.75-2.55-1.49c.14.07.3.13.46.18.7.23 1.44.13 2.09 0 .64.12 1.37.22 2.06 0 .17-.05.33-.12.48-.19Z"/><path fill="#80C187" d="M176.18 203.09c-.31.95-1.28 1.54-2.2 1.96.11-.12.22-.24.31-.38.43-.6.56-1.33.64-1.99.32-.57.64-1.24.64-1.97 0-.17-.01-.35-.03-.52.49.88.94 1.94.63 2.89l.01.01Z"/><path fill="#FF7A7F" d="M171.42 197.22c-.16.03-.32.07-.48.12-.7.23-1.24.76-1.69 1.24-.59.28-1.25.62-1.67 1.21-.1.14-.2.29-.28.44.12-1 .38-2.11 1.18-2.7.8-.59 1.94-.51 2.94-.31Z"/><path fill="#FFB985" d="M175.55 200.2c-.08-.14-.17-.28-.27-.41-.43-.6-1.09-.94-1.7-1.22-.45-.48-.98-1-1.67-1.22-.17-.05-.33-.1-.5-.13.99-.2 2.13-.29 2.94.29s1.07 1.69 1.2 2.69Z"/><path fill="#825282" d="M167.3 200.23c-.49.88-.81 1.92-.61 2.89-.45-.96-.55-2.08-.19-3.16a4.287 4.287 0 0 1 1.99-2.43c-.73.68-1.06 1.69-1.18 2.7h-.01Z"/><path fill="#8075B3" d="M171.44 206.56c-1.05.13-2.14-.12-3.06-.79a4.34 4.34 0 0 1-1.7-2.64c.42.9 1.29 1.53 2.21 1.95.69.74 1.56 1.37 2.55 1.49v-.01Z"/><path fill="#2E9C86" d="M176.18 203.09c-.2 1.04-.78 2-1.7 2.67-.91.66-2 .91-3.04.8.99-.12 1.86-.76 2.54-1.5.91-.43 1.78-1.06 2.2-1.96v-.01Z"/><path fill="#549458" d="M176.18 203.09c.19-.98-.14-2.01-.63-2.89-.13-1-.46-2.01-1.2-2.69a4.3 4.3 0 0 1 2.01 2.44c.35 1.07.25 2.18-.18 3.14Z"/><path fill="#FF9852" d="M174.35 197.51c-.87-.48-1.95-.49-2.94-.29-.99-.19-2.07-.18-2.94.31.77-.72 1.81-1.16 2.95-1.16 1.14 0 2.16.43 2.93 1.14Z"/><defs><linearGradient id="a" x1="0" x2="600" y1="300" y2="300" gradientUnits="userSpaceOnUse"><stop stop-color="#5BC7BA"/><stop offset="1" stop-color="#BEEDE7"/></linearGradient><linearGradient id="b" x1="121.06" x2="505.43" y1="254.94" y2="254.94" gradientUnits="userSpaceOnUse"><stop offset=".27" stop-color="#FF7A4E"/><stop offset="1" stop-color="#E0CC95"/></linearGradient><linearGradient id="c" x1="-99.54" x2="-98.54" y1="294.61" y2="294.61" gradientUnits="userSpaceOnUse"><stop offset=".27" stop-color="#FF7A4E"/><stop offset="1" stop-color="#E0CC95"/></linearGradient><linearGradient id="d" x1="-99.54" x2="-98.54" y1="334.29" y2="334.29" gradientUnits="userSpaceOnUse"><stop offset=".27" stop-color="#FF7A4E"/><stop offset="1" stop-color="#E0CC95"/></linearGradient><linearGradient id="e" x1="49.41" x2="485.19" y1="366.97" y2="366.97" gradientUnits="userSpaceOnUse"><stop offset=".27" stop-color="#FF7A4E"/><stop offset="1" stop-color="#E0CC95"/></linearGradient><linearGradient id="f" x1="492.66" x2="558.86" y1="376.27" y2="376.27" gradientUnits="userSpaceOnUse"><stop stop-color="#8ED7C6"/><stop offset="1" stop-color="#56ADAB"/></linearGradient><linearGradient id="g" x1="446.56" x2="491.87" y1="387.56" y2="387.56" gradientUnits="userSpaceOnUse"><stop stop-color="#8ED7C6"/><stop offset="1" stop-color="#56ADAB"/></linearGradient><linearGradient id="h" x1="557.88" x2="589.92" y1="401.86" y2="401.86" gradientUnits="userSpaceOnUse"><stop stop-color="#12AA98"/><stop offset="1" stop-color="#077"/></linearGradient><linearGradient id="i" x1="11" x2="42.57" y1="399.15" y2="399.15" gradientUnits="userSpaceOnUse"><stop stop-color="#008897"/><stop offset=".59" stop-color="#009E87"/><stop offset="1" stop-color="#00A880"/></linearGradient><linearGradient id="j" x1="60.27" x2="127.68" y1="349.14" y2="349.14" gradientUnits="userSpaceOnUse"><stop stop-color="#008897"/><stop offset=".59" stop-color="#009E87"/><stop offset="1" stop-color="#00A880"/></linearGradient><linearGradient id="k" x1="38.82" x2="107.62" y1="383.01" y2="383.01" gradientUnits="userSpaceOnUse"><stop stop-color="#8ED7C6"/><stop offset="1" stop-color="#56ADAB"/></linearGradient><linearGradient id="l" x1="126.17" x2="151.93" y1="413.78" y2="413.78" gradientUnits="userSpaceOnUse"><stop stop-color="#008897"/><stop offset=".59" stop-color="#009E87"/><stop offset="1" stop-color="#00A880"/></linearGradient><linearGradient id="m" x1="182.63" x2="208.39" y1="438.61" y2="438.61" gradientUnits="userSpaceOnUse"><stop stop-color="#12AA98"/><stop offset="1" stop-color="#077"/></linearGradient><linearGradient id="n" x1="386.6" x2="409.27" y1="426.72" y2="426.72" gradientUnits="userSpaceOnUse"><stop stop-color="#008897"/><stop offset=".59" stop-color="#009E87"/><stop offset="1" stop-color="#00A880"/></linearGradient><linearGradient id="o" x1="541.64" x2="565.1" y1="438.61" y2="438.61" gradientUnits="userSpaceOnUse"><stop stop-color="#12AA98"/><stop offset="1" stop-color="#077"/></linearGradient><linearGradient id="p" x1="336.7" x2="360.16" y1="413.78" y2="413.78" gradientUnits="userSpaceOnUse"><stop stop-color="#8ED7C6"/><stop offset="1" stop-color="#56ADAB"/></linearGradient><linearGradient id="q" x1="283.59" x2="291.89" y1="177.03" y2="177.03" gradientUnits="userSpaceOnUse"><stop stop-color="#12AA98"/><stop offset="1" stop-color="#077"/></linearGradient><linearGradient id="r" x1="324.26" x2="332.56" y1="174.93" y2="174.93" gradientUnits="userSpaceOnUse"><stop stop-color="#12AA98"/><stop offset="1" stop-color="#077"/></linearGradient><linearGradient id="s" x1="178.1" x2="391.6" y1="277.68" y2="277.68" gradientUnits="userSpaceOnUse"><stop stop-color="#D02801"/><stop offset="1" stop-color="#FF7F0A"/></linearGradient><linearGradient id="t" x1="255.5" x2="323.85" y1="392.43" y2="392.43" gradientUnits="userSpaceOnUse"><stop stop-color="#12AA98"/><stop offset="1" stop-color="#077"/></linearGradient><linearGradient id="u" x1="248.68" x2="360.86" y1="342.93" y2="342.93" gradientUnits="userSpaceOnUse"><stop stop-color="#008897"/><stop offset=".59" stop-color="#009E87"/><stop offset="1" stop-color="#00A880"/></linearGradient><linearGradient id="v" x1="161.16" x2="181.66" y1="202.35" y2="202.35" gradientUnits="userSpaceOnUse"><stop stop-color="#12AA98"/><stop offset="1" stop-color="#077"/></linearGradient><linearGradient id="w" x1="162.37" x2="180.45" y1="202.35" y2="202.35" gradientUnits="userSpaceOnUse"><stop stop-color="#8ED7C6"/><stop offset="1" stop-color="#56ADAB"/></linearGradient></defs></svg>