<svg width="1100" height="600" fill="none" xmlns="http://www.w3.org/2000/svg"><path d="M1100 0H0v600h1100V0Z" fill="url(#a)"/><path d="M209.678 303.089v-43.656h4.861v43.656h-4.861ZM229.108 303.089h-4.733V271.55h4.67v2.211c3.405-1.893 6.662-2.84 9.778-2.84 4.204 0 7.037 1.138 8.485 3.405 1.448 2.268 2.176 6.31 2.176 12.11v16.653h-4.67v-16.526c0-4.373-.431-7.369-1.293-8.987-.862-1.617-2.706-2.43-5.518-2.43-1.349 0-2.762.198-4.26.601-1.491.402-2.642.791-3.441 1.165l-1.201.566v25.611h.007ZM274.395 275.648h-10.032v15.077c0 3.617.261 5.991.791 7.129.523 1.137 1.773 1.702 3.751 1.702l5.617-.381.318 3.914c-2.819.466-4.96.692-6.436.692-3.278 0-5.553-.798-6.811-2.395-1.265-1.597-1.893-4.649-1.893-9.149v-16.589h-4.48v-4.098h4.48v-9.651h4.67v9.651h10.032v4.098h-.007ZM301.646 299.175l1.83-.191.127 3.723c-4.797.671-8.895 1.011-12.3 1.011-4.543 0-7.758-1.315-9.651-3.943-1.894-2.628-2.84-6.719-2.84-12.272 0-11.057 4.394-16.589 13.183-16.589 4.246 0 7.426 1.187 9.524 3.561 2.105 2.374 3.151 6.111 3.151 11.198l-.254 3.596h-20.821c0 3.49.628 6.076 1.893 7.758 1.265 1.681 3.462 2.522 6.592 2.522 3.13 0 6.316-.127 9.559-.381l.007.007Zm-1.703-13.693c0-3.871-.621-6.599-1.858-8.202-1.243-1.597-3.257-2.395-6.055-2.395-2.797 0-4.896.84-6.309 2.522-1.406 1.681-2.133 4.373-2.176 8.075h16.398ZM312.053 303.089V271.55h4.67v4.289c3.66-2.523 7.51-4.183 11.544-4.981v4.797c-1.766.339-3.603.862-5.518 1.575-1.914.714-3.377 1.35-4.387 1.894l-1.576.819v23.153h-4.733v-.007ZM334.258 303.089v-45.295h4.734v45.295h-4.734ZM369.902 299.175l1.83-.191.127 3.723c-4.797.671-8.895 1.011-12.3 1.011-4.543 0-7.758-1.315-9.651-3.943-1.894-2.628-2.841-6.719-2.841-12.272 0-11.057 4.395-16.589 13.184-16.589 4.246 0 7.426 1.187 9.524 3.561 2.105 2.374 3.151 6.111 3.151 11.198l-.254 3.596h-20.821c0 3.49.628 6.076 1.893 7.758 1.265 1.681 3.462 2.522 6.592 2.522 3.13 0 6.316-.127 9.559-.381l.007.007Zm-1.703-13.693c0-3.871-.621-6.599-1.858-8.202-1.243-1.597-3.257-2.395-6.055-2.395-2.797 0-4.896.84-6.309 2.522-1.406 1.681-2.134 4.373-2.176 8.075h16.398ZM404.536 257.794v45.295h-4.67v-2.148c-3.236 1.851-6.436 2.777-9.587 2.777-1.682 0-3.152-.212-4.416-.629-1.265-.417-2.438-1.18-3.533-2.268-2.268-2.275-3.405-6.465-3.405-12.583s1.017-10.534 3.059-13.247c2.042-2.713 5.412-4.07 10.124-4.07 2.438 0 5.024.276 7.758.82v-13.94h4.67v-.007Zm-16.405 41.254c.756.296 1.738.438 2.932.438s2.543-.198 4.034-.601c1.491-.395 2.657-.791 3.504-1.166l1.265-.565v-21.386c-2.692-.502-5.193-.756-7.51-.756-3.194 0-5.426 1.017-6.684 3.059-1.265 2.042-1.893 5.207-1.893 9.496 0 4.882.734 8.16 2.211 9.842.671.798 1.385 1.349 2.148 1.639h-.007ZM425.852 317.912c-5.044 0-8.57-.686-10.569-2.049-2-1.364-2.996-3.858-2.996-7.475 0-1.724.382-3.123 1.138-4.197.756-1.074 2.041-2.282 3.85-3.624-1.18-.799-1.766-2.247-1.766-4.353 0-.713.523-2.041 1.575-3.977l.566-1.011c-3.321-1.512-4.981-4.691-4.981-9.524 0-7.192 3.935-10.788 11.798-10.788 2.021 0 3.886.212 5.617.629l.947.19 9.333-.254v4.034l-5.991-.127c1.385 1.392 2.084 3.49 2.084 6.309 0 3.957-.975 6.719-2.932 8.295-1.957 1.575-5.037 2.367-9.241 2.367-1.138 0-2.169-.085-3.095-.255-.756 1.852-1.137 3.053-1.137 3.597 0 1.307.395 2.112 1.201 2.43.798.318 3.215.473 7.256.473s6.938.629 8.704 1.894c1.766 1.265 2.65 3.723 2.65 7.383 0 6.684-4.671 10.033-14.004 10.033h-.007Zm-8.895-9.906c0 2.226.622 3.773 1.858 4.635 1.244.862 3.533 1.293 6.875 1.293s5.737-.466 7.192-1.392c1.456-.926 2.176-2.473 2.176-4.635s-.53-3.561-1.575-4.196c-1.053-.629-3.116-.947-6.182-.947l-6.811-.318c-1.385 1.01-2.325 1.893-2.805 2.649-.481.756-.728 1.724-.728 2.904v.007Zm.445-26.304c0 2.48.558 4.247 1.675 5.299 1.116 1.053 2.953 1.576 5.518 1.576 2.564 0 4.394-.523 5.489-1.576 1.095-1.052 1.639-2.826 1.639-5.327s-.544-4.281-1.639-5.327c-1.095-1.053-2.925-1.575-5.489-1.575-2.565 0-4.409.536-5.518 1.61-1.117 1.074-1.675 2.848-1.675 5.328v-.008ZM467.55 299.175l1.83-.191.127 3.723c-4.797.671-8.895 1.011-12.3 1.011-4.543 0-7.758-1.315-9.651-3.943-1.894-2.628-2.841-6.719-2.841-12.272 0-11.057 4.395-16.589 13.184-16.589 4.246 0 7.425 1.187 9.524 3.561 2.105 2.374 3.151 6.111 3.151 11.198l-.254 3.596h-20.822c0 3.49.629 6.076 1.894 7.758 1.265 1.681 3.462 2.522 6.592 2.522 3.13 0 6.316-.127 9.559-.381l.007.007Zm-1.703-13.693c0-3.871-.621-6.599-1.858-8.202-1.243-1.597-3.257-2.395-6.055-2.395-2.798 0-4.896.84-6.309 2.522-1.406 1.681-2.134 4.373-2.176 8.075h16.398ZM477.958 303.089V271.55h4.67v4.289c3.66-2.523 7.51-4.183 11.545-4.981v4.797c-1.767.339-3.604.862-5.518 1.575-1.915.714-3.377 1.35-4.388 1.894l-1.575.819v23.153h-4.734v-.007ZM221.972 323.317h-10.301v5.383h9.389v3.13h-9.389v6.182h-3.646v-17.853h13.947v3.158ZM234.209 338.323c-6.366 0-10.273-3.568-10.273-9.234s3.935-9.234 10.301-9.234 10.301 3.568 10.301 9.234-3.956 9.234-10.322 9.234h-.007Zm.028-15.268c-3.985 0-6.571 2.303-6.571 6.006 0 3.702 2.586 5.977 6.599 5.977s6.522-2.304 6.522-5.977c0-3.674-2.565-6.006-6.55-6.006ZM266.136 329.138c0 5.667-2.819 9.185-9.135 9.185s-8.923-3.186-8.923-9.185v-8.979h3.645v8.979c0 3.957 1.759 5.9 5.511 5.9 3.752 0 5.327-1.993 5.327-5.9v-8.979h3.568v8.979h.007ZM288.384 338.012h-3.674l-10.428-12.314h-.049v12.314h-3.646v-17.853h3.674l10.428 12.314h.049v-12.314h3.646v17.853ZM300.777 338.012h-7.842v-17.853h7.842c7.814 0 11.382 2.925 11.382 8.796 0 5.871-3.519 9.057-11.382 9.057Zm-.205-14.695h-3.985v11.488h3.985c5.589 0 7.842-2.12 7.842-5.822s-2.147-5.666-7.842-5.666ZM333.17 338.012h-3.984l-2.07-4.839h-8.076l-2.021 4.839h-3.907l8.048-17.853h3.984l8.019 17.853h.007Zm-10.068-14.441h-.049l-2.925 6.988h5.949l-2.975-6.988ZM350.607 323.317h-7.552v14.695h-3.646v-14.695h-7.532v-3.158h18.73v3.158ZM357.256 338.012h-3.646v-17.853h3.646v17.853ZM371.407 338.323c-6.366 0-10.273-3.568-10.273-9.234s3.936-9.234 10.301-9.234c6.366 0 10.301 3.568 10.301 9.234s-3.956 9.234-10.322 9.234h-.007Zm.028-15.268c-3.984 0-6.57 2.303-6.57 6.006 0 3.702 2.586 5.977 6.599 5.977s6.521-2.304 6.521-5.977c0-3.674-2.565-6.006-6.55-6.006ZM403.18 338.012h-3.674l-10.428-12.314h-.05v12.314h-3.645v-17.853h3.674l10.428 12.314h.049v-12.314h3.646v17.853ZM111.069 358.763c-9.347 0-18.298-2.848-25.908-8.253a45.174 45.174 0 0 1-7.962-7.22 45.163 45.163 0 0 1-11.043-29.342 45.192 45.192 0 0 1 2.176-14.144l1.145-3.547 1.18 3.532c2.854 8.514 8.47 16.06 15.819 21.26l.282.261.085.148c4.48 8.005 11.198 14.343 19.436 18.32l.262.128.176.233-.932.791.961-.763c5.058 6.337 11.756 11.071 19.372 13.692l3.307 1.138-3.293 1.173a44.703 44.703 0 0 1-14.808 2.593h-.255Zm-41.38-54.664a42.87 42.87 0 0 0-1.088 9.835 42.666 42.666 0 0 0 17.974 34.577 42.096 42.096 0 0 0 24.487 7.8h.241a42.53 42.53 0 0 0 10.703-1.427 44.936 44.936 0 0 1-17.048-13.021c-8.5-4.162-15.444-10.711-20.129-18.963-6.634-4.755-11.919-11.333-15.154-18.801h.014Z" fill="#fff"/><path d="m125.723 356.311-.403-.141a44.937 44.937 0 0 1-20.489-14.477l-3.391-4.253 4.854 2.339c6.118 2.939 12.604 4.436 19.372 4.359 6.762-.036 13.248-1.569 19.274-4.543l4.381-2.162-2.84 4.027c-5.278 6.761-12.308 11.848-20.341 14.71l-.403.141h-.014Zm-15.437-12.23a42.383 42.383 0 0 0 15.423 9.637 42.404 42.404 0 0 0 15.331-9.813 46.172 46.172 0 0 1-15.366 2.691c-5.328.015-10.464-.812-15.388-2.515Z" fill="#fff"/><path d="M125.412 346.589c-7.037 0-13.805-1.533-20.115-4.564l-3.115-1.498 3.363-.798a77.383 77.383 0 0 0 19.493-7.553l.586-.325.586.318a77.281 77.281 0 0 0 19.536 7.334l3.37.763-3.095 1.533c-6.359 3.144-13.205 4.762-20.341 4.797h-.261l-.007-.007Zm-15.84-5.383c5.115 1.978 10.527 2.953 16.094 2.932 5.582-.029 10.98-1.081 16.081-3.123a79.983 79.983 0 0 1-16.109-6.38 79.978 79.978 0 0 1-16.066 6.571Z" fill="#fff"/><path d="M139.902 358.6c-4.988 0-9.891-.819-14.582-2.43l-3.307-1.138 3.293-1.173c7.588-2.706 14.236-7.517 19.231-13.911l.17-.219.275-.163c8.196-4.062 14.844-10.47 19.239-18.532l.183-.339.255-.127c7.256-5.278 12.759-12.866 15.508-21.379l1.144-3.547 1.187 3.533a45.292 45.292 0 0 1 2.332 14.116 45.142 45.142 0 0 1-10.725 29.462 45.48 45.48 0 0 1-7.885 7.305c-7.616 5.532-16.631 8.486-26.07 8.535h-.248v.007Zm-10.477-3.759c3.49.891 7.072 1.307 10.717 1.307 8.917-.049 17.444-2.84 24.644-8.068a42.424 42.424 0 0 0 7.454-6.91 42.69 42.69 0 0 0 10.138-27.865 42.839 42.839 0 0 0-1.194-9.827c-3.151 7.503-8.365 14.137-14.95 18.962-4.592 8.309-11.467 14.929-19.917 19.182-4.564 5.766-10.336 10.259-16.9 13.205l.008.014Z" fill="#fff"/><path d="m162.087 324.603 2.162-3.611c3.547-6.514 5.412-13.939 5.37-21.436-.043-7.404-1.936-14.716-5.476-21.153l-1.893-3.448 3.702 1.866c7.687 5.489 13.565 13.431 16.554 22.361l.127.381-.12.382c-2.918 9.029-8.768 17.084-16.476 22.665l-.177.106-3.766 1.879-.007.008Zm6.543-42.441a46.952 46.952 0 0 1 .099 35.043c5.15-4.832 9.086-10.937 11.318-17.627-2.289-6.62-6.26-12.654-11.417-17.416Z" fill="#fff"/><path d="m164.723 325.245-.622-3.412a77.55 77.55 0 0 0-7.298-21.507l-.283-.558.283-.558a77.572 77.572 0 0 0 7.206-21.612l.601-3.427 1.674 3.045c3.738 6.797 5.737 14.519 5.779 22.326.043 7.913-1.921 15.749-5.687 22.658l-1.66 3.045h.007Zm-5.455-25.484a79.936 79.936 0 0 1 6.522 18.108 44.518 44.518 0 0 0 3.829-18.313 44.69 44.69 0 0 0-3.9-17.995 79.77 79.77 0 0 1-6.451 18.207v-.007Z" fill="#fff"/><path d="m145.681 341.954-.48-.063a79.38 79.38 0 0 1-20.157-7.567l-1.971-1.067 1.964-1.088a77.66 77.66 0 0 0 6.401-3.963 77.846 77.846 0 0 0 21.69-22.531 79.927 79.927 0 0 0 3.681-6.465l1.088-2.141 1.095 2.134a80.094 80.094 0 0 1 7.532 22.185l.084.452-.24.396a46.646 46.646 0 0 1-20.277 19.521l-.388.19-.022.007Zm-17.507-8.76a76.898 76.898 0 0 0 17.14 6.203c7.948-4.041 14.385-10.238 18.702-17.995a77.342 77.342 0 0 0-6.161-18.942 80.194 80.194 0 0 1-2.664 4.529 80.135 80.135 0 0 1-22.368 23.237 82.13 82.13 0 0 1-4.642 2.968h-.007ZM69.52 304.099l-1.188-3.532a45.272 45.272 0 0 1-2.331-14.117 45.108 45.108 0 0 1 18.355-36.576c7.673-5.659 16.78-8.676 26.325-8.726 5.037-.056 10.068.792 14.837 2.431l3.306 1.137-3.292 1.173a42.413 42.413 0 0 0-19.055 13.692l-.155.198-.219.12c-8.302 4.07-15.24 10.761-19.6 18.857l-.133.248-.262.226c-7.22 5.27-12.703 12.844-15.444 21.329l-1.145 3.547v-.007Zm41.408-60.499h-.24c-9.022.049-17.628 2.904-24.884 8.245a43.207 43.207 0 0 0-6.916 6.38 42.63 42.63 0 0 0-10.443 28.211c.021 3.328.417 6.62 1.194 9.828 3.13-7.44 8.288-14.039 14.795-18.85 4.578-8.401 11.763-15.332 20.284-19.564a44.961 44.961 0 0 1 16.688-12.936 42.43 42.43 0 0 0-10.485-1.314h.007Z" fill="#fff"/><path d="m91.146 329.159-6.168-6.16c-7.73-5.497-13.636-13.453-16.646-22.425l-.127-.382.12-.381c2.897-8.973 8.697-16.978 16.335-22.552l4.345-3.173-2.543 4.741c-3.477 6.479-5.292 13.82-5.25 21.224.042 7.503 1.985 14.907 5.624 21.407l4.31 7.709v-.008ZM70.79 300.178c2.303 6.663 6.31 12.724 11.51 17.501a47.159 47.159 0 0 1-3.534-17.621 47.045 47.045 0 0 1 3.236-17.409c-5.094 4.819-9 10.888-11.212 17.529Z" fill="#fff"/><path d="m86.39 325.676-1.695-3.031a46.96 46.96 0 0 1-5.934-22.594c-.043-7.814 1.872-15.558 5.539-22.39l1.561-2.911.763 3.229a77.355 77.355 0 0 0 7.425 21.521l.29.551-.282.558a77.423 77.423 0 0 0-7.087 21.634l-.586 3.419.007.014Zm-1.433-43.74a44.602 44.602 0 0 0-3.738 18.108 44.625 44.625 0 0 0 4.027 18.27 79.943 79.943 0 0 1 6.352-18.228 79.998 79.998 0 0 1-6.641-18.15Z" fill="#fff"/><path d="m105.686 342.209-.389-.184c-8.775-4.239-15.868-10.923-20.595-19.366l-.212-.374.07-.438a79.94 79.94 0 0 1 7.313-22.319l1.074-2.148 1.11 2.134a78.21 78.21 0 0 0 3.73 6.415 77.674 77.674 0 0 0 21.966 22.347 77.939 77.939 0 0 0 6.457 3.9l1.971 1.067-1.964 1.088a79.4 79.4 0 0 1-20.107 7.793l-.417.099-.007-.014Zm-18.638-20.383c4.444 7.75 10.958 13.883 18.913 17.797a77.246 77.246 0 0 0 17.105-6.401 80.274 80.274 0 0 1-4.684-2.925 80.077 80.077 0 0 1-22.651-23.047 76.824 76.824 0 0 1-2.699-4.486 77.293 77.293 0 0 0-5.977 19.055l-.007.007ZM181.354 303.492l-1.18-3.533c-2.819-8.422-8.358-15.911-15.6-21.104l-.254-.127-.184-.332c-4.451-8.082-11.467-14.71-19.768-18.666l-.247-.12-.198-.226c-5.038-6.232-11.679-10.895-19.203-13.481l-3.307-1.137 3.292-1.173A44.663 44.663 0 0 1 139.514 241c9.573-.021 18.73 2.883 26.473 8.478a45.112 45.112 0 0 1 18.695 36.337 45.184 45.184 0 0 1-2.176 14.144l-1.145 3.547-.007-.014Zm-15.211-26.523c6.542 4.72 11.785 11.269 14.999 18.687a42.862 42.862 0 0 0 1.088-9.834 42.625 42.625 0 0 0-17.677-34.358c-7.256-5.243-15.826-8.012-24.785-8.012h-.24a42.499 42.499 0 0 0-10.704 1.427 44.996 44.996 0 0 1 16.83 12.753c8.598 4.168 15.847 11.014 20.496 19.344l-.007-.007Z" fill="#fff"/><path d="m101.199 262.302 3.349-4.24c5.257-6.648 12.223-11.65 20.157-14.476l.403-.141.403.141a44.969 44.969 0 0 1 20.312 14.257l3.398 4.197-4.875-2.324c-5.934-2.826-12.3-4.261-18.92-4.261h-.255c-6.712.036-13.141 1.541-19.125 4.473l-4.847 2.374Zm23.923-16.257a42.391 42.391 0 0 0-15.07 9.559c4.832-1.696 9.891-2.565 15.105-2.593a46.174 46.174 0 0 1 15.134 2.423 42.388 42.388 0 0 0-15.176-9.389h.007Z" fill="#fff"/><path d="m125.243 267.721-.594-.325a77.287 77.287 0 0 0-19.422-7.369l-.12-.036-2.961-.989 2.841-1.293c6.302-3.087 13.099-4.677 20.178-4.712 7.044-.036 13.89 1.476 20.242 4.5l2.741 1.307-2.861.968a77.372 77.372 0 0 0-19.451 7.609l-.586.325-.007.015Zm-16.024-9.192a79.287 79.287 0 0 1 16.009 6.401 78.942 78.942 0 0 1 15.932-6.578c-5.023-1.929-10.294-2.897-15.727-2.897h-.254c-5.539.029-10.887 1.06-15.953 3.067l-.007.007Z" fill="#fff"/><path d="m157.897 302.46-1.095-2.134a77.645 77.645 0 0 0-3.751-6.521 77.747 77.747 0 0 0-21.761-22.361 78.603 78.603 0 0 0-6.634-4.048l-1.957-1.06 1.943-1.081a79.156 79.156 0 0 1 19.938-7.814l.438-.113.409.19c8.761 4.176 16.166 11.17 20.864 19.698l.212.382-.071.431A80.12 80.12 0 0 1 159 300.326l-1.088 2.141-.015-.007Zm-30.118-36.117a83.647 83.647 0 0 1 4.889 3.073 80.05 80.05 0 0 1 22.446 23.061 81.005 81.005 0 0 1 2.734 4.585 77.667 77.667 0 0 0 6.09-19.055c-4.444-7.835-11.205-14.208-19.175-18.108a77.43 77.43 0 0 0-16.977 6.43l-.007.014Z" fill="#fff"/><path d="m92.99 302.771-1.11-2.134a79.95 79.95 0 0 1-7.658-22.206l-.078-.424.198-.409c4.6-8.549 11.919-15.6 20.609-19.861l.452-.219.445.149a79.627 79.627 0 0 1 19.974 7.581l1.957 1.06-1.943 1.081a77.898 77.898 0 0 0-6.585 4.119 77.568 77.568 0 0 0-21.52 22.601 77.553 77.553 0 0 0-3.66 6.514l-1.074 2.148h-.007Zm-6.281-24.389a77.598 77.598 0 0 0 6.28 18.998 82.004 82.004 0 0 1 2.657-4.571 80.074 80.074 0 0 1 22.199-23.308 79.984 79.984 0 0 1 4.847-3.13 77.281 77.281 0 0 0-17.056-6.246c-7.934 3.992-14.632 10.45-18.934 18.25l.007.007Z" fill="#fff"/><path d="m125.631 334.642-.587-.318a80.807 80.807 0 0 1-6.655-4.02 80.078 80.078 0 0 1-22.651-23.047 79.69 79.69 0 0 1-3.85-6.613l-.29-.551.282-.558a81.518 81.518 0 0 1 3.773-6.719 80.063 80.063 0 0 1 22.199-23.308 79.378 79.378 0 0 1 6.797-4.246l.586-.325.593.325a79.28 79.28 0 0 1 6.84 4.175 80.076 80.076 0 0 1 22.446 23.061 79.073 79.073 0 0 1 3.871 6.726l.283.558-.283.559a79.193 79.193 0 0 1-3.794 6.669 80.135 80.135 0 0 1-22.368 23.237 79.31 79.31 0 0 1-6.606 4.091l-.586.325v-.021Zm-31.285-34.577a77.976 77.976 0 0 0 3.44 5.857 77.685 77.685 0 0 0 21.966 22.347 77.721 77.721 0 0 0 5.865 3.582 76.05 76.05 0 0 0 5.814-3.638 77.833 77.833 0 0 0 21.69-22.531 80.06 80.06 0 0 0 3.392-5.907 77.45 77.45 0 0 0-3.469-5.963 77.76 77.76 0 0 0-21.761-22.361 80.51 80.51 0 0 0-6.041-3.723 75.893 75.893 0 0 0-5.998 3.787 77.572 77.572 0 0 0-21.52 22.601 77.19 77.19 0 0 0-3.378 5.956v-.007ZM921.662 331.314c-5.547-.585-9.554-3.328-11.4-7.803-.237-.576-.407-1.088-.377-1.137.031-.048.899-.089 1.931-.089h1.875l.221.501c.599 1.354 1.685 2.609 2.986 3.45 1.891 1.223 4.083 1.77 7.098 1.77 3.894 0 6.53-.956 8.497-3.082 1.076-1.162 1.799-2.575 2.246-4.387.365-1.483.467-2.686.467-5.508v-2.628l-.398.662c-.675 1.122-1.165 1.723-2.214 2.717-2.515 2.384-6.09 3.582-10.091 3.381-7.157-.358-12.483-4.984-13.651-11.857-.208-1.224-.242-3.967-.065-5.214 1.019-7.168 6.698-12.137 14.276-12.492 6.017-.281 11.186 2.314 13.955 7.007.593 1.005 1.19 2.472 1.49 3.661.506 2.009.53 2.485.53 10.52-.001 7.524-.006 7.694-.267 9.144-.796 4.421-2.681 7.41-5.91 9.373-2.733 1.662-7.09 2.444-11.199 2.011Zm4.165-15.831c4.605-.699 7.822-3.525 9.002-7.91.277-1.029.305-1.322.303-3.138-.002-1.791-.034-2.12-.301-3.12-.973-3.642-3.479-6.368-6.911-7.516a12.697 12.697 0 0 0-6.011-.522c-4.021.606-7.111 3.011-8.528 6.639-.676 1.728-.756 2.21-.759 4.519-.002 1.818.033 2.25.247 3.054.554 2.082 1.464 3.673 2.898 5.07 2.458 2.395 6.26 3.5 10.06 2.924Zm-189.66 3.816c-1.094-.141-2.67-.627-3.684-1.134-3.138-1.57-5.105-4.596-5.681-8.737-.08-.577-.124-4.102-.124-10.036v-9.145h3.775l.003 8.725c.004 8.626.042 9.67.407 11.174.666 2.738 2.625 4.757 5.309 5.469 1.038.275 3.443.27 4.459-.011 2.601-.717 4.398-2.465 5.246-5.104.45-1.398.474-1.974.475-11.242l.001-9.011h3.879l.036 9.297.037 9.297.3 1.095c.853 3.115 2.588 4.895 5.585 5.731.784.219 3.33.187 4.232-.052 2.089-.554 3.799-1.926 4.663-3.742 1.017-2.136 1.052-2.565 1.055-12.844l.002-8.782h3.774v9.145c0 5.934-.043 9.459-.123 10.036-.576 4.141-2.544 7.167-5.681 8.737-3.732 1.867-8.865 1.607-12.17-.617-1.291-.869-3.038-2.94-3.432-4.069-.066-.191-.156-.347-.199-.347-.044 0-.238.321-.433.715-.773 1.565-2.321 3.196-3.878 4.087-2.13 1.22-5.039 1.726-7.833 1.365Zm51.251.054c-1.934-.245-4.023-.878-5.491-1.664-3.747-2.007-6.245-5.389-7.169-9.707-.297-1.387-.297-5.364 0-6.724 1.145-5.233 4.624-9.216 9.457-10.825 1.872-.624 3.082-.8 5.49-.8 2.411 0 3.504.159 5.439.791 4.787 1.563 8.34 5.601 9.363 10.64.347 1.71.406 3.202.409 10.38l.003 7.18h-3.546l-.003-3.461-.004-3.462-.544 1.045c-1.776 3.409-4.806 5.627-8.735 6.396-.924.18-3.861.313-4.669.211Zm4.863-3.745c4.638-1.005 7.755-4.278 8.564-8.99a12.885 12.885 0 0 0-.525-6.302c-1.096-3.138-3.45-5.471-6.576-6.517-4.974-1.664-10.361-.178-13.17 3.635-1.464 1.985-2.193 4.333-2.193 7.059 0 5.897 3.627 10.296 9.247 11.216 1.205.197 3.51.147 4.653-.101Zm53.544 3.703c-5.17-.653-9.437-3.554-11.553-7.856-1.075-2.185-1.44-3.733-1.523-6.468-.072-2.362.096-3.66.719-5.563 1.387-4.239 4.722-7.566 9.016-8.994 1.903-.633 3.025-.797 5.445-.797 2.485 0 3.649.179 5.569.856 2.708.956 5.011 2.645 6.692 4.907 1.833 2.468 2.838 5.663 2.838 9.025v1.273h-26.419l.07.543c.33 2.552 1.544 5.005 3.283 6.633.962.9 1.587 1.325 2.744 1.868 2.918 1.368 6.653 1.494 9.835.332 1.8-.657 3.559-2.011 4.607-3.545l.544-.796h4.093l-.076.257c-.042.142-.257.592-.478 1.001-1.981 3.676-5.503 6.201-9.9 7.099-1.327.271-4.21.389-5.506.225Zm13.132-17.479c-.493-2.722-2.187-5.329-4.431-6.819-4.106-2.725-10.206-2.481-14.008.562-1.886 1.51-3.116 3.609-3.733 6.372l-.07.314h22.32l-.078-.429Zm17.707 17.47c-3.919-.509-6.862-2.656-8.189-5.976a19.613 19.613 0 0 1-.556-1.653l-.25-.887-.036-15.304-.036-15.305H871.378v10.07h16.701V293.794h-16.712l.038 8.095c.037 7.919.044 8.115.289 8.988.705 2.518 2.253 4.072 4.717 4.736 1.038.279 3.545.276 4.576-.007 1.838-.504 3.241-1.585 4.027-3.104.562-1.086.795-2.041.878-3.604l.071-1.316 1.876-.032 1.877-.031-.075 1.462c-.307 5.984-3.496 9.599-9.112 10.326-1.006.13-2.845.128-3.865-.005Zm80.162.051c-2.888-.366-4.926-1.059-6.759-2.301-2.212-1.497-3.931-3.951-4.736-6.758-.601-2.096-.629-2.608-.63-11.666l-.001-8.381h3.763l.042 8.438c.04 8.053.053 8.486.28 9.469.502 2.176 1.353 3.799 2.671 5.092 1.153 1.13 2.376 1.785 4.312 2.309 1.172.317 4.225.352 5.475.063 3.773-.872 6.171-3.233 7.142-7.032.366-1.432.451-3.51.451-11.102v-7.237h3.775v8.071c0 5.006-.047 8.491-.123 9.177-.266 2.379-1.124 4.845-2.285 6.564-1.785 2.643-4.711 4.434-8.315 5.089-.968.176-4.244.308-5.062.205Zm61.194 0c-2.88-.366-4.92-1.059-6.76-2.301-2.21-1.497-3.93-3.951-4.73-6.758-.6-2.096-.63-2.608-.63-11.666v-8.381h3.76l.04 8.438c.04 8.053.06 8.486.28 9.469.5 2.176 1.36 3.799 2.67 5.092 1.16 1.13 2.38 1.785 4.32 2.309 1.17.317 4.22.352 5.47.063 3.77-.872 6.17-3.233 7.14-7.032.37-1.432.45-3.51.45-11.102v-7.237h3.78v8.071c0 5.006-.05 8.491-.13 9.177-.26 2.379-1.12 4.845-2.28 6.564-1.78 2.643-4.71 4.434-8.31 5.089-.97.176-4.25.308-5.07.205Zm-206.466-21.097v-20.367H815.443v40.735H811.554v-20.368Zm11.667 0v-20.367H827.11v40.735H823.221v-20.368Zm155.142 10.556c.031-7.404.077-9.952.186-10.384.577-2.289 1.187-3.628 2.254-4.954 1.472-1.828 3.53-3.021 6.221-3.605 1.646-.358 4.759-.35 6.399.017 5.455 1.218 8.317 4.914 8.627 11.145l.05 1.001H998.234v-.864c0-1.669-.391-3.283-1.109-4.586-.512-.927-1.794-2.121-2.78-2.588-1.403-.663-2.213-.821-4.175-.813-1.373.006-1.895.056-2.609.25-2.684.728-4.339 2.448-5.138 5.34-.25.905-.253 1.025-.291 10.384l-.038 9.469H978.321l.042-9.812Z" fill="#fff"/><path fill-rule="evenodd" clip-rule="evenodd" d="M638.317 358.038c31.929 0 57.812-25.883 57.812-57.812s-25.883-57.813-57.812-57.813-57.813 25.884-57.813 57.813c0 31.929 25.884 57.812 57.813 57.812Zm-9.522-34.815c-7.858 9.209-8.586 10.002-9.557 10.407-1.696.709-3.429.307-4.659-1.079-.671-.757-20.822-28.268-22.423-30.614-.895-1.312-.979-1.606-.861-3.026.112-1.355.275-1.706 1.177-2.533.576-.528 1.382-1.043 1.79-1.146 1.257-.315 2.816.153 3.779 1.135.497.507 5.132 6.712 10.299 13.789 5.168 7.077 9.504 12.829 9.636 12.782.132-.046 1.966-2.11 4.075-4.587s4.174-4.731 4.588-5.009c1.586-1.066 4.694-.363 5.561 1.257 1.357 2.536.985 3.479-3.405 8.624Zm45.803-7.632c-11.175 15.338-12.88 17.558-13.819 18.004-1.852.878-3.854.395-5.344-1.291-.403-.457-2.76-2.625-5.236-4.818-14.364-12.718-23.164-21.662-26.638-27.074-2.977-4.637-4.219-11.19-3.165-16.698.918-4.795 3.094-8.402 7.299-12.094 4.426-3.887 11.272-5.268 16.839-3.396 6.997 2.354 11.97 7.734 13.419 14.518.594 2.78.361 8.033-.469 10.587-1.422 4.373-3.972 8.108-7.327 10.729-2.142 1.674-3.578 2.166-5.106 1.751-.604-.164-1.341-.514-1.637-.777-1.853-1.649-1.754-5.068.185-6.402.354-.244 1.38-1.14 2.28-1.993 3.982-3.773 5.284-9.867 3.1-14.513-1.58-3.362-5.465-6.116-9.03-6.402-5.432-.436-10.661 4.183-11.508 10.166-.48 3.387.273 7.036 2.047 9.921 2.504 4.073 10.064 11.8 22.18 22.671a797.226 797.226 0 0 1 4.417 3.987l1.221 1.12 2.701-3.68a2723.23 2723.23 0 0 0 10.256-14.048c6.26-8.61 6.778-9.325 7.444-9.855l.205-.157c1.624-1.224 4.662-.783 5.72.831 1.272 1.942 1.102 3.84-.54 6.007-1.573 2.075-4.741 6.382-9.494 12.906Z" fill="#fff"/><defs><linearGradient id="a" x1="0" y1="300" x2="1100" y2="300" gradientUnits="userSpaceOnUse"><stop stop-color="#6500D6"/><stop offset="1" stop-color="#B271FF"/></linearGradient></defs></svg>