<svg width="350" height="350" fill="none" xmlns="http://www.w3.org/2000/svg"><path d="M350 0H0v350h350V0Z" fill="url(#a)"/><path d="M252.038 195.424c-3.707-.391-6.386-2.225-7.619-5.216-.159-.385-.272-.727-.252-.76.02-.032.601-.059 1.29-.059h1.254l.147.334c.401.905 1.127 1.745 1.996 2.307 1.264.817 2.729 1.182 4.745 1.182 2.603 0 4.365-.639 5.68-2.059.719-.777 1.202-1.722 1.501-2.933.244-.991.312-1.795.312-3.681v-1.757l-.266.442c-.452.75-.779 1.152-1.48 1.816-1.682 1.594-4.071 2.395-6.745 2.261-4.784-.24-8.344-3.332-9.125-7.926-.139-.818-.162-2.652-.043-3.486.681-4.79 4.477-8.112 9.542-8.349 4.022-.188 7.477 1.547 9.328 4.683.397.672.796 1.653.996 2.448.338 1.342.354 1.661.354 7.031-.001 5.03-.004 5.143-.178 6.112-.533 2.955-1.793 4.954-3.95 6.266-1.827 1.11-4.74 1.633-7.487 1.344Zm2.784-10.582c3.079-.467 5.229-2.356 6.018-5.287.185-.688.204-.884.202-2.098-.001-1.197-.023-1.417-.201-2.086-.65-2.434-2.325-4.256-4.619-5.023a8.497 8.497 0 0 0-4.018-.349c-2.688.405-4.753 2.013-5.701 4.437-.451 1.156-.505 1.478-.507 3.021-.001 1.215.022 1.504.165 2.042.371 1.391.979 2.455 1.937 3.389 1.644 1.601 4.185 2.339 6.724 1.954Zm-126.773 2.551c-.731-.095-1.785-.419-2.462-.758-2.098-1.05-3.413-3.072-3.798-5.84-.053-.386-.082-2.743-.082-6.708v-6.114H124.23l.002 5.832c.002 5.766.028 6.464.272 7.469.445 1.831 1.754 3.18 3.549 3.656.694.184 2.301.18 2.98-.007 1.739-.479 2.939-1.648 3.507-3.412.3-.934.316-1.319.317-7.514l.001-6.024h2.592l.025 6.215.024 6.214.201.732c.57 2.082 1.73 3.272 3.733 3.831.524.146 2.226.125 2.829-.035 1.396-.37 2.539-1.287 3.117-2.501.679-1.428.703-1.715.704-8.585l.002-5.871H150.608v6.114c0 3.965-.029 6.322-.083 6.708-.385 2.768-1.7 4.79-3.797 5.84-2.495 1.248-5.925 1.074-8.134-.413-.864-.581-2.031-1.965-2.294-2.72-.045-.127-.105-.232-.134-.232-.029 0-.159.215-.289.478-.517 1.047-1.551 2.137-2.592 2.733-1.424.815-3.369 1.153-5.236.912Zm34.257.036c-1.292-.164-2.689-.587-3.67-1.112-2.504-1.342-4.174-3.602-4.792-6.489-.198-.927-.198-3.586.001-4.494.765-3.498 3.09-6.16 6.32-7.236 1.252-.417 2.061-.535 3.671-.535 1.611 0 2.341.106 3.635.529 3.199 1.044 5.574 3.743 6.258 7.112.232 1.143.272 2.14.274 6.938l.002 4.799h-2.371l-.002-2.313-.002-2.314-.364.699c-1.187 2.278-3.212 3.761-5.839 4.274-.617.121-2.581.21-3.121.142Zm3.251-2.503c3.1-.672 5.184-2.86 5.724-6.01a8.61 8.61 0 0 0-.35-4.212c-.733-2.098-2.307-3.657-4.396-4.356-3.325-1.113-6.925-.119-8.803 2.43-.978 1.327-1.466 2.896-1.466 4.718 0 3.942 2.424 6.882 6.181 7.497.805.132 2.346.098 3.11-.067Zm35.79 2.475c-3.456-.437-6.307-2.376-7.722-5.252-.719-1.46-.962-2.495-1.018-4.323-.048-1.579.064-2.446.48-3.718.928-2.834 3.157-5.057 6.027-6.012 1.272-.423 2.022-.533 3.64-.533 1.661 0 2.439.12 3.722.573a9.436 9.436 0 0 1 4.473 3.279c1.226 1.65 1.897 3.785 1.897 6.033v.851h-17.659l.047.363c.22 1.706 1.032 3.345 2.194 4.433.643.602 1.061.886 1.835 1.249 1.95.914 4.446.999 6.573.222 1.203-.439 2.38-1.344 3.08-2.37l.364-.532H212.015l-.051.172a5.515 5.515 0 0 1-.319.669c-1.324 2.457-3.678 4.145-6.618 4.746-.886.181-2.813.259-3.68.15Zm8.778-11.684c-.33-1.819-1.462-3.562-2.962-4.557-2.744-1.822-6.822-1.659-9.363.375-1.261 1.009-2.083 2.413-2.495 4.259l-.047.21h14.919l-.052-.287Zm11.836 11.678c-2.62-.34-4.587-1.776-5.474-3.995a13.35 13.35 0 0 1-.372-1.105l-.167-.593-.024-10.229-.024-10.23h2.528v6.73h11.163v2.371H218.42l.026 5.412c.025 5.293.029 5.424.192 6.007.472 1.684 1.507 2.722 3.154 3.166.693.186 2.369.184 3.058-.005 1.229-.336 2.167-1.059 2.692-2.074.376-.726.531-1.365.587-2.41l.047-.879 1.255-.021 1.254-.021-.05.977c-.205 4-2.337 6.416-6.091 6.902-.672.087-1.901.086-2.583-.003Zm53.582.034c-1.93-.245-3.292-.708-4.518-1.538-1.478-1.001-2.627-2.641-3.165-4.517-.402-1.402-.421-1.744-.421-7.798l-.001-5.603H269.953l.028 5.641c.027 5.383.036 5.672.187 6.329.336 1.454.905 2.539 1.786 3.404.77.755 1.588 1.193 2.882 1.543.783.212 2.824.235 3.659.042 2.523-.583 4.125-2.161 4.775-4.7.244-.957.301-2.346.301-7.421v-4.838H286.094v5.396c0 3.345-.031 5.675-.082 6.133-.177 1.591-.751 3.239-1.527 4.388-1.194 1.767-3.15 2.964-5.558 3.402-.647.117-2.837.206-3.384.137Zm40.906 0c-1.93-.245-3.293-.708-4.518-1.538-1.478-1.001-2.627-2.641-3.166-4.517-.402-1.402-.42-1.744-.421-7.798v-5.603H310.859l.028 5.641c.027 5.383.035 5.672.187 6.329.335 1.454.905 2.539 1.786 3.404.77.755 1.587 1.193 2.882 1.543.783.212 2.823.235 3.659.042 2.523-.583 4.125-2.161 4.774-4.7.245-.957.301-2.346.302-7.421v-4.838H327v5.396c0 3.345-.031 5.675-.082 6.133-.178 1.591-.751 3.239-1.527 4.388-1.194 1.767-3.15 2.964-5.558 3.402-.647.117-2.837.206-3.384.137Zm-138.01-14.102v-13.614h2.6v27.228h-2.6v-13.614Zm7.799 0v-13.614h2.6v27.228h-2.6v-13.614Zm103.701 7.056c.021-4.949.051-6.652.124-6.941.386-1.53.793-2.425 1.507-3.311.984-1.222 2.36-2.02 4.158-2.41 1.1-.239 3.182-.234 4.278.011 3.646.814 5.558 3.285 5.765 7.45l.033.669h-2.583v-.578c0-1.115-.261-2.194-.741-3.065-.342-.62-1.199-1.418-1.858-1.73-.938-.443-1.479-.549-2.791-.543-.918.004-1.266.037-1.744.167-1.794.487-2.9 1.636-3.434 3.569-.167.605-.17.685-.195 6.941l-.025 6.329h-2.522l.028-6.558Z" fill="#fff"/><path fill-rule="evenodd" clip-rule="evenodd" d="M62.644 213.287c21.342 0 38.643-17.301 38.643-38.644 0-21.342-17.301-38.643-38.644-38.643C41.302 136 24 153.301 24 174.643c0 21.343 17.301 38.644 38.644 38.644Zm-6.365-23.272c-5.253 6.156-5.74 6.686-6.388 6.957-1.134.474-2.293.205-3.115-.722-.448-.505-13.918-18.895-14.988-20.463-.598-.876-.654-1.073-.576-2.022.076-.906.185-1.141.788-1.693.385-.353.923-.698 1.196-.766.84-.211 1.882.102 2.526.758.332.339 3.43 4.487 6.884 9.217s6.353 8.575 6.441 8.544c.088-.031 1.314-1.411 2.724-3.066 1.41-1.656 2.79-3.162 3.067-3.349 1.06-.712 3.137-.242 3.717.841.907 1.695.658 2.325-2.276 5.764Zm30.615-5.101c-7.47 10.252-8.608 11.736-9.237 12.034-1.237.588-2.576.264-3.571-.863-.27-.305-1.845-1.754-3.5-3.22-9.601-8.501-15.483-14.48-17.806-18.097-1.99-3.099-2.82-7.479-2.115-11.161.613-3.205 2.068-5.616 4.879-8.085 2.958-2.598 7.534-3.521 11.255-2.269 4.677 1.573 8.001 5.169 8.97 9.704.396 1.858.24 5.37-.314 7.077-.95 2.923-2.655 5.419-4.897 7.171-1.432 1.119-2.392 1.448-3.414 1.17-.403-.109-.895-.343-1.093-.519-1.24-1.102-1.173-3.388.123-4.279.237-.163.923-.762 1.524-1.332 2.662-2.522 3.532-6.596 2.072-9.701-1.056-2.247-3.652-4.088-6.036-4.279-3.63-.292-7.126 2.796-7.692 6.795-.32 2.264.182 4.703 1.368 6.631 1.674 2.723 6.727 7.887 14.826 15.154a554.917 554.917 0 0 1 2.952 2.665l.816.748 1.806-2.459c2.779-3.785 3.155-4.301 6.855-9.39 4.185-5.755 4.531-6.233 4.976-6.587.044-.035.088-.068.137-.105 1.085-.819 3.117-.524 3.824.555.85 1.298.736 2.567-.362 4.015-1.05 1.387-3.168 4.267-6.346 8.627Z" fill="#fff"/><defs><linearGradient id="a" x1="0" y1="175" x2="350" y2="175" gradientUnits="userSpaceOnUse"><stop stop-color="#6500D6"/><stop offset="1" stop-color="#B271FF"/></linearGradient></defs></svg>