<svg xmlns="http://www.w3.org/2000/svg" fill="none" viewBox="0 0 1100 600"><path fill="url(#a)" d="M1100 0H0v600h1100V0Z"/><path fill="url(#b)" d="m803.83 410.05-513.37-.47c-6.89 0-12.47-5.6-12.46-12.48l.16-173.2c0-6.89 5.6-12.47 12.48-12.46l513.37.47c6.89 0 12.47 5.6 12.46 12.48l-.16 173.2c0 6.89-5.6 12.47-12.48 12.46Z"/><path fill="url(#c)" d="m309.619 219.842-12.76-.029a6.11 6.11 0 0 0-6.124 6.096l-.029 12.76a6.111 6.111 0 0 0 6.096 6.124l12.76.029a6.11 6.11 0 0 0 6.124-6.097l.029-12.76a6.11 6.11 0 0 0-6.096-6.123Z"/><path fill="url(#d)" d="M294.28 228.96c-.48 0-.87-.39-.86-.87v-4.76c.01-.48.4-.87.88-.86h4.55c.48.01.87.4.86.88-.01.48-.39.87-.87.86h-3.68v3.88c0 .48-.39.87-.87.86l-.01.01Z"/><path fill="url(#e)" d="M312.89 236.02c.48 0 .87.39.86.87v4.76a.87.87 0 0 1-.88.86h-4.55a.87.87 0 0 1-.86-.88c.01-.48.39-.87.87-.86h3.68v-3.88c0-.48.39-.87.87-.86l.01-.01Z"/><path fill="url(#f)" d="m485.878 220.241-12.76-.028a6.109 6.109 0 0 0-6.124 6.096l-.029 12.76a6.108 6.108 0 0 0 6.096 6.123l12.76.029a6.11 6.11 0 0 0 6.124-6.096l.029-12.76a6.111 6.111 0 0 0-6.096-6.124Z"/><path fill="url(#g)" d="M470.54 229.35c-.48 0-.87-.39-.86-.87v-4.76c.01-.48.4-.87.88-.86h4.55c.48.01.87.4.86.88-.01.48-.39.87-.87.86h-3.68v3.88c0 .48-.39.87-.87.86l-.01.01Z"/><path fill="url(#h)" d="M489.15 236.42c.48 0 .87.39.86.87v4.76a.87.87 0 0 1-.88.86h-4.55a.87.87 0 0 1-.86-.88c.01-.48.39-.87.87-.86h3.68v-3.88c0-.48.39-.87.87-.86l.01-.01Z"/><path fill="url(#i)" d="m514.577 220.297-12.759-.029a6.109 6.109 0 0 0-6.124 6.096l-.029 12.76a6.11 6.11 0 0 0 6.096 6.124l12.76.029a6.111 6.111 0 0 0 6.124-6.097l.029-12.76a6.11 6.11 0 0 0-6.097-6.123Z"/><path fill="url(#j)" d="M499.24 229.42c-.48 0-.87-.39-.86-.87v-4.76c.01-.48.4-.87.88-.86h4.55c.48.01.87.4.86.88-.01.48-.39.87-.87.86h-3.68v3.88c0 .48-.39.87-.87.86l-.01.01Z"/><path fill="url(#k)" d="M517.84 236.49c.48 0 .87.39.86.87v4.76a.87.87 0 0 1-.88.86h-4.55a.87.87 0 0 1-.86-.88c.01-.48.39-.87.87-.86h3.68v-3.88c0-.48.39-.87.87-.86l.01-.01Z"/><path fill="url(#l)" d="m543.067 220.371-12.76-.029a6.111 6.111 0 0 0-6.124 6.096l-.029 12.76a6.11 6.11 0 0 0 6.097 6.124l12.76.029a6.108 6.108 0 0 0 6.123-6.096l.029-12.76a6.11 6.11 0 0 0-6.096-6.124Z"/><path fill="url(#m)" d="M527.73 229.48c-.48 0-.87-.39-.86-.87v-4.76c.01-.48.4-.87.88-.86h4.55c.48.01.87.4.86.88-.01.48-.39.87-.87.86h-3.68v3.88c0 .48-.39.87-.87.86l-.01.01Z"/><path fill="url(#n)" d="M546.34 236.55c.48 0 .87.39.86.87v4.76a.87.87 0 0 1-.88.86h-4.55a.87.87 0 0 1-.86-.88c.01-.48.39-.87.87-.86h3.68v-3.88c0-.48.39-.87.87-.86l.01-.01Z"/><path fill="url(#o)" d="m571.287 220.435-12.76-.029a6.111 6.111 0 0 0-6.124 6.096l-.029 12.76a6.11 6.11 0 0 0 6.096 6.124l12.76.029a6.11 6.11 0 0 0 6.124-6.096l.029-12.76a6.11 6.11 0 0 0-6.096-6.124Z"/><path fill="url(#p)" d="M555.95 229.55c-.48 0-.87-.39-.86-.87v-4.76c.01-.48.4-.87.88-.86h4.55c.48.01.87.4.86.88-.01.48-.39.87-.87.86h-3.68v3.88c0 .48-.39.87-.87.86l-.01.01Z"/><path fill="url(#q)" d="M574.56 236.61c.48 0 .87.39.86.87v4.76a.87.87 0 0 1-.88.86h-4.55a.87.87 0 0 1-.86-.88c0-.48.39-.87.87-.86h3.68v-3.88c0-.48.39-.87.87-.86l.01-.01Z"/><path fill="url(#r)" d="m356.709 219.948-12.76-.029a6.11 6.11 0 0 0-6.124 6.097l-.029 12.76a6.108 6.108 0 0 0 6.096 6.123l12.76.029a6.11 6.11 0 0 0 6.124-6.096l.029-12.76a6.111 6.111 0 0 0-6.096-6.124Z"/><path fill="url(#s)" d="M341.37 229.06c-.48 0-.87-.39-.86-.87v-4.76c.01-.48.4-.87.88-.86h4.55c.48.01.87.4.86.88-.01.48-.39.87-.87.86h-3.68v3.88c0 .48-.39.87-.87.86l-.01.01Z"/><path fill="url(#t)" d="M359.98 236.13c.48 0 .87.39.86.87v4.76a.87.87 0 0 1-.88.86h-4.55a.87.87 0 0 1-.86-.88c.01-.48.39-.87.87-.86h3.68V237c0-.48.39-.87.87-.86l.01-.01Z"/><path fill="url(#u)" d="m385.408 220.014-12.76-.029a6.11 6.11 0 0 0-6.124 6.096l-.028 12.76a6.108 6.108 0 0 0 6.096 6.123l12.76.029a6.108 6.108 0 0 0 6.123-6.096l.029-12.76a6.108 6.108 0 0 0-6.096-6.123Z"/><path fill="url(#v)" d="M370.07 229.13c-.48 0-.87-.39-.86-.87v-4.76c.01-.48.4-.87.88-.86h4.55c.48.01.87.4.86.88-.01.48-.39.87-.87.86h-3.68v3.88c0 .48-.39.87-.87.86l-.01.01Z"/><path fill="url(#w)" d="M388.68 236.19c.48 0 .87.39.86.87v4.76a.87.87 0 0 1-.88.86h-4.55a.87.87 0 0 1-.86-.88c0-.48.39-.87.87-.86h3.68v-3.88c0-.48.39-.87.87-.86l.01-.01Z"/><path fill="url(#x)" d="m308.842 253.6-13.899-.032a6.11 6.11 0 0 0-6.124 6.096l-.032 13.9a6.11 6.11 0 0 0 6.096 6.124l13.9.032a6.11 6.11 0 0 0 6.124-6.096l.032-13.9a6.11 6.11 0 0 0-6.097-6.124Z"/><path fill="url(#y)" d="M292.53 263.13c-.5 0-.91-.41-.9-.91v-4.98c.01-.5.42-.91.92-.9h4.76c.5.01.91.42.9.92-.01.5-.41.91-.91.9h-3.85v4.06c0 .5-.41.91-.91.9l-.01.01Z"/><path fill="url(#z)" d="M311.99 270.52c.5 0 .91.41.9.91v4.98c-.01.5-.42.91-.92.9h-4.76a.913.913 0 0 1-.9-.92c.01-.5.41-.91.91-.9h3.85v-4.06c0-.5.41-.91.91-.9l.01-.01Z"/><path fill="url(#A)" d="m338.852 253.668-13.9-.032a6.111 6.111 0 0 0-6.124 6.096l-.031 13.9a6.11 6.11 0 0 0 6.096 6.124l13.9.032a6.111 6.111 0 0 0 6.124-6.096l.031-13.9a6.109 6.109 0 0 0-6.096-6.124Z"/><path fill="url(#B)" d="M322.54 263.2c-.5 0-.91-.41-.9-.91v-4.98c.01-.5.42-.91.92-.9h4.76c.5.01.91.42.9.92-.01.5-.41.91-.91.9h-3.85v4.06c0 .5-.41.91-.91.9l-.01.01Z"/><path fill="url(#C)" d="M342 270.59c.5 0 .91.41.9.91v4.98c-.01.5-.42.91-.92.9h-4.76a.913.913 0 0 1-.9-.92c0-.5.41-.91.91-.9h3.85v-4.06c0-.5.41-.91.91-.9l.01-.01Z"/><path fill="url(#D)" d="m369.222 253.737-13.9-.032a6.111 6.111 0 0 0-6.124 6.096l-.031 13.9a6.11 6.11 0 0 0 6.096 6.124l13.9.032a6.111 6.111 0 0 0 6.124-6.096l.031-13.9a6.109 6.109 0 0 0-6.096-6.124Z"/><path fill="url(#E)" d="M352.91 263.27c-.5 0-.91-.41-.9-.91v-4.98c.01-.5.42-.91.92-.9h4.76c.5.01.91.42.9.92-.01.5-.41.91-.91.9h-3.85v4.06c0 .5-.41.91-.91.9l-.01.01Z"/><path fill="url(#F)" d="M372.37 270.66c.5 0 .91.41.9.91v4.98c-.01.5-.42.91-.92.9h-4.76a.913.913 0 0 1-.9-.92c.01-.5.41-.91.91-.9h3.85v-4.06c0-.5.41-.91.91-.9l.01-.01Z"/><path fill="url(#G)" d="m399.222 253.805-13.9-.032a6.11 6.11 0 0 0-6.124 6.096l-.031 13.9a6.109 6.109 0 0 0 6.096 6.124l13.9.032a6.11 6.11 0 0 0 6.123-6.096l.032-13.9a6.11 6.11 0 0 0-6.096-6.124Z"/><path fill="url(#H)" d="M382.91 263.34c-.5 0-.91-.41-.9-.91v-4.98c.01-.5.42-.91.92-.9h4.76c.5.01.91.42.9.92 0 .5-.41.91-.91.9h-3.85v4.06c0 .5-.41.91-.91.9l-.01.01Z"/><path fill="url(#I)" d="M402.38 270.73c.5 0 .91.41.9.91v4.98c-.01.5-.42.91-.92.9h-4.76a.913.913 0 0 1-.9-.92c.01-.5.41-.91.91-.9h3.85v-4.06c0-.5.41-.91.91-.9l.01-.01Z"/><path fill="url(#J)" d="m429.081 253.873-13.899-.032a6.11 6.11 0 0 0-6.124 6.096l-.032 13.9a6.11 6.11 0 0 0 6.096 6.124l13.9.031a6.11 6.11 0 0 0 6.124-6.096l.032-13.9a6.11 6.11 0 0 0-6.097-6.123Z"/><path fill="url(#K)" d="M412.77 263.4c-.5 0-.91-.41-.9-.91v-4.98c.01-.5.42-.91.92-.9h4.76c.5.01.91.42.9.92-.01.5-.41.91-.91.9h-3.85v4.06c0 .5-.41.91-.91.9l-.01.01Z"/><path fill="url(#L)" d="M432.23 270.79c.5 0 .91.41.9.91v4.98c-.01.5-.42.91-.92.9h-4.76a.913.913 0 0 1-.9-.92c0-.5.41-.91.91-.9h3.85v-4.06c0-.5.41-.91.91-.9l.01-.01Z"/><path fill="url(#M)" d="m459.091 253.941-13.9-.032a6.11 6.11 0 0 0-6.124 6.096l-.031 13.9a6.11 6.11 0 0 0 6.096 6.124l13.9.032a6.111 6.111 0 0 0 6.124-6.097l.031-13.899a6.109 6.109 0 0 0-6.096-6.124Z"/><path fill="url(#N)" d="M442.78 263.47c-.5 0-.91-.41-.9-.91v-4.98c.01-.5.42-.91.92-.9h4.76c.5.01.91.42.9.92-.01.5-.41.91-.91.9h-3.85v4.06c0 .5-.41.91-.91.9l-.01.01Z"/><path fill="url(#O)" d="M462.24 270.86c.5 0 .91.41.9.91v4.98c-.01.5-.42.91-.92.9h-4.76a.913.913 0 0 1-.9-.92c.01-.5.41-.91.91-.9h3.85v-4.06c0-.5.41-.91.91-.9l.01-.01Z"/><path fill="url(#P)" d="m489.461 254.01-13.9-.032a6.11 6.11 0 0 0-6.124 6.096l-.031 13.9a6.11 6.11 0 0 0 6.096 6.124l13.9.031a6.11 6.11 0 0 0 6.124-6.096l.031-13.9a6.108 6.108 0 0 0-6.096-6.123Z"/><path fill="url(#Q)" d="M473.15 263.54c-.5 0-.91-.41-.9-.91v-4.98c.01-.5.42-.91.92-.9h4.76c.5.01.91.42.9.92-.01.5-.41.91-.91.9h-3.85v4.06c0 .5-.41.91-.91.9l-.01.01Z"/><path fill="url(#R)" d="M492.61 270.93c.5 0 .91.41.9.91v4.98c-.01.5-.42.91-.92.9h-4.76a.913.913 0 0 1-.9-.92c.01-.5.41-.91.91-.9h3.85v-4.06c0-.5.41-.91.91-.9l.01-.01Z"/><path fill="url(#S)" d="m519.461 254.068-13.9-.032a6.11 6.11 0 0 0-6.124 6.096l-.031 13.9a6.11 6.11 0 0 0 6.096 6.124l13.9.032a6.11 6.11 0 0 0 6.123-6.097l.032-13.9a6.11 6.11 0 0 0-6.096-6.123Z"/><path fill="url(#T)" d="M503.16 263.61c-.5 0-.91-.41-.9-.91v-4.98c.01-.5.42-.91.92-.9h4.76c.5.01.91.42.9.92-.01.5-.41.91-.91.9h-3.85v4.06c0 .5-.41.91-.91.9l-.01.01Z"/><path fill="url(#U)" d="M522.62 271c.5 0 .91.41.9.91v4.98c-.01.5-.42.91-.92.9h-4.76a.913.913 0 0 1-.9-.92c0-.5.41-.91.91-.9h3.85v-4.06c0-.5.41-.91.91-.9l.01-.01Z"/><path fill="url(#V)" d="m549.321 254.145-13.9-.031a6.11 6.11 0 0 0-6.124 6.096l-.032 13.9a6.111 6.111 0 0 0 6.096 6.124l13.9.031a6.109 6.109 0 0 0 6.124-6.096l.032-13.9a6.11 6.11 0 0 0-6.096-6.124Z"/><path fill="url(#W)" d="M533.01 263.67c-.5 0-.91-.41-.9-.91v-4.98c.01-.5.42-.91.92-.9h4.76c.5.01.91.42.9.92 0 .5-.41.91-.91.9h-3.85v4.06c0 .5-.41.91-.91.9l-.01.01Z"/><path fill="url(#X)" d="M552.47 271.06c.5 0 .91.41.9.91v4.98c-.01.5-.42.91-.92.9h-4.76a.913.913 0 0 1-.9-.92c.01-.5.41-.91.91-.9h3.85v-4.06c0-.5.41-.91.91-.9l.01-.01Z"/><path fill="url(#Y)" d="m579.331 254.213-13.9-.031a6.11 6.11 0 0 0-6.124 6.096l-.032 13.9a6.11 6.11 0 0 0 6.096 6.124l13.9.031a6.11 6.11 0 0 0 6.124-6.096l.032-13.9a6.111 6.111 0 0 0-6.096-6.124Z"/><path fill="url(#Z)" d="M563.02 263.74c-.5 0-.91-.41-.9-.91v-4.98c.01-.5.42-.91.92-.9h4.76c.5.01.91.42.9.92-.01.5-.41.91-.91.9h-3.85v4.06c0 .5-.41.91-.91.9l-.01.01Z"/><path fill="url(#aa)" d="M582.48 271.13c.5 0 .91.41.9.91v4.98c-.01.5-.42.91-.92.9h-4.76a.913.913 0 0 1-.9-.92c.01-.5.41-.91.91-.9h3.85v-4.06c0-.5.41-.91.91-.9l.01-.01Z"/><path fill="url(#ab)" d="m609.7 254.282-13.9-.031a6.11 6.11 0 0 0-6.124 6.096l-.031 13.9a6.11 6.11 0 0 0 6.096 6.124l13.9.031a6.11 6.11 0 0 0 6.124-6.096l.031-13.9a6.11 6.11 0 0 0-6.096-6.124Z"/><path fill="url(#ac)" d="M593.39 263.81c-.5 0-.91-.41-.9-.91v-4.98c.01-.5.42-.91.92-.9h4.76c.5.01.91.42.9.92-.01.5-.41.91-.91.9h-3.85v4.06c0 .5-.41.91-.91.9l-.01.01Z"/><path fill="url(#ad)" d="M612.85 271.2c.5 0 .91.41.9.91v4.98c-.01.5-.42.91-.92.9h-4.76a.913.913 0 0 1-.9-.92c0-.5.41-.91.91-.9h3.85v-4.06c0-.5.41-.91.91-.9l.01-.01Z"/><path fill="url(#ae)" d="m639.7 254.34-13.9-.031a6.11 6.11 0 0 0-6.124 6.096l-.031 13.9a6.11 6.11 0 0 0 6.096 6.124l13.9.031a6.108 6.108 0 0 0 6.123-6.096l.032-13.9a6.11 6.11 0 0 0-6.096-6.124Z"/><path fill="url(#af)" d="M623.4 263.88c-.5 0-.91-.41-.9-.91v-4.98c.01-.5.42-.91.92-.9h4.76c.5.01.91.42.9.92-.01.5-.41.91-.91.9h-3.85v4.06c0 .5-.41.91-.91.9l-.01.01Z"/><path fill="url(#ag)" d="M642.86 271.27c.5 0 .91.41.9.91v4.98c-.01.5-.42.91-.92.9h-4.76a.913.913 0 0 1-.9-.92c0-.5.41-.91.91-.9h3.85v-4.06c0-.5.41-.91.91-.9l.01-.01Z"/><path fill="url(#ah)" d="m353.467 282.571-13.9-.032a6.11 6.11 0 0 0-6.124 6.097l-.032 13.899a6.11 6.11 0 0 0 6.097 6.124l13.899.032a6.11 6.11 0 0 0 6.124-6.096l.032-13.9a6.11 6.11 0 0 0-6.096-6.124Z"/><path fill="url(#ai)" d="M337.15 292.1c-.5 0-.91-.41-.9-.91v-4.98c.01-.5.42-.91.92-.9h4.76c.5.01.91.42.9.92 0 .5-.41.91-.91.9h-3.85v4.06c0 .5-.41.91-.91.9l-.01.01Z"/><path fill="url(#aj)" d="M356.61 299.49c.5 0 .91.41.9.91v4.98c-.01.5-.42.91-.92.9h-4.76a.913.913 0 0 1-.9-.92c.01-.5.41-.91.91-.9h3.85v-4.06c0-.5.41-.91.91-.9l.01-.01Z"/><path fill="url(#ak)" d="m383.836 282.64-13.9-.032a6.11 6.11 0 0 0-6.123 6.096l-.032 13.9a6.11 6.11 0 0 0 6.096 6.124l13.9.032a6.11 6.11 0 0 0 6.124-6.096l.031-13.9a6.109 6.109 0 0 0-6.096-6.124Z"/><path fill="url(#al)" d="M367.52 292.17c-.5 0-.91-.41-.9-.91v-4.98c.01-.5.42-.91.92-.9h4.76c.5.01.91.42.9.92 0 .5-.41.91-.91.9h-3.85v4.06c0 .5-.41.91-.91.9l-.01.01Z"/><path fill="url(#am)" d="M386.98 299.56c.5 0 .91.41.9.91v4.98c-.01.5-.42.91-.92.9h-4.76a.913.913 0 0 1-.9-.92c.01-.5.41-.91.91-.9h3.85v-4.06c0-.5.41-.91.91-.9l.01-.01Z"/><path fill="url(#an)" d="m413.836 282.698-13.9-.032a6.111 6.111 0 0 0-6.124 6.096l-.031 13.9a6.109 6.109 0 0 0 6.096 6.124l13.9.032a6.111 6.111 0 0 0 6.124-6.096l.031-13.9a6.11 6.11 0 0 0-6.096-6.124Z"/><path fill="url(#ao)" d="M397.53 292.24c-.5 0-.91-.41-.9-.91v-4.98c.01-.5.42-.91.92-.9h4.76c.5.01.91.42.9.92-.01.5-.41.91-.91.9h-3.85v4.06c0 .5-.41.91-.91.9l-.01.01Z"/><path fill="url(#ap)" d="M416.99 299.63c.5 0 .91.41.9.91v4.98c-.01.5-.42.91-.92.9h-4.76a.913.913 0 0 1-.9-.92c0-.5.41-.91.91-.9h3.85v-4.06c0-.5.41-.91.91-.9l.01-.01Z"/><path fill="url(#aq)" d="m443.696 282.776-13.9-.032a6.11 6.11 0 0 0-6.124 6.096l-.031 13.9a6.11 6.11 0 0 0 6.096 6.124l13.9.032a6.111 6.111 0 0 0 6.124-6.097l.031-13.9a6.11 6.11 0 0 0-6.096-6.123Z"/><path fill="url(#ar)" d="M427.39 292.3c-.5 0-.91-.41-.9-.91v-4.98c.01-.5.42-.91.92-.9h4.76c.5.01.91.42.9.92-.01.5-.41.91-.91.9h-3.85v4.06c0 .5-.41.91-.91.9l-.01.01Z"/><path fill="url(#as)" d="M446.85 299.69c.5 0 .91.41.9.91v4.98c-.01.5-.42.91-.92.9h-4.76a.913.913 0 0 1-.9-.92c.01-.5.41-.91.91-.9h3.85v-4.06c0-.5.41-.91.91-.9l.01-.01Z"/><path fill="url(#at)" d="m473.706 282.844-13.9-.032a6.11 6.11 0 0 0-6.124 6.096l-.032 13.9a6.11 6.11 0 0 0 6.097 6.124l13.899.032a6.11 6.11 0 0 0 6.124-6.096l.032-13.9a6.11 6.11 0 0 0-6.096-6.124Z"/><path fill="url(#au)" d="M457.39 292.37c-.5 0-.91-.41-.9-.91v-4.98c.01-.5.42-.91.92-.9h4.76c.5.01.91.42.9.92-.01.5-.41.91-.91.9h-3.85v4.06c0 .5-.41.91-.91.9l-.01.01Z"/><path fill="url(#av)" d="M476.85 299.76c.5 0 .91.41.9.91v4.98c-.01.5-.42.91-.92.9h-4.76a.913.913 0 0 1-.9-.92c0-.5.41-.91.91-.9h3.85v-4.06c0-.5.41-.91.91-.9l.01-.01Z"/><path fill="url(#aw)" d="m504.075 282.913-13.9-.032a6.11 6.11 0 0 0-6.123 6.096l-.032 13.9a6.11 6.11 0 0 0 6.096 6.124l13.9.032a6.11 6.11 0 0 0 6.124-6.097l.031-13.9a6.108 6.108 0 0 0-6.096-6.123Z"/><path fill="url(#ax)" d="M487.76 292.44c-.5 0-.91-.41-.9-.91v-4.98c.01-.5.42-.91.92-.9h4.76c.5.01.91.42.9.92-.01.5-.41.91-.91.9h-3.85v4.06c0 .5-.41.91-.91.9l-.01.01Z"/><path fill="url(#ay)" d="M507.22 299.83c.5 0 .91.41.9.91v4.98c-.01.5-.42.91-.92.9h-4.76a.913.913 0 0 1-.9-.92c.01-.5.41-.91.91-.9h3.85v-4.06c0-.5.41-.91.91-.9l.01-.01Z"/><path fill="url(#az)" d="m534.075 282.971-13.9-.032a6.11 6.11 0 0 0-6.124 6.096l-.031 13.9a6.11 6.11 0 0 0 6.096 6.124l13.9.032a6.111 6.111 0 0 0 6.124-6.097l.031-13.899a6.109 6.109 0 0 0-6.096-6.124Z"/><path fill="url(#aA)" d="M517.77 292.51c-.5 0-.91-.41-.9-.91v-4.98c.01-.5.42-.91.92-.9h4.76c.5.01.91.42.9.92-.01.5-.41.91-.91.9h-3.85v4.06c0 .5-.41.91-.91.9l-.01.01Z"/><path fill="url(#aB)" d="M537.23 299.9c.5 0 .91.41.9.91v4.98c-.01.5-.42.91-.92.9h-4.76a.913.913 0 0 1-.9-.92c0-.5.41-.91.91-.9h3.85v-4.06c0-.5.41-.91.91-.9l.01-.01Z"/><path fill="url(#aC)" d="m563.935 283.038-13.9-.031a6.11 6.11 0 0 0-6.124 6.096l-.031 13.9a6.11 6.11 0 0 0 6.096 6.124l13.9.031a6.11 6.11 0 0 0 6.124-6.096l.031-13.9a6.11 6.11 0 0 0-6.096-6.124Z"/><path fill="url(#aD)" d="M547.63 292.57c-.5 0-.91-.41-.9-.91v-4.98c.01-.5.42-.91.92-.9h4.76c.5.01.91.42.9.92-.01.5-.41.91-.91.9h-3.85v4.06c0 .5-.41.91-.91.9l-.01.01Z"/><path fill="url(#aE)" d="M567.09 299.96c.5 0 .91.41.9.91v4.98c-.01.5-.42.91-.92.9h-4.76a.913.913 0 0 1-.9-.92c.01-.5.41-.91.91-.9h3.85v-4.06c0-.5.41-.91.91-.9l.01-.01Z"/><path fill="url(#aF)" d="m593.945 283.117-13.9-.032a6.11 6.11 0 0 0-6.124 6.096l-.032 13.9a6.11 6.11 0 0 0 6.097 6.124l13.9.031a6.108 6.108 0 0 0 6.123-6.096l.032-13.9a6.11 6.11 0 0 0-6.096-6.123Z"/><path fill="url(#aG)" d="M577.63 292.64c-.5 0-.91-.41-.9-.91v-4.98c.01-.5.42-.91.92-.9h4.76c.5.01.91.42.9.92-.01.5-.41.91-.91.9h-3.85v4.06c0 .5-.41.91-.91.9l-.01.01Z"/><path fill="url(#aH)" d="M597.09 300.03c.5 0 .91.41.9.91v4.98c-.01.5-.42.91-.92.9h-4.76a.913.913 0 0 1-.9-.92c.01-.5.41-.91.91-.9h3.85v-4.06c0-.5.41-.91.91-.9l.01-.01Z"/><path fill="url(#aI)" d="m654.314 283.244-13.9-.032a6.11 6.11 0 0 0-6.123 6.096l-.032 13.9a6.11 6.11 0 0 0 6.096 6.124l13.9.031a6.11 6.11 0 0 0 6.124-6.096l.032-13.9a6.11 6.11 0 0 0-6.097-6.123Z"/><path fill="url(#aJ)" d="M638.01 292.78c-.5 0-.91-.41-.9-.91v-4.98c.01-.5.42-.91.92-.9h4.76c.5.01.91.42.9.92-.01.5-.41.91-.91.9h-3.85v4.06c0 .5-.41.91-.91.9l-.01.01Z"/><path fill="url(#aK)" d="M657.47 300.17c.5 0 .91.41.9.91v4.98c-.01.5-.42.91-.92.9h-4.76a.913.913 0 0 1-.9-.92c.01-.5.41-.91.91-.9h3.85v-4.06c0-.5.41-.91.91-.9l.01-.01Z"/><path fill="url(#aL)" d="m623.985 283.185-13.9-.032a6.11 6.11 0 0 0-6.124 6.096l-.032 13.9a6.11 6.11 0 0 0 6.096 6.124l13.9.032a6.11 6.11 0 0 0 6.124-6.096l.032-13.9a6.11 6.11 0 0 0-6.096-6.124Z"/><path fill="url(#aM)" d="M607.67 292.71c-.5 0-.91-.41-.9-.91v-4.98c.01-.5.42-.91.92-.9h4.76c.5.01.91.42.9.92-.01.5-.41.91-.91.9h-3.85v4.06c0 .5-.41.91-.91.9l-.01.01Z"/><path fill="url(#aN)" d="M627.13 300.1c.5 0 .91.41.9.91v4.98c-.01.5-.42.91-.92.9h-4.76a.913.913 0 0 1-.9-.92c.01-.5.41-.91.91-.9h3.85v-4.06c0-.5.41-.91.91-.9l.01-.01Z"/><path fill="url(#aO)" d="m413.898 220.078-12.76-.029a6.111 6.111 0 0 0-6.124 6.096l-.028 12.76a6.11 6.11 0 0 0 6.096 6.124l12.76.029a6.11 6.11 0 0 0 6.123-6.096l.029-12.76a6.11 6.11 0 0 0-6.096-6.124Z"/><path fill="url(#aP)" d="M398.56 229.19c-.48 0-.87-.39-.86-.87v-4.76c.01-.48.4-.87.88-.86h4.55c.48.01.87.4.86.88-.01.48-.39.87-.87.86h-3.68v3.88c0 .48-.39.87-.87.86l-.01.01Z"/><path fill="url(#aQ)" d="M417.17 236.26c.48 0 .87.39.86.87v4.76a.87.87 0 0 1-.88.86h-4.55a.87.87 0 0 1-.86-.88c.01-.48.39-.87.87-.86h3.68v-3.88c0-.48.39-.87.87-.86l.01-.01Z"/><path fill="url(#aR)" d="m367.091 311.462-13.9-.032a6.111 6.111 0 0 0-6.124 6.096l-.031 13.9a6.11 6.11 0 0 0 6.096 6.124l13.9.032a6.111 6.111 0 0 0 6.124-6.096l.031-13.9a6.11 6.11 0 0 0-6.096-6.124Z"/><path fill="url(#aS)" d="M350.79 321c-.5 0-.91-.41-.9-.91v-4.98c.01-.5.42-.91.92-.9h4.76c.5.01.91.42.9.92-.01.5-.41.91-.91.9h-3.85v4.06c0 .5-.41.91-.91.9l-.01.01Z"/><path fill="url(#aT)" d="M370.25 328.39c.5 0 .91.41.9.91v4.98c-.01.5-.42.91-.92.9h-4.76a.913.913 0 0 1-.9-.92c.01-.5.41-.91.91-.9h3.85v-4.06c0-.5.41-.91.91-.9l.01-.01Z"/><path fill="url(#aU)" d="m397.461 311.531-13.9-.032a6.11 6.11 0 0 0-6.124 6.096l-.031 13.9a6.11 6.11 0 0 0 6.096 6.124l13.9.032a6.11 6.11 0 0 0 6.123-6.097l.032-13.899a6.11 6.11 0 0 0-6.096-6.124Z"/><path fill="url(#aV)" d="M381.16 321.07c-.5 0-.91-.41-.9-.91v-4.98c.01-.5.42-.91.92-.9h4.76c.5.01.91.42.9.92-.01.5-.41.91-.91.9h-3.85v4.06c0 .5-.41.91-.91.9l-.01.01Z"/><path fill="url(#aW)" d="M400.62 328.46c.5 0 .91.41.9.91v4.98c-.01.5-.42.91-.92.9h-4.76a.913.913 0 0 1-.9-.92c.01-.5.41-.91.91-.9h3.85v-4.06c0-.5.41-.91.91-.9l.01-.01Z"/><path fill="url(#aX)" d="m427.471 311.599-13.9-.032a6.11 6.11 0 0 0-6.124 6.096l-.032 13.9a6.11 6.11 0 0 0 6.096 6.124l13.9.032a6.11 6.11 0 0 0 6.124-6.096l.032-13.9a6.11 6.11 0 0 0-6.096-6.124Z"/><path fill="url(#aY)" d="M411.16 321.13c-.5 0-.91-.41-.9-.91v-4.98c.01-.5.42-.91.92-.9h4.76c.5.01.91.42.9.92-.01.5-.41.91-.91.9h-3.85v4.06c0 .5-.41.91-.91.9l-.01.01Z"/><path fill="url(#aZ)" d="M430.62 328.52c.5 0 .91.41.9.91v4.98c-.01.5-.42.91-.92.9h-4.76a.913.913 0 0 1-.9-.92c.01-.5.41-.91.91-.9h3.85v-4.06c0-.5.41-.91.91-.9l.01-.01Z"/><path fill="url(#ba)" d="m457.33 311.666-13.9-.031a6.11 6.11 0 0 0-6.124 6.096l-.031 13.9a6.11 6.11 0 0 0 6.096 6.124l13.9.031a6.11 6.11 0 0 0 6.124-6.096l.031-13.9a6.11 6.11 0 0 0-6.096-6.124Z"/><path fill="url(#bb)" d="M441.02 321.2c-.5 0-.91-.41-.9-.91v-4.98c.01-.5.42-.91.92-.9h4.76c.5.01.91.42.9.92-.01.5-.41.91-.91.9h-3.85v4.06c0 .5-.41.91-.91.9l-.01.01Z"/><path fill="url(#bc)" d="M460.48 328.59c.5 0 .91.41.9.91v4.98c-.01.5-.42.91-.92.9h-4.76a.913.913 0 0 1-.9-.92c0-.5.41-.91.91-.9h3.85v-4.06c0-.5.41-.91.91-.9l.01-.01Z"/><path fill="url(#bd)" d="m487.33 311.745-13.9-.032a6.11 6.11 0 0 0-6.124 6.096l-.031 13.9a6.11 6.11 0 0 0 6.096 6.124l13.9.031a6.11 6.11 0 0 0 6.124-6.096l.031-13.9a6.11 6.11 0 0 0-6.096-6.123Z"/><path fill="url(#be)" d="M471.03 321.27c-.5 0-.91-.41-.9-.91v-4.98c.01-.5.42-.91.92-.9h4.76c.5.01.91.42.9.92-.01.5-.41.91-.91.9h-3.85v4.06c0 .5-.41.91-.91.9l-.01.01Z"/><path fill="url(#bf)" d="M490.49 328.66c.5 0 .91.41.9.91v4.98c-.01.5-.42.91-.92.9h-4.76a.913.913 0 0 1-.9-.92c.01-.5.41-.91.91-.9h3.85v-4.06c0-.5.41-.91.91-.9l.01-.01Z"/><path fill="url(#bg)" d="m517.7 311.803-13.9-.031a6.11 6.11 0 0 0-6.124 6.096l-.031 13.9a6.11 6.11 0 0 0 6.096 6.124l13.9.031a6.108 6.108 0 0 0 6.123-6.096l.032-13.9a6.11 6.11 0 0 0-6.096-6.124Z"/><path fill="url(#bh)" d="M501.4 321.34c-.5 0-.91-.41-.9-.91v-4.98c.01-.5.42-.91.92-.9h4.76c.5.01.91.42.9.92-.01.5-.41.91-.91.9h-3.85v4.06c0 .5-.41.91-.91.9l-.01.01Z"/><path fill="url(#bi)" d="M520.86 328.73c.5 0 .91.41.9.91v4.98c-.01.5-.42.91-.92.9h-4.76a.913.913 0 0 1-.9-.92c.01-.5.41-.91.91-.9h3.85v-4.06c0-.5.41-.91.91-.9l.01-.01Z"/><path fill="url(#bj)" d="m547.71 311.872-13.9-.032a6.11 6.11 0 0 0-6.124 6.096l-.032 13.9a6.11 6.11 0 0 0 6.096 6.124l13.9.032a6.11 6.11 0 0 0 6.124-6.097l.032-13.9a6.11 6.11 0 0 0-6.096-6.123Z"/><path fill="url(#bk)" d="M531.4 321.4c-.5 0-.91-.41-.9-.91v-4.98c.01-.5.42-.91.92-.9h4.76c.5.01.91.42.9.92-.01.5-.41.91-.91.9h-3.85v4.06c0 .5-.41.91-.91.9l-.01.01Z"/><path fill="url(#bl)" d="M550.86 328.79c.5 0 .91.41.9.91v4.98c-.01.5-.42.91-.92.9h-4.76a.913.913 0 0 1-.9-.92c.01-.5.41-.91.91-.9h3.85v-4.06c0-.5.41-.91.91-.9l.01-.01Z"/><path fill="url(#bm)" d="m577.569 311.939-13.9-.031a6.11 6.11 0 0 0-6.124 6.096l-.031 13.9a6.11 6.11 0 0 0 6.096 6.124l13.9.031a6.11 6.11 0 0 0 6.124-6.096l.031-13.9a6.11 6.11 0 0 0-6.096-6.124Z"/><path fill="url(#bn)" d="M561.26 321.47c-.5 0-.91-.41-.9-.91v-4.98c.01-.5.42-.91.92-.9h4.76c.5.01.91.42.9.92-.01.5-.41.91-.91.9h-3.85v4.06c0 .5-.41.91-.91.9l-.01.01Z"/><path fill="url(#bo)" d="M580.72 328.86c.5 0 .91.41.9.91v4.98c-.01.5-.42.91-.92.9h-4.76a.913.913 0 0 1-.9-.92c.01-.5.41-.91.91-.9h3.85v-4.06c0-.5.41-.91.91-.9l.01-.01Z"/><path fill="url(#bp)" d="m607.569 312.017-13.9-.031a6.11 6.11 0 0 0-6.124 6.096l-.031 13.9a6.11 6.11 0 0 0 6.096 6.124l13.9.031a6.11 6.11 0 0 0 6.124-6.096l.031-13.9a6.11 6.11 0 0 0-6.096-6.124Z"/><path fill="url(#bq)" d="M591.27 321.54c-.5 0-.91-.41-.9-.91v-4.98c.01-.5.42-.91.92-.9h4.76c.5.01.91.42.9.92-.01.5-.41.91-.91.9h-3.85v4.06c0 .5-.41.91-.91.9l-.01.01Z"/><path fill="url(#br)" d="M610.73 328.93c.5 0 .91.41.9.91v4.98c-.01.5-.42.91-.92.9h-4.76a.913.913 0 0 1-.9-.92c.01-.5.41-.91.91-.9h3.85v-4.06c0-.5.41-.91.91-.9l.01-.01Z"/><path fill="url(#bs)" d="m637.609 312.076-13.9-.032a6.11 6.11 0 0 0-6.124 6.096l-.032 13.9a6.11 6.11 0 0 0 6.097 6.124l13.9.032a6.11 6.11 0 0 0 6.123-6.097l.032-13.9a6.11 6.11 0 0 0-6.096-6.123Z"/><path fill="url(#bt)" d="M621.31 321.61c-.5 0-.91-.41-.9-.91v-4.98c.01-.5.42-.91.92-.9h4.76c.5.01.91.42.9.92-.01.5-.41.91-.91.9h-3.85v4.06c0 .5-.41.91-.91.9l-.01.01Z"/><path fill="url(#bu)" d="M640.77 329c.5 0 .91.41.9.91v4.98c-.01.5-.42.91-.92.9h-4.76a.913.913 0 0 1-.9-.92c.01-.5.41-.91.91-.9h3.85v-4.06c0-.5.41-.91.91-.9l.01-.01Z"/><path fill="url(#bv)" d="m376.813 341.334-13.9-.032a6.111 6.111 0 0 0-6.124 6.096l-.031 13.9a6.11 6.11 0 0 0 6.096 6.124l13.9.032a6.111 6.111 0 0 0 6.124-6.096l.031-13.9a6.109 6.109 0 0 0-6.096-6.124Z"/><path fill="url(#bw)" d="M360.51 350.87c-.5 0-.91-.41-.9-.91v-4.98c.01-.5.42-.91.92-.9h4.76c.5.01.91.42.9.92-.01.5-.41.91-.91.9h-3.85v4.06c0 .5-.41.91-.91.9l-.01.01Z"/><path fill="url(#bx)" d="M379.97 358.26c.5 0 .91.41.9.91v4.98c-.01.5-.42.91-.92.9h-4.76a.913.913 0 0 1-.9-.92c.01-.5.41-.91.91-.9h3.85v-4.06c0-.5.41-.91.91-.9l.01-.01Z"/><path fill="url(#by)" d="m407.183 341.403-13.9-.032a6.11 6.11 0 0 0-6.124 6.096l-.031 13.9a6.11 6.11 0 0 0 6.096 6.124l13.9.032a6.111 6.111 0 0 0 6.124-6.097l.031-13.9a6.108 6.108 0 0 0-6.096-6.123Z"/><path fill="url(#bz)" d="M390.88 350.93c-.5 0-.91-.41-.9-.91v-4.98c.01-.5.42-.91.92-.9h4.76c.5.01.91.42.9.92 0 .5-.41.91-.91.9h-3.85v4.06c0 .5-.41.91-.91.9l-.01.01Z"/><path fill="url(#bA)" d="M410.34 358.32c.5 0 .91.41.9.91v4.98c-.01.5-.42.91-.92.9h-4.76a.913.913 0 0 1-.9-.92c.01-.5.41-.91.91-.9h3.85v-4.06c0-.5.41-.91.91-.9l.01-.01Z"/><path fill="url(#bB)" d="m437.193 341.471-13.9-.032a6.11 6.11 0 0 0-6.124 6.096l-.032 13.9a6.11 6.11 0 0 0 6.097 6.124l13.9.032a6.11 6.11 0 0 0 6.123-6.096l.032-13.9a6.11 6.11 0 0 0-6.096-6.124Z"/><path fill="url(#bC)" d="M420.88 351c-.5 0-.91-.41-.9-.91v-4.98c.01-.5.42-.91.92-.9h4.76c.5.01.91.42.9.92-.01.5-.41.91-.91.9h-3.85v4.06c0 .5-.41.91-.91.9l-.01.01Z"/><path fill="url(#bD)" d="M440.34 358.39c.5 0 .91.41.9.91v4.98c-.01.5-.42.91-.92.9h-4.76a.913.913 0 0 1-.9-.92c0-.5.41-.91.91-.9h3.85v-4.06c0-.5.41-.91.91-.9l.01-.01Z"/><path fill="url(#bE)" d="m467.052 341.538-13.9-.031a6.11 6.11 0 0 0-6.123 6.096l-.032 13.9a6.11 6.11 0 0 0 6.096 6.124l13.9.031a6.11 6.11 0 0 0 6.124-6.096l.032-13.9a6.111 6.111 0 0 0-6.097-6.124Z"/><path fill="url(#bF)" d="M450.74 351.07c-.5 0-.91-.41-.9-.91v-4.98c.01-.5.42-.91.92-.9h4.76c.5.01.91.42.9.92-.01.5-.41.91-.91.9h-3.85v4.06c0 .5-.41.91-.91.9l-.01.01Z"/><path fill="url(#bG)" d="M470.2 358.46c.5 0 .91.41.9.91v4.98c-.01.5-.42.91-.92.9h-4.76a.913.913 0 0 1-.9-.92c.01-.5.41-.91.91-.9h3.85v-4.06c0-.5.41-.91.91-.9l.01-.01Z"/><path fill="url(#bH)" d="m497.052 341.607-13.9-.032a6.11 6.11 0 0 0-6.124 6.096l-.031 13.9a6.11 6.11 0 0 0 6.096 6.124l13.9.032a6.111 6.111 0 0 0 6.124-6.097l.031-13.9a6.108 6.108 0 0 0-6.096-6.123Z"/><path fill="url(#bI)" d="M480.75 351.14c-.5 0-.91-.41-.9-.91v-4.98c.01-.5.42-.91.92-.9h4.76c.5.01.91.42.9.92-.01.5-.41.91-.91.9h-3.85v4.06c0 .5-.41.91-.91.9l-.01.01Z"/><path fill="url(#bJ)" d="M500.21 358.53c.5 0 .91.41.9.91v4.98c-.01.5-.42.91-.92.9h-4.76a.913.913 0 0 1-.9-.92c.01-.5.41-.91.91-.9h3.85v-4.06c0-.5.41-.91.91-.9l.01-.01Z"/><path fill="url(#bK)" d="m527.422 341.675-13.9-.031a6.11 6.11 0 0 0-6.124 6.096l-.031 13.9a6.11 6.11 0 0 0 6.096 6.124l13.9.031a6.11 6.11 0 0 0 6.124-6.096l.031-13.9a6.11 6.11 0 0 0-6.096-6.124Z"/><path fill="url(#bL)" d="M511.12 351.2c-.5 0-.91-.41-.9-.91v-4.98c.01-.5.42-.91.92-.9h4.76c.5.01.91.42.9.92-.01.5-.41.91-.91.9h-3.85v4.06c0 .5-.41.91-.91.9l-.01.01Z"/><path fill="url(#bM)" d="M530.58 358.59c.5 0 .91.41.9.91v4.98c-.01.5-.42.91-.92.9h-4.76a.913.913 0 0 1-.9-.92c.01-.5.41-.91.91-.9h3.85v-4.06c0-.5.41-.91.91-.9l.01-.01Z"/><path fill="url(#bN)" d="m557.432 341.744-13.9-.032a6.11 6.11 0 0 0-6.124 6.096l-.032 13.9a6.11 6.11 0 0 0 6.097 6.124l13.9.031a6.108 6.108 0 0 0 6.123-6.096l.032-13.9a6.11 6.11 0 0 0-6.096-6.123Z"/><path fill="url(#bO)" d="M541.12 351.27c-.5 0-.91-.41-.9-.91v-4.98c.01-.5.42-.91.92-.9h4.76c.5.01.91.42.9.92-.01.5-.41.91-.91.9h-3.85v4.06c0 .5-.41.91-.91.9l-.01.01Z"/><path fill="url(#bP)" d="M560.58 358.66c.5 0 .91.41.9.91v4.98c-.01.5-.42.91-.92.9h-4.76a.913.913 0 0 1-.9-.92c.01-.5.41-.91.91-.9h3.85v-4.06c0-.5.41-.91.91-.9l.01-.01Z"/><path fill="url(#bQ)" d="m587.292 341.811-13.9-.031a6.11 6.11 0 0 0-6.124 6.096l-.032 13.9a6.111 6.111 0 0 0 6.096 6.124l13.9.031a6.109 6.109 0 0 0 6.124-6.096l.032-13.9a6.111 6.111 0 0 0-6.096-6.124Z"/><path fill="url(#bR)" d="M570.98 351.34c-.5 0-.91-.41-.9-.91v-4.98c.01-.5.42-.91.92-.9h4.76c.5.01.91.42.9.92-.01.5-.41.91-.91.9h-3.85v4.06c0 .5-.41.91-.91.9l-.01.01Z"/><path fill="url(#bS)" d="M590.44 358.73c.5 0 .91.41.9.91v4.98c-.01.5-.42.91-.92.9h-4.76a.913.913 0 0 1-.9-.92c0-.5.41-.91.91-.9h3.85v-4.06c0-.5.41-.91.91-.9l.01-.01Z"/><path fill="url(#bT)" d="m617.291 341.869-13.9-.031a6.108 6.108 0 0 0-6.123 6.096l-.032 13.9a6.11 6.11 0 0 0 6.096 6.124l13.9.031a6.11 6.11 0 0 0 6.124-6.096l.032-13.9a6.111 6.111 0 0 0-6.097-6.124Z"/><path fill="url(#bU)" d="M600.99 351.41c-.5 0-.91-.41-.9-.91v-4.98c.01-.5.42-.91.92-.9h4.76c.5.01.91.42.9.92-.01.5-.41.91-.91.9h-3.85v4.06c0 .5-.41.91-.91.9l-.01.01Z"/><path fill="url(#bV)" d="M620.45 358.8c.5 0 .91.41.9.91v4.98c-.01.5-.42.91-.92.9h-4.76a.913.913 0 0 1-.9-.92c.01-.5.41-.91.91-.9h3.85v-4.06c0-.5.41-.91.91-.9l.01-.01Z"/><path fill="url(#bW)" d="m312.266 371.037-17.59-.04a6.11 6.11 0 0 0-6.124 6.096l-.04 17.59a6.11 6.11 0 0 0 6.096 6.124l17.59.04a6.11 6.11 0 0 0 6.124-6.096l.04-17.59a6.11 6.11 0 0 0-6.096-6.124Z"/><path fill="url(#bX)" d="M292.79 381.91c-.57 0-1.03-.47-1.03-1.04v-5.68c.01-.57.48-1.03 1.05-1.03h5.43c.57.01 1.03.48 1.03 1.05 0 .57-.47 1.03-1.04 1.03h-4.4l-.01 4.64c0 .57-.47 1.03-1.04 1.03h.01Z"/><path fill="url(#bY)" d="M315 390.34c.57 0 1.03.47 1.03 1.04v5.68c-.01.57-.48 1.03-1.05 1.03h-5.43c-.57-.01-1.03-.48-1.03-1.05 0-.57.47-1.03 1.04-1.03h4.4l.01-4.64c0-.57.47-1.03 1.04-1.03H315Z"/><path fill="url(#bZ)" d="m347.486 371.117-17.59-.04a6.11 6.11 0 0 0-6.124 6.096l-.04 17.59a6.11 6.11 0 0 0 6.096 6.124l17.59.04a6.11 6.11 0 0 0 6.124-6.096l.04-17.59a6.111 6.111 0 0 0-6.096-6.124Z"/><path fill="url(#ca)" d="M328.01 381.99c-.57 0-1.03-.47-1.03-1.04v-5.68c.01-.57.48-1.03 1.05-1.03h5.43c.57.01 1.03.48 1.03 1.05 0 .57-.47 1.03-1.04 1.03h-4.4l-.01 4.64c0 .57-.47 1.03-1.04 1.03h.01Z"/><path fill="url(#cb)" d="M350.22 390.42c.57 0 1.03.47 1.03 1.04v5.68c-.01.57-.48 1.03-1.05 1.03h-5.43c-.57-.01-1.03-.48-1.03-1.05 0-.57.47-1.03 1.04-1.03h4.4l.01-4.64c0-.57.47-1.03 1.04-1.03h-.01Z"/><path fill="url(#cc)" d="m382.475 371.197-17.59-.04a6.108 6.108 0 0 0-6.123 6.096l-.04 17.59a6.11 6.11 0 0 0 6.096 6.124l17.59.039a6.11 6.11 0 0 0 6.124-6.096l.039-17.59a6.108 6.108 0 0 0-6.096-6.123Z"/><path fill="url(#cd)" d="M363 382.07c-.57 0-1.03-.47-1.03-1.04v-5.68c.01-.57.48-1.03 1.05-1.03h5.43c.57.01 1.03.48 1.03 1.05 0 .57-.47 1.03-1.04 1.03h-4.4l-.01 4.64c0 .57-.47 1.03-1.04 1.03h.01Z"/><path fill="url(#ce)" d="M385.2 390.5c.57 0 1.03.47 1.03 1.04v5.68c-.01.57-.48 1.03-1.05 1.03h-5.43c-.57-.01-1.03-.48-1.03-1.05 0-.57.47-1.03 1.04-1.03h4.4l.01-4.64c0-.57.47-1.03 1.04-1.03h-.01Z"/><path fill="url(#cf)" d="m563.504 371.607-164.369-.373a6.11 6.11 0 0 0-6.124 6.096l-.04 17.59a6.11 6.11 0 0 0 6.096 6.124l164.37.373a6.11 6.11 0 0 0 6.124-6.096l.04-17.59a6.111 6.111 0 0 0-6.097-6.124Z"/><path fill="url(#cg)" d="M397.23 387.04c-.57 0-1.03-.47-1.03-1.04l.02-10.57c0-.57.47-1.03 1.04-1.03l10.32.02c.57 0 1.03.47 1.03 1.04 0 .57-.47 1.03-1.04 1.03l-9.29-.02-.02 9.54c0 .57-.47 1.03-1.04 1.03h.01Z"/><path fill="url(#ch)" d="M564.78 385.52c.57 0 1.03.47 1.03 1.04l-.02 10.57c0 .57-.47 1.03-1.04 1.03l-10.32-.02c-.57 0-1.03-.47-1.03-1.04 0-.57.47-1.03 1.04-1.03l9.29.02.02-9.54c0-.57.47-1.03 1.04-1.03h-.01Z"/><path fill="url(#ci)" d="m700.247 312.708-46.49-.106a6.11 6.11 0 0 0-6.123 6.096l-.03 13.18a6.11 6.11 0 0 0 6.096 6.124l46.49.106a6.111 6.111 0 0 0 6.124-6.097l.029-13.179a6.109 6.109 0 0 0-6.096-6.124Z"/><path fill="url(#cj)" d="M651.82 324.71c-.57 0-1.02-.4-1.02-.88l.02-7.65c0-.49.46-.88 1.03-.88l8.64.02c.57 0 1.02.4 1.02.88s-.46.88-1.03.88l-7.62-.02-.02 6.77c0 .49-.46.88-1.03.88h.01Z"/><path fill="url(#ck)" d="M702.09 326.39c.57 0 1.02.4 1.02.88l-.02 7.65c0 .49-.46.88-1.03.88l-8.11-.02c-.57 0-1.02-.4-1.02-.88s.46-.88 1.03-.88l7.09.02.02-6.77c0-.49.46-.88 1.03-.88h-.01Z"/><path fill="url(#cl)" d="m700.38 253.998-42.149-.096a6.11 6.11 0 0 0-6.124 6.097l-.035 15.13a6.11 6.11 0 0 0 6.097 6.123l42.149.096a6.11 6.11 0 0 0 6.124-6.096l.035-15.13a6.111 6.111 0 0 0-6.097-6.124Z"/><path fill="url(#cm)" d="M655.98 266.93c-.52 0-.95-.43-.95-.95l.02-8.23c0-.52.43-.95.95-.95l8 .02c.52 0 .95.43.95.95s-.43.95-.95.95l-7.05-.02-.02 7.28c0 .52-.43.95-.95.95Z"/><path fill="url(#cn)" d="M702.54 268.73c.52 0 .95.43.95.95l-.02 8.23c0 .52-.43.95-.95.95l-7.51-.02c-.52 0-.95-.43-.95-.95s.43-.95.95-.95h6.56l.02-7.27c0-.52.43-.95.95-.95v.01Z"/><path fill="url(#co)" d="m700.181 342.067-66.62-.151a6.11 6.11 0 0 0-6.124 6.096l-.034 15.13a6.109 6.109 0 0 0 6.096 6.124l66.62.151a6.11 6.11 0 0 0 6.124-6.096l.034-15.13a6.11 6.11 0 0 0-6.096-6.124Z"/><path fill="url(#cp)" d="M631.81 354.95c-.52 0-.95-.43-.95-.95l.02-8.23c0-.52.43-.95.95-.95l8 .02c.52 0 .95.43.95.95s-.43.95-.95.95l-7.05-.02-.02 7.28c0 .52-.43.95-.95.95Z"/><path fill="url(#cq)" d="M702.34 356.8c.52 0 .95.43.95.95l-.02 8.23c0 .52-.43.95-.95.95l-7.51-.02c-.52 0-.95-.43-.95-.95s.43-.95.95-.95h6.56l.02-7.27c0-.52.43-.95.95-.95v.01Z"/><path fill="url(#cr)" d="m700.315 282.868-29.43-.067a6.11 6.11 0 0 0-6.124 6.096l-.034 15.13a6.11 6.11 0 0 0 6.096 6.124l29.43.067a6.111 6.111 0 0 0 6.124-6.096l.034-15.13a6.11 6.11 0 0 0-6.096-6.124Z"/><path fill="url(#cs)" d="M668.69 293.87c-.53 0-.96-.43-.96-.95v-6.27a.99.99 0 0 1 .98-.95h6.12c.53.01.96.44.96.96s-.43.95-.96.95h-5.16l-.01 5.31c0 .52-.43.95-.96.95h-.01Z"/><path fill="url(#ct)" d="M702.92 299.55c.53 0 .96.43.96.95v6.27a.99.99 0 0 1-.98.95h-5.62a.973.973 0 0 1-.96-.96c0-.52.43-.95.96-.95h4.66l.01-5.32c0-.52.43-.95.96-.95l.01.01Z"/><path fill="url(#cu)" d="m336.711 311.393-42.15-.096a6.11 6.11 0 0 0-6.123 6.096l-.031 13.67a6.11 6.11 0 0 0 6.096 6.124l42.15.096a6.11 6.11 0 0 0 6.123-6.096l.031-13.67a6.109 6.109 0 0 0-6.096-6.124Z"/><path fill="url(#cv)" d="M292.32 323.64c-.52 0-.95-.4-.95-.9l.02-7.79c0-.5.43-.9.95-.9l8 .02c.52 0 .95.4.95.9s-.43.9-.95.9l-7.05-.02-.02 6.9c0 .5-.43.9-.95.9v-.01Z"/><path fill="url(#cw)" d="M338.88 325.35c.52 0 .95.4.95.9l-.02 7.79c0 .5-.43.9-.95.9l-7.51-.02c-.52 0-.95-.4-.95-.9s.43-.9.95-.9h6.56l.02-6.88c0-.5.43-.9.95-.9v.01Z"/><path fill="url(#cx)" d="m323.087 282.502-28.45-.065a6.11 6.11 0 0 0-6.124 6.097l-.031 13.65a6.11 6.11 0 0 0 6.096 6.123l28.45.065a6.11 6.11 0 0 0 6.124-6.096l.031-13.65a6.11 6.11 0 0 0-6.096-6.124Z"/><path fill="url(#cy)" d="M292.18 293.31c-.5 0-.9-.4-.9-.9v-6.32c.02-.5.42-.9.91-.9h6.59c.5.02.9.42.9.91 0 .49-.4.9-.9.9h-5.69l-.01 5.41c0 .5-.4.9-.9.9Z"/><path fill="url(#cz)" d="M325.94 297.43c.5 0 .9.4.9.9l-.02 6.81c0 .5-.4.9-.9.9h-6.13c-.5-.01-.9-.42-.9-.91 0-.49.4-.9.9-.9h5.23l.01-5.9c0-.5.4-.9.9-.9h.01Z"/><path fill="url(#cA)" d="m347.904 341.268-53.41-.121a6.11 6.11 0 0 0-6.124 6.096l-.031 13.67a6.11 6.11 0 0 0 6.096 6.124l53.41.121a6.11 6.11 0 0 0 6.124-6.096l.031-13.67a6.111 6.111 0 0 0-6.096-6.124Z"/><path fill="url(#cB)" d="M292.25 353.49c-.52 0-.95-.4-.95-.9l.02-7.79c0-.5.43-.9.95-.9l8 .02c.52 0 .95.4.95.9s-.43.9-.95.9l-7.05-.02-.02 6.9c0 .5-.43.9-.95.9v-.01Z"/><path fill="url(#cC)" d="M350.55 355.68c.52 0 .95.4.95.9l-.02 7.79c0 .5-.43.9-.95.9l-7.51-.02c-.52 0-.95-.4-.95-.9s.43-.9.95-.9h6.56l.02-6.88c0-.5.43-.9.95-.9v.01Z"/><path fill="url(#cD)" d="m598.004 371.675-17.59-.039a6.11 6.11 0 0 0-6.124 6.096l-.04 17.59a6.11 6.11 0 0 0 6.096 6.123l17.59.04a6.11 6.11 0 0 0 6.124-6.096l.04-17.59a6.11 6.11 0 0 0-6.096-6.124Z"/><path fill="url(#cE)" d="M578.53 382.55c-.57 0-1.03-.47-1.03-1.04v-5.68c.01-.57.48-1.03 1.05-1.03h5.43c.57.01 1.03.48 1.03 1.05 0 .57-.47 1.03-1.04 1.03h-4.4l-.01 4.64c0 .57-.47 1.03-1.04 1.03h.01Z"/><path fill="url(#cF)" d="M600.73 390.99c.57 0 1.03.47 1.03 1.04v5.68c-.01.57-.48 1.03-1.05 1.03h-5.43c-.57-.01-1.03-.48-1.03-1.05 0-.57.47-1.03 1.04-1.03h4.4l.01-4.64c0-.57.47-1.03 1.04-1.03h-.01Z"/><path fill="url(#cG)" d="m632.243 371.763-17.59-.04a6.11 6.11 0 0 0-6.123 6.096l-.04 17.59a6.109 6.109 0 0 0 6.096 6.124l17.59.04a6.11 6.11 0 0 0 6.124-6.096l.04-17.59a6.111 6.111 0 0 0-6.097-6.124Z"/><path fill="url(#cH)" d="M612.77 382.63c-.57 0-1.03-.47-1.03-1.04v-5.68c.01-.57.48-1.03 1.05-1.03h5.43c.57.01 1.03.48 1.03 1.05 0 .57-.47 1.03-1.04 1.03h-4.4l-.01 4.64c0 .57-.47 1.03-1.04 1.03h.01Z"/><path fill="url(#cI)" d="M634.98 391.06c.57 0 1.03.47 1.03 1.04v5.68c-.01.57-.48 1.03-1.05 1.03h-5.43c-.57-.01-1.03-.48-1.03-1.05 0-.57.47-1.03 1.04-1.03h4.4l.01-4.64c0-.57.47-1.03 1.04-1.03h-.01Z"/><path fill="url(#cJ)" d="m666.253 371.84-17.59-.04a6.111 6.111 0 0 0-6.124 6.097l-.04 17.59a6.11 6.11 0 0 0 6.097 6.123l17.59.04a6.108 6.108 0 0 0 6.123-6.096l.04-17.59a6.11 6.11 0 0 0-6.096-6.124Z"/><path fill="url(#cK)" d="M646.77 382.71c-.57 0-1.03-.47-1.03-1.04v-5.68c.01-.57.48-1.03 1.05-1.03h5.43c.57.01 1.03.48 1.03 1.05 0 .57-.47 1.03-1.04 1.03h-4.4l-.01 4.64c0 .57-.47 1.03-1.04 1.03h.01Z"/><path fill="url(#cL)" d="M668.98 391.14c.57 0 1.03.47 1.03 1.04v5.68c-.01.57-.48 1.03-1.05 1.03h-5.43c-.57-.01-1.03-.48-1.03-1.05 0-.57.47-1.03 1.04-1.03h4.4l.01-4.64c0-.57.47-1.03 1.04-1.03h-.01Z"/><path fill="url(#cM)" d="m700.493 371.908-17.59-.04a6.11 6.11 0 0 0-6.124 6.096l-.04 17.59a6.11 6.11 0 0 0 6.096 6.124l17.59.04a6.11 6.11 0 0 0 6.124-6.096l.04-17.59a6.11 6.11 0 0 0-6.096-6.124Z"/><path fill="url(#cN)" d="M681.02 382.78c-.57 0-1.03-.47-1.03-1.04v-5.68c.01-.57.48-1.03 1.05-1.03h5.43c.57.01 1.03.48 1.03 1.05 0 .57-.47 1.03-1.04 1.03h-4.4l-.01 4.64c0 .57-.47 1.03-1.04 1.03h.01Z"/><path fill="url(#cO)" d="M703.23 391.22c.57 0 1.03.47 1.03 1.04v5.68c-.01.57-.48 1.03-1.05 1.03h-5.43c-.57-.01-1.03-.48-1.03-1.05 0-.57.47-1.03 1.04-1.03h4.4l.01-4.64c0-.57.47-1.03 1.04-1.03h-.01Z"/><path fill="url(#cP)" d="m442.128 220.142-12.76-.029a6.111 6.111 0 0 0-6.124 6.096l-.029 12.76a6.11 6.11 0 0 0 6.096 6.124l12.76.029a6.11 6.11 0 0 0 6.124-6.096l.029-12.76a6.11 6.11 0 0 0-6.096-6.124Z"/><path fill="url(#cQ)" d="M426.79 229.26c-.48 0-.87-.39-.86-.87v-4.76c.01-.48.4-.87.88-.86h4.55c.48.01.87.4.86.88-.01.48-.39.87-.87.86h-3.68v3.88c0 .48-.39.87-.87.86l-.01.01Z"/><path fill="url(#cR)" d="M445.4 236.32c.48 0 .87.39.86.87v4.76a.87.87 0 0 1-.88.86h-4.55a.87.87 0 0 1-.86-.88c.01-.48.39-.87.87-.86h3.68v-3.88c0-.48.39-.87.87-.86l.01-.01Z"/><path fill="url(#cS)" d="m616.027 220.537-12.76-.029a6.11 6.11 0 0 0-6.124 6.096l-.029 12.76a6.11 6.11 0 0 0 6.096 6.124l12.76.029a6.111 6.111 0 0 0 6.124-6.096l.029-12.76a6.11 6.11 0 0 0-6.096-6.124Z"/><path fill="url(#cT)" d="M600.69 229.65c-.48 0-.87-.39-.86-.87v-4.76c.01-.48.4-.87.88-.86h4.55c.48.01.87.4.86.88-.01.48-.39.87-.87.86h-3.68v3.88c0 .48-.39.87-.87.86l-.01.01Z"/><path fill="url(#cU)" d="M619.3 236.71c.48 0 .87.39.86.87v4.76a.87.87 0 0 1-.88.86h-4.55a.87.87 0 0 1-.86-.88c.01-.48.39-.87.87-.86h3.68v-3.88c0-.48.39-.87.87-.86l.01-.01Z"/><path fill="url(#cV)" d="m644.716 220.602-12.76-.029a6.11 6.11 0 0 0-6.123 6.096l-.029 12.76a6.11 6.11 0 0 0 6.096 6.124l12.76.029a6.111 6.111 0 0 0 6.124-6.096l.028-12.76a6.11 6.11 0 0 0-6.096-6.124Z"/><path fill="url(#cW)" d="M629.38 229.71c-.48 0-.87-.39-.86-.87v-4.76c.01-.48.4-.87.88-.86h4.55c.48.01.87.4.86.88-.01.48-.39.87-.87.86h-3.68v3.88c0 .48-.39.87-.87.86l-.01.01Z"/><path fill="url(#cX)" d="M647.99 236.78c.48 0 .87.39.86.87v4.76a.87.87 0 0 1-.88.86h-4.55a.87.87 0 0 1-.86-.88c.01-.48.39-.87.87-.86h3.68v-3.88c0-.48.39-.87.87-.86l.01-.01Z"/><path fill="url(#cY)" d="m673.216 220.667-12.76-.029a6.11 6.11 0 0 0-6.124 6.096l-.029 12.76a6.111 6.111 0 0 0 6.096 6.124l12.76.028a6.109 6.109 0 0 0 6.124-6.096l.029-12.76a6.108 6.108 0 0 0-6.096-6.123Z"/><path fill="url(#cZ)" d="M657.88 229.78c-.48 0-.87-.39-.86-.87v-4.76c.01-.48.4-.87.88-.86h4.55c.48.01.87.4.86.88-.01.48-.39.87-.87.86h-3.68v3.88c0 .48-.39.87-.87.86l-.01.01Z"/><path fill="url(#da)" d="M676.49 236.84c.48 0 .87.39.86.87v4.76a.87.87 0 0 1-.88.86h-4.55a.87.87 0 0 1-.86-.88c0-.48.39-.87.87-.86h3.68v-3.88c0-.48.39-.87.87-.86l.01-.01Z"/><path fill="url(#db)" d="m701.436 220.721-12.76-.029a6.11 6.11 0 0 0-6.124 6.096l-.029 12.76a6.11 6.11 0 0 0 6.096 6.124l12.76.028a6.11 6.11 0 0 0 6.124-6.096l.029-12.76a6.11 6.11 0 0 0-6.096-6.123Z"/><path fill="url(#dc)" d="M686.1 229.84c-.48 0-.87-.39-.86-.87v-4.76c.01-.48.4-.87.88-.86h4.55c.48.01.87.4.86.88-.01.48-.39.87-.87.86h-3.68v3.88c0 .48-.39.87-.87.86l-.01.01Z"/><path fill="url(#dd)" d="M704.71 236.91c.48 0 .87.39.86.87v4.76a.87.87 0 0 1-.88.86h-4.55a.87.87 0 0 1-.86-.88c.01-.48.39-.87.87-.86h3.68v-3.88c0-.48.39-.87.87-.86l.01-.01Z"/><path fill="url(#de)" d="m735.686 220.808-12.76-.029a6.11 6.11 0 0 0-6.124 6.096l-.029 12.76a6.11 6.11 0 0 0 6.096 6.124l12.76.029a6.11 6.11 0 0 0 6.124-6.096l.029-12.76a6.111 6.111 0 0 0-6.096-6.124Z"/><path fill="url(#df)" d="M720.35 229.92c-.48 0-.87-.39-.86-.87v-4.76c.01-.48.4-.87.88-.86h4.55c.48.01.87.4.86.88-.01.48-.39.87-.87.86h-3.68v3.88c0 .48-.39.87-.87.86l-.01.01Z"/><path fill="url(#dg)" d="M738.96 236.98c.48 0 .87.39.86.87v4.76a.87.87 0 0 1-.88.86h-4.55a.87.87 0 0 1-.86-.88c.01-.48.39-.87.87-.86h3.68v-3.88c0-.48.39-.87.87-.86l.01-.01Z"/><path fill="url(#dh)" d="m764.066 220.863-12.76-.029a6.109 6.109 0 0 0-6.124 6.096l-.029 12.76a6.11 6.11 0 0 0 6.096 6.124l12.76.029a6.111 6.111 0 0 0 6.124-6.096l.029-12.76a6.11 6.11 0 0 0-6.096-6.124Z"/><path fill="url(#di)" d="M748.73 229.98c-.48 0-.87-.39-.86-.87v-4.76c.01-.48.4-.87.88-.86h4.55c.48.01.87.4.86.88-.01.48-.39.87-.87.86h-3.68v3.88c0 .48-.39.87-.87.86l-.01.01Z"/><path fill="url(#dj)" d="M767.34 237.05c.48 0 .87.39.86.87v4.76a.87.87 0 0 1-.88.86h-4.55a.87.87 0 0 1-.86-.88c.01-.48.39-.87.87-.86h3.68v-3.88c0-.48.39-.87.87-.86l.01-.01Z"/><path fill="url(#dk)" d="m792.925 220.938-12.76-.029a6.111 6.111 0 0 0-6.124 6.096l-.029 12.76a6.11 6.11 0 0 0 6.096 6.124l12.76.029a6.11 6.11 0 0 0 6.124-6.096l.029-12.76a6.11 6.11 0 0 0-6.096-6.124Z"/><path fill="url(#dl)" d="M777.6 230.05c-.48 0-.87-.39-.86-.87v-4.76c.01-.48.4-.87.88-.86h4.55c.48.01.87.4.86.88-.01.48-.39.87-.87.86h-3.68v3.88c0 .48-.39.87-.87.86l-.01.01Z"/><path fill="url(#dm)" d="M796.2 237.11c.48 0 .87.39.86.87v4.76a.87.87 0 0 1-.88.86h-4.55a.87.87 0 0 1-.86-.88c.01-.48.39-.87.87-.86h3.68v-3.88c0-.48.39-.87.87-.86l.01-.01Z"/><path fill="url(#dn)" d="m735.6 254.078-12.76-.029a6.11 6.11 0 0 0-6.124 6.096l-.029 12.76a6.11 6.11 0 0 0 6.097 6.124l12.759.029a6.11 6.11 0 0 0 6.124-6.096l.029-12.76a6.11 6.11 0 0 0-6.096-6.124Z"/><path fill="url(#do)" d="M720.28 263.19c-.48 0-.87-.39-.86-.87v-4.76c.01-.48.4-.87.88-.86h4.55c.48.01.87.4.86.88-.01.48-.39.87-.87.86h-3.68v3.88c0 .48-.39.87-.87.86l-.01.01Z"/><path fill="url(#dp)" d="M738.88 270.25c.48 0 .87.39.86.87v4.76a.87.87 0 0 1-.88.86h-4.55a.87.87 0 0 1-.86-.88c.01-.48.39-.87.87-.86H738v-3.88c0-.48.39-.87.87-.86l.01-.01Z"/><path fill="url(#dq)" d="m763.98 254.142-12.76-.029a6.11 6.11 0 0 0-6.124 6.097l-.029 12.76a6.11 6.11 0 0 0 6.096 6.123l12.76.029a6.11 6.11 0 0 0 6.124-6.096l.029-12.76a6.11 6.11 0 0 0-6.096-6.124Z"/><path fill="url(#dr)" d="M748.65 263.25c-.48 0-.87-.39-.86-.87v-4.76c.01-.48.4-.87.88-.86h4.55c.48.01.87.4.86.88-.01.48-.39.87-.87.86h-3.68v3.88c0 .48-.39.87-.87.86l-.01.01Z"/><path fill="url(#ds)" d="M767.26 270.32c.48 0 .87.39.86.87v4.76a.87.87 0 0 1-.88.86h-4.55a.87.87 0 0 1-.86-.88c.01-.48.39-.87.87-.86h3.68v-3.88c0-.48.39-.87.87-.86l.01-.01Z"/><path fill="url(#dt)" d="m792.85 254.208-12.76-.029a6.11 6.11 0 0 0-6.124 6.096l-.029 12.76a6.11 6.11 0 0 0 6.096 6.124l12.76.029a6.11 6.11 0 0 0 6.124-6.096l.029-12.76a6.11 6.11 0 0 0-6.096-6.124Z"/><path fill="url(#du)" d="M777.52 263.32c-.48 0-.87-.39-.86-.87v-4.76c.01-.48.4-.87.88-.86h4.55c.48.01.87.4.86.88-.01.48-.39.87-.87.86h-3.68v3.88c0 .48-.39.87-.87.86l-.01.01Z"/><path fill="url(#dv)" d="M796.13 270.38c.48 0 .87.39.86.87v4.76a.87.87 0 0 1-.88.86h-4.55a.87.87 0 0 1-.86-.88c.01-.48.39-.87.87-.86h3.68v-3.88c0-.48.39-.87.87-.86l.01-.01Z"/><path fill="url(#dw)" d="m792.784 283.078-12.76-.029a6.11 6.11 0 0 0-6.124 6.096l-.029 12.76a6.111 6.111 0 0 0 6.097 6.124l12.76.029a6.11 6.11 0 0 0 6.123-6.096l.029-12.76a6.109 6.109 0 0 0-6.096-6.124Z"/><path fill="url(#dx)" d="M777.46 292.18c-.48 0-.87-.39-.86-.87v-4.76c.01-.48.4-.87.88-.86h4.55c.48.01.87.4.86.88-.01.48-.39.87-.87.86h-3.68v3.88c0 .48-.39.87-.87.86l-.01.01Z"/><path fill="url(#dy)" d="M796.06 299.25c.48 0 .87.39.86.87v4.76a.87.87 0 0 1-.88.86h-4.55a.87.87 0 0 1-.86-.88c.01-.48.39-.87.87-.86h3.68v-3.88c0-.48.39-.87.87-.86l.01-.01Z"/><path fill="url(#dz)" d="m763.924 283.002-40.649-.092a6.11 6.11 0 0 0-6.124 6.096l-.029 12.76a6.11 6.11 0 0 0 6.096 6.124l40.65.092a6.11 6.11 0 0 0 6.124-6.096l.029-12.76a6.111 6.111 0 0 0-6.097-6.124Z"/><path fill="url(#dA)" d="M720.7 292.06c-.48 0-.87-.39-.86-.87v-4.76c.01-.48.4-.87.88-.86h4.55c.48.01.87.4.86.88-.01.48-.39.87-.87.86h-3.68v3.88c0 .48-.39.87-.87.86l-.01.01Z"/><path fill="url(#dB)" d="M766.71 299.18c.48 0 .87.39.86.87v4.76a.87.87 0 0 1-.88.86h-4.55a.87.87 0 0 1-.86-.88c.01-.48.39-.87.87-.86h3.68v-3.88c0-.48.39-.87.87-.86l.01-.01Z"/><path fill="#E1BBB0" d="M772.84 457.19s-7.93-17.31-13.31-20.52c-5.38-3.21-12.56-7.5-16.87-10.47-4.31-2.98-15.44-8.8-15.44-8.8s-4.43-3.45-10.9-10.97c-3.1-3.6-6.62-6.12-10.9-8.18-2.54-1.22-4.67-2.79-7.28-3.91-1.81-.78-5.67-1.87-6.23-4.1-.36-1.43-1.21-6.81 4.88-8.85 6.09-2.05 21.65 9.27 21.65 9.27l11.61 9.77s-20.86-26.24-25.65-33.15c-4.79-6.9-18.06-29.38-18.12-29.47-1.19-2.01-2.8-3.73-3.78-5.87-1.65-3.58-1.05-10.02 3.97-10.5 1.05-.1 2.16.19 3.27.73.42.2.84.44 1.26.7 2.92 1.84 5.74 4.98 7.45 6.79 0 0 9.71 12.28 12.47 17.18 2.2 3.89 6.03 7.46 8.87 10.91 4.77 5.81 9.34 11.78 13.71 17.9-1.25-2.87-3.35-5.27-4.99-7.94-1.64-2.67-2.84-5.88-2-8.9.62-2.24 2.38-4.12 4.57-4.89 3.54-1.25 7.24.8 9.87 3.11 0 0 3.96 5.61 7.92 13.24l.96-.24s-7.79-10.73-5.3-16.95c1.73-4.32 7.95-5.02 11.62-2.87 3.4 1.99 5.06 6.55 5.96 10.12 0 0 .84 3.34 1.92 3.58 1.08.24-1.3-5.15-1.74-6.88-.43-1.72-2.71-4.7 1.82-8.9 11.1-10.28 23.4 19.8 26.07 26.81 5 13.1 8.37 27.37 18.66 37.6 6.11 6.08 12.83 16.58 13.07 17.53.24.95.49 5.97-10.12 14.24s-28.16 15.24-28.16 15.24-7.28 3.36-10.76-2.36h-.03Z"/><path fill="#D29F93" d="M764.71 442.42s16.85 13.07 41.79 1.18c0 0 14.58-7.48 14.61-14.99 0 0 1.7 1.83.41 4.39-1.29 2.56-3.05 7.51-17.56 16.54-14.51 9.04-19.3 9.89-19.3 9.89s-6.04 3.06-10.78-.9l-9.17-16.11Z"/><path fill="#C38B80" d="M730.04 400.42s-15.68-9.76-18.43-10.59c-2.75-.83-8.61-3.92-14.94-2.83-6.33 1.09-4.77 3.24-4.77 3.24s-1.26-6.15 3.18-8.1c4.44-1.95 7.3-.46 12.99 1.82 5.69 2.29 21.97 16.46 21.97 16.46ZM690.18 323.09s-4.89 2.76-3.56 8.01c1.33 5.25 4.03 14.04 4.03 14.04l-7.53-12.04s-2.23-3.6-.81-8.53 9.55-2.92 7.88-1.48h-.01ZM737.12 354.47s-5.4.3-6.23 5.08c-.82 4.78 2.3 11.11 2.3 11.11s3.12 4.29 1.68 4.66c-1.44.37-5.4-6.11-5.4-6.11s-3.95-4.53-3.24-8.88c.71-4.35 3.09-5.49 4.82-6.42 1.73-.93 5.61-.8 6.07.56ZM752.93 350.23s-4.81.27-5.55 4.53c-.73 4.26 2.05 9.89 2.05 9.89s2.78 3.83 1.5 4.15c-1.28.32-4.81-5.44-4.81-5.44s-3.51-4.04-2.89-7.91c.63-3.87 2.75-4.89 4.29-5.72 1.54-.83 5-.72 5.4.5h.01ZM770.72 348.76s-4.13-.67-5.55 2.8c-1.42 3.47-.12 8.77-.12 8.77s1.64 3.76.49 3.8c-1.14.03-3.06-5.52-3.06-5.52s-2.22-4.08-.96-7.25c1.26-3.16 3.25-3.63 4.71-4.04 1.46-.41 4.37.33 4.49 1.44Z"/><defs><linearGradient id="a" x1="0" x2="1100" y1="300" y2="300" gradientUnits="userSpaceOnUse"><stop stop-color="#5BC6B9"/><stop offset="1" stop-color="#BDECE6"/></linearGradient><linearGradient id="b" x1="278" x2="816.47" y1="310.74" y2="310.74" gradientUnits="userSpaceOnUse"><stop stop-color="#077"/><stop offset="1" stop-color="#69BBC2"/></linearGradient><linearGradient id="c" x1="290.719" x2="315.729" y1="232.319" y2="232.319" gradientUnits="userSpaceOnUse"><stop stop-color="#FF7201"/><stop offset="1" stop-color="#FFC30A"/></linearGradient><linearGradient id="d" x1="293.42" x2="299.71" y1="225.71" y2="225.71" gradientUnits="userSpaceOnUse"><stop stop-color="#FF7201"/><stop offset="1" stop-color="#FFC30A"/></linearGradient><linearGradient id="e" x1="307.46" x2="313.76" y1="239.27" y2="239.27" gradientUnits="userSpaceOnUse"><stop stop-color="#FF7201"/><stop offset="1" stop-color="#FFC30A"/></linearGradient><linearGradient id="f" x1="466.978" x2="491.978" y1="232.709" y2="232.709" gradientUnits="userSpaceOnUse"><stop stop-color="#FF7201"/><stop offset="1" stop-color="#FFC30A"/></linearGradient><linearGradient id="g" x1="469.68" x2="475.97" y1="226.11" y2="226.11" gradientUnits="userSpaceOnUse"><stop stop-color="#FF7201"/><stop offset="1" stop-color="#FFC30A"/></linearGradient><linearGradient id="h" x1="483.72" x2="490.02" y1="239.67" y2="239.67" gradientUnits="userSpaceOnUse"><stop stop-color="#FF7201"/><stop offset="1" stop-color="#FFC30A"/></linearGradient><linearGradient id="i" x1="495.668" x2="520.678" y1="232.769" y2="232.769" gradientUnits="userSpaceOnUse"><stop stop-color="#FF7201"/><stop offset="1" stop-color="#FFC30A"/></linearGradient><linearGradient id="j" x1="498.37" x2="504.66" y1="226.17" y2="226.17" gradientUnits="userSpaceOnUse"><stop stop-color="#FF7201"/><stop offset="1" stop-color="#FFC30A"/></linearGradient><linearGradient id="k" x1="512.42" x2="518.71" y1="239.73" y2="239.73" gradientUnits="userSpaceOnUse"><stop stop-color="#FF7201"/><stop offset="1" stop-color="#FFC30A"/></linearGradient><linearGradient id="l" x1="524.158" x2="549.158" y1="232.839" y2="232.839" gradientUnits="userSpaceOnUse"><stop stop-color="#FF7201"/><stop offset="1" stop-color="#FFC30A"/></linearGradient><linearGradient id="m" x1="526.87" x2="533.16" y1="226.24" y2="226.24" gradientUnits="userSpaceOnUse"><stop stop-color="#FF7201"/><stop offset="1" stop-color="#FFC30A"/></linearGradient><linearGradient id="n" x1="540.91" x2="547.21" y1="239.8" y2="239.8" gradientUnits="userSpaceOnUse"><stop stop-color="#FF7201"/><stop offset="1" stop-color="#FFC30A"/></linearGradient><linearGradient id="o" x1="552.378" x2="577.388" y1="232.899" y2="232.899" gradientUnits="userSpaceOnUse"><stop stop-color="#FF7201"/><stop offset="1" stop-color="#FFC30A"/></linearGradient><linearGradient id="p" x1="555.09" x2="561.38" y1="226.3" y2="226.3" gradientUnits="userSpaceOnUse"><stop stop-color="#FF7201"/><stop offset="1" stop-color="#FFC30A"/></linearGradient><linearGradient id="q" x1="569.13" x2="575.43" y1="239.86" y2="239.86" gradientUnits="userSpaceOnUse"><stop stop-color="#FF7201"/><stop offset="1" stop-color="#FFC30A"/></linearGradient><linearGradient id="r" x1="337.809" x2="362.819" y1="232.419" y2="232.419" gradientUnits="userSpaceOnUse"><stop stop-color="#86CFBE"/><stop offset="1" stop-color="#56A5A3"/></linearGradient><linearGradient id="s" x1="340.51" x2="346.8" y1="225.82" y2="225.82" gradientUnits="userSpaceOnUse"><stop stop-color="#86CFBE"/><stop offset="1" stop-color="#56A5A3"/></linearGradient><linearGradient id="t" x1="354.56" x2="360.85" y1="239.38" y2="239.38" gradientUnits="userSpaceOnUse"><stop stop-color="#86CFBE"/><stop offset="1" stop-color="#56A5A3"/></linearGradient><linearGradient id="u" x1="366.499" x2="391.509" y1="232.489" y2="232.489" gradientUnits="userSpaceOnUse"><stop stop-color="#86CFBE"/><stop offset="1" stop-color="#56A5A3"/></linearGradient><linearGradient id="v" x1="369.2" x2="375.5" y1="225.88" y2="225.88" gradientUnits="userSpaceOnUse"><stop stop-color="#86CFBE"/><stop offset="1" stop-color="#56A5A3"/></linearGradient><linearGradient id="w" x1="383.25" x2="389.54" y1="239.44" y2="239.44" gradientUnits="userSpaceOnUse"><stop stop-color="#86CFBE"/><stop offset="1" stop-color="#56A5A3"/></linearGradient><linearGradient id="x" x1="288.789" x2="314.949" y1="266.639" y2="266.639" gradientUnits="userSpaceOnUse"><stop stop-color="#5BC6B9"/><stop offset="1" stop-color="#BDECE6"/></linearGradient><linearGradient id="y" x1="291.63" x2="298.21" y1="259.74" y2="259.74" gradientUnits="userSpaceOnUse"><stop stop-color="#5BC6B9"/><stop offset="1" stop-color="#BDECE6"/></linearGradient><linearGradient id="z" x1="306.32" x2="312.9" y1="273.92" y2="273.92" gradientUnits="userSpaceOnUse"><stop stop-color="#5BC6B9"/><stop offset="1" stop-color="#BDECE6"/></linearGradient><linearGradient id="A" x1="318.799" x2="344.949" y1="266.709" y2="266.709" gradientUnits="userSpaceOnUse"><stop stop-color="#5BC6B9"/><stop offset="1" stop-color="#BDECE6"/></linearGradient><linearGradient id="B" x1="321.63" x2="328.22" y1="259.81" y2="259.81" gradientUnits="userSpaceOnUse"><stop stop-color="#5BC6B9"/><stop offset="1" stop-color="#BDECE6"/></linearGradient><linearGradient id="C" x1="336.32" x2="342.9" y1="273.98" y2="273.98" gradientUnits="userSpaceOnUse"><stop stop-color="#5BC6B9"/><stop offset="1" stop-color="#BDECE6"/></linearGradient><linearGradient id="D" x1="349.169" x2="375.319" y1="266.779" y2="266.779" gradientUnits="userSpaceOnUse"><stop stop-color="#5BC6B9"/><stop offset="1" stop-color="#BDECE6"/></linearGradient><linearGradient id="E" x1="352" x2="358.59" y1="259.87" y2="259.87" gradientUnits="userSpaceOnUse"><stop stop-color="#5BC6B9"/><stop offset="1" stop-color="#BDECE6"/></linearGradient><linearGradient id="F" x1="366.69" x2="373.27" y1="274.05" y2="274.05" gradientUnits="userSpaceOnUse"><stop stop-color="#5BC6B9"/><stop offset="1" stop-color="#BDECE6"/></linearGradient><linearGradient id="G" x1="379.179" x2="405.329" y1="266.849" y2="266.849" gradientUnits="userSpaceOnUse"><stop stop-color="#5BC6B9"/><stop offset="1" stop-color="#BDECE6"/></linearGradient><linearGradient id="H" x1="382.01" x2="388.59" y1="259.94" y2="259.94" gradientUnits="userSpaceOnUse"><stop stop-color="#5BC6B9"/><stop offset="1" stop-color="#BDECE6"/></linearGradient><linearGradient id="I" x1="396.7" x2="403.28" y1="274.12" y2="274.12" gradientUnits="userSpaceOnUse"><stop stop-color="#5BC6B9"/><stop offset="1" stop-color="#BDECE6"/></linearGradient><linearGradient id="J" x1="409.029" x2="435.189" y1="266.909" y2="266.909" gradientUnits="userSpaceOnUse"><stop stop-color="#5BC6B9"/><stop offset="1" stop-color="#BDECE6"/></linearGradient><linearGradient id="K" x1="411.87" x2="418.45" y1="260.01" y2="260.01" gradientUnits="userSpaceOnUse"><stop stop-color="#5BC6B9"/><stop offset="1" stop-color="#BDECE6"/></linearGradient><linearGradient id="L" x1="426.56" x2="433.14" y1="274.19" y2="274.19" gradientUnits="userSpaceOnUse"><stop stop-color="#5BC6B9"/><stop offset="1" stop-color="#BDECE6"/></linearGradient><linearGradient id="M" x1="439.038" x2="465.188" y1="266.979" y2="266.979" gradientUnits="userSpaceOnUse"><stop stop-color="#5BC6B9"/><stop offset="1" stop-color="#BDECE6"/></linearGradient><linearGradient id="N" x1="441.88" x2="448.46" y1="260.08" y2="260.08" gradientUnits="userSpaceOnUse"><stop stop-color="#5BC6B9"/><stop offset="1" stop-color="#BDECE6"/></linearGradient><linearGradient id="O" x1="456.56" x2="463.14" y1="274.25" y2="274.25" gradientUnits="userSpaceOnUse"><stop stop-color="#5BC6B9"/><stop offset="1" stop-color="#BDECE6"/></linearGradient><linearGradient id="P" x1="469.408" x2="495.558" y1="267.049" y2="267.049" gradientUnits="userSpaceOnUse"><stop stop-color="#5BC6B9"/><stop offset="1" stop-color="#BDECE6"/></linearGradient><linearGradient id="Q" x1="472.25" x2="478.83" y1="260.14" y2="260.14" gradientUnits="userSpaceOnUse"><stop stop-color="#5BC6B9"/><stop offset="1" stop-color="#BDECE6"/></linearGradient><linearGradient id="R" x1="486.93" x2="493.51" y1="274.32" y2="274.32" gradientUnits="userSpaceOnUse"><stop stop-color="#5BC6B9"/><stop offset="1" stop-color="#BDECE6"/></linearGradient><linearGradient id="S" x1="499.418" x2="525.568" y1="267.109" y2="267.109" gradientUnits="userSpaceOnUse"><stop stop-color="#5BC6B9"/><stop offset="1" stop-color="#BDECE6"/></linearGradient><linearGradient id="T" x1="502.25" x2="508.83" y1="260.21" y2="260.21" gradientUnits="userSpaceOnUse"><stop stop-color="#5BC6B9"/><stop offset="1" stop-color="#BDECE6"/></linearGradient><linearGradient id="U" x1="516.94" x2="523.52" y1="274.39" y2="274.39" gradientUnits="userSpaceOnUse"><stop stop-color="#5BC6B9"/><stop offset="1" stop-color="#BDECE6"/></linearGradient><linearGradient id="V" x1="529.268" x2="555.428" y1="267.179" y2="267.179" gradientUnits="userSpaceOnUse"><stop stop-color="#5BC6B9"/><stop offset="1" stop-color="#BDECE6"/></linearGradient><linearGradient id="W" x1="532.11" x2="538.69" y1="260.28" y2="260.28" gradientUnits="userSpaceOnUse"><stop stop-color="#5BC6B9"/><stop offset="1" stop-color="#BDECE6"/></linearGradient><linearGradient id="X" x1="546.8" x2="553.38" y1="274.46" y2="274.46" gradientUnits="userSpaceOnUse"><stop stop-color="#5BC6B9"/><stop offset="1" stop-color="#BDECE6"/></linearGradient><linearGradient id="Y" x1="559.278" x2="585.428" y1="267.249" y2="267.249" gradientUnits="userSpaceOnUse"><stop stop-color="#5BC6B9"/><stop offset="1" stop-color="#BDECE6"/></linearGradient><linearGradient id="Z" x1="562.12" x2="568.7" y1="260.35" y2="260.35" gradientUnits="userSpaceOnUse"><stop stop-color="#5BC6B9"/><stop offset="1" stop-color="#BDECE6"/></linearGradient><linearGradient id="aa" x1="576.8" x2="583.38" y1="274.53" y2="274.53" gradientUnits="userSpaceOnUse"><stop stop-color="#5BC6B9"/><stop offset="1" stop-color="#BDECE6"/></linearGradient><linearGradient id="ab" x1="589.648" x2="615.798" y1="267.319" y2="267.319" gradientUnits="userSpaceOnUse"><stop stop-color="#5BC6B9"/><stop offset="1" stop-color="#BDECE6"/></linearGradient><linearGradient id="ac" x1="592.49" x2="599.07" y1="260.42" y2="260.42" gradientUnits="userSpaceOnUse"><stop stop-color="#5BC6B9"/><stop offset="1" stop-color="#BDECE6"/></linearGradient><linearGradient id="ad" x1="607.17" x2="613.75" y1="274.59" y2="274.59" gradientUnits="userSpaceOnUse"><stop stop-color="#5BC6B9"/><stop offset="1" stop-color="#BDECE6"/></linearGradient><linearGradient id="ae" x1="619.658" x2="645.808" y1="267.379" y2="267.379" gradientUnits="userSpaceOnUse"><stop stop-color="#5BC6B9"/><stop offset="1" stop-color="#BDECE6"/></linearGradient><linearGradient id="af" x1="622.49" x2="629.07" y1="260.48" y2="260.48" gradientUnits="userSpaceOnUse"><stop stop-color="#5BC6B9"/><stop offset="1" stop-color="#BDECE6"/></linearGradient><linearGradient id="ag" x1="637.18" x2="643.76" y1="274.66" y2="274.66" gradientUnits="userSpaceOnUse"><stop stop-color="#5BC6B9"/><stop offset="1" stop-color="#BDECE6"/></linearGradient><linearGradient id="ah" x1="333.409" x2="359.559" y1="295.609" y2="295.609" gradientUnits="userSpaceOnUse"><stop stop-color="#5BC6B9"/><stop offset="1" stop-color="#BDECE6"/></linearGradient><linearGradient id="ai" x1="336.25" x2="342.83" y1="288.71" y2="288.71" gradientUnits="userSpaceOnUse"><stop stop-color="#5BC6B9"/><stop offset="1" stop-color="#BDECE6"/></linearGradient><linearGradient id="aj" x1="350.94" x2="357.52" y1="302.88" y2="302.88" gradientUnits="userSpaceOnUse"><stop stop-color="#5BC6B9"/><stop offset="1" stop-color="#BDECE6"/></linearGradient><linearGradient id="ak" x1="363.779" x2="389.929" y1="295.679" y2="295.679" gradientUnits="userSpaceOnUse"><stop stop-color="#5BC6B9"/><stop offset="1" stop-color="#BDECE6"/></linearGradient><linearGradient id="al" x1="366.62" x2="373.2" y1="288.77" y2="288.77" gradientUnits="userSpaceOnUse"><stop stop-color="#5BC6B9"/><stop offset="1" stop-color="#BDECE6"/></linearGradient><linearGradient id="am" x1="381.31" x2="387.89" y1="302.95" y2="302.95" gradientUnits="userSpaceOnUse"><stop stop-color="#5BC6B9"/><stop offset="1" stop-color="#BDECE6"/></linearGradient><linearGradient id="an" x1="393.789" x2="419.939" y1="295.739" y2="295.739" gradientUnits="userSpaceOnUse"><stop stop-color="#5BC6B9"/><stop offset="1" stop-color="#BDECE6"/></linearGradient><linearGradient id="ao" x1="396.62" x2="403.21" y1="288.84" y2="288.84" gradientUnits="userSpaceOnUse"><stop stop-color="#5BC6B9"/><stop offset="1" stop-color="#BDECE6"/></linearGradient><linearGradient id="ap" x1="411.31" x2="417.89" y1="303.02" y2="303.02" gradientUnits="userSpaceOnUse"><stop stop-color="#5BC6B9"/><stop offset="1" stop-color="#BDECE6"/></linearGradient><linearGradient id="aq" x1="423.649" x2="449.799" y1="295.819" y2="295.819" gradientUnits="userSpaceOnUse"><stop stop-color="#5BC6B9"/><stop offset="1" stop-color="#BDECE6"/></linearGradient><linearGradient id="ar" x1="426.48" x2="433.06" y1="288.91" y2="288.91" gradientUnits="userSpaceOnUse"><stop stop-color="#5BC6B9"/><stop offset="1" stop-color="#BDECE6"/></linearGradient><linearGradient id="as" x1="441.17" x2="447.75" y1="303.09" y2="303.09" gradientUnits="userSpaceOnUse"><stop stop-color="#5BC6B9"/><stop offset="1" stop-color="#BDECE6"/></linearGradient><linearGradient id="at" x1="453.649" x2="479.809" y1="295.879" y2="295.879" gradientUnits="userSpaceOnUse"><stop stop-color="#5BC6B9"/><stop offset="1" stop-color="#BDECE6"/></linearGradient><linearGradient id="au" x1="456.49" x2="463.07" y1="288.98" y2="288.98" gradientUnits="userSpaceOnUse"><stop stop-color="#5BC6B9"/><stop offset="1" stop-color="#BDECE6"/></linearGradient><linearGradient id="av" x1="471.18" x2="477.76" y1="303.15" y2="303.15" gradientUnits="userSpaceOnUse"><stop stop-color="#5BC6B9"/><stop offset="1" stop-color="#BDECE6"/></linearGradient><linearGradient id="aw" x1="484.018" x2="510.178" y1="295.949" y2="295.949" gradientUnits="userSpaceOnUse"><stop stop-color="#5BC6B9"/><stop offset="1" stop-color="#BDECE6"/></linearGradient><linearGradient id="ax" x1="486.86" x2="493.44" y1="289.04" y2="289.04" gradientUnits="userSpaceOnUse"><stop stop-color="#5BC6B9"/><stop offset="1" stop-color="#BDECE6"/></linearGradient><linearGradient id="ay" x1="501.55" x2="508.13" y1="303.22" y2="303.22" gradientUnits="userSpaceOnUse"><stop stop-color="#5BC6B9"/><stop offset="1" stop-color="#BDECE6"/></linearGradient><linearGradient id="az" x1="514.028" x2="540.178" y1="296.009" y2="296.009" gradientUnits="userSpaceOnUse"><stop stop-color="#5BC6B9"/><stop offset="1" stop-color="#BDECE6"/></linearGradient><linearGradient id="aA" x1="516.86" x2="523.45" y1="289.11" y2="289.11" gradientUnits="userSpaceOnUse"><stop stop-color="#5BC6B9"/><stop offset="1" stop-color="#BDECE6"/></linearGradient><linearGradient id="aB" x1="531.55" x2="538.13" y1="303.29" y2="303.29" gradientUnits="userSpaceOnUse"><stop stop-color="#5BC6B9"/><stop offset="1" stop-color="#BDECE6"/></linearGradient><linearGradient id="aC" x1="543.888" x2="570.038" y1="296.079" y2="296.079" gradientUnits="userSpaceOnUse"><stop stop-color="#5BC6B9"/><stop offset="1" stop-color="#BDECE6"/></linearGradient><linearGradient id="aD" x1="546.72" x2="553.3" y1="289.18" y2="289.18" gradientUnits="userSpaceOnUse"><stop stop-color="#5BC6B9"/><stop offset="1" stop-color="#BDECE6"/></linearGradient><linearGradient id="aE" x1="561.41" x2="567.99" y1="303.36" y2="303.36" gradientUnits="userSpaceOnUse"><stop stop-color="#5BC6B9"/><stop offset="1" stop-color="#BDECE6"/></linearGradient><linearGradient id="aF" x1="573.888" x2="600.048" y1="296.149" y2="296.149" gradientUnits="userSpaceOnUse"><stop stop-color="#5BC6B9"/><stop offset="1" stop-color="#BDECE6"/></linearGradient><linearGradient id="aG" x1="576.73" x2="583.31" y1="289.25" y2="289.25" gradientUnits="userSpaceOnUse"><stop stop-color="#5BC6B9"/><stop offset="1" stop-color="#BDECE6"/></linearGradient><linearGradient id="aH" x1="591.42" x2="598" y1="303.43" y2="303.43" gradientUnits="userSpaceOnUse"><stop stop-color="#5BC6B9"/><stop offset="1" stop-color="#BDECE6"/></linearGradient><linearGradient id="aI" x1="634.268" x2="660.418" y1="296.279" y2="296.279" gradientUnits="userSpaceOnUse"><stop stop-color="#5BC6B9"/><stop offset="1" stop-color="#BDECE6"/></linearGradient><linearGradient id="aJ" x1="637.1" x2="643.69" y1="289.38" y2="289.38" gradientUnits="userSpaceOnUse"><stop stop-color="#5BC6B9"/><stop offset="1" stop-color="#BDECE6"/></linearGradient><linearGradient id="aK" x1="651.79" x2="658.37" y1="303.56" y2="303.56" gradientUnits="userSpaceOnUse"><stop stop-color="#5BC6B9"/><stop offset="1" stop-color="#BDECE6"/></linearGradient><linearGradient id="aL" x1="603.928" x2="630.088" y1="296.219" y2="296.219" gradientUnits="userSpaceOnUse"><stop stop-color="#5BC6B9"/><stop offset="1" stop-color="#BDECE6"/></linearGradient><linearGradient id="aM" x1="606.77" x2="613.35" y1="289.31" y2="289.31" gradientUnits="userSpaceOnUse"><stop stop-color="#5BC6B9"/><stop offset="1" stop-color="#BDECE6"/></linearGradient><linearGradient id="aN" x1="621.46" x2="628.04" y1="303.49" y2="303.49" gradientUnits="userSpaceOnUse"><stop stop-color="#5BC6B9"/><stop offset="1" stop-color="#BDECE6"/></linearGradient><linearGradient id="aO" x1="394.999" x2="420.009" y1="232.549" y2="232.549" gradientUnits="userSpaceOnUse"><stop stop-color="#86CFBE"/><stop offset="1" stop-color="#56A5A3"/></linearGradient><linearGradient id="aP" x1="397.7" x2="403.99" y1="225.95" y2="225.95" gradientUnits="userSpaceOnUse"><stop stop-color="#86CFBE"/><stop offset="1" stop-color="#56A5A3"/></linearGradient><linearGradient id="aQ" x1="411.74" x2="418.04" y1="239.5" y2="239.5" gradientUnits="userSpaceOnUse"><stop stop-color="#86CFBE"/><stop offset="1" stop-color="#56A5A3"/></linearGradient><linearGradient id="aR" x1="347.049" x2="373.199" y1="324.508" y2="324.508" gradientUnits="userSpaceOnUse"><stop stop-color="#5BC6B9"/><stop offset="1" stop-color="#BDECE6"/></linearGradient><linearGradient id="aS" x1="349.88" x2="356.46" y1="317.6" y2="317.6" gradientUnits="userSpaceOnUse"><stop stop-color="#5BC6B9"/><stop offset="1" stop-color="#BDECE6"/></linearGradient><linearGradient id="aT" x1="364.57" x2="371.15" y1="331.78" y2="331.78" gradientUnits="userSpaceOnUse"><stop stop-color="#5BC6B9"/><stop offset="1" stop-color="#BDECE6"/></linearGradient><linearGradient id="aU" x1="377.419" x2="403.569" y1="324.568" y2="324.568" gradientUnits="userSpaceOnUse"><stop stop-color="#5BC6B9"/><stop offset="1" stop-color="#BDECE6"/></linearGradient><linearGradient id="aV" x1="380.25" x2="386.83" y1="317.67" y2="317.67" gradientUnits="userSpaceOnUse"><stop stop-color="#5BC6B9"/><stop offset="1" stop-color="#BDECE6"/></linearGradient><linearGradient id="aW" x1="394.94" x2="401.52" y1="331.85" y2="331.85" gradientUnits="userSpaceOnUse"><stop stop-color="#5BC6B9"/><stop offset="1" stop-color="#BDECE6"/></linearGradient><linearGradient id="aX" x1="407.419" x2="433.579" y1="324.638" y2="324.638" gradientUnits="userSpaceOnUse"><stop stop-color="#5BC6B9"/><stop offset="1" stop-color="#BDECE6"/></linearGradient><linearGradient id="aY" x1="410.26" x2="416.84" y1="317.74" y2="317.74" gradientUnits="userSpaceOnUse"><stop stop-color="#5BC6B9"/><stop offset="1" stop-color="#BDECE6"/></linearGradient><linearGradient id="aZ" x1="424.95" x2="431.53" y1="331.92" y2="331.92" gradientUnits="userSpaceOnUse"><stop stop-color="#5BC6B9"/><stop offset="1" stop-color="#BDECE6"/></linearGradient><linearGradient id="ba" x1="437.278" x2="463.428" y1="324.708" y2="324.708" gradientUnits="userSpaceOnUse"><stop stop-color="#5BC6B9"/><stop offset="1" stop-color="#BDECE6"/></linearGradient><linearGradient id="bb" x1="440.12" x2="446.7" y1="317.81" y2="317.81" gradientUnits="userSpaceOnUse"><stop stop-color="#5BC6B9"/><stop offset="1" stop-color="#BDECE6"/></linearGradient><linearGradient id="bc" x1="454.8" x2="461.39" y1="331.99" y2="331.99" gradientUnits="userSpaceOnUse"><stop stop-color="#5BC6B9"/><stop offset="1" stop-color="#BDECE6"/></linearGradient><linearGradient id="bd" x1="467.288" x2="493.438" y1="324.778" y2="324.778" gradientUnits="userSpaceOnUse"><stop stop-color="#5BC6B9"/><stop offset="1" stop-color="#BDECE6"/></linearGradient><linearGradient id="be" x1="470.12" x2="476.7" y1="317.87" y2="317.87" gradientUnits="userSpaceOnUse"><stop stop-color="#5BC6B9"/><stop offset="1" stop-color="#BDECE6"/></linearGradient><linearGradient id="bf" x1="484.81" x2="491.39" y1="332.05" y2="332.05" gradientUnits="userSpaceOnUse"><stop stop-color="#5BC6B9"/><stop offset="1" stop-color="#BDECE6"/></linearGradient><linearGradient id="bg" x1="497.658" x2="523.808" y1="324.838" y2="324.838" gradientUnits="userSpaceOnUse"><stop stop-color="#5BC6B9"/><stop offset="1" stop-color="#BDECE6"/></linearGradient><linearGradient id="bh" x1="500.49" x2="507.07" y1="317.94" y2="317.94" gradientUnits="userSpaceOnUse"><stop stop-color="#5BC6B9"/><stop offset="1" stop-color="#BDECE6"/></linearGradient><linearGradient id="bi" x1="515.18" x2="521.76" y1="332.12" y2="332.12" gradientUnits="userSpaceOnUse"><stop stop-color="#5BC6B9"/><stop offset="1" stop-color="#BDECE6"/></linearGradient><linearGradient id="bj" x1="527.658" x2="553.818" y1="324.908" y2="324.908" gradientUnits="userSpaceOnUse"><stop stop-color="#5BC6B9"/><stop offset="1" stop-color="#BDECE6"/></linearGradient><linearGradient id="bk" x1="530.5" x2="537.08" y1="318.01" y2="318.01" gradientUnits="userSpaceOnUse"><stop stop-color="#5BC6B9"/><stop offset="1" stop-color="#BDECE6"/></linearGradient><linearGradient id="bl" x1="545.19" x2="551.77" y1="332.19" y2="332.19" gradientUnits="userSpaceOnUse"><stop stop-color="#5BC6B9"/><stop offset="1" stop-color="#BDECE6"/></linearGradient><linearGradient id="bm" x1="557.518" x2="583.668" y1="324.978" y2="324.978" gradientUnits="userSpaceOnUse"><stop stop-color="#5BC6B9"/><stop offset="1" stop-color="#BDECE6"/></linearGradient><linearGradient id="bn" x1="560.36" x2="566.94" y1="318.08" y2="318.08" gradientUnits="userSpaceOnUse"><stop stop-color="#5BC6B9"/><stop offset="1" stop-color="#BDECE6"/></linearGradient><linearGradient id="bo" x1="575.05" x2="581.63" y1="332.26" y2="332.26" gradientUnits="userSpaceOnUse"><stop stop-color="#5BC6B9"/><stop offset="1" stop-color="#BDECE6"/></linearGradient><linearGradient id="bp" x1="587.528" x2="613.678" y1="325.048" y2="325.048" gradientUnits="userSpaceOnUse"><stop stop-color="#5BC6B9"/><stop offset="1" stop-color="#BDECE6"/></linearGradient><linearGradient id="bq" x1="590.36" x2="596.94" y1="318.14" y2="318.14" gradientUnits="userSpaceOnUse"><stop stop-color="#5BC6B9"/><stop offset="1" stop-color="#BDECE6"/></linearGradient><linearGradient id="br" x1="605.05" x2="611.63" y1="332.32" y2="332.32" gradientUnits="userSpaceOnUse"><stop stop-color="#5BC6B9"/><stop offset="1" stop-color="#BDECE6"/></linearGradient><linearGradient id="bs" x1="617.567" x2="643.718" y1="325.108" y2="325.108" gradientUnits="userSpaceOnUse"><stop stop-color="#5BC6B9"/><stop offset="1" stop-color="#BDECE6"/></linearGradient><linearGradient id="bt" x1="620.4" x2="626.99" y1="318.21" y2="318.21" gradientUnits="userSpaceOnUse"><stop stop-color="#5BC6B9"/><stop offset="1" stop-color="#BDECE6"/></linearGradient><linearGradient id="bu" x1="635.09" x2="641.67" y1="332.39" y2="332.39" gradientUnits="userSpaceOnUse"><stop stop-color="#5BC6B9"/><stop offset="1" stop-color="#BDECE6"/></linearGradient><linearGradient id="bv" x1="356.769" x2="382.919" y1="354.378" y2="354.378" gradientUnits="userSpaceOnUse"><stop stop-color="#5BC6B9"/><stop offset="1" stop-color="#BDECE6"/></linearGradient><linearGradient id="bw" x1="359.6" x2="366.18" y1="347.47" y2="347.47" gradientUnits="userSpaceOnUse"><stop stop-color="#5BC6B9"/><stop offset="1" stop-color="#BDECE6"/></linearGradient><linearGradient id="bx" x1="374.29" x2="380.87" y1="361.65" y2="361.65" gradientUnits="userSpaceOnUse"><stop stop-color="#5BC6B9"/><stop offset="1" stop-color="#BDECE6"/></linearGradient><linearGradient id="by" x1="387.139" x2="413.289" y1="354.438" y2="354.438" gradientUnits="userSpaceOnUse"><stop stop-color="#5BC6B9"/><stop offset="1" stop-color="#BDECE6"/></linearGradient><linearGradient id="bz" x1="389.97" x2="396.55" y1="347.54" y2="347.54" gradientUnits="userSpaceOnUse"><stop stop-color="#5BC6B9"/><stop offset="1" stop-color="#BDECE6"/></linearGradient><linearGradient id="bA" x1="404.66" x2="411.24" y1="361.72" y2="361.72" gradientUnits="userSpaceOnUse"><stop stop-color="#5BC6B9"/><stop offset="1" stop-color="#BDECE6"/></linearGradient><linearGradient id="bB" x1="417.139" x2="443.289" y1="354.508" y2="354.508" gradientUnits="userSpaceOnUse"><stop stop-color="#5BC6B9"/><stop offset="1" stop-color="#BDECE6"/></linearGradient><linearGradient id="bC" x1="419.98" x2="426.56" y1="347.61" y2="347.61" gradientUnits="userSpaceOnUse"><stop stop-color="#5BC6B9"/><stop offset="1" stop-color="#BDECE6"/></linearGradient><linearGradient id="bD" x1="434.66" x2="441.25" y1="361.79" y2="361.79" gradientUnits="userSpaceOnUse"><stop stop-color="#5BC6B9"/><stop offset="1" stop-color="#BDECE6"/></linearGradient><linearGradient id="bE" x1="446.998" x2="473.148" y1="354.578" y2="354.578" gradientUnits="userSpaceOnUse"><stop stop-color="#5BC6B9"/><stop offset="1" stop-color="#BDECE6"/></linearGradient><linearGradient id="bF" x1="449.84" x2="456.42" y1="347.67" y2="347.67" gradientUnits="userSpaceOnUse"><stop stop-color="#5BC6B9"/><stop offset="1" stop-color="#BDECE6"/></linearGradient><linearGradient id="bG" x1="464.52" x2="471.1" y1="361.85" y2="361.85" gradientUnits="userSpaceOnUse"><stop stop-color="#5BC6B9"/><stop offset="1" stop-color="#BDECE6"/></linearGradient><linearGradient id="bH" x1="477.008" x2="503.158" y1="354.648" y2="354.648" gradientUnits="userSpaceOnUse"><stop stop-color="#5BC6B9"/><stop offset="1" stop-color="#BDECE6"/></linearGradient><linearGradient id="bI" x1="479.84" x2="486.42" y1="347.74" y2="347.74" gradientUnits="userSpaceOnUse"><stop stop-color="#5BC6B9"/><stop offset="1" stop-color="#BDECE6"/></linearGradient><linearGradient id="bJ" x1="494.53" x2="501.11" y1="361.92" y2="361.92" gradientUnits="userSpaceOnUse"><stop stop-color="#5BC6B9"/><stop offset="1" stop-color="#BDECE6"/></linearGradient><linearGradient id="bK" x1="507.378" x2="533.528" y1="354.708" y2="354.708" gradientUnits="userSpaceOnUse"><stop stop-color="#5BC6B9"/><stop offset="1" stop-color="#BDECE6"/></linearGradient><linearGradient id="bL" x1="510.21" x2="516.79" y1="347.81" y2="347.81" gradientUnits="userSpaceOnUse"><stop stop-color="#5BC6B9"/><stop offset="1" stop-color="#BDECE6"/></linearGradient><linearGradient id="bM" x1="524.9" x2="531.48" y1="361.99" y2="361.99" gradientUnits="userSpaceOnUse"><stop stop-color="#5BC6B9"/><stop offset="1" stop-color="#BDECE6"/></linearGradient><linearGradient id="bN" x1="537.378" x2="563.528" y1="354.778" y2="354.778" gradientUnits="userSpaceOnUse"><stop stop-color="#5BC6B9"/><stop offset="1" stop-color="#BDECE6"/></linearGradient><linearGradient id="bO" x1="540.22" x2="546.8" y1="347.88" y2="347.88" gradientUnits="userSpaceOnUse"><stop stop-color="#5BC6B9"/><stop offset="1" stop-color="#BDECE6"/></linearGradient><linearGradient id="bP" x1="554.9" x2="561.49" y1="362.06" y2="362.06" gradientUnits="userSpaceOnUse"><stop stop-color="#5BC6B9"/><stop offset="1" stop-color="#BDECE6"/></linearGradient><linearGradient id="bQ" x1="567.238" x2="593.388" y1="354.848" y2="354.848" gradientUnits="userSpaceOnUse"><stop stop-color="#5BC6B9"/><stop offset="1" stop-color="#BDECE6"/></linearGradient><linearGradient id="bR" x1="570.08" x2="576.66" y1="347.95" y2="347.95" gradientUnits="userSpaceOnUse"><stop stop-color="#5BC6B9"/><stop offset="1" stop-color="#BDECE6"/></linearGradient><linearGradient id="bS" x1="584.76" x2="591.34" y1="362.12" y2="362.12" gradientUnits="userSpaceOnUse"><stop stop-color="#5BC6B9"/><stop offset="1" stop-color="#BDECE6"/></linearGradient><linearGradient id="bT" x1="597.248" x2="623.398" y1="354.908" y2="354.908" gradientUnits="userSpaceOnUse"><stop stop-color="#5BC6B9"/><stop offset="1" stop-color="#BDECE6"/></linearGradient><linearGradient id="bU" x1="600.08" x2="606.66" y1="348.01" y2="348.01" gradientUnits="userSpaceOnUse"><stop stop-color="#5BC6B9"/><stop offset="1" stop-color="#BDECE6"/></linearGradient><linearGradient id="bV" x1="614.77" x2="621.35" y1="362.19" y2="362.19" gradientUnits="userSpaceOnUse"><stop stop-color="#5BC6B9"/><stop offset="1" stop-color="#BDECE6"/></linearGradient><linearGradient id="bW" x1="288.519" x2="318.369" y1="385.918" y2="385.918" gradientUnits="userSpaceOnUse"><stop stop-color="#86CFBE"/><stop offset="1" stop-color="#56A5A3"/></linearGradient><linearGradient id="bX" x1="291.76" x2="299.27" y1="378.04" y2="378.04" gradientUnits="userSpaceOnUse"><stop stop-color="#86CFBE"/><stop offset="1" stop-color="#56A5A3"/></linearGradient><linearGradient id="bY" x1="308.52" x2="316.03" y1="394.22" y2="394.22" gradientUnits="userSpaceOnUse"><stop stop-color="#86CFBE"/><stop offset="1" stop-color="#56A5A3"/></linearGradient><linearGradient id="bZ" x1="323.739" x2="353.589" y1="385.998" y2="385.998" gradientUnits="userSpaceOnUse"><stop stop-color="#86CFBE"/><stop offset="1" stop-color="#56A5A3"/></linearGradient><linearGradient id="ca" x1="326.98" x2="334.49" y1="378.12" y2="378.12" gradientUnits="userSpaceOnUse"><stop stop-color="#86CFBE"/><stop offset="1" stop-color="#56A5A3"/></linearGradient><linearGradient id="cb" x1="343.74" x2="351.25" y1="394.3" y2="394.3" gradientUnits="userSpaceOnUse"><stop stop-color="#86CFBE"/><stop offset="1" stop-color="#56A5A3"/></linearGradient><linearGradient id="cc" x1="358.729" x2="388.569" y1="386.068" y2="386.068" gradientUnits="userSpaceOnUse"><stop stop-color="#86CFBE"/><stop offset="1" stop-color="#56A5A3"/></linearGradient><linearGradient id="cd" x1="361.96" x2="369.47" y1="378.2" y2="378.2" gradientUnits="userSpaceOnUse"><stop stop-color="#86CFBE"/><stop offset="1" stop-color="#56A5A3"/></linearGradient><linearGradient id="ce" x1="378.73" x2="386.24" y1="394.38" y2="394.38" gradientUnits="userSpaceOnUse"><stop stop-color="#86CFBE"/><stop offset="1" stop-color="#56A5A3"/></linearGradient><linearGradient id="cf" x1="392.978" x2="569.608" y1="386.318" y2="386.318" gradientUnits="userSpaceOnUse"><stop stop-color="#FF7201"/><stop offset="1" stop-color="#FFC30A"/></linearGradient><linearGradient id="cg" x1="396.2" x2="408.62" y1="380.72" y2="380.72" gradientUnits="userSpaceOnUse"><stop stop-color="#FF7201"/><stop offset="1" stop-color="#FFC30A"/></linearGradient><linearGradient id="ch" x1="553.4" x2="565.81" y1="391.84" y2="391.84" gradientUnits="userSpaceOnUse"><stop stop-color="#FF7201"/><stop offset="1" stop-color="#FFC30A"/></linearGradient><linearGradient id="ci" x1="647.607" x2="706.357" y1="325.348" y2="325.348" gradientUnits="userSpaceOnUse"><stop stop-color="#FF7201"/><stop offset="1" stop-color="#FFC30A"/></linearGradient><linearGradient id="cj" x1="650.8" x2="661.51" y1="320" y2="320" gradientUnits="userSpaceOnUse"><stop stop-color="#E39F88"/><stop offset="1" stop-color="#FF417D"/></linearGradient><linearGradient id="ck" x1="692.94" x2="703.12" y1="331.1" y2="331.1" gradientUnits="userSpaceOnUse"><stop stop-color="#E39F88"/><stop offset="1" stop-color="#FF417D"/></linearGradient><linearGradient id="cl" x1="652.077" x2="706.487" y1="267.609" y2="267.609" gradientUnits="userSpaceOnUse"><stop stop-color="#5BC6B9"/><stop offset="1" stop-color="#BDECE6"/></linearGradient><linearGradient id="cm" x1="655.04" x2="664.95" y1="261.87" y2="261.87" gradientUnits="userSpaceOnUse"><stop stop-color="#5BC6B9"/><stop offset="1" stop-color="#BDECE6"/></linearGradient><linearGradient id="cn" x1="694.05" x2="703.48" y1="273.79" y2="273.79" gradientUnits="userSpaceOnUse"><stop stop-color="#5BC6B9"/><stop offset="1" stop-color="#BDECE6"/></linearGradient><linearGradient id="co" x1="627.407" x2="706.277" y1="355.648" y2="355.648" gradientUnits="userSpaceOnUse"><stop stop-color="#5BC6B9"/><stop offset="1" stop-color="#BDECE6"/></linearGradient><linearGradient id="cp" x1="630.86" x2="640.78" y1="349.88" y2="349.88" gradientUnits="userSpaceOnUse"><stop stop-color="#5BC6B9"/><stop offset="1" stop-color="#BDECE6"/></linearGradient><linearGradient id="cq" x1="693.86" x2="703.29" y1="361.86" y2="361.86" gradientUnits="userSpaceOnUse"><stop stop-color="#5BC6B9"/><stop offset="1" stop-color="#BDECE6"/></linearGradient><linearGradient id="cr" x1="664.727" x2="706.407" y1="296.499" y2="296.499" gradientUnits="userSpaceOnUse"><stop stop-color="#5BC6B9"/><stop offset="1" stop-color="#BDECE6"/></linearGradient><linearGradient id="cs" x1="667.73" x2="675.78" y1="289.78" y2="289.78" gradientUnits="userSpaceOnUse"><stop stop-color="#5BC6B9"/><stop offset="1" stop-color="#BDECE6"/></linearGradient><linearGradient id="ct" x1="696.32" x2="703.87" y1="303.64" y2="303.64" gradientUnits="userSpaceOnUse"><stop stop-color="#5BC6B9"/><stop offset="1" stop-color="#BDECE6"/></linearGradient><linearGradient id="cu" x1="288.409" x2="342.819" y1="324.288" y2="324.288" gradientUnits="userSpaceOnUse"><stop stop-color="#FF7201"/><stop offset="1" stop-color="#FFC30A"/></linearGradient><linearGradient id="cv" x1="291.38" x2="301.29" y1="318.85" y2="318.85" gradientUnits="userSpaceOnUse"><stop stop-color="#FF7201"/><stop offset="1" stop-color="#FFC30A"/></linearGradient><linearGradient id="cw" x1="330.4" x2="339.82" y1="330.14" y2="330.14" gradientUnits="userSpaceOnUse"><stop stop-color="#FF7201"/><stop offset="1" stop-color="#FFC30A"/></linearGradient><linearGradient id="cx" x1="288.479" x2="329.179" y1="295.409" y2="295.409" gradientUnits="userSpaceOnUse"><stop stop-color="#FF7201"/><stop offset="1" stop-color="#FFC30A"/></linearGradient><linearGradient id="cy" x1="291.28" x2="299.69" y1="289.25" y2="289.25" gradientUnits="userSpaceOnUse"><stop stop-color="#FF7201"/><stop offset="1" stop-color="#FFC30A"/></linearGradient><linearGradient id="cz" x1="318.9" x2="326.84" y1="301.73" y2="301.73" gradientUnits="userSpaceOnUse"><stop stop-color="#FF7201"/><stop offset="1" stop-color="#FFC30A"/></linearGradient><linearGradient id="cA" x1="288.349" x2="353.999" y1="354.158" y2="354.158" gradientUnits="userSpaceOnUse"><stop stop-color="#FF7201"/><stop offset="1" stop-color="#FFC30A"/></linearGradient><linearGradient id="cB" x1="291.31" x2="301.23" y1="348.69" y2="348.69" gradientUnits="userSpaceOnUse"><stop stop-color="#FF7201"/><stop offset="1" stop-color="#FFC30A"/></linearGradient><linearGradient id="cC" x1="342.07" x2="351.5" y1="360.48" y2="360.48" gradientUnits="userSpaceOnUse"><stop stop-color="#FF7201"/><stop offset="1" stop-color="#FFC30A"/></linearGradient><linearGradient id="cD" x1="574.258" x2="604.098" y1="386.558" y2="386.558" gradientUnits="userSpaceOnUse"><stop stop-color="#86CFBE"/><stop offset="1" stop-color="#56A5A3"/></linearGradient><linearGradient id="cE" x1="577.49" x2="585" y1="378.68" y2="378.68" gradientUnits="userSpaceOnUse"><stop stop-color="#86CFBE"/><stop offset="1" stop-color="#56A5A3"/></linearGradient><linearGradient id="cF" x1="594.26" x2="601.77" y1="394.86" y2="394.86" gradientUnits="userSpaceOnUse"><stop stop-color="#86CFBE"/><stop offset="1" stop-color="#56A5A3"/></linearGradient><linearGradient id="cG" x1="608.497" x2="638.347" y1="386.638" y2="386.638" gradientUnits="userSpaceOnUse"><stop stop-color="#86CFBE"/><stop offset="1" stop-color="#56A5A3"/></linearGradient><linearGradient id="cH" x1="611.74" x2="619.25" y1="378.76" y2="378.76" gradientUnits="userSpaceOnUse"><stop stop-color="#86CFBE"/><stop offset="1" stop-color="#56A5A3"/></linearGradient><linearGradient id="cI" x1="628.5" x2="636.01" y1="394.94" y2="394.94" gradientUnits="userSpaceOnUse"><stop stop-color="#86CFBE"/><stop offset="1" stop-color="#56A5A3"/></linearGradient><linearGradient id="cJ" x1="642.507" x2="672.347" y1="386.708" y2="386.708" gradientUnits="userSpaceOnUse"><stop stop-color="#86CFBE"/><stop offset="1" stop-color="#56A5A3"/></linearGradient><linearGradient id="cK" x1="645.74" x2="653.25" y1="378.83" y2="378.83" gradientUnits="userSpaceOnUse"><stop stop-color="#86CFBE"/><stop offset="1" stop-color="#56A5A3"/></linearGradient><linearGradient id="cL" x1="662.5" x2="670.01" y1="395.01" y2="395.01" gradientUnits="userSpaceOnUse"><stop stop-color="#86CFBE"/><stop offset="1" stop-color="#56A5A3"/></linearGradient><linearGradient id="cM" x1="676.747" x2="706.597" y1="386.788" y2="386.788" gradientUnits="userSpaceOnUse"><stop stop-color="#86CFBE"/><stop offset="1" stop-color="#56A5A3"/></linearGradient><linearGradient id="cN" x1="679.99" x2="687.5" y1="378.91" y2="378.91" gradientUnits="userSpaceOnUse"><stop stop-color="#86CFBE"/><stop offset="1" stop-color="#56A5A3"/></linearGradient><linearGradient id="cO" x1="696.75" x2="704.26" y1="395.09" y2="395.09" gradientUnits="userSpaceOnUse"><stop stop-color="#86CFBE"/><stop offset="1" stop-color="#56A5A3"/></linearGradient><linearGradient id="cP" x1="423.219" x2="448.229" y1="232.609" y2="232.609" gradientUnits="userSpaceOnUse"><stop stop-color="#86CFBE"/><stop offset="1" stop-color="#56A5A3"/></linearGradient><linearGradient id="cQ" x1="425.92" x2="432.21" y1="226.01" y2="226.01" gradientUnits="userSpaceOnUse"><stop stop-color="#86CFBE"/><stop offset="1" stop-color="#56A5A3"/></linearGradient><linearGradient id="cR" x1="439.97" x2="446.26" y1="239.57" y2="239.57" gradientUnits="userSpaceOnUse"><stop stop-color="#86CFBE"/><stop offset="1" stop-color="#56A5A3"/></linearGradient><linearGradient id="cS" x1="597.108" x2="622.118" y1="232.999" y2="232.999" gradientUnits="userSpaceOnUse"><stop stop-color="#86CFBE"/><stop offset="1" stop-color="#56A5A3"/></linearGradient><linearGradient id="cT" x1="599.82" x2="606.12" y1="226.4" y2="226.4" gradientUnits="userSpaceOnUse"><stop stop-color="#86CFBE"/><stop offset="1" stop-color="#56A5A3"/></linearGradient><linearGradient id="cU" x1="613.87" x2="620.16" y1="239.96" y2="239.96" gradientUnits="userSpaceOnUse"><stop stop-color="#86CFBE"/><stop offset="1" stop-color="#56A5A3"/></linearGradient><linearGradient id="cV" x1="625.807" x2="650.807" y1="233.069" y2="233.069" gradientUnits="userSpaceOnUse"><stop stop-color="#86CFBE"/><stop offset="1" stop-color="#56A5A3"/></linearGradient><linearGradient id="cW" x1="628.52" x2="634.81" y1="226.47" y2="226.47" gradientUnits="userSpaceOnUse"><stop stop-color="#86CFBE"/><stop offset="1" stop-color="#56A5A3"/></linearGradient><linearGradient id="cX" x1="642.56" x2="648.86" y1="240.02" y2="240.02" gradientUnits="userSpaceOnUse"><stop stop-color="#86CFBE"/><stop offset="1" stop-color="#56A5A3"/></linearGradient><linearGradient id="cY" x1="654.297" x2="679.307" y1="233.129" y2="233.129" gradientUnits="userSpaceOnUse"><stop stop-color="#86CFBE"/><stop offset="1" stop-color="#56A5A3"/></linearGradient><linearGradient id="cZ" x1="657.01" x2="663.31" y1="226.53" y2="226.53" gradientUnits="userSpaceOnUse"><stop stop-color="#86CFBE"/><stop offset="1" stop-color="#56A5A3"/></linearGradient><linearGradient id="da" x1="671.06" x2="677.35" y1="240.09" y2="240.09" gradientUnits="userSpaceOnUse"><stop stop-color="#86CFBE"/><stop offset="1" stop-color="#56A5A3"/></linearGradient><linearGradient id="db" x1="682.527" x2="707.527" y1="233.189" y2="233.189" gradientUnits="userSpaceOnUse"><stop stop-color="#86CFBE"/><stop offset="1" stop-color="#56A5A3"/></linearGradient><linearGradient id="dc" x1="685.24" x2="691.53" y1="226.59" y2="226.59" gradientUnits="userSpaceOnUse"><stop stop-color="#86CFBE"/><stop offset="1" stop-color="#56A5A3"/></linearGradient><linearGradient id="dd" x1="699.28" x2="705.57" y1="240.15" y2="240.15" gradientUnits="userSpaceOnUse"><stop stop-color="#86CFBE"/><stop offset="1" stop-color="#56A5A3"/></linearGradient><linearGradient id="de" x1="716.777" x2="741.777" y1="233.269" y2="233.269" gradientUnits="userSpaceOnUse"><stop stop-color="#5BC6B9"/><stop offset="1" stop-color="#BDECE6"/></linearGradient><linearGradient id="df" x1="719.49" x2="725.78" y1="226.67" y2="226.67" gradientUnits="userSpaceOnUse"><stop stop-color="#5BC6B9"/><stop offset="1" stop-color="#BDECE6"/></linearGradient><linearGradient id="dg" x1="733.53" x2="739.82" y1="240.23" y2="240.23" gradientUnits="userSpaceOnUse"><stop stop-color="#5BC6B9"/><stop offset="1" stop-color="#BDECE6"/></linearGradient><linearGradient id="dh" x1="745.147" x2="770.157" y1="233.329" y2="233.329" gradientUnits="userSpaceOnUse"><stop stop-color="#5BC6B9"/><stop offset="1" stop-color="#BDECE6"/></linearGradient><linearGradient id="di" x1="747.86" x2="754.16" y1="226.73" y2="226.73" gradientUnits="userSpaceOnUse"><stop stop-color="#5BC6B9"/><stop offset="1" stop-color="#BDECE6"/></linearGradient><linearGradient id="dj" x1="761.91" x2="768.2" y1="240.29" y2="240.29" gradientUnits="userSpaceOnUse"><stop stop-color="#5BC6B9"/><stop offset="1" stop-color="#BDECE6"/></linearGradient><linearGradient id="dk" x1="774.017" x2="799.027" y1="233.399" y2="233.399" gradientUnits="userSpaceOnUse"><stop stop-color="#5BC6B9"/><stop offset="1" stop-color="#BDECE6"/></linearGradient><linearGradient id="dl" x1="776.73" x2="783.02" y1="226.8" y2="226.8" gradientUnits="userSpaceOnUse"><stop stop-color="#5BC6B9"/><stop offset="1" stop-color="#BDECE6"/></linearGradient><linearGradient id="dm" x1="790.78" x2="797.07" y1="240.36" y2="240.36" gradientUnits="userSpaceOnUse"><stop stop-color="#5BC6B9"/><stop offset="1" stop-color="#BDECE6"/></linearGradient><linearGradient id="dn" x1="716.697" x2="741.707" y1="266.539" y2="266.539" gradientUnits="userSpaceOnUse"><stop stop-color="#5BC6B9"/><stop offset="1" stop-color="#BDECE6"/></linearGradient><linearGradient id="do" x1="719.41" x2="725.7" y1="259.94" y2="259.94" gradientUnits="userSpaceOnUse"><stop stop-color="#5BC6B9"/><stop offset="1" stop-color="#BDECE6"/></linearGradient><linearGradient id="dp" x1="733.46" x2="739.75" y1="273.5" y2="273.5" gradientUnits="userSpaceOnUse"><stop stop-color="#5BC6B9"/><stop offset="1" stop-color="#BDECE6"/></linearGradient><linearGradient id="dq" x1="745.077" x2="770.077" y1="266.599" y2="266.599" gradientUnits="userSpaceOnUse"><stop stop-color="#5BC6B9"/><stop offset="1" stop-color="#BDECE6"/></linearGradient><linearGradient id="dr" x1="747.79" x2="754.08" y1="260" y2="260" gradientUnits="userSpaceOnUse"><stop stop-color="#5BC6B9"/><stop offset="1" stop-color="#BDECE6"/></linearGradient><linearGradient id="ds" x1="761.83" x2="768.13" y1="273.56" y2="273.56" gradientUnits="userSpaceOnUse"><stop stop-color="#5BC6B9"/><stop offset="1" stop-color="#BDECE6"/></linearGradient><linearGradient id="dt" x1="773.947" x2="798.947" y1="266.669" y2="266.669" gradientUnits="userSpaceOnUse"><stop stop-color="#5BC6B9"/><stop offset="1" stop-color="#BDECE6"/></linearGradient><linearGradient id="du" x1="776.66" x2="782.95" y1="260.07" y2="260.07" gradientUnits="userSpaceOnUse"><stop stop-color="#5BC6B9"/><stop offset="1" stop-color="#BDECE6"/></linearGradient><linearGradient id="dv" x1="790.7" x2="796.99" y1="273.63" y2="273.63" gradientUnits="userSpaceOnUse"><stop stop-color="#5BC6B9"/><stop offset="1" stop-color="#BDECE6"/></linearGradient><linearGradient id="dw" x1="773.877" x2="798.887" y1="295.539" y2="295.539" gradientUnits="userSpaceOnUse"><stop stop-color="#5BC6B9"/><stop offset="1" stop-color="#BDECE6"/></linearGradient><linearGradient id="dx" x1="776.59" x2="782.88" y1="288.94" y2="288.94" gradientUnits="userSpaceOnUse"><stop stop-color="#5BC6B9"/><stop offset="1" stop-color="#BDECE6"/></linearGradient><linearGradient id="dy" x1="790.64" x2="796.93" y1="302.5" y2="302.5" gradientUnits="userSpaceOnUse"><stop stop-color="#5BC6B9"/><stop offset="1" stop-color="#BDECE6"/></linearGradient><linearGradient id="dz" x1="717.117" x2="770.017" y1="295.439" y2="295.439" gradientUnits="userSpaceOnUse"><stop stop-color="#5BC6B9"/><stop offset="1" stop-color="#BDECE6"/></linearGradient><linearGradient id="dA" x1="719.84" x2="726.13" y1="288.81" y2="288.81" gradientUnits="userSpaceOnUse"><stop stop-color="#5BC6B9"/><stop offset="1" stop-color="#BDECE6"/></linearGradient><linearGradient id="dB" x1="761.28" x2="767.57" y1="302.43" y2="302.43" gradientUnits="userSpaceOnUse"><stop stop-color="#5BC6B9"/><stop offset="1" stop-color="#BDECE6"/></linearGradient></defs></svg>
