<svg xmlns="http://www.w3.org/2000/svg" xml:space="preserve" id="Layer_1" x="0" y="0" viewBox="0 0 1441 811"><style>.st1{enable-background:new}.st2{fill:#fff}</style><g id="Layer_2_00000152233169093395160100000017677048398435417737_"><linearGradient id="SVGID_1_" x1="10160.91" x2="11626.91" y1="3840.59" y2="3840.59" gradientTransform="matrix(1 0 0 -1 -10173.79 4247.51)" gradientUnits="userSpaceOnUse"><stop offset="0" style="stop-color:#6500d4"/><stop offset="1" style="stop-color:#b071ff"/></linearGradient><path d="M1453.1-11.1h-1466v836h1466z" style="fill:url(#SVGID_1_)"/></g><g id="Layer_1_00000008143200069330841160000011753836244797318027_"><g class="st1"><path d="M104 328.5h9.4l7.8 47.1h1.7l10.4-47h10.4l10.4 47h1.8l7.8-47.1h9.4l-10.8 54.8H148l-9.4-43.9-9.4 43.9h-14.4z" class="st2"/></g><g class="st1"><path d="M188.9 383.3h-8.7v-56.6h8.7v18.7c3.9-2 7.6-3 11-3 5.3 0 9 1.5 10.9 4.5s2.9 8 2.9 14.9v21.4H205V362c0-4.3-.5-7.4-1.4-9.2s-2.8-2.7-5.8-2.7c-2.6 0-5.1.4-7.7 1.3l-1.3.5v31.4z" class="st2"/></g><g class="st1"><path d="M219.8 343.3h8.6l8.5 32.6h2.2l8.5-32.6h8.6L241 400.5h-8.6l4.8-17.2h-6.9zM290 365.8c0 7.1 3.7 10.6 11.2 10.6s11.2-3.5 11.2-10.6v-37.3h9v37.1q0 9.75-5.1 14.1c-3.4 3-8.4 4.4-15.1 4.4s-11.7-1.5-15.1-4.4c-3.4-3-5-7.7-5-14.1v-37.1h9v37.3zM349.6 335.4c-6.8 0-10.2 2.4-10.2 7.1 0 2.5.8 4.2 2.4 5.2s5.1 2.3 10.6 3.8 9.3 3.3 11.6 5.4c2.2 2.1 3.4 5.4 3.4 10 0 5.8-1.6 10.1-4.9 12.9-3.3 2.9-7.7 4.3-13.4 4.3-4.5 0-9.5-.5-15-1.6l-2.9-.6.9-7.1c7.2 1 12.7 1.4 16.5 1.4 6.6 0 9.9-2.9 9.9-8.8 0-2.3-.7-4-2.2-5.1s-4.9-2.3-10.1-3.6q-7.8-1.95-11.7-5.4c-2.6-2.3-3.8-5.9-3.8-10.9s1.6-8.7 4.8-11.2 7.7-3.8 13.4-3.8c4.1 0 9 .5 14.6 1.4l2.8.5-.7 7.2c-7.7-.7-12.9-1.1-16-1.1" class="st2"/></g><g class="st1"><path d="M414.6 366.2h-11.2v17h-8.9v-54.8h20.1c12.4 0 18.6 6.1 18.6 18.4 0 6.3-1.6 11.1-4.7 14.4-3.1 3.4-7.7 5-13.9 5m-11.2-7.6h11.1q9.6 0 9.6-11.7c0-3.7-.8-6.5-2.3-8.2s-4-2.6-7.3-2.6h-11.1z" class="st2"/></g><g class="st1"><path d="M470 355.6v18.2c.1 1.2.4 2 .9 2.6.6.6 1.4.9 2.6 1.1l-.2 6.6c-4.6 0-8.1-1-10.6-3q-6.45 3-12.9 3c-7.9 0-11.9-4.2-11.9-12.7 0-4.1 1.1-7 3.2-8.8 2.2-1.8 5.5-2.9 10-3.3l10.3-.9v-2.9c0-2.1-.5-3.6-1.4-4.5s-2.3-1.3-4.1-1.3c-3.4 0-7.7.2-12.8.6l-2.6.2-.3-6.2c5.8-1.4 11.2-2.1 16-2.1s8.4 1.1 10.6 3.2c2.1 2.3 3.2 5.6 3.2 10.2m-18 9.9c-3.7.3-5.5 2.3-5.5 6s1.6 5.5 4.9 5.5c2.7 0 5.5-.4 8.5-1.3l1.4-.5v-10.6z" class="st2"/></g><g class="st1"><path d="M476.8 343.3h8.6l8.5 32.6h2.2l8.5-32.6h8.6L498 400.5h-8.6l4.8-17.2h-6.9zM528.5 383.3h-8.7v-40h8.6v2.5c3.8-2.2 7.3-3.4 10.4-3.4q6.9 0 10.2 3.9c4.9-2.6 9.7-3.9 14.5-3.9s8.2 1.5 10.2 4.4q3 4.5 3 15v21.4H568V362c0-4.3-.4-7.4-1.3-9.2s-2.7-2.7-5.5-2.7c-2.4 0-5 .5-7.8 1.6l-1.4.6q.6 1.65.6 10.2v20.7H544v-20.6c0-4.7-.4-8-1.3-9.8s-2.7-2.7-5.6-2.7c-2.7 0-5.1.5-7.4 1.6l-1.2.5zM615.3 376.1l2.2-.2.2 6.5q-9.15 1.8-16.2 1.8c-5.9 0-10.2-1.6-12.8-4.9q-3.9-4.95-3.9-15.6 0-21.3 17.4-21.3 16.8 0 16.8 18.3l-.6 6.2h-24.8c.1 3.3.8 5.7 2.2 7.3 1.4 1.5 4 2.3 7.8 2.3 3.8.1 7.7-.1 11.7-.4m-4.8-15.9c0-3.9-.6-6.7-1.9-8.3s-3.4-2.4-6.4-2.4-5.2.8-6.5 2.5c-1.4 1.7-2.1 4.4-2.1 8.2zM636.2 383.3h-8.7v-40h8.6v2.5c3.9-2.2 7.6-3.4 11-3.4 5.3 0 9 1.5 10.9 4.5s2.9 8 2.9 14.9v21.4h-8.6V362c0-4.3-.5-7.4-1.4-9.2q-1.35-2.7-5.7-2.7c-2.7 0-5.3.5-7.8 1.6l-1.2.5zM692.7 350.7h-11v17.6c0 3.3.2 5.4.7 6.5s1.7 1.6 3.7 1.6l6.6-.2.4 7c-3.6.7-6.3 1-8.2 1-4.5 0-7.6-1-9.3-3.1s-2.5-6-2.5-11.8v-18.6H668v-7.4h5.1v-11.6h8.6v11.6h11zM727.6 351.5c-6.3-.9-10.9-1.3-13.7-1.3s-4.8.3-5.9 1-1.6 1.7-1.6 3.2c0 1.4.6 2.5 1.8 3 1.2.6 4 1.3 8.5 2 4.5.8 7.6 2 9.5 3.6 1.9 1.7 2.8 4.6 2.8 8.8s-1.3 7.3-4 9.3-6.6 3-11.8 3c-3.3 0-7.4-.5-12.3-1.4l-2.5-.4.3-7.3c6.4.9 11 1.3 13.8 1.3s4.8-.3 6-1 1.8-1.8 1.8-3.4-.6-2.7-1.7-3.3-3.9-1.3-8.2-2-7.5-1.9-9.6-3.4c-2-1.5-3-4.4-3-8.5s1.4-7.2 4.2-9.2q4.2-3 10.8-3c3.4 0 7.6.4 12.6 1.3l2.5.5z" class="st2"/></g><g class="st1"><path d="M108.4 483.3v-54.8h34v7.8h-25.1v18.5h20.9v7.8h-20.9v20.8h-8.9z" class="st2"/></g><g class="st1"><path d="m176.8 476.1 2.2-.2.2 6.5q-9.15 1.8-16.2 1.8c-5.9 0-10.2-1.6-12.8-4.9q-3.9-4.95-3.9-15.6 0-21.3 17.4-21.3 16.8 0 16.8 18.3l-.6 6.2h-24.8c.1 3.3.8 5.7 2.2 7.3 1.4 1.5 4 2.3 7.8 2.3s7.7-.1 11.7-.4m-4.8-15.9c0-3.9-.6-6.7-1.9-8.3s-3.4-2.4-6.4-2.4-5.2.8-6.5 2.5c-1.4 1.7-2.1 4.4-2.1 8.2zM217.4 476.1l2.2-.2.2 6.5q-9.15 1.8-16.2 1.8c-5.9 0-10.2-1.6-12.8-4.9q-3.9-4.95-3.9-15.6 0-21.3 17.4-21.3 16.8 0 16.8 18.3l-.6 6.2h-24.8c.1 3.3.8 5.7 2.2 7.3 1.4 1.5 4 2.3 7.8 2.3s7.7-.1 11.7-.4m-4.8-15.9c0-3.9-.6-6.7-1.9-8.3s-3.4-2.4-6.4-2.4-5.2.8-6.5 2.5c-1.4 1.7-2.1 4.4-2.1 8.2zM230 483.3v-56.6h8.7v56.6zM268.4 428.5h20.8c5.6 0 9.8 1.1 12.6 3.4q4.2 3.45 4.2 10.8c0 3.3-.5 5.8-1.6 7.7-1 1.9-2.7 3.4-4.9 4.6 5.2 2 7.8 6.3 7.8 12.7 0 10.3-5.8 15.5-17.4 15.5h-21.4v-54.7zm20.4 7.6h-11.4v15.7h11.8q7.8 0 7.8-8.1c-.1-5-2.8-7.6-8.2-7.6m.4 23.2h-11.9v16.2h12.1q4.35 0 6.6-1.8c2.25-1.8 2.2-3.3 2.2-6.3s-.9-5.1-2.6-6.3-3.8-1.8-6.4-1.8" class="st2"/></g><g class="st1"><path d="M316.4 483.3v-40h8.6v4.8c4.5-2.9 9.1-4.8 13.6-5.7v8.7c-4.6.9-8.5 2.1-11.8 3.5l-1.8.7v27.9h-8.6z" class="st2"/></g><g class="st1"><path d="M347.1 447.6c2.7-3.5 7.3-5.2 13.7-5.2s11 1.7 13.7 5.2 4.1 8.7 4.1 15.6-1.3 12.2-4 15.7-7.3 5.3-13.8 5.3c-6.6 0-11.2-1.8-13.8-5.3-2.7-3.5-4-8.7-4-15.7 0-6.9 1.4-12.1 4.1-15.6m6.5 26c1.2 2.1 3.6 3.2 7.2 3.2s6-1.1 7.2-3.2q1.8-3.15 1.8-10.5c0-4.9-.7-8.3-2-10.3s-3.7-3-7.1-3-5.8 1-7.1 3-2 5.5-2 10.3c.2 4.9.8 8.4 2 10.5" class="st2"/></g><g class="st1"><path d="M396 483.3h-8.7v-56.6h8.7v32.7l5-.5 9.4-15.6h9.8L408.7 462l12.2 21.3H411l-9.8-16.9-5.2.6z" class="st2"/></g><g class="st1"><path d="m454.8 476.1 2.2-.2.2 6.5q-9.15 1.8-16.2 1.8c-5.9 0-10.2-1.6-12.8-4.9q-3.9-4.95-3.9-15.6 0-21.3 17.4-21.3 16.8 0 16.8 18.3l-.6 6.2h-24.8c.1 3.3.8 5.7 2.2 7.3 1.4 1.5 4 2.3 7.8 2.3 3.9 0 7.7-.1 11.7-.4m-4.8-15.9c0-3.9-.6-6.7-1.9-8.3s-3.4-2.4-6.4-2.4-5.2.8-6.5 2.5c-1.4 1.7-2.1 4.4-2.1 8.2zM475.7 483.3H467v-40h8.6v2.5c3.9-2.2 7.6-3.4 11-3.4 5.3 0 9 1.5 10.9 4.5s2.9 8 2.9 14.9v21.4h-8.6V462c0-4.3-.5-7.4-1.4-9.2q-1.35-2.7-5.7-2.7c-2.7 0-5.3.5-7.8 1.6l-1.2.5z" class="st2"/></g><g style="opacity:.3"><path d="M1189.3 819.1c-85.6-42.2-156.5-108-201.2-190-75.7-53.4-134.2-131.7-164-221.1-13.7 43.5-21 92-21 139.2 0 110.5 41 209.9 108.1 286.9 23.5 26.1 49.6 50.9 78.2 70.8 72.1 50.9 160.2 80.7 255.9 80.7 51 0 99.3-8.7 145.3-24.8-80.7-27.5-150.3-77.2-201.3-141.7" style="fill:#805280"/><path d="M1188.3 818.5c60.9 28.6 129 45.3 200.9 45.3s139.1-17.4 199.9-47.2c-70.8-16.1-138.8-41.5-200.9-75.1-63.9 34-129 59.6-199.9 77" style="fill:#90abc9"/><path d="M1949.4 403c14.9 43.5 22.4 89.4 22.4 137.8 0 110.5-38.5 211.1-105.5 288.1-22.4 27.3-48.5 50.9-77.1 72-72.1 52.2-160.2 83.2-254.6 83.2-50.8 0-99.3-8.7-145.3-23.6 79.5-28.6 147.8-78.2 198.7-144 84.5-42.2 154-109.3 198.7-191.2 75.8-55.9 132.8-132.9 162.7-222.3" style="fill:#56a4a2"/><path d="M1713.4 404.3c-11.1 22.4-23.5 44.7-37.2 65.8-57.2 90.7-133 168.9-222.3 229.8-21.1 14.9-43.5 28.6-65.9 41 62.1 33.5 129.1 58.4 199.9 74.5 84.5-42.2 154-109.3 198.7-191.2-12.4-78.4-38.5-151.6-73.2-219.9" style="fill:#85cebd"/><path d="M983.2 188.2c46-85.7 116.8-154 202.4-196.2 50.9-64.6 119.3-114.2 197.5-141.6-46-16.2-94.3-23.6-145.3-23.6-96.9 0-185 32.3-257.1 85.7-26.1 18.6-50.8 41-72 65.8-68.3 78.2-109.4 180.1-108.1 291.9 0 48.4 9.9 94.3 23.5 137.8C854 318.5 910 241.6 983.2 188.2" style="fill:#ff7a7f"/><path d="M987.1 628.9c-36-65.8-57.3-141.5-57.3-222.2s19.8-154 54.5-219.8C910 241.6 854 318.6 824.2 408c29.8 90.6 88.5 167.5 162.9 220.9" style="fill:#d5666d"/><path d="M984.4 186.9c-36 65.8-54.5 140.3-54.5 219.8s20 156.6 57.3 221.2c13.7-78.2 39.5-152.9 73.1-221.2-36.1-67-62.2-141.5-75.9-219.8" style="fill:#ff939f"/><path d="M1322.2 701.1c-89.3-59.6-166.4-137.9-224.7-228.5-13.7-21.1-26.1-43.5-38.5-65.8-34.8 68.3-59.7 142.8-72.1 221 46 82 117.1 149.7 201.5 190.7 0 0 .8-1 2-1 70.8-17.4 136.8-43.2 197.7-76.7-22.4-11.2-44.8-24.8-65.9-39.7" style="fill:#ffbebe"/><path d="M1383.1-149.6c46-16.1 94.4-24.8 145.3-24.8 96.9 0 186.3 29.8 259.6 83.2 26.1 18.6 49.7 41 72.1 64.6 68.2 77 110.5 178.8 111.7 290.6 0 48.4-7.5 94.4-21.1 137.9-29.8-89.4-86.9-165.2-162.7-218.6-46-84.6-118-151.6-205-192.6-52.2-64.6-120.4-113-199.9-140.3" style="fill:#68ae80"/><path d="M1384.3 67.7c60.9-34.8 128-60.9 197.5-77-59.7-28.6-127.9-44.7-198.7-43.5-70.7 0-137.8 17.4-197.5 46 70.8 16.1 137.8 41 198.7 74.5" style="fill:#ffa680"/><path d="M1384.3 67.7c23.6 12.4 46 26.1 68.3 41 88.1 60.9 163.9 137.9 222.3 228.5 13.7 21.1 26.1 43.5 38.4 67.1 34.8-68.3 59.7-142.8 73.3-221.1-46-84.4-117.9-151.5-204.9-192.5-69.4 16.2-135.3 43.5-197.4 77" style="fill:#b2d08e"/><path d="M1060.2 408c11.2-22.4 23.6-44.7 37.3-67.1 57-90.7 131.6-170.1 219.8-231 21-14.9 44.6-28.6 67-42.2-62-33.5-127.9-59.6-198.7-75.8-85.6 42.2-156.4 110.5-201.2 195 13.7 78.2 39.8 152.8 75.8 221.1" style="fill:#dcb795"/><path d="M1452.7 108.7c-22.4-14.9-44.7-28.6-68.3-41-23.6 12.4-46 27.3-67 42.2-88.2 60.9-162.8 140.3-219.8 231-13.7 21.1-26.1 43.5-37.3 67.1 11.2 22.4 24.9 44.7 38.5 65.8 58.3 90.7 135.3 168.9 224.8 228.5 21 14.9 42.4 26.8 64.8 39.2 22.4-12.4 45.7-25.5 66.8-40.4 88.1-60.9 163.9-139.1 222.3-229.8 13.7-21.1 26.1-43.5 37.2-65.8-11.1-22.4-24.7-44.7-38.4-67.1-59.7-90.6-135.5-168.9-223.6-229.7" class="st2"/></g></g></svg>