<svg xmlns="http://www.w3.org/2000/svg" xml:space="preserve" id="Layer_1" x="0" y="0" viewBox="0 0 350 352"><style>.st14{fill:#fff}.st15{enable-background:new}</style><g id="Layer_2_00000070086370347320240840000013833130535225580471_"><linearGradient id="SVGID_1_" x1="10161.91" x2="10536.91" y1="3609.09" y2="3609.09" gradientTransform="matrix(1 0 0 -1 -10173.79 3787.51)" gradientUnits="userSpaceOnUse"><stop offset="0" style="stop-color:#6500d4"/><stop offset="1" style="stop-color:#b071ff"/></linearGradient><path d="M363.1-9.1h-375v375h375z" style="fill:url(#SVGID_1_)"/></g><g id="Layer_1_00000038411602217889764450000003701495916065753487_"><g style="opacity:.3"><path d="M-10.5 87.7C8.4 49.3 38 17.5 74.7-2.5c24-33.9 59.1-60.2 99.2-73.6-19.5-6.1-41.2-9.4-62.4-9.4-49.6 0-94.1 18.4-128.7 48.5C-28.9-26.5-40-14.8-48.9-2c-22.8 32.3-36.2 71.8-36.2 114.8 0 22.9 3.9 44.5 11.1 65.2 12.3-36.2 34.6-67.4 63.5-90.3" style="fill:#805280"/><path d="M-10.2 87.3c-12.8 27.3-20.3 57.9-20.3 90.1s7.8 62.4 21.2 89.7c7.2-31.8 18.6-62.2 33.7-90.1-15.3-28.7-26.8-57.9-34.6-89.7" style="fill:#90abc9"/><path d="M176.1 428.6c-19.5 6.7-40.1 10-61.8 10-49.6 0-94.7-17.3-129.2-47.3-12.3-10-22.8-21.7-32.3-34.6-23.4-32.3-37.3-71.8-37.3-114.2 0-22.8 3.9-44.5 10.6-65.1 12.8 35.7 35.1 66.3 64.6 89.1 18.9 37.9 49 69.1 85.8 89.1 24.9 34 59.5 59.6 99.6 73" style="fill:#56a4a2"/><path d="M77 356.2c29.5 16.2 63.5 25.1 99.7 25.1s69.1-9.5 98-25.6c-35.1-6.1-68.5-17.3-99.1-32.9-30.7 15.6-63.5 27.3-98.6 33.4" style="fill:#80c1ab"/><path d="M175.6 322.8c-10-5-20.1-10.5-29.5-16.7-40.7-25.6-75.8-59.6-103.1-99.7-6.7-9.5-12.8-19.5-18.4-29.5-15 27.9-26.2 57.9-33.4 89.7 18.9 37.9 49 69.1 85.8 89.1 35.1-5.6 67.9-17.3 98.6-32.9" style="fill:#85cebd"/><path d="M272.5-4.8c38.4 20.6 69.1 52.4 88 90.8 29 22.8 51.2 53.5 63.5 88.6 7.2-20.6 10.6-42.3 10.6-65.2 0-43.5-14.5-83-38.4-115.3-8.4-11.7-18.4-22.8-29.5-32.3-35.1-30.7-80.8-49-130.9-48.5-21.7 0-42.3 4.4-61.8 10.6 40 13.4 74.5 38.5 98.5 71.3" style="fill:#ff7a7f"/><path d="M273-4.2c-29.5-16.2-62.9-24.5-98.6-24.5s-70.2 9-99.2 25.7c35.1 6.1 68.6 17.7 99.2 32.8 30.1-16.2 63.5-27.9 98.6-34" style="fill:#ff939f"/><path d="M42.4 147.3c26.7-40.1 61.8-74.6 102.5-100.8 9.5-6.1 19.5-11.7 29.5-17.3-30.6-15.6-64-26.7-99.1-32.3C38.5 17.5 8.1 49.4-10.2 87.3c0 0 .4.3.4.9C-2 120 9.6 149.5 24.6 176.9c5-10.1 11.2-20.1 17.8-29.6" style="fill:#ffbebe"/><path d="M424 174.6c7.2 20.6 11.1 42.4 11.1 65.2 0 43.5-13.4 83.5-37.3 116.4-8.4 11.7-18.4 22.3-29 32.3-34.5 30.6-80.2 49.5-130.3 50.1-21.7 0-42.3-3.3-61.8-9.5 40.1-13.4 74.1-39 98-73 37.9-20.6 68-52.9 86.3-91.9 29-23.3 50.7-53.9 63-89.6" style="fill:#68ae80"/><path d="M326.5 175.2c15.6 27.3 27.3 57.4 34.5 88.6 12.8-26.8 20-57.4 19.5-89.1 0-31.7-7.8-61.8-20.6-88.6-7.2 31.7-18.4 61.8-33.4 89.1" style="fill:#ffa680"/><path d="M326.5 175.2c-5.6 10.6-11.7 20.6-18.4 30.7-27.3 39.5-61.8 73.5-102.5 99.7-9.5 6.1-19.5 11.7-30.1 17.2 30.6 15.6 64.1 26.8 99.2 32.9 37.9-20.6 68-52.9 86.3-91.9-7.2-31.2-19.4-60.7-34.5-88.6" style="fill:#b2d08e"/><path d="M173.9 29.8c10 5 20.1 10.6 30.1 16.7 40.7 25.6 76.3 59 103.6 98.6 6.7 9.4 12.8 20 18.9 30 15-27.8 26.7-57.3 34-89.1-18.9-38.3-49.6-70.1-87.5-90.2-35 6.1-68.5 17.9-99.1 34" style="fill:#dcb795"/><path d="M308.1 205.8c6.7-10 12.8-20.1 18.4-30.7-5.6-10.6-12.2-20.6-18.9-30-27.3-39.6-62.9-73-103.6-98.6-9.5-6.1-19.5-11.7-30.1-16.7-10 5-20.1 11.1-29.5 17.3-40.7 26.1-75.8 60.7-102.5 100.8-6.7 9.4-12 19-17.6 29.1 5.6 10 11.5 20.5 18.1 30 27.3 39.5 62.4 73.5 103 99.7 9.5 6.1 19.5 11.7 29.5 16.7 10-5 20.1-11.1 30.1-17.2 40.8-26.9 75.9-60.9 103.1-100.4" class="st14"/></g><g class="st15"><path d="M108.8 111.3h4.7l3.9 23.6h.8l5.2-23.5h5.2l5.2 23.5h.9l3.9-23.6h4.7l-5.4 27.4h-7.2l-4.7-22-4.7 22h-7.2z" class="st14"/></g><g class="st15"><path d="M151.3 138.7h-4.4v-28.3h4.4v9.4c2-1 3.8-1.5 5.5-1.5 2.7 0 4.5.8 5.5 2.3q1.5 2.25 1.5 7.5v10.7h-4.4v-10.6c0-2.2-.2-3.7-.7-4.6s-1.4-1.4-2.9-1.4c-1.3 0-2.6.2-3.8.6l-.6.2v15.7z" class="st14"/></g><g class="st15"><path d="M166.7 118.7h4.3l4.2 16.3h1.1l4.2-16.3h4.3l-7.6 28.6H173l2.4-8.6H172zM201.8 129.9c0 3.5 1.9 5.3 5.6 5.3s5.6-1.8 5.6-5.3v-18.6h4.5v18.6c0 3.2-.8 5.6-2.5 7.1s-4.2 2.2-7.6 2.2c-3.3 0-5.9-.7-7.5-2.2-1.7-1.5-2.5-3.8-2.5-7.1v-18.6h4.5v18.6zM231.6 114.7q-5.1 0-5.1 3.6c0 1.2.4 2.1 1.2 2.6s2.6 1.2 5.3 1.9c2.7.8 4.7 1.7 5.8 2.7s1.7 2.7 1.7 5c0 2.9-.8 5-2.5 6.5-1.6 1.4-3.9 2.1-6.7 2.1-2.3 0-4.8-.3-7.5-.8l-1.4-.3.4-3.6c3.6.5 6.3.7 8.2.7 3.3 0 5-1.5 5-4.4 0-1.1-.4-2-1.1-2.5s-2.4-1.1-5-1.8-4.6-1.6-5.8-2.7-1.9-3-1.9-5.4c0-2.5.8-4.4 2.4-5.6 1.6-1.3 3.8-1.9 6.7-1.9 2.1 0 4.5.2 7.3.7l1.4.2-.4 3.6c-3.8-.4-6.4-.6-8-.6" class="st14"/></g><g class="st15"><path d="M102.2 175.1h-5.6v8.5h-4.4v-27.4h10c6.2 0 9.3 3.1 9.3 9.2 0 3.1-.8 5.5-2.3 7.2s-3.9 2.5-7 2.5m-5.6-3.8h5.6c3.2 0 4.8-1.9 4.8-5.8 0-1.9-.4-3.2-1.2-4.1s-2-1.3-3.6-1.3h-5.6z" class="st14"/></g><g class="st15"><path d="M129.9 169.8v9.1c0 .6.2 1 .5 1.3s.7.5 1.3.5l-.1 3.3c-2.3 0-4.1-.5-5.3-1.5-2.1 1-4.3 1.5-6.4 1.5-4 0-6-2.1-6-6.4 0-2 .5-3.5 1.6-4.4s2.7-1.5 5-1.6l5.2-.4v-1.4c0-1.1-.2-1.8-.7-2.2q-.75-.6-2.1-.6c-1.7 0-3.8.1-6.4.3l-1.3.1-.2-3.1c2.9-.7 5.6-1 8-1s4.2.5 5.3 1.6c1.1 1 1.6 2.6 1.6 4.9m-8.9 5c-1.8.2-2.8 1.2-2.8 3s.8 2.8 2.4 2.8q1.95 0 4.2-.6l.7-.2v-5.3z" class="st14"/></g><g class="st15"><path d="M133.3 163.7h4.3l4.2 16.3h1.1l4.2-16.3h4.3l-7.6 28.6h-4.3l2.4-8.6h-3.4zM159.2 183.7h-4.4v-20h4.3v1.2c1.9-1.1 3.6-1.7 5.2-1.7 2.3 0 4 .7 5.1 2 2.4-1.3 4.8-2 7.2-2s4.1.7 5.1 2.2q1.5 2.25 1.5 7.5v10.7h-4.3V173c0-2.2-.2-3.7-.7-4.6-.4-.9-1.4-1.4-2.7-1.4-1.2 0-2.5.3-3.9.8l-.7.3q.3.75.3 5.1v10.4H167v-10.3c0-2.4-.2-4-.6-4.9s-1.4-1.4-2.8-1.4c-1.3 0-2.6.3-3.7.8l-.6.2v15.7zM202.6 180.1l1.1-.1.1 3.2q-4.5.9-8.1.9c-3 0-5.1-.8-6.4-2.4s-1.9-4.2-1.9-7.8c0-7.1 2.9-10.6 8.7-10.6 5.6 0 8.4 3.1 8.4 9.2l-.3 3.1h-12.4c0 1.7.4 2.9 1.1 3.6s2 1.2 3.9 1.2 3.8-.2 5.8-.3m-2.4-8c0-2-.3-3.4-.9-4.1-.6-.8-1.7-1.2-3.2-1.2q-2.25 0-3.3 1.2c-.7.8-1 2.2-1.1 4.1zM213 183.7h-4.4v-20h4.3v1.2c1.9-1.1 3.8-1.7 5.5-1.7 2.7 0 4.5.8 5.5 2.3q1.5 2.25 1.5 7.5v10.7h-4.3v-10.6c0-2.2-.2-3.7-.7-4.6s-1.4-1.4-2.9-1.4c-1.4 0-2.7.3-3.9.8l-.6.2zM241.3 167.4h-5.5v8.8c0 1.6.1 2.7.4 3.2.2.5.9.8 1.8.8l3.3-.1.2 3.5c-1.8.3-3.1.5-4.1.5-2.3 0-3.8-.5-4.7-1.6-.8-1-1.3-3-1.3-5.9v-9.3h-2.6v-3.7h2.6v-5.8h4.3v5.8h5.5v3.8zM258.7 167.8c-3.1-.4-5.4-.6-6.8-.6s-2.4.2-2.9.5-.8.9-.8 1.6q0 1.05.9 1.5c.6.3 2 .6 4.2 1s3.8 1 4.7 1.8 1.4 2.3 1.4 4.4-.7 3.7-2 4.6c-1.3 1-3.3 1.5-5.9 1.5-1.6 0-3.7-.2-6.2-.7l-1.2-.2.2-3.6q4.8.6 6.9.6c1.4 0 2.4-.2 3-.5s.9-.9.9-1.7-.3-1.4-.9-1.7-1.9-.6-4.1-1-3.8-.9-4.8-1.7q-1.5-1.2-1.5-4.2c0-2.1.7-3.6 2.1-4.6q2.1-1.5 5.4-1.5 2.55 0 6.3.6l1.2.2z" class="st14"/></g><g class="st15"><path d="M77.3 228.7v-27.4h17v3.9H81.8v9.2h10.4v3.9H81.8v10.4z" class="st14"/></g><g class="st15"><path d="m111.5 225.1 1.1-.1.1 3.2q-4.5.9-8.1.9c-3 0-5.1-.8-6.4-2.4s-1.9-4.2-1.9-7.8c0-7.1 2.9-10.6 8.7-10.6 5.6 0 8.4 3.1 8.4 9.2l-.3 3.1h-12.4c0 1.7.4 2.9 1.1 3.6q1.05 1.2 3.9 1.2c1.9-.1 3.8-.2 5.8-.3m-2.4-8c0-2-.3-3.4-.9-4.1-.6-.8-1.7-1.2-3.2-1.2q-2.25 0-3.3 1.2c-.7.8-1 2.2-1.1 4.1zM131.8 225.1l1.1-.1.1 3.2q-4.5.9-8.1.9c-3 0-5.1-.8-6.4-2.4s-1.9-4.2-1.9-7.8c0-7.1 2.9-10.6 8.7-10.6 5.6 0 8.4 3.1 8.4 9.2l-.3 3.1H121c0 1.7.4 2.9 1.1 3.6q1.05 1.2 3.9 1.2c1.9-.1 3.8-.2 5.8-.3m-2.4-8c0-2-.3-3.4-.9-4.1-.6-.8-1.7-1.2-3.2-1.2q-2.25 0-3.3 1.2c-.7.8-1 2.2-1.1 4.1zM138.2 228.7v-28.3h4.4v28.3zM157.4 201.3h10.4c2.8 0 4.9.6 6.3 1.7q2.1 1.65 2.1 5.4c0 1.6-.3 2.9-.8 3.8s-1.3 1.7-2.5 2.3c2.6 1 3.9 3.1 3.9 6.4q0 7.8-8.7 7.8h-10.7zm10.1 3.8h-5.7v7.8h5.9c2.6 0 3.9-1.3 3.9-4 0-2.5-1.4-3.8-4.1-3.8m.3 11.6h-6v8.1h6q2.25 0 3.3-.9c.7-.6 1.1-1.7 1.1-3.2s-.4-2.5-1.3-3.1c-.8-.6-1.9-.9-3.1-.9" class="st14"/></g><g class="st15"><path d="M181.3 228.7v-20h4.3v2.4c2.3-1.5 4.5-2.4 6.8-2.8v4.4c-2.3.5-4.3 1-5.9 1.8l-.9.4v14h-4.3z" class="st14"/></g><g class="st15"><path d="M196.7 210.8c1.4-1.7 3.7-2.6 6.9-2.6s5.5.9 6.9 2.6 2.1 4.3 2.1 7.8-.7 6.1-2 7.8c-1.3 1.8-3.6 2.6-6.9 2.6s-5.6-.9-6.9-2.6c-1.3-1.8-2-4.4-2-7.8-.2-3.4.5-6 1.9-7.8m3.3 13c.6 1.1 1.8 1.6 3.6 1.6s3-.5 3.6-1.6.9-2.8.9-5.2-.3-4.1-1-5.2c-.7-1-1.8-1.5-3.5-1.5s-2.9.5-3.5 1.5c-.7 1-1 2.7-1 5.2-.1 2.4.2 4.2.9 5.2" class="st14"/></g><g class="st15"><path d="M221.2 228.7h-4.4v-28.3h4.4v16.4l2.5-.2 4.7-7.8h4.9l-5.8 9.4 6.1 10.6h-4.9l-4.9-8.4-2.6.3z" class="st14"/></g><g class="st15"><path d="m250.6 225.1 1.1-.1.1 3.2q-4.5.9-8.1.9c-3 0-5.1-.8-6.4-2.4s-1.9-4.2-1.9-7.8c0-7.1 2.9-10.6 8.7-10.6 5.6 0 8.4 3.1 8.4 9.2l-.3 3.1h-12.4c0 1.7.4 2.9 1.1 3.6s2 1.2 3.9 1.2 3.8-.2 5.8-.3m-2.4-8c0-2-.3-3.4-.9-4.1-.6-.8-1.7-1.2-3.2-1.2q-2.25 0-3.3 1.2c-.7.8-1 2.2-1.1 4.1zM261 228.7h-4.4v-20h4.3v1.2c1.9-1.1 3.8-1.7 5.5-1.7 2.7 0 4.5.8 5.5 2.3s1.5 4 1.5 7.5v10.7h-4.3v-10.6c0-2.2-.2-3.7-.7-4.6s-1.4-1.4-2.9-1.4c-1.4 0-2.7.3-3.9.8l-.6.2z" class="st14"/></g></g></svg>